<?xml version="1.0" encoding="utf-8" standalone="no"?>
<!DOCTYPE svg PUBLIC "-//W3C//DTD SVG 1.1//EN"
  "http://www.w3.org/Graphics/SVG/1.1/DTD/svg11.dtd">
<svg xmlns:xlink="http://www.w3.org/1999/xlink" width="409.516071pt" height="302.019779pt" viewBox="0 0 409.516071 302.019779" xmlns="http://www.w3.org/2000/svg" version="1.1">
 <metadata>
  <rdf:RDF xmlns:dc="http://purl.org/dc/elements/1.1/" xmlns:cc="http://creativecommons.org/ns#" xmlns:rdf="http://www.w3.org/1999/02/22-rdf-syntax-ns#">
   <cc:Work>
    <dc:type rdf:resource="http://purl.org/dc/dcmitype/StillImage"/>
    <dc:date>2026-07-16T10:55:22.243965</dc:date>
    <dc:format>image/svg+xml</dc:format>
    <dc:creator>
     <cc:Agent>
      <dc:title>Matplotlib v3.10.3, https://matplotlib.org/</dc:title>
     </cc:Agent>
    </dc:creator>
   </cc:Work>
  </rdf:RDF>
 </metadata>
 <defs>
  <style type="text/css">*{stroke-linejoin: round; stroke-linecap: butt}</style>
 </defs>
 <g id="figure_1">
  <g id="patch_1">
   <path d="M 0 302.019779 
L 409.516071 302.019779 
L 409.516071 0 
L 0 0 
L 0 302.019779 
z
" style="fill: none"/>
  </g>
  <g id="axes_1">
   <g id="patch_2">
    <path d="M 44.178125 228.080464 
L 409.516071 228.080464 
L 409.516071 -0 
L 44.178125 -0 
L 44.178125 228.080464 
z
" style="fill: none"/>
   </g>
   <g id="FillBetweenPolyCollection_1">
    <defs>
     <path id="m832b35aa8a" d="M 70.877608 -91.269568 
L 69.669777 -91.269568 
L 69.644496 -92.89388 
L 69.618574 -94.518192 
L 69.587977 -96.142504 
L 69.547703 -97.766816 
L 69.492003 -99.391128 
L 69.414677 -101.01544 
L 69.309423 -102.639752 
L 69.170213 -104.264064 
L 68.991663 -105.888376 
L 68.769364 -107.512688 
L 68.50015 -109.137 
L 68.182277 -110.761312 
L 67.815501 -112.385624 
L 67.401036 -114.009936 
L 66.9414 -115.634248 
L 66.440155 -117.25856 
L 65.901555 -118.882872 
L 65.330127 -120.507184 
L 64.730227 -122.131496 
L 64.105595 -123.755808 
L 63.458968 -125.38012 
L 62.791785 -127.004432 
L 62.104033 -128.628743 
L 61.394278 -130.253055 
L 60.659895 -131.877367 
L 59.897517 -133.501679 
L 59.103683 -135.125991 
L 58.275634 -136.750303 
L 57.412192 -138.374615 
L 56.514595 -139.998927 
L 55.587193 -141.623239 
L 54.637868 -143.247551 
L 53.678085 -144.871863 
L 52.72252 -146.496175 
L 51.788271 -148.120487 
L 50.893718 -149.744799 
L 50.057182 -151.369111 
L 49.29554 -152.993423 
L 48.622999 -154.617735 
L 48.05021 -156.242047 
L 47.583805 -157.866359 
L 47.226444 -159.490671 
L 46.977285 -161.114983 
L 46.832791 -162.739295 
L 46.787682 -164.363607 
L 46.835862 -165.987919 
L 46.971141 -167.612231 
L 47.187655 -169.236543 
L 47.479922 -170.860855 
L 47.842602 -172.485167 
L 48.27002 -174.109479 
L 48.755635 -175.733791 
L 49.291574 -177.358103 
L 49.868384 -178.982415 
L 50.475084 -180.606727 
L 51.099553 -182.231039 
L 51.729222 -183.855351 
L 52.351983 -185.479663 
L 52.957189 -187.103975 
L 53.536613 -188.728287 
L 54.085202 -190.352599 
L 54.601526 -191.976911 
L 55.08785 -193.601223 
L 55.549793 -195.225535 
L 55.995621 -196.849847 
L 56.435254 -198.474159 
L 56.879117 -200.098471 
L 57.336961 -201.722783 
L 57.816813 -203.347095 
L 58.324143 -204.971407 
L 58.861357 -206.595719 
L 59.427613 -208.220031 
L 60.018968 -209.844343 
L 60.628804 -211.468655 
L 61.248449 -213.092967 
L 61.867922 -214.717279 
L 62.476721 -216.34159 
L 63.064592 -217.965902 
L 63.622227 -219.590214 
L 64.141853 -221.214526 
L 64.617693 -222.838838 
L 65.046274 -224.46315 
L 65.426566 -226.087462 
L 65.759951 -227.711774 
L 66.050005 -229.336086 
L 66.302126 -230.960398 
L 66.523021 -232.58471 
L 66.720108 -234.209022 
L 66.900889 -235.833334 
L 67.072352 -237.457646 
L 67.240477 -239.081958 
L 67.409871 -240.70627 
L 67.583582 -242.330582 
L 67.763077 -243.954894 
L 67.948375 -245.579206 
L 68.138297 -247.203518 
L 68.330775 -248.82783 
L 68.523192 -250.452142 
L 68.712701 -252.076454 
L 71.834684 -252.076454 
L 71.834684 -252.076454 
L 72.024193 -250.452142 
L 72.216611 -248.82783 
L 72.409088 -247.203518 
L 72.59901 -245.579206 
L 72.784308 -243.954894 
L 72.963803 -242.330582 
L 73.137514 -240.70627 
L 73.306908 -239.081958 
L 73.475033 -237.457646 
L 73.646497 -235.833334 
L 73.827277 -234.209022 
L 74.024364 -232.58471 
L 74.245259 -230.960398 
L 74.49738 -229.336086 
L 74.787434 -227.711774 
L 75.120819 -226.087462 
L 75.501112 -224.46315 
L 75.929692 -222.838838 
L 76.405532 -221.214526 
L 76.925158 -219.590214 
L 77.482793 -217.965902 
L 78.070664 -216.34159 
L 78.679463 -214.717279 
L 79.298936 -213.092967 
L 79.918581 -211.468655 
L 80.528417 -209.844343 
L 81.119772 -208.220031 
L 81.686028 -206.595719 
L 82.223242 -204.971407 
L 82.730573 -203.347095 
L 83.210424 -201.722783 
L 83.668268 -200.098471 
L 84.112131 -198.474159 
L 84.551764 -196.849847 
L 84.997592 -195.225535 
L 85.459535 -193.601223 
L 85.945859 -191.976911 
L 86.462184 -190.352599 
L 87.010772 -188.728287 
L 87.590196 -187.103975 
L 88.195402 -185.479663 
L 88.818163 -183.855351 
L 89.447832 -182.231039 
L 90.072301 -180.606727 
L 90.679001 -178.982415 
L 91.255811 -177.358103 
L 91.79175 -175.733791 
L 92.277365 -174.109479 
L 92.704784 -172.485167 
L 93.067463 -170.860855 
L 93.359731 -169.236543 
L 93.576244 -167.612231 
L 93.711523 -165.987919 
L 93.759703 -164.363607 
L 93.714595 -162.739295 
L 93.5701 -161.114983 
L 93.320941 -159.490671 
L 92.96358 -157.866359 
L 92.497175 -156.242047 
L 91.924386 -154.617735 
L 91.251846 -152.993423 
L 90.490203 -151.369111 
L 89.653667 -149.744799 
L 88.759114 -148.120487 
L 87.824865 -146.496175 
L 86.8693 -144.871863 
L 85.909518 -143.247551 
L 84.960193 -141.623239 
L 84.03279 -139.998927 
L 83.135193 -138.374615 
L 82.271751 -136.750303 
L 81.443703 -135.125991 
L 80.649868 -133.501679 
L 79.88749 -131.877367 
L 79.153107 -130.253055 
L 78.443352 -128.628743 
L 77.7556 -127.004432 
L 77.088417 -125.38012 
L 76.44179 -123.755808 
L 75.817158 -122.131496 
L 75.217258 -120.507184 
L 74.64583 -118.882872 
L 74.10723 -117.25856 
L 73.605985 -115.634248 
L 73.146349 -114.009936 
L 72.731884 -112.385624 
L 72.365108 -110.761312 
L 72.047235 -109.137 
L 71.778021 -107.512688 
L 71.555722 -105.888376 
L 71.377172 -104.264064 
L 71.237962 -102.639752 
L 71.132708 -101.01544 
L 71.055382 -99.391128 
L 70.999682 -97.766816 
L 70.959408 -96.142504 
L 70.928811 -94.518192 
L 70.902889 -92.89388 
L 70.877608 -91.269568 
z
" style="stroke: #2f2f2f; stroke-width: 0.75"/>
    </defs>
    <g clip-path="url(#p6a2c2f7ce4)">
     <use xlink:href="#m832b35aa8a" x="0" y="302.019779" style="fill: #166c9c; stroke: #2f2f2f; stroke-width: 0.75"/>
    </g>
   </g>
   <g id="FillBetweenPolyCollection_2">
    <defs>
     <path id="m46b18f0be2" d="M 122.992375 -84.306608 
L 121.93728 -84.306608 
L 121.939911 -85.98566 
L 121.952239 -87.664712 
L 121.972206 -89.343764 
L 121.996803 -91.022815 
L 122.022198 -92.701867 
L 122.043905 -94.380919 
L 122.056974 -96.059971 
L 122.056175 -97.739022 
L 122.036171 -99.418074 
L 121.99167 -101.097126 
L 121.91757 -102.776177 
L 121.809094 -104.455229 
L 121.661939 -106.134281 
L 121.472422 -107.813333 
L 121.237635 -109.492384 
L 120.955584 -111.171436 
L 120.625292 -112.850488 
L 120.246853 -114.52954 
L 119.821395 -116.208591 
L 119.350964 -117.887643 
L 118.838307 -119.566695 
L 118.286575 -121.245746 
L 117.698972 -122.924798 
L 117.078387 -124.60385 
L 116.427043 -126.282902 
L 115.74622 -127.961953 
L 115.036102 -129.641005 
L 114.295773 -131.320057 
L 113.5234 -132.999109 
L 112.716627 -134.67816 
L 111.873138 -136.357212 
L 110.991385 -138.036264 
L 110.07138 -139.715315 
L 109.115486 -141.394367 
L 108.12906 -143.073419 
L 107.120868 -144.752471 
L 106.103145 -146.431522 
L 105.091273 -148.110574 
L 104.103051 -149.789626 
L 103.15765 -151.468678 
L 102.274356 -153.147729 
L 101.471267 -154.826781 
L 100.764142 -156.505833 
L 100.165523 -158.184884 
L 99.684261 -159.863936 
L 99.325447 -161.542988 
L 99.090721 -163.22204 
L 98.978817 -164.901091 
L 98.986209 -166.580143 
L 99.107689 -168.259195 
L 99.336756 -169.938246 
L 99.66576 -171.617298 
L 100.085828 -173.29635 
L 100.586637 -174.975402 
L 101.156194 -176.654453 
L 101.780763 -178.333505 
L 102.445055 -180.012557 
L 103.132771 -181.691609 
L 103.827477 -183.37066 
L 104.513735 -185.049712 
L 105.178335 -186.728764 
L 105.811457 -188.407815 
L 106.407552 -190.086867 
L 106.965791 -191.765919 
L 107.489998 -193.444971 
L 107.988028 -195.124022 
L 108.470691 -196.803074 
L 108.950334 -198.482126 
L 109.439294 -200.161178 
L 109.948419 -201.840229 
L 110.48583 -203.519281 
L 111.056068 -205.198333 
L 111.659684 -206.877384 
L 112.293274 -208.556436 
L 112.949889 -210.235488 
L 113.619747 -211.91454 
L 114.291107 -213.593591 
L 114.951236 -215.272643 
L 115.587365 -216.951695 
L 116.18759 -218.630747 
L 116.741666 -220.309798 
L 117.241673 -221.98885 
L 117.682525 -223.667902 
L 118.062285 -225.346953 
L 118.382259 -227.026005 
L 118.646849 -228.705057 
L 118.863161 -230.384109 
L 119.040372 -232.06316 
L 119.188935 -233.742212 
L 119.319668 -235.421264 
L 119.442857 -237.100316 
L 119.567435 -238.779367 
L 119.700366 -240.458419 
L 119.846258 -242.137471 
L 120.00725 -243.816522 
L 120.183157 -245.495574 
L 120.371824 -247.174626 
L 120.569619 -248.853678 
L 120.771994 -250.532729 
L 124.157662 -250.532729 
L 124.157662 -250.532729 
L 124.360036 -248.853678 
L 124.557831 -247.174626 
L 124.746499 -245.495574 
L 124.922406 -243.816522 
L 125.083397 -242.137471 
L 125.229289 -240.458419 
L 125.36222 -238.779367 
L 125.486799 -237.100316 
L 125.609987 -235.421264 
L 125.740721 -233.742212 
L 125.889283 -232.06316 
L 126.066495 -230.384109 
L 126.282806 -228.705057 
L 126.547397 -227.026005 
L 126.86737 -225.346953 
L 127.24713 -223.667902 
L 127.687983 -221.98885 
L 128.18799 -220.309798 
L 128.742066 -218.630747 
L 129.342291 -216.951695 
L 129.97842 -215.272643 
L 130.638549 -213.593591 
L 131.309908 -211.91454 
L 131.979766 -210.235488 
L 132.636382 -208.556436 
L 133.269971 -206.877384 
L 133.873588 -205.198333 
L 134.443826 -203.519281 
L 134.981236 -201.840229 
L 135.490361 -200.161178 
L 135.979321 -198.482126 
L 136.458964 -196.803074 
L 136.941627 -195.124022 
L 137.439658 -193.444971 
L 137.963864 -191.765919 
L 138.522104 -190.086867 
L 139.118198 -188.407815 
L 139.751321 -186.728764 
L 140.415921 -185.049712 
L 141.102178 -183.37066 
L 141.796884 -181.691609 
L 142.484601 -180.012557 
L 143.148893 -178.333505 
L 143.773461 -176.654453 
L 144.343019 -174.975402 
L 144.843827 -173.29635 
L 145.263895 -171.617298 
L 145.5929 -169.938246 
L 145.821966 -168.259195 
L 145.943446 -166.580143 
L 145.950839 -164.901091 
L 145.838934 -163.22204 
L 145.604208 -161.542988 
L 145.245395 -159.863936 
L 144.764132 -158.184884 
L 144.165514 -156.505833 
L 143.458389 -154.826781 
L 142.6553 -153.147729 
L 141.772005 -151.468678 
L 140.826605 -149.789626 
L 139.838383 -148.110574 
L 138.82651 -146.431522 
L 137.808787 -144.752471 
L 136.800595 -143.073419 
L 135.81417 -141.394367 
L 134.858275 -139.715315 
L 133.938271 -138.036264 
L 133.056517 -136.357212 
L 132.213029 -134.67816 
L 131.406255 -132.999109 
L 130.633883 -131.320057 
L 129.893553 -129.641005 
L 129.183435 -127.961953 
L 128.502613 -126.282902 
L 127.851268 -124.60385 
L 127.230683 -122.924798 
L 126.643081 -121.245746 
L 126.091348 -119.566695 
L 125.578691 -117.887643 
L 125.10826 -116.208591 
L 124.682803 -114.52954 
L 124.304363 -112.850488 
L 123.974072 -111.171436 
L 123.69202 -109.492384 
L 123.457233 -107.813333 
L 123.267716 -106.134281 
L 123.120561 -104.455229 
L 123.012086 -102.776177 
L 122.937985 -101.097126 
L 122.893485 -99.418074 
L 122.873481 -97.739022 
L 122.872682 -96.059971 
L 122.885751 -94.380919 
L 122.907457 -92.701867 
L 122.932852 -91.022815 
L 122.957449 -89.343764 
L 122.977417 -87.664712 
L 122.989744 -85.98566 
L 122.992375 -84.306608 
z
" style="stroke: #2f2f2f; stroke-width: 0.75"/>
    </defs>
    <g clip-path="url(#p6a2c2f7ce4)">
     <use xlink:href="#m46b18f0be2" x="0" y="302.019779" style="fill: #96bdd2; stroke: #2f2f2f; stroke-width: 0.75"/>
    </g>
   </g>
   <g id="FillBetweenPolyCollection_3">
    <defs>
     <path id="ma7ca2442a9" d="M 175.236651 -90.753482 
L 174.075275 -90.753482 
L 174.061808 -92.390898 
L 174.051966 -94.028313 
L 174.04237 -95.665728 
L 174.028623 -97.303144 
L 174.005479 -98.940559 
L 173.967088 -100.577974 
L 173.907273 -102.215389 
L 173.819823 -103.852805 
L 173.698786 -105.49022 
L 173.538737 -107.127635 
L 173.335001 -108.765051 
L 173.083844 -110.402466 
L 172.782608 -112.039881 
L 172.429787 -113.677297 
L 172.025059 -115.314712 
L 171.569242 -116.952127 
L 171.0642 -118.589543 
L 170.512677 -120.226958 
L 169.918067 -121.864373 
L 169.28414 -123.501789 
L 168.614729 -125.139204 
L 167.913417 -126.776619 
L 167.183258 -128.414035 
L 166.426572 -130.05145 
L 165.644867 -131.688865 
L 164.838903 -133.326281 
L 164.00894 -134.963696 
L 163.155149 -136.601111 
L 162.278153 -138.238526 
L 161.379644 -139.875942 
L 160.462979 -141.513357 
L 159.533656 -143.150772 
L 158.599585 -144.788188 
L 157.671056 -146.425603 
L 156.760399 -148.063018 
L 155.881328 -149.700434 
L 155.048059 -151.337849 
L 154.27431 -152.975264 
L 153.572335 -154.61268 
L 152.952128 -156.250095 
L 152.420928 -157.88751 
L 151.983078 -159.524926 
L 151.640243 -161.162341 
L 151.391914 -162.799756 
L 151.236088 -164.437172 
L 151.169952 -166.074587 
L 151.190455 -167.712002 
L 151.294628 -169.349417 
L 151.479618 -170.986833 
L 151.742432 -172.624248 
L 152.079484 -174.261663 
L 152.486048 -175.899079 
L 152.95578 -177.536494 
L 153.480431 -179.173909 
L 154.049855 -180.811325 
L 154.652365 -182.44874 
L 155.275409 -184.086155 
L 155.906502 -185.723571 
L 156.534271 -187.360986 
L 157.149471 -188.998401 
L 157.745819 -190.635817 
L 158.320498 -192.273232 
L 158.874266 -193.910647 
L 159.411134 -195.548063 
L 159.937646 -197.185478 
L 160.461884 -198.822893 
L 160.992302 -200.460308 
L 161.536582 -202.097724 
L 162.10063 -203.735139 
L 162.687839 -205.372554 
L 163.298694 -207.00997 
L 163.930711 -208.647385 
L 164.578693 -210.2848 
L 165.235227 -211.922216 
L 165.891335 -213.559631 
L 166.537192 -215.197046 
L 167.162854 -216.834462 
L 167.758931 -218.471877 
L 168.317182 -220.109292 
L 168.831009 -221.746708 
L 169.29584 -223.384123 
L 169.709383 -225.021538 
L 170.071728 -226.658954 
L 170.385294 -228.296369 
L 170.6546 -229.933784 
L 170.885871 -231.571199 
L 171.086514 -233.208615 
L 171.264493 -234.84603 
L 171.427693 -236.483445 
L 171.583316 -238.120861 
L 171.737389 -239.758276 
L 171.89444 -241.395691 
L 172.057335 -243.033107 
L 172.227312 -244.670522 
L 172.404157 -246.307937 
L 172.586482 -247.945353 
L 172.772065 -249.582768 
L 172.958195 -251.220183 
L 173.141979 -252.857599 
L 176.169947 -252.857599 
L 176.169947 -252.857599 
L 176.35373 -251.220183 
L 176.539861 -249.582768 
L 176.725444 -247.945353 
L 176.907769 -246.307937 
L 177.084613 -244.670522 
L 177.254591 -243.033107 
L 177.417486 -241.395691 
L 177.574536 -239.758276 
L 177.72861 -238.120861 
L 177.884232 -236.483445 
L 178.047433 -234.84603 
L 178.225412 -233.208615 
L 178.426055 -231.571199 
L 178.657326 -229.933784 
L 178.926632 -228.296369 
L 179.240198 -226.658954 
L 179.602543 -225.021538 
L 180.016086 -223.384123 
L 180.480917 -221.746708 
L 180.994744 -220.109292 
L 181.552995 -218.471877 
L 182.149072 -216.834462 
L 182.774734 -215.197046 
L 183.420591 -213.559631 
L 184.076699 -211.922216 
L 184.733233 -210.2848 
L 185.381215 -208.647385 
L 186.013231 -207.00997 
L 186.624086 -205.372554 
L 187.211296 -203.735139 
L 187.775343 -202.097724 
L 188.319624 -200.460308 
L 188.850042 -198.822893 
L 189.37428 -197.185478 
L 189.900792 -195.548063 
L 190.43766 -193.910647 
L 190.991428 -192.273232 
L 191.566107 -190.635817 
L 192.162455 -188.998401 
L 192.777655 -187.360986 
L 193.405423 -185.723571 
L 194.036516 -184.086155 
L 194.659561 -182.44874 
L 195.26207 -180.811325 
L 195.831494 -179.173909 
L 196.356145 -177.536494 
L 196.825878 -175.899079 
L 197.232442 -174.261663 
L 197.569493 -172.624248 
L 197.832308 -170.986833 
L 198.017297 -169.349417 
L 198.121471 -167.712002 
L 198.141974 -166.074587 
L 198.075838 -164.437172 
L 197.920011 -162.799756 
L 197.671683 -161.162341 
L 197.328847 -159.524926 
L 196.890998 -157.88751 
L 196.359798 -156.250095 
L 195.739591 -154.61268 
L 195.037615 -152.975264 
L 194.263867 -151.337849 
L 193.430598 -149.700434 
L 192.551527 -148.063018 
L 191.640869 -146.425603 
L 190.712341 -144.788188 
L 189.778269 -143.150772 
L 188.848947 -141.513357 
L 187.932281 -139.875942 
L 187.033772 -138.238526 
L 186.156776 -136.601111 
L 185.302985 -134.963696 
L 184.473023 -133.326281 
L 183.667059 -131.688865 
L 182.885353 -130.05145 
L 182.128668 -128.414035 
L 181.398508 -126.776619 
L 180.697196 -125.139204 
L 180.027785 -123.501789 
L 179.393858 -121.864373 
L 178.799249 -120.226958 
L 178.247726 -118.589543 
L 177.742684 -116.952127 
L 177.286867 -115.314712 
L 176.882139 -113.677297 
L 176.529318 -112.039881 
L 176.228082 -110.402466 
L 175.976925 -108.765051 
L 175.773189 -107.127635 
L 175.61314 -105.49022 
L 175.492103 -103.852805 
L 175.404653 -102.215389 
L 175.344837 -100.577974 
L 175.306447 -98.940559 
L 175.283303 -97.303144 
L 175.269555 -95.665728 
L 175.25996 -94.028313 
L 175.250117 -92.390898 
L 175.236651 -90.753482 
z
" style="stroke: #2f2f2f; stroke-width: 0.75"/>
    </defs>
    <g clip-path="url(#p6a2c2f7ce4)">
     <use xlink:href="#ma7ca2442a9" x="0" y="302.019779" style="fill: #ba611b; stroke: #2f2f2f; stroke-width: 0.75"/>
    </g>
   </g>
   <g id="FillBetweenPolyCollection_4">
    <defs>
     <path id="m3dc1d52cc6" d="M 227.386057 -89.340702 
L 226.308139 -89.340702 
L 226.303424 -90.962244 
L 226.304739 -92.583787 
L 226.309234 -94.205329 
L 226.31302 -95.826872 
L 226.311304 -97.448415 
L 226.298577 -99.069957 
L 226.268854 -100.6915 
L 226.215933 -102.313042 
L 226.133665 -103.934585 
L 226.01622 -105.556128 
L 225.858324 -107.17767 
L 225.655474 -108.799213 
L 225.404095 -110.420755 
L 225.101652 -112.042298 
L 224.746694 -113.663841 
L 224.338833 -115.285383 
L 223.878645 -116.906926 
L 223.367518 -118.528468 
L 222.807433 -120.150011 
L 222.200719 -121.771554 
L 221.549784 -123.393096 
L 220.856867 -125.014639 
L 220.123835 -126.636181 
L 219.352051 -128.257724 
L 218.542364 -129.879266 
L 217.695229 -131.500809 
L 216.810982 -133.122352 
L 215.890268 -134.743894 
L 214.934593 -136.365437 
L 213.94695 -137.986979 
L 212.932443 -139.608522 
L 211.898798 -141.230065 
L 210.856688 -142.851607 
L 209.819742 -144.47315 
L 208.804214 -146.094692 
L 207.828278 -147.716235 
L 206.911015 -149.337778 
L 206.071176 -150.95932 
L 205.325886 -152.580863 
L 204.689451 -154.202405 
L 204.17243 -155.823948 
L 203.781102 -157.445491 
L 203.51738 -159.067033 
L 203.379171 -160.688576 
L 203.361087 -162.310118 
L 203.455368 -163.931661 
L 203.652842 -165.553204 
L 203.943753 -167.174746 
L 204.318333 -168.796289 
L 204.767051 -170.417831 
L 205.280543 -172.039374 
L 205.849316 -173.660917 
L 206.463353 -175.282459 
L 207.111774 -176.904002 
L 207.782701 -178.525544 
L 208.463421 -180.147087 
L 209.140882 -181.76863 
L 209.80249 -183.390172 
L 210.437085 -185.011715 
L 211.035957 -186.633257 
L 211.593717 -188.2548 
L 212.108872 -189.876343 
L 212.583996 -191.497885 
L 213.025426 -193.119428 
L 213.44254 -194.74097 
L 213.84668 -196.362513 
L 214.249876 -197.984055 
L 214.663545 -199.605598 
L 215.097309 -201.227141 
L 215.558079 -202.848683 
L 216.04949 -204.470226 
L 216.571699 -206.091768 
L 217.121534 -207.713311 
L 217.692935 -209.334854 
L 218.277584 -210.956396 
L 218.865656 -212.577939 
L 219.446602 -214.199481 
L 220.009912 -215.821024 
L 220.545814 -217.442567 
L 221.04588 -219.064109 
L 221.503531 -220.685652 
L 221.914409 -222.307194 
L 222.27661 -223.928737 
L 222.590741 -225.55028 
L 222.859811 -227.171822 
L 223.088924 -228.793365 
L 223.284821 -230.414907 
L 223.455283 -232.03645 
L 223.608467 -233.657993 
L 223.752242 -235.279535 
L 223.893585 -236.901078 
L 224.038108 -238.52262 
L 224.189761 -240.144163 
L 224.350718 -241.765706 
L 224.521442 -243.387248 
L 224.700903 -245.008791 
L 224.886901 -246.630333 
L 225.076435 -248.251876 
L 225.266079 -249.873419 
L 228.428117 -249.873419 
L 228.428117 -249.873419 
L 228.617761 -248.251876 
L 228.807295 -246.630333 
L 228.993293 -245.008791 
L 229.172754 -243.387248 
L 229.343478 -241.765706 
L 229.504435 -240.144163 
L 229.656088 -238.52262 
L 229.800612 -236.901078 
L 229.941954 -235.279535 
L 230.085729 -233.657993 
L 230.238913 -232.03645 
L 230.409375 -230.414907 
L 230.605272 -228.793365 
L 230.834385 -227.171822 
L 231.103455 -225.55028 
L 231.417586 -223.928737 
L 231.779787 -222.307194 
L 232.190665 -220.685652 
L 232.648316 -219.064109 
L 233.148382 -217.442567 
L 233.684284 -215.821024 
L 234.247594 -214.199481 
L 234.82854 -212.577939 
L 235.416612 -210.956396 
L 236.001261 -209.334854 
L 236.572662 -207.713311 
L 237.122497 -206.091768 
L 237.644706 -204.470226 
L 238.136117 -202.848683 
L 238.596888 -201.227141 
L 239.030651 -199.605598 
L 239.44432 -197.984055 
L 239.847517 -196.362513 
L 240.251656 -194.74097 
L 240.66877 -193.119428 
L 241.110201 -191.497885 
L 241.585324 -189.876343 
L 242.100479 -188.2548 
L 242.658239 -186.633257 
L 243.257111 -185.011715 
L 243.891706 -183.390172 
L 244.553314 -181.76863 
L 245.230776 -180.147087 
L 245.911495 -178.525544 
L 246.582422 -176.904002 
L 247.230843 -175.282459 
L 247.84488 -173.660917 
L 248.413653 -172.039374 
L 248.927145 -170.417831 
L 249.375863 -168.796289 
L 249.750443 -167.174746 
L 250.041354 -165.553204 
L 250.238828 -163.931661 
L 250.333109 -162.310118 
L 250.315025 -160.688576 
L 250.176816 -159.067033 
L 249.913094 -157.445491 
L 249.521766 -155.823948 
L 249.004745 -154.202405 
L 248.36831 -152.580863 
L 247.62302 -150.95932 
L 246.783181 -149.337778 
L 245.865918 -147.716235 
L 244.889982 -146.094692 
L 243.874454 -144.47315 
L 242.837508 -142.851607 
L 241.795398 -141.230065 
L 240.761754 -139.608522 
L 239.747246 -137.986979 
L 238.759603 -136.365437 
L 237.803928 -134.743894 
L 236.883214 -133.122352 
L 235.998967 -131.500809 
L 235.151832 -129.879266 
L 234.342145 -128.257724 
L 233.570361 -126.636181 
L 232.837329 -125.014639 
L 232.144412 -123.393096 
L 231.493477 -121.771554 
L 230.886763 -120.150011 
L 230.326678 -118.528468 
L 229.815551 -116.906926 
L 229.355363 -115.285383 
L 228.947502 -113.663841 
L 228.592544 -112.042298 
L 228.290101 -110.420755 
L 228.038722 -108.799213 
L 227.835872 -107.17767 
L 227.677976 -105.556128 
L 227.560531 -103.934585 
L 227.478263 -102.313042 
L 227.425342 -100.6915 
L 227.395619 -99.069957 
L 227.382892 -97.448415 
L 227.381176 -95.826872 
L 227.384962 -94.205329 
L 227.389457 -92.583787 
L 227.390772 -90.962244 
L 227.386057 -89.340702 
z
" style="stroke: #2f2f2f; stroke-width: 0.75"/>
    </defs>
    <g clip-path="url(#p6a2c2f7ce4)">
     <use xlink:href="#m3dc1d52cc6" x="0" y="302.019779" style="fill: #e0b898; stroke: #2f2f2f; stroke-width: 0.75"/>
    </g>
   </g>
   <g id="FillBetweenPolyCollection_5">
    <defs>
     <path id="mbb3a183f4b" d="M 279.598443 -134.365879 
L 278.478023 -134.365879 
L 278.484017 -135.954632 
L 278.502155 -137.543386 
L 278.530919 -139.132139 
L 278.567966 -140.720893 
L 278.61029 -142.309647 
L 278.654408 -143.8984 
L 278.696527 -145.487154 
L 278.732677 -147.075907 
L 278.758783 -148.664661 
L 278.770674 -150.253415 
L 278.764043 -151.842168 
L 278.734401 -153.430922 
L 278.677043 -155.019675 
L 278.587084 -156.608429 
L 278.45959 -158.197183 
L 278.289821 -159.785936 
L 278.073591 -161.37469 
L 277.8077 -162.963443 
L 277.490407 -164.552197 
L 277.121853 -166.140951 
L 276.704361 -167.729704 
L 276.242541 -169.318458 
L 275.743126 -170.907211 
L 275.21452 -172.495965 
L 274.666064 -174.084719 
L 274.107082 -175.673472 
L 273.545789 -177.262226 
L 272.988211 -178.850979 
L 272.437243 -180.439733 
L 271.891996 -182.028487 
L 271.347558 -183.61724 
L 270.795236 -185.205994 
L 270.223314 -186.794747 
L 269.618285 -188.383501 
L 268.966444 -189.972255 
L 268.255696 -191.561008 
L 267.477356 -193.149762 
L 266.627725 -194.738515 
L 265.709225 -196.327269 
L 264.73092 -197.916022 
L 263.708312 -199.504776 
L 262.662411 -201.09353 
L 261.618156 -202.682283 
L 260.602367 -204.271037 
L 259.641472 -205.85979 
L 258.759271 -207.448544 
L 257.975026 -209.037298 
L 257.302057 -210.626051 
L 256.747021 -212.214805 
L 256.3099 -213.803558 
L 255.984681 -215.392312 
L 255.760601 -216.981066 
L 255.623796 -218.569819 
L 255.559167 -220.158573 
L 255.552222 -221.747326 
L 255.59073 -223.33608 
L 255.665982 -224.924834 
L 255.773555 -226.513587 
L 255.913479 -228.102341 
L 256.089812 -229.691094 
L 256.309678 -231.279848 
L 256.581892 -232.868602 
L 256.915368 -234.457355 
L 257.317525 -236.046109 
L 257.79293 -237.634862 
L 258.342359 -239.223616 
L 258.962428 -240.81237 
L 259.645821 -242.401123 
L 260.382071 -243.989877 
L 261.158728 -245.57863 
L 261.962723 -247.167384 
L 262.781668 -248.756138 
L 263.604891 -250.344891 
L 264.424044 -251.933645 
L 265.233236 -253.522398 
L 266.028706 -255.111152 
L 266.808185 -256.699906 
L 267.570104 -258.288659 
L 268.312832 -259.877413 
L 269.034121 -261.466166 
L 269.730836 -263.05492 
L 270.399016 -264.643674 
L 271.034216 -266.232427 
L 271.632043 -267.821181 
L 272.188777 -269.409934 
L 272.701935 -270.998688 
L 273.170715 -272.587442 
L 273.596218 -274.176195 
L 273.981452 -275.764949 
L 274.331097 -277.353702 
L 274.65109 -278.942456 
L 274.948062 -280.53121 
L 275.228722 -282.119963 
L 275.499235 -283.708717 
L 275.764684 -285.29747 
L 276.02866 -286.886224 
L 276.293038 -288.474978 
L 276.557943 -290.063731 
L 276.821907 -291.652485 
L 281.254559 -291.652485 
L 281.254559 -291.652485 
L 281.518523 -290.063731 
L 281.783428 -288.474978 
L 282.047807 -286.886224 
L 282.311783 -285.29747 
L 282.577231 -283.708717 
L 282.847745 -282.119963 
L 283.128405 -280.53121 
L 283.425377 -278.942456 
L 283.745369 -277.353702 
L 284.095014 -275.764949 
L 284.480248 -274.176195 
L 284.905752 -272.587442 
L 285.374531 -270.998688 
L 285.88769 -269.409934 
L 286.444423 -267.821181 
L 287.042251 -266.232427 
L 287.67745 -264.643674 
L 288.34563 -263.05492 
L 289.042345 -261.466166 
L 289.763634 -259.877413 
L 290.506363 -258.288659 
L 291.268281 -256.699906 
L 292.047761 -255.111152 
L 292.843231 -253.522398 
L 293.652422 -251.933645 
L 294.471576 -250.344891 
L 295.294799 -248.756138 
L 296.113744 -247.167384 
L 296.917738 -245.57863 
L 297.694395 -243.989877 
L 298.430645 -242.401123 
L 299.114039 -240.81237 
L 299.734108 -239.223616 
L 300.283537 -237.634862 
L 300.758942 -236.046109 
L 301.161099 -234.457355 
L 301.494574 -232.868602 
L 301.766788 -231.279848 
L 301.986654 -229.691094 
L 302.162988 -228.102341 
L 302.302911 -226.513587 
L 302.410484 -224.924834 
L 302.485737 -223.33608 
L 302.524244 -221.747326 
L 302.517299 -220.158573 
L 302.45267 -218.569819 
L 302.315866 -216.981066 
L 302.091785 -215.392312 
L 301.766566 -213.803558 
L 301.329446 -212.214805 
L 300.774409 -210.626051 
L 300.10144 -209.037298 
L 299.317195 -207.448544 
L 298.434995 -205.85979 
L 297.474099 -204.271037 
L 296.458311 -202.682283 
L 295.414056 -201.09353 
L 294.368155 -199.504776 
L 293.345547 -197.916022 
L 292.367241 -196.327269 
L 291.448742 -194.738515 
L 290.59911 -193.149762 
L 289.82077 -191.561008 
L 289.110023 -189.972255 
L 288.458182 -188.383501 
L 287.853152 -186.794747 
L 287.281231 -185.205994 
L 286.728909 -183.61724 
L 286.184471 -182.028487 
L 285.639224 -180.439733 
L 285.088255 -178.850979 
L 284.530678 -177.262226 
L 283.969385 -175.673472 
L 283.410402 -174.084719 
L 282.861946 -172.495965 
L 282.33334 -170.907211 
L 281.833925 -169.318458 
L 281.372105 -167.729704 
L 280.954614 -166.140951 
L 280.586059 -164.552197 
L 280.268766 -162.963443 
L 280.002876 -161.37469 
L 279.786645 -159.785936 
L 279.616877 -158.197183 
L 279.489382 -156.608429 
L 279.399423 -155.019675 
L 279.342065 -153.430922 
L 279.312423 -151.842168 
L 279.305793 -150.253415 
L 279.317683 -148.664661 
L 279.34379 -147.075907 
L 279.37994 -145.487154 
L 279.422058 -143.8984 
L 279.466176 -142.309647 
L 279.508501 -140.720893 
L 279.545548 -139.132139 
L 279.574311 -137.543386 
L 279.592449 -135.954632 
L 279.598443 -134.365879 
z
" style="stroke: #2f2f2f; stroke-width: 0.75"/>
    </defs>
    <g clip-path="url(#p6a2c2f7ce4)">
     <use xlink:href="#mbb3a183f4b" x="0" y="302.019779" style="fill: #148a6a; stroke: #2f2f2f; stroke-width: 0.75"/>
    </g>
   </g>
   <g id="FillBetweenPolyCollection_6">
    <defs>
     <path id="m127fd40c0c" d="M 331.785051 -133.713661 
L 330.673686 -133.713661 
L 330.670083 -135.30409 
L 330.67359 -136.894518 
L 330.681793 -138.484946 
L 330.691395 -140.075374 
L 330.698362 -141.665802 
L 330.698128 -143.256231 
L 330.685827 -144.846659 
L 330.656534 -146.437087 
L 330.605494 -148.027515 
L 330.52834 -149.617943 
L 330.421274 -151.208372 
L 330.281229 -152.7988 
L 330.106014 -154.389228 
L 329.894426 -155.979656 
L 329.646356 -157.570084 
L 329.362857 -159.160513 
L 329.046182 -160.750941 
L 328.699766 -162.341369 
L 328.32813 -163.931797 
L 327.936702 -165.522225 
L 327.531533 -167.112654 
L 327.118908 -168.703082 
L 326.704871 -170.29351 
L 326.29469 -171.883938 
L 325.892297 -173.474366 
L 325.499758 -175.064795 
L 325.116825 -176.655223 
L 324.740629 -178.245651 
L 324.365554 -179.836079 
L 323.983334 -181.426507 
L 323.583389 -183.016936 
L 323.153414 -184.607364 
L 322.680188 -186.197792 
L 322.150589 -187.78822 
L 321.552735 -189.378648 
L 320.877183 -190.969077 
L 320.118096 -192.559505 
L 319.274244 -194.149933 
L 318.349758 -195.740361 
L 317.354508 -197.330789 
L 316.304039 -198.921218 
L 315.219021 -200.511646 
L 314.124216 -202.102074 
L 313.047025 -203.692502 
L 312.015722 -205.28293 
L 311.057533 -206.873359 
L 310.196749 -208.463787 
L 309.453054 -210.054215 
L 308.840249 -211.644643 
L 308.365506 -213.235071 
L 308.029234 -214.8255 
L 307.82556 -216.415928 
L 307.743358 -218.006356 
L 307.767705 -219.596784 
L 307.88158 -221.187212 
L 308.067597 -222.777641 
L 308.309593 -224.368069 
L 308.593889 -225.958497 
L 308.910107 -227.548925 
L 309.251511 -229.139353 
L 309.614869 -230.729782 
L 309.999915 -232.32021 
L 310.408544 -233.910638 
L 310.843855 -235.501066 
L 311.309208 -237.091494 
L 311.807406 -238.681923 
L 312.340092 -240.272351 
L 312.90742 -241.862779 
L 313.507986 -243.453207 
L 314.139 -245.043635 
L 314.796617 -246.634064 
L 315.476349 -248.224492 
L 316.173458 -249.81492 
L 316.883272 -251.405348 
L 317.601355 -252.995776 
L 318.323534 -254.586205 
L 319.045796 -256.176633 
L 319.764108 -257.767061 
L 320.47423 -259.357489 
L 321.171593 -260.947917 
L 321.851282 -262.538346 
L 322.508181 -264.128774 
L 323.137241 -265.719202 
L 323.73385 -267.30963 
L 324.294247 -268.900058 
L 324.81589 -270.490487 
L 325.297731 -272.080915 
L 325.74033 -273.671343 
L 326.145804 -275.261771 
L 326.517607 -276.852199 
L 326.860175 -278.442628 
L 327.178489 -280.033056 
L 327.477605 -281.623484 
L 327.762223 -283.213912 
L 328.036315 -284.80434 
L 328.302864 -286.394769 
L 328.563716 -287.985197 
L 328.819558 -289.575625 
L 329.069998 -291.166053 
L 333.388739 -291.166053 
L 333.388739 -291.166053 
L 333.639178 -289.575625 
L 333.89502 -287.985197 
L 334.155873 -286.394769 
L 334.422422 -284.80434 
L 334.696514 -283.213912 
L 334.981132 -281.623484 
L 335.280248 -280.033056 
L 335.598561 -278.442628 
L 335.94113 -276.852199 
L 336.312933 -275.261771 
L 336.718407 -273.671343 
L 337.161006 -272.080915 
L 337.642847 -270.490487 
L 338.16449 -268.900058 
L 338.724887 -267.30963 
L 339.321496 -265.719202 
L 339.950555 -264.128774 
L 340.607455 -262.538346 
L 341.287144 -260.947917 
L 341.984506 -259.357489 
L 342.694629 -257.767061 
L 343.412941 -256.176633 
L 344.135203 -254.586205 
L 344.857382 -252.995776 
L 345.575465 -251.405348 
L 346.285279 -249.81492 
L 346.982388 -248.224492 
L 347.662119 -246.634064 
L 348.319737 -245.043635 
L 348.95075 -243.453207 
L 349.551316 -241.862779 
L 350.118645 -240.272351 
L 350.651331 -238.681923 
L 351.149529 -237.091494 
L 351.614882 -235.501066 
L 352.050193 -233.910638 
L 352.458821 -232.32021 
L 352.843868 -230.729782 
L 353.207225 -229.139353 
L 353.54863 -227.548925 
L 353.864848 -225.958497 
L 354.149143 -224.368069 
L 354.39114 -222.777641 
L 354.577157 -221.187212 
L 354.691032 -219.596784 
L 354.715379 -218.006356 
L 354.633177 -216.415928 
L 354.429503 -214.8255 
L 354.093231 -213.235071 
L 353.618488 -211.644643 
L 353.005682 -210.054215 
L 352.261988 -208.463787 
L 351.401204 -206.873359 
L 350.443015 -205.28293 
L 349.411711 -203.692502 
L 348.33452 -202.102074 
L 347.239716 -200.511646 
L 346.154698 -198.921218 
L 345.104229 -197.330789 
L 344.108979 -195.740361 
L 343.184493 -194.149933 
L 342.340641 -192.559505 
L 341.581553 -190.969077 
L 340.906002 -189.378648 
L 340.308147 -187.78822 
L 339.778549 -186.197792 
L 339.305323 -184.607364 
L 338.875348 -183.016936 
L 338.475403 -181.426507 
L 338.093183 -179.836079 
L 337.718108 -178.245651 
L 337.341912 -176.655223 
L 336.958979 -175.064795 
L 336.56644 -173.474366 
L 336.164047 -171.883938 
L 335.753866 -170.29351 
L 335.339829 -168.703082 
L 334.927203 -167.112654 
L 334.522034 -165.522225 
L 334.130607 -163.931797 
L 333.758971 -162.341369 
L 333.412555 -160.750941 
L 333.09588 -159.160513 
L 332.812381 -157.570084 
L 332.564311 -155.979656 
L 332.352723 -154.389228 
L 332.177508 -152.7988 
L 332.037463 -151.208372 
L 331.930396 -149.617943 
L 331.853242 -148.027515 
L 331.802203 -146.437087 
L 331.772909 -144.846659 
L 331.760609 -143.256231 
L 331.760375 -141.665802 
L 331.767341 -140.075374 
L 331.776944 -138.484946 
L 331.785147 -136.894518 
L 331.788653 -135.30409 
L 331.785051 -133.713661 
z
" style="stroke: #2f2f2f; stroke-width: 0.75"/>
    </defs>
    <g clip-path="url(#p6a2c2f7ce4)">
     <use xlink:href="#m127fd40c0c" x="0" y="302.019779" style="fill: #95cabc; stroke: #2f2f2f; stroke-width: 0.75"/>
    </g>
   </g>
   <g id="FillBetweenPolyCollection_7">
    <defs>
     <path id="m600a8b439c" d="M 384.028567 -139.044163 
L 382.81244 -139.044163 
L 382.781837 -140.476639 
L 382.747781 -141.909115 
L 382.704514 -143.341592 
L 382.644972 -144.774068 
L 382.561149 -146.206544 
L 382.444608 -147.63902 
L 382.287094 -149.071497 
L 382.081196 -150.503973 
L 381.820982 -151.936449 
L 381.502537 -153.368925 
L 381.124329 -154.801402 
L 380.687325 -156.233878 
L 380.194831 -157.666354 
L 379.65205 -159.09883 
L 379.065393 -160.531307 
L 378.441622 -161.963783 
L 377.786964 -163.396259 
L 377.106306 -164.828735 
L 376.402628 -166.261212 
L 375.676779 -167.693688 
L 374.927633 -169.126164 
L 374.152647 -170.558641 
L 373.348713 -171.991117 
L 372.513208 -173.423593 
L 371.645038 -174.856069 
L 370.745547 -176.288546 
L 369.819111 -177.721022 
L 368.873353 -179.153498 
L 367.918917 -180.585974 
L 366.968858 -182.018451 
L 366.037721 -183.450927 
L 365.140444 -184.883403 
L 364.291238 -186.315879 
L 363.502584 -187.748356 
L 362.784468 -189.180832 
L 362.143965 -190.613308 
L 361.585191 -192.045784 
L 361.109624 -193.478261 
L 360.716731 -194.910737 
L 360.404785 -196.343213 
L 360.171728 -197.77569 
L 360.015933 -199.208166 
L 359.936711 -200.640642 
L 359.934493 -202.073118 
L 360.010634 -203.505595 
L 360.166909 -204.938071 
L 360.404793 -206.370547 
L 360.724695 -207.803023 
L 361.125302 -209.2355 
L 361.603179 -210.667976 
L 362.152685 -212.100452 
L 362.766224 -213.532928 
L 363.434746 -214.965405 
L 364.1484 -216.397881 
L 364.897177 -217.830357 
L 365.671452 -219.262833 
L 366.462326 -220.69531 
L 367.261767 -222.127786 
L 368.062572 -223.560262 
L 368.858227 -224.992739 
L 369.642733 -226.425215 
L 370.410478 -227.857691 
L 371.156198 -229.290167 
L 371.875025 -230.722644 
L 372.562618 -232.15512 
L 373.215336 -233.587596 
L 373.830409 -235.020072 
L 374.406088 -236.452549 
L 374.941727 -237.885025 
L 375.437812 -239.317501 
L 375.895918 -240.749977 
L 376.318599 -242.182454 
L 376.709235 -243.61493 
L 377.071824 -245.047406 
L 377.410745 -246.479883 
L 377.73051 -247.912359 
L 378.035507 -249.344835 
L 378.329766 -250.777311 
L 378.616765 -252.209788 
L 378.899274 -253.642264 
L 379.179255 -255.07474 
L 379.457805 -256.507216 
L 379.735157 -257.939693 
L 380.010696 -259.372169 
L 380.283038 -260.804645 
L 380.550129 -262.237121 
L 380.809396 -263.669598 
L 381.057952 -265.102074 
L 381.292837 -266.53455 
L 381.511301 -267.967026 
L 381.711095 -269.399503 
L 381.890721 -270.831979 
L 382.049634 -272.264455 
L 382.188325 -273.696932 
L 382.308292 -275.129408 
L 382.411875 -276.561884 
L 382.501997 -277.99436 
L 382.581828 -279.426837 
L 382.654441 -280.859313 
L 384.186566 -280.859313 
L 384.186566 -280.859313 
L 384.259179 -279.426837 
L 384.33901 -277.99436 
L 384.429132 -276.561884 
L 384.532715 -275.129408 
L 384.652682 -273.696932 
L 384.791373 -272.264455 
L 384.950286 -270.831979 
L 385.129913 -269.399503 
L 385.329706 -267.967026 
L 385.54817 -266.53455 
L 385.783055 -265.102074 
L 386.031611 -263.669598 
L 386.290878 -262.237121 
L 386.557969 -260.804645 
L 386.830311 -259.372169 
L 387.10585 -257.939693 
L 387.383202 -256.507216 
L 387.661752 -255.07474 
L 387.941733 -253.642264 
L 388.224242 -252.209788 
L 388.511241 -250.777311 
L 388.8055 -249.344835 
L 389.110497 -247.912359 
L 389.430262 -246.479883 
L 389.769184 -245.047406 
L 390.131772 -243.61493 
L 390.522408 -242.182454 
L 390.945089 -240.749977 
L 391.403195 -239.317501 
L 391.89928 -237.885025 
L 392.434919 -236.452549 
L 393.010598 -235.020072 
L 393.625671 -233.587596 
L 394.278389 -232.15512 
L 394.965982 -230.722644 
L 395.684809 -229.290167 
L 396.430529 -227.857691 
L 397.198274 -226.425215 
L 397.98278 -224.992739 
L 398.778435 -223.560262 
L 399.57924 -222.127786 
L 400.378681 -220.69531 
L 401.169555 -219.262833 
L 401.94383 -217.830357 
L 402.692607 -216.397881 
L 403.406261 -214.965405 
L 404.074783 -213.532928 
L 404.688322 -212.100452 
L 405.237828 -210.667976 
L 405.715705 -209.2355 
L 406.116312 -207.803023 
L 406.436214 -206.370547 
L 406.674098 -204.938071 
L 406.830373 -203.505595 
L 406.906514 -202.073118 
L 406.904296 -200.640642 
L 406.825074 -199.208166 
L 406.669279 -197.77569 
L 406.436222 -196.343213 
L 406.124276 -194.910737 
L 405.731383 -193.478261 
L 405.255816 -192.045784 
L 404.697042 -190.613308 
L 404.056539 -189.180832 
L 403.338423 -187.748356 
L 402.549769 -186.315879 
L 401.700563 -184.883403 
L 400.803286 -183.450927 
L 399.872149 -182.018451 
L 398.92209 -180.585974 
L 397.967654 -179.153498 
L 397.021896 -177.721022 
L 396.09546 -176.288546 
L 395.195969 -174.856069 
L 394.327799 -173.423593 
L 393.492294 -171.991117 
L 392.68836 -170.558641 
L 391.913374 -169.126164 
L 391.164228 -167.693688 
L 390.438379 -166.261212 
L 389.734701 -164.828735 
L 389.054043 -163.396259 
L 388.399385 -161.963783 
L 387.775614 -160.531307 
L 387.188957 -159.09883 
L 386.646176 -157.666354 
L 386.153682 -156.233878 
L 385.716678 -154.801402 
L 385.33847 -153.368925 
L 385.020026 -151.936449 
L 384.759811 -150.503973 
L 384.553913 -149.071497 
L 384.396399 -147.63902 
L 384.279858 -146.206544 
L 384.196035 -144.774068 
L 384.136493 -143.341592 
L 384.093226 -141.909115 
L 384.05917 -140.476639 
L 384.028567 -139.044163 
z
" style="stroke: #2f2f2f; stroke-width: 0.75"/>
    </defs>
    <g clip-path="url(#p6a2c2f7ce4)">
     <use xlink:href="#m600a8b439c" x="0" y="302.019779" style="fill: #c9941d; stroke: #2f2f2f; stroke-width: 0.75"/>
    </g>
   </g>
   <g id="matplotlib.axis_1">
    <g id="xtick_1">
     <g id="line2d_1">
      <defs>
       <path id="m0375322f44" d="M 0 0 
L 0 3.5 
" style="stroke: #000000; stroke-width: 0.8"/>
      </defs>
      <g>
       <use xlink:href="#m0375322f44" x="70.273693" y="228.080464" style="stroke: #000000; stroke-width: 0.8"/>
      </g>
     </g>
     <g id="text_1">
      <!-- MVT -->
      <g transform="translate(50.547998 252.449185) rotate(-30) scale(0.1 -0.1)">
       <defs>
        <path id="DejaVuSans-4d" d="M 628 4666 
L 1569 4666 
L 2759 1491 
L 3956 4666 
L 4897 4666 
L 4897 0 
L 4281 0 
L 4281 4097 
L 3078 897 
L 2444 897 
L 1241 4097 
L 1241 0 
L 628 0 
L 628 4666 
z
" transform="scale(0.015625)"/>
        <path id="DejaVuSans-56" d="M 1831 0 
L 50 4666 
L 709 4666 
L 2188 738 
L 3669 4666 
L 4325 4666 
L 2547 0 
L 1831 0 
z
" transform="scale(0.015625)"/>
        <path id="DejaVuSans-54" d="M -19 4666 
L 3928 4666 
L 3928 4134 
L 2272 4134 
L 2272 0 
L 1638 0 
L 1638 4134 
L -19 4134 
L -19 4666 
z
" transform="scale(0.015625)"/>
       </defs>
       <use xlink:href="#DejaVuSans-4d"/>
       <use xlink:href="#DejaVuSans-56" transform="translate(86.279297 0)"/>
       <use xlink:href="#DejaVuSans-54" transform="translate(154.6875 0)"/>
      </g>
     </g>
    </g>
    <g id="xtick_2">
     <g id="line2d_2">
      <g>
       <use xlink:href="#m0375322f44" x="122.464828" y="228.080464" style="stroke: #000000; stroke-width: 0.8"/>
      </g>
     </g>
     <g id="text_2">
      <!-- MVT (SIMD x8) -->
      <g transform="translate(57.647626 278.482779) rotate(-30) scale(0.1 -0.1)">
       <defs>
        <path id="DejaVuSans-20" transform="scale(0.015625)"/>
        <path id="DejaVuSans-28" d="M 1984 4856 
Q 1566 4138 1362 3434 
Q 1159 2731 1159 2009 
Q 1159 1288 1364 580 
Q 1569 -128 1984 -844 
L 1484 -844 
Q 1016 -109 783 600 
Q 550 1309 550 2009 
Q 550 2706 781 3412 
Q 1013 4119 1484 4856 
L 1984 4856 
z
" transform="scale(0.015625)"/>
        <path id="DejaVuSans-53" d="M 3425 4513 
L 3425 3897 
Q 3066 4069 2747 4153 
Q 2428 4238 2131 4238 
Q 1616 4238 1336 4038 
Q 1056 3838 1056 3469 
Q 1056 3159 1242 3001 
Q 1428 2844 1947 2747 
L 2328 2669 
Q 3034 2534 3370 2195 
Q 3706 1856 3706 1288 
Q 3706 609 3251 259 
Q 2797 -91 1919 -91 
Q 1588 -91 1214 -16 
Q 841 59 441 206 
L 441 856 
Q 825 641 1194 531 
Q 1563 422 1919 422 
Q 2459 422 2753 634 
Q 3047 847 3047 1241 
Q 3047 1584 2836 1778 
Q 2625 1972 2144 2069 
L 1759 2144 
Q 1053 2284 737 2584 
Q 422 2884 422 3419 
Q 422 4038 858 4394 
Q 1294 4750 2059 4750 
Q 2388 4750 2728 4690 
Q 3069 4631 3425 4513 
z
" transform="scale(0.015625)"/>
        <path id="DejaVuSans-49" d="M 628 4666 
L 1259 4666 
L 1259 0 
L 628 0 
L 628 4666 
z
" transform="scale(0.015625)"/>
        <path id="DejaVuSans-44" d="M 1259 4147 
L 1259 519 
L 2022 519 
Q 2988 519 3436 956 
Q 3884 1394 3884 2338 
Q 3884 3275 3436 3711 
Q 2988 4147 2022 4147 
L 1259 4147 
z
M 628 4666 
L 1925 4666 
Q 3281 4666 3915 4102 
Q 4550 3538 4550 2338 
Q 4550 1131 3912 565 
Q 3275 0 1925 0 
L 628 0 
L 628 4666 
z
" transform="scale(0.015625)"/>
        <path id="DejaVuSans-78" d="M 3513 3500 
L 2247 1797 
L 3578 0 
L 2900 0 
L 1881 1375 
L 863 0 
L 184 0 
L 1544 1831 
L 300 3500 
L 978 3500 
L 1906 2253 
L 2834 3500 
L 3513 3500 
z
" transform="scale(0.015625)"/>
        <path id="DejaVuSans-38" d="M 2034 2216 
Q 1584 2216 1326 1975 
Q 1069 1734 1069 1313 
Q 1069 891 1326 650 
Q 1584 409 2034 409 
Q 2484 409 2743 651 
Q 3003 894 3003 1313 
Q 3003 1734 2745 1975 
Q 2488 2216 2034 2216 
z
M 1403 2484 
Q 997 2584 770 2862 
Q 544 3141 544 3541 
Q 544 4100 942 4425 
Q 1341 4750 2034 4750 
Q 2731 4750 3128 4425 
Q 3525 4100 3525 3541 
Q 3525 3141 3298 2862 
Q 3072 2584 2669 2484 
Q 3125 2378 3379 2068 
Q 3634 1759 3634 1313 
Q 3634 634 3220 271 
Q 2806 -91 2034 -91 
Q 1263 -91 848 271 
Q 434 634 434 1313 
Q 434 1759 690 2068 
Q 947 2378 1403 2484 
z
M 1172 3481 
Q 1172 3119 1398 2916 
Q 1625 2713 2034 2713 
Q 2441 2713 2670 2916 
Q 2900 3119 2900 3481 
Q 2900 3844 2670 4047 
Q 2441 4250 2034 4250 
Q 1625 4250 1398 4047 
Q 1172 3844 1172 3481 
z
" transform="scale(0.015625)"/>
        <path id="DejaVuSans-29" d="M 513 4856 
L 1013 4856 
Q 1481 4119 1714 3412 
Q 1947 2706 1947 2009 
Q 1947 1309 1714 600 
Q 1481 -109 1013 -844 
L 513 -844 
Q 928 -128 1133 580 
Q 1338 1288 1338 2009 
Q 1338 2731 1133 3434 
Q 928 4138 513 4856 
z
" transform="scale(0.015625)"/>
       </defs>
       <use xlink:href="#DejaVuSans-4d"/>
       <use xlink:href="#DejaVuSans-56" transform="translate(86.279297 0)"/>
       <use xlink:href="#DejaVuSans-54" transform="translate(154.6875 0)"/>
       <use xlink:href="#DejaVuSans-20" transform="translate(215.771484 0)"/>
       <use xlink:href="#DejaVuSans-28" transform="translate(247.558594 0)"/>
       <use xlink:href="#DejaVuSans-53" transform="translate(286.572266 0)"/>
       <use xlink:href="#DejaVuSans-49" transform="translate(350.048828 0)"/>
       <use xlink:href="#DejaVuSans-4d" transform="translate(379.541016 0)"/>
       <use xlink:href="#DejaVuSans-44" transform="translate(465.820312 0)"/>
       <use xlink:href="#DejaVuSans-20" transform="translate(542.822266 0)"/>
       <use xlink:href="#DejaVuSans-78" transform="translate(574.609375 0)"/>
       <use xlink:href="#DejaVuSans-38" transform="translate(633.789062 0)"/>
       <use xlink:href="#DejaVuSans-29" transform="translate(697.412109 0)"/>
      </g>
     </g>
    </g>
    <g id="xtick_3">
     <g id="line2d_3">
      <g>
       <use xlink:href="#m0375322f44" x="174.655963" y="228.080464" style="stroke: #000000; stroke-width: 0.8"/>
      </g>
     </g>
     <g id="text_3">
      <!-- Mutable MVT -->
      <g transform="translate(117.28252 274.185123) rotate(-30) scale(0.1 -0.1)">
       <defs>
        <path id="DejaVuSans-75" d="M 544 1381 
L 544 3500 
L 1119 3500 
L 1119 1403 
Q 1119 906 1312 657 
Q 1506 409 1894 409 
Q 2359 409 2629 706 
Q 2900 1003 2900 1516 
L 2900 3500 
L 3475 3500 
L 3475 0 
L 2900 0 
L 2900 538 
Q 2691 219 2414 64 
Q 2138 -91 1772 -91 
Q 1169 -91 856 284 
Q 544 659 544 1381 
z
M 1991 3584 
L 1991 3584 
z
" transform="scale(0.015625)"/>
        <path id="DejaVuSans-74" d="M 1172 4494 
L 1172 3500 
L 2356 3500 
L 2356 3053 
L 1172 3053 
L 1172 1153 
Q 1172 725 1289 603 
Q 1406 481 1766 481 
L 2356 481 
L 2356 0 
L 1766 0 
Q 1100 0 847 248 
Q 594 497 594 1153 
L 594 3053 
L 172 3053 
L 172 3500 
L 594 3500 
L 594 4494 
L 1172 4494 
z
" transform="scale(0.015625)"/>
        <path id="DejaVuSans-61" d="M 2194 1759 
Q 1497 1759 1228 1600 
Q 959 1441 959 1056 
Q 959 750 1161 570 
Q 1363 391 1709 391 
Q 2188 391 2477 730 
Q 2766 1069 2766 1631 
L 2766 1759 
L 2194 1759 
z
M 3341 1997 
L 3341 0 
L 2766 0 
L 2766 531 
Q 2569 213 2275 61 
Q 1981 -91 1556 -91 
Q 1019 -91 701 211 
Q 384 513 384 1019 
Q 384 1609 779 1909 
Q 1175 2209 1959 2209 
L 2766 2209 
L 2766 2266 
Q 2766 2663 2505 2880 
Q 2244 3097 1772 3097 
Q 1472 3097 1187 3025 
Q 903 2953 641 2809 
L 641 3341 
Q 956 3463 1253 3523 
Q 1550 3584 1831 3584 
Q 2591 3584 2966 3190 
Q 3341 2797 3341 1997 
z
" transform="scale(0.015625)"/>
        <path id="DejaVuSans-62" d="M 3116 1747 
Q 3116 2381 2855 2742 
Q 2594 3103 2138 3103 
Q 1681 3103 1420 2742 
Q 1159 2381 1159 1747 
Q 1159 1113 1420 752 
Q 1681 391 2138 391 
Q 2594 391 2855 752 
Q 3116 1113 3116 1747 
z
M 1159 2969 
Q 1341 3281 1617 3432 
Q 1894 3584 2278 3584 
Q 2916 3584 3314 3078 
Q 3713 2572 3713 1747 
Q 3713 922 3314 415 
Q 2916 -91 2278 -91 
Q 1894 -91 1617 61 
Q 1341 213 1159 525 
L 1159 0 
L 581 0 
L 581 4863 
L 1159 4863 
L 1159 2969 
z
" transform="scale(0.015625)"/>
        <path id="DejaVuSans-6c" d="M 603 4863 
L 1178 4863 
L 1178 0 
L 603 0 
L 603 4863 
z
" transform="scale(0.015625)"/>
        <path id="DejaVuSans-65" d="M 3597 1894 
L 3597 1613 
L 953 1613 
Q 991 1019 1311 708 
Q 1631 397 2203 397 
Q 2534 397 2845 478 
Q 3156 559 3463 722 
L 3463 178 
Q 3153 47 2828 -22 
Q 2503 -91 2169 -91 
Q 1331 -91 842 396 
Q 353 884 353 1716 
Q 353 2575 817 3079 
Q 1281 3584 2069 3584 
Q 2775 3584 3186 3129 
Q 3597 2675 3597 1894 
z
M 3022 2063 
Q 3016 2534 2758 2815 
Q 2500 3097 2075 3097 
Q 1594 3097 1305 2825 
Q 1016 2553 972 2059 
L 3022 2063 
z
" transform="scale(0.015625)"/>
       </defs>
       <use xlink:href="#DejaVuSans-4d"/>
       <use xlink:href="#DejaVuSans-75" transform="translate(86.279297 0)"/>
       <use xlink:href="#DejaVuSans-74" transform="translate(149.658203 0)"/>
       <use xlink:href="#DejaVuSans-61" transform="translate(188.867188 0)"/>
       <use xlink:href="#DejaVuSans-62" transform="translate(250.146484 0)"/>
       <use xlink:href="#DejaVuSans-6c" transform="translate(313.623047 0)"/>
       <use xlink:href="#DejaVuSans-65" transform="translate(341.40625 0)"/>
       <use xlink:href="#DejaVuSans-20" transform="translate(402.929688 0)"/>
       <use xlink:href="#DejaVuSans-4d" transform="translate(434.716797 0)"/>
       <use xlink:href="#DejaVuSans-56" transform="translate(520.996094 0)"/>
       <use xlink:href="#DejaVuSans-54" transform="translate(589.404297 0)"/>
      </g>
     </g>
    </g>
    <g id="xtick_4">
     <g id="line2d_4">
      <g>
       <use xlink:href="#m0375322f44" x="226.847098" y="228.080464" style="stroke: #000000; stroke-width: 0.8"/>
      </g>
     </g>
     <g id="text_4">
      <!-- Mutable MVT (SIMD x8) -->
      <g transform="translate(124.382148 300.218716) rotate(-30) scale(0.1 -0.1)">
       <use xlink:href="#DejaVuSans-4d"/>
       <use xlink:href="#DejaVuSans-75" transform="translate(86.279297 0)"/>
       <use xlink:href="#DejaVuSans-74" transform="translate(149.658203 0)"/>
       <use xlink:href="#DejaVuSans-61" transform="translate(188.867188 0)"/>
       <use xlink:href="#DejaVuSans-62" transform="translate(250.146484 0)"/>
       <use xlink:href="#DejaVuSans-6c" transform="translate(313.623047 0)"/>
       <use xlink:href="#DejaVuSans-65" transform="translate(341.40625 0)"/>
       <use xlink:href="#DejaVuSans-20" transform="translate(402.929688 0)"/>
       <use xlink:href="#DejaVuSans-4d" transform="translate(434.716797 0)"/>
       <use xlink:href="#DejaVuSans-56" transform="translate(520.996094 0)"/>
       <use xlink:href="#DejaVuSans-54" transform="translate(589.404297 0)"/>
       <use xlink:href="#DejaVuSans-20" transform="translate(650.488281 0)"/>
       <use xlink:href="#DejaVuSans-28" transform="translate(682.275391 0)"/>
       <use xlink:href="#DejaVuSans-53" transform="translate(721.289062 0)"/>
       <use xlink:href="#DejaVuSans-49" transform="translate(784.765625 0)"/>
       <use xlink:href="#DejaVuSans-4d" transform="translate(814.257812 0)"/>
       <use xlink:href="#DejaVuSans-44" transform="translate(900.537109 0)"/>
       <use xlink:href="#DejaVuSans-20" transform="translate(977.539062 0)"/>
       <use xlink:href="#DejaVuSans-78" transform="translate(1009.326172 0)"/>
       <use xlink:href="#DejaVuSans-38" transform="translate(1068.505859 0)"/>
       <use xlink:href="#DejaVuSans-29" transform="translate(1132.128906 0)"/>
      </g>
     </g>
    </g>
    <g id="xtick_5">
     <g id="line2d_5">
      <g>
       <use xlink:href="#m0375322f44" x="279.038233" y="228.080464" style="stroke: #000000; stroke-width: 0.8"/>
      </g>
     </g>
     <g id="text_5">
      <!-- CAPT -->
      <g transform="translate(255.515558 254.641373) rotate(-30) scale(0.1 -0.1)">
       <defs>
        <path id="DejaVuSans-43" d="M 4122 4306 
L 4122 3641 
Q 3803 3938 3442 4084 
Q 3081 4231 2675 4231 
Q 1875 4231 1450 3742 
Q 1025 3253 1025 2328 
Q 1025 1406 1450 917 
Q 1875 428 2675 428 
Q 3081 428 3442 575 
Q 3803 722 4122 1019 
L 4122 359 
Q 3791 134 3420 21 
Q 3050 -91 2638 -91 
Q 1578 -91 968 557 
Q 359 1206 359 2328 
Q 359 3453 968 4101 
Q 1578 4750 2638 4750 
Q 3056 4750 3426 4639 
Q 3797 4528 4122 4306 
z
" transform="scale(0.015625)"/>
        <path id="DejaVuSans-41" d="M 2188 4044 
L 1331 1722 
L 3047 1722 
L 2188 4044 
z
M 1831 4666 
L 2547 4666 
L 4325 0 
L 3669 0 
L 3244 1197 
L 1141 1197 
L 716 0 
L 50 0 
L 1831 4666 
z
" transform="scale(0.015625)"/>
        <path id="DejaVuSans-50" d="M 1259 4147 
L 1259 2394 
L 2053 2394 
Q 2494 2394 2734 2622 
Q 2975 2850 2975 3272 
Q 2975 3691 2734 3919 
Q 2494 4147 2053 4147 
L 1259 4147 
z
M 628 4666 
L 2053 4666 
Q 2838 4666 3239 4311 
Q 3641 3956 3641 3272 
Q 3641 2581 3239 2228 
Q 2838 1875 2053 1875 
L 1259 1875 
L 1259 0 
L 628 0 
L 628 4666 
z
" transform="scale(0.015625)"/>
       </defs>
       <use xlink:href="#DejaVuSans-43"/>
       <use xlink:href="#DejaVuSans-41" transform="translate(69.824219 0)"/>
       <use xlink:href="#DejaVuSans-50" transform="translate(138.232422 0)"/>
       <use xlink:href="#DejaVuSans-54" transform="translate(198.535156 0)"/>
      </g>
     </g>
    </g>
    <g id="xtick_6">
     <g id="line2d_6">
      <g>
       <use xlink:href="#m0375322f44" x="331.229368" y="228.080464" style="stroke: #000000; stroke-width: 0.8"/>
      </g>
     </g>
     <g id="text_6">
      <!-- CAPT (SIMD x8) -->
      <g transform="translate(262.615186 280.674966) rotate(-30) scale(0.1 -0.1)">
       <use xlink:href="#DejaVuSans-43"/>
       <use xlink:href="#DejaVuSans-41" transform="translate(69.824219 0)"/>
       <use xlink:href="#DejaVuSans-50" transform="translate(138.232422 0)"/>
       <use xlink:href="#DejaVuSans-54" transform="translate(198.535156 0)"/>
       <use xlink:href="#DejaVuSans-20" transform="translate(259.619141 0)"/>
       <use xlink:href="#DejaVuSans-28" transform="translate(291.40625 0)"/>
       <use xlink:href="#DejaVuSans-53" transform="translate(330.419922 0)"/>
       <use xlink:href="#DejaVuSans-49" transform="translate(393.896484 0)"/>
       <use xlink:href="#DejaVuSans-4d" transform="translate(423.388672 0)"/>
       <use xlink:href="#DejaVuSans-44" transform="translate(509.667969 0)"/>
       <use xlink:href="#DejaVuSans-20" transform="translate(586.669922 0)"/>
       <use xlink:href="#DejaVuSans-78" transform="translate(618.457031 0)"/>
       <use xlink:href="#DejaVuSans-38" transform="translate(677.636719 0)"/>
       <use xlink:href="#DejaVuSans-29" transform="translate(741.259766 0)"/>
      </g>
     </g>
    </g>
    <g id="xtick_7">
     <g id="line2d_7">
      <g>
       <use xlink:href="#m0375322f44" x="383.420504" y="228.080464" style="stroke: #000000; stroke-width: 0.8"/>
      </g>
     </g>
     <g id="text_7">
      <!-- kiddo -->
      <g transform="translate(358.665095 255.353091) rotate(-30) scale(0.1 -0.1)">
       <defs>
        <path id="DejaVuSans-6b" d="M 581 4863 
L 1159 4863 
L 1159 1991 
L 2875 3500 
L 3609 3500 
L 1753 1863 
L 3688 0 
L 2938 0 
L 1159 1709 
L 1159 0 
L 581 0 
L 581 4863 
z
" transform="scale(0.015625)"/>
        <path id="DejaVuSans-69" d="M 603 3500 
L 1178 3500 
L 1178 0 
L 603 0 
L 603 3500 
z
M 603 4863 
L 1178 4863 
L 1178 4134 
L 603 4134 
L 603 4863 
z
" transform="scale(0.015625)"/>
        <path id="DejaVuSans-64" d="M 2906 2969 
L 2906 4863 
L 3481 4863 
L 3481 0 
L 2906 0 
L 2906 525 
Q 2725 213 2448 61 
Q 2172 -91 1784 -91 
Q 1150 -91 751 415 
Q 353 922 353 1747 
Q 353 2572 751 3078 
Q 1150 3584 1784 3584 
Q 2172 3584 2448 3432 
Q 2725 3281 2906 2969 
z
M 947 1747 
Q 947 1113 1208 752 
Q 1469 391 1925 391 
Q 2381 391 2643 752 
Q 2906 1113 2906 1747 
Q 2906 2381 2643 2742 
Q 2381 3103 1925 3103 
Q 1469 3103 1208 2742 
Q 947 2381 947 1747 
z
" transform="scale(0.015625)"/>
        <path id="DejaVuSans-6f" d="M 1959 3097 
Q 1497 3097 1228 2736 
Q 959 2375 959 1747 
Q 959 1119 1226 758 
Q 1494 397 1959 397 
Q 2419 397 2687 759 
Q 2956 1122 2956 1747 
Q 2956 2369 2687 2733 
Q 2419 3097 1959 3097 
z
M 1959 3584 
Q 2709 3584 3137 3096 
Q 3566 2609 3566 1747 
Q 3566 888 3137 398 
Q 2709 -91 1959 -91 
Q 1206 -91 779 398 
Q 353 888 353 1747 
Q 353 2609 779 3096 
Q 1206 3584 1959 3584 
z
" transform="scale(0.015625)"/>
       </defs>
       <use xlink:href="#DejaVuSans-6b"/>
       <use xlink:href="#DejaVuSans-69" transform="translate(57.910156 0)"/>
       <use xlink:href="#DejaVuSans-64" transform="translate(85.693359 0)"/>
       <use xlink:href="#DejaVuSans-64" transform="translate(149.169922 0)"/>
       <use xlink:href="#DejaVuSans-6f" transform="translate(212.646484 0)"/>
      </g>
     </g>
    </g>
   </g>
   <g id="matplotlib.axis_2">
    <g id="ytick_1">
     <g id="line2d_8">
      <defs>
       <path id="m83e9563393" d="M 0 0 
L -3.5 0 
" style="stroke: #000000; stroke-width: 0.8"/>
      </defs>
      <g>
       <use xlink:href="#m83e9563393" x="44.178125" y="171.154113" style="stroke: #000000; stroke-width: 0.8"/>
      </g>
     </g>
     <g id="text_8">
      <!-- $\mathdefault{10^{-3}}$ -->
      <g transform="translate(13.678125 174.953332) scale(0.1 -0.1)">
       <defs>
        <path id="DejaVuSans-31" d="M 794 531 
L 1825 531 
L 1825 4091 
L 703 3866 
L 703 4441 
L 1819 4666 
L 2450 4666 
L 2450 531 
L 3481 531 
L 3481 0 
L 794 0 
L 794 531 
z
" transform="scale(0.015625)"/>
        <path id="DejaVuSans-30" d="M 2034 4250 
Q 1547 4250 1301 3770 
Q 1056 3291 1056 2328 
Q 1056 1369 1301 889 
Q 1547 409 2034 409 
Q 2525 409 2770 889 
Q 3016 1369 3016 2328 
Q 3016 3291 2770 3770 
Q 2525 4250 2034 4250 
z
M 2034 4750 
Q 2819 4750 3233 4129 
Q 3647 3509 3647 2328 
Q 3647 1150 3233 529 
Q 2819 -91 2034 -91 
Q 1250 -91 836 529 
Q 422 1150 422 2328 
Q 422 3509 836 4129 
Q 1250 4750 2034 4750 
z
" transform="scale(0.015625)"/>
        <path id="DejaVuSans-2212" d="M 678 2272 
L 4684 2272 
L 4684 1741 
L 678 1741 
L 678 2272 
z
" transform="scale(0.015625)"/>
        <path id="DejaVuSans-33" d="M 2597 2516 
Q 3050 2419 3304 2112 
Q 3559 1806 3559 1356 
Q 3559 666 3084 287 
Q 2609 -91 1734 -91 
Q 1441 -91 1130 -33 
Q 819 25 488 141 
L 488 750 
Q 750 597 1062 519 
Q 1375 441 1716 441 
Q 2309 441 2620 675 
Q 2931 909 2931 1356 
Q 2931 1769 2642 2001 
Q 2353 2234 1838 2234 
L 1294 2234 
L 1294 2753 
L 1863 2753 
Q 2328 2753 2575 2939 
Q 2822 3125 2822 3475 
Q 2822 3834 2567 4026 
Q 2313 4219 1838 4219 
Q 1578 4219 1281 4162 
Q 984 4106 628 3988 
L 628 4550 
Q 988 4650 1302 4700 
Q 1616 4750 1894 4750 
Q 2613 4750 3031 4423 
Q 3450 4097 3450 3541 
Q 3450 3153 3228 2886 
Q 3006 2619 2597 2516 
z
" transform="scale(0.015625)"/>
       </defs>
       <use xlink:href="#DejaVuSans-31" transform="translate(0 0.765625)"/>
       <use xlink:href="#DejaVuSans-30" transform="translate(63.623047 0.765625)"/>
       <use xlink:href="#DejaVuSans-2212" transform="translate(128.203125 39.046875) scale(0.7)"/>
       <use xlink:href="#DejaVuSans-33" transform="translate(186.855469 39.046875) scale(0.7)"/>
      </g>
     </g>
    </g>
    <g id="ytick_2">
     <g id="line2d_9">
      <g>
       <use xlink:href="#m83e9563393" x="44.178125" y="108.040577" style="stroke: #000000; stroke-width: 0.8"/>
      </g>
     </g>
     <g id="text_9">
      <!-- $\mathdefault{10^{-2}}$ -->
      <g transform="translate(13.678125 111.839796) scale(0.1 -0.1)">
       <defs>
        <path id="DejaVuSans-32" d="M 1228 531 
L 3431 531 
L 3431 0 
L 469 0 
L 469 531 
Q 828 903 1448 1529 
Q 2069 2156 2228 2338 
Q 2531 2678 2651 2914 
Q 2772 3150 2772 3378 
Q 2772 3750 2511 3984 
Q 2250 4219 1831 4219 
Q 1534 4219 1204 4116 
Q 875 4013 500 3803 
L 500 4441 
Q 881 4594 1212 4672 
Q 1544 4750 1819 4750 
Q 2544 4750 2975 4387 
Q 3406 4025 3406 3419 
Q 3406 3131 3298 2873 
Q 3191 2616 2906 2266 
Q 2828 2175 2409 1742 
Q 1991 1309 1228 531 
z
" transform="scale(0.015625)"/>
       </defs>
       <use xlink:href="#DejaVuSans-31" transform="translate(0 0.765625)"/>
       <use xlink:href="#DejaVuSans-30" transform="translate(63.623047 0.765625)"/>
       <use xlink:href="#DejaVuSans-2212" transform="translate(128.203125 39.046875) scale(0.7)"/>
       <use xlink:href="#DejaVuSans-32" transform="translate(186.855469 39.046875) scale(0.7)"/>
      </g>
     </g>
    </g>
    <g id="ytick_3">
     <g id="line2d_10">
      <g>
       <use xlink:href="#m83e9563393" x="44.178125" y="44.927041" style="stroke: #000000; stroke-width: 0.8"/>
      </g>
     </g>
     <g id="text_10">
      <!-- $\mathdefault{10^{-1}}$ -->
      <g transform="translate(13.678125 48.726259) scale(0.1 -0.1)">
       <use xlink:href="#DejaVuSans-31" transform="translate(0 0.684375)"/>
       <use xlink:href="#DejaVuSans-30" transform="translate(63.623047 0.684375)"/>
       <use xlink:href="#DejaVuSans-2212" transform="translate(128.203125 38.965625) scale(0.7)"/>
       <use xlink:href="#DejaVuSans-31" transform="translate(186.855469 38.965625) scale(0.7)"/>
      </g>
     </g>
    </g>
    <g id="ytick_4">
     <g id="line2d_11">
      <defs>
       <path id="m69e67c6341" d="M 0 0 
L -2 0 
" style="stroke: #000000; stroke-width: 0.6"/>
      </defs>
      <g>
       <use xlink:href="#m69e67c6341" x="44.178125" y="215.268581" style="stroke: #000000; stroke-width: 0.6"/>
      </g>
     </g>
    </g>
    <g id="ytick_5">
     <g id="line2d_12">
      <g>
       <use xlink:href="#m69e67c6341" x="44.178125" y="204.154839" style="stroke: #000000; stroke-width: 0.6"/>
      </g>
     </g>
    </g>
    <g id="ytick_6">
     <g id="line2d_13">
      <g>
       <use xlink:href="#m69e67c6341" x="44.178125" y="196.269514" style="stroke: #000000; stroke-width: 0.6"/>
      </g>
     </g>
    </g>
    <g id="ytick_7">
     <g id="line2d_14">
      <g>
       <use xlink:href="#m69e67c6341" x="44.178125" y="190.15318" style="stroke: #000000; stroke-width: 0.6"/>
      </g>
     </g>
    </g>
    <g id="ytick_8">
     <g id="line2d_15">
      <g>
       <use xlink:href="#m69e67c6341" x="44.178125" y="185.155772" style="stroke: #000000; stroke-width: 0.6"/>
      </g>
     </g>
    </g>
    <g id="ytick_9">
     <g id="line2d_16">
      <g>
       <use xlink:href="#m69e67c6341" x="44.178125" y="180.930523" style="stroke: #000000; stroke-width: 0.6"/>
      </g>
     </g>
    </g>
    <g id="ytick_10">
     <g id="line2d_17">
      <g>
       <use xlink:href="#m69e67c6341" x="44.178125" y="177.270446" style="stroke: #000000; stroke-width: 0.6"/>
      </g>
     </g>
    </g>
    <g id="ytick_11">
     <g id="line2d_18">
      <g>
       <use xlink:href="#m69e67c6341" x="44.178125" y="174.04203" style="stroke: #000000; stroke-width: 0.6"/>
      </g>
     </g>
    </g>
    <g id="ytick_12">
     <g id="line2d_19">
      <g>
       <use xlink:href="#m69e67c6341" x="44.178125" y="152.155045" style="stroke: #000000; stroke-width: 0.6"/>
      </g>
     </g>
    </g>
    <g id="ytick_13">
     <g id="line2d_20">
      <g>
       <use xlink:href="#m69e67c6341" x="44.178125" y="141.041303" style="stroke: #000000; stroke-width: 0.6"/>
      </g>
     </g>
    </g>
    <g id="ytick_14">
     <g id="line2d_21">
      <g>
       <use xlink:href="#m69e67c6341" x="44.178125" y="133.155978" style="stroke: #000000; stroke-width: 0.6"/>
      </g>
     </g>
    </g>
    <g id="ytick_15">
     <g id="line2d_22">
      <g>
       <use xlink:href="#m69e67c6341" x="44.178125" y="127.039644" style="stroke: #000000; stroke-width: 0.6"/>
      </g>
     </g>
    </g>
    <g id="ytick_16">
     <g id="line2d_23">
      <g>
       <use xlink:href="#m69e67c6341" x="44.178125" y="122.042236" style="stroke: #000000; stroke-width: 0.6"/>
      </g>
     </g>
    </g>
    <g id="ytick_17">
     <g id="line2d_24">
      <g>
       <use xlink:href="#m69e67c6341" x="44.178125" y="117.816987" style="stroke: #000000; stroke-width: 0.6"/>
      </g>
     </g>
    </g>
    <g id="ytick_18">
     <g id="line2d_25">
      <g>
       <use xlink:href="#m69e67c6341" x="44.178125" y="114.15691" style="stroke: #000000; stroke-width: 0.6"/>
      </g>
     </g>
    </g>
    <g id="ytick_19">
     <g id="line2d_26">
      <g>
       <use xlink:href="#m69e67c6341" x="44.178125" y="110.928494" style="stroke: #000000; stroke-width: 0.6"/>
      </g>
     </g>
    </g>
    <g id="ytick_20">
     <g id="line2d_27">
      <g>
       <use xlink:href="#m69e67c6341" x="44.178125" y="89.041509" style="stroke: #000000; stroke-width: 0.6"/>
      </g>
     </g>
    </g>
    <g id="ytick_21">
     <g id="line2d_28">
      <g>
       <use xlink:href="#m69e67c6341" x="44.178125" y="77.927767" style="stroke: #000000; stroke-width: 0.6"/>
      </g>
     </g>
    </g>
    <g id="ytick_22">
     <g id="line2d_29">
      <g>
       <use xlink:href="#m69e67c6341" x="44.178125" y="70.042442" style="stroke: #000000; stroke-width: 0.6"/>
      </g>
     </g>
    </g>
    <g id="ytick_23">
     <g id="line2d_30">
      <g>
       <use xlink:href="#m69e67c6341" x="44.178125" y="63.926108" style="stroke: #000000; stroke-width: 0.6"/>
      </g>
     </g>
    </g>
    <g id="ytick_24">
     <g id="line2d_31">
      <g>
       <use xlink:href="#m69e67c6341" x="44.178125" y="58.9287" style="stroke: #000000; stroke-width: 0.6"/>
      </g>
     </g>
    </g>
    <g id="ytick_25">
     <g id="line2d_32">
      <g>
       <use xlink:href="#m69e67c6341" x="44.178125" y="54.703451" style="stroke: #000000; stroke-width: 0.6"/>
      </g>
     </g>
    </g>
    <g id="ytick_26">
     <g id="line2d_33">
      <g>
       <use xlink:href="#m69e67c6341" x="44.178125" y="51.043374" style="stroke: #000000; stroke-width: 0.6"/>
      </g>
     </g>
    </g>
    <g id="ytick_27">
     <g id="line2d_34">
      <g>
       <use xlink:href="#m69e67c6341" x="44.178125" y="47.814958" style="stroke: #000000; stroke-width: 0.6"/>
      </g>
     </g>
    </g>
    <g id="ytick_28">
     <g id="line2d_35">
      <g>
       <use xlink:href="#m69e67c6341" x="44.178125" y="25.927973" style="stroke: #000000; stroke-width: 0.6"/>
      </g>
     </g>
    </g>
    <g id="ytick_29">
     <g id="line2d_36">
      <g>
       <use xlink:href="#m69e67c6341" x="44.178125" y="14.814231" style="stroke: #000000; stroke-width: 0.6"/>
      </g>
     </g>
    </g>
    <g id="ytick_30">
     <g id="line2d_37">
      <g>
       <use xlink:href="#m69e67c6341" x="44.178125" y="6.928906" style="stroke: #000000; stroke-width: 0.6"/>
      </g>
     </g>
    </g>
    <g id="ytick_31">
     <g id="line2d_38">
      <g>
       <use xlink:href="#m69e67c6341" x="44.178125" y="0.812572" style="stroke: #000000; stroke-width: 0.6"/>
      </g>
     </g>
    </g>
    <g id="text_11">
     <!-- Solve Time (Seconds) -->
     <g transform="translate(7.598438 168.019138) rotate(-90) scale(0.1 -0.1)">
      <defs>
       <path id="DejaVuSans-76" d="M 191 3500 
L 800 3500 
L 1894 563 
L 2988 3500 
L 3597 3500 
L 2284 0 
L 1503 0 
L 191 3500 
z
" transform="scale(0.015625)"/>
       <path id="DejaVuSans-6d" d="M 3328 2828 
Q 3544 3216 3844 3400 
Q 4144 3584 4550 3584 
Q 5097 3584 5394 3201 
Q 5691 2819 5691 2113 
L 5691 0 
L 5113 0 
L 5113 2094 
Q 5113 2597 4934 2840 
Q 4756 3084 4391 3084 
Q 3944 3084 3684 2787 
Q 3425 2491 3425 1978 
L 3425 0 
L 2847 0 
L 2847 2094 
Q 2847 2600 2669 2842 
Q 2491 3084 2119 3084 
Q 1678 3084 1418 2786 
Q 1159 2488 1159 1978 
L 1159 0 
L 581 0 
L 581 3500 
L 1159 3500 
L 1159 2956 
Q 1356 3278 1631 3431 
Q 1906 3584 2284 3584 
Q 2666 3584 2933 3390 
Q 3200 3197 3328 2828 
z
" transform="scale(0.015625)"/>
       <path id="DejaVuSans-63" d="M 3122 3366 
L 3122 2828 
Q 2878 2963 2633 3030 
Q 2388 3097 2138 3097 
Q 1578 3097 1268 2742 
Q 959 2388 959 1747 
Q 959 1106 1268 751 
Q 1578 397 2138 397 
Q 2388 397 2633 464 
Q 2878 531 3122 666 
L 3122 134 
Q 2881 22 2623 -34 
Q 2366 -91 2075 -91 
Q 1284 -91 818 406 
Q 353 903 353 1747 
Q 353 2603 823 3093 
Q 1294 3584 2113 3584 
Q 2378 3584 2631 3529 
Q 2884 3475 3122 3366 
z
" transform="scale(0.015625)"/>
       <path id="DejaVuSans-6e" d="M 3513 2113 
L 3513 0 
L 2938 0 
L 2938 2094 
Q 2938 2591 2744 2837 
Q 2550 3084 2163 3084 
Q 1697 3084 1428 2787 
Q 1159 2491 1159 1978 
L 1159 0 
L 581 0 
L 581 3500 
L 1159 3500 
L 1159 2956 
Q 1366 3272 1645 3428 
Q 1925 3584 2291 3584 
Q 2894 3584 3203 3211 
Q 3513 2838 3513 2113 
z
" transform="scale(0.015625)"/>
       <path id="DejaVuSans-73" d="M 2834 3397 
L 2834 2853 
Q 2591 2978 2328 3040 
Q 2066 3103 1784 3103 
Q 1356 3103 1142 2972 
Q 928 2841 928 2578 
Q 928 2378 1081 2264 
Q 1234 2150 1697 2047 
L 1894 2003 
Q 2506 1872 2764 1633 
Q 3022 1394 3022 966 
Q 3022 478 2636 193 
Q 2250 -91 1575 -91 
Q 1294 -91 989 -36 
Q 684 19 347 128 
L 347 722 
Q 666 556 975 473 
Q 1284 391 1588 391 
Q 1994 391 2212 530 
Q 2431 669 2431 922 
Q 2431 1156 2273 1281 
Q 2116 1406 1581 1522 
L 1381 1569 
Q 847 1681 609 1914 
Q 372 2147 372 2553 
Q 372 3047 722 3315 
Q 1072 3584 1716 3584 
Q 2034 3584 2315 3537 
Q 2597 3491 2834 3397 
z
" transform="scale(0.015625)"/>
      </defs>
      <use xlink:href="#DejaVuSans-53"/>
      <use xlink:href="#DejaVuSans-6f" transform="translate(63.476562 0)"/>
      <use xlink:href="#DejaVuSans-6c" transform="translate(124.658203 0)"/>
      <use xlink:href="#DejaVuSans-76" transform="translate(152.441406 0)"/>
      <use xlink:href="#DejaVuSans-65" transform="translate(211.621094 0)"/>
      <use xlink:href="#DejaVuSans-20" transform="translate(273.144531 0)"/>
      <use xlink:href="#DejaVuSans-54" transform="translate(304.931641 0)"/>
      <use xlink:href="#DejaVuSans-69" transform="translate(362.890625 0)"/>
      <use xlink:href="#DejaVuSans-6d" transform="translate(390.673828 0)"/>
      <use xlink:href="#DejaVuSans-65" transform="translate(488.085938 0)"/>
      <use xlink:href="#DejaVuSans-20" transform="translate(549.609375 0)"/>
      <use xlink:href="#DejaVuSans-28" transform="translate(581.396484 0)"/>
      <use xlink:href="#DejaVuSans-53" transform="translate(620.410156 0)"/>
      <use xlink:href="#DejaVuSans-65" transform="translate(683.886719 0)"/>
      <use xlink:href="#DejaVuSans-63" transform="translate(745.410156 0)"/>
      <use xlink:href="#DejaVuSans-6f" transform="translate(800.390625 0)"/>
      <use xlink:href="#DejaVuSans-6e" transform="translate(861.572266 0)"/>
      <use xlink:href="#DejaVuSans-64" transform="translate(924.951172 0)"/>
      <use xlink:href="#DejaVuSans-73" transform="translate(988.427734 0)"/>
      <use xlink:href="#DejaVuSans-29" transform="translate(1040.527344 0)"/>
     </g>
    </g>
   </g>
   <g id="line2d_39">
    <path d="M 70.273693 184.520163 
L 70.273693 60.103592 
" clip-path="url(#p6a2c2f7ce4)" style="fill: none; stroke: #2f2f2f; stroke-width: 1.125; stroke-linecap: square"/>
   </g>
   <g id="line2d_40">
    <path d="M 70.273693 148.038985 
L 70.273693 111.554323 
" clip-path="url(#p6a2c2f7ce4)" style="fill: none; stroke: #2f2f2f; stroke-width: 3.375; stroke-linecap: square"/>
   </g>
   <g id="line2d_41">
    <path d="M 70.273693 130.882518 
" clip-path="url(#p6a2c2f7ce4)" style="fill: none; stroke: #2f2f2f; stroke-width: 1.5; stroke-linecap: square"/>
    <defs>
     <path id="mc8cc83c17b" d="M 1.40625 0 
L -1.40625 -0 
" style="stroke: #ffffff; stroke-width: 0.675"/>
    </defs>
    <g clip-path="url(#p6a2c2f7ce4)">
     <use xlink:href="#mc8cc83c17b" x="70.273693" y="130.882518" style="fill: #ffffff; stroke: #ffffff; stroke-width: 0.675"/>
    </g>
   </g>
   <g id="line2d_42">
    <path d="M 122.464828 182.964427 
L 122.464828 61.403877 
" clip-path="url(#p6a2c2f7ce4)" style="fill: none; stroke: #2f2f2f; stroke-width: 1.125; stroke-linecap: square"/>
   </g>
   <g id="line2d_43">
    <path d="M 122.464828 147.414643 
L 122.464828 111.807267 
" clip-path="url(#p6a2c2f7ce4)" style="fill: none; stroke: #2f2f2f; stroke-width: 3.375; stroke-linecap: square"/>
   </g>
   <g id="line2d_44">
    <path d="M 122.464828 130.529464 
" clip-path="url(#p6a2c2f7ce4)" style="fill: none; stroke: #2f2f2f; stroke-width: 1.5; stroke-linecap: square"/>
    <g clip-path="url(#p6a2c2f7ce4)">
     <use xlink:href="#mc8cc83c17b" x="122.464828" y="130.529464" style="fill: #ffffff; stroke: #ffffff; stroke-width: 0.675"/>
    </g>
   </g>
   <g id="line2d_45">
    <path d="M 174.655963 184.050621 
L 174.655963 58.753098 
" clip-path="url(#p6a2c2f7ce4)" style="fill: none; stroke: #2f2f2f; stroke-width: 1.125; stroke-linecap: square"/>
   </g>
   <g id="line2d_46">
    <path d="M 174.655963 147.976521 
L 174.655963 110.781278 
" clip-path="url(#p6a2c2f7ce4)" style="fill: none; stroke: #2f2f2f; stroke-width: 3.375; stroke-linecap: square"/>
   </g>
   <g id="line2d_47">
    <path d="M 174.655963 129.804922 
" clip-path="url(#p6a2c2f7ce4)" style="fill: none; stroke: #2f2f2f; stroke-width: 1.5; stroke-linecap: square"/>
    <g clip-path="url(#p6a2c2f7ce4)">
     <use xlink:href="#mc8cc83c17b" x="174.655963" y="129.804922" style="fill: #ffffff; stroke: #ffffff; stroke-width: 0.675"/>
    </g>
   </g>
   <g id="line2d_48">
    <path d="M 226.847098 181.76912 
L 226.847098 61.278409 
" clip-path="url(#p6a2c2f7ce4)" style="fill: none; stroke: #2f2f2f; stroke-width: 1.125; stroke-linecap: square"/>
   </g>
   <g id="line2d_49">
    <path d="M 226.847098 148.823516 
L 226.847098 113.251531 
" clip-path="url(#p6a2c2f7ce4)" style="fill: none; stroke: #2f2f2f; stroke-width: 3.375; stroke-linecap: square"/>
   </g>
   <g id="line2d_50">
    <path d="M 226.847098 133.306567 
" clip-path="url(#p6a2c2f7ce4)" style="fill: none; stroke: #2f2f2f; stroke-width: 1.5; stroke-linecap: square"/>
    <g clip-path="url(#p6a2c2f7ce4)">
     <use xlink:href="#mc8cc83c17b" x="226.847098" y="133.306567" style="fill: #ffffff; stroke: #ffffff; stroke-width: 0.675"/>
    </g>
   </g>
   <g id="line2d_51">
    <path d="M 279.038233 127.599775 
L 279.038233 10.367294 
" clip-path="url(#p6a2c2f7ce4)" style="fill: none; stroke: #2f2f2f; stroke-width: 1.125; stroke-linecap: square"/>
   </g>
   <g id="line2d_52">
    <path d="M 279.038233 93.158596 
L 279.038233 59.552894 
" clip-path="url(#p6a2c2f7ce4)" style="fill: none; stroke: #2f2f2f; stroke-width: 3.375; stroke-linecap: square"/>
   </g>
   <g id="line2d_53">
    <path d="M 279.038233 77.830158 
" clip-path="url(#p6a2c2f7ce4)" style="fill: none; stroke: #2f2f2f; stroke-width: 1.5; stroke-linecap: square"/>
    <g clip-path="url(#p6a2c2f7ce4)">
     <use xlink:href="#mc8cc83c17b" x="279.038233" y="77.830158" style="fill: #ffffff; stroke: #ffffff; stroke-width: 0.675"/>
    </g>
   </g>
   <g id="line2d_54">
    <path d="M 331.229368 139.077904 
L 331.229368 10.853725 
" clip-path="url(#p6a2c2f7ce4)" style="fill: none; stroke: #2f2f2f; stroke-width: 1.125; stroke-linecap: square"/>
   </g>
   <g id="line2d_55">
    <path d="M 331.229368 94.660362 
L 331.229368 58.622459 
" clip-path="url(#p6a2c2f7ce4)" style="fill: none; stroke: #2f2f2f; stroke-width: 3.375; stroke-linecap: square"/>
   </g>
   <g id="line2d_56">
    <path d="M 331.229368 79.424781 
" clip-path="url(#p6a2c2f7ce4)" style="fill: none; stroke: #2f2f2f; stroke-width: 1.5; stroke-linecap: square"/>
    <g clip-path="url(#p6a2c2f7ce4)">
     <use xlink:href="#mc8cc83c17b" x="331.229368" y="79.424781" style="fill: #ffffff; stroke: #ffffff; stroke-width: 0.675"/>
    </g>
   </g>
   <g id="line2d_57">
    <path d="M 383.420504 138.752745 
L 383.420504 38.626337 
" clip-path="url(#p6a2c2f7ce4)" style="fill: none; stroke: #2f2f2f; stroke-width: 1.125; stroke-linecap: square"/>
   </g>
   <g id="line2d_58">
    <path d="M 383.420504 112.64532 
L 383.420504 81.005755 
" clip-path="url(#p6a2c2f7ce4)" style="fill: none; stroke: #2f2f2f; stroke-width: 3.375; stroke-linecap: square"/>
   </g>
   <g id="line2d_59">
    <path d="M 383.420504 97.674507 
" clip-path="url(#p6a2c2f7ce4)" style="fill: none; stroke: #2f2f2f; stroke-width: 1.5; stroke-linecap: square"/>
    <g clip-path="url(#p6a2c2f7ce4)">
     <use xlink:href="#mc8cc83c17b" x="383.420504" y="97.674507" style="fill: #ffffff; stroke: #ffffff; stroke-width: 0.675"/>
    </g>
   </g>
   <g id="patch_3">
    <path d="M 44.178125 228.080464 
L 44.178125 -0 
" style="fill: none; stroke: #000000; stroke-width: 0.8; stroke-linejoin: miter; stroke-linecap: square"/>
   </g>
   <g id="patch_4">
    <path d="M 44.178125 228.080464 
L 409.516071 228.080464 
" style="fill: none; stroke: #000000; stroke-width: 0.8; stroke-linejoin: miter; stroke-linecap: square"/>
   </g>
  </g>
 </g>
 <defs>
  <clipPath id="p6a2c2f7ce4">
   <rect x="44.178125" y="-0" width="365.337946" height="228.080464"/>
  </clipPath>
 </defs>
</svg>
