<?xml version="1.0" encoding="utf-8" standalone="no"?>
<!DOCTYPE svg PUBLIC "-//W3C//DTD SVG 1.1//EN"
  "http://www.w3.org/Graphics/SVG/1.1/DTD/svg11.dtd">
<svg xmlns:xlink="http://www.w3.org/1999/xlink" width="561.29625pt" height="301.06575pt" viewBox="0 0 561.29625 301.06575" xmlns="http://www.w3.org/2000/svg" version="1.1">
 <metadata>
  <rdf:RDF xmlns:dc="http://purl.org/dc/elements/1.1/" xmlns:cc="http://creativecommons.org/ns#" xmlns:rdf="http://www.w3.org/1999/02/22-rdf-syntax-ns#">
   <cc:Work>
    <dc:type rdf:resource="http://purl.org/dc/dcmitype/StillImage"/>
    <dc:date>2026-08-05T15:49:05.802433</dc:date>
    <dc:format>image/svg+xml</dc:format>
    <dc:creator>
     <cc:Agent>
      <dc:title>Matplotlib v3.10.9, https://matplotlib.org/</dc:title>
     </cc:Agent>
    </dc:creator>
   </cc:Work>
  </rdf:RDF>
 </metadata>
 <defs>
  <style type="text/css">*{stroke-linejoin: round; stroke-linecap: butt}</style>
 </defs>
 <g id="figure_1">
  <g id="patch_1">
   <path d="M 0 301.06575 
L 561.29625 301.06575 
L 561.29625 0 
L 0 0 
L 0 301.06575 
z
" style="fill: none"/>
  </g>
  <g id="axes_1">
   <g id="patch_2">
    <path d="M 37.30625 263.492 
L 561.29625 263.492 
L 561.29625 0 
L 37.30625 0 
L 37.30625 263.492 
z
" style="fill: none"/>
   </g>
   <g id="FillBetweenPolyCollection_1">
    <defs>
     <path id="m8030919004" d="M 67.060048 -51.993924 
L 65.773564 -51.993924 
L 65.753536 -54.016322 
L 65.7351 -56.038719 
L 65.713978 -58.061117 
L 65.684685 -60.083515 
L 65.64073 -62.105913 
L 65.574896 -64.128311 
L 65.479586 -66.150709 
L 65.347215 -68.173107 
L 65.170614 -70.195505 
L 64.943429 -72.217903 
L 64.660489 -74.2403 
L 64.318112 -76.262698 
L 63.914325 -78.285096 
L 63.44899 -80.307494 
L 62.923783 -82.329892 
L 62.342044 -84.35229 
L 61.708474 -86.374688 
L 61.028695 -88.397086 
L 60.308696 -90.419484 
L 59.554232 -92.441881 
L 58.770216 -94.464279 
L 57.960211 -96.486677 
L 57.126088 -98.509075 
L 56.267936 -100.531473 
L 55.384267 -102.553871 
L 54.472537 -104.576269 
L 53.529948 -106.598667 
L 52.554444 -108.621064 
L 51.545789 -110.643462 
L 50.506556 -112.66586 
L 49.442883 -114.688258 
L 48.364845 -116.710656 
L 47.286356 -118.733054 
L 46.224574 -120.755452 
L 45.198865 -122.77785 
L 44.229443 -124.800248 
L 43.33588 -126.822645 
L 42.535689 -128.845043 
L 41.843162 -130.867441 
L 41.268637 -132.889839 
L 40.818242 -134.912237 
L 40.494125 -136.934635 
L 40.295064 -138.957033 
L 40.217306 -140.979431 
L 40.255449 -143.001829 
L 40.403196 -145.024226 
L 40.653838 -147.046624 
L 41.000424 -149.069022 
L 41.435609 -151.09142 
L 41.951295 -153.113818 
L 42.538175 -155.136216 
L 43.185357 -157.158614 
L 43.880192 -159.181012 
L 44.608434 -161.20341 
L 45.354729 -163.225807 
L 46.10345 -165.248205 
L 46.839742 -167.270603 
L 47.550679 -169.293001 
L 48.226331 -171.315399 
L 48.86062 -173.337797 
L 49.451798 -175.360195 
L 50.002505 -177.382593 
L 50.519342 -179.40499 
L 51.012048 -181.427388 
L 51.492342 -183.449786 
L 51.972597 -185.472184 
L 52.464497 -187.494582 
L 52.977834 -189.51698 
L 53.519568 -191.539378 
L 54.093234 -193.561776 
L 54.698736 -195.584174 
L 55.332485 -197.606571 
L 55.987849 -199.628969 
L 56.655808 -201.651367 
L 57.325749 -203.673765 
L 57.986302 -205.696163 
L 58.626156 -207.718561 
L 59.23482 -209.740959 
L 59.803277 -211.763357 
L 60.324526 -213.785755 
L 60.793971 -215.808152 
L 61.209659 -217.83055 
L 61.572319 -219.852948 
L 61.885223 -221.875346 
L 62.153845 -223.897744 
L 62.385347 -225.920142 
L 62.587947 -227.94254 
L 62.77021 -229.964938 
L 62.940353 -231.987336 
L 63.105633 -234.009733 
L 63.271875 -236.032131 
L 63.443189 -238.054529 
L 63.621887 -240.076927 
L 63.808581 -242.099325 
L 64.002436 -244.121723 
L 64.201504 -246.144121 
L 64.40311 -248.166519 
L 64.604214 -250.188916 
L 64.801724 -252.211314 
L 68.031887 -252.211314 
L 68.031887 -252.211314 
L 68.229398 -250.188916 
L 68.430501 -248.166519 
L 68.632107 -246.144121 
L 68.831175 -244.121723 
L 69.02503 -242.099325 
L 69.211724 -240.076927 
L 69.390422 -238.054529 
L 69.561736 -236.032131 
L 69.727978 -234.009733 
L 69.893258 -231.987336 
L 70.063401 -229.964938 
L 70.245664 -227.94254 
L 70.448264 -225.920142 
L 70.679766 -223.897744 
L 70.948388 -221.875346 
L 71.261292 -219.852948 
L 71.623952 -217.83055 
L 72.03964 -215.808152 
L 72.509085 -213.785755 
L 73.030334 -211.763357 
L 73.598791 -209.740959 
L 74.207455 -207.718561 
L 74.847309 -205.696163 
L 75.507862 -203.673765 
L 76.177804 -201.651367 
L 76.845763 -199.628969 
L 77.501126 -197.606571 
L 78.134875 -195.584174 
L 78.740377 -193.561776 
L 79.314043 -191.539378 
L 79.855777 -189.51698 
L 80.369114 -187.494582 
L 80.861015 -185.472184 
L 81.341269 -183.449786 
L 81.821563 -181.427388 
L 82.314269 -179.40499 
L 82.831106 -177.382593 
L 83.381813 -175.360195 
L 83.972992 -173.337797 
L 84.60728 -171.315399 
L 85.282932 -169.293001 
L 85.993869 -167.270603 
L 86.730162 -165.248205 
L 87.478882 -163.225807 
L 88.225177 -161.20341 
L 88.953419 -159.181012 
L 89.648255 -157.158614 
L 90.295436 -155.136216 
L 90.882316 -153.113818 
L 91.398002 -151.09142 
L 91.833188 -149.069022 
L 92.179773 -147.046624 
L 92.430415 -145.024226 
L 92.578162 -143.001829 
L 92.616306 -140.979431 
L 92.538548 -138.957033 
L 92.339487 -136.934635 
L 92.01537 -134.912237 
L 91.564974 -132.889839 
L 90.990449 -130.867441 
L 90.297922 -128.845043 
L 89.497731 -126.822645 
L 88.604168 -124.800248 
L 87.634746 -122.77785 
L 86.609037 -120.755452 
L 85.547255 -118.733054 
L 84.468766 -116.710656 
L 83.390728 -114.688258 
L 82.327055 -112.66586 
L 81.287822 -110.643462 
L 80.279167 -108.621064 
L 79.303664 -106.598667 
L 78.361074 -104.576269 
L 77.449344 -102.553871 
L 76.565675 -100.531473 
L 75.707523 -98.509075 
L 74.8734 -96.486677 
L 74.063395 -94.464279 
L 73.279379 -92.441881 
L 72.524915 -90.419484 
L 71.804916 -88.397086 
L 71.125137 -86.374688 
L 70.491567 -84.35229 
L 69.909828 -82.329892 
L 69.384621 -80.307494 
L 68.919286 -78.285096 
L 68.5155 -76.262698 
L 68.173122 -74.2403 
L 67.890182 -72.217903 
L 67.662997 -70.195505 
L 67.486396 -68.173107 
L 67.354025 -66.150709 
L 67.258715 -64.128311 
L 67.192881 -62.105913 
L 67.148926 -60.083515 
L 67.119633 -58.061117 
L 67.098511 -56.038719 
L 67.080075 -54.016322 
L 67.060048 -51.993924 
z
" style="stroke: #2f2f2f; stroke-width: 0.75"/>
    </defs>
    <g clip-path="url(#pd6cc18264f)">
     <use xlink:href="#m8030919004" x="0" y="301.06575" style="fill: #4e5ba6; stroke: #2f2f2f; stroke-width: 0.75"/>
    </g>
   </g>
   <g id="FillBetweenPolyCollection_2">
    <defs>
     <path id="md13db37baf" d="M 125.28097 -49.550659 
L 123.994863 -49.550659 
L 123.975877 -51.578483 
L 123.958705 -53.606308 
L 123.939153 -55.634132 
L 123.911835 -57.661956 
L 123.870364 -59.68978 
L 123.807626 -61.717605 
L 123.716125 -63.745429 
L 123.588363 -65.773253 
L 123.417251 -67.801077 
L 123.196506 -69.828902 
L 122.921018 -71.856726 
L 122.587161 -73.88455 
L 122.193017 -75.912374 
L 121.738495 -77.940199 
L 121.225323 -79.968023 
L 120.656905 -81.995847 
L 120.03803 -84.023671 
L 119.374458 -86.051496 
L 118.672391 -88.07932 
L 117.937891 -90.107144 
L 117.176293 -92.134968 
L 116.391676 -94.162793 
L 115.586481 -96.190617 
L 114.761329 -98.218441 
L 113.915101 -100.246265 
L 113.045301 -102.27409 
L 112.148691 -104.301914 
L 111.222156 -106.329738 
L 110.26369 -108.357562 
L 109.273407 -110.385387 
L 108.254417 -112.413211 
L 107.213433 -114.441035 
L 106.161006 -116.46886 
L 105.111313 -118.496684 
L 104.081494 -120.524508 
L 103.090603 -122.552332 
L 102.158289 -124.580157 
L 101.303384 -126.607981 
L 100.542579 -128.635805 
L 99.889365 -130.663629 
L 99.353363 -132.691454 
L 98.940117 -134.719278 
L 98.651325 -136.747102 
L 98.48543 -138.774926 
L 98.438417 -140.802751 
L 98.504654 -142.830575 
L 98.677609 -144.858399 
L 98.950313 -146.886223 
L 99.315526 -148.914048 
L 99.765597 -150.941872 
L 100.292121 -152.969696 
L 100.885514 -154.99752 
L 101.534662 -157.025345 
L 102.226785 -159.053169 
L 102.947621 -161.080993 
L 103.68196 -163.108817 
L 104.414499 -165.136642 
L 105.130931 -167.164466 
L 105.819103 -169.19229 
L 106.470093 -171.220114 
L 107.07902 -173.247939 
L 107.645474 -175.275763 
L 108.173476 -177.303587 
L 108.670952 -179.331411 
L 109.148794 -181.359236 
L 109.619606 -183.38706 
L 110.096298 -185.414884 
L 110.5907 -187.442708 
L 111.112349 -189.470533 
L 111.667581 -191.498357 
L 112.258997 -193.526181 
L 112.885324 -195.554005 
L 113.541657 -197.58183 
L 114.219992 -199.609654 
L 114.909979 -201.637478 
L 115.599801 -203.665303 
L 116.277078 -205.693127 
L 116.92975 -207.720951 
L 117.546869 -209.748775 
L 118.119269 -211.7766 
L 118.640096 -213.804424 
L 119.105163 -215.832248 
L 119.51313 -217.860072 
L 119.865479 -219.887897 
L 120.166303 -221.915721 
L 120.421901 -223.943545 
L 120.64022 -225.971369 
L 120.830184 -227.999194 
L 121.000972 -230.027018 
L 121.161318 -232.054842 
L 121.318893 -234.082666 
L 121.479834 -236.110491 
L 121.648454 -238.138315 
L 121.827139 -240.166139 
L 122.016436 -242.193963 
L 122.215286 -244.221788 
L 122.421364 -246.249612 
L 122.631473 -248.277436 
L 122.841938 -250.30526 
L 126.433896 -250.30526 
L 126.433896 -250.30526 
L 126.644361 -248.277436 
L 126.854469 -246.249612 
L 127.060548 -244.221788 
L 127.259397 -242.193963 
L 127.448694 -240.166139 
L 127.627379 -238.138315 
L 127.795999 -236.110491 
L 127.956941 -234.082666 
L 128.114516 -232.054842 
L 128.274861 -230.027018 
L 128.445649 -227.999194 
L 128.635613 -225.971369 
L 128.853932 -223.943545 
L 129.109531 -221.915721 
L 129.410354 -219.887897 
L 129.762704 -217.860072 
L 130.17067 -215.832248 
L 130.635738 -213.804424 
L 131.156564 -211.7766 
L 131.728964 -209.748775 
L 132.346083 -207.720951 
L 132.998755 -205.693127 
L 133.676033 -203.665303 
L 134.365854 -201.637478 
L 135.055842 -199.609654 
L 135.734176 -197.58183 
L 136.390509 -195.554005 
L 137.016837 -193.526181 
L 137.608252 -191.498357 
L 138.163484 -189.470533 
L 138.685134 -187.442708 
L 139.179535 -185.414884 
L 139.656227 -183.38706 
L 140.127039 -181.359236 
L 140.604882 -179.331411 
L 141.102358 -177.303587 
L 141.630359 -175.275763 
L 142.196814 -173.247939 
L 142.80574 -171.220114 
L 143.45673 -169.19229 
L 144.144903 -167.164466 
L 144.861335 -165.136642 
L 145.593874 -163.108817 
L 146.328212 -161.080993 
L 147.049048 -159.053169 
L 147.741172 -157.025345 
L 148.390319 -154.99752 
L 148.983712 -152.969696 
L 149.510236 -150.941872 
L 149.960307 -148.914048 
L 150.32552 -146.886223 
L 150.598225 -144.858399 
L 150.771179 -142.830575 
L 150.837417 -140.802751 
L 150.790404 -138.774926 
L 150.624508 -136.747102 
L 150.335717 -134.719278 
L 149.922471 -132.691454 
L 149.386469 -130.663629 
L 148.733254 -128.635805 
L 147.972449 -126.607981 
L 147.117544 -124.580157 
L 146.18523 -122.552332 
L 145.194339 -120.524508 
L 144.164521 -118.496684 
L 143.114828 -116.46886 
L 142.0624 -114.441035 
L 141.021416 -112.413211 
L 140.002426 -110.385387 
L 139.012144 -108.357562 
L 138.053678 -106.329738 
L 137.127142 -104.301914 
L 136.230533 -102.27409 
L 135.360733 -100.246265 
L 134.514505 -98.218441 
L 133.689352 -96.190617 
L 132.884157 -94.162793 
L 132.09954 -92.134968 
L 131.337942 -90.107144 
L 130.603443 -88.07932 
L 129.901375 -86.051496 
L 129.237803 -84.023671 
L 128.618929 -81.995847 
L 128.050511 -79.968023 
L 127.537339 -77.940199 
L 127.082816 -75.912374 
L 126.688672 -73.88455 
L 126.354815 -71.856726 
L 126.079328 -69.828902 
L 125.858582 -67.801077 
L 125.68747 -65.773253 
L 125.559708 -63.745429 
L 125.468207 -61.717605 
L 125.40547 -59.68978 
L 125.363999 -57.661956 
L 125.33668 -55.634132 
L 125.317128 -53.606308 
L 125.299957 -51.578483 
L 125.28097 -49.550659 
z
" style="stroke: #2f2f2f; stroke-width: 0.75"/>
    </defs>
    <g clip-path="url(#pd6cc18264f)">
     <use xlink:href="#md13db37baf" x="0" y="301.06575" style="fill: #afb5d7; stroke: #2f2f2f; stroke-width: 0.75"/>
    </g>
   </g>
   <g id="FillBetweenPolyCollection_3">
    <defs>
     <path id="m54228591f2" d="M 183.523426 -54.648815 
L 182.194629 -54.648815 
L 182.167127 -56.644782 
L 182.138898 -58.640749 
L 182.105303 -60.636716 
L 182.060527 -62.632683 
L 181.997801 -64.62865 
L 181.909716 -66.624617 
L 181.788597 -68.620584 
L 181.626918 -70.616551 
L 181.417733 -72.612518 
L 181.155087 -74.608485 
L 180.834379 -76.604452 
L 180.45265 -78.600419 
L 180.008764 -80.596386 
L 179.503471 -82.592353 
L 178.939316 -84.58832 
L 178.320409 -86.584287 
L 177.652038 -88.580254 
L 176.940171 -90.576221 
L 176.19087 -92.572188 
L 175.409685 -94.568155 
L 174.601103 -96.564122 
L 173.768131 -98.560089 
L 172.912083 -100.556056 
L 172.032642 -102.552023 
L 171.128215 -104.54799 
L 170.196577 -106.543957 
L 169.235733 -108.539924 
L 168.244919 -110.535891 
L 167.225585 -112.531859 
L 166.182222 -114.527826 
L 165.122892 -116.523793 
L 164.059349 -118.51976 
L 163.006692 -120.515727 
L 161.982576 -122.511694 
L 161.006057 -124.507661 
L 160.09622 -126.503628 
L 159.270783 -128.499595 
L 158.544854 -130.495562 
L 157.930022 -132.491529 
L 157.433885 -134.487496 
L 157.060054 -136.483463 
L 156.808571 -138.47943 
L 156.676646 -140.475397 
L 156.659528 -142.471364 
L 156.751341 -144.467331 
L 156.945729 -146.463298 
L 157.236201 -148.459265 
L 157.61616 -150.455232 
L 158.078633 -152.451199 
L 158.615835 -154.447166 
L 159.218692 -156.443133 
L 159.876475 -158.4391 
L 160.576696 -160.435067 
L 161.30532 -162.431034 
L 162.047339 -164.427001 
L 162.787644 -166.422968 
L 163.512099 -168.418935 
L 164.208675 -170.414902 
L 164.868476 -172.410869 
L 165.48651 -174.406836 
L 166.062086 -176.402803 
L 166.598763 -178.39877 
L 167.103862 -180.394738 
L 167.587567 -182.390705 
L 168.061759 -184.386672 
L 168.53869 -186.382639 
L 169.029689 -188.378606 
L 169.54402 -190.374573 
L 170.088018 -192.37054 
L 170.664571 -194.366507 
L 171.272975 -196.362474 
L 171.909116 -198.358441 
L 172.565946 -200.354408 
L 173.234143 -202.350375 
L 173.902901 -204.346342 
L 174.56075 -206.342309 
L 175.196368 -208.338276 
L 175.799326 -210.334243 
L 176.360735 -212.33021 
L 176.87378 -214.326177 
L 177.334106 -216.322144 
L 177.740033 -218.318111 
L 178.09259 -220.314078 
L 178.395347 -222.310045 
L 178.654055 -224.306012 
L 178.876118 -226.301979 
L 179.069939 -228.297946 
L 179.244213 -230.293913 
L 179.407227 -232.28988 
L 179.566259 -234.285847 
L 179.727113 -236.281814 
L 179.893849 -238.277781 
L 180.068713 -240.273748 
L 180.252245 -242.269715 
L 180.443529 -244.265682 
L 180.640545 -246.26165 
L 180.840547 -248.257617 
L 181.04043 -250.253584 
L 181.237044 -252.249551 
L 184.481012 -252.249551 
L 184.481012 -252.249551 
L 184.677625 -250.253584 
L 184.877508 -248.257617 
L 185.07751 -246.26165 
L 185.274527 -244.265682 
L 185.465811 -242.269715 
L 185.649342 -240.273748 
L 185.824207 -238.277781 
L 185.990943 -236.281814 
L 186.151796 -234.285847 
L 186.310828 -232.28988 
L 186.473843 -230.293913 
L 186.648117 -228.297946 
L 186.841938 -226.301979 
L 187.064 -224.306012 
L 187.322709 -222.310045 
L 187.625466 -220.314078 
L 187.978023 -218.318111 
L 188.38395 -216.322144 
L 188.844276 -214.326177 
L 189.357321 -212.33021 
L 189.91873 -210.334243 
L 190.521687 -208.338276 
L 191.157306 -206.342309 
L 191.815155 -204.346342 
L 192.483912 -202.350375 
L 193.152109 -200.354408 
L 193.808939 -198.358441 
L 194.445081 -196.362474 
L 195.053485 -194.366507 
L 195.630038 -192.37054 
L 196.174035 -190.374573 
L 196.688366 -188.378606 
L 197.179366 -186.382639 
L 197.656297 -184.386672 
L 198.130488 -182.390705 
L 198.614194 -180.394738 
L 199.119292 -178.39877 
L 199.65597 -176.402803 
L 200.231545 -174.406836 
L 200.849579 -172.410869 
L 201.509381 -170.414902 
L 202.205957 -168.418935 
L 202.930412 -166.422968 
L 203.670716 -164.427001 
L 204.412735 -162.431034 
L 205.14136 -160.435067 
L 205.84158 -158.4391 
L 206.499364 -156.443133 
L 207.10222 -154.447166 
L 207.639423 -152.451199 
L 208.101896 -150.455232 
L 208.481854 -148.459265 
L 208.772327 -146.463298 
L 208.966714 -144.467331 
L 209.058528 -142.471364 
L 209.04141 -140.475397 
L 208.909485 -138.47943 
L 208.658002 -136.483463 
L 208.28417 -134.487496 
L 207.788034 -132.491529 
L 207.173202 -130.495562 
L 206.447273 -128.499595 
L 205.621836 -126.503628 
L 204.711999 -124.507661 
L 203.735479 -122.511694 
L 202.711363 -120.515727 
L 201.658706 -118.51976 
L 200.595163 -116.523793 
L 199.535834 -114.527826 
L 198.492471 -112.531859 
L 197.473136 -110.535891 
L 196.482322 -108.539924 
L 195.521479 -106.543957 
L 194.58984 -104.54799 
L 193.685414 -102.552023 
L 192.805973 -100.556056 
L 191.949924 -98.560089 
L 191.116952 -96.564122 
L 190.308371 -94.568155 
L 189.527186 -92.572188 
L 188.777884 -90.576221 
L 188.066018 -88.580254 
L 187.397647 -86.584287 
L 186.77874 -84.58832 
L 186.214585 -82.592353 
L 185.709291 -80.596386 
L 185.265406 -78.600419 
L 184.883676 -76.604452 
L 184.562969 -74.608485 
L 184.300323 -72.612518 
L 184.091138 -70.616551 
L 183.929458 -68.620584 
L 183.808339 -66.624617 
L 183.720255 -64.62865 
L 183.657529 -62.632683 
L 183.612752 -60.636716 
L 183.579157 -58.640749 
L 183.550929 -56.644782 
L 183.523426 -54.648815 
z
" style="stroke: #2f2f2f; stroke-width: 0.75"/>
    </defs>
    <g clip-path="url(#pd6cc18264f)">
     <use xlink:href="#m54228591f2" x="0" y="301.06575" style="fill: #ca4f47; stroke: #2f2f2f; stroke-width: 0.75"/>
    </g>
   </g>
   <g id="FillBetweenPolyCollection_4">
    <defs>
     <path id="mf771a78ddf" d="M 241.74042 -50.903508 
L 240.419858 -50.903508 
L 240.394672 -52.912557 
L 240.369502 -54.921606 
L 240.339932 -56.930655 
L 240.300408 -58.939704 
L 240.244449 -60.948753 
L 240.164944 -62.957803 
L 240.054511 -64.966852 
L 239.905897 -66.975901 
L 239.712379 -68.98495 
L 239.468157 -70.993999 
L 239.168691 -73.003048 
L 238.810965 -75.012097 
L 238.393657 -77.021146 
L 237.917187 -79.030195 
L 237.38364 -81.039244 
L 236.796551 -83.048293 
L 236.160564 -85.057342 
L 235.480983 -87.066391 
L 234.763255 -89.07544 
L 234.012427 -91.084489 
L 233.232651 -93.093538 
L 232.426793 -95.102587 
L 231.596213 -97.111636 
L 230.740782 -99.120685 
L 229.859141 -101.129734 
L 228.949231 -103.138783 
L 228.009028 -105.147832 
L 227.037421 -107.156881 
L 226.035128 -109.16593 
L 225.00551 -111.174979 
L 223.955161 -113.184028 
L 222.894171 -115.193078 
L 221.835981 -117.202127 
L 220.796817 -119.211176 
L 219.794763 -121.220225 
L 218.848559 -123.229274 
L 217.976293 -125.238323 
L 217.194148 -127.247372 
L 216.515372 -129.256421 
L 215.949607 -131.26547 
L 215.502642 -133.274519 
L 215.176584 -135.283568 
L 214.970394 -137.292617 
L 214.880639 -139.301666 
L 214.902311 -141.310715 
L 215.029558 -143.319764 
L 215.256176 -145.328813 
L 215.575817 -147.337862 
L 215.981883 -149.346911 
L 216.467185 -151.35596 
L 217.023477 -153.365009 
L 217.641014 -155.374058 
L 218.308286 -157.383107 
L 219.012032 -159.392156 
L 219.737612 -161.401205 
L 220.469717 -163.410254 
L 221.193373 -165.419304 
L 221.895082 -167.428353 
L 222.563975 -169.437402 
L 223.192779 -171.446451 
L 223.778481 -173.4555 
L 224.322543 -175.464549 
L 224.830668 -177.473598 
L 225.312089 -179.482647 
L 225.778503 -181.491696 
L 226.242758 -183.500745 
L 226.717459 -185.509794 
L 227.21366 -187.518843 
L 227.739785 -189.527892 
L 228.300874 -191.536941 
L 228.898209 -193.54599 
L 229.529327 -195.555039 
L 230.188361 -197.564088 
L 230.866647 -199.573137 
L 231.5535 -201.582186 
L 232.23707 -203.591235 
L 232.905211 -205.600284 
L 233.546289 -207.609333 
L 234.149915 -209.618382 
L 234.707545 -211.627431 
L 235.212945 -213.63648 
L 235.662509 -215.645529 
L 236.055393 -217.654579 
L 236.393477 -219.663628 
L 236.681139 -221.672677 
L 236.92485 -223.681726 
L 237.132627 -225.690775 
L 237.313374 -227.699824 
L 237.476187 -229.708873 
L 237.629671 -231.717922 
L 237.781351 -233.726971 
L 237.937216 -235.73602 
L 238.101446 -237.745069 
L 238.276323 -239.754118 
L 238.462317 -241.763167 
L 238.658317 -243.772216 
L 238.861972 -245.781265 
L 239.070065 -247.790314 
L 239.278912 -249.799363 
L 242.881366 -249.799363 
L 242.881366 -249.799363 
L 243.090213 -247.790314 
L 243.298306 -245.781265 
L 243.50196 -243.772216 
L 243.697961 -241.763167 
L 243.883954 -239.754118 
L 244.058832 -237.745069 
L 244.223062 -235.73602 
L 244.378927 -233.726971 
L 244.530607 -231.717922 
L 244.684091 -229.708873 
L 244.846904 -227.699824 
L 245.027651 -225.690775 
L 245.235428 -223.681726 
L 245.479139 -221.672677 
L 245.7668 -219.663628 
L 246.104885 -217.654579 
L 246.497769 -215.645529 
L 246.947332 -213.63648 
L 247.452733 -211.627431 
L 248.010362 -209.618382 
L 248.613989 -207.609333 
L 249.255067 -205.600284 
L 249.923207 -203.591235 
L 250.606778 -201.582186 
L 251.293631 -199.573137 
L 251.971917 -197.564088 
L 252.630951 -195.555039 
L 253.262068 -193.54599 
L 253.859403 -191.536941 
L 254.420492 -189.527892 
L 254.946618 -187.518843 
L 255.442819 -185.509794 
L 255.91752 -183.500745 
L 256.381774 -181.491696 
L 256.848189 -179.482647 
L 257.32961 -177.473598 
L 257.837734 -175.464549 
L 258.381797 -173.4555 
L 258.967498 -171.446451 
L 259.596303 -169.437402 
L 260.265195 -167.428353 
L 260.966905 -165.419304 
L 261.69056 -163.410254 
L 262.422666 -161.401205 
L 263.148246 -159.392156 
L 263.851992 -157.383107 
L 264.519264 -155.374058 
L 265.136801 -153.365009 
L 265.693093 -151.35596 
L 266.178395 -149.346911 
L 266.584461 -147.337862 
L 266.904102 -145.328813 
L 267.13072 -143.319764 
L 267.257966 -141.310715 
L 267.279639 -139.301666 
L 267.189883 -137.292617 
L 266.983694 -135.283568 
L 266.657636 -133.274519 
L 266.21067 -131.26547 
L 265.644906 -129.256421 
L 264.96613 -127.247372 
L 264.183985 -125.238323 
L 263.311719 -123.229274 
L 262.365515 -121.220225 
L 261.363461 -119.211176 
L 260.324297 -117.202127 
L 259.266107 -115.193078 
L 258.205117 -113.184028 
L 257.154768 -111.174979 
L 256.12515 -109.16593 
L 255.122857 -107.156881 
L 254.15125 -105.147832 
L 253.211047 -103.138783 
L 252.301137 -101.129734 
L 251.419496 -99.120685 
L 250.564065 -97.111636 
L 249.733485 -95.102587 
L 248.927627 -93.093538 
L 248.147851 -91.084489 
L 247.397023 -89.07544 
L 246.679295 -87.066391 
L 245.999714 -85.057342 
L 245.363727 -83.048293 
L 244.776638 -81.039244 
L 244.243091 -79.030195 
L 243.766621 -77.021146 
L 243.349313 -75.012097 
L 242.991587 -73.003048 
L 242.692121 -70.993999 
L 242.447899 -68.98495 
L 242.254381 -66.975901 
L 242.105766 -64.966852 
L 241.995334 -62.957803 
L 241.915829 -60.948753 
L 241.85987 -58.939704 
L 241.820346 -56.930655 
L 241.790776 -54.921606 
L 241.765606 -52.912557 
L 241.74042 -50.903508 
z
" style="stroke: #2f2f2f; stroke-width: 0.75"/>
    </defs>
    <g clip-path="url(#pd6cc18264f)">
     <use xlink:href="#mf771a78ddf" x="0" y="301.06575" style="fill: #e7b0ac; stroke: #2f2f2f; stroke-width: 0.75"/>
    </g>
   </g>
   <g id="FillBetweenPolyCollection_5">
    <defs>
     <path id="maff4fefe17" d="M 299.942332 -65.436728 
L 298.660168 -65.436728 
L 298.643552 -67.596292 
L 298.631507 -69.755855 
L 298.620842 -71.915418 
L 298.607447 -74.074982 
L 298.58651 -76.234545 
L 298.552782 -78.394108 
L 298.500851 -80.553671 
L 298.42539 -82.713235 
L 298.321371 -84.872798 
L 298.184219 -87.032361 
L 298.009921 -89.191925 
L 297.795098 -91.351488 
L 297.537074 -93.511051 
L 297.233949 -95.670615 
L 296.884702 -97.830178 
L 296.489317 -99.989741 
L 296.048923 -102.149305 
L 295.565914 -104.308868 
L 295.044018 -106.468431 
L 294.488257 -108.627995 
L 293.904783 -110.787558 
L 293.30056 -112.947121 
L 292.68289 -115.106685 
L 292.058829 -117.266248 
L 291.434526 -119.425811 
L 290.814572 -121.585374 
L 290.201435 -123.744938 
L 289.595053 -125.904501 
L 288.992658 -128.064064 
L 288.388877 -130.223628 
L 287.776113 -132.383191 
L 287.145207 -134.542754 
L 286.486313 -136.702318 
L 285.789943 -138.861881 
L 285.048063 -141.021444 
L 284.25516 -143.181008 
L 283.409173 -145.340571 
L 282.512189 -147.500134 
L 281.570832 -149.659698 
L 280.596298 -151.819261 
L 279.604003 -153.978824 
L 278.612875 -156.138388 
L 277.644332 -158.297951 
L 276.721043 -160.457514 
L 275.865565 -162.617077 
L 275.098994 -164.776641 
L 274.439731 -166.936204 
L 273.90248 -169.095767 
L 273.497533 -171.255331 
L 273.230395 -173.414894 
L 273.10175 -175.574457 
L 273.107743 -177.734021 
L 273.240531 -179.893584 
L 273.489041 -182.053147 
L 273.839873 -184.212711 
L 274.27828 -186.372274 
L 274.789154 -188.531837 
L 275.357965 -190.691401 
L 275.971593 -192.850964 
L 276.618996 -195.010527 
L 277.291673 -197.170091 
L 277.983865 -199.329654 
L 278.692504 -201.489217 
L 279.416871 -203.64878 
L 280.158028 -205.808344 
L 280.918056 -207.967907 
L 281.699201 -210.12747 
L 282.503015 -212.287034 
L 283.329611 -214.446597 
L 284.177104 -216.60616 
L 285.041323 -218.765724 
L 285.915809 -220.925287 
L 286.792096 -223.08485 
L 287.660228 -225.244414 
L 288.509435 -227.403977 
L 289.328896 -229.56354 
L 290.108496 -231.723104 
L 290.839506 -233.882667 
L 291.515144 -236.04223 
L 292.130959 -238.201794 
L 292.68505 -240.361357 
L 293.178084 -242.52092 
L 293.613148 -244.680483 
L 293.995436 -246.840047 
L 294.331799 -248.99961 
L 294.630194 -251.159173 
L 294.899071 -253.318737 
L 295.146753 -255.4783 
L 295.380869 -257.637863 
L 295.607878 -259.797427 
L 295.832738 -261.95699 
L 296.058742 -264.116553 
L 296.287523 -266.276117 
L 296.519209 -268.43568 
L 296.752695 -270.595243 
L 296.985982 -272.754807 
L 297.216531 -274.91437 
L 297.441594 -277.073933 
L 297.658484 -279.233497 
L 300.944016 -279.233497 
L 300.944016 -279.233497 
L 301.160906 -277.073933 
L 301.385969 -274.91437 
L 301.616518 -272.754807 
L 301.849805 -270.595243 
L 302.083291 -268.43568 
L 302.314977 -266.276117 
L 302.543758 -264.116553 
L 302.769762 -261.95699 
L 302.994622 -259.797427 
L 303.221631 -257.637863 
L 303.455747 -255.4783 
L 303.703429 -253.318737 
L 303.972306 -251.159173 
L 304.270701 -248.99961 
L 304.607064 -246.840047 
L 304.989352 -244.680483 
L 305.424416 -242.52092 
L 305.91745 -240.361357 
L 306.471541 -238.201794 
L 307.087356 -236.04223 
L 307.762994 -233.882667 
L 308.494004 -231.723104 
L 309.273604 -229.56354 
L 310.093065 -227.403977 
L 310.942272 -225.244414 
L 311.810404 -223.08485 
L 312.686691 -220.925287 
L 313.561177 -218.765724 
L 314.425396 -216.60616 
L 315.272889 -214.446597 
L 316.099485 -212.287034 
L 316.903299 -210.12747 
L 317.684444 -207.967907 
L 318.444472 -205.808344 
L 319.185629 -203.64878 
L 319.909996 -201.489217 
L 320.618635 -199.329654 
L 321.310827 -197.170091 
L 321.983504 -195.010527 
L 322.630907 -192.850964 
L 323.244535 -190.691401 
L 323.813346 -188.531837 
L 324.32422 -186.372274 
L 324.762627 -184.212711 
L 325.113459 -182.053147 
L 325.361969 -179.893584 
L 325.494757 -177.734021 
L 325.50075 -175.574457 
L 325.372105 -173.414894 
L 325.104967 -171.255331 
L 324.70002 -169.095767 
L 324.162769 -166.936204 
L 323.503506 -164.776641 
L 322.736935 -162.617077 
L 321.881457 -160.457514 
L 320.958168 -158.297951 
L 319.989625 -156.138388 
L 318.998497 -153.978824 
L 318.006202 -151.819261 
L 317.031668 -149.659698 
L 316.090311 -147.500134 
L 315.193327 -145.340571 
L 314.34734 -143.181008 
L 313.554437 -141.021444 
L 312.812557 -138.861881 
L 312.116187 -136.702318 
L 311.457293 -134.542754 
L 310.826387 -132.383191 
L 310.213623 -130.223628 
L 309.609842 -128.064064 
L 309.007447 -125.904501 
L 308.401065 -123.744938 
L 307.787928 -121.585374 
L 307.167974 -119.425811 
L 306.543671 -117.266248 
L 305.91961 -115.106685 
L 305.30194 -112.947121 
L 304.697717 -110.787558 
L 304.114243 -108.627995 
L 303.558482 -106.468431 
L 303.036586 -104.308868 
L 302.553577 -102.149305 
L 302.113183 -99.989741 
L 301.717798 -97.830178 
L 301.368551 -95.670615 
L 301.065426 -93.511051 
L 300.807402 -91.351488 
L 300.592579 -89.191925 
L 300.418281 -87.032361 
L 300.281129 -84.872798 
L 300.17711 -82.713235 
L 300.101649 -80.553671 
L 300.049718 -78.394108 
L 300.01599 -76.234545 
L 299.995053 -74.074982 
L 299.981658 -71.915418 
L 299.970993 -69.755855 
L 299.958948 -67.596292 
L 299.942332 -65.436728 
z
" style="stroke: #2f2f2f; stroke-width: 0.75"/>
    </defs>
    <g clip-path="url(#pd6cc18264f)">
     <use xlink:href="#maff4fefe17" x="0" y="301.06575" style="fill: #c283a6; stroke: #2f2f2f; stroke-width: 0.75"/>
    </g>
   </g>
   <g id="FillBetweenPolyCollection_6">
    <defs>
     <path id="m1ab4f16f21" d="M 358.128319 -54.265415 
L 356.916403 -54.265415 
L 356.906881 -56.375898 
L 356.902566 -58.486382 
L 356.900191 -60.596865 
L 356.895452 -62.707349 
L 356.883215 -64.817832 
L 356.857784 -66.928315 
L 356.813231 -69.038799 
L 356.743743 -71.149282 
L 356.643962 -73.259766 
L 356.509285 -75.370249 
L 356.336098 -77.480733 
L 356.121922 -79.591216 
L 355.865454 -81.701699 
L 355.566506 -83.812183 
L 355.225848 -85.922666 
L 354.84499 -88.03315 
L 354.425925 -90.143633 
L 353.9709 -92.254117 
L 353.482238 -94.3646 
L 352.962266 -96.475083 
L 352.413331 -98.585567 
L 351.837918 -100.69605 
L 351.238801 -102.806534 
L 350.61916 -104.917017 
L 349.982599 -107.027501 
L 349.332976 -109.137984 
L 348.67403 -111.248467 
L 348.008817 -113.358951 
L 347.339023 -115.469434 
L 346.664292 -117.579918 
L 345.981726 -119.690401 
L 345.285729 -121.800885 
L 344.56831 -123.911368 
L 343.819919 -126.021851 
L 343.030766 -128.132335 
L 342.192498 -130.242818 
L 341.299997 -132.353302 
L 340.353039 -134.463785 
L 339.35752 -136.574269 
L 338.326033 -138.684752 
L 337.277644 -140.795235 
L 336.23686 -142.905719 
L 335.231889 -145.016202 
L 334.292422 -147.126686 
L 333.447202 -149.237169 
L 332.721721 -151.347652 
L 332.136291 -153.458136 
L 331.704724 -155.568619 
L 331.433704 -157.679103 
L 331.322861 -159.789586 
L 331.365457 -161.90007 
L 331.549509 -164.010553 
L 331.859172 -166.121036 
L 332.27619 -168.23152 
L 332.781276 -170.342003 
L 333.355302 -172.452487 
L 333.980271 -174.56297 
L 334.640055 -176.673454 
L 335.32092 -178.783937 
L 336.011865 -180.89442 
L 336.70479 -183.004904 
L 337.394521 -185.115387 
L 338.078656 -187.225871 
L 338.757264 -189.336354 
L 339.432414 -191.446838 
L 340.10757 -193.557321 
L 340.786899 -195.667804 
L 341.474541 -197.778288 
L 342.173932 -199.888771 
L 342.887229 -201.999255 
L 343.614898 -204.109738 
L 344.355496 -206.220222 
L 345.10564 -208.330705 
L 345.86015 -210.441188 
L 346.61233 -212.551672 
L 347.354351 -214.662155 
L 348.077707 -216.772639 
L 348.773704 -218.883122 
L 349.433979 -220.993606 
L 350.051017 -223.104089 
L 350.618644 -225.214572 
L 351.132473 -227.325056 
L 351.59025 -229.435539 
L 351.992073 -231.546023 
L 352.340447 -233.656506 
L 352.640139 -235.76699 
L 352.897849 -237.877473 
L 353.121708 -239.987956 
L 353.320656 -242.09844 
L 353.503766 -244.208923 
L 353.679576 -246.319407 
L 353.85551 -248.42989 
L 354.037428 -250.540373 
L 354.229353 -252.650857 
L 354.433371 -254.76134 
L 354.649705 -256.871824 
L 354.876927 -258.982307 
L 355.112269 -261.092791 
L 355.352003 -263.203274 
L 359.692719 -263.203274 
L 359.692719 -263.203274 
L 359.932454 -261.092791 
L 360.167796 -258.982307 
L 360.395017 -256.871824 
L 360.611352 -254.76134 
L 360.81537 -252.650857 
L 361.007294 -250.540373 
L 361.189212 -248.42989 
L 361.365146 -246.319407 
L 361.540956 -244.208923 
L 361.724066 -242.09844 
L 361.923015 -239.987956 
L 362.146873 -237.877473 
L 362.404583 -235.76699 
L 362.704275 -233.656506 
L 363.052649 -231.546023 
L 363.454473 -229.435539 
L 363.912249 -227.325056 
L 364.426078 -225.214572 
L 364.993706 -223.104089 
L 365.610743 -220.993606 
L 366.271018 -218.883122 
L 366.967015 -216.772639 
L 367.690371 -214.662155 
L 368.432393 -212.551672 
L 369.184573 -210.441188 
L 369.939083 -208.330705 
L 370.689227 -206.220222 
L 371.429825 -204.109738 
L 372.157493 -201.999255 
L 372.87079 -199.888771 
L 373.570181 -197.778288 
L 374.257824 -195.667804 
L 374.937152 -193.557321 
L 375.612308 -191.446838 
L 376.287458 -189.336354 
L 376.966066 -187.225871 
L 377.650201 -185.115387 
L 378.339932 -183.004904 
L 379.032858 -180.89442 
L 379.723802 -178.783937 
L 380.404667 -176.673454 
L 381.064451 -174.56297 
L 381.68942 -172.452487 
L 382.263446 -170.342003 
L 382.768532 -168.23152 
L 383.185551 -166.121036 
L 383.495213 -164.010553 
L 383.679265 -161.90007 
L 383.721861 -159.789586 
L 383.611018 -157.679103 
L 383.339998 -155.568619 
L 382.908431 -153.458136 
L 382.323002 -151.347652 
L 381.59752 -149.237169 
L 380.752301 -147.126686 
L 379.812833 -145.016202 
L 378.807863 -142.905719 
L 377.767078 -140.795235 
L 376.718689 -138.684752 
L 375.687202 -136.574269 
L 374.691683 -134.463785 
L 373.744725 -132.353302 
L 372.852224 -130.242818 
L 372.013956 -128.132335 
L 371.224804 -126.021851 
L 370.476412 -123.911368 
L 369.758993 -121.800885 
L 369.062996 -119.690401 
L 368.380431 -117.579918 
L 367.705699 -115.469434 
L 367.035905 -113.358951 
L 366.370692 -111.248467 
L 365.711746 -109.137984 
L 365.062123 -107.027501 
L 364.425562 -104.917017 
L 363.805922 -102.806534 
L 363.206804 -100.69605 
L 362.631392 -98.585567 
L 362.082457 -96.475083 
L 361.562484 -94.3646 
L 361.073823 -92.254117 
L 360.618797 -90.143633 
L 360.199732 -88.03315 
L 359.818874 -85.922666 
L 359.478217 -83.812183 
L 359.179268 -81.701699 
L 358.9228 -79.591216 
L 358.708624 -77.480733 
L 358.535437 -75.370249 
L 358.40076 -73.259766 
L 358.300979 -71.149282 
L 358.231491 -69.038799 
L 358.186939 -66.928315 
L 358.161508 -64.817832 
L 358.14927 -62.707349 
L 358.144532 -60.596865 
L 358.142156 -58.486382 
L 358.137841 -56.375898 
L 358.128319 -54.265415 
z
" style="stroke: #2f2f2f; stroke-width: 0.75"/>
    </defs>
    <g clip-path="url(#pd6cc18264f)">
     <use xlink:href="#m1ab4f16f21" x="0" y="301.06575" style="fill: #e3c7d7; stroke: #2f2f2f; stroke-width: 0.75"/>
    </g>
   </g>
   <g id="FillBetweenPolyCollection_7">
    <defs>
     <path id="mc7f8dd58eb" d="M 416.383484 -75.806563 
L 415.10346 -75.806563 
L 415.094337 -77.789108 
L 415.091146 -79.771653 
L 415.090006 -81.754198 
L 415.085713 -83.736743 
L 415.071923 -85.719288 
L 415.041423 -87.701833 
L 414.986469 -89.684378 
L 414.899161 -91.666923 
L 414.771841 -93.649468 
L 414.597499 -95.632013 
L 414.370148 -97.614559 
L 414.085173 -99.597104 
L 413.739614 -101.579649 
L 413.332365 -103.562194 
L 412.864245 -105.544739 
L 412.337931 -107.527284 
L 411.757713 -109.509829 
L 411.129077 -111.492374 
L 410.458129 -113.474919 
L 409.750897 -115.457464 
L 409.012602 -117.440009 
L 408.246978 -119.422554 
L 407.455757 -121.405099 
L 406.638432 -123.387644 
L 405.79237 -125.370189 
L 404.913324 -127.352734 
L 403.996328 -129.335279 
L 403.036884 -131.317824 
L 402.032315 -133.30037 
L 400.983096 -135.282915 
L 399.893941 -137.26546 
L 398.774486 -139.248005 
L 397.639378 -141.23055 
L 396.507727 -143.213095 
L 395.401923 -145.19564 
L 394.345932 -147.178185 
L 393.363275 -149.16073 
L 392.474949 -151.143275 
L 391.697578 -153.12582 
L 391.042054 -155.108365 
L 390.512866 -157.09091 
L 390.108214 -159.073455 
L 389.820895 -161.056 
L 389.639808 -163.038545 
L 389.551862 -165.02109 
L 389.543972 -167.003635 
L 389.604849 -168.98618 
L 389.726313 -170.968726 
L 389.903953 -172.951271 
L 390.13706 -174.933816 
L 390.427887 -176.916361 
L 390.780408 -178.898906 
L 391.1988 -180.881451 
L 391.685925 -182.863996 
L 392.242079 -184.846541 
L 392.864188 -186.829086 
L 393.545577 -188.811631 
L 394.276319 -190.794176 
L 395.044083 -192.776721 
L 395.83532 -194.759266 
L 396.636582 -196.741811 
L 397.435775 -198.724356 
L 398.223166 -200.706901 
L 398.992009 -202.689446 
L 399.738747 -204.671991 
L 400.462798 -206.654537 
L 401.165992 -208.637082 
L 401.851785 -210.619627 
L 402.524365 -212.602172 
L 403.187779 -214.584717 
L 403.84519 -216.567262 
L 404.498328 -218.549807 
L 405.147173 -220.532352 
L 405.789889 -222.514897 
L 406.422988 -224.497442 
L 407.041683 -226.479987 
L 407.640405 -228.462532 
L 408.213393 -230.445077 
L 408.755329 -232.427622 
L 409.261915 -234.410167 
L 409.73035 -236.392712 
L 410.159624 -238.375257 
L 410.550615 -240.357802 
L 410.905951 -242.340347 
L 411.229676 -244.322893 
L 411.526752 -246.305438 
L 411.802491 -248.287983 
L 412.061982 -250.270528 
L 412.309608 -252.253073 
L 412.548711 -254.235618 
L 412.781445 -256.218163 
L 413.008806 -258.200708 
L 413.230818 -260.183253 
L 413.446815 -262.165798 
L 413.655757 -264.148343 
L 413.856516 -266.130888 
L 414.04809 -268.113433 
L 414.229728 -270.095978 
L 414.400954 -272.078523 
L 417.085991 -272.078523 
L 417.085991 -272.078523 
L 417.257216 -270.095978 
L 417.438854 -268.113433 
L 417.630429 -266.130888 
L 417.831187 -264.148343 
L 418.040129 -262.165798 
L 418.256126 -260.183253 
L 418.478139 -258.200708 
L 418.7055 -256.218163 
L 418.938234 -254.235618 
L 419.177337 -252.253073 
L 419.424962 -250.270528 
L 419.684453 -248.287983 
L 419.960192 -246.305438 
L 420.257269 -244.322893 
L 420.580994 -242.340347 
L 420.93633 -240.357802 
L 421.327321 -238.375257 
L 421.756595 -236.392712 
L 422.225029 -234.410167 
L 422.731615 -232.427622 
L 423.273551 -230.445077 
L 423.846539 -228.462532 
L 424.445261 -226.479987 
L 425.063957 -224.497442 
L 425.697055 -222.514897 
L 426.339771 -220.532352 
L 426.988616 -218.549807 
L 427.641754 -216.567262 
L 428.299166 -214.584717 
L 428.96258 -212.602172 
L 429.635159 -210.619627 
L 430.320952 -208.637082 
L 431.024146 -206.654537 
L 431.748197 -204.671991 
L 432.494936 -202.689446 
L 433.263779 -200.706901 
L 434.05117 -198.724356 
L 434.850363 -196.741811 
L 435.651624 -194.759266 
L 436.442861 -192.776721 
L 437.210626 -190.794176 
L 437.941368 -188.811631 
L 438.622756 -186.829086 
L 439.244865 -184.846541 
L 439.801019 -182.863996 
L 440.288145 -180.881451 
L 440.706536 -178.898906 
L 441.059057 -176.916361 
L 441.349885 -174.933816 
L 441.582991 -172.951271 
L 441.760632 -170.968726 
L 441.882096 -168.98618 
L 441.942972 -167.003635 
L 441.935082 -165.02109 
L 441.847136 -163.038545 
L 441.666049 -161.056 
L 441.37873 -159.073455 
L 440.974079 -157.09091 
L 440.444891 -155.108365 
L 439.789367 -153.12582 
L 439.011996 -151.143275 
L 438.12367 -149.16073 
L 437.141012 -147.178185 
L 436.085022 -145.19564 
L 434.979218 -143.213095 
L 433.847567 -141.23055 
L 432.712458 -139.248005 
L 431.593003 -137.26546 
L 430.503849 -135.282915 
L 429.454629 -133.30037 
L 428.450061 -131.317824 
L 427.490616 -129.335279 
L 426.57362 -127.352734 
L 425.694575 -125.370189 
L 424.848512 -123.387644 
L 424.031187 -121.405099 
L 423.239966 -119.422554 
L 422.474342 -117.440009 
L 421.736048 -115.457464 
L 421.028816 -113.474919 
L 420.357867 -111.492374 
L 419.729231 -109.509829 
L 419.149013 -107.527284 
L 418.622699 -105.544739 
L 418.154579 -103.562194 
L 417.74733 -101.579649 
L 417.401772 -99.597104 
L 417.116797 -97.614559 
L 416.889445 -95.632013 
L 416.715103 -93.649468 
L 416.587784 -91.666923 
L 416.500475 -89.684378 
L 416.445521 -87.701833 
L 416.415022 -85.719288 
L 416.401231 -83.736743 
L 416.396938 -81.754198 
L 416.395798 -79.771653 
L 416.392607 -77.789108 
L 416.383484 -75.806563 
z
" style="stroke: #2f2f2f; stroke-width: 0.75"/>
    </defs>
    <g clip-path="url(#pd6cc18264f)">
     <use xlink:href="#mc7f8dd58eb" x="0" y="301.06575" style="fill: #148a6a; stroke: #2f2f2f; stroke-width: 0.75"/>
    </g>
   </g>
   <g id="FillBetweenPolyCollection_8">
    <defs>
     <path id="m501c5a97c6" d="M 474.60291 -64.490087 
L 473.326257 -64.490087 
L 473.313197 -66.498589 
L 473.30459 -68.50709 
L 473.296516 -70.515592 
L 473.283823 -72.524093 
L 473.26031 -74.532595 
L 473.218996 -76.541096 
L 473.15245 -78.549598 
L 473.053139 -80.5581 
L 472.913788 -82.566601 
L 472.72773 -84.575103 
L 472.489226 -86.583604 
L 472.193738 -88.592106 
L 471.838155 -90.600608 
L 471.420947 -92.609109 
L 470.942229 -94.617611 
L 470.403731 -96.626112 
L 469.808636 -98.634614 
L 469.1613 -100.643115 
L 468.466845 -102.651617 
L 467.730657 -104.660119 
L 466.957828 -106.66862 
L 466.15262 -108.677122 
L 465.318024 -110.685623 
L 464.455508 -112.694125 
L 463.565026 -114.702627 
L 462.645325 -116.711128 
L 461.694571 -118.71963 
L 460.711213 -120.728131 
L 459.695011 -122.736633 
L 458.648054 -124.745135 
L 457.575622 -126.753636 
L 456.486715 -128.762138 
L 455.394139 -130.770639 
L 454.314075 -132.779141 
L 453.265167 -134.787642 
L 452.267211 -136.796144 
L 451.339635 -138.804646 
L 450.49997 -140.813147 
L 449.762544 -142.821649 
L 449.137572 -144.83015 
L 448.630781 -146.838652 
L 448.243583 -148.847154 
L 447.973741 -150.855655 
L 447.816371 -152.864157 
L 447.765083 -154.872658 
L 447.81305 -156.88116 
L 447.9538 -158.889661 
L 448.181632 -160.898163 
L 448.491601 -162.906665 
L 448.879137 -164.915166 
L 449.339413 -166.923668 
L 449.866655 -168.932169 
L 450.453547 -170.940671 
L 451.090923 -172.949173 
L 451.767805 -174.957674 
L 452.471849 -176.966176 
L 453.190126 -178.974677 
L 453.910129 -180.983179 
L 454.620863 -182.991681 
L 455.313823 -185.000182 
L 455.983726 -187.008684 
L 456.628871 -189.017185 
L 457.251055 -191.025687 
L 457.855085 -193.034188 
L 458.447924 -195.04269 
L 459.037615 -197.051192 
L 459.632118 -199.059693 
L 460.238229 -201.068195 
L 460.860697 -203.076696 
L 461.50163 -205.085198 
L 462.160251 -207.0937 
L 462.832968 -209.102201 
L 463.513738 -211.110703 
L 464.194637 -213.119204 
L 464.866567 -215.127706 
L 465.520021 -217.136207 
L 466.145838 -219.144709 
L 466.735898 -221.153211 
L 467.283721 -223.161712 
L 467.784912 -225.170214 
L 468.237447 -227.178715 
L 468.641752 -229.187217 
L 469.000575 -231.195719 
L 469.318652 -233.20422 
L 469.6022 -235.212722 
L 469.858282 -237.221223 
L 470.094124 -239.229725 
L 470.316462 -241.238227 
L 470.531003 -243.246728 
L 470.742051 -245.25523 
L 470.952346 -247.263731 
L 471.163097 -249.272233 
L 471.3742 -251.280734 
L 471.584558 -253.289236 
L 471.792461 -255.297738 
L 471.995947 -257.306239 
L 472.193096 -259.314741 
L 472.382228 -261.323242 
L 472.562 -263.331744 
L 475.367166 -263.331744 
L 475.367166 -263.331744 
L 475.546939 -261.323242 
L 475.736071 -259.314741 
L 475.93322 -257.306239 
L 476.136706 -255.297738 
L 476.344609 -253.289236 
L 476.554967 -251.280734 
L 476.766069 -249.272233 
L 476.976821 -247.263731 
L 477.187115 -245.25523 
L 477.398164 -243.246728 
L 477.612704 -241.238227 
L 477.835043 -239.229725 
L 478.070885 -237.221223 
L 478.326967 -235.212722 
L 478.610515 -233.20422 
L 478.928592 -231.195719 
L 479.287414 -229.187217 
L 479.691719 -227.178715 
L 480.144255 -225.170214 
L 480.645446 -223.161712 
L 481.193269 -221.153211 
L 481.783329 -219.144709 
L 482.409146 -217.136207 
L 483.0626 -215.127706 
L 483.73453 -213.119204 
L 484.415429 -211.110703 
L 485.096199 -209.102201 
L 485.768916 -207.0937 
L 486.427537 -205.085198 
L 487.06847 -203.076696 
L 487.690937 -201.068195 
L 488.297049 -199.059693 
L 488.891552 -197.051192 
L 489.481242 -195.04269 
L 490.074082 -193.034188 
L 490.678112 -191.025687 
L 491.300296 -189.017185 
L 491.94544 -187.008684 
L 492.615344 -185.000182 
L 493.308304 -182.991681 
L 494.019037 -180.983179 
L 494.739041 -178.974677 
L 495.457317 -176.966176 
L 496.161362 -174.957674 
L 496.838244 -172.949173 
L 497.475619 -170.940671 
L 498.062512 -168.932169 
L 498.589753 -166.923668 
L 499.05003 -164.915166 
L 499.437565 -162.906665 
L 499.747535 -160.898163 
L 499.975366 -158.889661 
L 500.116116 -156.88116 
L 500.164083 -154.872658 
L 500.112796 -152.864157 
L 499.955426 -150.855655 
L 499.685584 -148.847154 
L 499.298386 -146.838652 
L 498.791595 -144.83015 
L 498.166623 -142.821649 
L 497.429197 -140.813147 
L 496.589532 -138.804646 
L 495.661956 -136.796144 
L 494.664 -134.787642 
L 493.615091 -132.779141 
L 492.535028 -130.770639 
L 491.442452 -128.762138 
L 490.353545 -126.753636 
L 489.281113 -124.745135 
L 488.234156 -122.736633 
L 487.217954 -120.728131 
L 486.234596 -118.71963 
L 485.283841 -116.711128 
L 484.364141 -114.702627 
L 483.473659 -112.694125 
L 482.611143 -110.685623 
L 481.776547 -108.677122 
L 480.971339 -106.66862 
L 480.19851 -104.660119 
L 479.462322 -102.651617 
L 478.767867 -100.643115 
L 478.120531 -98.634614 
L 477.525435 -96.626112 
L 476.986937 -94.617611 
L 476.50822 -92.609109 
L 476.091011 -90.600608 
L 475.735428 -88.592106 
L 475.43994 -86.583604 
L 475.201436 -84.575103 
L 475.015379 -82.566601 
L 474.876028 -80.5581 
L 474.776717 -78.549598 
L 474.710171 -76.541096 
L 474.668857 -74.532595 
L 474.645343 -72.524093 
L 474.63265 -70.515592 
L 474.624577 -68.50709 
L 474.615969 -66.498589 
L 474.60291 -64.490087 
z
" style="stroke: #2f2f2f; stroke-width: 0.75"/>
    </defs>
    <g clip-path="url(#pd6cc18264f)">
     <use xlink:href="#m501c5a97c6" x="0" y="301.06575" style="fill: #95cabc; stroke: #2f2f2f; stroke-width: 0.75"/>
    </g>
   </g>
   <g id="FillBetweenPolyCollection_9">
    <defs>
     <path id="m8a50226bb0" d="M 532.84468 -114.446195 
L 531.526709 -114.446195 
L 531.499869 -116.210263 
L 531.471598 -117.97433 
L 531.43582 -119.738397 
L 531.384886 -121.502464 
L 531.309904 -123.266531 
L 531.201221 -125.030598 
L 531.049006 -126.794665 
L 530.843904 -128.558732 
L 530.577672 -130.3228 
L 530.243752 -132.086867 
L 529.8377 -133.850934 
L 529.357414 -135.615001 
L 528.803133 -137.379068 
L 528.177198 -139.143135 
L 527.48361 -140.907202 
L 526.727449 -142.671269 
L 525.914262 -144.435337 
L 525.049514 -146.199404 
L 524.138222 -147.963471 
L 523.184824 -149.727538 
L 522.193312 -151.491605 
L 521.167609 -153.255672 
L 520.112085 -155.019739 
L 519.03212 -156.783806 
L 517.934571 -158.547874 
L 516.828052 -160.311941 
L 515.72294 -162.076008 
L 514.631099 -163.840075 
L 513.565357 -165.604142 
L 512.538799 -167.368209 
L 511.563985 -169.132276 
L 510.652192 -170.896343 
L 509.812786 -172.660411 
L 509.052791 -174.424478 
L 508.376718 -176.188545 
L 507.786669 -177.952612 
L 507.282713 -179.716679 
L 506.863491 -181.480746 
L 506.526982 -183.244813 
L 506.271303 -185.00888 
L 506.09544 -186.772948 
L 505.999756 -188.537015 
L 505.986194 -190.301082 
L 506.05809 -192.065149 
L 506.21962 -193.829216 
L 506.47496 -195.593283 
L 506.8273 -197.35735 
L 507.277874 -199.121417 
L 507.825206 -200.885485 
L 508.464666 -202.649552 
L 509.188436 -204.413619 
L 509.985839 -206.177686 
L 510.843975 -207.941753 
L 511.748517 -209.70582 
L 512.684557 -211.469887 
L 513.637368 -213.233954 
L 514.593023 -214.998022 
L 515.53884 -216.762089 
L 516.463665 -218.526156 
L 517.35804 -220.290223 
L 518.214282 -222.05429 
L 519.026512 -223.818357 
L 519.790645 -225.582424 
L 520.504346 -227.346492 
L 521.166932 -229.110559 
L 521.779229 -230.874626 
L 522.343376 -232.638693 
L 522.862596 -234.40276 
L 523.34095 -236.166827 
L 523.78309 -237.930894 
L 524.19403 -239.694961 
L 524.578941 -241.459029 
L 524.942958 -243.223096 
L 525.29101 -244.987163 
L 525.627652 -246.75123 
L 525.956906 -248.515297 
L 526.282124 -250.279364 
L 526.605877 -252.043431 
L 526.929879 -253.807498 
L 527.254963 -255.571566 
L 527.581092 -257.335633 
L 527.90742 -259.0997 
L 528.232364 -260.863767 
L 528.553707 -262.627834 
L 528.868709 -264.391901 
L 529.174237 -266.155968 
L 529.466933 -267.920035 
L 529.743412 -269.684103 
L 530.000502 -271.44817 
L 530.235513 -273.212237 
L 530.446505 -274.976304 
L 530.632523 -276.740371 
L 530.793749 -278.504438 
L 530.931545 -280.268505 
L 531.048353 -282.032572 
L 531.147475 -283.79664 
L 531.232731 -285.560707 
L 531.308069 -287.324774 
L 531.377165 -289.088841 
L 532.994223 -289.088841 
L 532.994223 -289.088841 
L 533.06332 -287.324774 
L 533.138658 -285.560707 
L 533.223914 -283.79664 
L 533.323035 -282.032572 
L 533.439844 -280.268505 
L 533.57764 -278.504438 
L 533.738866 -276.740371 
L 533.924884 -274.976304 
L 534.135876 -273.212237 
L 534.370887 -271.44817 
L 534.627977 -269.684103 
L 534.904456 -267.920035 
L 535.197152 -266.155968 
L 535.50268 -264.391901 
L 535.817682 -262.627834 
L 536.139025 -260.863767 
L 536.463969 -259.0997 
L 536.790297 -257.335633 
L 537.116426 -255.571566 
L 537.441509 -253.807498 
L 537.765512 -252.043431 
L 538.089265 -250.279364 
L 538.414483 -248.515297 
L 538.743737 -246.75123 
L 539.080379 -244.987163 
L 539.428431 -243.223096 
L 539.792448 -241.459029 
L 540.177359 -239.694961 
L 540.588299 -237.930894 
L 541.030439 -236.166827 
L 541.508793 -234.40276 
L 542.028013 -232.638693 
L 542.59216 -230.874626 
L 543.204457 -229.110559 
L 543.867043 -227.346492 
L 544.580744 -225.582424 
L 545.344877 -223.818357 
L 546.157107 -222.05429 
L 547.013349 -220.290223 
L 547.907724 -218.526156 
L 548.832549 -216.762089 
L 549.778366 -214.998022 
L 550.734021 -213.233954 
L 551.686832 -211.469887 
L 552.622872 -209.70582 
L 553.527414 -207.941753 
L 554.38555 -206.177686 
L 555.182953 -204.413619 
L 555.906723 -202.649552 
L 556.546183 -200.885485 
L 557.093515 -199.121417 
L 557.544089 -197.35735 
L 557.896429 -195.593283 
L 558.151769 -193.829216 
L 558.313299 -192.065149 
L 558.385194 -190.301082 
L 558.371633 -188.537015 
L 558.275949 -186.772948 
L 558.100085 -185.00888 
L 557.844407 -183.244813 
L 557.507898 -181.480746 
L 557.088676 -179.716679 
L 556.58472 -177.952612 
L 555.99467 -176.188545 
L 555.318598 -174.424478 
L 554.558603 -172.660411 
L 553.719197 -170.896343 
L 552.807404 -169.132276 
L 551.83259 -167.368209 
L 550.806032 -165.604142 
L 549.74029 -163.840075 
L 548.648449 -162.076008 
L 547.543337 -160.311941 
L 546.436818 -158.547874 
L 545.339269 -156.783806 
L 544.259304 -155.019739 
L 543.20378 -153.255672 
L 542.178076 -151.491605 
L 541.186565 -149.727538 
L 540.233167 -147.963471 
L 539.321875 -146.199404 
L 538.457127 -144.435337 
L 537.64394 -142.671269 
L 536.887779 -140.907202 
L 536.194191 -139.143135 
L 535.568256 -137.379068 
L 535.013975 -135.615001 
L 534.533689 -133.850934 
L 534.127637 -132.086867 
L 533.793717 -130.3228 
L 533.527485 -128.558732 
L 533.322383 -126.794665 
L 533.170168 -125.030598 
L 533.061484 -123.266531 
L 532.986503 -121.502464 
L 532.935569 -119.738397 
L 532.899791 -117.97433 
L 532.87152 -116.210263 
L 532.84468 -114.446195 
z
" style="stroke: #2f2f2f; stroke-width: 0.75"/>
    </defs>
    <g clip-path="url(#pd6cc18264f)">
     <use xlink:href="#m8a50226bb0" x="0" y="301.06575" style="fill: #c9941d; stroke: #2f2f2f; stroke-width: 0.75"/>
    </g>
   </g>
   <g id="matplotlib.axis_1">
    <g id="xtick_1">
     <g id="text_1">
      <!-- MVT -->
      <g transform="translate(55.628524 276.590438) scale(0.1 -0.1)">
       <defs>
        <path id="DejaVuSans-4d" d="M 628 4666 
L 1569 4666 
L 2759 1491 
L 3956 4666 
L 4897 4666 
L 4897 0 
L 4281 0 
L 4281 4097 
L 3078 897 
L 2444 897 
L 1241 4097 
L 1241 0 
L 628 0 
L 628 4666 
z
" transform="scale(0.015625)"/>
        <path id="DejaVuSans-56" d="M 1831 0 
L 50 4666 
L 709 4666 
L 2188 738 
L 3669 4666 
L 4325 4666 
L 2547 0 
L 1831 0 
z
" transform="scale(0.015625)"/>
        <path id="DejaVuSans-54" d="M -19 4666 
L 3928 4666 
L 3928 4134 
L 2272 4134 
L 2272 0 
L 1638 0 
L 1638 4134 
L -19 4134 
L -19 4666 
z
" transform="scale(0.015625)"/>
       </defs>
       <use xlink:href="#DejaVuSans-4d"/>
       <use xlink:href="#DejaVuSans-56" transform="translate(86.279297 0)"/>
       <use xlink:href="#DejaVuSans-54" transform="translate(154.6875 0)"/>
      </g>
     </g>
    </g>
    <g id="xtick_2">
     <g id="text_2">
      <!-- MVT -->
      <g transform="translate(113.849635 276.590438) scale(0.1 -0.1)">
       <use xlink:href="#DejaVuSans-4d"/>
       <use xlink:href="#DejaVuSans-56" transform="translate(86.279297 0)"/>
       <use xlink:href="#DejaVuSans-54" transform="translate(154.6875 0)"/>
      </g>
      <!-- (SIMD) -->
      <g transform="translate(107.923073 287.78825) scale(0.1 -0.1)">
       <defs>
        <path id="DejaVuSans-28" d="M 1984 4856 
Q 1566 4138 1362 3434 
Q 1159 2731 1159 2009 
Q 1159 1288 1364 580 
Q 1569 -128 1984 -844 
L 1484 -844 
Q 1016 -109 783 600 
Q 550 1309 550 2009 
Q 550 2706 781 3412 
Q 1013 4119 1484 4856 
L 1984 4856 
z
" transform="scale(0.015625)"/>
        <path id="DejaVuSans-53" d="M 3425 4513 
L 3425 3897 
Q 3066 4069 2747 4153 
Q 2428 4238 2131 4238 
Q 1616 4238 1336 4038 
Q 1056 3838 1056 3469 
Q 1056 3159 1242 3001 
Q 1428 2844 1947 2747 
L 2328 2669 
Q 3034 2534 3370 2195 
Q 3706 1856 3706 1288 
Q 3706 609 3251 259 
Q 2797 -91 1919 -91 
Q 1588 -91 1214 -16 
Q 841 59 441 206 
L 441 856 
Q 825 641 1194 531 
Q 1563 422 1919 422 
Q 2459 422 2753 634 
Q 3047 847 3047 1241 
Q 3047 1584 2836 1778 
Q 2625 1972 2144 2069 
L 1759 2144 
Q 1053 2284 737 2584 
Q 422 2884 422 3419 
Q 422 4038 858 4394 
Q 1294 4750 2059 4750 
Q 2388 4750 2728 4690 
Q 3069 4631 3425 4513 
z
" transform="scale(0.015625)"/>
        <path id="DejaVuSans-49" d="M 628 4666 
L 1259 4666 
L 1259 0 
L 628 0 
L 628 4666 
z
" transform="scale(0.015625)"/>
        <path id="DejaVuSans-44" d="M 1259 4147 
L 1259 519 
L 2022 519 
Q 2988 519 3436 956 
Q 3884 1394 3884 2338 
Q 3884 3275 3436 3711 
Q 2988 4147 2022 4147 
L 1259 4147 
z
M 628 4666 
L 1925 4666 
Q 3281 4666 3915 4102 
Q 4550 3538 4550 2338 
Q 4550 1131 3912 565 
Q 3275 0 1925 0 
L 628 0 
L 628 4666 
z
" transform="scale(0.015625)"/>
        <path id="DejaVuSans-29" d="M 513 4856 
L 1013 4856 
Q 1481 4119 1714 3412 
Q 1947 2706 1947 2009 
Q 1947 1309 1714 600 
Q 1481 -109 1013 -844 
L 513 -844 
Q 928 -128 1133 580 
Q 1338 1288 1338 2009 
Q 1338 2731 1133 3434 
Q 928 4138 513 4856 
z
" transform="scale(0.015625)"/>
       </defs>
       <use xlink:href="#DejaVuSans-28"/>
       <use xlink:href="#DejaVuSans-53" transform="translate(39.013672 0)"/>
       <use xlink:href="#DejaVuSans-49" transform="translate(102.490234 0)"/>
       <use xlink:href="#DejaVuSans-4d" transform="translate(131.982422 0)"/>
       <use xlink:href="#DejaVuSans-44" transform="translate(218.261719 0)"/>
       <use xlink:href="#DejaVuSans-29" transform="translate(295.263672 0)"/>
      </g>
     </g>
    </g>
    <g id="xtick_3">
     <g id="text_3">
      <!-- Mutable -->
      <g transform="translate(162.712153 276.590438) scale(0.1 -0.1)">
       <defs>
        <path id="DejaVuSans-75" d="M 544 1381 
L 544 3500 
L 1119 3500 
L 1119 1403 
Q 1119 906 1312 657 
Q 1506 409 1894 409 
Q 2359 409 2629 706 
Q 2900 1003 2900 1516 
L 2900 3500 
L 3475 3500 
L 3475 0 
L 2900 0 
L 2900 538 
Q 2691 219 2414 64 
Q 2138 -91 1772 -91 
Q 1169 -91 856 284 
Q 544 659 544 1381 
z
M 1991 3584 
L 1991 3584 
z
" transform="scale(0.015625)"/>
        <path id="DejaVuSans-74" d="M 1172 4494 
L 1172 3500 
L 2356 3500 
L 2356 3053 
L 1172 3053 
L 1172 1153 
Q 1172 725 1289 603 
Q 1406 481 1766 481 
L 2356 481 
L 2356 0 
L 1766 0 
Q 1100 0 847 248 
Q 594 497 594 1153 
L 594 3053 
L 172 3053 
L 172 3500 
L 594 3500 
L 594 4494 
L 1172 4494 
z
" transform="scale(0.015625)"/>
        <path id="DejaVuSans-61" d="M 2194 1759 
Q 1497 1759 1228 1600 
Q 959 1441 959 1056 
Q 959 750 1161 570 
Q 1363 391 1709 391 
Q 2188 391 2477 730 
Q 2766 1069 2766 1631 
L 2766 1759 
L 2194 1759 
z
M 3341 1997 
L 3341 0 
L 2766 0 
L 2766 531 
Q 2569 213 2275 61 
Q 1981 -91 1556 -91 
Q 1019 -91 701 211 
Q 384 513 384 1019 
Q 384 1609 779 1909 
Q 1175 2209 1959 2209 
L 2766 2209 
L 2766 2266 
Q 2766 2663 2505 2880 
Q 2244 3097 1772 3097 
Q 1472 3097 1187 3025 
Q 903 2953 641 2809 
L 641 3341 
Q 956 3463 1253 3523 
Q 1550 3584 1831 3584 
Q 2591 3584 2966 3190 
Q 3341 2797 3341 1997 
z
" transform="scale(0.015625)"/>
        <path id="DejaVuSans-62" d="M 3116 1747 
Q 3116 2381 2855 2742 
Q 2594 3103 2138 3103 
Q 1681 3103 1420 2742 
Q 1159 2381 1159 1747 
Q 1159 1113 1420 752 
Q 1681 391 2138 391 
Q 2594 391 2855 752 
Q 3116 1113 3116 1747 
z
M 1159 2969 
Q 1341 3281 1617 3432 
Q 1894 3584 2278 3584 
Q 2916 3584 3314 3078 
Q 3713 2572 3713 1747 
Q 3713 922 3314 415 
Q 2916 -91 2278 -91 
Q 1894 -91 1617 61 
Q 1341 213 1159 525 
L 1159 0 
L 581 0 
L 581 4863 
L 1159 4863 
L 1159 2969 
z
" transform="scale(0.015625)"/>
        <path id="DejaVuSans-6c" d="M 603 4863 
L 1178 4863 
L 1178 0 
L 603 0 
L 603 4863 
z
" transform="scale(0.015625)"/>
        <path id="DejaVuSans-65" d="M 3597 1894 
L 3597 1613 
L 953 1613 
Q 991 1019 1311 708 
Q 1631 397 2203 397 
Q 2534 397 2845 478 
Q 3156 559 3463 722 
L 3463 178 
Q 3153 47 2828 -22 
Q 2503 -91 2169 -91 
Q 1331 -91 842 396 
Q 353 884 353 1716 
Q 353 2575 817 3079 
Q 1281 3584 2069 3584 
Q 2775 3584 3186 3129 
Q 3597 2675 3597 1894 
z
M 3022 2063 
Q 3016 2534 2758 2815 
Q 2500 3097 2075 3097 
Q 1594 3097 1305 2825 
Q 1016 2553 972 2059 
L 3022 2063 
z
" transform="scale(0.015625)"/>
       </defs>
       <use xlink:href="#DejaVuSans-4d"/>
       <use xlink:href="#DejaVuSans-75" transform="translate(86.279297 0)"/>
       <use xlink:href="#DejaVuSans-74" transform="translate(149.658203 0)"/>
       <use xlink:href="#DejaVuSans-61" transform="translate(188.867188 0)"/>
       <use xlink:href="#DejaVuSans-62" transform="translate(250.146484 0)"/>
       <use xlink:href="#DejaVuSans-6c" transform="translate(313.623047 0)"/>
       <use xlink:href="#DejaVuSans-65" transform="translate(341.40625 0)"/>
      </g>
      <!-- MVT -->
      <g transform="translate(172.070747 287.78825) scale(0.1 -0.1)">
       <use xlink:href="#DejaVuSans-4d"/>
       <use xlink:href="#DejaVuSans-56" transform="translate(86.279297 0)"/>
       <use xlink:href="#DejaVuSans-54" transform="translate(154.6875 0)"/>
      </g>
     </g>
    </g>
    <g id="xtick_4">
     <g id="text_4">
      <!-- Mutable -->
      <g transform="translate(220.933264 276.590438) scale(0.1 -0.1)">
       <use xlink:href="#DejaVuSans-4d"/>
       <use xlink:href="#DejaVuSans-75" transform="translate(86.279297 0)"/>
       <use xlink:href="#DejaVuSans-74" transform="translate(149.658203 0)"/>
       <use xlink:href="#DejaVuSans-61" transform="translate(188.867188 0)"/>
       <use xlink:href="#DejaVuSans-62" transform="translate(250.146484 0)"/>
       <use xlink:href="#DejaVuSans-6c" transform="translate(313.623047 0)"/>
       <use xlink:href="#DejaVuSans-65" transform="translate(341.40625 0)"/>
      </g>
      <!-- MVT -->
      <g transform="translate(230.291858 287.78825) scale(0.1 -0.1)">
       <use xlink:href="#DejaVuSans-4d"/>
       <use xlink:href="#DejaVuSans-56" transform="translate(86.279297 0)"/>
       <use xlink:href="#DejaVuSans-54" transform="translate(154.6875 0)"/>
      </g>
      <!-- (SIMD) -->
      <g transform="translate(224.365295 298.986063) scale(0.1 -0.1)">
       <use xlink:href="#DejaVuSans-28"/>
       <use xlink:href="#DejaVuSans-53" transform="translate(39.013672 0)"/>
       <use xlink:href="#DejaVuSans-49" transform="translate(102.490234 0)"/>
       <use xlink:href="#DejaVuSans-4d" transform="translate(131.982422 0)"/>
       <use xlink:href="#DejaVuSans-44" transform="translate(218.261719 0)"/>
       <use xlink:href="#DejaVuSans-29" transform="translate(295.263672 0)"/>
      </g>
     </g>
    </g>
    <g id="xtick_5">
     <g id="text_5">
      <!-- MVT -->
      <g transform="translate(288.512969 276.590438) scale(0.1 -0.1)">
       <use xlink:href="#DejaVuSans-4d"/>
       <use xlink:href="#DejaVuSans-56" transform="translate(86.279297 0)"/>
       <use xlink:href="#DejaVuSans-54" transform="translate(154.6875 0)"/>
      </g>
      <!-- (C++) -->
      <g transform="translate(283.528594 287.78825) scale(0.1 -0.1)">
       <defs>
        <path id="DejaVuSans-43" d="M 4122 4306 
L 4122 3641 
Q 3803 3938 3442 4084 
Q 3081 4231 2675 4231 
Q 1875 4231 1450 3742 
Q 1025 3253 1025 2328 
Q 1025 1406 1450 917 
Q 1875 428 2675 428 
Q 3081 428 3442 575 
Q 3803 722 4122 1019 
L 4122 359 
Q 3791 134 3420 21 
Q 3050 -91 2638 -91 
Q 1578 -91 968 557 
Q 359 1206 359 2328 
Q 359 3453 968 4101 
Q 1578 4750 2638 4750 
Q 3056 4750 3426 4639 
Q 3797 4528 4122 4306 
z
" transform="scale(0.015625)"/>
        <path id="DejaVuSans-2b" d="M 2944 4013 
L 2944 2272 
L 4684 2272 
L 4684 1741 
L 2944 1741 
L 2944 0 
L 2419 0 
L 2419 1741 
L 678 1741 
L 678 2272 
L 2419 2272 
L 2419 4013 
L 2944 4013 
z
" transform="scale(0.015625)"/>
       </defs>
       <use xlink:href="#DejaVuSans-28"/>
       <use xlink:href="#DejaVuSans-43" transform="translate(39.013672 0)"/>
       <use xlink:href="#DejaVuSans-2b" transform="translate(108.837891 0)"/>
       <use xlink:href="#DejaVuSans-2b" transform="translate(192.626953 0)"/>
       <use xlink:href="#DejaVuSans-29" transform="translate(276.416016 0)"/>
      </g>
     </g>
    </g>
    <g id="xtick_6">
     <g id="text_6">
      <!-- MVT -->
      <g transform="translate(346.73408 276.590438) scale(0.1 -0.1)">
       <use xlink:href="#DejaVuSans-4d"/>
       <use xlink:href="#DejaVuSans-56" transform="translate(86.279297 0)"/>
       <use xlink:href="#DejaVuSans-54" transform="translate(154.6875 0)"/>
      </g>
      <!-- (C++, SIMD) -->
      <g transform="translate(325.758299 287.78825) scale(0.1 -0.1)">
       <defs>
        <path id="DejaVuSans-2c" d="M 750 794 
L 1409 794 
L 1409 256 
L 897 -744 
L 494 -744 
L 750 256 
L 750 794 
z
" transform="scale(0.015625)"/>
        <path id="DejaVuSans-20" transform="scale(0.015625)"/>
       </defs>
       <use xlink:href="#DejaVuSans-28"/>
       <use xlink:href="#DejaVuSans-43" transform="translate(39.013672 0)"/>
       <use xlink:href="#DejaVuSans-2b" transform="translate(108.837891 0)"/>
       <use xlink:href="#DejaVuSans-2b" transform="translate(192.626953 0)"/>
       <use xlink:href="#DejaVuSans-2c" transform="translate(276.416016 0)"/>
       <use xlink:href="#DejaVuSans-20" transform="translate(308.203125 0)"/>
       <use xlink:href="#DejaVuSans-53" transform="translate(339.990234 0)"/>
       <use xlink:href="#DejaVuSans-49" transform="translate(403.466797 0)"/>
       <use xlink:href="#DejaVuSans-4d" transform="translate(432.958984 0)"/>
       <use xlink:href="#DejaVuSans-44" transform="translate(519.238281 0)"/>
       <use xlink:href="#DejaVuSans-29" transform="translate(596.240234 0)"/>
      </g>
     </g>
    </g>
    <g id="xtick_7">
     <g id="text_7">
      <!-- CAPT -->
      <g transform="translate(402.763003 276.590438) scale(0.1 -0.1)">
       <defs>
        <path id="DejaVuSans-41" d="M 2188 4044 
L 1331 1722 
L 3047 1722 
L 2188 4044 
z
M 1831 4666 
L 2547 4666 
L 4325 0 
L 3669 0 
L 3244 1197 
L 1141 1197 
L 716 0 
L 50 0 
L 1831 4666 
z
" transform="scale(0.015625)"/>
        <path id="DejaVuSans-50" d="M 1259 4147 
L 1259 2394 
L 2053 2394 
Q 2494 2394 2734 2622 
Q 2975 2850 2975 3272 
Q 2975 3691 2734 3919 
Q 2494 4147 2053 4147 
L 1259 4147 
z
M 628 4666 
L 2053 4666 
Q 2838 4666 3239 4311 
Q 3641 3956 3641 3272 
Q 3641 2581 3239 2228 
Q 2838 1875 2053 1875 
L 1259 1875 
L 1259 0 
L 628 0 
L 628 4666 
z
" transform="scale(0.015625)"/>
       </defs>
       <use xlink:href="#DejaVuSans-43"/>
       <use xlink:href="#DejaVuSans-41" transform="translate(69.824219 0)"/>
       <use xlink:href="#DejaVuSans-50" transform="translate(138.232422 0)"/>
       <use xlink:href="#DejaVuSans-54" transform="translate(198.535156 0)"/>
      </g>
     </g>
    </g>
    <g id="xtick_8">
     <g id="text_8">
      <!-- CAPT -->
      <g transform="translate(460.984115 276.590438) scale(0.1 -0.1)">
       <use xlink:href="#DejaVuSans-43"/>
       <use xlink:href="#DejaVuSans-41" transform="translate(69.824219 0)"/>
       <use xlink:href="#DejaVuSans-50" transform="translate(138.232422 0)"/>
       <use xlink:href="#DejaVuSans-54" transform="translate(198.535156 0)"/>
      </g>
      <!-- (SIMD) -->
      <g transform="translate(457.24974 287.78825) scale(0.1 -0.1)">
       <use xlink:href="#DejaVuSans-28"/>
       <use xlink:href="#DejaVuSans-53" transform="translate(39.013672 0)"/>
       <use xlink:href="#DejaVuSans-49" transform="translate(102.490234 0)"/>
       <use xlink:href="#DejaVuSans-4d" transform="translate(131.982422 0)"/>
       <use xlink:href="#DejaVuSans-44" transform="translate(218.261719 0)"/>
       <use xlink:href="#DejaVuSans-29" transform="translate(295.263672 0)"/>
      </g>
     </g>
    </g>
    <g id="xtick_9">
     <g id="text_9">
      <!-- kiddo -->
      <g transform="translate(518.493507 276.590438) scale(0.1 -0.1)">
       <defs>
        <path id="DejaVuSans-6b" d="M 581 4863 
L 1159 4863 
L 1159 1991 
L 2875 3500 
L 3609 3500 
L 1753 1863 
L 3688 0 
L 2938 0 
L 1159 1709 
L 1159 0 
L 581 0 
L 581 4863 
z
" transform="scale(0.015625)"/>
        <path id="DejaVuSans-69" d="M 603 3500 
L 1178 3500 
L 1178 0 
L 603 0 
L 603 3500 
z
M 603 4863 
L 1178 4863 
L 1178 4134 
L 603 4134 
L 603 4863 
z
" transform="scale(0.015625)"/>
        <path id="DejaVuSans-64" d="M 2906 2969 
L 2906 4863 
L 3481 4863 
L 3481 0 
L 2906 0 
L 2906 525 
Q 2725 213 2448 61 
Q 2172 -91 1784 -91 
Q 1150 -91 751 415 
Q 353 922 353 1747 
Q 353 2572 751 3078 
Q 1150 3584 1784 3584 
Q 2172 3584 2448 3432 
Q 2725 3281 2906 2969 
z
M 947 1747 
Q 947 1113 1208 752 
Q 1469 391 1925 391 
Q 2381 391 2643 752 
Q 2906 1113 2906 1747 
Q 2906 2381 2643 2742 
Q 2381 3103 1925 3103 
Q 1469 3103 1208 2742 
Q 947 2381 947 1747 
z
" transform="scale(0.015625)"/>
        <path id="DejaVuSans-6f" d="M 1959 3097 
Q 1497 3097 1228 2736 
Q 959 2375 959 1747 
Q 959 1119 1226 758 
Q 1494 397 1959 397 
Q 2419 397 2687 759 
Q 2956 1122 2956 1747 
Q 2956 2369 2687 2733 
Q 2419 3097 1959 3097 
z
M 1959 3584 
Q 2709 3584 3137 3096 
Q 3566 2609 3566 1747 
Q 3566 888 3137 398 
Q 2709 -91 1959 -91 
Q 1206 -91 779 398 
Q 353 888 353 1747 
Q 353 2609 779 3096 
Q 1206 3584 1959 3584 
z
" transform="scale(0.015625)"/>
       </defs>
       <use xlink:href="#DejaVuSans-6b"/>
       <use xlink:href="#DejaVuSans-69" transform="translate(57.910156 0)"/>
       <use xlink:href="#DejaVuSans-64" transform="translate(85.693359 0)"/>
       <use xlink:href="#DejaVuSans-64" transform="translate(149.169922 0)"/>
       <use xlink:href="#DejaVuSans-6f" transform="translate(212.646484 0)"/>
      </g>
     </g>
    </g>
   </g>
   <g id="matplotlib.axis_2">
    <g id="ytick_1">
     <g id="line2d_1">
      <defs>
       <path id="m74e6eba087" d="M 0 0 
L -3.5 0 
" style="stroke: #000000; stroke-width: 0.8"/>
      </defs>
      <g>
       <use xlink:href="#m74e6eba087" x="37.30625" y="251.515091" style="stroke: #000000; stroke-width: 0.8"/>
      </g>
     </g>
     <g id="text_10">
      <!-- 0.176 -->
      <g transform="translate(1.678125 255.31431) scale(0.1 -0.1)">
       <defs>
        <path id="DejaVuSans-30" d="M 2034 4250 
Q 1547 4250 1301 3770 
Q 1056 3291 1056 2328 
Q 1056 1369 1301 889 
Q 1547 409 2034 409 
Q 2525 409 2770 889 
Q 3016 1369 3016 2328 
Q 3016 3291 2770 3770 
Q 2525 4250 2034 4250 
z
M 2034 4750 
Q 2819 4750 3233 4129 
Q 3647 3509 3647 2328 
Q 3647 1150 3233 529 
Q 2819 -91 2034 -91 
Q 1250 -91 836 529 
Q 422 1150 422 2328 
Q 422 3509 836 4129 
Q 1250 4750 2034 4750 
z
" transform="scale(0.015625)"/>
        <path id="DejaVuSans-2e" d="M 684 794 
L 1344 794 
L 1344 0 
L 684 0 
L 684 794 
z
" transform="scale(0.015625)"/>
        <path id="DejaVuSans-31" d="M 794 531 
L 1825 531 
L 1825 4091 
L 703 3866 
L 703 4441 
L 1819 4666 
L 2450 4666 
L 2450 531 
L 3481 531 
L 3481 0 
L 794 0 
L 794 531 
z
" transform="scale(0.015625)"/>
        <path id="DejaVuSans-37" d="M 525 4666 
L 3525 4666 
L 3525 4397 
L 1831 0 
L 1172 0 
L 2766 4134 
L 525 4134 
L 525 4666 
z
" transform="scale(0.015625)"/>
        <path id="DejaVuSans-36" d="M 2113 2584 
Q 1688 2584 1439 2293 
Q 1191 2003 1191 1497 
Q 1191 994 1439 701 
Q 1688 409 2113 409 
Q 2538 409 2786 701 
Q 3034 994 3034 1497 
Q 3034 2003 2786 2293 
Q 2538 2584 2113 2584 
z
M 3366 4563 
L 3366 3988 
Q 3128 4100 2886 4159 
Q 2644 4219 2406 4219 
Q 1781 4219 1451 3797 
Q 1122 3375 1075 2522 
Q 1259 2794 1537 2939 
Q 1816 3084 2150 3084 
Q 2853 3084 3261 2657 
Q 3669 2231 3669 1497 
Q 3669 778 3244 343 
Q 2819 -91 2113 -91 
Q 1303 -91 875 529 
Q 447 1150 447 2328 
Q 447 3434 972 4092 
Q 1497 4750 2381 4750 
Q 2619 4750 2861 4703 
Q 3103 4656 3366 4563 
z
" transform="scale(0.015625)"/>
       </defs>
       <use xlink:href="#DejaVuSans-30"/>
       <use xlink:href="#DejaVuSans-2e" transform="translate(63.623047 0)"/>
       <use xlink:href="#DejaVuSans-31" transform="translate(95.410156 0)"/>
       <use xlink:href="#DejaVuSans-37" transform="translate(159.033203 0)"/>
       <use xlink:href="#DejaVuSans-36" transform="translate(222.65625 0)"/>
      </g>
     </g>
    </g>
    <g id="ytick_2">
     <g id="line2d_2">
      <g>
       <use xlink:href="#m74e6eba087" x="37.30625" y="192.240209" style="stroke: #000000; stroke-width: 0.8"/>
      </g>
     </g>
     <g id="text_11">
      <!-- $\mathdefault{10^{0}}$ -->
      <g transform="translate(12.70625 196.039428) scale(0.1 -0.1)">
       <use xlink:href="#DejaVuSans-31" transform="translate(0 0.765625)"/>
       <use xlink:href="#DejaVuSans-30" transform="translate(63.623047 0.765625)"/>
       <use xlink:href="#DejaVuSans-30" transform="translate(128.203125 39.046875) scale(0.7)"/>
      </g>
     </g>
    </g>
    <g id="ytick_3">
     <g id="line2d_3">
      <g>
       <use xlink:href="#m74e6eba087" x="37.30625" y="113.594595" style="stroke: #000000; stroke-width: 0.8"/>
      </g>
     </g>
     <g id="text_12">
      <!-- $\mathdefault{10^{1}}$ -->
      <g transform="translate(12.70625 117.393814) scale(0.1 -0.1)">
       <use xlink:href="#DejaVuSans-31" transform="translate(0 0.684375)"/>
       <use xlink:href="#DejaVuSans-30" transform="translate(63.623047 0.684375)"/>
       <use xlink:href="#DejaVuSans-31" transform="translate(128.203125 38.965625) scale(0.7)"/>
      </g>
     </g>
    </g>
    <g id="ytick_4">
     <g id="line2d_4">
      <g>
       <use xlink:href="#m74e6eba087" x="37.30625" y="34.948981" style="stroke: #000000; stroke-width: 0.8"/>
      </g>
     </g>
     <g id="text_13">
      <!-- $\mathdefault{10^{2}}$ -->
      <g transform="translate(12.70625 38.7482) scale(0.1 -0.1)">
       <defs>
        <path id="DejaVuSans-32" d="M 1228 531 
L 3431 531 
L 3431 0 
L 469 0 
L 469 531 
Q 828 903 1448 1529 
Q 2069 2156 2228 2338 
Q 2531 2678 2651 2914 
Q 2772 3150 2772 3378 
Q 2772 3750 2511 3984 
Q 2250 4219 1831 4219 
Q 1534 4219 1204 4116 
Q 875 4013 500 3803 
L 500 4441 
Q 881 4594 1212 4672 
Q 1544 4750 1819 4750 
Q 2544 4750 2975 4387 
Q 3406 4025 3406 3419 
Q 3406 3131 3298 2873 
Q 3191 2616 2906 2266 
Q 2828 2175 2409 1742 
Q 1991 1309 1228 531 
z
" transform="scale(0.015625)"/>
       </defs>
       <use xlink:href="#DejaVuSans-31" transform="translate(0 0.765625)"/>
       <use xlink:href="#DejaVuSans-30" transform="translate(63.623047 0.765625)"/>
       <use xlink:href="#DejaVuSans-32" transform="translate(128.203125 39.046875) scale(0.7)"/>
      </g>
     </g>
    </g>
    <g id="ytick_5">
     <g id="line2d_5">
      <g>
       <use xlink:href="#m74e6eba087" x="37.30625" y="11.976909" style="stroke: #000000; stroke-width: 0.8"/>
      </g>
     </g>
     <g id="text_14">
      <!-- 196 -->
      <g transform="translate(11.21875 15.776128) scale(0.1 -0.1)">
       <defs>
        <path id="DejaVuSans-39" d="M 703 97 
L 703 672 
Q 941 559 1184 500 
Q 1428 441 1663 441 
Q 2288 441 2617 861 
Q 2947 1281 2994 2138 
Q 2813 1869 2534 1725 
Q 2256 1581 1919 1581 
Q 1219 1581 811 2004 
Q 403 2428 403 3163 
Q 403 3881 828 4315 
Q 1253 4750 1959 4750 
Q 2769 4750 3195 4129 
Q 3622 3509 3622 2328 
Q 3622 1225 3098 567 
Q 2575 -91 1691 -91 
Q 1453 -91 1209 -44 
Q 966 3 703 97 
z
M 1959 2075 
Q 2384 2075 2632 2365 
Q 2881 2656 2881 3163 
Q 2881 3666 2632 3958 
Q 2384 4250 1959 4250 
Q 1534 4250 1286 3958 
Q 1038 3666 1038 3163 
Q 1038 2656 1286 2365 
Q 1534 2075 1959 2075 
z
" transform="scale(0.015625)"/>
       </defs>
       <use xlink:href="#DejaVuSans-31"/>
       <use xlink:href="#DejaVuSans-39" transform="translate(63.623047 0)"/>
       <use xlink:href="#DejaVuSans-36" transform="translate(127.246094 0)"/>
      </g>
     </g>
    </g>
    <g id="ytick_6">
     <g id="line2d_6">
      <defs>
       <path id="mdf4e63d624" d="M 0 0 
L -2 0 
" style="stroke: #000000; stroke-width: 0.6"/>
      </defs>
      <g>
       <use xlink:href="#mdf4e63d624" x="37.30625" y="247.211135" style="stroke: #000000; stroke-width: 0.6"/>
      </g>
     </g>
    </g>
    <g id="ytick_7">
     <g id="line2d_7">
      <g>
       <use xlink:href="#mdf4e63d624" x="37.30625" y="233.362329" style="stroke: #000000; stroke-width: 0.6"/>
      </g>
     </g>
    </g>
    <g id="ytick_8">
     <g id="line2d_8">
      <g>
       <use xlink:href="#mdf4e63d624" x="37.30625" y="223.536446" style="stroke: #000000; stroke-width: 0.6"/>
      </g>
     </g>
    </g>
    <g id="ytick_9">
     <g id="line2d_9">
      <g>
       <use xlink:href="#mdf4e63d624" x="37.30625" y="215.914898" style="stroke: #000000; stroke-width: 0.6"/>
      </g>
     </g>
    </g>
    <g id="ytick_10">
     <g id="line2d_10">
      <g>
       <use xlink:href="#mdf4e63d624" x="37.30625" y="209.68764" style="stroke: #000000; stroke-width: 0.6"/>
      </g>
     </g>
    </g>
    <g id="ytick_11">
     <g id="line2d_11">
      <g>
       <use xlink:href="#mdf4e63d624" x="37.30625" y="204.422569" style="stroke: #000000; stroke-width: 0.6"/>
      </g>
     </g>
    </g>
    <g id="ytick_12">
     <g id="line2d_12">
      <g>
       <use xlink:href="#mdf4e63d624" x="37.30625" y="199.861757" style="stroke: #000000; stroke-width: 0.6"/>
      </g>
     </g>
    </g>
    <g id="ytick_13">
     <g id="line2d_13">
      <g>
       <use xlink:href="#mdf4e63d624" x="37.30625" y="195.838835" style="stroke: #000000; stroke-width: 0.6"/>
      </g>
     </g>
    </g>
    <g id="ytick_14">
     <g id="line2d_14">
      <g>
       <use xlink:href="#mdf4e63d624" x="37.30625" y="168.56552" style="stroke: #000000; stroke-width: 0.6"/>
      </g>
     </g>
    </g>
    <g id="ytick_15">
     <g id="line2d_15">
      <g>
       <use xlink:href="#mdf4e63d624" x="37.30625" y="154.716715" style="stroke: #000000; stroke-width: 0.6"/>
      </g>
     </g>
    </g>
    <g id="ytick_16">
     <g id="line2d_16">
      <g>
       <use xlink:href="#mdf4e63d624" x="37.30625" y="144.890831" style="stroke: #000000; stroke-width: 0.6"/>
      </g>
     </g>
    </g>
    <g id="ytick_17">
     <g id="line2d_17">
      <g>
       <use xlink:href="#mdf4e63d624" x="37.30625" y="137.269284" style="stroke: #000000; stroke-width: 0.6"/>
      </g>
     </g>
    </g>
    <g id="ytick_18">
     <g id="line2d_18">
      <g>
       <use xlink:href="#mdf4e63d624" x="37.30625" y="131.042026" style="stroke: #000000; stroke-width: 0.6"/>
      </g>
     </g>
    </g>
    <g id="ytick_19">
     <g id="line2d_19">
      <g>
       <use xlink:href="#mdf4e63d624" x="37.30625" y="125.776955" style="stroke: #000000; stroke-width: 0.6"/>
      </g>
     </g>
    </g>
    <g id="ytick_20">
     <g id="line2d_20">
      <g>
       <use xlink:href="#mdf4e63d624" x="37.30625" y="121.216143" style="stroke: #000000; stroke-width: 0.6"/>
      </g>
     </g>
    </g>
    <g id="ytick_21">
     <g id="line2d_21">
      <g>
       <use xlink:href="#mdf4e63d624" x="37.30625" y="117.193221" style="stroke: #000000; stroke-width: 0.6"/>
      </g>
     </g>
    </g>
    <g id="ytick_22">
     <g id="line2d_22">
      <g>
       <use xlink:href="#mdf4e63d624" x="37.30625" y="89.919906" style="stroke: #000000; stroke-width: 0.6"/>
      </g>
     </g>
    </g>
    <g id="ytick_23">
     <g id="line2d_23">
      <g>
       <use xlink:href="#mdf4e63d624" x="37.30625" y="76.071101" style="stroke: #000000; stroke-width: 0.6"/>
      </g>
     </g>
    </g>
    <g id="ytick_24">
     <g id="line2d_24">
      <g>
       <use xlink:href="#mdf4e63d624" x="37.30625" y="66.245217" style="stroke: #000000; stroke-width: 0.6"/>
      </g>
     </g>
    </g>
    <g id="ytick_25">
     <g id="line2d_25">
      <g>
       <use xlink:href="#mdf4e63d624" x="37.30625" y="58.62367" style="stroke: #000000; stroke-width: 0.6"/>
      </g>
     </g>
    </g>
    <g id="ytick_26">
     <g id="line2d_26">
      <g>
       <use xlink:href="#mdf4e63d624" x="37.30625" y="52.396412" style="stroke: #000000; stroke-width: 0.6"/>
      </g>
     </g>
    </g>
    <g id="ytick_27">
     <g id="line2d_27">
      <g>
       <use xlink:href="#mdf4e63d624" x="37.30625" y="47.131341" style="stroke: #000000; stroke-width: 0.6"/>
      </g>
     </g>
    </g>
    <g id="ytick_28">
     <g id="line2d_28">
      <g>
       <use xlink:href="#mdf4e63d624" x="37.30625" y="42.570528" style="stroke: #000000; stroke-width: 0.6"/>
      </g>
     </g>
    </g>
    <g id="ytick_29">
     <g id="line2d_29">
      <g>
       <use xlink:href="#mdf4e63d624" x="37.30625" y="38.547607" style="stroke: #000000; stroke-width: 0.6"/>
      </g>
     </g>
    </g>
    <g id="text_15">
     <!-- Solve Time (Milliseconds) -->
     <g transform="translate(7.598438 195.025688) rotate(-90) scale(0.1 -0.1)">
      <defs>
       <path id="DejaVuSans-76" d="M 191 3500 
L 800 3500 
L 1894 563 
L 2988 3500 
L 3597 3500 
L 2284 0 
L 1503 0 
L 191 3500 
z
" transform="scale(0.015625)"/>
       <path id="DejaVuSans-6d" d="M 3328 2828 
Q 3544 3216 3844 3400 
Q 4144 3584 4550 3584 
Q 5097 3584 5394 3201 
Q 5691 2819 5691 2113 
L 5691 0 
L 5113 0 
L 5113 2094 
Q 5113 2597 4934 2840 
Q 4756 3084 4391 3084 
Q 3944 3084 3684 2787 
Q 3425 2491 3425 1978 
L 3425 0 
L 2847 0 
L 2847 2094 
Q 2847 2600 2669 2842 
Q 2491 3084 2119 3084 
Q 1678 3084 1418 2786 
Q 1159 2488 1159 1978 
L 1159 0 
L 581 0 
L 581 3500 
L 1159 3500 
L 1159 2956 
Q 1356 3278 1631 3431 
Q 1906 3584 2284 3584 
Q 2666 3584 2933 3390 
Q 3200 3197 3328 2828 
z
" transform="scale(0.015625)"/>
       <path id="DejaVuSans-73" d="M 2834 3397 
L 2834 2853 
Q 2591 2978 2328 3040 
Q 2066 3103 1784 3103 
Q 1356 3103 1142 2972 
Q 928 2841 928 2578 
Q 928 2378 1081 2264 
Q 1234 2150 1697 2047 
L 1894 2003 
Q 2506 1872 2764 1633 
Q 3022 1394 3022 966 
Q 3022 478 2636 193 
Q 2250 -91 1575 -91 
Q 1294 -91 989 -36 
Q 684 19 347 128 
L 347 722 
Q 666 556 975 473 
Q 1284 391 1588 391 
Q 1994 391 2212 530 
Q 2431 669 2431 922 
Q 2431 1156 2273 1281 
Q 2116 1406 1581 1522 
L 1381 1569 
Q 847 1681 609 1914 
Q 372 2147 372 2553 
Q 372 3047 722 3315 
Q 1072 3584 1716 3584 
Q 2034 3584 2315 3537 
Q 2597 3491 2834 3397 
z
" transform="scale(0.015625)"/>
       <path id="DejaVuSans-63" d="M 3122 3366 
L 3122 2828 
Q 2878 2963 2633 3030 
Q 2388 3097 2138 3097 
Q 1578 3097 1268 2742 
Q 959 2388 959 1747 
Q 959 1106 1268 751 
Q 1578 397 2138 397 
Q 2388 397 2633 464 
Q 2878 531 3122 666 
L 3122 134 
Q 2881 22 2623 -34 
Q 2366 -91 2075 -91 
Q 1284 -91 818 406 
Q 353 903 353 1747 
Q 353 2603 823 3093 
Q 1294 3584 2113 3584 
Q 2378 3584 2631 3529 
Q 2884 3475 3122 3366 
z
" transform="scale(0.015625)"/>
       <path id="DejaVuSans-6e" d="M 3513 2113 
L 3513 0 
L 2938 0 
L 2938 2094 
Q 2938 2591 2744 2837 
Q 2550 3084 2163 3084 
Q 1697 3084 1428 2787 
Q 1159 2491 1159 1978 
L 1159 0 
L 581 0 
L 581 3500 
L 1159 3500 
L 1159 2956 
Q 1366 3272 1645 3428 
Q 1925 3584 2291 3584 
Q 2894 3584 3203 3211 
Q 3513 2838 3513 2113 
z
" transform="scale(0.015625)"/>
      </defs>
      <use xlink:href="#DejaVuSans-53"/>
      <use xlink:href="#DejaVuSans-6f" transform="translate(63.476562 0)"/>
      <use xlink:href="#DejaVuSans-6c" transform="translate(124.658203 0)"/>
      <use xlink:href="#DejaVuSans-76" transform="translate(152.441406 0)"/>
      <use xlink:href="#DejaVuSans-65" transform="translate(211.621094 0)"/>
      <use xlink:href="#DejaVuSans-20" transform="translate(273.144531 0)"/>
      <use xlink:href="#DejaVuSans-54" transform="translate(304.931641 0)"/>
      <use xlink:href="#DejaVuSans-69" transform="translate(362.890625 0)"/>
      <use xlink:href="#DejaVuSans-6d" transform="translate(390.673828 0)"/>
      <use xlink:href="#DejaVuSans-65" transform="translate(488.085938 0)"/>
      <use xlink:href="#DejaVuSans-20" transform="translate(549.609375 0)"/>
      <use xlink:href="#DejaVuSans-28" transform="translate(581.396484 0)"/>
      <use xlink:href="#DejaVuSans-4d" transform="translate(620.410156 0)"/>
      <use xlink:href="#DejaVuSans-69" transform="translate(706.689453 0)"/>
      <use xlink:href="#DejaVuSans-6c" transform="translate(734.472656 0)"/>
      <use xlink:href="#DejaVuSans-6c" transform="translate(762.255859 0)"/>
      <use xlink:href="#DejaVuSans-69" transform="translate(790.039062 0)"/>
      <use xlink:href="#DejaVuSans-73" transform="translate(817.822266 0)"/>
      <use xlink:href="#DejaVuSans-65" transform="translate(869.921875 0)"/>
      <use xlink:href="#DejaVuSans-63" transform="translate(931.445312 0)"/>
      <use xlink:href="#DejaVuSans-6f" transform="translate(986.425781 0)"/>
      <use xlink:href="#DejaVuSans-6e" transform="translate(1047.607422 0)"/>
      <use xlink:href="#DejaVuSans-64" transform="translate(1110.986328 0)"/>
      <use xlink:href="#DejaVuSans-73" transform="translate(1174.462891 0)"/>
      <use xlink:href="#DejaVuSans-29" transform="translate(1226.5625 0)"/>
     </g>
    </g>
   </g>
   <g id="line2d_30">
    <path d="M 66.416806 215.42906 
L 66.416806 61.768577 
" clip-path="url(#pd6cc18264f)" style="fill: none; stroke: #2f2f2f; stroke-width: 1.125; stroke-linecap: square"/>
   </g>
   <g id="line2d_31">
    <path d="M 66.416806 173.092915 
L 66.416806 127.562162 
" clip-path="url(#pd6cc18264f)" style="fill: none; stroke: #2f2f2f; stroke-width: 3.375; stroke-linecap: square"/>
   </g>
   <g id="line2d_32">
    <path d="M 66.416806 152.307509 
" clip-path="url(#pd6cc18264f)" style="fill: none; stroke: #2f2f2f; stroke-width: 1.5; stroke-linecap: square"/>
    <defs>
     <path id="m65e51b3600" d="M 1.40625 0 
L -1.40625 -0 
" style="stroke: #ffffff; stroke-width: 0.675"/>
    </defs>
    <g clip-path="url(#pd6cc18264f)">
     <use xlink:href="#m65e51b3600" x="66.416806" y="152.307509" style="fill: #ffffff; stroke: #ffffff; stroke-width: 0.675"/>
    </g>
   </g>
   <g id="line2d_33">
    <path d="M 124.637917 217.004505 
L 124.637917 62.689414 
" clip-path="url(#pd6cc18264f)" style="fill: none; stroke: #2f2f2f; stroke-width: 1.125; stroke-linecap: square"/>
   </g>
   <g id="line2d_34">
    <path d="M 124.637917 174.796311 
L 124.637917 128.219298 
" clip-path="url(#pd6cc18264f)" style="fill: none; stroke: #2f2f2f; stroke-width: 3.375; stroke-linecap: square"/>
   </g>
   <g id="line2d_35">
    <path d="M 124.637917 152.698285 
" clip-path="url(#pd6cc18264f)" style="fill: none; stroke: #2f2f2f; stroke-width: 1.5; stroke-linecap: square"/>
    <g clip-path="url(#pd6cc18264f)">
     <use xlink:href="#m65e51b3600" x="124.637917" y="152.698285" style="fill: #ffffff; stroke: #ffffff; stroke-width: 0.675"/>
    </g>
   </g>
   <g id="line2d_36">
    <path d="M 182.859028 214.514335 
L 182.859028 61.742525 
" clip-path="url(#pd6cc18264f)" style="fill: none; stroke: #2f2f2f; stroke-width: 1.125; stroke-linecap: square"/>
   </g>
   <g id="line2d_37">
    <path d="M 182.859028 172.652106 
L 182.859028 127.253506 
" clip-path="url(#pd6cc18264f)" style="fill: none; stroke: #2f2f2f; stroke-width: 3.375; stroke-linecap: square"/>
   </g>
   <g id="line2d_38">
    <path d="M 182.859028 151.582586 
" clip-path="url(#pd6cc18264f)" style="fill: none; stroke: #2f2f2f; stroke-width: 1.5; stroke-linecap: square"/>
    <g clip-path="url(#pd6cc18264f)">
     <use xlink:href="#m65e51b3600" x="182.859028" y="151.582586" style="fill: #ffffff; stroke: #ffffff; stroke-width: 0.675"/>
    </g>
   </g>
   <g id="line2d_39">
    <path d="M 241.080139 217.499922 
L 241.080139 63.002406 
" clip-path="url(#pd6cc18264f)" style="fill: none; stroke: #2f2f2f; stroke-width: 1.125; stroke-linecap: square"/>
   </g>
   <g id="line2d_40">
    <path d="M 241.080139 175.480156 
L 241.080139 128.628658 
" clip-path="url(#pd6cc18264f)" style="fill: none; stroke: #2f2f2f; stroke-width: 3.375; stroke-linecap: square"/>
   </g>
   <g id="line2d_41">
    <path d="M 241.080139 153.043016 
" clip-path="url(#pd6cc18264f)" style="fill: none; stroke: #2f2f2f; stroke-width: 1.5; stroke-linecap: square"/>
    <g clip-path="url(#pd6cc18264f)">
     <use xlink:href="#m65e51b3600" x="241.080139" y="153.043016" style="fill: #ffffff; stroke: #ffffff; stroke-width: 0.675"/>
    </g>
   </g>
   <g id="line2d_42">
    <path d="M 299.30125 202.636163 
L 299.30125 37.191145 
" clip-path="url(#pd6cc18264f)" style="fill: none; stroke: #2f2f2f; stroke-width: 1.125; stroke-linecap: square"/>
   </g>
   <g id="line2d_43">
    <path d="M 299.30125 142.612893 
L 299.30125 99.41237 
" clip-path="url(#pd6cc18264f)" style="fill: none; stroke: #2f2f2f; stroke-width: 3.375; stroke-linecap: square"/>
   </g>
   <g id="line2d_44">
    <path d="M 299.30125 122.037716 
" clip-path="url(#pd6cc18264f)" style="fill: none; stroke: #2f2f2f; stroke-width: 1.5; stroke-linecap: square"/>
    <g clip-path="url(#pd6cc18264f)">
     <use xlink:href="#m65e51b3600" x="299.30125" y="122.037716" style="fill: #ffffff; stroke: #ffffff; stroke-width: 0.675"/>
    </g>
   </g>
   <g id="line2d_45">
    <path d="M 357.522361 208.408799 
L 357.522361 44.337958 
" clip-path="url(#pd6cc18264f)" style="fill: none; stroke: #2f2f2f; stroke-width: 1.125; stroke-linecap: square"/>
   </g>
   <g id="line2d_46">
    <path d="M 357.522361 155.938528 
L 357.522361 110.408592 
" clip-path="url(#pd6cc18264f)" style="fill: none; stroke: #2f2f2f; stroke-width: 3.375; stroke-linecap: square"/>
   </g>
   <g id="line2d_47">
    <path d="M 357.522361 136.321013 
" clip-path="url(#pd6cc18264f)" style="fill: none; stroke: #2f2f2f; stroke-width: 1.5; stroke-linecap: square"/>
    <g clip-path="url(#pd6cc18264f)">
     <use xlink:href="#m65e51b3600" x="357.522361" y="136.321013" style="fill: #ffffff; stroke: #ffffff; stroke-width: 0.675"/>
    </g>
   </g>
   <g id="line2d_48">
    <path d="M 415.743472 189.734409 
L 415.743472 44.158269 
" clip-path="url(#pd6cc18264f)" style="fill: none; stroke: #2f2f2f; stroke-width: 1.125; stroke-linecap: square"/>
   </g>
   <g id="line2d_49">
    <path d="M 415.743472 148.37569 
L 415.743472 105.225035 
" clip-path="url(#pd6cc18264f)" style="fill: none; stroke: #2f2f2f; stroke-width: 3.375; stroke-linecap: square"/>
   </g>
   <g id="line2d_50">
    <path d="M 415.743472 126.847183 
" clip-path="url(#pd6cc18264f)" style="fill: none; stroke: #2f2f2f; stroke-width: 1.5; stroke-linecap: square"/>
    <g clip-path="url(#pd6cc18264f)">
     <use xlink:href="#m65e51b3600" x="415.743472" y="126.847183" style="fill: #ffffff; stroke: #ffffff; stroke-width: 0.675"/>
    </g>
   </g>
   <g id="line2d_51">
    <path d="M 473.964583 202.257351 
L 473.964583 52.552867 
" clip-path="url(#pd6cc18264f)" style="fill: none; stroke: #2f2f2f; stroke-width: 1.125; stroke-linecap: square"/>
   </g>
   <g id="line2d_52">
    <path d="M 473.964583 160.762636 
L 473.964583 115.753549 
" clip-path="url(#pd6cc18264f)" style="fill: none; stroke: #2f2f2f; stroke-width: 3.375; stroke-linecap: square"/>
   </g>
   <g id="line2d_53">
    <path d="M 473.964583 137.093306 
" clip-path="url(#pd6cc18264f)" style="fill: none; stroke: #2f2f2f; stroke-width: 1.5; stroke-linecap: square"/>
    <g clip-path="url(#pd6cc18264f)">
     <use xlink:href="#m65e51b3600" x="473.964583" y="137.093306" style="fill: #ffffff; stroke: #ffffff; stroke-width: 0.675"/>
    </g>
   </g>
   <g id="line2d_54">
    <path d="M 532.185694 155.786827 
L 532.185694 33.583436 
" clip-path="url(#pd6cc18264f)" style="fill: none; stroke: #2f2f2f; stroke-width: 1.125; stroke-linecap: square"/>
   </g>
   <g id="line2d_55">
    <path d="M 532.185694 125.745698 
L 532.185694 88.091139 
" clip-path="url(#pd6cc18264f)" style="fill: none; stroke: #2f2f2f; stroke-width: 3.375; stroke-linecap: square"/>
   </g>
   <g id="line2d_56">
    <path d="M 532.185694 106.954035 
" clip-path="url(#pd6cc18264f)" style="fill: none; stroke: #2f2f2f; stroke-width: 1.5; stroke-linecap: square"/>
    <g clip-path="url(#pd6cc18264f)">
     <use xlink:href="#m65e51b3600" x="532.185694" y="106.954035" style="fill: #ffffff; stroke: #ffffff; stroke-width: 0.675"/>
    </g>
   </g>
   <g id="patch_3">
    <path d="M 37.30625 251.515091 
L 37.30625 11.976909 
" style="fill: none; stroke: #000000; stroke-width: 0.8; stroke-linejoin: miter; stroke-linecap: square"/>
   </g>
  </g>
 </g>
 <defs>
  <clipPath id="pd6cc18264f">
   <rect x="37.30625" y="0" width="523.99" height="263.492"/>
  </clipPath>
 </defs>
</svg>
