<?xml version="1.0" encoding="utf-8" standalone="no"?>
<!DOCTYPE svg PUBLIC "-//W3C//DTD SVG 1.1//EN"
  "http://www.w3.org/Graphics/SVG/1.1/DTD/svg11.dtd">
<svg xmlns:xlink="http://www.w3.org/1999/xlink" width="409.516071pt" height="302.019779pt" viewBox="0 0 409.516071 302.019779" xmlns="http://www.w3.org/2000/svg" version="1.1">
 <metadata>
  <rdf:RDF xmlns:dc="http://purl.org/dc/elements/1.1/" xmlns:cc="http://creativecommons.org/ns#" xmlns:rdf="http://www.w3.org/1999/02/22-rdf-syntax-ns#">
   <cc:Work>
    <dc:type rdf:resource="http://purl.org/dc/dcmitype/StillImage"/>
    <dc:date>2026-07-14T14:40:45.715248</dc:date>
    <dc:format>image/svg+xml</dc:format>
    <dc:creator>
     <cc:Agent>
      <dc:title>Matplotlib v3.10.3, https://matplotlib.org/</dc:title>
     </cc:Agent>
    </dc:creator>
   </cc:Work>
  </rdf:RDF>
 </metadata>
 <defs>
  <style type="text/css">*{stroke-linejoin: round; stroke-linecap: butt}</style>
 </defs>
 <g id="figure_1">
  <g id="patch_1">
   <path d="M 0 302.019779 
L 409.516071 302.019779 
L 409.516071 0 
L 0 0 
L 0 302.019779 
z
" style="fill: none"/>
  </g>
  <g id="axes_1">
   <g id="patch_2">
    <path d="M 44.178125 228.080464 
L 409.516071 228.080464 
L 409.516071 -0 
L 44.178125 -0 
L 44.178125 228.080464 
z
" style="fill: none"/>
   </g>
   <g id="FillBetweenPolyCollection_1">
    <defs>
     <path id="m885129ee88" d="M 70.819256 -111.231048 
L 69.728129 -111.231048 
L 69.734484 -112.874605 
L 69.753489 -114.518162 
L 69.783538 -116.161719 
L 69.822163 -117.805276 
L 69.86623 -119.448833 
L 69.912166 -121.09239 
L 69.95617 -122.735948 
L 69.994371 -124.379505 
L 70.022904 -126.023062 
L 70.037921 -127.666619 
L 70.035529 -129.310176 
L 70.01171 -130.953733 
L 69.962249 -132.59729 
L 69.882724 -134.240847 
L 69.768588 -135.884404 
L 69.615361 -137.527961 
L 69.41894 -139.171518 
L 69.175984 -140.815075 
L 68.884346 -142.458632 
L 68.543474 -144.102189 
L 68.154706 -145.745746 
L 67.721393 -147.389303 
L 67.24878 -149.03286 
L 66.743603 -150.676417 
L 66.213418 -152.319974 
L 65.665682 -153.963531 
L 65.106673 -155.607088 
L 64.540393 -157.250645 
L 63.967588 -158.894202 
L 63.385082 -160.537759 
L 62.785579 -162.181316 
L 62.158058 -163.824873 
L 61.488825 -165.46843 
L 60.763173 -167.111987 
L 59.967516 -168.755544 
L 59.091741 -170.399101 
L 58.131452 -172.042659 
L 57.089768 -173.686216 
L 55.978336 -175.329773 
L 54.817341 -176.97333 
L 53.63441 -178.616887 
L 52.4625 -180.260444 
L 51.337004 -181.904001 
L 50.292456 -183.547558 
L 49.359274 -185.191115 
L 48.560994 -186.834672 
L 47.912363 -188.478229 
L 47.418523 -190.121786 
L 47.075363 -191.765343 
L 46.870934 -193.4089 
L 46.787682 -195.052457 
L 46.80515 -196.696014 
L 46.902752 -198.339571 
L 47.062242 -199.983128 
L 47.269566 -201.626685 
L 47.515901 -203.270242 
L 47.797776 -204.913799 
L 48.116356 -206.557356 
L 48.476033 -208.200913 
L 48.882594 -209.84447 
L 49.341278 -211.488027 
L 49.855033 -213.131584 
L 50.423265 -214.775141 
L 51.04126 -216.418698 
L 51.700388 -218.062255 
L 52.389009 -219.705812 
L 53.093946 -221.34937 
L 53.802218 -222.992927 
L 54.502747 -224.636484 
L 55.187704 -226.280041 
L 55.853271 -227.923598 
L 56.499672 -229.567155 
L 57.130505 -231.210712 
L 57.751509 -232.854269 
L 58.369023 -234.497826 
L 58.988436 -236.141383 
L 59.612918 -237.78494 
L 60.242654 -239.428497 
L 60.874682 -241.072054 
L 61.503334 -242.715611 
L 62.121149 -244.359168 
L 62.720046 -246.002725 
L 63.292537 -247.646282 
L 63.832746 -249.289839 
L 64.337086 -250.933396 
L 64.804507 -252.576953 
L 65.236317 -254.22051 
L 65.635676 -255.864067 
L 66.006874 -257.507624 
L 66.354552 -259.151181 
L 66.683012 -260.794738 
L 66.995702 -262.438295 
L 67.294944 -264.081852 
L 67.581895 -265.725409 
L 67.856699 -267.368966 
L 68.118766 -269.012523 
L 68.367093 -270.656081 
L 68.600559 -272.299638 
L 68.818154 -273.943195 
L 71.729231 -273.943195 
L 71.729231 -273.943195 
L 71.946826 -272.299638 
L 72.180292 -270.656081 
L 72.428619 -269.012523 
L 72.690686 -267.368966 
L 72.96549 -265.725409 
L 73.252441 -264.081852 
L 73.551683 -262.438295 
L 73.864374 -260.794738 
L 74.192833 -259.151181 
L 74.540511 -257.507624 
L 74.911709 -255.864067 
L 75.311068 -254.22051 
L 75.742879 -252.576953 
L 76.210299 -250.933396 
L 76.714639 -249.289839 
L 77.254848 -247.646282 
L 77.827339 -246.002725 
L 78.426236 -244.359168 
L 79.044051 -242.715611 
L 79.672704 -241.072054 
L 80.304731 -239.428497 
L 80.934467 -237.78494 
L 81.55895 -236.141383 
L 82.178363 -234.497826 
L 82.795876 -232.854269 
L 83.41688 -231.210712 
L 84.047713 -229.567155 
L 84.694114 -227.923598 
L 85.359681 -226.280041 
L 86.044638 -224.636484 
L 86.745167 -222.992927 
L 87.453439 -221.34937 
L 88.158376 -219.705812 
L 88.846998 -218.062255 
L 89.506125 -216.418698 
L 90.12412 -214.775141 
L 90.692352 -213.131584 
L 91.206107 -211.488027 
L 91.664791 -209.84447 
L 92.071352 -208.200913 
L 92.431029 -206.557356 
L 92.749609 -204.913799 
L 93.031485 -203.270242 
L 93.277819 -201.626685 
L 93.485144 -199.983128 
L 93.644633 -198.339571 
L 93.742235 -196.696014 
L 93.759703 -195.052457 
L 93.676452 -193.4089 
L 93.472022 -191.765343 
L 93.128862 -190.121786 
L 92.635022 -188.478229 
L 91.986391 -186.834672 
L 91.188111 -185.191115 
L 90.254929 -183.547558 
L 89.210381 -181.904001 
L 88.084885 -180.260444 
L 86.912975 -178.616887 
L 85.730044 -176.97333 
L 84.569049 -175.329773 
L 83.457617 -173.686216 
L 82.415933 -172.042659 
L 81.455644 -170.399101 
L 80.579869 -168.755544 
L 79.784212 -167.111987 
L 79.05856 -165.46843 
L 78.389327 -163.824873 
L 77.761806 -162.181316 
L 77.162303 -160.537759 
L 76.579797 -158.894202 
L 76.006992 -157.250645 
L 75.440712 -155.607088 
L 74.881703 -153.963531 
L 74.333967 -152.319974 
L 73.803783 -150.676417 
L 73.298606 -149.03286 
L 72.825992 -147.389303 
L 72.392679 -145.745746 
L 72.003912 -144.102189 
L 71.663039 -142.458632 
L 71.371401 -140.815075 
L 71.128445 -139.171518 
L 70.932024 -137.527961 
L 70.778798 -135.884404 
L 70.664661 -134.240847 
L 70.585136 -132.59729 
L 70.535675 -130.953733 
L 70.511856 -129.310176 
L 70.509464 -127.666619 
L 70.524481 -126.023062 
L 70.553014 -124.379505 
L 70.591215 -122.735948 
L 70.63522 -121.09239 
L 70.681156 -119.448833 
L 70.725222 -117.805276 
L 70.763847 -116.161719 
L 70.793896 -114.518162 
L 70.812901 -112.874605 
L 70.819256 -111.231048 
z
" style="stroke: #2f2f2f; stroke-width: 0.75"/>
    </defs>
    <g clip-path="url(#p4e30b94af7)">
     <use xlink:href="#m885129ee88" x="0" y="302.019779" style="fill: #166c9c; stroke: #2f2f2f; stroke-width: 0.75"/>
    </g>
   </g>
   <g id="FillBetweenPolyCollection_2">
    <defs>
     <path id="mb583669baf" d="M 123.006648 -89.731537 
L 121.923008 -89.731537 
L 121.927702 -91.370302 
L 121.943146 -93.009066 
L 121.967785 -94.647831 
L 121.999262 -96.286595 
L 122.034552 -97.92536 
L 122.070125 -99.564125 
L 122.102111 -101.202889 
L 122.126452 -102.841654 
L 122.139034 -104.480419 
L 122.135781 -106.119183 
L 122.11273 -107.757948 
L 122.066105 -109.396712 
L 121.992385 -111.035477 
L 121.888413 -112.674242 
L 121.751513 -114.313006 
L 121.579649 -115.951771 
L 121.371576 -117.590535 
L 121.126995 -119.2293 
L 120.846645 -120.868065 
L 120.532349 -122.506829 
L 120.186947 -124.145594 
L 119.81413 -125.784359 
L 119.418166 -127.423123 
L 119.003512 -129.061888 
L 118.574351 -130.700652 
L 118.13407 -132.339417 
L 117.684735 -133.978182 
L 117.226596 -135.616946 
L 116.757705 -137.255711 
L 116.273684 -138.894476 
L 115.767734 -140.53324 
L 115.230914 -142.172005 
L 114.652732 -143.810769 
L 114.022053 -145.449534 
L 113.328259 -147.088299 
L 112.562592 -148.727063 
L 111.719534 -150.365828 
L 110.79805 -152.004592 
L 109.802546 -153.643357 
L 108.743363 -155.282122 
L 107.636713 -156.920886 
L 106.504019 -158.559651 
L 105.370689 -160.198416 
L 104.264448 -161.83718 
L 103.2134 -163.475945 
L 102.244034 -165.114709 
L 101.379391 -166.753474 
L 100.637574 -168.392239 
L 100.030742 -170.031003 
L 99.564668 -171.669768 
L 99.238853 -173.308532 
L 99.047155 -174.947297 
L 98.978817 -176.586062 
L 99.019775 -178.224826 
L 99.154086 -179.863591 
L 99.365346 -181.502356 
L 99.637948 -183.14112 
L 99.958099 -184.779885 
L 100.314509 -186.418649 
L 100.698726 -188.057414 
L 101.105122 -189.696179 
L 101.530571 -191.334943 
L 101.973899 -192.973708 
L 102.435199 -194.612472 
L 102.915121 -196.251237 
L 103.414235 -197.890002 
L 103.932539 -199.528766 
L 104.469189 -201.167531 
L 105.022439 -202.806296 
L 105.589796 -204.44506 
L 106.168328 -206.083825 
L 106.755042 -207.722589 
L 107.347275 -209.361354 
L 107.942983 -211.000119 
L 108.540887 -212.638883 
L 109.140443 -214.277648 
L 109.741624 -215.916412 
L 110.344564 -217.555177 
L 110.94913 -219.193942 
L 111.554506 -220.832706 
L 112.158885 -222.471471 
L 112.759322 -224.110236 
L 113.351815 -225.749 
L 113.931584 -227.387765 
L 114.493535 -229.026529 
L 115.032819 -230.665294 
L 115.545396 -232.304059 
L 116.028521 -233.942823 
L 116.481056 -235.581588 
L 116.903573 -237.220353 
L 117.298233 -238.859117 
L 117.668457 -240.497882 
L 118.018456 -242.136646 
L 118.352685 -243.775411 
L 118.675289 -245.414176 
L 118.989636 -247.05294 
L 119.297971 -248.691705 
L 119.601229 -250.330469 
L 119.899025 -251.969234 
L 125.030631 -251.969234 
L 125.030631 -251.969234 
L 125.328426 -250.330469 
L 125.631685 -248.691705 
L 125.940019 -247.05294 
L 126.254367 -245.414176 
L 126.576971 -243.775411 
L 126.911199 -242.136646 
L 127.261199 -240.497882 
L 127.631423 -238.859117 
L 128.026082 -237.220353 
L 128.448599 -235.581588 
L 128.901134 -233.942823 
L 129.384259 -232.304059 
L 129.896837 -230.665294 
L 130.43612 -229.026529 
L 130.998071 -227.387765 
L 131.57784 -225.749 
L 132.170333 -224.110236 
L 132.770771 -222.471471 
L 133.375149 -220.832706 
L 133.980526 -219.193942 
L 134.585091 -217.555177 
L 135.188031 -215.916412 
L 135.789213 -214.277648 
L 136.388769 -212.638883 
L 136.986673 -211.000119 
L 137.58238 -209.361354 
L 138.174613 -207.722589 
L 138.761328 -206.083825 
L 139.339859 -204.44506 
L 139.907217 -202.806296 
L 140.460467 -201.167531 
L 140.997116 -199.528766 
L 141.515421 -197.890002 
L 142.014534 -196.251237 
L 142.494457 -194.612472 
L 142.955757 -192.973708 
L 143.399084 -191.334943 
L 143.824533 -189.696179 
L 144.23093 -188.057414 
L 144.615147 -186.418649 
L 144.971557 -184.779885 
L 145.291707 -183.14112 
L 145.564309 -181.502356 
L 145.775569 -179.863591 
L 145.909881 -178.224826 
L 145.950839 -176.586062 
L 145.8825 -174.947297 
L 145.690802 -173.308532 
L 145.364988 -171.669768 
L 144.898914 -170.031003 
L 144.292082 -168.392239 
L 143.550264 -166.753474 
L 142.685621 -165.114709 
L 141.716255 -163.475945 
L 140.665207 -161.83718 
L 139.558966 -160.198416 
L 138.425637 -158.559651 
L 137.292943 -156.920886 
L 136.186293 -155.282122 
L 135.127109 -153.643357 
L 134.131605 -152.004592 
L 133.210122 -150.365828 
L 132.367063 -148.727063 
L 131.601397 -147.088299 
L 130.907603 -145.449534 
L 130.276923 -143.810769 
L 129.698742 -142.172005 
L 129.161921 -140.53324 
L 128.655972 -138.894476 
L 128.171951 -137.255711 
L 127.703059 -135.616946 
L 127.24492 -133.978182 
L 126.795585 -132.339417 
L 126.355304 -130.700652 
L 125.926143 -129.061888 
L 125.511489 -127.423123 
L 125.115525 -125.784359 
L 124.742709 -124.145594 
L 124.397306 -122.506829 
L 124.08301 -120.868065 
L 123.802661 -119.2293 
L 123.558079 -117.590535 
L 123.350007 -115.951771 
L 123.178142 -114.313006 
L 123.041243 -112.674242 
L 122.93727 -111.035477 
L 122.863551 -109.396712 
L 122.816925 -107.757948 
L 122.793875 -106.119183 
L 122.790622 -104.480419 
L 122.803204 -102.841654 
L 122.827545 -101.202889 
L 122.85953 -99.564125 
L 122.895103 -97.92536 
L 122.930394 -96.286595 
L 122.961871 -94.647831 
L 122.986509 -93.009066 
L 123.001954 -91.370302 
L 123.006648 -89.731537 
z
" style="stroke: #2f2f2f; stroke-width: 0.75"/>
    </defs>
    <g clip-path="url(#p4e30b94af7)">
     <use xlink:href="#mb583669baf" x="0" y="302.019779" style="fill: #96bdd2; stroke: #2f2f2f; stroke-width: 0.75"/>
    </g>
   </g>
   <g id="FillBetweenPolyCollection_3">
    <defs>
     <path id="mdaa29af6de" d="M 175.213077 -98.562776 
L 174.098848 -98.562776 
L 174.105217 -100.216438 
L 174.12434 -101.870099 
L 174.154596 -103.52376 
L 174.193498 -105.177421 
L 174.237884 -106.831082 
L 174.284143 -108.484743 
L 174.328431 -110.138404 
L 174.366825 -111.792065 
L 174.395411 -113.445726 
L 174.410298 -115.099387 
L 174.407565 -116.753048 
L 174.383177 -118.40671 
L 174.332908 -120.060371 
L 174.252316 -121.714032 
L 174.136794 -123.367693 
L 173.981721 -125.021354 
L 173.782725 -126.675015 
L 173.536025 -128.328676 
L 173.238823 -129.982337 
L 172.889698 -131.635998 
L 172.488929 -133.289659 
L 172.03868 -134.94332 
L 171.543001 -136.596981 
L 171.007578 -138.250643 
L 170.439229 -139.904304 
L 169.845142 -141.557965 
L 169.231934 -143.211626 
L 168.604601 -144.865287 
L 167.965538 -146.518948 
L 167.313767 -148.172609 
L 166.644582 -149.82627 
L 165.949742 -151.479931 
L 165.218316 -153.133592 
L 164.438161 -154.787253 
L 163.597922 -156.440915 
L 162.689304 -158.094576 
L 161.70928 -159.748237 
L 160.661884 -161.401898 
L 159.559225 -163.055559 
L 158.421489 -164.70922 
L 157.275828 -166.362881 
L 156.154233 -168.016542 
L 155.090642 -169.670203 
L 154.117671 -171.323864 
L 153.263434 -172.977525 
L 152.548885 -174.631187 
L 151.986029 -176.284848 
L 151.577222 -177.938509 
L 151.31561 -179.59217 
L 151.18657 -181.245831 
L 151.169952 -182.899492 
L 151.242747 -184.553153 
L 151.381861 -186.206814 
L 151.566625 -187.860475 
L 151.780764 -189.514136 
L 152.013628 -191.167797 
L 152.260583 -192.821459 
L 152.522577 -194.47512 
L 152.805014 -196.128781 
L 153.116117 -197.782442 
L 153.465069 -199.436103 
L 153.8602 -201.089764 
L 154.30748 -202.743425 
L 154.809533 -204.397086 
L 155.365255 -206.050747 
L 155.970072 -207.704408 
L 156.616703 -209.358069 
L 157.296268 -211.01173 
L 157.999503 -212.665392 
L 158.717863 -214.319053 
L 159.444302 -215.972714 
L 160.17365 -217.626375 
L 160.902531 -219.280036 
L 161.628909 -220.933697 
L 162.351392 -222.587358 
L 163.068467 -224.241019 
L 163.777863 -225.89468 
L 164.476161 -227.548341 
L 165.158758 -229.202002 
L 165.82017 -230.855664 
L 166.454616 -232.509325 
L 167.056754 -234.162986 
L 167.622412 -235.816647 
L 168.149168 -237.470308 
L 168.636665 -239.123969 
L 169.086611 -240.77763 
L 169.502462 -242.431291 
L 169.888868 -244.084952 
L 170.250986 -245.738613 
L 170.59379 -247.392274 
L 170.921483 -249.045936 
L 171.237108 -250.699597 
L 171.542386 -252.353258 
L 171.837776 -254.006919 
L 172.122712 -255.66058 
L 172.395931 -257.314241 
L 172.655841 -258.967902 
L 172.900829 -260.621563 
L 173.129503 -262.275224 
L 176.182423 -262.275224 
L 176.182423 -262.275224 
L 176.411097 -260.621563 
L 176.656085 -258.967902 
L 176.915994 -257.314241 
L 177.189214 -255.66058 
L 177.47415 -254.006919 
L 177.76954 -252.353258 
L 178.074818 -250.699597 
L 178.390442 -249.045936 
L 178.718135 -247.392274 
L 179.060939 -245.738613 
L 179.423058 -244.084952 
L 179.809464 -242.431291 
L 180.225314 -240.77763 
L 180.67526 -239.123969 
L 181.162758 -237.470308 
L 181.689514 -235.816647 
L 182.255172 -234.162986 
L 182.85731 -232.509325 
L 183.491756 -230.855664 
L 184.153168 -229.202002 
L 184.835764 -227.548341 
L 185.534063 -225.89468 
L 186.243459 -224.241019 
L 186.960534 -222.587358 
L 187.683017 -220.933697 
L 188.409395 -219.280036 
L 189.138276 -217.626375 
L 189.867624 -215.972714 
L 190.594063 -214.319053 
L 191.312422 -212.665392 
L 192.015658 -211.01173 
L 192.695223 -209.358069 
L 193.341854 -207.704408 
L 193.946671 -206.050747 
L 194.502393 -204.397086 
L 195.004445 -202.743425 
L 195.451726 -201.089764 
L 195.846857 -199.436103 
L 196.195809 -197.782442 
L 196.506912 -196.128781 
L 196.789348 -194.47512 
L 197.051343 -192.821459 
L 197.298298 -191.167797 
L 197.531162 -189.514136 
L 197.745301 -187.860475 
L 197.930065 -186.206814 
L 198.069179 -184.553153 
L 198.141974 -182.899492 
L 198.125355 -181.245831 
L 197.996316 -179.59217 
L 197.734703 -177.938509 
L 197.325897 -176.284848 
L 196.763041 -174.631187 
L 196.048491 -172.977525 
L 195.194255 -171.323864 
L 194.221283 -169.670203 
L 193.157692 -168.016542 
L 192.036098 -166.362881 
L 190.890437 -164.70922 
L 189.7527 -163.055559 
L 188.650042 -161.401898 
L 187.602646 -159.748237 
L 186.622622 -158.094576 
L 185.714004 -156.440915 
L 184.873765 -154.787253 
L 184.09361 -153.133592 
L 183.362184 -151.479931 
L 182.667344 -149.82627 
L 181.998159 -148.172609 
L 181.346388 -146.518948 
L 180.707324 -144.865287 
L 180.079992 -143.211626 
L 179.466784 -141.557965 
L 178.872697 -139.904304 
L 178.304348 -138.250643 
L 177.768925 -136.596981 
L 177.273246 -134.94332 
L 176.822997 -133.289659 
L 176.422227 -131.635998 
L 176.073103 -129.982337 
L 175.775901 -128.328676 
L 175.529201 -126.675015 
L 175.330205 -125.021354 
L 175.175132 -123.367693 
L 175.059609 -121.714032 
L 174.979018 -120.060371 
L 174.928749 -118.40671 
L 174.904361 -116.753048 
L 174.901628 -115.099387 
L 174.916515 -113.445726 
L 174.945101 -111.792065 
L 174.983494 -110.138404 
L 175.027782 -108.484743 
L 175.074042 -106.831082 
L 175.118428 -105.177421 
L 175.15733 -103.52376 
L 175.187586 -101.870099 
L 175.206708 -100.216438 
L 175.213077 -98.562776 
z
" style="stroke: #2f2f2f; stroke-width: 0.75"/>
    </defs>
    <g clip-path="url(#p4e30b94af7)">
     <use xlink:href="#mdaa29af6de" x="0" y="302.019779" style="fill: #ba611b; stroke: #2f2f2f; stroke-width: 0.75"/>
    </g>
   </g>
   <g id="FillBetweenPolyCollection_4">
    <defs>
     <path id="mf9e3ea78a5" d="M 227.408503 -84.306608 
L 226.285693 -84.306608 
L 226.288195 -85.947725 
L 226.300302 -87.588843 
L 226.320048 -89.22996 
L 226.344556 -90.871077 
L 226.37016 -92.512194 
L 226.392553 -94.153311 
L 226.406974 -95.794428 
L 226.408398 -97.435545 
L 226.391737 -99.076662 
L 226.352033 -100.717779 
L 226.284661 -102.358896 
L 226.18553 -104.000013 
L 226.051285 -105.64113 
L 225.879504 -107.282247 
L 225.66888 -108.923364 
L 225.419341 -110.564481 
L 225.13212 -112.205598 
L 224.809702 -113.846715 
L 224.455679 -115.487832 
L 224.074463 -117.128949 
L 223.670898 -118.770067 
L 223.249788 -120.411184 
L 222.815376 -122.052301 
L 222.37084 -123.693418 
L 221.917848 -125.334535 
L 221.456225 -126.975652 
L 220.983776 -128.616769 
L 220.496303 -130.257886 
L 219.987807 -131.899003 
L 219.450912 -133.54012 
L 218.877458 -135.181237 
L 218.259256 -136.822354 
L 217.588942 -138.463471 
L 216.860866 -140.104588 
L 216.071928 -141.745705 
L 215.222288 -143.386822 
L 214.315841 -145.027939 
L 213.360409 -146.669056 
L 212.367602 -148.310173 
L 211.35234 -149.951291 
L 210.332079 -151.592408 
L 209.325821 -153.233525 
L 208.353009 -154.874642 
L 207.432423 -156.515759 
L 206.581188 -158.156876 
L 205.813971 -159.797993 
L 205.142428 -161.43911 
L 204.574896 -163.080227 
L 204.116322 -164.721344 
L 203.768369 -166.362461 
L 203.529653 -168.003578 
L 203.396058 -169.644695 
L 203.361087 -171.285812 
L 203.416233 -172.926929 
L 203.551376 -174.568046 
L 203.755214 -176.209163 
L 204.015736 -177.85028 
L 204.320765 -179.491397 
L 204.658544 -181.132514 
L 205.018349 -182.773632 
L 205.391096 -184.414749 
L 205.769857 -186.055866 
L 206.150259 -187.696983 
L 206.530684 -189.3381 
L 206.912237 -190.979217 
L 207.298489 -192.620334 
L 207.694986 -194.261451 
L 208.108591 -195.902568 
L 208.546711 -197.543685 
L 209.016501 -199.184802 
L 209.524112 -200.825919 
L 210.074051 -202.467036 
L 210.668714 -204.108153 
L 211.308096 -205.74927 
L 211.989702 -207.390387 
L 212.708635 -209.031504 
L 213.45784 -210.672621 
L 214.228466 -212.313738 
L 215.010336 -213.954856 
L 215.792477 -215.595973 
L 216.563697 -217.23709 
L 217.313176 -218.878207 
L 218.031052 -220.519324 
L 218.708955 -222.160441 
L 219.340472 -223.801558 
L 219.921477 -225.442675 
L 220.450322 -227.083792 
L 220.927838 -228.724909 
L 221.357154 -230.366026 
L 221.743337 -232.007143 
L 222.092884 -233.64826 
L 222.413113 -235.289377 
L 222.711518 -236.930494 
L 222.995139 -238.571611 
L 223.27002 -240.212728 
L 223.540798 -241.853845 
L 223.810448 -243.494962 
L 224.08021 -245.13608 
L 224.349686 -246.777197 
L 229.34451 -246.777197 
L 229.34451 -246.777197 
L 229.613986 -245.13608 
L 229.883748 -243.494962 
L 230.153398 -241.853845 
L 230.424176 -240.212728 
L 230.699057 -238.571611 
L 230.982678 -236.930494 
L 231.281083 -235.289377 
L 231.601312 -233.64826 
L 231.950859 -232.007143 
L 232.337042 -230.366026 
L 232.766358 -228.724909 
L 233.243874 -227.083792 
L 233.772719 -225.442675 
L 234.353724 -223.801558 
L 234.985241 -222.160441 
L 235.663144 -220.519324 
L 236.38102 -218.878207 
L 237.130499 -217.23709 
L 237.901719 -215.595973 
L 238.68386 -213.954856 
L 239.465731 -212.313738 
L 240.236356 -210.672621 
L 240.985561 -209.031504 
L 241.704494 -207.390387 
L 242.386101 -205.74927 
L 243.025482 -204.108153 
L 243.620145 -202.467036 
L 244.170084 -200.825919 
L 244.677695 -199.184802 
L 245.147485 -197.543685 
L 245.585606 -195.902568 
L 245.99921 -194.261451 
L 246.395707 -192.620334 
L 246.781959 -190.979217 
L 247.163512 -189.3381 
L 247.543937 -187.696983 
L 247.924339 -186.055866 
L 248.303101 -184.414749 
L 248.675847 -182.773632 
L 249.035652 -181.132514 
L 249.373431 -179.491397 
L 249.67846 -177.85028 
L 249.938983 -176.209163 
L 250.14282 -174.568046 
L 250.277963 -172.926929 
L 250.333109 -171.285812 
L 250.298138 -169.644695 
L 250.164543 -168.003578 
L 249.925827 -166.362461 
L 249.577874 -164.721344 
L 249.1193 -163.080227 
L 248.551768 -161.43911 
L 247.880225 -159.797993 
L 247.113008 -158.156876 
L 246.261773 -156.515759 
L 245.341187 -154.874642 
L 244.368375 -153.233525 
L 243.362117 -151.592408 
L 242.341856 -149.951291 
L 241.326594 -148.310173 
L 240.333787 -146.669056 
L 239.378355 -145.027939 
L 238.471908 -143.386822 
L 237.622268 -141.745705 
L 236.833331 -140.104588 
L 236.105254 -138.463471 
L 235.43494 -136.822354 
L 234.816738 -135.181237 
L 234.243284 -133.54012 
L 233.706389 -131.899003 
L 233.197893 -130.257886 
L 232.71042 -128.616769 
L 232.237971 -126.975652 
L 231.776348 -125.334535 
L 231.323356 -123.693418 
L 230.87882 -122.052301 
L 230.444408 -120.411184 
L 230.023298 -118.770067 
L 229.619733 -117.128949 
L 229.238517 -115.487832 
L 228.884494 -113.846715 
L 228.562076 -112.205598 
L 228.274855 -110.564481 
L 228.025317 -108.923364 
L 227.814692 -107.282247 
L 227.642912 -105.64113 
L 227.508666 -104.000013 
L 227.409535 -102.358896 
L 227.342163 -100.717779 
L 227.30246 -99.076662 
L 227.285798 -97.435545 
L 227.287222 -95.794428 
L 227.301643 -94.153311 
L 227.324036 -92.512194 
L 227.34964 -90.871077 
L 227.374148 -89.22996 
L 227.393894 -87.588843 
L 227.406001 -85.947725 
L 227.408503 -84.306608 
z
" style="stroke: #2f2f2f; stroke-width: 0.75"/>
    </defs>
    <g clip-path="url(#p4e30b94af7)">
     <use xlink:href="#mf9e3ea78a5" x="0" y="302.019779" style="fill: #e0b898; stroke: #2f2f2f; stroke-width: 0.75"/>
    </g>
   </g>
   <g id="FillBetweenPolyCollection_5">
    <defs>
     <path id="m08575f0615" d="M 279.592567 -131.937579 
L 278.4839 -131.937579 
L 278.489944 -133.550861 
L 278.508099 -135.164143 
L 278.536892 -136.777425 
L 278.574048 -138.390706 
L 278.616657 -140.003988 
L 278.661359 -141.61727 
L 278.704519 -143.230552 
L 278.742365 -144.843834 
L 278.771053 -146.457116 
L 278.786674 -148.070398 
L 278.785205 -149.68368 
L 278.762442 -151.296961 
L 278.713946 -152.910243 
L 278.635045 -154.523525 
L 278.520936 -156.136807 
L 278.366889 -157.750089 
L 278.168584 -159.363371 
L 277.922531 -160.976653 
L 277.626549 -162.589935 
L 277.280217 -164.203216 
L 276.885241 -165.816498 
L 276.445638 -167.42978 
L 275.967682 -169.043062 
L 275.459565 -170.656344 
L 274.930772 -172.269626 
L 274.391203 -173.882908 
L 273.850124 -175.49619 
L 273.315048 -177.109471 
L 272.790702 -178.722753 
L 272.278189 -180.336035 
L 271.774501 -181.949317 
L 271.272475 -183.562599 
L 270.761229 -185.175881 
L 270.227116 -186.789163 
L 269.655104 -188.402445 
L 269.030487 -190.015726 
L 268.340736 -191.629008 
L 267.577297 -193.24229 
L 266.737108 -194.855572 
L 265.823614 -196.468854 
L 264.847137 -198.082136 
L 263.824489 -199.695418 
L 262.777856 -201.3087 
L 261.73304 -202.921981 
L 260.717274 -204.535263 
L 259.756864 -206.148545 
L 258.874964 -207.761827 
L 258.089754 -209.375109 
L 257.413248 -210.988391 
L 256.850856 -212.601673 
L 256.401733 -214.214955 
L 256.059815 -215.828237 
L 255.815361 -217.441518 
L 255.656776 -219.0548 
L 255.572426 -220.668082 
L 255.552222 -222.281364 
L 255.588754 -223.894646 
L 255.677859 -225.507928 
L 255.818602 -227.12121 
L 256.012695 -228.734492 
L 256.263512 -230.347773 
L 256.574857 -231.961055 
L 256.949711 -233.574337 
L 257.389153 -235.187619 
L 257.891627 -236.800901 
L 258.452673 -238.414183 
L 259.065143 -240.027465 
L 259.71987 -241.640747 
L 260.406656 -243.254028 
L 261.115397 -244.86731 
L 261.837141 -246.480592 
L 262.564897 -248.093874 
L 263.294034 -249.707156 
L 264.022228 -251.320438 
L 264.74898 -252.93372 
L 265.474811 -254.547002 
L 266.200328 -256.160283 
L 266.925339 -257.773565 
L 267.648198 -259.386847 
L 268.3655 -261.000129 
L 269.072168 -262.613411 
L 269.761889 -264.226693 
L 270.427801 -265.839975 
L 271.063298 -267.453257 
L 271.662791 -269.066538 
L 272.22233 -270.67982 
L 272.739983 -272.293102 
L 273.215959 -273.906384 
L 273.652472 -275.519666 
L 274.053399 -277.132948 
L 274.423785 -278.74623 
L 274.769274 -280.359512 
L 275.095526 -281.972793 
L 275.407678 -283.586075 
L 275.709907 -285.199357 
L 276.005118 -286.812639 
L 276.294789 -288.425921 
L 276.578981 -290.039203 
L 276.856483 -291.652485 
L 281.219983 -291.652485 
L 281.219983 -291.652485 
L 281.497486 -290.039203 
L 281.781677 -288.425921 
L 282.071349 -286.812639 
L 282.366559 -285.199357 
L 282.668788 -283.586075 
L 282.98094 -281.972793 
L 283.307192 -280.359512 
L 283.652682 -278.74623 
L 284.023067 -277.132948 
L 284.423994 -275.519666 
L 284.860508 -273.906384 
L 285.336484 -272.293102 
L 285.854136 -270.67982 
L 286.413675 -269.066538 
L 287.013168 -267.453257 
L 287.648665 -265.839975 
L 288.314578 -264.226693 
L 289.004299 -262.613411 
L 289.710967 -261.000129 
L 290.428269 -259.386847 
L 291.151128 -257.773565 
L 291.876139 -256.160283 
L 292.601656 -254.547002 
L 293.327487 -252.93372 
L 294.054238 -251.320438 
L 294.782433 -249.707156 
L 295.51157 -248.093874 
L 296.239325 -246.480592 
L 296.96107 -244.86731 
L 297.66981 -243.254028 
L 298.356596 -241.640747 
L 299.011324 -240.027465 
L 299.623793 -238.414183 
L 300.184839 -236.800901 
L 300.687314 -235.187619 
L 301.126756 -233.574337 
L 301.501609 -231.961055 
L 301.812954 -230.347773 
L 302.063771 -228.734492 
L 302.257864 -227.12121 
L 302.398607 -225.507928 
L 302.487713 -223.894646 
L 302.524244 -222.281364 
L 302.50404 -220.668082 
L 302.419691 -219.0548 
L 302.261105 -217.441518 
L 302.016651 -215.828237 
L 301.674733 -214.214955 
L 301.225611 -212.601673 
L 300.663219 -210.988391 
L 299.986712 -209.375109 
L 299.201502 -207.761827 
L 298.319602 -206.148545 
L 297.359192 -204.535263 
L 296.343426 -202.921981 
L 295.29861 -201.3087 
L 294.251977 -199.695418 
L 293.22933 -198.082136 
L 292.252852 -196.468854 
L 291.339359 -194.855572 
L 290.499169 -193.24229 
L 289.735731 -191.629008 
L 289.045979 -190.015726 
L 288.421362 -188.402445 
L 287.849351 -186.789163 
L 287.315238 -185.175881 
L 286.803992 -183.562599 
L 286.301965 -181.949317 
L 285.798278 -180.336035 
L 285.285764 -178.722753 
L 284.761418 -177.109471 
L 284.226343 -175.49619 
L 283.685263 -173.882908 
L 283.145695 -172.269626 
L 282.616902 -170.656344 
L 282.108785 -169.043062 
L 281.630828 -167.42978 
L 281.191225 -165.816498 
L 280.796249 -164.203216 
L 280.449917 -162.589935 
L 280.153935 -160.976653 
L 279.907883 -159.363371 
L 279.709578 -157.750089 
L 279.555531 -156.136807 
L 279.441421 -154.523525 
L 279.362521 -152.910243 
L 279.314025 -151.296961 
L 279.291262 -149.68368 
L 279.289793 -148.070398 
L 279.305413 -146.457116 
L 279.334101 -144.843834 
L 279.371947 -143.230552 
L 279.415108 -141.61727 
L 279.459809 -140.003988 
L 279.502418 -138.390706 
L 279.539575 -136.777425 
L 279.568367 -135.164143 
L 279.586522 -133.550861 
L 279.592567 -131.937579 
z
" style="stroke: #2f2f2f; stroke-width: 0.75"/>
    </defs>
    <g clip-path="url(#p4e30b94af7)">
     <use xlink:href="#m08575f0615" x="0" y="302.019779" style="fill: #148a6a; stroke: #2f2f2f; stroke-width: 0.75"/>
    </g>
   </g>
   <g id="FillBetweenPolyCollection_6">
    <defs>
     <path id="ma2ed6528c0" d="M 331.790552 -106.243901 
L 330.668185 -106.243901 
L 330.673176 -107.862658 
L 330.689203 -109.481415 
L 330.71472 -111.100173 
L 330.747362 -112.71893 
L 330.784055 -114.337687 
L 330.821156 -115.956445 
L 330.854576 -117.575202 
L 330.879891 -119.193959 
L 330.892416 -120.812717 
L 330.887248 -122.431474 
L 330.859285 -124.050231 
L 330.803257 -125.668989 
L 330.71379 -127.287746 
L 330.585529 -128.906503 
L 330.413347 -130.525261 
L 330.192633 -132.144018 
L 329.919659 -133.762775 
L 329.591988 -135.381533 
L 329.208871 -137.00029 
L 328.771585 -138.619047 
L 328.283633 -140.237805 
L 327.750759 -141.856562 
L 327.180736 -143.475319 
L 326.582905 -145.094077 
L 325.967477 -146.712834 
L 325.344653 -148.331591 
L 324.723642 -149.950349 
L 324.111675 -151.569106 
L 323.513148 -153.187863 
L 322.92901 -154.806621 
L 322.356503 -156.425378 
L 321.789324 -158.044135 
L 321.218227 -159.662893 
L 320.63204 -161.28165 
L 320.018982 -162.900407 
L 319.368156 -164.519165 
L 318.671031 -166.137922 
L 317.922734 -167.756679 
L 317.12299 -169.375437 
L 316.276588 -170.994194 
L 315.393325 -172.612951 
L 314.487422 -174.231709 
L 313.576504 -175.850466 
L 312.680259 -177.469223 
L 311.818928 -179.087981 
L 311.011811 -180.706738 
L 310.275913 -182.325495 
L 309.624882 -183.944253 
L 309.068308 -185.56301 
L 308.611435 -187.181767 
L 308.255269 -188.800525 
L 307.997058 -190.419282 
L 307.831047 -192.038039 
L 307.749429 -193.656797 
L 307.743358 -195.275554 
L 307.803918 -196.894311 
L 307.922965 -198.513069 
L 308.093732 -200.131826 
L 308.311187 -201.750583 
L 308.572111 -203.369341 
L 308.874931 -204.988098 
L 309.219352 -206.606855 
L 309.605864 -208.225613 
L 310.035185 -209.84437 
L 310.507726 -211.463127 
L 311.023131 -213.081885 
L 311.579943 -214.700642 
L 312.175427 -216.319399 
L 312.805566 -217.938157 
L 313.465228 -219.556914 
L 314.148468 -221.175671 
L 314.848937 -222.794429 
L 315.560329 -224.413186 
L 316.276806 -226.031943 
L 316.993325 -227.650701 
L 317.70582 -229.269458 
L 318.411209 -230.888215 
L 319.107226 -232.506973 
L 319.792121 -234.12573 
L 320.464297 -235.744487 
L 321.121968 -237.363245 
L 321.762913 -238.982002 
L 322.384404 -240.600759 
L 322.983301 -242.219517 
L 323.556332 -243.838274 
L 324.100481 -245.457031 
L 324.613406 -247.075789 
L 325.093811 -248.694546 
L 325.541691 -250.313303 
L 325.958402 -251.932061 
L 326.346534 -253.550818 
L 326.709632 -255.169575 
L 327.051779 -256.788333 
L 327.377139 -258.40709 
L 327.689507 -260.025847 
L 327.991926 -261.644605 
L 328.286427 -263.263362 
L 328.573903 -264.882119 
L 328.854121 -266.500877 
L 333.604616 -266.500877 
L 333.604616 -266.500877 
L 333.884834 -264.882119 
L 334.17231 -263.263362 
L 334.466811 -261.644605 
L 334.76923 -260.025847 
L 335.081597 -258.40709 
L 335.406958 -256.788333 
L 335.749105 -255.169575 
L 336.112202 -253.550818 
L 336.500335 -251.932061 
L 336.917045 -250.313303 
L 337.364926 -248.694546 
L 337.845331 -247.075789 
L 338.358255 -245.457031 
L 338.902404 -243.838274 
L 339.475436 -242.219517 
L 340.074333 -240.600759 
L 340.695823 -238.982002 
L 341.336769 -237.363245 
L 341.994439 -235.744487 
L 342.666615 -234.12573 
L 343.35151 -232.506973 
L 344.047527 -230.888215 
L 344.752917 -229.269458 
L 345.465412 -227.650701 
L 346.18193 -226.031943 
L 346.898407 -224.413186 
L 347.6098 -222.794429 
L 348.310268 -221.175671 
L 348.993508 -219.556914 
L 349.653171 -217.938157 
L 350.28331 -216.319399 
L 350.878794 -214.700642 
L 351.435605 -213.081885 
L 351.951011 -211.463127 
L 352.423552 -209.84437 
L 352.852873 -208.225613 
L 353.239384 -206.606855 
L 353.583806 -204.988098 
L 353.886626 -203.369341 
L 354.14755 -201.750583 
L 354.365005 -200.131826 
L 354.535772 -198.513069 
L 354.654819 -196.894311 
L 354.715379 -195.275554 
L 354.709307 -193.656797 
L 354.62769 -192.038039 
L 354.461679 -190.419282 
L 354.203467 -188.800525 
L 353.847301 -187.181767 
L 353.390428 -185.56301 
L 352.833855 -183.944253 
L 352.182824 -182.325495 
L 351.446926 -180.706738 
L 350.639808 -179.087981 
L 349.778478 -177.469223 
L 348.882233 -175.850466 
L 347.971315 -174.231709 
L 347.065412 -172.612951 
L 346.182148 -170.994194 
L 345.335747 -169.375437 
L 344.536002 -167.756679 
L 343.787706 -166.137922 
L 343.090581 -164.519165 
L 342.439755 -162.900407 
L 341.826697 -161.28165 
L 341.24051 -159.662893 
L 340.669413 -158.044135 
L 340.102234 -156.425378 
L 339.529727 -154.806621 
L 338.945589 -153.187863 
L 338.347062 -151.569106 
L 337.735095 -149.950349 
L 337.114084 -148.331591 
L 336.49126 -146.712834 
L 335.875831 -145.094077 
L 335.278 -143.475319 
L 334.707978 -141.856562 
L 334.175104 -140.237805 
L 333.687151 -138.619047 
L 333.249865 -137.00029 
L 332.866749 -135.381533 
L 332.539077 -133.762775 
L 332.266104 -132.144018 
L 332.045389 -130.525261 
L 331.873207 -128.906503 
L 331.744947 -127.287746 
L 331.65548 -125.668989 
L 331.599452 -124.050231 
L 331.571489 -122.431474 
L 331.56632 -120.812717 
L 331.578846 -119.193959 
L 331.604161 -117.575202 
L 331.637581 -115.956445 
L 331.674681 -114.337687 
L 331.711375 -112.71893 
L 331.744017 -111.100173 
L 331.769534 -109.481415 
L 331.785561 -107.862658 
L 331.790552 -106.243901 
z
" style="stroke: #2f2f2f; stroke-width: 0.75"/>
    </defs>
    <g clip-path="url(#p4e30b94af7)">
     <use xlink:href="#ma2ed6528c0" x="0" y="302.019779" style="fill: #95cabc; stroke: #2f2f2f; stroke-width: 0.75"/>
    </g>
   </g>
   <g id="FillBetweenPolyCollection_7">
    <defs>
     <path id="m4a77db8df8" d="M 383.98274 -110.247964 
L 382.858267 -110.247964 
L 382.842251 -111.684751 
L 382.82795 -113.121537 
L 382.810858 -114.558323 
L 382.785176 -115.99511 
L 382.744076 -117.431896 
L 382.680063 -118.868683 
L 382.585437 -120.305469 
L 382.452786 -121.742255 
L 382.2755 -123.179042 
L 382.048212 -124.615828 
L 381.767155 -126.052615 
L 381.430365 -127.489401 
L 381.037693 -128.926187 
L 380.590635 -130.362974 
L 380.09196 -131.79976 
L 379.545207 -133.236547 
L 378.954087 -134.673333 
L 378.321904 -136.110119 
L 377.651058 -137.546906 
L 376.94274 -138.983692 
L 376.196858 -140.420479 
L 375.412237 -141.857265 
L 374.58707 -143.294051 
L 373.719578 -144.730838 
L 372.808806 -146.167624 
L 371.85544 -147.604411 
L 370.862564 -149.041197 
L 369.836247 -150.477983 
L 368.785876 -151.91477 
L 367.724174 -153.351556 
L 366.666875 -154.788343 
L 365.632044 -156.225129 
L 364.639082 -157.661915 
L 363.707504 -159.098702 
L 362.855593 -160.535488 
L 362.099098 -161.972275 
L 361.450132 -163.409061 
L 360.916425 -164.845848 
L 360.501059 -166.282634 
L 360.20271 -167.71942 
L 360.016381 -169.156207 
L 359.934493 -170.592993 
L 359.94816 -172.02978 
L 360.048425 -173.466566 
L 360.227259 -174.903352 
L 360.478183 -176.340139 
L 360.796444 -177.776925 
L 361.178782 -179.213712 
L 361.622884 -180.650498 
L 362.126697 -182.087284 
L 362.687753 -183.524071 
L 363.302638 -184.960857 
L 363.966697 -186.397644 
L 364.67397 -187.83443 
L 365.417345 -189.271216 
L 366.188837 -190.708003 
L 366.979928 -192.144789 
L 367.781897 -193.581576 
L 368.586118 -195.018362 
L 369.384294 -196.455148 
L 370.168662 -197.891935 
L 370.932164 -199.328721 
L 371.668603 -200.765508 
L 372.372775 -202.202294 
L 373.040564 -203.63908 
L 373.668993 -205.075867 
L 374.256201 -206.512653 
L 374.801377 -207.94944 
L 375.304637 -209.386226 
L 375.7669 -210.823012 
L 376.189779 -212.259799 
L 376.5755 -213.696585 
L 376.926876 -215.133372 
L 377.247299 -216.570158 
L 377.540735 -218.006945 
L 377.811682 -219.443731 
L 378.06506 -220.880517 
L 378.306031 -222.317304 
L 378.539723 -223.75409 
L 378.770921 -225.190877 
L 379.003724 -226.627663 
L 379.241239 -228.064449 
L 379.485338 -229.501236 
L 379.736518 -230.938022 
L 379.993881 -232.374809 
L 380.255244 -233.811595 
L 380.517363 -235.248381 
L 380.77626 -236.685168 
L 381.027617 -238.121954 
L 381.267198 -239.558741 
L 381.491268 -240.995527 
L 381.696941 -242.432313 
L 381.882438 -243.8691 
L 382.047216 -245.305886 
L 382.191946 -246.742673 
L 382.318355 -248.179459 
L 382.428949 -249.616245 
L 382.526662 -251.053032 
L 382.614487 -252.489818 
L 384.22652 -252.489818 
L 384.22652 -252.489818 
L 384.314345 -251.053032 
L 384.412058 -249.616245 
L 384.522652 -248.179459 
L 384.649061 -246.742673 
L 384.793791 -245.305886 
L 384.958569 -243.8691 
L 385.144066 -242.432313 
L 385.349739 -240.995527 
L 385.573809 -239.558741 
L 385.81339 -238.121954 
L 386.064747 -236.685168 
L 386.323644 -235.248381 
L 386.585763 -233.811595 
L 386.847126 -232.374809 
L 387.104489 -230.938022 
L 387.355669 -229.501236 
L 387.599768 -228.064449 
L 387.837283 -226.627663 
L 388.070086 -225.190877 
L 388.301284 -223.75409 
L 388.534976 -222.317304 
L 388.775947 -220.880517 
L 389.029326 -219.443731 
L 389.300272 -218.006945 
L 389.593708 -216.570158 
L 389.914131 -215.133372 
L 390.265507 -213.696585 
L 390.651228 -212.259799 
L 391.074107 -210.823012 
L 391.53637 -209.386226 
L 392.03963 -207.94944 
L 392.584806 -206.512653 
L 393.172014 -205.075867 
L 393.800443 -203.63908 
L 394.468232 -202.202294 
L 395.172404 -200.765508 
L 395.908843 -199.328721 
L 396.672345 -197.891935 
L 397.456713 -196.455148 
L 398.254889 -195.018362 
L 399.05911 -193.581576 
L 399.861079 -192.144789 
L 400.65217 -190.708003 
L 401.423662 -189.271216 
L 402.167037 -187.83443 
L 402.87431 -186.397644 
L 403.538369 -184.960857 
L 404.153254 -183.524071 
L 404.71431 -182.087284 
L 405.218123 -180.650498 
L 405.662225 -179.213712 
L 406.044563 -177.776925 
L 406.362824 -176.340139 
L 406.613748 -174.903352 
L 406.792582 -173.466566 
L 406.892847 -172.02978 
L 406.906514 -170.592993 
L 406.824626 -169.156207 
L 406.638297 -167.71942 
L 406.339948 -166.282634 
L 405.924582 -164.845848 
L 405.390875 -163.409061 
L 404.741909 -161.972275 
L 403.985414 -160.535488 
L 403.133503 -159.098702 
L 402.201925 -157.661915 
L 401.208963 -156.225129 
L 400.174132 -154.788343 
L 399.116833 -153.351556 
L 398.055131 -151.91477 
L 397.00476 -150.477983 
L 395.978443 -149.041197 
L 394.985567 -147.604411 
L 394.032201 -146.167624 
L 393.121429 -144.730838 
L 392.253937 -143.294051 
L 391.42877 -141.857265 
L 390.644149 -140.420479 
L 389.898267 -138.983692 
L 389.189949 -137.546906 
L 388.519103 -136.110119 
L 387.88692 -134.673333 
L 387.2958 -133.236547 
L 386.749047 -131.79976 
L 386.250373 -130.362974 
L 385.803314 -128.926187 
L 385.410642 -127.489401 
L 385.073852 -126.052615 
L 384.792795 -124.615828 
L 384.565507 -123.179042 
L 384.388221 -121.742255 
L 384.255571 -120.305469 
L 384.160944 -118.868683 
L 384.096931 -117.431896 
L 384.055831 -115.99511 
L 384.030149 -114.558323 
L 384.013057 -113.121537 
L 383.998756 -111.684751 
L 383.98274 -110.247964 
z
" style="stroke: #2f2f2f; stroke-width: 0.75"/>
    </defs>
    <g clip-path="url(#p4e30b94af7)">
     <use xlink:href="#m4a77db8df8" x="0" y="302.019779" style="fill: #c9941d; stroke: #2f2f2f; stroke-width: 0.75"/>
    </g>
   </g>
   <g id="matplotlib.axis_1">
    <g id="xtick_1">
     <g id="line2d_1">
      <defs>
       <path id="m5e4aa266fc" d="M 0 0 
L 0 3.5 
" style="stroke: #000000; stroke-width: 0.8"/>
      </defs>
      <g>
       <use xlink:href="#m5e4aa266fc" x="70.273693" y="228.080464" style="stroke: #000000; stroke-width: 0.8"/>
      </g>
     </g>
     <g id="text_1">
      <!-- MVT -->
      <g transform="translate(50.547998 252.449185) rotate(-30) scale(0.1 -0.1)">
       <defs>
        <path id="DejaVuSans-4d" d="M 628 4666 
L 1569 4666 
L 2759 1491 
L 3956 4666 
L 4897 4666 
L 4897 0 
L 4281 0 
L 4281 4097 
L 3078 897 
L 2444 897 
L 1241 4097 
L 1241 0 
L 628 0 
L 628 4666 
z
" transform="scale(0.015625)"/>
        <path id="DejaVuSans-56" d="M 1831 0 
L 50 4666 
L 709 4666 
L 2188 738 
L 3669 4666 
L 4325 4666 
L 2547 0 
L 1831 0 
z
" transform="scale(0.015625)"/>
        <path id="DejaVuSans-54" d="M -19 4666 
L 3928 4666 
L 3928 4134 
L 2272 4134 
L 2272 0 
L 1638 0 
L 1638 4134 
L -19 4134 
L -19 4666 
z
" transform="scale(0.015625)"/>
       </defs>
       <use xlink:href="#DejaVuSans-4d"/>
       <use xlink:href="#DejaVuSans-56" transform="translate(86.279297 0)"/>
       <use xlink:href="#DejaVuSans-54" transform="translate(154.6875 0)"/>
      </g>
     </g>
    </g>
    <g id="xtick_2">
     <g id="line2d_2">
      <g>
       <use xlink:href="#m5e4aa266fc" x="122.464828" y="228.080464" style="stroke: #000000; stroke-width: 0.8"/>
      </g>
     </g>
     <g id="text_2">
      <!-- MVT (SIMD x8) -->
      <g transform="translate(57.647626 278.482779) rotate(-30) scale(0.1 -0.1)">
       <defs>
        <path id="DejaVuSans-20" transform="scale(0.015625)"/>
        <path id="DejaVuSans-28" d="M 1984 4856 
Q 1566 4138 1362 3434 
Q 1159 2731 1159 2009 
Q 1159 1288 1364 580 
Q 1569 -128 1984 -844 
L 1484 -844 
Q 1016 -109 783 600 
Q 550 1309 550 2009 
Q 550 2706 781 3412 
Q 1013 4119 1484 4856 
L 1984 4856 
z
" transform="scale(0.015625)"/>
        <path id="DejaVuSans-53" d="M 3425 4513 
L 3425 3897 
Q 3066 4069 2747 4153 
Q 2428 4238 2131 4238 
Q 1616 4238 1336 4038 
Q 1056 3838 1056 3469 
Q 1056 3159 1242 3001 
Q 1428 2844 1947 2747 
L 2328 2669 
Q 3034 2534 3370 2195 
Q 3706 1856 3706 1288 
Q 3706 609 3251 259 
Q 2797 -91 1919 -91 
Q 1588 -91 1214 -16 
Q 841 59 441 206 
L 441 856 
Q 825 641 1194 531 
Q 1563 422 1919 422 
Q 2459 422 2753 634 
Q 3047 847 3047 1241 
Q 3047 1584 2836 1778 
Q 2625 1972 2144 2069 
L 1759 2144 
Q 1053 2284 737 2584 
Q 422 2884 422 3419 
Q 422 4038 858 4394 
Q 1294 4750 2059 4750 
Q 2388 4750 2728 4690 
Q 3069 4631 3425 4513 
z
" transform="scale(0.015625)"/>
        <path id="DejaVuSans-49" d="M 628 4666 
L 1259 4666 
L 1259 0 
L 628 0 
L 628 4666 
z
" transform="scale(0.015625)"/>
        <path id="DejaVuSans-44" d="M 1259 4147 
L 1259 519 
L 2022 519 
Q 2988 519 3436 956 
Q 3884 1394 3884 2338 
Q 3884 3275 3436 3711 
Q 2988 4147 2022 4147 
L 1259 4147 
z
M 628 4666 
L 1925 4666 
Q 3281 4666 3915 4102 
Q 4550 3538 4550 2338 
Q 4550 1131 3912 565 
Q 3275 0 1925 0 
L 628 0 
L 628 4666 
z
" transform="scale(0.015625)"/>
        <path id="DejaVuSans-78" d="M 3513 3500 
L 2247 1797 
L 3578 0 
L 2900 0 
L 1881 1375 
L 863 0 
L 184 0 
L 1544 1831 
L 300 3500 
L 978 3500 
L 1906 2253 
L 2834 3500 
L 3513 3500 
z
" transform="scale(0.015625)"/>
        <path id="DejaVuSans-38" d="M 2034 2216 
Q 1584 2216 1326 1975 
Q 1069 1734 1069 1313 
Q 1069 891 1326 650 
Q 1584 409 2034 409 
Q 2484 409 2743 651 
Q 3003 894 3003 1313 
Q 3003 1734 2745 1975 
Q 2488 2216 2034 2216 
z
M 1403 2484 
Q 997 2584 770 2862 
Q 544 3141 544 3541 
Q 544 4100 942 4425 
Q 1341 4750 2034 4750 
Q 2731 4750 3128 4425 
Q 3525 4100 3525 3541 
Q 3525 3141 3298 2862 
Q 3072 2584 2669 2484 
Q 3125 2378 3379 2068 
Q 3634 1759 3634 1313 
Q 3634 634 3220 271 
Q 2806 -91 2034 -91 
Q 1263 -91 848 271 
Q 434 634 434 1313 
Q 434 1759 690 2068 
Q 947 2378 1403 2484 
z
M 1172 3481 
Q 1172 3119 1398 2916 
Q 1625 2713 2034 2713 
Q 2441 2713 2670 2916 
Q 2900 3119 2900 3481 
Q 2900 3844 2670 4047 
Q 2441 4250 2034 4250 
Q 1625 4250 1398 4047 
Q 1172 3844 1172 3481 
z
" transform="scale(0.015625)"/>
        <path id="DejaVuSans-29" d="M 513 4856 
L 1013 4856 
Q 1481 4119 1714 3412 
Q 1947 2706 1947 2009 
Q 1947 1309 1714 600 
Q 1481 -109 1013 -844 
L 513 -844 
Q 928 -128 1133 580 
Q 1338 1288 1338 2009 
Q 1338 2731 1133 3434 
Q 928 4138 513 4856 
z
" transform="scale(0.015625)"/>
       </defs>
       <use xlink:href="#DejaVuSans-4d"/>
       <use xlink:href="#DejaVuSans-56" transform="translate(86.279297 0)"/>
       <use xlink:href="#DejaVuSans-54" transform="translate(154.6875 0)"/>
       <use xlink:href="#DejaVuSans-20" transform="translate(215.771484 0)"/>
       <use xlink:href="#DejaVuSans-28" transform="translate(247.558594 0)"/>
       <use xlink:href="#DejaVuSans-53" transform="translate(286.572266 0)"/>
       <use xlink:href="#DejaVuSans-49" transform="translate(350.048828 0)"/>
       <use xlink:href="#DejaVuSans-4d" transform="translate(379.541016 0)"/>
       <use xlink:href="#DejaVuSans-44" transform="translate(465.820312 0)"/>
       <use xlink:href="#DejaVuSans-20" transform="translate(542.822266 0)"/>
       <use xlink:href="#DejaVuSans-78" transform="translate(574.609375 0)"/>
       <use xlink:href="#DejaVuSans-38" transform="translate(633.789062 0)"/>
       <use xlink:href="#DejaVuSans-29" transform="translate(697.412109 0)"/>
      </g>
     </g>
    </g>
    <g id="xtick_3">
     <g id="line2d_3">
      <g>
       <use xlink:href="#m5e4aa266fc" x="174.655963" y="228.080464" style="stroke: #000000; stroke-width: 0.8"/>
      </g>
     </g>
     <g id="text_3">
      <!-- Mutable MVT -->
      <g transform="translate(117.28252 274.185123) rotate(-30) scale(0.1 -0.1)">
       <defs>
        <path id="DejaVuSans-75" d="M 544 1381 
L 544 3500 
L 1119 3500 
L 1119 1403 
Q 1119 906 1312 657 
Q 1506 409 1894 409 
Q 2359 409 2629 706 
Q 2900 1003 2900 1516 
L 2900 3500 
L 3475 3500 
L 3475 0 
L 2900 0 
L 2900 538 
Q 2691 219 2414 64 
Q 2138 -91 1772 -91 
Q 1169 -91 856 284 
Q 544 659 544 1381 
z
M 1991 3584 
L 1991 3584 
z
" transform="scale(0.015625)"/>
        <path id="DejaVuSans-74" d="M 1172 4494 
L 1172 3500 
L 2356 3500 
L 2356 3053 
L 1172 3053 
L 1172 1153 
Q 1172 725 1289 603 
Q 1406 481 1766 481 
L 2356 481 
L 2356 0 
L 1766 0 
Q 1100 0 847 248 
Q 594 497 594 1153 
L 594 3053 
L 172 3053 
L 172 3500 
L 594 3500 
L 594 4494 
L 1172 4494 
z
" transform="scale(0.015625)"/>
        <path id="DejaVuSans-61" d="M 2194 1759 
Q 1497 1759 1228 1600 
Q 959 1441 959 1056 
Q 959 750 1161 570 
Q 1363 391 1709 391 
Q 2188 391 2477 730 
Q 2766 1069 2766 1631 
L 2766 1759 
L 2194 1759 
z
M 3341 1997 
L 3341 0 
L 2766 0 
L 2766 531 
Q 2569 213 2275 61 
Q 1981 -91 1556 -91 
Q 1019 -91 701 211 
Q 384 513 384 1019 
Q 384 1609 779 1909 
Q 1175 2209 1959 2209 
L 2766 2209 
L 2766 2266 
Q 2766 2663 2505 2880 
Q 2244 3097 1772 3097 
Q 1472 3097 1187 3025 
Q 903 2953 641 2809 
L 641 3341 
Q 956 3463 1253 3523 
Q 1550 3584 1831 3584 
Q 2591 3584 2966 3190 
Q 3341 2797 3341 1997 
z
" transform="scale(0.015625)"/>
        <path id="DejaVuSans-62" d="M 3116 1747 
Q 3116 2381 2855 2742 
Q 2594 3103 2138 3103 
Q 1681 3103 1420 2742 
Q 1159 2381 1159 1747 
Q 1159 1113 1420 752 
Q 1681 391 2138 391 
Q 2594 391 2855 752 
Q 3116 1113 3116 1747 
z
M 1159 2969 
Q 1341 3281 1617 3432 
Q 1894 3584 2278 3584 
Q 2916 3584 3314 3078 
Q 3713 2572 3713 1747 
Q 3713 922 3314 415 
Q 2916 -91 2278 -91 
Q 1894 -91 1617 61 
Q 1341 213 1159 525 
L 1159 0 
L 581 0 
L 581 4863 
L 1159 4863 
L 1159 2969 
z
" transform="scale(0.015625)"/>
        <path id="DejaVuSans-6c" d="M 603 4863 
L 1178 4863 
L 1178 0 
L 603 0 
L 603 4863 
z
" transform="scale(0.015625)"/>
        <path id="DejaVuSans-65" d="M 3597 1894 
L 3597 1613 
L 953 1613 
Q 991 1019 1311 708 
Q 1631 397 2203 397 
Q 2534 397 2845 478 
Q 3156 559 3463 722 
L 3463 178 
Q 3153 47 2828 -22 
Q 2503 -91 2169 -91 
Q 1331 -91 842 396 
Q 353 884 353 1716 
Q 353 2575 817 3079 
Q 1281 3584 2069 3584 
Q 2775 3584 3186 3129 
Q 3597 2675 3597 1894 
z
M 3022 2063 
Q 3016 2534 2758 2815 
Q 2500 3097 2075 3097 
Q 1594 3097 1305 2825 
Q 1016 2553 972 2059 
L 3022 2063 
z
" transform="scale(0.015625)"/>
       </defs>
       <use xlink:href="#DejaVuSans-4d"/>
       <use xlink:href="#DejaVuSans-75" transform="translate(86.279297 0)"/>
       <use xlink:href="#DejaVuSans-74" transform="translate(149.658203 0)"/>
       <use xlink:href="#DejaVuSans-61" transform="translate(188.867188 0)"/>
       <use xlink:href="#DejaVuSans-62" transform="translate(250.146484 0)"/>
       <use xlink:href="#DejaVuSans-6c" transform="translate(313.623047 0)"/>
       <use xlink:href="#DejaVuSans-65" transform="translate(341.40625 0)"/>
       <use xlink:href="#DejaVuSans-20" transform="translate(402.929688 0)"/>
       <use xlink:href="#DejaVuSans-4d" transform="translate(434.716797 0)"/>
       <use xlink:href="#DejaVuSans-56" transform="translate(520.996094 0)"/>
       <use xlink:href="#DejaVuSans-54" transform="translate(589.404297 0)"/>
      </g>
     </g>
    </g>
    <g id="xtick_4">
     <g id="line2d_4">
      <g>
       <use xlink:href="#m5e4aa266fc" x="226.847098" y="228.080464" style="stroke: #000000; stroke-width: 0.8"/>
      </g>
     </g>
     <g id="text_4">
      <!-- Mutable MVT (SIMD x8) -->
      <g transform="translate(124.382148 300.218716) rotate(-30) scale(0.1 -0.1)">
       <use xlink:href="#DejaVuSans-4d"/>
       <use xlink:href="#DejaVuSans-75" transform="translate(86.279297 0)"/>
       <use xlink:href="#DejaVuSans-74" transform="translate(149.658203 0)"/>
       <use xlink:href="#DejaVuSans-61" transform="translate(188.867188 0)"/>
       <use xlink:href="#DejaVuSans-62" transform="translate(250.146484 0)"/>
       <use xlink:href="#DejaVuSans-6c" transform="translate(313.623047 0)"/>
       <use xlink:href="#DejaVuSans-65" transform="translate(341.40625 0)"/>
       <use xlink:href="#DejaVuSans-20" transform="translate(402.929688 0)"/>
       <use xlink:href="#DejaVuSans-4d" transform="translate(434.716797 0)"/>
       <use xlink:href="#DejaVuSans-56" transform="translate(520.996094 0)"/>
       <use xlink:href="#DejaVuSans-54" transform="translate(589.404297 0)"/>
       <use xlink:href="#DejaVuSans-20" transform="translate(650.488281 0)"/>
       <use xlink:href="#DejaVuSans-28" transform="translate(682.275391 0)"/>
       <use xlink:href="#DejaVuSans-53" transform="translate(721.289062 0)"/>
       <use xlink:href="#DejaVuSans-49" transform="translate(784.765625 0)"/>
       <use xlink:href="#DejaVuSans-4d" transform="translate(814.257812 0)"/>
       <use xlink:href="#DejaVuSans-44" transform="translate(900.537109 0)"/>
       <use xlink:href="#DejaVuSans-20" transform="translate(977.539062 0)"/>
       <use xlink:href="#DejaVuSans-78" transform="translate(1009.326172 0)"/>
       <use xlink:href="#DejaVuSans-38" transform="translate(1068.505859 0)"/>
       <use xlink:href="#DejaVuSans-29" transform="translate(1132.128906 0)"/>
      </g>
     </g>
    </g>
    <g id="xtick_5">
     <g id="line2d_5">
      <g>
       <use xlink:href="#m5e4aa266fc" x="279.038233" y="228.080464" style="stroke: #000000; stroke-width: 0.8"/>
      </g>
     </g>
     <g id="text_5">
      <!-- CAPT -->
      <g transform="translate(255.515558 254.641373) rotate(-30) scale(0.1 -0.1)">
       <defs>
        <path id="DejaVuSans-43" d="M 4122 4306 
L 4122 3641 
Q 3803 3938 3442 4084 
Q 3081 4231 2675 4231 
Q 1875 4231 1450 3742 
Q 1025 3253 1025 2328 
Q 1025 1406 1450 917 
Q 1875 428 2675 428 
Q 3081 428 3442 575 
Q 3803 722 4122 1019 
L 4122 359 
Q 3791 134 3420 21 
Q 3050 -91 2638 -91 
Q 1578 -91 968 557 
Q 359 1206 359 2328 
Q 359 3453 968 4101 
Q 1578 4750 2638 4750 
Q 3056 4750 3426 4639 
Q 3797 4528 4122 4306 
z
" transform="scale(0.015625)"/>
        <path id="DejaVuSans-41" d="M 2188 4044 
L 1331 1722 
L 3047 1722 
L 2188 4044 
z
M 1831 4666 
L 2547 4666 
L 4325 0 
L 3669 0 
L 3244 1197 
L 1141 1197 
L 716 0 
L 50 0 
L 1831 4666 
z
" transform="scale(0.015625)"/>
        <path id="DejaVuSans-50" d="M 1259 4147 
L 1259 2394 
L 2053 2394 
Q 2494 2394 2734 2622 
Q 2975 2850 2975 3272 
Q 2975 3691 2734 3919 
Q 2494 4147 2053 4147 
L 1259 4147 
z
M 628 4666 
L 2053 4666 
Q 2838 4666 3239 4311 
Q 3641 3956 3641 3272 
Q 3641 2581 3239 2228 
Q 2838 1875 2053 1875 
L 1259 1875 
L 1259 0 
L 628 0 
L 628 4666 
z
" transform="scale(0.015625)"/>
       </defs>
       <use xlink:href="#DejaVuSans-43"/>
       <use xlink:href="#DejaVuSans-41" transform="translate(69.824219 0)"/>
       <use xlink:href="#DejaVuSans-50" transform="translate(138.232422 0)"/>
       <use xlink:href="#DejaVuSans-54" transform="translate(198.535156 0)"/>
      </g>
     </g>
    </g>
    <g id="xtick_6">
     <g id="line2d_6">
      <g>
       <use xlink:href="#m5e4aa266fc" x="331.229368" y="228.080464" style="stroke: #000000; stroke-width: 0.8"/>
      </g>
     </g>
     <g id="text_6">
      <!-- CAPT (SIMD x8) -->
      <g transform="translate(262.615186 280.674966) rotate(-30) scale(0.1 -0.1)">
       <use xlink:href="#DejaVuSans-43"/>
       <use xlink:href="#DejaVuSans-41" transform="translate(69.824219 0)"/>
       <use xlink:href="#DejaVuSans-50" transform="translate(138.232422 0)"/>
       <use xlink:href="#DejaVuSans-54" transform="translate(198.535156 0)"/>
       <use xlink:href="#DejaVuSans-20" transform="translate(259.619141 0)"/>
       <use xlink:href="#DejaVuSans-28" transform="translate(291.40625 0)"/>
       <use xlink:href="#DejaVuSans-53" transform="translate(330.419922 0)"/>
       <use xlink:href="#DejaVuSans-49" transform="translate(393.896484 0)"/>
       <use xlink:href="#DejaVuSans-4d" transform="translate(423.388672 0)"/>
       <use xlink:href="#DejaVuSans-44" transform="translate(509.667969 0)"/>
       <use xlink:href="#DejaVuSans-20" transform="translate(586.669922 0)"/>
       <use xlink:href="#DejaVuSans-78" transform="translate(618.457031 0)"/>
       <use xlink:href="#DejaVuSans-38" transform="translate(677.636719 0)"/>
       <use xlink:href="#DejaVuSans-29" transform="translate(741.259766 0)"/>
      </g>
     </g>
    </g>
    <g id="xtick_7">
     <g id="line2d_7">
      <g>
       <use xlink:href="#m5e4aa266fc" x="383.420504" y="228.080464" style="stroke: #000000; stroke-width: 0.8"/>
      </g>
     </g>
     <g id="text_7">
      <!-- kiddo -->
      <g transform="translate(358.665095 255.353091) rotate(-30) scale(0.1 -0.1)">
       <defs>
        <path id="DejaVuSans-6b" d="M 581 4863 
L 1159 4863 
L 1159 1991 
L 2875 3500 
L 3609 3500 
L 1753 1863 
L 3688 0 
L 2938 0 
L 1159 1709 
L 1159 0 
L 581 0 
L 581 4863 
z
" transform="scale(0.015625)"/>
        <path id="DejaVuSans-69" d="M 603 3500 
L 1178 3500 
L 1178 0 
L 603 0 
L 603 3500 
z
M 603 4863 
L 1178 4863 
L 1178 4134 
L 603 4134 
L 603 4863 
z
" transform="scale(0.015625)"/>
        <path id="DejaVuSans-64" d="M 2906 2969 
L 2906 4863 
L 3481 4863 
L 3481 0 
L 2906 0 
L 2906 525 
Q 2725 213 2448 61 
Q 2172 -91 1784 -91 
Q 1150 -91 751 415 
Q 353 922 353 1747 
Q 353 2572 751 3078 
Q 1150 3584 1784 3584 
Q 2172 3584 2448 3432 
Q 2725 3281 2906 2969 
z
M 947 1747 
Q 947 1113 1208 752 
Q 1469 391 1925 391 
Q 2381 391 2643 752 
Q 2906 1113 2906 1747 
Q 2906 2381 2643 2742 
Q 2381 3103 1925 3103 
Q 1469 3103 1208 2742 
Q 947 2381 947 1747 
z
" transform="scale(0.015625)"/>
        <path id="DejaVuSans-6f" d="M 1959 3097 
Q 1497 3097 1228 2736 
Q 959 2375 959 1747 
Q 959 1119 1226 758 
Q 1494 397 1959 397 
Q 2419 397 2687 759 
Q 2956 1122 2956 1747 
Q 2956 2369 2687 2733 
Q 2419 3097 1959 3097 
z
M 1959 3584 
Q 2709 3584 3137 3096 
Q 3566 2609 3566 1747 
Q 3566 888 3137 398 
Q 2709 -91 1959 -91 
Q 1206 -91 779 398 
Q 353 888 353 1747 
Q 353 2609 779 3096 
Q 1206 3584 1959 3584 
z
" transform="scale(0.015625)"/>
       </defs>
       <use xlink:href="#DejaVuSans-6b"/>
       <use xlink:href="#DejaVuSans-69" transform="translate(57.910156 0)"/>
       <use xlink:href="#DejaVuSans-64" transform="translate(85.693359 0)"/>
       <use xlink:href="#DejaVuSans-64" transform="translate(149.169922 0)"/>
       <use xlink:href="#DejaVuSans-6f" transform="translate(212.646484 0)"/>
      </g>
     </g>
    </g>
   </g>
   <g id="matplotlib.axis_2">
    <g id="ytick_1">
     <g id="line2d_8">
      <defs>
       <path id="m7f198f01f3" d="M 0 0 
L -3.5 0 
" style="stroke: #000000; stroke-width: 0.8"/>
      </defs>
      <g>
       <use xlink:href="#m7f198f01f3" x="44.178125" y="213.347806" style="stroke: #000000; stroke-width: 0.8"/>
      </g>
     </g>
     <g id="text_8">
      <!-- $\mathdefault{10^{-3}}$ -->
      <g transform="translate(13.678125 217.147025) scale(0.1 -0.1)">
       <defs>
        <path id="DejaVuSans-31" d="M 794 531 
L 1825 531 
L 1825 4091 
L 703 3866 
L 703 4441 
L 1819 4666 
L 2450 4666 
L 2450 531 
L 3481 531 
L 3481 0 
L 794 0 
L 794 531 
z
" transform="scale(0.015625)"/>
        <path id="DejaVuSans-30" d="M 2034 4250 
Q 1547 4250 1301 3770 
Q 1056 3291 1056 2328 
Q 1056 1369 1301 889 
Q 1547 409 2034 409 
Q 2525 409 2770 889 
Q 3016 1369 3016 2328 
Q 3016 3291 2770 3770 
Q 2525 4250 2034 4250 
z
M 2034 4750 
Q 2819 4750 3233 4129 
Q 3647 3509 3647 2328 
Q 3647 1150 3233 529 
Q 2819 -91 2034 -91 
Q 1250 -91 836 529 
Q 422 1150 422 2328 
Q 422 3509 836 4129 
Q 1250 4750 2034 4750 
z
" transform="scale(0.015625)"/>
        <path id="DejaVuSans-2212" d="M 678 2272 
L 4684 2272 
L 4684 1741 
L 678 1741 
L 678 2272 
z
" transform="scale(0.015625)"/>
        <path id="DejaVuSans-33" d="M 2597 2516 
Q 3050 2419 3304 2112 
Q 3559 1806 3559 1356 
Q 3559 666 3084 287 
Q 2609 -91 1734 -91 
Q 1441 -91 1130 -33 
Q 819 25 488 141 
L 488 750 
Q 750 597 1062 519 
Q 1375 441 1716 441 
Q 2309 441 2620 675 
Q 2931 909 2931 1356 
Q 2931 1769 2642 2001 
Q 2353 2234 1838 2234 
L 1294 2234 
L 1294 2753 
L 1863 2753 
Q 2328 2753 2575 2939 
Q 2822 3125 2822 3475 
Q 2822 3834 2567 4026 
Q 2313 4219 1838 4219 
Q 1578 4219 1281 4162 
Q 984 4106 628 3988 
L 628 4550 
Q 988 4650 1302 4700 
Q 1616 4750 1894 4750 
Q 2613 4750 3031 4423 
Q 3450 4097 3450 3541 
Q 3450 3153 3228 2886 
Q 3006 2619 2597 2516 
z
" transform="scale(0.015625)"/>
       </defs>
       <use xlink:href="#DejaVuSans-31" transform="translate(0 0.765625)"/>
       <use xlink:href="#DejaVuSans-30" transform="translate(63.623047 0.765625)"/>
       <use xlink:href="#DejaVuSans-2212" transform="translate(128.203125 39.046875) scale(0.7)"/>
       <use xlink:href="#DejaVuSans-33" transform="translate(186.855469 39.046875) scale(0.7)"/>
      </g>
     </g>
    </g>
    <g id="ytick_2">
     <g id="line2d_9">
      <g>
       <use xlink:href="#m7f198f01f3" x="44.178125" y="149.302809" style="stroke: #000000; stroke-width: 0.8"/>
      </g>
     </g>
     <g id="text_9">
      <!-- $\mathdefault{10^{-2}}$ -->
      <g transform="translate(13.678125 153.102028) scale(0.1 -0.1)">
       <defs>
        <path id="DejaVuSans-32" d="M 1228 531 
L 3431 531 
L 3431 0 
L 469 0 
L 469 531 
Q 828 903 1448 1529 
Q 2069 2156 2228 2338 
Q 2531 2678 2651 2914 
Q 2772 3150 2772 3378 
Q 2772 3750 2511 3984 
Q 2250 4219 1831 4219 
Q 1534 4219 1204 4116 
Q 875 4013 500 3803 
L 500 4441 
Q 881 4594 1212 4672 
Q 1544 4750 1819 4750 
Q 2544 4750 2975 4387 
Q 3406 4025 3406 3419 
Q 3406 3131 3298 2873 
Q 3191 2616 2906 2266 
Q 2828 2175 2409 1742 
Q 1991 1309 1228 531 
z
" transform="scale(0.015625)"/>
       </defs>
       <use xlink:href="#DejaVuSans-31" transform="translate(0 0.765625)"/>
       <use xlink:href="#DejaVuSans-30" transform="translate(63.623047 0.765625)"/>
       <use xlink:href="#DejaVuSans-2212" transform="translate(128.203125 39.046875) scale(0.7)"/>
       <use xlink:href="#DejaVuSans-32" transform="translate(186.855469 39.046875) scale(0.7)"/>
      </g>
     </g>
    </g>
    <g id="ytick_3">
     <g id="line2d_10">
      <g>
       <use xlink:href="#m7f198f01f3" x="44.178125" y="85.257813" style="stroke: #000000; stroke-width: 0.8"/>
      </g>
     </g>
     <g id="text_10">
      <!-- $\mathdefault{10^{-1}}$ -->
      <g transform="translate(13.678125 89.057031) scale(0.1 -0.1)">
       <use xlink:href="#DejaVuSans-31" transform="translate(0 0.684375)"/>
       <use xlink:href="#DejaVuSans-30" transform="translate(63.623047 0.684375)"/>
       <use xlink:href="#DejaVuSans-2212" transform="translate(128.203125 38.965625) scale(0.7)"/>
       <use xlink:href="#DejaVuSans-31" transform="translate(186.855469 38.965625) scale(0.7)"/>
      </g>
     </g>
    </g>
    <g id="ytick_4">
     <g id="line2d_11">
      <g>
       <use xlink:href="#m7f198f01f3" x="44.178125" y="21.212816" style="stroke: #000000; stroke-width: 0.8"/>
      </g>
     </g>
     <g id="text_11">
      <!-- $\mathdefault{10^{0}}$ -->
      <g transform="translate(19.578125 25.012035) scale(0.1 -0.1)">
       <use xlink:href="#DejaVuSans-31" transform="translate(0 0.765625)"/>
       <use xlink:href="#DejaVuSans-30" transform="translate(63.623047 0.765625)"/>
       <use xlink:href="#DejaVuSans-30" transform="translate(128.203125 39.046875) scale(0.7)"/>
      </g>
     </g>
    </g>
    <g id="ytick_5">
     <g id="line2d_12">
      <defs>
       <path id="mede71df54c" d="M 0 0 
L -2 0 
" style="stroke: #000000; stroke-width: 0.6"/>
      </defs>
      <g>
       <use xlink:href="#mede71df54c" x="44.178125" y="227.556109" style="stroke: #000000; stroke-width: 0.6"/>
      </g>
     </g>
    </g>
    <g id="ytick_6">
     <g id="line2d_13">
      <g>
       <use xlink:href="#mede71df54c" x="44.178125" y="223.268502" style="stroke: #000000; stroke-width: 0.6"/>
      </g>
     </g>
    </g>
    <g id="ytick_7">
     <g id="line2d_14">
      <g>
       <use xlink:href="#mede71df54c" x="44.178125" y="219.554408" style="stroke: #000000; stroke-width: 0.6"/>
      </g>
     </g>
    </g>
    <g id="ytick_8">
     <g id="line2d_15">
      <g>
       <use xlink:href="#mede71df54c" x="44.178125" y="216.278344" style="stroke: #000000; stroke-width: 0.6"/>
      </g>
     </g>
    </g>
    <g id="ytick_9">
     <g id="line2d_16">
      <g>
       <use xlink:href="#mede71df54c" x="44.178125" y="194.068341" style="stroke: #000000; stroke-width: 0.6"/>
      </g>
     </g>
    </g>
    <g id="ytick_10">
     <g id="line2d_17">
      <g>
       <use xlink:href="#mede71df54c" x="44.178125" y="182.790577" style="stroke: #000000; stroke-width: 0.6"/>
      </g>
     </g>
    </g>
    <g id="ytick_11">
     <g id="line2d_18">
      <g>
       <use xlink:href="#mede71df54c" x="44.178125" y="174.788876" style="stroke: #000000; stroke-width: 0.6"/>
      </g>
     </g>
    </g>
    <g id="ytick_12">
     <g id="line2d_19">
      <g>
       <use xlink:href="#mede71df54c" x="44.178125" y="168.582274" style="stroke: #000000; stroke-width: 0.6"/>
      </g>
     </g>
    </g>
    <g id="ytick_13">
     <g id="line2d_20">
      <g>
       <use xlink:href="#mede71df54c" x="44.178125" y="163.511112" style="stroke: #000000; stroke-width: 0.6"/>
      </g>
     </g>
    </g>
    <g id="ytick_14">
     <g id="line2d_21">
      <g>
       <use xlink:href="#mede71df54c" x="44.178125" y="159.223505" style="stroke: #000000; stroke-width: 0.6"/>
      </g>
     </g>
    </g>
    <g id="ytick_15">
     <g id="line2d_22">
      <g>
       <use xlink:href="#mede71df54c" x="44.178125" y="155.509411" style="stroke: #000000; stroke-width: 0.6"/>
      </g>
     </g>
    </g>
    <g id="ytick_16">
     <g id="line2d_23">
      <g>
       <use xlink:href="#mede71df54c" x="44.178125" y="152.233348" style="stroke: #000000; stroke-width: 0.6"/>
      </g>
     </g>
    </g>
    <g id="ytick_17">
     <g id="line2d_24">
      <g>
       <use xlink:href="#mede71df54c" x="44.178125" y="130.023344" style="stroke: #000000; stroke-width: 0.6"/>
      </g>
     </g>
    </g>
    <g id="ytick_18">
     <g id="line2d_25">
      <g>
       <use xlink:href="#mede71df54c" x="44.178125" y="118.74558" style="stroke: #000000; stroke-width: 0.6"/>
      </g>
     </g>
    </g>
    <g id="ytick_19">
     <g id="line2d_26">
      <g>
       <use xlink:href="#mede71df54c" x="44.178125" y="110.743879" style="stroke: #000000; stroke-width: 0.6"/>
      </g>
     </g>
    </g>
    <g id="ytick_20">
     <g id="line2d_27">
      <g>
       <use xlink:href="#mede71df54c" x="44.178125" y="104.537278" style="stroke: #000000; stroke-width: 0.6"/>
      </g>
     </g>
    </g>
    <g id="ytick_21">
     <g id="line2d_28">
      <g>
       <use xlink:href="#mede71df54c" x="44.178125" y="99.466115" style="stroke: #000000; stroke-width: 0.6"/>
      </g>
     </g>
    </g>
    <g id="ytick_22">
     <g id="line2d_29">
      <g>
       <use xlink:href="#mede71df54c" x="44.178125" y="95.178508" style="stroke: #000000; stroke-width: 0.6"/>
      </g>
     </g>
    </g>
    <g id="ytick_23">
     <g id="line2d_30">
      <g>
       <use xlink:href="#mede71df54c" x="44.178125" y="91.464414" style="stroke: #000000; stroke-width: 0.6"/>
      </g>
     </g>
    </g>
    <g id="ytick_24">
     <g id="line2d_31">
      <g>
       <use xlink:href="#mede71df54c" x="44.178125" y="88.188351" style="stroke: #000000; stroke-width: 0.6"/>
      </g>
     </g>
    </g>
    <g id="ytick_25">
     <g id="line2d_32">
      <g>
       <use xlink:href="#mede71df54c" x="44.178125" y="65.978348" style="stroke: #000000; stroke-width: 0.6"/>
      </g>
     </g>
    </g>
    <g id="ytick_26">
     <g id="line2d_33">
      <g>
       <use xlink:href="#mede71df54c" x="44.178125" y="54.700584" style="stroke: #000000; stroke-width: 0.6"/>
      </g>
     </g>
    </g>
    <g id="ytick_27">
     <g id="line2d_34">
      <g>
       <use xlink:href="#mede71df54c" x="44.178125" y="46.698883" style="stroke: #000000; stroke-width: 0.6"/>
      </g>
     </g>
    </g>
    <g id="ytick_28">
     <g id="line2d_35">
      <g>
       <use xlink:href="#mede71df54c" x="44.178125" y="40.492281" style="stroke: #000000; stroke-width: 0.6"/>
      </g>
     </g>
    </g>
    <g id="ytick_29">
     <g id="line2d_36">
      <g>
       <use xlink:href="#mede71df54c" x="44.178125" y="35.421118" style="stroke: #000000; stroke-width: 0.6"/>
      </g>
     </g>
    </g>
    <g id="ytick_30">
     <g id="line2d_37">
      <g>
       <use xlink:href="#mede71df54c" x="44.178125" y="31.133512" style="stroke: #000000; stroke-width: 0.6"/>
      </g>
     </g>
    </g>
    <g id="ytick_31">
     <g id="line2d_38">
      <g>
       <use xlink:href="#mede71df54c" x="44.178125" y="27.419418" style="stroke: #000000; stroke-width: 0.6"/>
      </g>
     </g>
    </g>
    <g id="ytick_32">
     <g id="line2d_39">
      <g>
       <use xlink:href="#mede71df54c" x="44.178125" y="24.143354" style="stroke: #000000; stroke-width: 0.6"/>
      </g>
     </g>
    </g>
    <g id="ytick_33">
     <g id="line2d_40">
      <g>
       <use xlink:href="#mede71df54c" x="44.178125" y="1.933351" style="stroke: #000000; stroke-width: 0.6"/>
      </g>
     </g>
    </g>
    <g id="text_12">
     <!-- Solve Time (Seconds) -->
     <g transform="translate(7.598438 168.019138) rotate(-90) scale(0.1 -0.1)">
      <defs>
       <path id="DejaVuSans-76" d="M 191 3500 
L 800 3500 
L 1894 563 
L 2988 3500 
L 3597 3500 
L 2284 0 
L 1503 0 
L 191 3500 
z
" transform="scale(0.015625)"/>
       <path id="DejaVuSans-6d" d="M 3328 2828 
Q 3544 3216 3844 3400 
Q 4144 3584 4550 3584 
Q 5097 3584 5394 3201 
Q 5691 2819 5691 2113 
L 5691 0 
L 5113 0 
L 5113 2094 
Q 5113 2597 4934 2840 
Q 4756 3084 4391 3084 
Q 3944 3084 3684 2787 
Q 3425 2491 3425 1978 
L 3425 0 
L 2847 0 
L 2847 2094 
Q 2847 2600 2669 2842 
Q 2491 3084 2119 3084 
Q 1678 3084 1418 2786 
Q 1159 2488 1159 1978 
L 1159 0 
L 581 0 
L 581 3500 
L 1159 3500 
L 1159 2956 
Q 1356 3278 1631 3431 
Q 1906 3584 2284 3584 
Q 2666 3584 2933 3390 
Q 3200 3197 3328 2828 
z
" transform="scale(0.015625)"/>
       <path id="DejaVuSans-63" d="M 3122 3366 
L 3122 2828 
Q 2878 2963 2633 3030 
Q 2388 3097 2138 3097 
Q 1578 3097 1268 2742 
Q 959 2388 959 1747 
Q 959 1106 1268 751 
Q 1578 397 2138 397 
Q 2388 397 2633 464 
Q 2878 531 3122 666 
L 3122 134 
Q 2881 22 2623 -34 
Q 2366 -91 2075 -91 
Q 1284 -91 818 406 
Q 353 903 353 1747 
Q 353 2603 823 3093 
Q 1294 3584 2113 3584 
Q 2378 3584 2631 3529 
Q 2884 3475 3122 3366 
z
" transform="scale(0.015625)"/>
       <path id="DejaVuSans-6e" d="M 3513 2113 
L 3513 0 
L 2938 0 
L 2938 2094 
Q 2938 2591 2744 2837 
Q 2550 3084 2163 3084 
Q 1697 3084 1428 2787 
Q 1159 2491 1159 1978 
L 1159 0 
L 581 0 
L 581 3500 
L 1159 3500 
L 1159 2956 
Q 1366 3272 1645 3428 
Q 1925 3584 2291 3584 
Q 2894 3584 3203 3211 
Q 3513 2838 3513 2113 
z
" transform="scale(0.015625)"/>
       <path id="DejaVuSans-73" d="M 2834 3397 
L 2834 2853 
Q 2591 2978 2328 3040 
Q 2066 3103 1784 3103 
Q 1356 3103 1142 2972 
Q 928 2841 928 2578 
Q 928 2378 1081 2264 
Q 1234 2150 1697 2047 
L 1894 2003 
Q 2506 1872 2764 1633 
Q 3022 1394 3022 966 
Q 3022 478 2636 193 
Q 2250 -91 1575 -91 
Q 1294 -91 989 -36 
Q 684 19 347 128 
L 347 722 
Q 666 556 975 473 
Q 1284 391 1588 391 
Q 1994 391 2212 530 
Q 2431 669 2431 922 
Q 2431 1156 2273 1281 
Q 2116 1406 1581 1522 
L 1381 1569 
Q 847 1681 609 1914 
Q 372 2147 372 2553 
Q 372 3047 722 3315 
Q 1072 3584 1716 3584 
Q 2034 3584 2315 3537 
Q 2597 3491 2834 3397 
z
" transform="scale(0.015625)"/>
      </defs>
      <use xlink:href="#DejaVuSans-53"/>
      <use xlink:href="#DejaVuSans-6f" transform="translate(63.476562 0)"/>
      <use xlink:href="#DejaVuSans-6c" transform="translate(124.658203 0)"/>
      <use xlink:href="#DejaVuSans-76" transform="translate(152.441406 0)"/>
      <use xlink:href="#DejaVuSans-65" transform="translate(211.621094 0)"/>
      <use xlink:href="#DejaVuSans-20" transform="translate(273.144531 0)"/>
      <use xlink:href="#DejaVuSans-54" transform="translate(304.931641 0)"/>
      <use xlink:href="#DejaVuSans-69" transform="translate(362.890625 0)"/>
      <use xlink:href="#DejaVuSans-6d" transform="translate(390.673828 0)"/>
      <use xlink:href="#DejaVuSans-65" transform="translate(488.085938 0)"/>
      <use xlink:href="#DejaVuSans-20" transform="translate(549.609375 0)"/>
      <use xlink:href="#DejaVuSans-28" transform="translate(581.396484 0)"/>
      <use xlink:href="#DejaVuSans-53" transform="translate(620.410156 0)"/>
      <use xlink:href="#DejaVuSans-65" transform="translate(683.886719 0)"/>
      <use xlink:href="#DejaVuSans-63" transform="translate(745.410156 0)"/>
      <use xlink:href="#DejaVuSans-6f" transform="translate(800.390625 0)"/>
      <use xlink:href="#DejaVuSans-6e" transform="translate(861.572266 0)"/>
      <use xlink:href="#DejaVuSans-64" transform="translate(924.951172 0)"/>
      <use xlink:href="#DejaVuSans-73" transform="translate(988.427734 0)"/>
      <use xlink:href="#DejaVuSans-29" transform="translate(1040.527344 0)"/>
     </g>
    </g>
   </g>
   <g id="line2d_41">
    <path d="M 70.273693 149.851005 
L 70.273693 40.688047 
" clip-path="url(#p4e30b94af7)" style="fill: none; stroke: #2f2f2f; stroke-width: 1.125; stroke-linecap: square"/>
   </g>
   <g id="line2d_42">
    <path d="M 70.273693 115.15572 
L 70.273693 82.603814 
" clip-path="url(#p4e30b94af7)" style="fill: none; stroke: #2f2f2f; stroke-width: 3.375; stroke-linecap: square"/>
   </g>
   <g id="line2d_43">
    <path d="M 70.273693 100.325782 
" clip-path="url(#p4e30b94af7)" style="fill: none; stroke: #2f2f2f; stroke-width: 1.5; stroke-linecap: square"/>
    <defs>
     <path id="m26bfd0be9c" d="M 1.40625 0 
L -1.40625 -0 
" style="stroke: #ffffff; stroke-width: 0.675"/>
    </defs>
    <g clip-path="url(#p4e30b94af7)">
     <use xlink:href="#m26bfd0be9c" x="70.273693" y="100.325782" style="fill: #ffffff; stroke: #ffffff; stroke-width: 0.675"/>
    </g>
   </g>
   <g id="line2d_44">
    <path d="M 122.464828 173.670068 
L 122.464828 50.050544 
" clip-path="url(#p4e30b94af7)" style="fill: none; stroke: #2f2f2f; stroke-width: 1.125; stroke-linecap: square"/>
   </g>
   <g id="line2d_45">
    <path d="M 122.464828 134.663325 
L 122.464828 97.612999 
" clip-path="url(#p4e30b94af7)" style="fill: none; stroke: #2f2f2f; stroke-width: 3.375; stroke-linecap: square"/>
   </g>
   <g id="line2d_46">
    <path d="M 122.464828 118.652147 
" clip-path="url(#p4e30b94af7)" style="fill: none; stroke: #2f2f2f; stroke-width: 1.5; stroke-linecap: square"/>
    <g clip-path="url(#p4e30b94af7)">
     <use xlink:href="#m26bfd0be9c" x="122.464828" y="118.652147" style="fill: #ffffff; stroke: #ffffff; stroke-width: 0.675"/>
    </g>
   </g>
   <g id="line2d_47">
    <path d="M 174.655963 162.85017 
L 174.655963 51.874181 
" clip-path="url(#p4e30b94af7)" style="fill: none; stroke: #2f2f2f; stroke-width: 1.125; stroke-linecap: square"/>
   </g>
   <g id="line2d_48">
    <path d="M 174.655963 128.625418 
L 174.655963 93.853532 
" clip-path="url(#p4e30b94af7)" style="fill: none; stroke: #2f2f2f; stroke-width: 3.375; stroke-linecap: square"/>
   </g>
   <g id="line2d_49">
    <path d="M 174.655963 112.357159 
" clip-path="url(#p4e30b94af7)" style="fill: none; stroke: #2f2f2f; stroke-width: 1.5; stroke-linecap: square"/>
    <g clip-path="url(#p4e30b94af7)">
     <use xlink:href="#m26bfd0be9c" x="174.655963" y="112.357159" style="fill: #ffffff; stroke: #ffffff; stroke-width: 0.675"/>
    </g>
   </g>
   <g id="line2d_50">
    <path d="M 226.847098 181.120017 
L 226.847098 55.242582 
" clip-path="url(#p4e30b94af7)" style="fill: none; stroke: #2f2f2f; stroke-width: 1.125; stroke-linecap: square"/>
   </g>
   <g id="line2d_51">
    <path d="M 226.847098 142.489066 
L 226.847098 103.566084 
" clip-path="url(#p4e30b94af7)" style="fill: none; stroke: #2f2f2f; stroke-width: 3.375; stroke-linecap: square"/>
   </g>
   <g id="line2d_52">
    <path d="M 226.847098 124.138132 
" clip-path="url(#p4e30b94af7)" style="fill: none; stroke: #2f2f2f; stroke-width: 1.5; stroke-linecap: square"/>
    <g clip-path="url(#p4e30b94af7)">
     <use xlink:href="#m26bfd0be9c" x="226.847098" y="124.138132" style="fill: #ffffff; stroke: #ffffff; stroke-width: 0.675"/>
    </g>
   </g>
   <g id="line2d_53">
    <path d="M 279.038233 128.289821 
L 279.038233 10.367294 
" clip-path="url(#p4e30b94af7)" style="fill: none; stroke: #2f2f2f; stroke-width: 1.125; stroke-linecap: square"/>
   </g>
   <g id="line2d_54">
    <path d="M 279.038233 93.591671 
L 279.038233 59.828809 
" clip-path="url(#p4e30b94af7)" style="fill: none; stroke: #2f2f2f; stroke-width: 3.375; stroke-linecap: square"/>
   </g>
   <g id="line2d_55">
    <path d="M 279.038233 76.774534 
" clip-path="url(#p4e30b94af7)" style="fill: none; stroke: #2f2f2f; stroke-width: 1.5; stroke-linecap: square"/>
    <g clip-path="url(#p4e30b94af7)">
     <use xlink:href="#m26bfd0be9c" x="279.038233" y="76.774534" style="fill: #ffffff; stroke: #ffffff; stroke-width: 0.675"/>
    </g>
   </g>
   <g id="line2d_56">
    <path d="M 331.229368 155.545255 
L 331.229368 35.518902 
" clip-path="url(#p4e30b94af7)" style="fill: none; stroke: #2f2f2f; stroke-width: 1.125; stroke-linecap: square"/>
   </g>
   <g id="line2d_57">
    <path d="M 331.229368 119.644567 
L 331.229368 83.042338 
" clip-path="url(#p4e30b94af7)" style="fill: none; stroke: #2f2f2f; stroke-width: 3.375; stroke-linecap: square"/>
   </g>
   <g id="line2d_58">
    <path d="M 331.229368 104.313602 
" clip-path="url(#p4e30b94af7)" style="fill: none; stroke: #2f2f2f; stroke-width: 1.5; stroke-linecap: square"/>
    <g clip-path="url(#p4e30b94af7)">
     <use xlink:href="#m26bfd0be9c" x="331.229368" y="104.313602" style="fill: #ffffff; stroke: #ffffff; stroke-width: 0.675"/>
    </g>
   </g>
   <g id="line2d_59">
    <path d="M 383.420504 165.88444 
L 383.420504 67.072342 
" clip-path="url(#p4e30b94af7)" style="fill: none; stroke: #2f2f2f; stroke-width: 1.125; stroke-linecap: square"/>
   </g>
   <g id="line2d_60">
    <path d="M 383.420504 139.572388 
L 383.420504 109.950432 
" clip-path="url(#p4e30b94af7)" style="fill: none; stroke: #2f2f2f; stroke-width: 3.375; stroke-linecap: square"/>
   </g>
   <g id="line2d_61">
    <path d="M 383.420504 125.274333 
" clip-path="url(#p4e30b94af7)" style="fill: none; stroke: #2f2f2f; stroke-width: 1.5; stroke-linecap: square"/>
    <g clip-path="url(#p4e30b94af7)">
     <use xlink:href="#m26bfd0be9c" x="383.420504" y="125.274333" style="fill: #ffffff; stroke: #ffffff; stroke-width: 0.675"/>
    </g>
   </g>
   <g id="patch_3">
    <path d="M 44.178125 228.080464 
L 44.178125 -0 
" style="fill: none; stroke: #000000; stroke-width: 0.8; stroke-linejoin: miter; stroke-linecap: square"/>
   </g>
   <g id="patch_4">
    <path d="M 44.178125 228.080464 
L 409.516071 228.080464 
" style="fill: none; stroke: #000000; stroke-width: 0.8; stroke-linejoin: miter; stroke-linecap: square"/>
   </g>
  </g>
 </g>
 <defs>
  <clipPath id="p4e30b94af7">
   <rect x="44.178125" y="-0" width="365.337946" height="228.080464"/>
  </clipPath>
 </defs>
</svg>
