<?xml version="1.0" encoding="UTF-8" standalone="no"?>
<!-- Created with Inkscape (http://www.inkscape.org/) -->

<svg
   version="1.1"
   id="svg1"
   width="2573.3333"
   height="2572"
   viewBox="0 0 2573.3333 2572"
   sodipodi:docname="traced"
   inkscape:version="1.4 (e7c3feb100, 2024-10-09)"
   xmlns:inkscape="http://www.inkscape.org/namespaces/inkscape"
   xmlns:sodipodi="http://sodipodi.sourceforge.net/DTD/sodipodi-0.dtd"
   xmlns="http://www.w3.org/2000/svg"
   xmlns:svg="http://www.w3.org/2000/svg">
  <defs
     id="defs1" />
  <sodipodi:namedview
     id="namedview1"
     pagecolor="#ffffff"
     bordercolor="#000000"
     borderopacity="0.25"
     inkscape:showpageshadow="2"
     inkscape:pageopacity="0.0"
     inkscape:pagecheckerboard="0"
     inkscape:deskcolor="#d1d1d1"
     inkscape:zoom="0.34253499"
     inkscape:cx="1059.7457"
     inkscape:cy="1288.9194"
     inkscape:window-width="1920"
     inkscape:window-height="1131"
     inkscape:window-x="26"
     inkscape:window-y="23"
     inkscape:window-maximized="0"
     inkscape:current-layer="g1" />
  <g
     inkscape:groupmode="layer"
     inkscape:label="Image"
     id="g1">
    <path
       style="fill:#0c0b0b;stroke:none"
       d="m 1072,89.333333 c -20.0012,83.790527 -14.7889,173.905277 -21.7494,259.999997 -1.7243,21.32748 -24.7462,67.79574 -14.9835,86.22624 12.0836,22.8125 53.837,-9.81917 72.7329,-8.64876 62.5468,3.87418 136.1461,-6.41732 198.6666,-13.34961 19.0813,-2.11572 53.8703,-3.75993 68.0781,-18.13949 12.6924,-12.8457 6.2852,-60.29769 6.636,-78.08838 1.3037,-66.13297 15.2483,-128.16455 4.6092,-194.66666 -2.7294,-17.0599 -4.0492,-54.259606 -22.3233,-62.53223 -17.2848,-7.82487 -58.702,11.15918 -78.3333,13.320475 C 1214.4281,81.261393 1142.5061,78.287923 1072,89.333333 M 1072,412 c -19.0746,-59.21419 6.9392,-160.98535 9.3569,-225.33333 0.5608,-14.92627 -3.6353,-60.90479 7.3,-71.2041 28.2369,-26.594731 103.8411,-11.08903 139.3431,-16.631515 25.3122,-3.95166 99.5984,-24.757813 120.8169,-11.053711 16.9163,10.925455 16.2852,45.124346 16.5091,62.889326 0.6985,55.39241 -8.2443,107.97509 -9.5738,162.66666 -0.3572,14.69694 5.7324,63.23503 -8.3134,72.61979 -11.624,7.76661 -39.9921,1.91423 -54.1055,5.33431 C 1225.0608,407.83187 1142.4304,406.84635 1072,412 m 738.6666,222.66667 c 0.8685,-7.2264 2.7254,-11.28207 9.3333,-14.66667 l 1.3334,-34.66667 c -26.968,-9.22851 -31.0239,-37.42171 -53.7357,-49.89062 -20.9285,-11.48991 -23.1672,13.04085 -14.0304,25.89014 5.3131,7.472 10.9396,14.09912 14.4327,22.66715 -72.615,-44.70231 -146.8951,-86.37663 -215.9999,-136.43294 -10.7719,-7.80257 -57.4825,-51.56755 -68.8539,-37.12224 -13.7578,17.47689 44.6546,42.74447 55.6545,51.77002 57.4573,47.1447 140.13,73.12614 191.9913,124.95085 9.6877,9.68083 -24.4244,18.96094 -7.2288,31.94759 14.0936,10.64388 68.5653,12.84554 87.1035,15.55339 m -1053.33329,-28 c 3.20703,-13.86182 -9.03963,-36.87761 -21.87557,-18.0612 -9.20597,13.49512 -31.65649,47.7168 -26.00513,64.31592 3.75936,11.04183 67.63705,5.36442 77.10628,-1.66651 15.76506,-11.70556 -24.59521,-13.7526 -11.0157,-27.38086 40.32422,-40.46923 101.36433,-90.15511 151.12418,-118.34212 6.29834,-3.56771 51.8256,-28.6416 33.70101,-38.21859 -12.99113,-6.86458 -35.78622,18.86068 -46.98706,23.75472 -57.06624,24.93425 -95.29012,95.54883 -156.04801,115.59864 M 1269.3333,616 c -13.3474,-2.486 -24.5173,-19.007 -38.4303,-16.66097 -14.8333,2.50114 -7.0251,19.05046 0.2116,25.04248 17.8888,14.81185 39.858,27.91553 62.2187,34.28516 5.8262,-8.07536 49.7515,-75.77409 27.1226,-81.04623 -15.0901,-3.51579 -25.7863,28.29623 -28.8909,25.58106 -30.0526,-26.28255 -10.9697,-90.57585 -36.8545,-115.20394 -15.0982,-14.36524 -22.0572,10.07568 -19.1612,21.33594 9.6052,37.34733 18.4307,71.02083 33.784,106.6665 m 36,10.66667 -2.6667,-12 c 5.9486,3.18619 6.8538,6.63281 2.6667,12 M 2098.6666,692 c 19.8045,32.51172 115.7349,-42.99137 45.4074,-20.34424 -6.2993,2.02848 -12.6455,3.01986 -18.7645,5.68506 -9.381,4.0861 -18.0327,9.16976 -26.6429,14.65918 m -328,4 c 2.6278,8.26497 5.3748,13.36296 14.6667,13.33333 -8.5156,15.55762 -5.0114,28.99056 -1.3334,45.33334 30.7886,-3.16407 21.9042,-80.76726 -13.3333,-58.66667 m 274.5472,-4.95719 c -9.8685,-0.84034 -56.6808,21.24967 -45.7684,24.39502 15.5532,4.48291 69.999,-22.33171 45.7684,-24.39502 M 1815.9999,728 c 26.2847,-7.65706 54.3153,-13.34049 81.3334,-17.90755 5.3138,-0.89828 25.2231,-2.43018 22.3426,-11.91179 -4.2525,-13.99707 -98.1546,15.13786 -103.676,29.81934 m -394.6861,-32.73779 c -71.8893,10.51774 -142.3345,20.62369 -215.9805,20.54052 -27.5378,-0.0311 -71.4058,-12.33349 -95.3312,8.23861 -14.7739,12.70313 -6.839,52.48014 -9.1296,70.62533 -7.9962,63.34375 -11.1209,137.7998 -11.4405,201.33333 -0.095,18.9355 -3.2267,52.0482 14.6991,63.459 19.5029,12.4147 60.1836,-5.3377 82.5355,-9.209 71.4795,-12.38 149.3232,6.0985 218.6667,-9.2419 8.39,-1.8561 29.0026,-4.0644 31.6803,-14.0071 1.6753,-6.2206 -12.1325,-35.34019 -11.3447,-48.33433 4.1211,-67.97282 4.4938,-134.83203 8.7832,-202.66667 1.0897,-17.23324 19.3101,-85.48519 -13.1383,-80.73779 M 745.33331,1058.6667 c -18.11605,-17.1057 -45.34098,-9.509 -68,-9.4042 -58.35188,0.2701 -115.90759,6.3202 -174.66666,4.2102 -12.35242,-0.4436 -44.98295,10.7182 -53.66487,4.5013 -13.68303,-9.7981 -12.26734,-49.4672 -12.9596,-64.64067 -2.50761,-54.96305 -6.68017,-107.77815 1.36992,-162.66666 2.39774,-16.34864 -3.44845,-40.7863 10.25642,-53.29086 24.01327,-21.90999 101.78902,-11.9331 133.66479,-17.34684 20.62891,-3.50358 111.27075,-26.26758 124.25488,-8.49154 19.77312,27.07064 5.94271,111.53646 9.53565,145.7959 3.87036,36.90495 8.18603,73.77767 12.24105,110.66667 1.04565,9.5124 0.56071,37.4977 17.52115,28.4645 15.63916,-8.3294 4.07772,-62.80402 1.28068,-77.79783 -13.5087,-72.41586 -23.8929,-158.73649 -12.83341,-232 -23.52588,-14.8628 -58.31767,-5.19922 -84,0.38737 -48.92472,10.64257 -100.54756,17.39713 -150.66666,19.31103 -22.58744,0.86263 -57.94067,-4.8706 -74.16906,15.50798 -27.27328,34.24804 -14.77922,127.4956 -13.59957,168.79362 0.97367,34.08724 -15.11174,130.12643 19.41015,151.92123 16.16187,10.2034 38.64986,-6.3047 55.02515,-8.3553 39.78943,-4.9826 83.35856,2.2728 123.99999,-0.4777 46.78858,-3.1665 91.81567,2.7269 136,-15.0882 M 1399.9108,724.97819 c 22.0963,-1.1377 12.4384,45.33854 10.1451,59.02181 -8.1676,48.73242 -10.5462,99.08219 -9.4036,148 0.4782,20.47054 7.182,63.4082 -3.8171,81.2876 -8.893,14.4559 -49.4636,4.7546 -63.5019,5.1886 -65.6152,2.0292 -135.1801,19.7084 -199.9792,17.753 -22.8403,-0.6893 -16.8861,-45.6055 -15.7308,-61.56253 4.1015,-56.64828 1.7812,-114.44759 8.3345,-170.66667 1.9264,-16.52588 -3.166,-43.55273 7.1308,-57.68245 12.5853,-17.27019 52.5334,-10.69646 70.9114,-10.70166 65.4717,-0.0187 130.4952,-7.2697 195.9108,-10.6377 m 757.4225,64.35514 c 54.9515,5.89014 -20.1403,-100.04134 -4.481,-25.33366 1.7829,8.50586 4.2279,16.59017 4.481,25.33366 m -360,81.33334 c 8.9523,-7.19515 19.7773,-59.95264 6.1144,-64.06039 -28.1183,-8.45361 -12.9329,54.53044 -6.1144,64.06039 m 381.3333,-4 c -39.5047,-33.55843 -9.703,54.53092 0,0 M 1777.3333,1004 c 11.3397,29.763 61.6177,3.2036 80,0.189 7.2347,-1.1866 29.2057,-0.3163 31.9736,-9.06335 4.974,-15.71907 -70.9233,-0.52995 -78.2572,-6.72819 -9.2167,-7.78955 -0.09,-33.36182 -0.7849,-44.26758 -0.4636,-7.27913 -5.7092,-16.41569 -14.5285,-12.94401 -17.4149,6.85547 4.4896,60.62077 -18.403,72.81413 m 387.7972,-66.12354 c -6.0863,3.20622 -15.5759,52.78402 -1.8646,47.382 15.8571,-6.24739 18.7365,-56.27002 1.8646,-47.382 m -97.1306,44.79021 c 3.3143,20.27803 51.6324,2.67008 68,0 l -4,-16 c -22.4729,4.26725 -42.9637,6.06526 -64,16 m -130.6666,4 c 10.7109,32.00843 136.2557,-14.68734 55.5799,-10.32715 -7.8981,0.42692 -15.7645,1.24967 -23.5799,2.45573 -11.364,1.75358 -21.6729,2.38574 -32,7.87142 m 200,-4 4,2.66666 -4,-2.66666 M 1272,1333.3333 c 27.447,-8.7838 16.0127,-27.8624 27.0678,-48.0654 6.2082,-11.3453 25.2722,-21.065 28.2237,-32.4207 7.1215,-27.4001 -37.2574,5.95 -40.6249,8.4861 -4.8418,-43.9458 -1.5202,-89.1842 -7.4167,-133.194 -1.5506,-11.5732 10.3913,-37.7951 -7.3668,-40.8522 -19.0916,-3.2868 -17.2876,28.0324 -16.8153,39.3796 1.7353,41.7002 18.2097,97.4807 4.3281,138.1333 -4.8486,14.199 -39.9075,-17.8877 -39.1909,7.3743 0.7424,26.1675 36.8858,43.2428 51.795,61.159 M 558.66665,1316 c -8.48779,-3.614 -14.49398,-10.5083 -22.66524,-14.4858 -35.95687,-17.5029 0.74699,69.6313 35.58858,59.5041 18.66182,-5.4242 54.98262,-77.7012 15.07666,-63.685 -10.88009,-42.786 0.12073,-92.6888 2.71224,-136 0.68375,-11.4272 5.63838,-41.7311 -4.23133,-49.6033 -18.55541,-14.8001 -22.7587,22.4321 -22.08748,32.27 3.86646,56.6702 -3.33024,115.0043 -4.39343,172 m 930.17645,28.0688 c -26.1727,3.1342 -24.5972,55.2559 -5.8078,53.8757 16.3237,-1.1991 11.1582,-54.5164 5.8078,-53.8757 m -87.5098,-0.3925 c -13.8023,1.3656 -87.143,19.4043 -71.69,23.6688 18.2799,5.0445 67.0982,-0.3064 84.9852,-6.4743 26.6242,-9.1809 1.7338,-18.6816 -13.2952,-17.1945 m -158.4809,17.0269 c -25.9927,10.7646 18.3693,15.9791 31.0371,9.6347 16.034,-8.0301 -23.2518,-12.8589 -31.0371,-9.6347 m -104.1858,0.2908 c -13.66,1.8712 -68.8214,-1.8583 -71.9332,17.5897 -1.2552,7.8445 76.1341,10.6406 86.437,7.6696 23.9709,-6.9131 2.1788,-27.5445 -14.5038,-25.2593 m -393.33386,6.6087 c -79.76839,14.9595 -158.78255,25.2485 -239.99942,31.3532 -21.37854,1.6069 -74.75049,-7.6733 -91.10527,6.7207 -13.97367,12.2985 -4.37426,50.8276 -5.10664,67.6567 -2.86882,65.9222 -5.90133,131.3662 -6.47274,197.3334 -0.11853,13.6852 -19.2994,69.173 -13.35632,73.1624 20.20699,13.5645 64.92171,-8.0729 86.70763,-9.0101 48.80689,-2.0993 99.2732,-5.499 148,-2.5833 38.11096,2.2806 77.46509,13.3895 115.40804,3.0727 27.60457,-7.5057 24.92472,-50.1007 25.59879,-71.3084 2.3405,-73.638 1.43034,-147.6146 1.65308,-221.3333 0.0586,-19.3851 11.94417,-81.3036 -21.32715,-75.064 m -310.66609,63.064 c 68.65047,-2.0319 141.50801,-11.681 209.33333,-22.3789 23.09558,-3.6429 71.99528,-19.4903 93.72908,-11.42 13.4965,5.0116 3.68612,60.0059 3.61247,72.4655 -0.35384,59.8692 2.07292,120.1416 -1.08488,180 -0.84863,16.086 3.47697,51.4392 -7.84709,63.9545 -11.67041,12.8977 -49.54549,0.6588 -64.40958,-0.8011 -56.08651,-5.509 -115.81974,-3.4776 -172,-1.7168 -14.0426,0.4401 -56.88879,17.2008 -66.64249,4.9474 -11.07886,-13.9181 -2.56771,-57.3928 -1.65955,-74.384 3.43266,-64.2228 -14.02469,-149.6959 6.96871,-210.6666 m 652.93155,2.8437 c -13.9271,8.4095 -8.3932,67.6576 14.7472,54.9974 12.1038,-6.6219 3.8765,-66.2425 -14.7472,-54.9974 M 1492,1446.6667 c -26.3817,-1.5266 -17.0707,64.2422 -5.4348,78.118 14.5181,17.3126 19.2416,-23.9883 15.5666,-32.7847 -6.6779,-15.9839 -13.1231,-27.5809 -10.1318,-45.3333 m -384,114.6666 c -22.4056,7.1281 -27.5912,55.869 -12.0742,73.1875 8.9331,9.9702 20.2826,-3.6731 19.2255,-13.2028 -1.1209,-10.1056 -2.2321,-19.0581 -1.7204,-29.318 0.5867,-11.7643 1.5663,-20.5824 -5.4309,-30.6667 M 1489.3333,1632 c 50.2407,-24.772 -21.5824,-104.1494 -5.2967,-24.0003 1.6787,8.2619 2.0989,16.0901 5.2967,24.0003 m -220,64 c 28.1443,-0.569 56.9628,-8.8509 84,-16 -6.1473,-24.9504 -82.755,-12.2783 -84,16 M 1496,1666.6667 c -9.9929,-2.4082 -84.4167,4.5024 -79.0604,17.7755 7.4617,18.4907 71.6482,-6.1489 79.0604,-17.7755 m -305.3339,9.2148 c -22.0135,3.6449 -64.4254,-1.6128 -82.5339,6.2761 -6.1191,2.6656 -21.7283,26.4899 -10.7939,30.4594 14.0221,5.0907 94.982,-12.063 107.0695,-20.1222 15.2841,-10.1908 -3.1901,-18.3605 -13.7417,-16.6133 M 583.99998,1976 c -12.20325,-0.7497 -28.63041,-20.7664 -39.90934,-13.8906 -20.37545,12.4214 37.19316,60.3458 51.6499,59.1868 15.06299,-1.2078 59.25285,-58.858 55.44844,-73.2155 -7.69559,-29.0423 -34.63704,18.8535 -42.74348,6.8389 -30.36336,-45.0023 25.11324,-119.1869 -0.12053,-160.0322 -7.91178,-12.8067 -26.13285,-1.2507 -26.63745,10.5794 -2.38045,55.8094 -4.96566,115.3024 2.31246,170.5332 m 470.66662,-26.6667 c -12.6102,13.3978 -54.6144,15.6874 -59.59957,34.4118 1.99804,-7.5045 107.31727,3.9997 108.04977,-26.9612 0.3055,-12.9115 -20.2099,-53.1696 -32.8557,-57.3876 -20.9049,-6.9728 -7.9173,28.6366 -34.2634,18.4465 -59.89063,-23.1639 -114.89861,-65.515 -170.66439,-96.8926 -10.27295,-5.7803 -47.23308,-44.3123 -56.16415,-20.6901 -7.31738,19.3542 70.75375,48.0259 84.16415,58.057 18.86857,14.1139 39.1031,26.6809 59.99999,37.611 34.21029,17.8935 68.7944,32.781 101.3333,53.4052 m 423.6193,53.9785 c -16.4046,-3.8027 -75.7526,29.6003 -72.7322,31.1078 20.9243,10.4438 83.6326,-28.5811 72.7322,-31.1078 M 1252,2044 c 9.9024,-0.6712 85.9628,-5.1629 79.0603,-22.0057 -6.1772,-15.0732 -72.8096,11.8337 -79.0603,22.0057 m 308.9817,-18.5457 c -18.4149,-3.0531 -13.8208,52.5804 -4.9004,54.4786 12.9559,2.757 19.8967,-51.9923 4.9004,-54.4786 m -390.1573,6.6385 c -17.5136,1.7171 -18.6283,64.0936 -0.1773,62.8873 14.9851,-0.9794 24.498,-65.2718 0.1773,-62.8873 M 798.66664,2400 c -10.03792,-0.6587 -22.09774,2.0446 -30.66666,-4 l 4,1.3333 c -15.684,-42.9093 -14.57683,-88.0369 -22.66667,-134.6666 7.98405,-17.7684 0.90259,-49.9704 0.11727,-69.3334 -1.3877,-34.2158 4.01212,-69.0612 8.60237,-102.6666 1.68539,-12.3389 8.61394,-42.668 -5.36848,-49.6286 -15.41504,-7.6737 -44.8016,5.1977 -60.68449,8.3013 -46.19625,9.0263 -93.54016,13.7205 -140,21.6901 -36.75541,6.3048 -76.16052,-0.053 -113.33333,3.8379 -10.92582,1.1435 -28.27876,-7.4704 -36.08516,3.3292 -13.7758,19.0581 -1.12179,67.8765 0.63619,90.0604 5.65015,71.2995 -8.3925,143.4959 -4.99988,214.4097 0.63835,13.3426 -16.90621,78.5677 -14.78601,80.5996 6.53182,6.2601 82.11934,-22.5251 96.56819,-24.8794 67.35433,-10.9748 138.13371,-13.2248 206.66666,-14.2601 36.00057,-0.544 83.64445,3.2199 112,-24.1268 m -377.33332,26.6667 c -12.01115,-73.8697 2.91528,-169.3187 5.27612,-245.194 0.65686,-21.111 -13.18811,-61.4966 5.38188,-78.0085 26.981,-23.9907 112.29036,-9.7315 148.00866,-17.0093 35.33187,-7.199 71.27511,-8.0653 106.66666,-14.4009 10.75399,-1.9251 30.96224,-10.3784 40.85677,-2.6406 13.83773,10.8215 2.16358,54.9932 0.48983,69.7684 -6.93587,61.2293 2.6534,127.0876 2.6534,188.8182 0,11.5553 14.63387,66.4118 11.66765,68.6548 -19.54745,14.7814 -77.09078,8.5542 -101.00098,8.692 -74.12337,0.4278 -146.7705,9.1545 -219.99999,21.3199 M 1572.0026,2148.4336 c -13.7116,7.9884 -8.3238,79.7419 7.2309,72.2127 8.6058,-4.1657 0.9719,-76.9918 -7.2309,-72.2127 m -1148.00261,6.6776 c 1.03112,0 0.21354,0.6637 -0.44446,0.4443 l 0.44446,-0.4443 m 734.96911,26.8567 c -16.2758,5.6486 -2.5753,56.5277 8.9601,53.3509 14.1393,-3.8938 12.9215,-60.9449 -8.9601,-53.3509 m 410.8523,111.371 c -11.9583,3.1691 -6.3626,72.5353 4.9756,70.4764 25.5882,-4.6464 11.9162,-74.953 -4.9756,-70.4764 m -403.1548,93.3278 c 12.0393,-5.7351 34.8678,-55.7701 17.8146,-63.5547 -25.1744,-11.4917 -22.8137,52.2277 -17.8146,63.5547 m 169.6154,-39.6643 c -21.5907,-8.9511 -69.8268,8.8449 -90.9263,15.7289 -6.6592,2.1727 -22.7868,14.9342 -10.3452,21.5008 7.3219,3.8643 85.4356,-16.9642 96.3863,-20.7186 5.7153,-1.9595 13.4472,-12.9613 4.8852,-16.5111 m 137.0318,-0.5825 c -20.3641,2.6657 -47.601,5.4702 -66.3676,13.6779 -10.6792,4.6706 -9.7187,18.8581 2.5997,19.9688 14.7291,1.3281 58.8535,-9.7502 71.5292,-16.0611 15.5333,-7.7334 5.6454,-19.3405 -7.7613,-17.5856 z"
       id="path1" />
  </g>
</svg>
