<?xml version="1.0" encoding="UTF-8" standalone="no"?>
<!-- Created with Inkscape (http://www.inkscape.org/) -->

<svg
   version="1.1"
   id="svg1"
   width="2707"
   height="2038"
   viewBox="0 0 2707 2038"
   sodipodi:docname="eytzinger.svg"
   inkscape:version="1.3.2 (091e20ef0f, 2023-11-25)"
   xmlns:inkscape="http://www.inkscape.org/namespaces/inkscape"
   xmlns:sodipodi="http://sodipodi.sourceforge.net/DTD/sodipodi-0.dtd"
   xmlns="http://www.w3.org/2000/svg"
   xmlns:svg="http://www.w3.org/2000/svg">
  <defs
     id="defs1" />
  <sodipodi:namedview
     id="namedview1"
     pagecolor="#ffffff"
     bordercolor="#000000"
     borderopacity="0.25"
     inkscape:showpageshadow="2"
     inkscape:pageopacity="0.0"
     inkscape:pagecheckerboard="0"
     inkscape:deskcolor="#d1d1d1"
     showgrid="false"
     inkscape:zoom="0.29283519"
     inkscape:cx="795.66939"
     inkscape:cy="1120.084"
     inkscape:window-width="1920"
     inkscape:window-height="1043"
     inkscape:window-x="0"
     inkscape:window-y="0"
     inkscape:window-maximized="1"
     inkscape:current-layer="g1" />
  <g
     inkscape:groupmode="layer"
     inkscape:label="Image"
     id="g1">
    <path
       style="fill:#11100e;stroke:none"
       d="m 1376,319 c -15.7411,-17.32227 -27.719,-12.7312 -48,-8.65417 -6.8453,1.37609 -14.5483,-0.97132 -20.9967,1.66699 -20.8977,8.55017 -38.1668,40.77966 -31.0046,62.98718 7.3802,22.88379 35.5651,23.77222 54.0013,14.60095 19.25,-9.57605 42.6193,-27.09436 47.1174,-49.60095 1.3868,-6.93872 -0.7968,-14.12048 -1.1174,-21 m -79,2 -1,1 1,-1 m 49.3057,1.57568 c 14.3194,-4.49499 17.9652,11.42957 13.143,21.42432 -7.5725,15.69568 -24.1128,31.3208 -41.4487,35.36011 -31.3641,7.30786 -33.8348,-27.28443 -17.34,-46.02368 11.8434,-13.45472 18.6244,1.55358 30.3129,0.0268 6.1718,-0.80615 9.2968,-8.89282 15.3328,-10.7876 M 1387,421 c 1.6011,13.89111 16.481,18.32483 21,31 15.3552,7.02991 37.172,25.04956 48,38 l 21,11 v 2 l 2,-1 c 6.2418,9.16223 20.994,14.34973 30,20.66431 11.8386,8.30066 22.271,18.64282 34.0593,26.958 12.4164,8.75831 26.5746,15.13001 38.826,24.0066 33.3189,24.14099 61.684,62.11389 100.1147,78.37109 -1.5024,3.27563 -12.9669,11.23254 -16,9 h -1 c -0.1292,3.94983 -1.1504,7.76514 -1.5032,11.69507 -1.7881,19.91943 25.7547,-3.03455 32.5032,-4.24756 7.1427,-1.28381 9.3043,4.73804 15.0868,6.80005 7.7561,2.76575 17.0095,-9.20703 18.9132,-15.24756 -7.976,-6.53442 -2.1658,-14.25085 -6.9695,-21.94043 -7.2305,-11.57422 -27.6553,-25.82068 -40.0312,-31.61255 C 1674.7405,602.58191 1665.9574,605.70703 1667,616 l -11,-5 v -1 c -7.324,-1.349 -15.5411,-8.23059 -20,-14 -14.3597,-2.73047 -21.5067,-24.46338 -37,-27 -6.6702,-10.7699 -24.292,-17.15784 -34.8036,-23.85535 -19.7878,-12.60803 -37.9396,-28.47741 -57.1726,-42.04712 C 1497.824,496.60669 1489.6543,488.03772 1478,486 c -3.1581,-13.20728 -37.5316,-14.90845 -36,-33 -12.4841,-8.0321 -28.6969,-20.66101 -34,-35 -8.7688,-1.60388 -13.6681,-3.06738 -21,3 m -220,23 c -13.801,1.10071 -17.8668,12.87549 -27.2068,20.31152 -17.9427,14.28516 -34.5179,30.25464 -52.3608,44.69287 -8.588,6.94935 -23.0771,15.41797 -28.4324,24.99561 l -2,-1 -19,16 c -2.4756,6.41443 -13.7249,13.05603 -19,17.56042 -16.184,13.81934 -32.29388,34.84034 -52,43.43958 2.14648,-8.22412 -1.70551,-28.52673 -13,-16 -5.55798,1.41272 -11.45715,10.39917 -12,16 -11.28284,8.14148 -26.26068,56.2876 -7.88196,62.35522 11.37293,3.75477 20.11102,-0.69152 30.88196,-3.57116 16.38226,-4.37989 34.16174,-6.92688 50,-12.78406 l 2,-8 c -17.33002,-9.76721 -30.69458,1.94214 -48,1 l -11,4 c 0.66833,-18.11292 30.98914,-36.99316 43,-49 45.4053,-45.39014 97.2798,-86.23608 146.863,-126.93335 11.9222,-9.78552 23.8898,-19.44617 37.137,-27.46228 5.5803,-3.37671 14.5911,-7.51404 16.0879,-14.65247 1.4656,-6.9895 -6.2254,-7.30273 -11.0879,-6.32141 -7.6122,1.53614 -19.954,8.02588 -23,15.36951 m 5,-5 -1,1 1,-1 m 491,177.33337 c 0.7732,0 0.1603,0.49781 -0.3334,0.33326 L 1663,616.33337 m -678.33331,28 0.66662,0.33326 -0.66662,-0.33326 M 988,646 l -1,1 1,-1 m 720,92 c -3.7272,5.97632 -18.2391,21.81226 -6.8988,27.83643 8.139,4.3236 14.9189,-7.74476 19.6243,-12.14991 11.2137,-10.49817 33.8715,-10.03833 41.8581,5.42896 7.9107,15.32031 -20.9815,39.45886 -30.5907,47.43164 -4.9411,4.09973 -13.1794,13.14526 -7.0129,19.82312 2.746,2.97375 8.4286,1.77014 12.02,1.57361 9.1462,-0.50061 17.8734,-3.50281 27,-3.79859 5.1891,-0.16821 9.8102,2.14075 14.9575,0.18091 9.6796,-3.68542 2.3052,-12.19372 -3.9576,-14.45312 -4.5727,-1.64966 -9.4085,-2.08985 -13.9999,-3.87305 1.4685,-4.40552 -0.6642,-8.19397 2,-12 6.8367,-9.7666 20.0485,-24.85461 15,-40 -2.0702,-6.21069 -16.7802,-14.87915 -16,-18 -11.9811,-1.99683 -21.2889,-11.90369 -36,-7 -5.4146,1.80481 -15.033,9.74182 -18,9 m -863.03137,-6.15125 c -12.81159,-1.82141 -12.63703,10.07325 -12.92884,18.8462 -0.66784,20.07861 4.81177,38.72583 7.62726,58.30505 0.99359,6.90979 -3.05291,22.63806 7.32343,23.70996 8.02222,0.82874 10.18609,-10.73254 9.86676,-16.65137 -0.4892,-9.06677 -4.49469,-17.9851 -5.71607,-26.99914 -1.57,-11.58716 -0.23364,-23.47998 -1.57275,-35.05945 -0.71423,-6.1759 5.3941,-20.73035 -4.59979,-22.15125 M 1572,1016 l -5,5 c -10.1403,-4.69 -7.5747,-24.52258 -21.9363,-20.8328 -6.7389,1.7314 -6.1977,10.4488 -6.0366,15.8328 0.3435,11.4758 0.7517,45.9338 12.9738,50.2754 12.7877,4.5427 33.7424,-25.1315 42.9958,-32.1375 9.7643,-7.3928 23.614,-11.6596 25.0033,-25.1379 l -14,-3 1,-4 c -7.0562,-9.46533 9.4801,-32.53491 13.5747,-42 14.5342,-33.5968 33.1834,-64.94873 48.1078,-98 3.2922,-7.29089 18.3909,-23.23633 16.8081,-30.9585 -1.5137,-7.38501 -11.2064,-3.53112 -14.6598,-0.479 -9.8965,8.74658 -15.6786,21.1333 -22.1223,32.44067 -21.455,37.64881 -39.5044,80.62317 -56.319,120.99683 -4.5,10.80505 -18.1949,21.4783 -20.3895,32 m -823,-157 -6,6 c 0.0984,6.94885 -10.19012,9.5625 -13.27777,15.08337 C 715.61334,905.31042 700.37195,930.49341 682.36108,954 678.1991,959.43201 668.81055,976.05151 662,977 c -10.38702,21.34192 -35.56372,33.2267 -46,54 l -2,-1 -1,3 h -1 c 0.57538,-6.8757 -0.0444,-14.441 2.20471,-21.0001 1.58612,-4.6258 6.22168,-10.8849 3.61768,-15.86721 -7.20465,-13.78503 -19.01129,5.85111 -21.73084,11.86731 -9.17163,20.2893 -23.96228,55.5863 -20.91253,77.882 1.07092,7.8292 9.83923,11.3433 16.82098,11.9929 14.18597,1.3197 43.09247,3.4115 53,-8.8749 -8.52393,-11.5779 -27.71466,-8.7168 -41,-7 18.47473,-37.7548 48.05682,-67.1799 74.85248,-99 19.31231,-22.93359 36.31805,-48.47644 53.46991,-73 9.73907,-13.9248 22.74029,-24.75354 32.28564,-38.44275 C 769.75378,864.17749 773.93359,859.30078 767,852 l -18,7 m 1244,233 c -3.0997,-1.4868 -8.3677,-2.3145 -9,2 l -8,3 c 4.0873,14.2499 42.5802,14.9961 53.9728,9.4153 8.8452,-4.333 13.0636,-14.6489 4.0272,-21.4153 l -6,-7 1,-3 -3,-1 1,-2 -12,-13 1,-3 -5,-7 c -8.9109,-5.3978 -19.4025,-9.8202 -29,-3 -21.6417,-26.4594 -53.9777,-44.7554 -76.6577,-71 -19.5012,-22.56616 -35.8754,-59.95752 -61.3423,-76 l 1,-2 -10,-13 v -1 -4 c 1.8604,-2.09106 -4.2198,-6.30017 -6.1759,-8.00464 -3.848,-3.35327 -20.1575,-28.63916 -27.9353,-16.77783 -4.7025,7.17126 1.2301,13.37329 4.8982,18.84265 10.1169,15.08508 22.437,28.63574 33.1666,43.35193 26.9099,36.90808 54.8474,72.94141 88.051,104.52769 22.406,21.3148 54.2823,40.8685 65.9954,71.0602 M 763,853.33337 c 0.7735,0 0.15991,0.49768 -0.33331,0.33326 L 763,853.33337 M 732,883 l -1,1 1,-1 m 132,18 c -5.5141,0.82617 -7.09174,4.8407 -6,10 h -2 l 2,13 7,-2 c 14.16266,28.0885 39.51532,53.29932 58.61829,78.0007 5.61633,7.2622 21.18951,19.6946 18.38171,29.9993 l 1,6 c -6.70239,-1.1216 -20.698,3.885 -12.2749,11.899 6.57385,6.2546 31.39038,14.915 40.2749,13.101 l 6,2 3,2 c 7.31921,-4.2749 19.33716,-1.4712 23,-11 4.0386,-0.5684 2.1742,-8.7163 1.4814,-12.0602 -2.0175,-9.7385 -3.1251,-37.4195 -9.56471,-43.85643 C 986.55267,989.72278 975.50671,998.98596 978,1009 l -2,-1 c 1.625,5.3745 -1.87952,21.7727 -10.42529,16.963 -8.78931,-4.9467 -16.08368,-18.6844 -22.51508,-26.39537 C 923.90521,975.60254 904.75397,952.44666 888.89905,927 885.28497,921.19958 874.63007,887.72168 864,901 m 1028,57 -1,1 1,-1 m -1262,80 -1,1 1,-1 m 1351,7 -1,1 1,-1 m -1000,19 1,1 -1,-1 m 1026.6666,44.3333 0.6668,0.3334 -0.6668,-0.3334 M 1489,1189 l 3,-2 c 4.4954,11.3318 24.4233,4.8813 32.7024,14.1428 7.4759,8.3629 -1.3356,21.4182 -11.1347,22.7981 -6.6839,0.9414 -14.6362,-5.1815 -20.5677,-7.9409 h -1 c -4.9059,9.9868 7.2944,24.5951 17.9896,24.6367 13.7649,0.053 27.7295,-15.782 31.7372,-27.6367 2.1693,-6.4165 2.2667,-19.8202 -5.7268,-22 -3.0619,-8.5206 -16.087,-10.5526 -24,-12 -2.3538,-14.0306 -0.2072,-26.8567 18,-28 l 19,-5.7385 32,-11.2615 v -2 l -6,-5 c -17.9231,1.4333 -36.8314,4.2301 -54,9.8018 -5.9574,1.9333 -14.1119,3.676 -18.4009,8.5932 -10.2954,11.8035 -8.9403,29.8489 -13.5991,43.605 m 71,-60 -1,1 1,-1 m -621,64 5,-1 -1,3 h 1 c 7.25433,-3.374 29.39087,-3.9133 38,-3.8479 3.59546,0.027 8.42639,0.4259 10.21063,4.0542 6.57782,13.3762 -1.22503,32.4475 4.78937,46.7937 11.3628,-0.2544 8.8224,-10.3809 9.8282,-19 1.6671,-14.287 1.7555,-28.7075 3.3348,-42.9966 0.6882,-6.2273 2.9344,-16.995 0.8776,-22.8843 -5.1405,-14.7193 -16.41346,1.3885 -20.0406,5.8809 -0.61163,16.3674 -33.64282,19.8755 -41.27301,7.9615 -5.05609,-7.8946 5.22992,-21.3978 -6.73138,-25.3001 -7.19532,-2.3474 -15.02094,4.2029 -15.51453,11.3386 -0.89478,12.9358 4.57892,25.4678 11.51892,36 m -443,-20 v 1 l 4,5 5,1 h 1 c 5.28549,-5.5012 13.45941,-16.8553 22,-16.6021 16.52863,0.4905 6.14575,19.3324 -3,22.6021 l -15,16 v 6 c 13.19135,10.2844 31.72955,1.3529 34,23 l -2,2 -3,-1 c -7.52112,4.3939 -20.64349,-6.3503 -29.89468,0.5236 -6.26035,4.6514 -0.90882,10.9537 4.59298,13.1333 22.90784,9.075 47.09314,-0.6285 52.3017,-23.6569 -8.54889,-7.5284 -14.37567,-16.3103 -26,-20 6.50702,-15.9515 27.56305,-34.6292 6.96948,-49.5664 -4.91107,-3.562 -11.19763,-3.1331 -15.96948,-6.4336 -18.19275,3.3406 -28.79224,8.8595 -35,27 m 1581,49 -2,10 h -2 l 1,5 c -11.958,-2.335 -14.428,-6.6628 -23,-14 3.7986,-18.7786 11.7297,-30.4729 21,-47 9.2764,2.019 36.2932,-11.688 26.614,-22.8435 -8.7724,-10.1104 -24.7331,0.7488 -32.5547,6.9134 -17.3742,13.6938 -42.4101,51.5431 -27.1693,73.93 15.1278,22.2207 48.4586,20.511 70.1093,10.0378 16.4885,-7.9759 25.1277,-26.303 13.302,-42.0079 -14.6597,-19.4683 -50.7464,-3.782 -45.3013,19.9702 m -1092,-32 -1,1 1,-1 m 1119,23 5,5 c -0.7773,8.0979 -11.5833,22.1815 -19,11 l 2,1 c -2.8242,-9.2639 2.4163,-16.1426 12,-17 m -601,10 -1,1 1,-1 m -958,6 -1,1 1,-1 m 1144,110 -3,-1 c -4.0991,2.8232 -11.7047,3.6493 -16,1 l -16,1 v 1 h 2 v 1 c -49.6876,0.286 -97.8156,10.4442 -147,15.7932 -13.6388,1.4833 -46.4192,-0.1067 -56,11.2068 -12.5321,-1.4502 -28.2227,2.855 -41,3.9028 -32.0179,2.6255 -65.6035,6.5222 -97.1086,12.5137 -25.5059,4.8505 -50.9126,13.707 -76.8914,15.4695 -10.2517,0.6954 -19.8688,-2.8157 -30,-3.7206 -26.2129,-2.3414 -52.7181,-4.359 -79,-5.1383 -34.4373,-1.0212 -66.2538,7.2549 -100,8.9133 -26.9258,1.3233 -53.97717,-3.5666 -81,-2.271 -29.2326,1.4018 -62.88446,8.3252 -91,16.1646 -14.28833,3.9839 -29.79712,14.508 -45,14.4376 -16.72784,-0.078 -34.76672,-11.5087 -51,-15.3524 -31.52319,-7.4644 -67.71362,-11.5415 -100,-13.8045 -29.08984,-2.039 -61.03229,-5.4086 -90,-1.7928 -17.76746,2.2178 -35.73523,3.2562 -53.43237,6.0579 -9.46396,1.4981 -18.99906,5.5023 -28.56763,3.6202 -5.86554,4.1104 -16.92172,3.0552 -23.99667,4.7448 -21.94056,5.2393 -43.48365,7.7535 -66.00333,9.7589 -11.37848,1.0131 -29.25064,2.0522 -39,8.4963 -5.33063,-3.1943 -24.23468,7.0363 -30,9.2281 -25.72635,9.7809 -70.93341,27.0456 -71,59.7719 15.89337,-1.5438 37.56256,-17.8964 52,-25.2406 26.68753,-13.5758 61.21173,-26.1414 91,-29.7594 v -1 h -2 v -1 c 14.59055,0.9319 30.64691,-6.1311 46,-6.1353 30.91949,-0.01 65.09293,7.2149 95,14.7679 11.17847,2.8231 34.68073,6.0711 43,13.3674 15.41803,-1.3127 23.75775,15.3745 37,16 l 19,16 -4.16669,11.6667 -18.66662,3.6666 L 613,1528 l 3,1 -3,1 v 1 l 5,-4 c 5.70831,-0.3533 9.61511,-4.2729 15.00336,-5.7234 11.6477,-3.1355 34.14074,0.4412 40.64386,-12.4875 4.67151,-9.2874 -1.76001,-19.43 0.35278,-28.7891 -4.04144,-5.2927 -4.67755,-17.6299 -13.03308,-18.4373 -10.62317,-1.0266 -10.86359,16.2183 -24.96692,10.9084 -12.28503,-4.6254 -22.56781,-15.0978 -35.11469,-20.1242 C 570.57556,1440.205 534.97559,1433.8718 503,1428 l 13,-7 c 13.8418,-9.6104 38.87903,-6.4568 54.99988,-9.2292 17.086,-2.9388 33.71094,-8e-4 51,0.1453 34.44214,0.2912 68.86432,0.9692 103.00012,7.2748 22.28473,4.1166 40.047,4.1527 54,23.8091 l -30,16 -1,3 -3,-1 c 6e-5,3.7563 -8.82898,6.2729 -12,8.1667 -8.36096,4.9933 -33.72284,18.8606 -28.83331,31.6666 1.17865,3.0871 5.70709,0.5573 7.83331,3.1667 h 1 c 1.01569,-6.0941 6.55627,-3.939 10,-7 5.45831,-4.8518 16.52704,-18.6182 23,-17 6.46497,-6.515 24.81445,-12.7792 34,-13 l 1,-3 43.9729,-10.3898 L 855,1463 c 4.01025,6.6495 13.2785,8.0063 20,11.0349 9.46167,4.2632 15.39539,9.2482 23,15.9651 v 1 l -1,6 c -4.71661,0.5272 -6.9444,3.5581 -8,8 l 6,3 c -6e-5,-2.5312 16.78369,-1.9468 20,0 h 1 c 5.06897,-3.4692 11.14716,-1.8586 15.27612,-7.5031 5.99262,-8.1921 5.63129,-41.1778 -4.67041,-46.4505 -7.70739,-3.9451 -11.32489,7.4344 -10.60571,12.9536 -12.44775,6.4445 -24.93988,0.1644 -37.00079,-6.2388 -2.82727,-1.5011 -9.50733,-3.7719 -10.56946,-7.1001 C 865.29694,1443.845 884.34375,1436.9124 891,1437 l 19,-5.5 61,-15.5 -1,-2 c 15.3269,-0.4368 29.56305,-5.2544 45,-5.0815 22.9448,0.2569 45.3315,6.2581 68,8.7764 15.2123,1.6901 38.5864,1.5158 45,19.3051 -12.3342,1.252 -25.4084,8.1204 -37,12.4817 -22.4724,8.4556 -43.6215,19.8179 -65,30.5934 -20.9147,10.5417 -42.10907,19.7957 -49,43.9249 h -3 l 1,2 h -2 l 1,4 c -115.77203,-0.066 -231.25305,-1.6708 -347,4.8949 -24.85925,1.4102 -51.53595,3.5242 -76.30505,2.1866 -9.13623,-0.4934 -29.1377,-4.4603 -36.69495,1.9185 l -15,-2 v 1 h 3 v 1 h -6 v -1 h 2 v -1 l -17,-3.3621 -20,3.3334 -59.80362,-3.7312 L 361,1535.7874 288,1535 v -1 h 3 v -1 l -57,-2 -56,-2 h -26 l -8,8 2,5 -4,10 1.05942,101 6.6457,48.0271 L 148,1724 l -2,-1 c 1.43782,10.2429 4.42604,17.2635 7.37088,27 1.05107,3.4751 0.13864,8.2854 3.97595,10.2378 7.00284,3.563 18.08013,1.7622 25.65317,1.7622 20.00775,0 39.96883,0.037 60,-0.2651 61.55328,-0.928 129.2066,-5.4506 190,6.0883 45.04144,8.5492 93.35138,2.0652 139,2.3247 18.58344,0.1056 37.30273,3.1138 56,2.7656 77.52631,-1.4438 154.45422,-4.9469 232,-4.6833 51.13141,0.1739 102.75958,4.3261 154,5.2683 32.9586,0.6062 66.0745,-3.1264 99,-2.6945 40.7335,0.5341 81.3177,2.4006 122.0033,3.0662 35.0372,0.5733 70.0566,0.472 104.9967,2.1894 22.3391,1.0979 46.7207,4.9853 69,0.9404 v 1 h -2 v 1 l 116,9.3176 126,0.6824 63,0.1971 19,-1.1971 c 7.7108,3.8555 26.6808,-1.39 34,-2 23.371,-1.9476 56.6251,2 81,2 12.5105,0 29.2834,-4.9292 41,-2 16.8506,4.2126 37.5067,-3 56,-3 24.0822,0 52.1577,0.4738 79,-4 5.7501,-0.9584 13.1508,2.2123 18,1 13.9561,-3.489 35.4751,-4 52,-4 9.9041,0 18.8494,3.2877 28,1 18.5813,-4.6453 38.4263,1.6434 57,-3 14.6172,-3.6543 32.6492,2.8376 48,-1 10.6477,-2.6619 21.3423,1.6644 32,-1 10.0935,-2.5233 23.584,2.354 33,0 17.9009,-4.4752 37.7593,-1.6466 54,-3 13.302,-1.1085 29.7676,3.8081 41,1 21.5903,-5.3976 47.6931,-1.1411 70,-3 15.3618,-1.2802 32.759,-2.1868 47,-1 10.8564,0.9047 42.4739,0.6304 44,-7 9.6443,1.7789 16.5125,-15.0951 17.3125,-23.0271 C 2565.9824,1709.504 2563.012,1673.585 2556,1648 l 1,-32 c -6.1199,-27.1338 6.3259,-55.342 2.6082,-82.137 -1.157,-8.3388 -15.6358,-21.5427 -23.6082,-13.863 -13.5913,-2.9958 -28.3979,0.07 -42,0.9303 -22.5203,1.4237 -45.408,0.2604 -68,1 -77.7646,2.5457 -155.4365,-0.1476 -233,1.2694 -20.2856,0.3706 -40.7009,-1.0215 -61,0 -17.3728,0.8764 -35.6213,3.9532 -53,0.7977 l 1,2 h -1 c -21.1562,-4.8298 -47.3862,1.252 -69,1.4954 -52.6322,0.5929 -105.2345,-0.2283 -158,0.8725 -29.6759,0.6192 -66.0803,-9.5904 -95,-1.3679 l -5,-3 -39,2 v 1 h 2 v 1 l -105,-0.6575 -48,-0.3425 c -4.1515,2.4678 -8.407,0.1646 -13.0033,0.4951 -10.8398,0.7796 -21.1227,1.8421 -31.9967,1.5319 -32.9402,-0.9396 -66.1073,0.6186 -99,1.4778 -99.3636,2.5952 -198.8843,0.1456 -298,-2.0585 -43.7852,-0.9736 -89.4379,6.6057 -133,0.5537 v -1 c 3.1958,-2.52 3.9101,-5.3813 2,-9 4.81702,-1.125 8.28961,-1.5659 11,-6 16.4615,2.2769 30.318,-10.4341 43.0596,-18.5724 12.07,-7.7093 33.49,-16.6401 47.9404,-16.4276 6.7034,-7.1119 29.2505,-12.4946 39,-13 l 36,-14 c 9.0797,1.1411 17.3108,-4.8817 27,-3.2241 11.3671,1.9446 23.1482,10.2702 33,15.9326 18.9486,10.8907 40.3188,17.3494 50,38.2915 -13.149,2.4222 -17.4852,2.9805 -25,13 7.2516,2.849 15.5024,-0.2771 23,-1.4053 10.066,-1.5144 22.7522,4.1262 31.6346,-2.5634 C 1323.859,1497.3059 1298.771,1440.5337 1277,1476 l -56,-30 c 4.9481,-3.2228 6.9072,-9.3591 12.1252,-12.1621 22.206,-11.9285 67.9089,-20.4509 89.8748,-3.8379 23.8536,-1.9243 53.9581,7.7506 77,13.4846 6.1497,1.5305 23.7875,11.3577 29,8.5154 13.0515,9.8706 35.1357,8.2416 47,20 l 23,9 v -1 l -3,-1 v -1 c 18.9464,7.8678 40.3488,31.1045 62,29.3567 9.7269,-0.7853 19.8893,-6.335 28,-11.3567 -2.7391,-14.6105 -12.4746,-18.0972 -21.757,-28.3425 -4.2325,-4.6715 -9.5866,-12.3128 -17.0374,-8.8057 -6.2491,2.9417 -2.7326,14.7156 -5.8538,19.9211 -3.782,6.3074 -21.0317,-3.6127 -25.3518,-6.7729 l -3,1 c -0.6296,-4.4248 -11.9263,-7.9501 -16,-9.6018 -14.178,-5.7488 -37.6155,-10.5613 -49,-20.3982 l -4,1 -8,-6 -12,-2 c -7.0394,0.2092 -22.2134,-2.0432 -28,-6 l -28,-4.5083 -40,-6.4917 10,-14 22,-8 3,1 31,-8 c 14.6876,2.5137 33.4009,-5.7856 49,-5.4987 40.0361,0.7364 79.9984,3.7541 120,5.3569 30.3334,1.2154 62.3513,2.112 92,10.1418 v -1 l -3,-1 v -1 l 15,3 12,4 c 2.9501,-0.9834 3.6217,-1.4868 3,1 17.9308,-2.7085 43.9247,5.5564 61.6949,9.6216 33.7979,7.7319 67.9207,11.3069 101.3051,21.8867 13.4935,4.2761 33.3184,3.2773 45,11.4917 9.4678,-0.014 20.2224,7.0481 28.9999,10.3627 25.0935,9.476 46.6697,19.1668 68.0001,34.6373 v 4 c -3.9971,2.9597 -3.3743,9.2758 2.0417,10.5276 5.1454,1.1892 11.7496,-1.8335 16.9583,-2.3305 6.462,-0.6164 13.7849,1.058 19.9999,-1.0806 23.4327,-8.0635 1.8465,-37.742 -5.9999,-50.1165 l -2,1 -5,-6 h -7 c -5.9916,7.9204 -6.5775,14.405 -7,24 -20.7688,-13.376 -45.8209,-20.7107 -69,-28.6018 -45.391,-15.4531 -92.349,-28.3109 -140,-35.5007 -20.0576,-3.0264 -43.5703,-13.7967 -64,-11.8975 v -2 l -54,-6.8855 L 1515,1376 c 36.916,-25.5985 91.6378,-14.6455 133,-24 v 2 l 17,-3 c 10.6263,2.752 23.3961,-0.1973 34.3051,-0.3447 24.4052,-0.3302 50.3565,-1.489 74.6949,0.951 49.1323,4.9258 99.0453,5.6588 148,12.2165 22.4315,3.0046 48.6422,13.9528 71,12.1772 v 1 l -2,1 26,4 35.9407,8.8594 L 2099,1402 l -1,2 10,3 -1,-2 h 1 l 59,19.6191 84.1963,34.5279 L 2272,1473 v 3 c -8.5149,1.5637 -15.0261,1.389 -17,11 l 3,-1 c 3.3882,4.5807 10.8188,3 16,3 13.8733,0 30.8579,4.1528 43,-4 l 2,-4 c -2.2283,-17.2206 -6.625,-28.2694 -15.5955,-43.3051 -2.238,-3.7513 -7.9731,-13.0299 -13.3615,-11.765 -9.5359,2.2386 -4.5496,23.6162 -12.0847,23.8311 -6.2349,0.1777 -15.1148,-6.0827 -20.9583,-8.1807 -15.8521,-5.6911 -34.0422,-9.8504 -49,-17.5803 l -62,-20.6074 -19,-3.3926 h -1 l -8,-6 -43,-8 v -1 l 2,-1 h -7 l -7,-2 -8,-2 c -4.3831,-5.4944 -22.968,-7.2905 -30,-8 -0.5647,-3.766 -10.4303,-3.5751 -14,-4.3518 -10.7445,-2.3379 -34.9503,-13.2698 -45,-8.6482 l -18,-5.5278 -60,-5.4722 c -7.175,3.7462 -15.4604,-1.5369 -23,-1.429 -29.1187,0.4165 -57.9333,-6.8623 -87,-5.6793 -7.2211,0.2938 -22.3281,-6.4867 -28,-0.8917 l -45,-2 -16,1 m 80,1 -1,1 1,-1 m 99,7 -1,1 1,-1 m -356,8 1,1 -1,-1 m 305,0 -1,1 1,-1 m -307,20 -1,1 1,-1 m -167,6 1,1 -1,-1 m 37,12 -1,1 1,-1 m 358,3 1,1 -1,-1 m -790,3.3333 c 0.77332,0 0.16028,0.498 -0.33331,0.3334 L 948,1399.3333 M 1195,1414 c -28.0469,18.0029 -72.6724,-1.6531 -103,-3 4.504,-6.089 21.6627,-5.4589 29,-7 l -2,-1 v -1 l 7,-1 v -1 h -2 c 23.0618,-8.6188 50.665,5.5123 71,14 m -71,-11 1,1 -1,-1 m 1036,4 1,1 -1,-1 m -1518,5 v 1 h 3 l -3,-1 m 432,3 -1,1 1,-1 m 752,1.3333 c 0.7736,0 0.1602,0.4979 -0.3334,0.3334 L 1826,1416.3333 M 930,1418 c -4.3056,5.3169 -15.70563,4.01 -22,5.7961 -11.25098,3.1927 -22.93274,5.2818 -34,9.1752 -12.86182,4.5247 -26.12061,12.2589 -40,8.0287 8.133,-9.899 21.45105,-11.5626 33.43237,-13.0688 C 888.3006,1425.3075 909.07941,1419.5148 930,1418 m 396,1.3333 c 0.7733,0 0.1603,0.498 -0.3334,0.3334 L 1326,1419.3333 M 1242,1423 c -17.71,3.9514 -33.2654,12.6951 -52,11 9.8269,-5.8469 27.7399,-11.2666 39,-13.3624 4.5142,-0.8402 9.8008,-1.3618 13,2.3624 m 54,-2 -1,1 1,-1 m -904,2 -1,1 1,-1 m 465,5 -1,1 1,-1 m 291,11 -1,1 1,-1 m 285,1 -1,1 1,-1 m -1026,1 -1,1 1,-1 m 751,3 7,2 v 1 c -10.9738,3.0563 -26.7729,9.994 -38,9 -6.2158,7.3148 -21.0981,8.9407 -30,11 5.4769,-10.8844 34.8228,-18.512 46,-23.7083 3.6321,-1.6886 14.2756,-5.0551 15,0.7083 m -767,2 -1,1 1,-1 m 1546,1 -1,1 1,-1 m -1080,17 -1,1 1,-1 m 2,1 -1,1 1,-1 m 3,1 -1,1 1,-1 m 234,0 -8,4 v -1 l 8,-3 m 425,9 2,1 v 1 l -2,-2 m -431,1 -1,1 1,-1 m 410,5 1,1 -1,-1 m -591,26 v 1 h 3 l -3,-1 m -291,6.3333 c 0.77325,0 0.1604,0.498 -0.33331,0.3334 L 618,1513.3333 m 1926,3.6667 1,1 -1,-1 m -1554,4 -1,1 1,-1 m 1481,0.3333 c 0.7737,0 0.1597,0.4978 -0.3333,0.3334 l 0.3333,-0.3334 m -348,1.6667 1,1 -1,-1 m -18,2 -1,1 1,-1 m -1285,5 -1,1 1,-1 m -315,8 -1,1 1,-1 m 1714,7 c 9.3293,6.3004 9.2961,31.5007 10.0264,42 2.7544,39.5972 3.1247,79.4753 6.7773,119 0.9761,10.5618 8.4893,38.2162 1.0498,47.1553 -3.4248,4.1152 -15.0076,1.9077 -19.7942,2.1505 -18.6772,0.9474 -39.7802,-2.4291 -58.0593,1.6942 l -28,-2 c -0.4878,3.8801 -30.3621,2.8341 -36,2.6296 -38.6348,-1.401 -79.5087,7.8099 -118,3.3704 v 1 h 2 v 1 c -29.5072,-1.3746 -59.4592,2.8086 -88.6949,5.7308 -22.0807,2.2071 -44.2454,0.4595 -66.3051,0.4971 -24.5841,0.042 -48.3718,2.9207 -73,0.7721 v 1 h 2 v 1 c -60.02,0 -122.3206,6.7913 -182,-1 v -8 c -4.9465,-0.7866 0.082,-8.6621 -0.3009,-12 -1.3723,-11.9763 -5.2144,-23.6779 -5.5186,-36 -1.0018,-40.5771 -9.3899,-81.7924 -13.3148,-122 -0.8438,-8.645 -6.6861,-35.8246 -1.3843,-42.7175 5.2477,-6.8225 17.7923,-7.2259 25.5186,-7.2825 17.3784,-0.1274 34.6415,-0.2228 52,-0.1759 68.3987,0.1846 136.9302,0.051 205.2593,-0.7037 16.5687,-0.1831 33.2052,1.8733 49.7407,1.8796 9.1351,0 17.6006,-1.8491 24.0648,5.7268 10.6007,12.424 5.5888,36.1627 7.0695,51.2732 4.7311,48.2805 8.2492,97.2074 8.8657,145 27.0762,13.8923 21,-27.0306 21,-42 l -2,1 c -0.2874,-23.5231 -6.3196,-47.7344 -9.6566,-71 -1.876,-13.0791 -0.4249,-27.0433 -2.8905,-40 -1.803,-9.4742 -6.2942,-37.978 1.8447,-44.9022 12.9985,-11.0585 43.6408,-6.4997 59.7128,-6.828 30.8624,-0.6305 62.3324,1.8617 92.9896,0.4743 22.8831,-1.0356 47.0669,-5.6754 70,-4.6524 16.343,0.729 32.6995,2.9095 49,2.9083 5.2549,-4e-4 14.2878,-2.3086 16,4 m 317,201 c -14.5864,-5.2091 -39.4387,1.5562 -55.1155,1.944 -47.2571,1.1687 -94.7136,2.7896 -141.8845,4.8664 -15.6536,0.6892 -31.3293,1.2794 -47,1.6876 -7.6973,0.2006 -15.9788,1.5986 -22.6836,-3.3087 -13.8127,-10.1095 -10.5373,-34.9019 -13.438,-49.7569 C 2246.0481,1651.0892 2247.116,1598.9806 2243,1548 c 25.2344,-10.9419 59.6692,-6.1129 87,-6.02 44.6294,0.1516 89.2661,-2.9833 134,-2.98 16.3135,0 32.7144,1.8038 49,1.4985 5.8508,-0.1096 15.6936,-4.4152 20.7024,-0.6505 9.1562,6.8821 4.4653,38.9407 3.6296,49.152 -3.3071,40.4047 6.7217,80.9503 1.9763,121 -1.5229,12.8531 4.9273,24.7872 -3.3083,36 m -1335,-3 c 5.8177,0.3724 13.3728,5.0579 14,-4 7.7429,-8.7344 -2.0737,-29.6914 -2.8884,-40 -3.006,-38.0354 -10.6168,-76.6779 -8.6587,-115 0.6827,-13.3628 -4.4257,-28.6459 8.0389,-38.1691 8.4046,-6.4212 23.7136,-3.6804 33.5082,-3.1353 21.5151,1.1973 48.8711,4.1405 70,0.3044 9.0991,6.1962 35.9161,1.7737 47,1.2871 37.6121,-1.6515 77.4573,-3.0061 115,-0.6516 10.3213,0.6473 42.33,-6.1449 48,3.3645 13.9977,3.2032 11.8387,42.1001 13.183,54 6.4889,57.4424 8.8528,113.0442 1.817,170 -30.9557,5.4606 -68.344,-3.2588 -99,-7.667 -7.3424,-1.0559 -25.8522,1.7675 -31,-3.333 l -13,2 v -1 h 2 v -1 c -49.2363,8.9392 -102.9062,-13.0458 -152,-2 l -10,-0.3334 -32,0.3334 1,-4 h -1 c -2.46,4.4691 -8.5111,3.0083 -13,2.6482 -10.9395,-0.8779 -22.0219,0.094 -33,-0.8889 -3.8577,-0.3454 -10.5967,1.6789 -13,-1.7593 -28.1206,6.3466 -63.3021,0.5023 -92,-1 v 1 h 2 v 1 c -32.9444,-0.9384 -65.95691,2.3469 -99,1.6279 -34.33179,-0.7469 -68.70551,-4.5394 -103,-5.2318 -59.67139,-1.2048 -119.63275,1.0396 -179.30505,2.496 -45.06537,1.1 -89.73835,0.5071 -134.69495,-0.8651 -18.02026,-0.5499 -44.32883,3.7604 -61,-3.027 l 3,-39 h -1 v 2 h -1 l 1,-68 -1,-24 c 4.10431,-18.0426 -2.08731,-47.0925 11.80798,-61.5876 5.80219,-6.0528 29.56769,-2.427 38.19202,-3.6935 36.03046,-5.2909 72.83179,-4.0587 108.98956,-8.2666 10.34992,-1.2045 29.61188,1.7005 38.01044,-4.4523 h 73 v -1 h -2 v -1 c 18.01447,3.7266 39.77063,3.228 58,1 l 17,9 -10,71 3,26 v 37 1 c 7.83447,13.468 -4.51544,35.8025 4.59802,48.7996 10.1723,14.5069 17.74951,0.6748 17.724,-10.7997 C 838.27832,1704.3538 830.39935,1680.3287 826,1661 c 4.21759,0 0.15015,-15.3969 0,-19 -0.47571,-11.417 -0.7854,-23.6904 0,-35 0.66235,-9.538 5.21326,-20.5975 4,-30 4.57611,-6.6863 4.67828,-19.1702 4,-27 l 6,-2 -1,-2 7,-4 114,2 v -1 h -2 v -1 h 89 l 34,1 c 3.3613,-3.0901 10.5942,-2.0195 14.9929,-1.9807 12.0064,0.1059 23.9523,-0.019 36.0071,-0.019 15.7202,0 43.5046,-4.2899 55.2068,8.0602 3.5693,3.7669 2.2145,9.2152 2.4123,13.9398 0.5053,12.0615 1.6531,23.9761 2.6729,36 4.0566,47.8335 1.1236,96.9539 8.708,144 m -305,-201 -1,1 1,-1 m 707,0 v 1 h 3 l -3,-1 M 463,1687 h -1 v -2 h -1 c 1.38269,15.8496 -0.35794,32.3796 1.42465,48 0.68982,6.0448 6.6116,14.1188 -1.42465,17 v 1 l 3,2 c -54.93665,2.876 -111.7782,-8.3457 -167,-8.9167 -27.29242,-0.2824 -54.74002,-0.052 -82,-0.083 -14.45714,-0.016 -29.93524,2.513 -44,-2.0001 l -1,-44 h -1 v 3 h -1 l -8.77057,-93 1.94907,-36.3051 L 162,1557 c 1.49197,-3.2014 2.71654,-8.5884 6.17233,-10.1976 6.30237,-2.935 17.3676,1.6616 23.82767,2.591 11.80362,1.6982 24.99803,0.5666 37,0.6073 36.55582,0.1242 72.62341,4.3865 109,5.8575 23.25598,0.9404 46.87927,-3.262 70,-1.7369 15.34863,1.0124 47.5416,-5.5932 59.2756,6.8933 6.47904,6.8946 -0.80358,26.8456 -1.94345,34.9854 -4.18869,29.9119 -2.50552,60.8816 -2.33215,91 m 156,-139 -1,1 1,-1 m -217,6 1,1 -1,-1 m 148.66669,1.3334 0.66662,0.3332 -0.66662,-0.3332 M 467,1574 l 1,1 -1,-1 m 912,25 c 1.512,2.705 5.3851,5.9558 5.5563,9.1042 0.5666,10.4247 -20.4099,14.7111 -21.0702,26.3282 -0.702,12.3513 22.0162,16.2756 26.4357,27.5683 6.7728,17.3064 -24.2898,32.149 -37.9218,31.427 -9.1785,-0.486 -14.465,-4.0776 -24,-1.4277 7.9706,32.191 57.774,9.1891 69.8486,-8.2068 7.442,-10.7218 6.3687,-25.3889 -0.8845,-35.7827 -2.9108,-4.1711 -9.7639,-7.8135 -9.9121,-13.3262 -0.3623,-13.4741 15.5232,-21.8493 14.6001,-35.6739 -0.5801,-8.6874 -8.7971,-12.5464 -16.6521,-12.9502 -12.8855,-0.6625 -48.5865,6.9703 -47.8741,24.8657 0.1705,4.2852 5.301,5.6483 8.7594,4.3488 12.5744,-4.725 18.5533,-14.1744 33.1147,-16.2747 m 358,37 -36.4811,-7.2659 L 1692,1622 l 1,-2 c -4.4436,-8.7737 6.4967,-19.6138 -0.429,-27.6539 -6.1958,-7.193 -15.7924,-3.8183 -18.4731,4.7133 -3.3951,10.8053 -3.7742,30.3327 4.0804,39.448 9.6911,11.2468 28.4112,8.6066 41.8488,10.4206 4.3304,0.5846 11.6334,2.6377 15.5571,-0.078 3.3332,-2.3067 1.5579,-7.5059 1.4158,-10.8503 m 24,-48 c -4.3171,5.4075 -8.9685,18.8457 -2,24 -3.7057,18.417 -7.926,40.1262 -6,59 h -1 v -2 h -1 l 4,51 c 4.91,-0.4011 10.6212,0.2213 13.5781,-4.6127 3.331,-5.4452 0.7786,-14.5703 -0.062,-20.3866 -1.6598,-11.4878 2.5866,-23.5949 -0.5164,-35.0007 l 4,-12 c -2.2969,-18.6035 15.3915,-53.0331 -11,-60 m 294,24 c 0.6223,9.4263 2.5754,24.761 12.1284,29.6149 7.6675,3.8958 16.3943,0.1823 22.4155,8.0277 12.139,15.8163 -0.5871,33.1545 -7.5439,47.3574 l -2,-1 c -6.0134,6.0559 -15.072,5.7947 -23,7 -2.5969,-6.5457 -13.0126,-21.5269 -20,-24 -12.1224,23.1849 9.2357,44.0264 32.8853,40.8225 22.7543,-3.0826 37.0859,-25.6396 38.1733,-46.8225 0.3154,-6.146 3.3845,-18.0508 -1.0586,-23 -0.4587,-8.0461 -6.6699,-15.9689 -13.0007,-20.548 -3.441,-2.4889 -11.2539,-7.0606 -10.5681,-12.1302 1.4025,-10.3689 24.0297,-11.4691 31.5688,-12.7376 3.322,-0.5589 9.5435,-0.7237 10.4624,-4.8713 2.7517,-12.4204 -12.8611,-8.9358 -19.4624,-7.9916 -21.1687,3.0277 -35.8047,5.2069 -51,20.2787 m 364,87 c 0,-1.996 8.3127,-4.7664 11,-6.1666 6.0823,-3.1698 12.5854,-10.7571 13.6667,-17.8334 1.4466,-9.4678 -7.3178,-18.0569 -14.6667,-21.8334 -18.606,-9.5613 -37.3928,2.7801 -52,14 -5.498,4.2233 -10.6555,9.9931 -18,8.8334 l 2,3 -4,1 c 0.261,-21.3943 10.22,-43.6176 29.1182,-55.1936 7.2675,-4.4517 35.1276,-8.3912 35.2292,-17.8693 0.1961,-18.306 -28.362,-4.8792 -36.1782,-0.446 -20.8284,11.8136 -39.1458,36.4784 -42.6091,60.5089 -2.5201,17.4854 12.7763,38.627 31.4399,38.9615 15.3982,0.276 30.0503,-6.7611 45,-6.9615 M 979,1603 c -14.36841,0.8677 -32.27448,18.4431 -29,33 10.35425,-3.5027 15.88306,-15.9315 26,-21.2957 16.14618,-8.561 39.314,-1.2082 39.1206,19.7281 -0.1834,19.8501 -10.4717,35.5431 -25.66442,47.8126 -4.88123,3.942 -11.80085,10.7953 -7.92469,17.6256 4.00641,7.0598 12.84705,4.0132 19.46851,4.3926 17.8762,1.0246 35.1652,0.7731 53,0.7368 v -1 c -2.4902,-3.635 -2.1116,-9.0386 -7.0907,-10.5981 -8.3428,-2.6131 -30.7274,2.2983 -35.7621,-5.6995 -4.0977,-6.5093 1.3654,-15.8496 4.1572,-21.7024 6.0978,-12.7837 11.9612,-25.5231 8.6956,-40 l 2,1 v -1 -3 c -8.3963,-9.0803 -31.31006,-41.3953 -47,-20 m -152,5 1,1 -1,-1 m -184,60 -2,-1 c 2.4884,9.1431 -2.31653,39.2946 10.8139,41.9402 9.4231,1.8987 6.48743,-15.4481 6.10291,-19.9402 -1.78308,-20.8298 0.58417,-50.4697 -6.54761,-69.9958 -3.84656,-10.5315 -15.25378,-7.0718 -16.18902,3.0229 -1.18573,12.7986 4.94244,33.2177 7.81982,45.9729 m -264,-17 -4,-2 1,-3 -3,-6 c -13.2222,-10.6195 -28.46619,-23.0397 -47,-18 l -5,-7 -2,3 -4,-5 -9,1 v 3 c -8.15198,1.0244 1.39084,43.1167 14,21 21.19757,3.8557 30.41367,7.3608 42,27 l -1,6 -13,17 -3,-1 c -5.21716,6.072 -14.20447,10.4517 -22,12 l 1,2 -9,3 v -2 c -26.02637,10.6118 -83.96841,10.1171 -66.88182,-33 9.50932,-23.9962 33.61269,-34.1274 48.88182,-53 l -1,-3 c -35.61444,1.869 -85.7843,55.8291 -62.39519,91.9728 22.33118,34.5088 91.60491,14.1676 118.09014,-4.599 11.5809,-8.2058 21.86193,-18.2212 25.63955,-32.2591 C 378.92502,1662.2043 376.15039,1656.5 379,1651 m -78,-36 -1,5 h 1 v -5 m 1755.6667,2.6666 -0.3334,0.6668 0.3334,-0.6668 m 499.6666,0 0.3334,0.6668 -0.3334,-0.6668 M 306,1618 l -1,1 1,-1 m 718,5.3334 c 0.7733,0 0.1603,0.4978 -0.3333,0.3332 L 1024,1623.3334 M 322,1637 l -1,1 1,-1 m 158,23 1,1 -1,-1 m 1457.3334,1.6666 0.3332,0.6668 -0.3332,-0.6668 M 2401,1668.6273 c 21.9292,-6.4107 27.79,12.5202 5.0105,19.1187 -4.3281,1.2538 -13.8162,4.6764 -17.9363,2.8431 -13.8948,-6.1822 6.3206,-20.0308 12.9258,-21.9618 m -45,2.3727 -1,1 1,-1 m -2004,13 -2,2 2,-2 m -106,7 -1,1 1,-1 m 587,6 -1,1 1,-1 m 364,40 1,1 -1,-1 m 1323.6667,7.3334 0.6666,0.3332 -0.6666,-0.3332 M 823,1749 v -2 l -3,2 v 1 l 5,-1 v 2 h 4 l -2,-5 -4,3 m 387,0 1,1 -1,-1 m -2,1 1,1 -1,-1 m 730,13 1,1 -1,-1 m -487.3334,1.3334 0.6668,0.3332 -0.6668,-0.3332 M 1488,1767 l 1,1 -1,-1 m 85,0 1,1 -1,-1 m 313,0 1,1 -1,-1 m -1323,2 -1,1 1,-1 m 1193,3 -1,1 1,-1 m 428,1 1,1 -1,-1 m -710,10.3334 c 0.7733,0 0.1602,0.4978 -0.3334,0.3332 l 0.3334,-0.3332 m 33,3.6666 1,1 -1,-1 m 18,0.3334 c 0.7733,0 0.1603,0.4978 -0.3334,0.3332 l 0.3334,-0.3332 m 8,-0.3334 -1,1 1,-1 m 72,1 -1,1 z"
       id="path1" />
  </g>
</svg>
