<?xml version="1.0" encoding="utf-8" standalone="no"?>
<!DOCTYPE svg PUBLIC "-//W3C//DTD SVG 1.1//EN"
  "http://www.w3.org/Graphics/SVG/1.1/DTD/svg11.dtd">
<svg xmlns:xlink="http://www.w3.org/1999/xlink" width="460.8pt" height="345.6pt" viewBox="0 0 460.8 345.6" xmlns="http://www.w3.org/2000/svg" version="1.1">
 <metadata>
  <rdf:RDF xmlns:dc="http://purl.org/dc/elements/1.1/" xmlns:cc="http://creativecommons.org/ns#" xmlns:rdf="http://www.w3.org/1999/02/22-rdf-syntax-ns#">
   <cc:Work>
    <dc:type rdf:resource="http://purl.org/dc/dcmitype/StillImage"/>
    <dc:date>2024-02-14T15:11:40.027983</dc:date>
    <dc:format>image/svg+xml</dc:format>
    <dc:creator>
     <cc:Agent>
      <dc:title>Matplotlib v3.6.3, https://matplotlib.org/</dc:title>
     </cc:Agent>
    </dc:creator>
   </cc:Work>
  </rdf:RDF>
 </metadata>
 <defs>
  <style type="text/css">*{stroke-linejoin: round; stroke-linecap: butt}</style>
 </defs>
 <g id="figure_1">
  <g id="patch_1">
   <path d="M 0 345.6 
L 460.8 345.6 
L 460.8 0 
L 0 0 
z
" style="fill: #ffffff"/>
  </g>
  <g id="axes_1">
   <g id="patch_2">
    <path d="M 57.6 307.584 
L 414.72 307.584 
L 414.72 41.472 
L 57.6 41.472 
z
" style="fill: #ffffff"/>
   </g>
   <g id="matplotlib.axis_1">
    <g id="xtick_1">
     <g id="line2d_1">
      <defs>
       <path id="m378109d098" d="M 0 0 
L 0 3.5 
" style="stroke: #000000; stroke-width: 0.8"/>
      </defs>
      <g>
       <use xlink:href="#m378109d098" x="73.832727" y="307.584" style="stroke: #000000; stroke-width: 0.8"/>
      </g>
     </g>
     <g id="text_1">
      <!-- 0.00 -->
      <g transform="translate(62.699915 322.182437) scale(0.1 -0.1)">
       <defs>
        <path id="DejaVuSans-30" d="M 2034 4250 
Q 1547 4250 1301 3770 
Q 1056 3291 1056 2328 
Q 1056 1369 1301 889 
Q 1547 409 2034 409 
Q 2525 409 2770 889 
Q 3016 1369 3016 2328 
Q 3016 3291 2770 3770 
Q 2525 4250 2034 4250 
z
M 2034 4750 
Q 2819 4750 3233 4129 
Q 3647 3509 3647 2328 
Q 3647 1150 3233 529 
Q 2819 -91 2034 -91 
Q 1250 -91 836 529 
Q 422 1150 422 2328 
Q 422 3509 836 4129 
Q 1250 4750 2034 4750 
z
" transform="scale(0.015625)"/>
        <path id="DejaVuSans-2e" d="M 684 794 
L 1344 794 
L 1344 0 
L 684 0 
L 684 794 
z
" transform="scale(0.015625)"/>
       </defs>
       <use xlink:href="#DejaVuSans-30"/>
       <use xlink:href="#DejaVuSans-2e" x="63.623047"/>
       <use xlink:href="#DejaVuSans-30" x="95.410156"/>
       <use xlink:href="#DejaVuSans-30" x="159.033203"/>
      </g>
     </g>
    </g>
    <g id="xtick_2">
     <g id="line2d_2">
      <g>
       <use xlink:href="#m378109d098" x="114.260379" y="307.584" style="stroke: #000000; stroke-width: 0.8"/>
      </g>
     </g>
     <g id="text_2">
      <!-- 0.25 -->
      <g transform="translate(103.127566 322.182437) scale(0.1 -0.1)">
       <defs>
        <path id="DejaVuSans-32" d="M 1228 531 
L 3431 531 
L 3431 0 
L 469 0 
L 469 531 
Q 828 903 1448 1529 
Q 2069 2156 2228 2338 
Q 2531 2678 2651 2914 
Q 2772 3150 2772 3378 
Q 2772 3750 2511 3984 
Q 2250 4219 1831 4219 
Q 1534 4219 1204 4116 
Q 875 4013 500 3803 
L 500 4441 
Q 881 4594 1212 4672 
Q 1544 4750 1819 4750 
Q 2544 4750 2975 4387 
Q 3406 4025 3406 3419 
Q 3406 3131 3298 2873 
Q 3191 2616 2906 2266 
Q 2828 2175 2409 1742 
Q 1991 1309 1228 531 
z
" transform="scale(0.015625)"/>
        <path id="DejaVuSans-35" d="M 691 4666 
L 3169 4666 
L 3169 4134 
L 1269 4134 
L 1269 2991 
Q 1406 3038 1543 3061 
Q 1681 3084 1819 3084 
Q 2600 3084 3056 2656 
Q 3513 2228 3513 1497 
Q 3513 744 3044 326 
Q 2575 -91 1722 -91 
Q 1428 -91 1123 -41 
Q 819 9 494 109 
L 494 744 
Q 775 591 1075 516 
Q 1375 441 1709 441 
Q 2250 441 2565 725 
Q 2881 1009 2881 1497 
Q 2881 1984 2565 2268 
Q 2250 2553 1709 2553 
Q 1456 2553 1204 2497 
Q 953 2441 691 2322 
L 691 4666 
z
" transform="scale(0.015625)"/>
       </defs>
       <use xlink:href="#DejaVuSans-30"/>
       <use xlink:href="#DejaVuSans-2e" x="63.623047"/>
       <use xlink:href="#DejaVuSans-32" x="95.410156"/>
       <use xlink:href="#DejaVuSans-35" x="159.033203"/>
      </g>
     </g>
    </g>
    <g id="xtick_3">
     <g id="line2d_3">
      <g>
       <use xlink:href="#m378109d098" x="154.68803" y="307.584" style="stroke: #000000; stroke-width: 0.8"/>
      </g>
     </g>
     <g id="text_3">
      <!-- 0.50 -->
      <g transform="translate(143.555217 322.182437) scale(0.1 -0.1)">
       <use xlink:href="#DejaVuSans-30"/>
       <use xlink:href="#DejaVuSans-2e" x="63.623047"/>
       <use xlink:href="#DejaVuSans-35" x="95.410156"/>
       <use xlink:href="#DejaVuSans-30" x="159.033203"/>
      </g>
     </g>
    </g>
    <g id="xtick_4">
     <g id="line2d_4">
      <g>
       <use xlink:href="#m378109d098" x="195.115681" y="307.584" style="stroke: #000000; stroke-width: 0.8"/>
      </g>
     </g>
     <g id="text_4">
      <!-- 0.75 -->
      <g transform="translate(183.982869 322.182437) scale(0.1 -0.1)">
       <defs>
        <path id="DejaVuSans-37" d="M 525 4666 
L 3525 4666 
L 3525 4397 
L 1831 0 
L 1172 0 
L 2766 4134 
L 525 4134 
L 525 4666 
z
" transform="scale(0.015625)"/>
       </defs>
       <use xlink:href="#DejaVuSans-30"/>
       <use xlink:href="#DejaVuSans-2e" x="63.623047"/>
       <use xlink:href="#DejaVuSans-37" x="95.410156"/>
       <use xlink:href="#DejaVuSans-35" x="159.033203"/>
      </g>
     </g>
    </g>
    <g id="xtick_5">
     <g id="line2d_5">
      <g>
       <use xlink:href="#m378109d098" x="235.543332" y="307.584" style="stroke: #000000; stroke-width: 0.8"/>
      </g>
     </g>
     <g id="text_5">
      <!-- 1.00 -->
      <g transform="translate(224.41052 322.182437) scale(0.1 -0.1)">
       <defs>
        <path id="DejaVuSans-31" d="M 794 531 
L 1825 531 
L 1825 4091 
L 703 3866 
L 703 4441 
L 1819 4666 
L 2450 4666 
L 2450 531 
L 3481 531 
L 3481 0 
L 794 0 
L 794 531 
z
" transform="scale(0.015625)"/>
       </defs>
       <use xlink:href="#DejaVuSans-31"/>
       <use xlink:href="#DejaVuSans-2e" x="63.623047"/>
       <use xlink:href="#DejaVuSans-30" x="95.410156"/>
       <use xlink:href="#DejaVuSans-30" x="159.033203"/>
      </g>
     </g>
    </g>
    <g id="xtick_6">
     <g id="line2d_6">
      <g>
       <use xlink:href="#m378109d098" x="275.970984" y="307.584" style="stroke: #000000; stroke-width: 0.8"/>
      </g>
     </g>
     <g id="text_6">
      <!-- 1.25 -->
      <g transform="translate(264.838171 322.182437) scale(0.1 -0.1)">
       <use xlink:href="#DejaVuSans-31"/>
       <use xlink:href="#DejaVuSans-2e" x="63.623047"/>
       <use xlink:href="#DejaVuSans-32" x="95.410156"/>
       <use xlink:href="#DejaVuSans-35" x="159.033203"/>
      </g>
     </g>
    </g>
    <g id="xtick_7">
     <g id="line2d_7">
      <g>
       <use xlink:href="#m378109d098" x="316.398635" y="307.584" style="stroke: #000000; stroke-width: 0.8"/>
      </g>
     </g>
     <g id="text_7">
      <!-- 1.50 -->
      <g transform="translate(305.265822 322.182437) scale(0.1 -0.1)">
       <use xlink:href="#DejaVuSans-31"/>
       <use xlink:href="#DejaVuSans-2e" x="63.623047"/>
       <use xlink:href="#DejaVuSans-35" x="95.410156"/>
       <use xlink:href="#DejaVuSans-30" x="159.033203"/>
      </g>
     </g>
    </g>
    <g id="xtick_8">
     <g id="line2d_8">
      <g>
       <use xlink:href="#m378109d098" x="356.826286" y="307.584" style="stroke: #000000; stroke-width: 0.8"/>
      </g>
     </g>
     <g id="text_8">
      <!-- 1.75 -->
      <g transform="translate(345.693474 322.182437) scale(0.1 -0.1)">
       <use xlink:href="#DejaVuSans-31"/>
       <use xlink:href="#DejaVuSans-2e" x="63.623047"/>
       <use xlink:href="#DejaVuSans-37" x="95.410156"/>
       <use xlink:href="#DejaVuSans-35" x="159.033203"/>
      </g>
     </g>
    </g>
    <g id="xtick_9">
     <g id="line2d_9">
      <g>
       <use xlink:href="#m378109d098" x="397.253937" y="307.584" style="stroke: #000000; stroke-width: 0.8"/>
      </g>
     </g>
     <g id="text_9">
      <!-- 2.00 -->
      <g transform="translate(386.121125 322.182437) scale(0.1 -0.1)">
       <use xlink:href="#DejaVuSans-32"/>
       <use xlink:href="#DejaVuSans-2e" x="63.623047"/>
       <use xlink:href="#DejaVuSans-30" x="95.410156"/>
       <use xlink:href="#DejaVuSans-30" x="159.033203"/>
      </g>
     </g>
    </g>
    <g id="text_10">
     <!-- Absolute distance error (m) -->
     <g transform="translate(167.47875 335.860562) scale(0.1 -0.1)">
      <defs>
       <path id="DejaVuSans-41" d="M 2188 4044 
L 1331 1722 
L 3047 1722 
L 2188 4044 
z
M 1831 4666 
L 2547 4666 
L 4325 0 
L 3669 0 
L 3244 1197 
L 1141 1197 
L 716 0 
L 50 0 
L 1831 4666 
z
" transform="scale(0.015625)"/>
       <path id="DejaVuSans-62" d="M 3116 1747 
Q 3116 2381 2855 2742 
Q 2594 3103 2138 3103 
Q 1681 3103 1420 2742 
Q 1159 2381 1159 1747 
Q 1159 1113 1420 752 
Q 1681 391 2138 391 
Q 2594 391 2855 752 
Q 3116 1113 3116 1747 
z
M 1159 2969 
Q 1341 3281 1617 3432 
Q 1894 3584 2278 3584 
Q 2916 3584 3314 3078 
Q 3713 2572 3713 1747 
Q 3713 922 3314 415 
Q 2916 -91 2278 -91 
Q 1894 -91 1617 61 
Q 1341 213 1159 525 
L 1159 0 
L 581 0 
L 581 4863 
L 1159 4863 
L 1159 2969 
z
" transform="scale(0.015625)"/>
       <path id="DejaVuSans-73" d="M 2834 3397 
L 2834 2853 
Q 2591 2978 2328 3040 
Q 2066 3103 1784 3103 
Q 1356 3103 1142 2972 
Q 928 2841 928 2578 
Q 928 2378 1081 2264 
Q 1234 2150 1697 2047 
L 1894 2003 
Q 2506 1872 2764 1633 
Q 3022 1394 3022 966 
Q 3022 478 2636 193 
Q 2250 -91 1575 -91 
Q 1294 -91 989 -36 
Q 684 19 347 128 
L 347 722 
Q 666 556 975 473 
Q 1284 391 1588 391 
Q 1994 391 2212 530 
Q 2431 669 2431 922 
Q 2431 1156 2273 1281 
Q 2116 1406 1581 1522 
L 1381 1569 
Q 847 1681 609 1914 
Q 372 2147 372 2553 
Q 372 3047 722 3315 
Q 1072 3584 1716 3584 
Q 2034 3584 2315 3537 
Q 2597 3491 2834 3397 
z
" transform="scale(0.015625)"/>
       <path id="DejaVuSans-6f" d="M 1959 3097 
Q 1497 3097 1228 2736 
Q 959 2375 959 1747 
Q 959 1119 1226 758 
Q 1494 397 1959 397 
Q 2419 397 2687 759 
Q 2956 1122 2956 1747 
Q 2956 2369 2687 2733 
Q 2419 3097 1959 3097 
z
M 1959 3584 
Q 2709 3584 3137 3096 
Q 3566 2609 3566 1747 
Q 3566 888 3137 398 
Q 2709 -91 1959 -91 
Q 1206 -91 779 398 
Q 353 888 353 1747 
Q 353 2609 779 3096 
Q 1206 3584 1959 3584 
z
" transform="scale(0.015625)"/>
       <path id="DejaVuSans-6c" d="M 603 4863 
L 1178 4863 
L 1178 0 
L 603 0 
L 603 4863 
z
" transform="scale(0.015625)"/>
       <path id="DejaVuSans-75" d="M 544 1381 
L 544 3500 
L 1119 3500 
L 1119 1403 
Q 1119 906 1312 657 
Q 1506 409 1894 409 
Q 2359 409 2629 706 
Q 2900 1003 2900 1516 
L 2900 3500 
L 3475 3500 
L 3475 0 
L 2900 0 
L 2900 538 
Q 2691 219 2414 64 
Q 2138 -91 1772 -91 
Q 1169 -91 856 284 
Q 544 659 544 1381 
z
M 1991 3584 
L 1991 3584 
z
" transform="scale(0.015625)"/>
       <path id="DejaVuSans-74" d="M 1172 4494 
L 1172 3500 
L 2356 3500 
L 2356 3053 
L 1172 3053 
L 1172 1153 
Q 1172 725 1289 603 
Q 1406 481 1766 481 
L 2356 481 
L 2356 0 
L 1766 0 
Q 1100 0 847 248 
Q 594 497 594 1153 
L 594 3053 
L 172 3053 
L 172 3500 
L 594 3500 
L 594 4494 
L 1172 4494 
z
" transform="scale(0.015625)"/>
       <path id="DejaVuSans-65" d="M 3597 1894 
L 3597 1613 
L 953 1613 
Q 991 1019 1311 708 
Q 1631 397 2203 397 
Q 2534 397 2845 478 
Q 3156 559 3463 722 
L 3463 178 
Q 3153 47 2828 -22 
Q 2503 -91 2169 -91 
Q 1331 -91 842 396 
Q 353 884 353 1716 
Q 353 2575 817 3079 
Q 1281 3584 2069 3584 
Q 2775 3584 3186 3129 
Q 3597 2675 3597 1894 
z
M 3022 2063 
Q 3016 2534 2758 2815 
Q 2500 3097 2075 3097 
Q 1594 3097 1305 2825 
Q 1016 2553 972 2059 
L 3022 2063 
z
" transform="scale(0.015625)"/>
       <path id="DejaVuSans-20" transform="scale(0.015625)"/>
       <path id="DejaVuSans-64" d="M 2906 2969 
L 2906 4863 
L 3481 4863 
L 3481 0 
L 2906 0 
L 2906 525 
Q 2725 213 2448 61 
Q 2172 -91 1784 -91 
Q 1150 -91 751 415 
Q 353 922 353 1747 
Q 353 2572 751 3078 
Q 1150 3584 1784 3584 
Q 2172 3584 2448 3432 
Q 2725 3281 2906 2969 
z
M 947 1747 
Q 947 1113 1208 752 
Q 1469 391 1925 391 
Q 2381 391 2643 752 
Q 2906 1113 2906 1747 
Q 2906 2381 2643 2742 
Q 2381 3103 1925 3103 
Q 1469 3103 1208 2742 
Q 947 2381 947 1747 
z
" transform="scale(0.015625)"/>
       <path id="DejaVuSans-69" d="M 603 3500 
L 1178 3500 
L 1178 0 
L 603 0 
L 603 3500 
z
M 603 4863 
L 1178 4863 
L 1178 4134 
L 603 4134 
L 603 4863 
z
" transform="scale(0.015625)"/>
       <path id="DejaVuSans-61" d="M 2194 1759 
Q 1497 1759 1228 1600 
Q 959 1441 959 1056 
Q 959 750 1161 570 
Q 1363 391 1709 391 
Q 2188 391 2477 730 
Q 2766 1069 2766 1631 
L 2766 1759 
L 2194 1759 
z
M 3341 1997 
L 3341 0 
L 2766 0 
L 2766 531 
Q 2569 213 2275 61 
Q 1981 -91 1556 -91 
Q 1019 -91 701 211 
Q 384 513 384 1019 
Q 384 1609 779 1909 
Q 1175 2209 1959 2209 
L 2766 2209 
L 2766 2266 
Q 2766 2663 2505 2880 
Q 2244 3097 1772 3097 
Q 1472 3097 1187 3025 
Q 903 2953 641 2809 
L 641 3341 
Q 956 3463 1253 3523 
Q 1550 3584 1831 3584 
Q 2591 3584 2966 3190 
Q 3341 2797 3341 1997 
z
" transform="scale(0.015625)"/>
       <path id="DejaVuSans-6e" d="M 3513 2113 
L 3513 0 
L 2938 0 
L 2938 2094 
Q 2938 2591 2744 2837 
Q 2550 3084 2163 3084 
Q 1697 3084 1428 2787 
Q 1159 2491 1159 1978 
L 1159 0 
L 581 0 
L 581 3500 
L 1159 3500 
L 1159 2956 
Q 1366 3272 1645 3428 
Q 1925 3584 2291 3584 
Q 2894 3584 3203 3211 
Q 3513 2838 3513 2113 
z
" transform="scale(0.015625)"/>
       <path id="DejaVuSans-63" d="M 3122 3366 
L 3122 2828 
Q 2878 2963 2633 3030 
Q 2388 3097 2138 3097 
Q 1578 3097 1268 2742 
Q 959 2388 959 1747 
Q 959 1106 1268 751 
Q 1578 397 2138 397 
Q 2388 397 2633 464 
Q 2878 531 3122 666 
L 3122 134 
Q 2881 22 2623 -34 
Q 2366 -91 2075 -91 
Q 1284 -91 818 406 
Q 353 903 353 1747 
Q 353 2603 823 3093 
Q 1294 3584 2113 3584 
Q 2378 3584 2631 3529 
Q 2884 3475 3122 3366 
z
" transform="scale(0.015625)"/>
       <path id="DejaVuSans-72" d="M 2631 2963 
Q 2534 3019 2420 3045 
Q 2306 3072 2169 3072 
Q 1681 3072 1420 2755 
Q 1159 2438 1159 1844 
L 1159 0 
L 581 0 
L 581 3500 
L 1159 3500 
L 1159 2956 
Q 1341 3275 1631 3429 
Q 1922 3584 2338 3584 
Q 2397 3584 2469 3576 
Q 2541 3569 2628 3553 
L 2631 2963 
z
" transform="scale(0.015625)"/>
       <path id="DejaVuSans-28" d="M 1984 4856 
Q 1566 4138 1362 3434 
Q 1159 2731 1159 2009 
Q 1159 1288 1364 580 
Q 1569 -128 1984 -844 
L 1484 -844 
Q 1016 -109 783 600 
Q 550 1309 550 2009 
Q 550 2706 781 3412 
Q 1013 4119 1484 4856 
L 1984 4856 
z
" transform="scale(0.015625)"/>
       <path id="DejaVuSans-6d" d="M 3328 2828 
Q 3544 3216 3844 3400 
Q 4144 3584 4550 3584 
Q 5097 3584 5394 3201 
Q 5691 2819 5691 2113 
L 5691 0 
L 5113 0 
L 5113 2094 
Q 5113 2597 4934 2840 
Q 4756 3084 4391 3084 
Q 3944 3084 3684 2787 
Q 3425 2491 3425 1978 
L 3425 0 
L 2847 0 
L 2847 2094 
Q 2847 2600 2669 2842 
Q 2491 3084 2119 3084 
Q 1678 3084 1418 2786 
Q 1159 2488 1159 1978 
L 1159 0 
L 581 0 
L 581 3500 
L 1159 3500 
L 1159 2956 
Q 1356 3278 1631 3431 
Q 1906 3584 2284 3584 
Q 2666 3584 2933 3390 
Q 3200 3197 3328 2828 
z
" transform="scale(0.015625)"/>
       <path id="DejaVuSans-29" d="M 513 4856 
L 1013 4856 
Q 1481 4119 1714 3412 
Q 1947 2706 1947 2009 
Q 1947 1309 1714 600 
Q 1481 -109 1013 -844 
L 513 -844 
Q 928 -128 1133 580 
Q 1338 1288 1338 2009 
Q 1338 2731 1133 3434 
Q 928 4138 513 4856 
z
" transform="scale(0.015625)"/>
      </defs>
      <use xlink:href="#DejaVuSans-41"/>
      <use xlink:href="#DejaVuSans-62" x="68.408203"/>
      <use xlink:href="#DejaVuSans-73" x="131.884766"/>
      <use xlink:href="#DejaVuSans-6f" x="183.984375"/>
      <use xlink:href="#DejaVuSans-6c" x="245.166016"/>
      <use xlink:href="#DejaVuSans-75" x="272.949219"/>
      <use xlink:href="#DejaVuSans-74" x="336.328125"/>
      <use xlink:href="#DejaVuSans-65" x="375.537109"/>
      <use xlink:href="#DejaVuSans-20" x="437.060547"/>
      <use xlink:href="#DejaVuSans-64" x="468.847656"/>
      <use xlink:href="#DejaVuSans-69" x="532.324219"/>
      <use xlink:href="#DejaVuSans-73" x="560.107422"/>
      <use xlink:href="#DejaVuSans-74" x="612.207031"/>
      <use xlink:href="#DejaVuSans-61" x="651.416016"/>
      <use xlink:href="#DejaVuSans-6e" x="712.695312"/>
      <use xlink:href="#DejaVuSans-63" x="776.074219"/>
      <use xlink:href="#DejaVuSans-65" x="831.054688"/>
      <use xlink:href="#DejaVuSans-20" x="892.578125"/>
      <use xlink:href="#DejaVuSans-65" x="924.365234"/>
      <use xlink:href="#DejaVuSans-72" x="985.888672"/>
      <use xlink:href="#DejaVuSans-72" x="1025.251953"/>
      <use xlink:href="#DejaVuSans-6f" x="1064.115234"/>
      <use xlink:href="#DejaVuSans-72" x="1125.296875"/>
      <use xlink:href="#DejaVuSans-20" x="1166.410156"/>
      <use xlink:href="#DejaVuSans-28" x="1198.197266"/>
      <use xlink:href="#DejaVuSans-6d" x="1237.210938"/>
      <use xlink:href="#DejaVuSans-29" x="1334.623047"/>
     </g>
    </g>
   </g>
   <g id="matplotlib.axis_2">
    <g id="ytick_1">
     <g id="line2d_10">
      <defs>
       <path id="m9885bfac0b" d="M 0 0 
L -3.5 0 
" style="stroke: #000000; stroke-width: 0.8"/>
      </defs>
      <g>
       <use xlink:href="#m9885bfac0b" x="57.6" y="295.512194" style="stroke: #000000; stroke-width: 0.8"/>
      </g>
     </g>
     <g id="text_11">
      <!-- 0.0 -->
      <g transform="translate(34.696875 299.311413) scale(0.1 -0.1)">
       <use xlink:href="#DejaVuSans-30"/>
       <use xlink:href="#DejaVuSans-2e" x="63.623047"/>
       <use xlink:href="#DejaVuSans-30" x="95.410156"/>
      </g>
     </g>
    </g>
    <g id="ytick_2">
     <g id="line2d_11">
      <g>
       <use xlink:href="#m9885bfac0b" x="57.6" y="247.123356" style="stroke: #000000; stroke-width: 0.8"/>
      </g>
     </g>
     <g id="text_12">
      <!-- 0.2 -->
      <g transform="translate(34.696875 250.922574) scale(0.1 -0.1)">
       <use xlink:href="#DejaVuSans-30"/>
       <use xlink:href="#DejaVuSans-2e" x="63.623047"/>
       <use xlink:href="#DejaVuSans-32" x="95.410156"/>
      </g>
     </g>
    </g>
    <g id="ytick_3">
     <g id="line2d_12">
      <g>
       <use xlink:href="#m9885bfac0b" x="57.6" y="198.734517" style="stroke: #000000; stroke-width: 0.8"/>
      </g>
     </g>
     <g id="text_13">
      <!-- 0.4 -->
      <g transform="translate(34.696875 202.533735) scale(0.1 -0.1)">
       <defs>
        <path id="DejaVuSans-34" d="M 2419 4116 
L 825 1625 
L 2419 1625 
L 2419 4116 
z
M 2253 4666 
L 3047 4666 
L 3047 1625 
L 3713 1625 
L 3713 1100 
L 3047 1100 
L 3047 0 
L 2419 0 
L 2419 1100 
L 313 1100 
L 313 1709 
L 2253 4666 
z
" transform="scale(0.015625)"/>
       </defs>
       <use xlink:href="#DejaVuSans-30"/>
       <use xlink:href="#DejaVuSans-2e" x="63.623047"/>
       <use xlink:href="#DejaVuSans-34" x="95.410156"/>
      </g>
     </g>
    </g>
    <g id="ytick_4">
     <g id="line2d_13">
      <g>
       <use xlink:href="#m9885bfac0b" x="57.6" y="150.345678" style="stroke: #000000; stroke-width: 0.8"/>
      </g>
     </g>
     <g id="text_14">
      <!-- 0.6 -->
      <g transform="translate(34.696875 154.144897) scale(0.1 -0.1)">
       <defs>
        <path id="DejaVuSans-36" d="M 2113 2584 
Q 1688 2584 1439 2293 
Q 1191 2003 1191 1497 
Q 1191 994 1439 701 
Q 1688 409 2113 409 
Q 2538 409 2786 701 
Q 3034 994 3034 1497 
Q 3034 2003 2786 2293 
Q 2538 2584 2113 2584 
z
M 3366 4563 
L 3366 3988 
Q 3128 4100 2886 4159 
Q 2644 4219 2406 4219 
Q 1781 4219 1451 3797 
Q 1122 3375 1075 2522 
Q 1259 2794 1537 2939 
Q 1816 3084 2150 3084 
Q 2853 3084 3261 2657 
Q 3669 2231 3669 1497 
Q 3669 778 3244 343 
Q 2819 -91 2113 -91 
Q 1303 -91 875 529 
Q 447 1150 447 2328 
Q 447 3434 972 4092 
Q 1497 4750 2381 4750 
Q 2619 4750 2861 4703 
Q 3103 4656 3366 4563 
z
" transform="scale(0.015625)"/>
       </defs>
       <use xlink:href="#DejaVuSans-30"/>
       <use xlink:href="#DejaVuSans-2e" x="63.623047"/>
       <use xlink:href="#DejaVuSans-36" x="95.410156"/>
      </g>
     </g>
    </g>
    <g id="ytick_5">
     <g id="line2d_14">
      <g>
       <use xlink:href="#m9885bfac0b" x="57.6" y="101.956839" style="stroke: #000000; stroke-width: 0.8"/>
      </g>
     </g>
     <g id="text_15">
      <!-- 0.8 -->
      <g transform="translate(34.696875 105.756058) scale(0.1 -0.1)">
       <defs>
        <path id="DejaVuSans-38" d="M 2034 2216 
Q 1584 2216 1326 1975 
Q 1069 1734 1069 1313 
Q 1069 891 1326 650 
Q 1584 409 2034 409 
Q 2484 409 2743 651 
Q 3003 894 3003 1313 
Q 3003 1734 2745 1975 
Q 2488 2216 2034 2216 
z
M 1403 2484 
Q 997 2584 770 2862 
Q 544 3141 544 3541 
Q 544 4100 942 4425 
Q 1341 4750 2034 4750 
Q 2731 4750 3128 4425 
Q 3525 4100 3525 3541 
Q 3525 3141 3298 2862 
Q 3072 2584 2669 2484 
Q 3125 2378 3379 2068 
Q 3634 1759 3634 1313 
Q 3634 634 3220 271 
Q 2806 -91 2034 -91 
Q 1263 -91 848 271 
Q 434 634 434 1313 
Q 434 1759 690 2068 
Q 947 2378 1403 2484 
z
M 1172 3481 
Q 1172 3119 1398 2916 
Q 1625 2713 2034 2713 
Q 2441 2713 2670 2916 
Q 2900 3119 2900 3481 
Q 2900 3844 2670 4047 
Q 2441 4250 2034 4250 
Q 1625 4250 1398 4047 
Q 1172 3844 1172 3481 
z
" transform="scale(0.015625)"/>
       </defs>
       <use xlink:href="#DejaVuSans-30"/>
       <use xlink:href="#DejaVuSans-2e" x="63.623047"/>
       <use xlink:href="#DejaVuSans-38" x="95.410156"/>
      </g>
     </g>
    </g>
    <g id="ytick_6">
     <g id="line2d_15">
      <g>
       <use xlink:href="#m9885bfac0b" x="57.6" y="53.568" style="stroke: #000000; stroke-width: 0.8"/>
      </g>
     </g>
     <g id="text_16">
      <!-- 1.0 -->
      <g transform="translate(34.696875 57.367219) scale(0.1 -0.1)">
       <use xlink:href="#DejaVuSans-31"/>
       <use xlink:href="#DejaVuSans-2e" x="63.623047"/>
       <use xlink:href="#DejaVuSans-30" x="95.410156"/>
      </g>
     </g>
    </g>
    <g id="text_17">
     <!-- Frequency -->
     <g transform="translate(28.617187 200.357687) rotate(-90) scale(0.1 -0.1)">
      <defs>
       <path id="DejaVuSans-46" d="M 628 4666 
L 3309 4666 
L 3309 4134 
L 1259 4134 
L 1259 2759 
L 3109 2759 
L 3109 2228 
L 1259 2228 
L 1259 0 
L 628 0 
L 628 4666 
z
" transform="scale(0.015625)"/>
       <path id="DejaVuSans-71" d="M 947 1747 
Q 947 1113 1208 752 
Q 1469 391 1925 391 
Q 2381 391 2643 752 
Q 2906 1113 2906 1747 
Q 2906 2381 2643 2742 
Q 2381 3103 1925 3103 
Q 1469 3103 1208 2742 
Q 947 2381 947 1747 
z
M 2906 525 
Q 2725 213 2448 61 
Q 2172 -91 1784 -91 
Q 1150 -91 751 415 
Q 353 922 353 1747 
Q 353 2572 751 3078 
Q 1150 3584 1784 3584 
Q 2172 3584 2448 3432 
Q 2725 3281 2906 2969 
L 2906 3500 
L 3481 3500 
L 3481 -1331 
L 2906 -1331 
L 2906 525 
z
" transform="scale(0.015625)"/>
       <path id="DejaVuSans-79" d="M 2059 -325 
Q 1816 -950 1584 -1140 
Q 1353 -1331 966 -1331 
L 506 -1331 
L 506 -850 
L 844 -850 
Q 1081 -850 1212 -737 
Q 1344 -625 1503 -206 
L 1606 56 
L 191 3500 
L 800 3500 
L 1894 763 
L 2988 3500 
L 3597 3500 
L 2059 -325 
z
" transform="scale(0.015625)"/>
      </defs>
      <use xlink:href="#DejaVuSans-46"/>
      <use xlink:href="#DejaVuSans-72" x="50.269531"/>
      <use xlink:href="#DejaVuSans-65" x="89.132812"/>
      <use xlink:href="#DejaVuSans-71" x="150.65625"/>
      <use xlink:href="#DejaVuSans-75" x="214.132812"/>
      <use xlink:href="#DejaVuSans-65" x="277.511719"/>
      <use xlink:href="#DejaVuSans-6e" x="339.035156"/>
      <use xlink:href="#DejaVuSans-63" x="402.414062"/>
      <use xlink:href="#DejaVuSans-79" x="457.394531"/>
     </g>
    </g>
   </g>
   <g id="line2d_16">
    <path d="M 75.113619 295.488 
L 80.786841 294.737973 
L 82.407761 294.326668 
L 84.028682 293.770196 
L 85.649602 293.358891 
L 88.891444 292.052392 
L 90.512364 291.447532 
L 92.943745 290.455561 
L 96.185586 289.124868 
L 96.996046 288.713563 
L 97.806507 288.568396 
L 102.669268 286.052176 
L 103.479729 285.302149 
L 105.91111 283.656929 
L 106.72157 282.858513 
L 108.34249 281.697181 
L 109.152951 281.334265 
L 110.773871 279.955183 
L 111.584332 279.108378 
L 112.394792 278.648684 
L 117.257554 274.825966 
L 118.068014 274.221105 
L 118.878474 273.8098 
L 119.688934 273.20494 
L 120.499395 272.454913 
L 121.309855 271.94683 
L 122.120315 270.90647 
L 122.930776 270.108054 
L 123.741236 269.527388 
L 125.362156 267.954751 
L 126.172617 267.519251 
L 127.793537 266.019197 
L 128.603998 265.172392 
L 130.224918 263.18845 
L 132.656299 261.010952 
L 133.466759 260.381897 
L 135.08768 258.712482 
L 136.7086 257.260817 
L 137.519061 256.776929 
L 139.139981 255.349458 
L 139.950442 254.86557 
L 140.760902 254.115543 
L 144.002743 249.566992 
L 147.244584 245.236191 
L 148.865505 242.98611 
L 152.917806 237.010088 
L 153.728266 235.582617 
L 154.538727 234.614841 
L 155.349187 233.211564 
L 158.591028 228.759791 
L 159.401488 227.840403 
L 161.832869 224.283824 
L 165.885171 217.896497 
L 166.695631 216.759359 
L 168.316552 213.977001 
L 169.127012 212.936641 
L 170.747932 210.009116 
L 174.800234 203.79115 
L 175.610694 202.291096 
L 176.421154 200.549098 
L 177.231615 199.41196 
L 179.662996 195.226326 
L 182.094376 190.532608 
L 183.715297 186.637307 
L 185.336218 183.903338 
L 186.146678 182.500061 
L 188.578059 179.233815 
L 189.388519 177.878927 
L 191.8199 173.209404 
L 192.63036 171.878711 
L 194.251281 167.838243 
L 196.682662 162.902581 
L 198.303582 159.708918 
L 199.924503 156.10395 
L 200.734963 154.434535 
L 202.355884 151.50701 
L 203.166344 149.885984 
L 207.218645 143.716407 
L 208.029106 142.724436 
L 208.839566 141.974409 
L 209.650026 140.958243 
L 213.702328 137.014553 
L 214.512788 136.50647 
L 216.944169 133.60314 
L 220.18601 130.385282 
L 225.859232 124.264094 
L 229.101073 120.344598 
L 231.532454 117.828378 
L 232.342914 116.90899 
L 233.963835 115.505714 
L 236.395216 112.771744 
L 238.016136 111.465246 
L 239.637057 109.84422 
L 241.257977 108.537721 
L 244.499818 105.513419 
L 248.55212 102.005228 
L 249.36258 101.013257 
L 255.035802 95.642095 
L 255.846262 94.722707 
L 256.656723 93.633959 
L 257.467183 92.835543 
L 259.088104 90.8516 
L 260.709024 88.649908 
L 262.329945 86.47241 
L 263.950865 84.512662 
L 265.571786 82.673887 
L 268.003167 79.601195 
L 268.813627 78.802779 
L 272.055468 74.133257 
L 272.865928 72.850952 
L 275.297309 70.504094 
L 276.10777 69.584706 
L 280.160071 66.318459 
L 281.780992 65.689404 
L 283.401912 64.794211 
L 284.212372 64.528072 
L 285.833293 63.657073 
L 286.643753 63.36674 
L 287.454214 62.761879 
L 288.264674 62.495741 
L 293.127436 60.294049 
L 294.748356 59.59241 
L 296.369277 58.939161 
L 297.990197 58.310106 
L 298.800658 58.043968 
L 305.28434 56.955219 
L 308.526181 56.713275 
L 313.388943 56.616497 
L 315.009863 56.543914 
L 326.356307 56.447136 
L 329.598148 56.350358 
L 337.702751 56.035831 
L 340.134132 55.890664 
L 342.565513 55.745498 
L 344.996894 55.527748 
L 358.774719 55.019665 
L 361.2061 54.898693 
L 370.931623 54.39061 
L 375.794385 54.318027 
L 377.415305 54.197055 
L 385.519908 54.100277 
L 396.055892 53.713167 
L 398.487273 53.568 
L 398.487273 53.568 
" clip-path="url(#pd1effb652e)" style="fill: none; stroke: #1f77b4; stroke-width: 1.5; stroke-linecap: square"/>
   </g>
   <g id="line2d_17">
    <path d="M 73.832727 294.399251 
L 74.473985 293.141141 
L 75.115242 292.36692 
L 75.756499 291.350754 
L 77.680271 286.898981 
L 78.321528 285.108594 
L 79.604042 281.237487 
L 79.924671 280.584238 
L 81.207185 277.100241 
L 81.848443 275.987298 
L 82.169071 274.971132 
L 82.4897 274.366272 
L 85.375358 266.454697 
L 86.337243 263.4062 
L 87.619758 260.115759 
L 89.222901 256.268846 
L 89.864158 254.526848 
L 91.78793 250.389602 
L 94.673587 244.873275 
L 95.314845 243.373221 
L 97.879874 239.163392 
L 98.200502 238.848864 
L 101.08616 233.18737 
L 102.368674 229.534013 
L 103.009931 227.816209 
L 104.292446 225.420961 
L 105.254332 223.364436 
L 106.857475 219.590106 
L 108.781247 215.114139 
L 109.743132 212.089836 
L 115.835076 196.629602 
L 116.476333 195.226326 
L 117.117591 193.484328 
L 117.758848 191.451996 
L 118.079476 190.411636 
L 118.400105 189.927748 
L 119.041362 188.258333 
L 123.209534 175.967568 
L 123.850792 174.298153 
L 124.492049 172.072266 
L 125.133306 171.007712 
L 127.698335 163.846164 
L 128.339592 161.958999 
L 128.980849 160.555723 
L 130.583993 156.176533 
L 131.22525 154.821645 
L 131.545878 154.313563 
L 132.507764 152.063482 
L 133.149022 151.023122 
L 133.790279 149.498873 
L 134.110907 148.410124 
L 134.431536 147.829458 
L 135.393422 145.26485 
L 135.71405 144.659989 
L 136.355308 143.038963 
L 136.996565 141.92602 
L 137.637822 140.304994 
L 138.279079 138.829134 
L 139.561594 135.974193 
L 140.202851 134.619305 
L 140.844108 133.046668 
L 142.447251 129.732032 
L 143.088509 128.280367 
L 145.653538 122.643068 
L 146.615423 119.933293 
L 147.256681 118.675183 
L 147.577309 118.070322 
L 149.501081 113.207244 
L 150.462967 111.562023 
L 150.783595 110.618441 
L 151.104224 110.061969 
L 153.669253 102.827838 
L 155.272396 98.206704 
L 156.234282 96.077595 
L 156.875539 94.40818 
L 158.799311 90.295129 
L 159.440568 88.843464 
L 161.043711 86.109494 
L 162.005597 84.585246 
L 163.288112 82.504526 
L 167.456284 76.625282 
L 167.776912 76.310754 
L 172.90697 68.471762 
L 173.548227 67.431402 
L 175.471999 64.721627 
L 176.113256 64.068378 
L 176.754513 63.197379 
L 177.395771 62.447352 
L 178.357657 60.971492 
L 178.678285 60.753743 
L 179.319542 60.003716 
L 179.9608 59.59241 
L 181.243314 58.576245 
L 182.846457 57.632662 
L 183.487714 57.293941 
L 185.090858 56.519719 
L 185.732115 56.422941 
L 187.335258 55.793887 
L 187.976515 55.382581 
L 189.25903 55.068054 
L 189.900287 54.971276 
L 191.182801 54.753527 
L 192.144687 54.414805 
L 194.389087 54.148666 
L 195.992231 53.858333 
L 196.954116 53.809944 
L 197.916002 53.688972 
L 201.442917 53.592194 
L 201.763546 53.568 
L 201.763546 53.568 
" clip-path="url(#pd1effb652e)" style="fill: none; stroke: #ff7f0e; stroke-width: 1.5; stroke-linecap: square"/>
   </g>
   <g id="line2d_18">
    <path d="M 73.832727 294.254085 
L 75.100135 291.32656 
L 77.001247 287.431258 
L 77.951803 284.503734 
L 79.219211 279.834211 
L 80.169766 276.858297 
L 81.120322 273.954967 
L 81.437174 273.325912 
L 82.704582 269.841915 
L 84.605694 265.099809 
L 86.189954 261.736785 
L 87.774213 257.623734 
L 88.724769 255.349458 
L 89.041621 254.405876 
L 89.358473 253.82521 
L 89.675325 252.930016 
L 89.992177 252.421933 
L 90.942733 250.341213 
L 91.893289 248.454049 
L 92.210141 248.018549 
L 92.526993 247.099161 
L 94.111253 244.63133 
L 95.061809 242.840943 
L 96.012364 240.518279 
L 96.646068 238.969836 
L 96.96292 238.558531 
L 97.596624 237.155255 
L 98.230328 236.066506 
L 98.54718 235.219701 
L 98.864032 234.760007 
L 101.7157 228.009764 
L 102.032552 227.33232 
L 102.983108 224.840295 
L 105.201071 220.025606 
L 106.151627 217.606164 
L 107.419035 214.24314 
L 108.052739 212.888252 
L 109.636999 208.242923 
L 110.270703 206.670286 
L 114.072926 197.428018 
L 114.389778 196.242491 
L 115.340334 193.968216 
L 116.607742 190.943914 
L 117.241446 189.056749 
L 121.360521 178.435399 
L 123.578485 171.660961 
L 124.212189 170.06413 
L 124.529041 169.531852 
L 125.796449 166.217217 
L 127.380708 161.281555 
L 128.014412 159.660529 
L 129.598672 154.531312 
L 130.232376 153.224814 
L 130.86608 151.579593 
L 135.935711 138.538801 
L 136.252563 138.079107 
L 136.569415 137.232302 
L 136.886267 136.796803 
L 139.737935 129.780421 
L 140.688491 127.772284 
L 142.589602 123.272122 
L 145.44127 116.788018 
L 146.391826 114.271798 
L 149.243494 107.690916 
L 149.560346 107.182833 
L 150.194049 105.803752 
L 151.461457 102.94881 
L 152.412013 101.110034 
L 153.362569 98.376065 
L 153.996273 96.561483 
L 155.263681 93.658153 
L 156.214237 90.948378 
L 157.164793 88.964436 
L 157.798496 87.270826 
L 158.4322 85.480439 
L 158.749052 84.802995 
L 159.382756 84.028774 
L 160.650164 81.851276 
L 160.967016 81.077055 
L 161.917572 79.649584 
L 163.501832 76.746254 
L 165.086092 73.891312 
L 166.670351 71.47187 
L 167.304055 70.334733 
L 168.254611 68.520151 
L 169.205167 67.237847 
L 169.522019 66.560403 
L 169.838871 66.245876 
L 170.155723 65.713599 
L 170.472575 65.495849 
L 172.056835 63.608684 
L 174.59165 61.140853 
L 179.027578 58.648828 
L 179.661282 58.140745 
L 183.146653 56.616497 
L 183.463505 56.253581 
L 186.632025 55.237415 
L 187.265729 54.971276 
L 188.533137 54.656749 
L 189.800544 54.39061 
L 191.701656 53.906722 
L 192.652212 53.834139 
L 193.602768 53.713167 
L 198.038695 53.616389 
L 199.622955 53.592194 
L 200.256659 53.568 
L 200.256659 53.568 
" clip-path="url(#pd1effb652e)" style="fill: none; stroke: #2ca02c; stroke-width: 1.5; stroke-linecap: square"/>
   </g>
   <g id="line2d_19">
    <path d="M 73.832727 294.036335 
L 76.226587 285.616677 
L 76.825051 283.294013 
L 77.423516 281.624598 
L 79.518143 272.430718 
L 80.116608 270.422581 
L 81.014305 266.30953 
L 81.61277 263.986866 
L 82.510467 261.470646 
L 82.8097 259.994787 
L 83.108932 259.220565 
L 84.305862 254.139737 
L 84.904327 251.938045 
L 85.802024 248.478243 
L 86.699721 245.236191 
L 87.298186 242.98611 
L 87.597418 241.655417 
L 87.896651 240.929584 
L 88.794348 238.026254 
L 89.093581 237.34881 
L 89.991278 234.808396 
L 91.188207 231.445372 
L 92.385137 228.251708 
L 93.282834 226.29196 
L 95.078229 222.033743 
L 96.574391 217.896497 
L 99.267483 209.767172 
L 99.865948 208.025174 
L 100.763645 205.629926 
L 101.36211 204.202455 
L 101.960574 202.799179 
L 103.755969 197.476407 
L 104.653666 194.718243 
L 105.252131 193.242383 
L 106.748293 188.209944 
L 109.740617 179.016065 
L 110.937547 175.241735 
L 111.536012 173.427154 
L 112.134477 171.612572 
L 113.630639 167.281771 
L 114.827568 162.999359 
L 115.126801 162.176749 
L 115.725266 160.168612 
L 116.32373 157.991114 
L 116.922195 156.031366 
L 119.914519 146.789098 
L 126.497633 124.772176 
L 127.993795 120.126848 
L 128.592259 117.876767 
L 130.986119 110.110358 
L 131.285351 109.40872 
L 132.781513 104.666614 
L 134.277675 101.424562 
L 134.87614 99.295453 
L 135.773837 97.142149 
L 136.671535 95.037235 
L 139.364626 89.351546 
L 139.663859 88.504742 
L 140.561556 86.786938 
L 141.160021 85.746578 
L 142.057718 84.512662 
L 143.254648 82.286776 
L 143.853113 81.48836 
L 145.050042 79.310862 
L 146.546204 77.278531 
L 146.845437 76.697865 
L 147.743134 75.754283 
L 148.341599 74.713923 
L 148.640831 74.496173 
L 149.239296 73.818729 
L 154.027015 68.181429 
L 154.62548 67.794319 
L 156.420874 66.439431 
L 157.019339 65.907154 
L 157.617804 65.44746 
L 158.216269 64.963572 
L 158.814734 64.261933 
L 159.113966 64.044184 
L 159.413198 63.995795 
L 160.310896 63.294157 
L 161.208593 63.003824 
L 161.807058 62.665102 
L 163.602452 61.673131 
L 163.901685 61.479575 
L 164.500149 61.310214 
L 166.594776 60.052104 
L 167.492474 59.544022 
L 168.090938 59.181105 
L 168.390171 59.108522 
L 168.988636 58.7698 
L 169.587101 58.55205 
L 170.185565 58.261717 
L 170.78403 58.019773 
L 171.98096 57.535885 
L 173.776354 56.90683 
L 174.973284 56.68908 
L 176.170214 56.229386 
L 179.761003 55.455165 
L 182.154862 54.995471 
L 182.753327 54.680943 
L 183.351792 54.584166 
L 183.950257 54.414805 
L 186.942581 54.027694 
L 193.226461 53.568 
L 193.226461 53.568 
" clip-path="url(#pd1effb652e)" style="fill: none; stroke: #d62728; stroke-width: 1.5; stroke-linecap: square"/>
   </g>
   <g id="line2d_20">
    <path d="M 73.832727 293.576641 
L 74.679696 290.407172 
L 75.244342 288.834535 
L 76.655957 283.777901 
L 78.349895 276.132464 
L 78.914541 273.543662 
L 80.043833 269.478999 
L 83.149386 256.607568 
L 85.40797 246.591078 
L 87.101908 240.348918 
L 87.948877 237.421393 
L 88.513523 235.389062 
L 89.642814 232.606704 
L 90.20746 230.67115 
L 91.054429 228.663014 
L 92.748367 224.017685 
L 93.877659 221.356299 
L 95.289274 217.727136 
L 96.418566 214.533473 
L 96.983212 213.202779 
L 97.265535 212.864058 
L 98.112504 210.347838 
L 104.32361 192.008468 
L 104.888256 190.919719 
L 107.711486 182.403284 
L 108.840777 178.507982 
L 111.099361 171.249656 
L 111.94633 168.975381 
L 113.357945 164.233275 
L 113.922591 162.733221 
L 114.487237 160.700889 
L 115.616529 157.023338 
L 116.463498 153.974841 
L 117.875113 149.934373 
L 120.133697 142.14377 
L 120.698343 140.474355 
L 122.392281 135.078999 
L 123.803896 130.772392 
L 125.215511 125.715759 
L 127.191772 119.739737 
L 127.474094 118.554211 
L 127.756417 117.900961 
L 128.603386 114.852464 
L 130.579647 108.707082 
L 131.708939 106.263446 
L 133.6852 100.916479 
L 135.943784 95.521123 
L 136.226107 95.013041 
L 137.637722 91.311294 
L 141.025598 84.802995 
L 141.590244 83.617469 
L 142.437213 82.214193 
L 143.566505 79.649584 
L 144.131151 78.681807 
L 144.413474 78.391474 
L 146.389735 75.101033 
L 146.95438 74.399395 
L 147.801349 73.16548 
L 148.365995 72.51223 
L 148.930641 71.810592 
L 150.624579 69.536317 
L 151.471548 68.762095 
L 152.036194 67.987874 
L 152.883163 67.431402 
L 153.165486 66.971708 
L 157.682654 63.778045 
L 158.2473 63.221573 
L 158.811946 62.761879 
L 159.376592 62.253797 
L 161.07053 60.947298 
L 161.352853 60.874715 
L 162.764468 59.979521 
L 163.89376 59.398855 
L 166.152343 58.140745 
L 167.281635 57.318135 
L 170.951834 55.842275 
L 171.51648 55.64872 
L 172.363449 55.285804 
L 174.33971 54.874499 
L 174.904356 54.656749 
L 175.751325 54.511582 
L 176.315971 54.39061 
L 178.574555 54.100277 
L 185.350306 53.616389 
L 186.479598 53.568 
L 186.479598 53.568 
" clip-path="url(#pd1effb652e)" style="fill: none; stroke: #9467bd; stroke-width: 1.5; stroke-linecap: square"/>
   </g>
   <g id="line2d_21">
    <path d="M 73.832727 293.479863 
L 76.387243 282.737541 
L 76.954913 281.068126 
L 77.522583 278.866434 
L 79.225594 271.414553 
L 85.753801 242.937721 
L 86.605306 240.034391 
L 87.740646 236.30845 
L 88.308317 234.735813 
L 88.875987 233.114787 
L 89.443657 231.372788 
L 90.862832 226.558099 
L 91.714338 224.453185 
L 93.985018 218.428774 
L 94.552688 216.880331 
L 95.120359 215.694805 
L 95.688029 214.097973 
L 95.971864 213.58989 
L 96.539534 212.186614 
L 97.107204 210.831726 
L 97.958709 208.678423 
L 98.52638 207.323536 
L 99.377885 204.83151 
L 104.486916 189.419665 
L 105.054587 187.701861 
L 106.757597 182.185534 
L 107.041432 181.580673 
L 107.892937 178.556371 
L 108.744443 176.161123 
L 109.879783 171.781933 
L 110.163618 171.10449 
L 111.866629 165.370412 
L 112.150464 164.64458 
L 113.001969 161.5235 
L 114.421144 157.410448 
L 114.704979 156.587838 
L 115.27265 154.62809 
L 116.691825 150.2489 
L 117.259495 148.506902 
L 117.827165 146.716515 
L 120.949351 137.159719 
L 123.787702 127.481951 
L 124.923043 124.143122 
L 126.909888 118.38485 
L 128.329064 114.22341 
L 128.896734 111.973329 
L 131.735085 103.577865 
L 133.438095 99.247064 
L 134.005765 97.456677 
L 135.141106 94.577541 
L 136.844116 90.585462 
L 137.979456 88.238603 
L 141.669313 80.181861 
L 142.804653 77.738225 
L 143.372323 76.794643 
L 143.939993 76.06881 
L 145.075334 74.230034 
L 146.210674 72.850952 
L 146.778344 72.197703 
L 147.346014 71.544454 
L 147.629849 71.350898 
L 151.319705 67.044292 
L 151.887376 66.70557 
L 154.441891 64.431294 
L 155.009561 64.116767 
L 157.564077 62.471546 
L 159.550923 60.898909 
L 160.402428 60.46341 
L 161.253933 60.003716 
L 162.105439 59.568216 
L 162.673109 59.302077 
L 163.808449 58.866578 
L 165.795295 57.777829 
L 166.362965 57.51169 
L 169.201316 56.156803 
L 171.188161 55.576137 
L 172.323502 55.382581 
L 172.891172 55.213221 
L 173.458842 55.04386 
L 179.703214 54.076083 
L 186.515256 53.592194 
L 187.082926 53.568 
L 187.082926 53.568 
" clip-path="url(#pd1effb652e)" style="fill: none; stroke: #8c564b; stroke-width: 1.5; stroke-linecap: square"/>
   </g>
   <g id="line2d_22">
    <path d="M 73.832727 293.116947 
L 76.62313 279.0116 
L 77.181211 277.003464 
L 78.576412 270.47097 
L 80.250654 263.091672 
L 81.645855 255.857541 
L 82.762017 251.163824 
L 85.83146 235.510034 
L 86.38954 233.695453 
L 87.784742 227.98557 
L 88.621863 225.009656 
L 90.575145 217.920691 
L 91.970346 213.202779 
L 93.086507 209.452644 
L 94.760749 203.960511 
L 96.714031 197.089296 
L 98.946353 190.04872 
L 100.062514 186.467946 
L 100.620595 184.604976 
L 101.457716 182.209728 
L 105.08524 170.015741 
L 106.480441 165.636551 
L 107.596602 161.112194 
L 108.154683 159.152446 
L 108.991804 155.813617 
L 111.503166 147.660097 
L 114.293569 139.506578 
L 114.85165 137.740385 
L 116.246851 132.998279 
L 117.363012 130.119143 
L 118.200133 127.820673 
L 118.758214 126.223842 
L 124.8971 108.900637 
L 125.455181 107.739305 
L 126.292301 105.198891 
L 126.571342 104.690808 
L 127.408463 102.610088 
L 128.524624 100.287424 
L 129.919825 97.359899 
L 130.477906 96.174373 
L 131.035986 94.867874 
L 132.431188 91.770988 
L 133.826389 88.722491 
L 134.38447 87.972464 
L 134.66351 87.657937 
L 134.94255 86.738549 
L 135.500631 85.891744 
L 135.779671 85.286884 
L 136.058712 84.996551 
L 137.453913 82.504526 
L 137.732953 82.238387 
L 139.128155 80.206056 
L 139.407195 80.0125 
L 140.244316 78.560835 
L 140.523356 78.270502 
L 143.592799 73.407424 
L 144.15088 72.875147 
L 145.825122 70.721843 
L 146.104162 70.576677 
L 146.662243 69.754067 
L 147.778404 68.544346 
L 148.615525 67.624958 
L 148.894565 67.52818 
L 150.568807 66.076515 
L 151.126887 65.641015 
L 151.684968 64.987766 
L 153.080169 63.923212 
L 153.359209 63.778045 
L 153.91729 63.100601 
L 155.312491 61.915075 
L 155.870572 61.648936 
L 156.428653 61.092464 
L 156.707693 60.995687 
L 157.265774 60.656965 
L 157.823854 60.439215 
L 158.660975 59.59241 
L 159.219056 59.326272 
L 164.520821 57.414913 
L 165.078902 57.100385 
L 165.636982 56.979413 
L 166.753143 56.568108 
L 167.311224 56.229386 
L 173.729151 54.656749 
L 175.961473 54.342221 
L 176.798594 54.245444 
L 185.169802 53.568 
L 185.169802 53.568 
" clip-path="url(#pd1effb652e)" style="fill: none; stroke: #e377c2; stroke-width: 1.5; stroke-linecap: square"/>
   </g>
   <g id="line2d_23">
    <path d="M 73.832727 292.415309 
L 76.668554 278.237379 
L 76.952137 277.14863 
L 78.086468 271.220997 
L 83.758122 240.711834 
L 87.444697 225.590322 
L 87.72828 224.961267 
L 88.579028 221.888576 
L 89.146194 219.082023 
L 89.713359 216.783554 
L 91.131273 211.678531 
L 91.982021 208.484868 
L 93.399934 203.960511 
L 93.683517 202.895957 
L 94.250682 201.516875 
L 94.534265 200.67007 
L 95.101431 198.3716 
L 96.235761 194.815021 
L 96.519344 193.653689 
L 96.802927 193.024634 
L 97.653675 189.927748 
L 97.937258 189.347082 
L 101.34025 178.362815 
L 101.907416 176.669206 
L 103.325329 171.975489 
L 104.743243 167.572104 
L 107.862653 156.587838 
L 109.564149 149.958567 
L 110.131314 148.337541 
L 112.116393 141.950214 
L 112.967141 138.853329 
L 113.81789 136.361303 
L 114.385055 134.667694 
L 114.668638 134.062833 
L 115.802968 130.627226 
L 116.653717 128.086812 
L 117.504465 125.618981 
L 118.638796 121.820457 
L 120.340292 117.054157 
L 121.474623 113.981465 
L 121.758205 113.473383 
L 122.608954 111.295885 
L 123.176119 109.84422 
L 124.026867 107.666722 
L 126.011946 102.924616 
L 126.295529 102.464922 
L 126.862694 100.843896 
L 127.713442 99.222869 
L 128.56419 97.480871 
L 128.847773 97.093761 
L 129.982104 94.529152 
L 130.549269 93.053293 
L 131.400018 91.674211 
L 131.6836 91.311294 
L 132.250766 90.222545 
L 132.817931 89.230574 
L 133.385097 88.190214 
L 133.668679 87.972464 
L 138.489585 79.40764 
L 138.773168 79.117307 
L 139.056751 78.536641 
L 139.340334 78.270502 
L 139.907499 77.447892 
L 140.191082 77.10917 
L 140.474664 76.455921 
L 141.04183 75.754283 
L 141.608995 75.004256 
L 142.743326 73.673563 
L 143.877657 72.076731 
L 144.444822 71.520259 
L 145.011988 70.86701 
L 145.862736 69.802455 
L 146.429901 69.366956 
L 147.280649 68.35079 
L 147.847815 67.503986 
L 149.832894 65.423266 
L 150.400059 64.890988 
L 151.817973 63.681267 
L 152.101556 63.560295 
L 152.952304 62.93124 
L 153.803052 62.54413 
L 154.086634 62.205408 
L 154.370217 62.10863 
L 155.220965 61.50377 
L 156.071713 61.116659 
L 159.191123 58.890772 
L 160.041871 58.310106 
L 160.89262 57.94719 
L 161.743368 57.632662 
L 164.012029 56.931024 
L 164.579195 56.810052 
L 165.14636 56.47133 
L 166.280691 56.108414 
L 167.415022 55.64872 
L 168.26577 55.309998 
L 169.967266 55.116443 
L 171.101597 54.777721 
L 171.668763 54.680943 
L 172.519511 54.487388 
L 183.862819 53.616389 
L 186.982229 53.568 
L 186.982229 53.568 
" clip-path="url(#pd1effb652e)" style="fill: none; stroke: #7f7f7f; stroke-width: 1.5; stroke-linecap: square"/>
   </g>
   <g id="line2d_24">
    <path d="M 73.832727 291.495921 
L 75.230692 283.027874 
L 76.06947 278.358351 
L 77.747027 269.285444 
L 78.865399 264.083644 
L 79.704177 259.873815 
L 79.98377 258.712482 
L 81.102142 251.913851 
L 82.500106 244.510358 
L 83.059292 241.921555 
L 83.89807 237.760115 
L 84.736849 233.961591 
L 85.85522 228.735597 
L 86.414406 226.025822 
L 89.489928 213.420529 
L 90.049113 211.654337 
L 90.887892 208.38809 
L 92.285856 203.573401 
L 93.404228 199.484544 
L 93.963414 197.790934 
L 95.081785 194.137577 
L 96.479749 190.097109 
L 98.436899 183.395255 
L 99.834864 178.60476 
L 101.232828 173.475543 
L 101.792014 171.4916 
L 102.630792 168.176965 
L 102.910385 167.354355 
L 103.189978 165.951078 
L 103.749164 164.112302 
L 104.587942 160.725084 
L 105.147128 158.78953 
L 108.22265 147.514931 
L 108.502243 146.619737 
L 108.781835 145.313239 
L 109.620614 142.724436 
L 112.13695 134.81286 
L 112.975728 132.611168 
L 113.814507 130.094949 
L 114.653286 127.336785 
L 115.771657 124.360871 
L 116.330843 122.183374 
L 119.126772 114.344382 
L 119.685957 112.578189 
L 120.245143 111.053941 
L 121.363514 108.223194 
L 122.481886 105.005336 
L 123.041072 103.190754 
L 124.998222 98.085732 
L 125.277815 97.577649 
L 125.837 96.077595 
L 126.116593 95.400151 
L 126.396186 95.037235 
L 126.955372 93.682347 
L 128.632929 90.125768 
L 129.471708 88.674103 
L 130.030893 87.633743 
L 130.310486 87.367604 
L 131.428858 84.948162 
L 132.267636 83.56908 
L 134.783972 79.697973 
L 135.902343 77.980169 
L 136.181936 77.714031 
L 136.741122 76.818837 
L 137.020715 76.528504 
L 137.579901 75.705894 
L 137.859494 75.488144 
L 140.935015 71.157343 
L 141.494201 70.552482 
L 141.773794 70.358927 
L 142.332979 69.705678 
L 143.730944 68.205624 
L 144.290129 67.770124 
L 146.806465 65.108738 
L 147.086058 64.673239 
L 147.645244 64.261933 
L 147.924837 64.165156 
L 149.043208 63.221573 
L 151.559544 61.552158 
L 151.839137 61.431186 
L 152.957508 60.46341 
L 154.635065 59.568216 
L 155.194251 59.132716 
L 156.312623 58.600439 
L 156.871808 58.455273 
L 157.99018 57.971384 
L 159.108551 57.584274 
L 160.226923 57.100385 
L 160.786108 56.979413 
L 161.345294 56.810052 
L 162.184073 56.616497 
L 163.86163 56.253581 
L 165.259594 55.86647 
L 166.098373 55.721303 
L 167.77593 55.334193 
L 168.335116 55.285804 
L 169.173894 55.092248 
L 171.131045 54.656749 
L 171.969823 54.487388 
L 173.088195 54.293833 
L 173.64738 54.197055 
L 174.765752 54.100277 
L 180.637202 53.688972 
L 185.110688 53.592194 
L 185.390281 53.568 
L 185.390281 53.568 
" clip-path="url(#pd1effb652e)" style="fill: none; stroke: #bcbd22; stroke-width: 1.5; stroke-linecap: square"/>
   </g>
   <g id="line2d_25">
    <path d="M 73.832727 291.786254 
L 74.402013 287.116731 
L 75.825228 277.58413 
L 77.248442 269.503194 
L 79.240943 257.889872 
L 79.810229 255.204292 
L 82.087372 241.486056 
L 82.941301 236.937505 
L 84.933801 227.235543 
L 85.503087 224.985462 
L 87.210945 217.630358 
L 89.203445 209.791366 
L 90.342017 206.065426 
L 90.911303 203.452428 
L 91.765232 200.694265 
L 93.188446 195.879575 
L 96.034876 187.14539 
L 96.888804 184.121087 
L 97.173447 183.395255 
L 98.312019 179.282203 
L 99.450591 175.556263 
L 100.589162 171.152878 
L 101.443091 168.080187 
L 103.150949 161.789638 
L 104.574163 156.128144 
L 105.143449 154.240979 
L 111.690236 130.094949 
L 111.974879 129.417505 
L 115.390594 117.900961 
L 115.95988 116.473491 
L 117.383095 111.852356 
L 117.952381 109.578081 
L 119.660238 105.344058 
L 119.944881 104.42467 
L 120.229524 103.964976 
L 120.79881 102.464922 
L 122.791311 97.505066 
L 123.075953 97.069566 
L 123.645239 95.593707 
L 124.499168 93.343626 
L 126.207026 89.883824 
L 126.776312 88.867658 
L 127.63024 87.682131 
L 127.914883 87.367604 
L 128.199526 86.762743 
L 129.053455 84.415885 
L 129.907384 82.74647 
L 130.47667 81.464166 
L 131.045955 80.641555 
L 132.46917 78.101141 
L 136.169528 72.875147 
L 136.454171 72.705786 
L 137.023457 72.052536 
L 137.592743 71.641231 
L 138.731314 69.947622 
L 139.015957 69.754067 
L 139.585243 68.834679 
L 140.439172 67.818513 
L 142.431672 65.761987 
L 146.985959 61.648936 
L 147.555245 61.237631 
L 147.839888 61.116659 
L 148.693817 60.390826 
L 148.97846 60.342437 
L 149.547746 59.906938 
L 151.255603 59.156911 
L 151.824889 58.914967 
L 153.532747 58.116551 
L 155.240604 57.753635 
L 156.379176 57.342329 
L 157.233105 57.051996 
L 158.087033 56.640691 
L 158.940962 56.47133 
L 166.057035 55.334193 
L 166.910964 55.237415 
L 169.188108 54.947082 
L 169.757393 54.947082 
L 170.326679 54.729332 
L 174.31168 54.148666 
L 174.880966 54.076083 
L 176.019538 53.955111 
L 176.588824 53.906722 
L 177.158109 53.834139 
L 178.865967 53.737361 
L 181.14311 53.640583 
L 187.405255 53.568 
L 187.405255 53.568 
" clip-path="url(#pd1effb652e)" style="fill: none; stroke: #17becf; stroke-width: 1.5; stroke-linecap: square"/>
   </g>
   <g id="patch_3">
    <path d="M 57.6 307.584 
L 57.6 41.472 
" style="fill: none; stroke: #000000; stroke-width: 0.8; stroke-linejoin: miter; stroke-linecap: square"/>
   </g>
   <g id="patch_4">
    <path d="M 414.72 307.584 
L 414.72 41.472 
" style="fill: none; stroke: #000000; stroke-width: 0.8; stroke-linejoin: miter; stroke-linecap: square"/>
   </g>
   <g id="patch_5">
    <path d="M 57.6 307.584 
L 414.72 307.584 
" style="fill: none; stroke: #000000; stroke-width: 0.8; stroke-linejoin: miter; stroke-linecap: square"/>
   </g>
   <g id="patch_6">
    <path d="M 57.6 41.472 
L 414.72 41.472 
" style="fill: none; stroke: #000000; stroke-width: 0.8; stroke-linejoin: miter; stroke-linecap: square"/>
   </g>
   <g id="text_18">
    <!-- CDF of forest absolute error distribution -->
    <g transform="translate(116.78625 35.472) scale(0.12 -0.12)">
     <defs>
      <path id="DejaVuSans-43" d="M 4122 4306 
L 4122 3641 
Q 3803 3938 3442 4084 
Q 3081 4231 2675 4231 
Q 1875 4231 1450 3742 
Q 1025 3253 1025 2328 
Q 1025 1406 1450 917 
Q 1875 428 2675 428 
Q 3081 428 3442 575 
Q 3803 722 4122 1019 
L 4122 359 
Q 3791 134 3420 21 
Q 3050 -91 2638 -91 
Q 1578 -91 968 557 
Q 359 1206 359 2328 
Q 359 3453 968 4101 
Q 1578 4750 2638 4750 
Q 3056 4750 3426 4639 
Q 3797 4528 4122 4306 
z
" transform="scale(0.015625)"/>
      <path id="DejaVuSans-44" d="M 1259 4147 
L 1259 519 
L 2022 519 
Q 2988 519 3436 956 
Q 3884 1394 3884 2338 
Q 3884 3275 3436 3711 
Q 2988 4147 2022 4147 
L 1259 4147 
z
M 628 4666 
L 1925 4666 
Q 3281 4666 3915 4102 
Q 4550 3538 4550 2338 
Q 4550 1131 3912 565 
Q 3275 0 1925 0 
L 628 0 
L 628 4666 
z
" transform="scale(0.015625)"/>
      <path id="DejaVuSans-66" d="M 2375 4863 
L 2375 4384 
L 1825 4384 
Q 1516 4384 1395 4259 
Q 1275 4134 1275 3809 
L 1275 3500 
L 2222 3500 
L 2222 3053 
L 1275 3053 
L 1275 0 
L 697 0 
L 697 3053 
L 147 3053 
L 147 3500 
L 697 3500 
L 697 3744 
Q 697 4328 969 4595 
Q 1241 4863 1831 4863 
L 2375 4863 
z
" transform="scale(0.015625)"/>
     </defs>
     <use xlink:href="#DejaVuSans-43"/>
     <use xlink:href="#DejaVuSans-44" x="69.824219"/>
     <use xlink:href="#DejaVuSans-46" x="146.826172"/>
     <use xlink:href="#DejaVuSans-20" x="204.345703"/>
     <use xlink:href="#DejaVuSans-6f" x="236.132812"/>
     <use xlink:href="#DejaVuSans-66" x="297.314453"/>
     <use xlink:href="#DejaVuSans-20" x="332.519531"/>
     <use xlink:href="#DejaVuSans-66" x="364.306641"/>
     <use xlink:href="#DejaVuSans-6f" x="399.511719"/>
     <use xlink:href="#DejaVuSans-72" x="460.693359"/>
     <use xlink:href="#DejaVuSans-65" x="499.556641"/>
     <use xlink:href="#DejaVuSans-73" x="561.080078"/>
     <use xlink:href="#DejaVuSans-74" x="613.179688"/>
     <use xlink:href="#DejaVuSans-20" x="652.388672"/>
     <use xlink:href="#DejaVuSans-61" x="684.175781"/>
     <use xlink:href="#DejaVuSans-62" x="745.455078"/>
     <use xlink:href="#DejaVuSans-73" x="808.931641"/>
     <use xlink:href="#DejaVuSans-6f" x="861.03125"/>
     <use xlink:href="#DejaVuSans-6c" x="922.212891"/>
     <use xlink:href="#DejaVuSans-75" x="949.996094"/>
     <use xlink:href="#DejaVuSans-74" x="1013.375"/>
     <use xlink:href="#DejaVuSans-65" x="1052.583984"/>
     <use xlink:href="#DejaVuSans-20" x="1114.107422"/>
     <use xlink:href="#DejaVuSans-65" x="1145.894531"/>
     <use xlink:href="#DejaVuSans-72" x="1207.417969"/>
     <use xlink:href="#DejaVuSans-72" x="1246.78125"/>
     <use xlink:href="#DejaVuSans-6f" x="1285.644531"/>
     <use xlink:href="#DejaVuSans-72" x="1346.826172"/>
     <use xlink:href="#DejaVuSans-20" x="1387.939453"/>
     <use xlink:href="#DejaVuSans-64" x="1419.726562"/>
     <use xlink:href="#DejaVuSans-69" x="1483.203125"/>
     <use xlink:href="#DejaVuSans-73" x="1510.986328"/>
     <use xlink:href="#DejaVuSans-74" x="1563.085938"/>
     <use xlink:href="#DejaVuSans-72" x="1602.294922"/>
     <use xlink:href="#DejaVuSans-69" x="1643.408203"/>
     <use xlink:href="#DejaVuSans-62" x="1671.191406"/>
     <use xlink:href="#DejaVuSans-75" x="1734.667969"/>
     <use xlink:href="#DejaVuSans-74" x="1798.046875"/>
     <use xlink:href="#DejaVuSans-69" x="1837.255859"/>
     <use xlink:href="#DejaVuSans-6f" x="1865.039062"/>
     <use xlink:href="#DejaVuSans-6e" x="1926.220703"/>
    </g>
   </g>
   <g id="legend_1">
    <g id="patch_7">
     <path d="M 348.5075 302.584 
L 407.72 302.584 
Q 409.72 302.584 409.72 300.584 
L 409.72 154.80275 
Q 409.72 152.80275 407.72 152.80275 
L 348.5075 152.80275 
Q 346.5075 152.80275 346.5075 154.80275 
L 346.5075 300.584 
Q 346.5075 302.584 348.5075 302.584 
z
" style="fill: #ffffff; opacity: 0.8; stroke: #cccccc; stroke-linejoin: miter"/>
    </g>
    <g id="line2d_26">
     <path d="M 350.5075 160.901187 
L 360.5075 160.901187 
L 370.5075 160.901187 
" style="fill: none; stroke: #1f77b4; stroke-width: 1.5; stroke-linecap: square"/>
    </g>
    <g id="text_19">
     <!-- T=1 -->
     <g transform="translate(378.5075 164.401187) scale(0.1 -0.1)">
      <defs>
       <path id="DejaVuSans-54" d="M -19 4666 
L 3928 4666 
L 3928 4134 
L 2272 4134 
L 2272 0 
L 1638 0 
L 1638 4134 
L -19 4134 
L -19 4666 
z
" transform="scale(0.015625)"/>
       <path id="DejaVuSans-3d" d="M 678 2906 
L 4684 2906 
L 4684 2381 
L 678 2381 
L 678 2906 
z
M 678 1631 
L 4684 1631 
L 4684 1100 
L 678 1100 
L 678 1631 
z
" transform="scale(0.015625)"/>
      </defs>
      <use xlink:href="#DejaVuSans-54"/>
      <use xlink:href="#DejaVuSans-3d" x="61.083984"/>
      <use xlink:href="#DejaVuSans-31" x="144.873047"/>
     </g>
    </g>
    <g id="line2d_27">
     <path d="M 350.5075 175.579313 
L 360.5075 175.579313 
L 370.5075 175.579313 
" style="fill: none; stroke: #ff7f0e; stroke-width: 1.5; stroke-linecap: square"/>
    </g>
    <g id="text_20">
     <!-- T=2 -->
     <g transform="translate(378.5075 179.079313) scale(0.1 -0.1)">
      <use xlink:href="#DejaVuSans-54"/>
      <use xlink:href="#DejaVuSans-3d" x="61.083984"/>
      <use xlink:href="#DejaVuSans-32" x="144.873047"/>
     </g>
    </g>
    <g id="line2d_28">
     <path d="M 350.5075 190.257438 
L 360.5075 190.257438 
L 370.5075 190.257438 
" style="fill: none; stroke: #2ca02c; stroke-width: 1.5; stroke-linecap: square"/>
    </g>
    <g id="text_21">
     <!-- T=3 -->
     <g transform="translate(378.5075 193.757438) scale(0.1 -0.1)">
      <defs>
       <path id="DejaVuSans-33" d="M 2597 2516 
Q 3050 2419 3304 2112 
Q 3559 1806 3559 1356 
Q 3559 666 3084 287 
Q 2609 -91 1734 -91 
Q 1441 -91 1130 -33 
Q 819 25 488 141 
L 488 750 
Q 750 597 1062 519 
Q 1375 441 1716 441 
Q 2309 441 2620 675 
Q 2931 909 2931 1356 
Q 2931 1769 2642 2001 
Q 2353 2234 1838 2234 
L 1294 2234 
L 1294 2753 
L 1863 2753 
Q 2328 2753 2575 2939 
Q 2822 3125 2822 3475 
Q 2822 3834 2567 4026 
Q 2313 4219 1838 4219 
Q 1578 4219 1281 4162 
Q 984 4106 628 3988 
L 628 4550 
Q 988 4650 1302 4700 
Q 1616 4750 1894 4750 
Q 2613 4750 3031 4423 
Q 3450 4097 3450 3541 
Q 3450 3153 3228 2886 
Q 3006 2619 2597 2516 
z
" transform="scale(0.015625)"/>
      </defs>
      <use xlink:href="#DejaVuSans-54"/>
      <use xlink:href="#DejaVuSans-3d" x="61.083984"/>
      <use xlink:href="#DejaVuSans-33" x="144.873047"/>
     </g>
    </g>
    <g id="line2d_29">
     <path d="M 350.5075 204.935563 
L 360.5075 204.935563 
L 370.5075 204.935563 
" style="fill: none; stroke: #d62728; stroke-width: 1.5; stroke-linecap: square"/>
    </g>
    <g id="text_22">
     <!-- T=4 -->
     <g transform="translate(378.5075 208.435563) scale(0.1 -0.1)">
      <use xlink:href="#DejaVuSans-54"/>
      <use xlink:href="#DejaVuSans-3d" x="61.083984"/>
      <use xlink:href="#DejaVuSans-34" x="144.873047"/>
     </g>
    </g>
    <g id="line2d_30">
     <path d="M 350.5075 219.613688 
L 360.5075 219.613688 
L 370.5075 219.613688 
" style="fill: none; stroke: #9467bd; stroke-width: 1.5; stroke-linecap: square"/>
    </g>
    <g id="text_23">
     <!-- T=5 -->
     <g transform="translate(378.5075 223.113688) scale(0.1 -0.1)">
      <use xlink:href="#DejaVuSans-54"/>
      <use xlink:href="#DejaVuSans-3d" x="61.083984"/>
      <use xlink:href="#DejaVuSans-35" x="144.873047"/>
     </g>
    </g>
    <g id="line2d_31">
     <path d="M 350.5075 234.291812 
L 360.5075 234.291812 
L 370.5075 234.291812 
" style="fill: none; stroke: #8c564b; stroke-width: 1.5; stroke-linecap: square"/>
    </g>
    <g id="text_24">
     <!-- T=6 -->
     <g transform="translate(378.5075 237.791812) scale(0.1 -0.1)">
      <use xlink:href="#DejaVuSans-54"/>
      <use xlink:href="#DejaVuSans-3d" x="61.083984"/>
      <use xlink:href="#DejaVuSans-36" x="144.873047"/>
     </g>
    </g>
    <g id="line2d_32">
     <path d="M 350.5075 248.969938 
L 360.5075 248.969938 
L 370.5075 248.969938 
" style="fill: none; stroke: #e377c2; stroke-width: 1.5; stroke-linecap: square"/>
    </g>
    <g id="text_25">
     <!-- T=7 -->
     <g transform="translate(378.5075 252.469938) scale(0.1 -0.1)">
      <use xlink:href="#DejaVuSans-54"/>
      <use xlink:href="#DejaVuSans-3d" x="61.083984"/>
      <use xlink:href="#DejaVuSans-37" x="144.873047"/>
     </g>
    </g>
    <g id="line2d_33">
     <path d="M 350.5075 263.648062 
L 360.5075 263.648062 
L 370.5075 263.648062 
" style="fill: none; stroke: #7f7f7f; stroke-width: 1.5; stroke-linecap: square"/>
    </g>
    <g id="text_26">
     <!-- T=8 -->
     <g transform="translate(378.5075 267.148062) scale(0.1 -0.1)">
      <use xlink:href="#DejaVuSans-54"/>
      <use xlink:href="#DejaVuSans-3d" x="61.083984"/>
      <use xlink:href="#DejaVuSans-38" x="144.873047"/>
     </g>
    </g>
    <g id="line2d_34">
     <path d="M 350.5075 278.326188 
L 360.5075 278.326188 
L 370.5075 278.326188 
" style="fill: none; stroke: #bcbd22; stroke-width: 1.5; stroke-linecap: square"/>
    </g>
    <g id="text_27">
     <!-- T=9 -->
     <g transform="translate(378.5075 281.826188) scale(0.1 -0.1)">
      <defs>
       <path id="DejaVuSans-39" d="M 703 97 
L 703 672 
Q 941 559 1184 500 
Q 1428 441 1663 441 
Q 2288 441 2617 861 
Q 2947 1281 2994 2138 
Q 2813 1869 2534 1725 
Q 2256 1581 1919 1581 
Q 1219 1581 811 2004 
Q 403 2428 403 3163 
Q 403 3881 828 4315 
Q 1253 4750 1959 4750 
Q 2769 4750 3195 4129 
Q 3622 3509 3622 2328 
Q 3622 1225 3098 567 
Q 2575 -91 1691 -91 
Q 1453 -91 1209 -44 
Q 966 3 703 97 
z
M 1959 2075 
Q 2384 2075 2632 2365 
Q 2881 2656 2881 3163 
Q 2881 3666 2632 3958 
Q 2384 4250 1959 4250 
Q 1534 4250 1286 3958 
Q 1038 3666 1038 3163 
Q 1038 2656 1286 2365 
Q 1534 2075 1959 2075 
z
" transform="scale(0.015625)"/>
      </defs>
      <use xlink:href="#DejaVuSans-54"/>
      <use xlink:href="#DejaVuSans-3d" x="61.083984"/>
      <use xlink:href="#DejaVuSans-39" x="144.873047"/>
     </g>
    </g>
    <g id="line2d_35">
     <path d="M 350.5075 293.004312 
L 360.5075 293.004312 
L 370.5075 293.004312 
" style="fill: none; stroke: #17becf; stroke-width: 1.5; stroke-linecap: square"/>
    </g>
    <g id="text_28">
     <!-- T=10 -->
     <g transform="translate(378.5075 296.504312) scale(0.1 -0.1)">
      <use xlink:href="#DejaVuSans-54"/>
      <use xlink:href="#DejaVuSans-3d" x="61.083984"/>
      <use xlink:href="#DejaVuSans-31" x="144.873047"/>
      <use xlink:href="#DejaVuSans-30" x="208.496094"/>
     </g>
    </g>
   </g>
  </g>
 </g>
 <defs>
  <clipPath id="pd1effb652e">
   <rect x="57.6" y="41.472" width="357.12" height="266.112"/>
  </clipPath>
 </defs>
</svg>
