<?xml version="1.0" encoding="utf-8" standalone="no"?>
<!DOCTYPE svg PUBLIC "-//W3C//DTD SVG 1.1//EN"
  "http://www.w3.org/Graphics/SVG/1.1/DTD/svg11.dtd">
<svg xmlns:xlink="http://www.w3.org/1999/xlink" width="460.8pt" height="319.68pt" viewBox="0 0 460.8 319.68" xmlns="http://www.w3.org/2000/svg" version="1.1">
 <metadata>
  <rdf:RDF xmlns:dc="http://purl.org/dc/elements/1.1/" xmlns:cc="http://creativecommons.org/ns#" xmlns:rdf="http://www.w3.org/1999/02/22-rdf-syntax-ns#">
   <cc:Work>
    <dc:type rdf:resource="http://purl.org/dc/dcmitype/StillImage"/>
    <dc:date>2024-01-09T12:50:29.002861</dc:date>
    <dc:format>image/svg+xml</dc:format>
    <dc:creator>
     <cc:Agent>
      <dc:title>Matplotlib v3.8.2, https://matplotlib.org/</dc:title>
     </cc:Agent>
    </dc:creator>
   </cc:Work>
  </rdf:RDF>
 </metadata>
 <defs>
  <style type="text/css">*{stroke-linejoin: round; stroke-linecap: butt}</style>
 </defs>
 <g id="figure_1">
  <g id="patch_1">
  </g>
  <g id="axes_1">
   <g id="patch_2">
   </g>
   <g id="PolyCollection_1">
    <path d="M 73.832727 273.3264 
L 73.832727 233.241708 
L 73.832727 220.055353 
L 74.646398 220.055353 
L 74.646398 209.757495 
L 75.460068 209.757495 
L 75.460068 200.808811 
L 76.273739 200.808811 
L 76.273739 193.312378 
L 77.087409 193.312378 
L 77.087409 186.419254 
L 77.90108 186.419254 
L 77.90108 180.278184 
L 78.714751 180.278184 
L 78.714751 174.835177 
L 79.528421 174.835177 
L 79.528421 170.044135 
L 80.342092 170.044135 
L 80.342092 165.769544 
L 81.155762 165.769544 
L 81.155762 161.953144 
L 81.969433 161.953144 
L 81.969433 158.586823 
L 82.783103 158.586823 
L 82.783103 155.592476 
L 83.596774 155.592476 
L 83.596774 152.986533 
L 84.410444 152.986533 
L 84.410444 150.661011 
L 85.224115 150.661011 
L 85.224115 148.576854 
L 86.037785 148.576854 
L 86.037785 146.676443 
L 86.851456 146.676443 
L 86.851456 144.922645 
L 87.665126 144.922645 
L 87.665126 143.328903 
L 88.478797 143.328903 
L 88.478797 141.825861 
L 89.292468 141.825861 
L 89.292468 140.43934 
L 90.106138 140.43934 
L 90.106138 139.118122 
L 90.919809 139.118122 
L 90.919809 137.958455 
L 91.733479 137.958455 
L 91.733479 136.871134 
L 92.54715 136.871134 
L 92.54715 135.814117 
L 93.36082 135.814117 
L 93.36082 134.781642 
L 94.174491 134.781642 
L 94.174491 133.769015 
L 94.988161 133.769015 
L 94.988161 132.781569 
L 95.801832 132.781569 
L 95.801832 131.784307 
L 96.615502 131.784307 
L 96.615502 130.813934 
L 97.429173 130.813934 
L 97.429173 129.842708 
L 98.242843 129.842708 
L 98.242843 128.910536 
L 99.056514 128.910536 
L 99.056514 127.973455 
L 99.870185 127.973455 
L 99.870185 127.064544 
L 100.683855 127.064544 
L 100.683855 126.168438 
L 101.497526 126.168438 
L 101.497526 125.283856 
L 102.311196 125.283856 
L 102.311196 124.395432 
L 103.124867 124.395432 
L 103.124867 123.505942 
L 103.938537 123.505942 
L 103.938537 122.640353 
L 104.752208 122.640353 
L 104.752208 121.73379 
L 105.565878 121.73379 
L 105.565878 120.876311 
L 106.379549 120.876311 
L 106.379549 120.010296 
L 107.193219 120.010296 
L 107.193219 119.174371 
L 108.00689 119.174371 
L 108.00689 118.322654 
L 108.82056 118.322654 
L 108.82056 117.498893 
L 109.634231 117.498893 
L 109.634231 116.702663 
L 110.447902 116.702663 
L 110.447902 115.901524 
L 111.261572 115.901524 
L 111.261572 115.132396 
L 112.075243 115.132396 
L 112.075243 114.378207 
L 112.888913 114.378207 
L 112.888913 113.643866 
L 113.702584 113.643866 
L 113.702584 112.925956 
L 114.516254 112.925956 
L 114.516254 112.177956 
L 115.329925 112.177956 
L 115.329925 111.442121 
L 116.143595 111.442121 
L 116.143595 110.728266 
L 116.957266 110.728266 
L 116.957266 110.03938 
L 117.770936 110.03938 
L 117.770936 109.361165 
L 118.584607 109.361165 
L 118.584607 108.684231 
L 119.398278 108.684231 
L 119.398278 108.022661 
L 120.211948 108.022661 
L 120.211948 107.351916 
L 121.025619 107.351916 
L 121.025619 106.696108 
L 121.839289 106.696108 
L 121.839289 106.046917 
L 122.65296 106.046917 
L 122.65296 105.408823 
L 123.46663 105.408823 
L 123.46663 104.767528 
L 124.280301 104.767528 
L 124.280301 104.108519 
L 125.093971 104.108519 
L 125.093971 103.474266 
L 125.907642 103.474266 
L 125.907642 102.835745 
L 126.721312 102.835745 
L 126.721312 102.240333 
L 127.534983 102.240333 
L 127.534983 101.655591 
L 128.348653 101.655591 
L 128.348653 101.070849 
L 129.162324 101.070849 
L 129.162324 100.492083 
L 129.975995 100.492083 
L 129.975995 99.906274 
L 130.789665 99.906274 
L 130.789665 99.315557 
L 131.603336 99.315557 
L 131.603336 98.754717 
L 132.417006 98.754717 
L 132.417006 98.204121 
L 133.230677 98.204121 
L 133.230677 97.65203 
L 134.044347 97.65203 
L 134.044347 97.097166 
L 134.858018 97.097166 
L 134.858018 96.56535 
L 135.671688 96.56535 
L 135.671688 96.020942 
L 136.485359 96.020942 
L 136.485359 95.487632 
L 137.299029 95.487632 
L 137.299029 94.961151 
L 138.1127 94.961151 
L 138.1127 94.411835 
L 138.92637 94.411835 
L 138.92637 93.866361 
L 139.740041 93.866361 
L 139.740041 93.334971 
L 140.553712 93.334971 
L 140.553712 92.818734 
L 141.367382 92.818734 
L 141.367382 92.278168 
L 142.181053 92.278168 
L 142.181053 91.756168 
L 142.994723 91.756168 
L 142.994723 91.244839 
L 143.808394 91.244839 
L 143.808394 90.736071 
L 144.622064 90.736071 
L 144.622064 90.233279 
L 145.435735 90.233279 
L 145.435735 89.737955 
L 146.249405 89.737955 
L 146.249405 89.24562 
L 147.063076 89.24562 
L 147.063076 88.750297 
L 147.876746 88.750297 
L 147.876746 88.259668 
L 148.690417 88.259668 
L 148.690417 87.773522 
L 149.504087 87.773522 
L 149.504087 87.303167 
L 150.317758 87.303167 
L 150.317758 86.882537 
L 151.131429 86.882537 
L 151.131429 86.466816 
L 151.945099 86.466816 
L 151.945099 86.069661 
L 152.75877 86.069661 
L 152.75877 85.67592 
L 153.57244 85.67592 
L 153.57244 85.292637 
L 154.386111 85.292637 
L 154.386111 84.913835 
L 155.199781 84.913835 
L 155.199781 84.536954 
L 156.013452 84.536954 
L 156.013452 84.171597 
L 156.827122 84.171597 
L 156.827122 83.806027 
L 157.640793 83.806027 
L 157.640793 83.454115 
L 158.454463 83.454115 
L 158.454463 83.12141 
L 159.268134 83.12141 
L 159.268134 82.802576 
L 160.081805 82.802576 
L 160.081805 82.467737 
L 160.895475 82.467737 
L 160.895475 82.129483 
L 161.709146 82.129483 
L 161.709146 81.787601 
L 162.522816 81.787601 
L 162.522816 81.455963 
L 163.336487 81.455963 
L 163.336487 81.138196 
L 164.150157 81.138196 
L 164.150157 80.816588 
L 164.963828 80.816588 
L 164.963828 80.488578 
L 165.777498 80.488578 
L 165.777498 80.169104 
L 166.591169 80.169104 
L 166.591169 79.846855 
L 167.404839 79.846855 
L 167.404839 79.518845 
L 168.21851 79.518845 
L 168.21851 79.201719 
L 169.03218 79.201719 
L 169.03218 78.869013 
L 169.845851 78.869013 
L 169.845851 78.541857 
L 170.659522 78.541857 
L 170.659522 78.233267 
L 171.473192 78.233267 
L 171.473192 77.911232 
L 172.286863 77.911232 
L 172.286863 77.603496 
L 173.100533 77.603496 
L 173.100533 77.265668 
L 173.914204 77.265668 
L 173.914204 76.943207 
L 174.727874 76.943207 
L 174.727874 76.636111 
L 175.541545 76.636111 
L 175.541545 76.319838 
L 176.355215 76.319838 
L 176.355215 76.009327 
L 177.168886 76.009327 
L 177.168886 75.694121 
L 177.982556 75.694121 
L 177.982556 75.394281 
L 178.796227 75.394281 
L 178.796227 75.085905 
L 179.609897 75.085905 
L 179.609897 74.776248 
L 180.423568 74.776248 
L 180.423568 74.464456 
L 181.237239 74.464456 
L 181.237239 74.166964 
L 182.050909 74.166964 
L 182.050909 73.844715 
L 182.86458 73.844715 
L 182.86458 73.542101 
L 183.67825 73.542101 
L 183.67825 73.238633 
L 184.491921 73.238633 
L 184.491921 72.938792 
L 185.305591 72.938792 
L 185.305591 72.645354 
L 186.119262 72.645354 
L 186.119262 72.345728 
L 186.932932 72.345728 
L 186.932932 72.057411 
L 187.746603 72.057411 
L 187.746603 71.763974 
L 188.560273 71.763974 
L 188.560273 71.48334 
L 189.373944 71.48334 
L 189.373944 71.180726 
L 190.187614 71.180726 
L 190.187614 70.895611 
L 191.001285 70.895611 
L 191.001285 70.605801 
L 191.814956 70.605801 
L 191.814956 70.34352 
L 192.628626 70.34352 
L 192.628626 70.084228 
L 193.442297 70.084228 
L 193.442297 69.820667 
L 194.255967 69.820667 
L 194.255967 69.558601 
L 195.069638 69.558601 
L 195.069638 69.298881 
L 195.883308 69.298881 
L 195.883308 69.03468 
L 196.696979 69.03468 
L 196.696979 68.783284 
L 197.510649 68.783284 
L 197.510649 68.532741 
L 198.32432 68.532741 
L 198.32432 68.275796 
L 199.13799 68.275796 
L 199.13799 68.039339 
L 199.951661 68.039339 
L 199.951661 67.802881 
L 200.765332 67.802881 
L 200.765332 67.583923 
L 201.579002 67.583923 
L 201.579002 67.383959 
L 202.392673 67.383959 
L 202.392673 67.169909 
L 203.206343 67.169909 
L 203.206343 66.959701 
L 204.020014 66.959701 
L 204.020014 66.737541 
L 204.833684 66.737541 
L 204.833684 66.521144 
L 205.647355 66.521144 
L 205.647355 66.307308 
L 206.461025 66.307308 
L 206.461025 66.098594 
L 207.274696 66.098594 
L 207.274696 65.888385 
L 208.088366 65.888385 
L 208.088366 65.669 
L 208.902037 65.669 
L 208.902037 65.456445 
L 209.715707 65.456445 
L 209.715707 65.261175 
L 210.529378 65.261175 
L 210.529378 65.054808 
L 211.343049 65.054808 
L 211.343049 64.857618 
L 212.156719 64.857618 
L 212.156719 64.655519 
L 212.97039 64.655519 
L 212.97039 64.464944 
L 213.78406 64.464944 
L 213.78406 64.269675 
L 214.597731 64.269675 
L 214.597731 64.084649 
L 215.411401 64.084649 
L 215.411401 63.890233 
L 216.225072 63.890233 
L 216.225072 63.692616 
L 217.038742 63.692616 
L 217.038742 63.50012 
L 217.852413 63.50012 
L 217.852413 63.304637 
L 218.666083 63.304637 
L 218.666083 63.112782 
L 219.479754 63.112782 
L 219.479754 62.921567 
L 220.293424 62.921567 
L 220.293424 62.738035 
L 221.107095 62.738035 
L 221.107095 62.558771 
L 221.920766 62.558771 
L 221.920766 62.38655 
L 222.734436 62.38655 
L 222.734436 62.216249 
L 223.548107 62.216249 
L 223.548107 62.043174 
L 224.361777 62.043174 
L 224.361777 61.860282 
L 225.175448 61.860282 
L 225.175448 61.675683 
L 225.989118 61.675683 
L 225.989118 61.497913 
L 226.802789 61.497913 
L 226.802789 61.320997 
L 227.616459 61.320997 
L 227.616459 61.148135 
L 228.43013 61.148135 
L 228.43013 60.978048 
L 229.2438 60.978048 
L 229.2438 60.813936 
L 230.057471 60.813936 
L 230.057471 60.641501 
L 230.871141 60.641501 
L 230.871141 60.484645 
L 231.684812 60.484645 
L 231.684812 60.315838 
L 232.498483 60.315838 
L 232.498483 60.148525 
L 233.312153 60.148525 
L 233.312153 59.987828 
L 234.125824 59.987828 
L 234.125824 59.835454 
L 234.939494 59.835454 
L 234.939494 59.675824 
L 235.753165 59.675824 
L 235.753165 59.520675 
L 236.566835 59.520675 
L 236.566835 59.368941 
L 237.380506 59.368941 
L 237.380506 59.219554 
L 238.194176 59.219554 
L 238.194176 59.059284 
L 239.007847 59.059284 
L 239.007847 58.902001 
L 239.821517 58.902001 
L 239.821517 58.745785 
L 240.635188 58.745785 
L 240.635188 58.597893 
L 241.448859 58.597893 
L 241.448859 58.45875 
L 242.262529 58.45875 
L 242.262529 58.303388 
L 243.0762 58.303388 
L 243.0762 58.160403 
L 243.88987 58.160403 
L 243.88987 58.022754 
L 244.703541 58.022754 
L 244.703541 57.88105 
L 245.517211 57.88105 
L 245.517211 57.748096 
L 246.330882 57.748096 
L 246.330882 57.617063 
L 247.144552 57.617063 
L 247.144552 57.467036 
L 247.958223 57.467036 
L 247.958223 57.324692 
L 248.771893 57.324692 
L 248.771893 57.191098 
L 249.585564 57.191098 
L 249.585564 57.063052 
L 250.399234 57.063052 
L 250.399234 56.934366 
L 251.212905 56.934366 
L 251.212905 56.804186 
L 252.026576 56.804186 
L 252.026576 56.673793 
L 252.840246 56.673793 
L 252.840246 56.550656 
L 253.653917 56.550656 
L 253.653917 56.426238 
L 254.467587 56.426238 
L 254.467587 56.306516 
L 255.281258 56.306516 
L 255.281258 56.18786 
L 256.094928 56.18786 
L 256.094928 56.065363 
L 256.908599 56.065363 
L 256.908599 55.944787 
L 257.722269 55.944787 
L 257.722269 55.825277 
L 258.53594 55.825277 
L 258.53594 55.706835 
L 259.34961 55.706835 
L 259.34961 55.587112 
L 260.163281 55.587112 
L 260.163281 55.469524 
L 260.976951 55.469524 
L 260.976951 55.360258 
L 261.790622 55.360258 
L 261.790622 55.243737 
L 262.604293 55.243737 
L 262.604293 55.138312 
L 263.417963 55.138312 
L 263.417963 55.022218 
L 264.231634 55.022218 
L 264.231634 54.908684 
L 265.045304 54.908684 
L 265.045304 54.798778 
L 265.858975 54.798778 
L 265.858975 54.688659 
L 266.672645 54.688659 
L 266.672645 54.590917 
L 267.486316 54.590917 
L 267.486316 54.490828 
L 268.299986 54.490828 
L 268.299986 54.396074 
L 269.113657 54.396074 
L 269.113657 54.296839 
L 269.927327 54.296839 
L 269.927327 54.188 
L 270.740998 54.188 
L 270.740998 54.091539 
L 271.554668 54.091539 
L 271.554668 53.999133 
L 272.368339 53.999133 
L 272.368339 53.909714 
L 273.18201 53.909714 
L 273.18201 53.815601 
L 273.99568 53.815601 
L 273.99568 53.723835 
L 274.809351 53.723835 
L 274.809351 53.632069 
L 275.623021 53.632069 
L 275.623021 53.537315 
L 276.436692 53.537315 
L 276.436692 53.447043 
L 277.250362 53.447043 
L 277.250362 53.359331 
L 278.064033 53.359331 
L 278.064033 53.27098 
L 278.877703 53.27098 
L 278.877703 53.18583 
L 279.691374 53.18583 
L 279.691374 53.106014 
L 280.505044 53.106014 
L 280.505044 53.019584 
L 281.318715 53.019584 
L 281.318715 52.936354 
L 282.132386 52.936354 
L 282.132386 52.862514 
L 282.946056 52.862514 
L 282.946056 52.795931 
L 283.759727 52.795931 
L 283.759727 52.719317 
L 284.573397 52.719317 
L 284.573397 52.644837 
L 285.387068 52.644837 
L 285.387068 52.568436 
L 286.200738 52.568436 
L 286.200738 52.49417 
L 287.014409 52.49417 
L 287.014409 52.426092 
L 287.828079 52.426092 
L 287.828079 52.355453 
L 288.64175 52.355453 
L 288.64175 52.285242 
L 289.45542 52.285242 
L 289.45542 52.213963 
L 290.269091 52.213963 
L 290.269091 52.143324 
L 291.082761 52.143324 
L 291.082761 52.079728 
L 291.896432 52.079728 
L 291.896432 52.015919 
L 292.710103 52.015919 
L 292.710103 51.95275 
L 293.523773 51.95275 
L 293.523773 51.887873 
L 294.337444 51.887873 
L 294.337444 51.829613 
L 295.151114 51.829613 
L 295.151114 51.771138 
L 295.964785 51.771138 
L 295.964785 51.716932 
L 296.778455 51.716932 
L 296.778455 51.659952 
L 297.592126 51.659952 
L 297.592126 51.605319 
L 298.405796 51.605319 
L 298.405796 51.544711 
L 299.219467 51.544711 
L 299.219467 51.482182 
L 300.033137 51.482182 
L 300.033137 51.433311 
L 300.846808 51.433311 
L 300.846808 51.376758 
L 301.660478 51.376758 
L 301.660478 51.327887 
L 302.474149 51.327887 
L 302.474149 51.280083 
L 303.28782 51.280083 
L 303.28782 51.231853 
L 304.10149 51.231853 
L 304.10149 51.183622 
L 304.915161 51.183622 
L 304.915161 51.140087 
L 305.728831 51.140087 
L 305.728831 51.09207 
L 306.542502 51.09207 
L 306.542502 51.053229 
L 307.356172 51.053229 
L 307.356172 51.006706 
L 308.169843 51.006706 
L 308.169843 50.967012 
L 308.983513 50.967012 
L 308.983513 50.925824 
L 309.797184 50.925824 
L 309.797184 50.885489 
L 310.610854 50.885489 
L 310.610854 50.846222 
L 311.424525 50.846222 
L 311.424525 50.810369 
L 312.238195 50.810369 
L 312.238195 50.772169 
L 313.051866 50.772169 
L 313.051866 50.734609 
L 313.865537 50.734609 
L 313.865537 50.698116 
L 314.679207 50.698116 
L 314.679207 50.66205 
L 315.492878 50.66205 
L 315.492878 50.626624 
L 316.306548 50.626624 
L 316.306548 50.591198 
L 317.120219 50.591198 
L 317.120219 50.558546 
L 317.933889 50.558546 
L 317.933889 50.527175 
L 318.74756 50.527175 
L 318.74756 50.495377 
L 319.56123 50.495377 
L 319.56123 50.462085 
L 320.374901 50.462085 
L 320.374901 50.431141 
L 321.188571 50.431141 
L 321.188571 50.404465 
L 322.002242 50.404465 
L 322.002242 50.377148 
L 322.815913 50.377148 
L 322.815913 50.348765 
L 323.629583 50.348765 
L 323.629583 50.31718 
L 324.443254 50.31718 
L 324.443254 50.28773 
L 325.256924 50.28773 
L 325.256924 50.262334 
L 326.070595 50.262334 
L 326.070595 50.237792 
L 326.884265 50.237792 
L 326.884265 50.211329 
L 327.697936 50.211329 
L 327.697936 50.189134 
L 328.511606 50.189134 
L 328.511606 50.166513 
L 329.325277 50.166513 
L 329.325277 50.144105 
L 330.138947 50.144105 
L 330.138947 50.118709 
L 330.952618 50.118709 
L 330.952618 50.099076 
L 331.766288 50.099076 
L 331.766288 50.079015 
L 332.579959 50.079015 
L 332.579959 50.059381 
L 333.39363 50.059381 
L 333.39363 50.041028 
L 334.2073 50.041028 
L 334.2073 50.023315 
L 335.020971 50.023315 
L 335.020971 50.003468 
L 335.834641 50.003468 
L 335.834641 49.987676 
L 336.648312 49.987676 
L 336.648312 49.969109 
L 337.461982 49.969109 
L 337.461982 49.953957 
L 338.275653 49.953957 
L 338.275653 49.935604 
L 339.089323 49.935604 
L 339.089323 49.920452 
L 339.902994 49.920452 
L 339.902994 49.905086 
L 340.716664 49.905086 
L 340.716664 49.891642 
L 341.530335 49.891642 
L 341.530335 49.878624 
L 342.344005 49.878624 
L 342.344005 49.863045 
L 343.157676 49.863045 
L 343.157676 49.85024 
L 343.971347 49.85024 
L 343.971347 49.838076 
L 344.785017 49.838076 
L 344.785017 49.826979 
L 345.598688 49.826979 
L 345.598688 49.809906 
L 346.412358 49.809906 
L 346.412358 49.797528 
L 347.226029 49.797528 
L 347.226029 49.787498 
L 348.039699 49.787498 
L 348.039699 49.779602 
L 348.85337 49.779602 
L 348.85337 49.769358 
L 349.66704 49.769358 
L 349.66704 49.758261 
L 350.480711 49.758261 
L 350.480711 49.751218 
L 351.294381 49.751218 
L 351.294381 49.742042 
L 352.108052 49.742042 
L 352.108052 49.731798 
L 352.921722 49.731798 
L 352.921722 49.721341 
L 353.735393 49.721341 
L 353.735393 49.713872 
L 354.549064 49.713872 
L 354.549064 49.705549 
L 355.362734 49.705549 
L 355.362734 49.699787 
L 356.176405 49.699787 
L 356.176405 49.693384 
L 356.990075 49.693384 
L 356.990075 49.682287 
L 357.803746 49.682287 
L 357.803746 49.674177 
L 358.617416 49.674177 
L 358.617416 49.667775 
L 359.431087 49.667775 
L 359.431087 49.662013 
L 360.244757 49.662013 
L 360.244757 49.657105 
L 361.058428 49.657105 
L 361.058428 49.651983 
L 361.872098 49.651983 
L 361.872098 49.646221 
L 362.685769 49.646221 
L 362.685769 49.641739 
L 363.49944 49.641739 
L 363.49944 49.636831 
L 364.31311 49.636831 
L 364.31311 49.631496 
L 365.126781 49.631496 
L 365.126781 49.626587 
L 365.940451 49.626587 
L 365.940451 49.622959 
L 366.754122 49.622959 
L 366.754122 49.619971 
L 367.567792 49.619971 
L 367.567792 49.615276 
L 368.381463 49.615276 
L 368.381463 49.609514 
L 369.195133 49.609514 
L 369.195133 49.60546 
L 370.008804 49.60546 
L 370.008804 49.601832 
L 370.822474 49.601832 
L 370.822474 49.598204 
L 371.636145 49.598204 
L 371.636145 49.595856 
L 372.449815 49.595856 
L 372.449815 49.593509 
L 373.263486 49.593509 
L 373.263486 49.589241 
L 374.077157 49.589241 
L 374.077157 49.585613 
L 374.890827 49.585613 
L 374.890827 49.581771 
L 375.704498 49.581771 
L 375.704498 49.577503 
L 376.518168 49.577503 
L 376.518168 49.575796 
L 377.331839 49.575796 
L 377.331839 49.573662 
L 378.145509 49.573662 
L 378.145509 49.571954 
L 378.95918 49.571954 
L 378.95918 49.56918 
L 379.77285 49.56918 
L 379.77285 49.56854 
L 380.586521 49.56854 
L 380.586521 49.567046 
L 381.400191 49.567046 
L 381.400191 49.565125 
L 382.213862 49.565125 
L 382.213862 49.562564 
L 383.027532 49.562564 
L 383.027532 49.561284 
L 383.841203 49.561284 
L 383.841203 49.56043 
L 384.654874 49.56043 
L 384.654874 49.559363 
L 385.468544 49.559363 
L 385.468544 49.558083 
L 386.282215 49.558083 
L 386.282215 49.557016 
L 387.095885 49.557016 
L 387.095885 49.555949 
L 387.909556 49.555949 
L 387.909556 49.554882 
L 388.723226 49.554882 
L 388.723226 49.554241 
L 389.536897 49.554241 
L 389.536897 49.554028 
L 390.350567 49.554028 
L 390.350567 49.553174 
L 391.164238 49.553174 
L 391.164238 49.552534 
L 391.977908 49.552534 
L 391.977908 49.55168 
L 392.791579 49.55168 
L 392.791579 49.55168 
L 393.605249 49.55168 
L 393.605249 49.551467 
L 394.41892 49.551467 
L 394.41892 49.551254 
L 395.232591 49.551254 
L 395.232591 49.550827 
L 396.046261 49.550827 
L 396.046261 49.550613 
L 396.859932 49.550613 
L 396.859932 49.550613 
L 397.673602 49.550613 
L 397.673602 49.5504 
L 398.487273 49.5504 
L 398.487273 273.3264 
L 398.487273 273.3264 
L 397.673602 273.3264 
L 397.673602 273.3264 
L 396.859932 273.3264 
L 396.859932 273.3264 
L 396.046261 273.3264 
L 396.046261 273.3264 
L 395.232591 273.3264 
L 395.232591 273.3264 
L 394.41892 273.3264 
L 394.41892 273.3264 
L 393.605249 273.3264 
L 393.605249 273.3264 
L 392.791579 273.3264 
L 392.791579 273.3264 
L 391.977908 273.3264 
L 391.977908 273.3264 
L 391.164238 273.3264 
L 391.164238 273.3264 
L 390.350567 273.3264 
L 390.350567 273.3264 
L 389.536897 273.3264 
L 389.536897 273.3264 
L 388.723226 273.3264 
L 388.723226 273.3264 
L 387.909556 273.3264 
L 387.909556 273.3264 
L 387.095885 273.3264 
L 387.095885 273.3264 
L 386.282215 273.3264 
L 386.282215 273.3264 
L 385.468544 273.3264 
L 385.468544 273.3264 
L 384.654874 273.3264 
L 384.654874 273.3264 
L 383.841203 273.3264 
L 383.841203 273.3264 
L 383.027532 273.3264 
L 383.027532 273.3264 
L 382.213862 273.3264 
L 382.213862 273.3264 
L 381.400191 273.3264 
L 381.400191 273.3264 
L 380.586521 273.3264 
L 380.586521 273.3264 
L 379.77285 273.3264 
L 379.77285 273.3264 
L 378.95918 273.3264 
L 378.95918 273.3264 
L 378.145509 273.3264 
L 378.145509 273.3264 
L 377.331839 273.3264 
L 377.331839 273.3264 
L 376.518168 273.3264 
L 376.518168 273.3264 
L 375.704498 273.3264 
L 375.704498 273.3264 
L 374.890827 273.3264 
L 374.890827 273.3264 
L 374.077157 273.3264 
L 374.077157 273.3264 
L 373.263486 273.3264 
L 373.263486 273.3264 
L 372.449815 273.3264 
L 372.449815 273.3264 
L 371.636145 273.3264 
L 371.636145 273.3264 
L 370.822474 273.3264 
L 370.822474 273.3264 
L 370.008804 273.3264 
L 370.008804 273.3264 
L 369.195133 273.3264 
L 369.195133 273.3264 
L 368.381463 273.3264 
L 368.381463 273.3264 
L 367.567792 273.3264 
L 367.567792 273.3264 
L 366.754122 273.3264 
L 366.754122 273.3264 
L 365.940451 273.3264 
L 365.940451 273.3264 
L 365.126781 273.3264 
L 365.126781 273.3264 
L 364.31311 273.3264 
L 364.31311 273.3264 
L 363.49944 273.3264 
L 363.49944 273.3264 
L 362.685769 273.3264 
L 362.685769 273.3264 
L 361.872098 273.3264 
L 361.872098 273.3264 
L 361.058428 273.3264 
L 361.058428 273.3264 
L 360.244757 273.3264 
L 360.244757 273.3264 
L 359.431087 273.3264 
L 359.431087 273.3264 
L 358.617416 273.3264 
L 358.617416 273.3264 
L 357.803746 273.3264 
L 357.803746 273.3264 
L 356.990075 273.3264 
L 356.990075 273.3264 
L 356.176405 273.3264 
L 356.176405 273.3264 
L 355.362734 273.3264 
L 355.362734 273.3264 
L 354.549064 273.3264 
L 354.549064 273.3264 
L 353.735393 273.3264 
L 353.735393 273.3264 
L 352.921722 273.3264 
L 352.921722 273.3264 
L 352.108052 273.3264 
L 352.108052 273.3264 
L 351.294381 273.3264 
L 351.294381 273.3264 
L 350.480711 273.3264 
L 350.480711 273.3264 
L 349.66704 273.3264 
L 349.66704 273.3264 
L 348.85337 273.3264 
L 348.85337 273.3264 
L 348.039699 273.3264 
L 348.039699 273.3264 
L 347.226029 273.3264 
L 347.226029 273.3264 
L 346.412358 273.3264 
L 346.412358 273.3264 
L 345.598688 273.3264 
L 345.598688 273.3264 
L 344.785017 273.3264 
L 344.785017 273.3264 
L 343.971347 273.3264 
L 343.971347 273.3264 
L 343.157676 273.3264 
L 343.157676 273.3264 
L 342.344005 273.3264 
L 342.344005 273.3264 
L 341.530335 273.3264 
L 341.530335 273.3264 
L 340.716664 273.3264 
L 340.716664 273.3264 
L 339.902994 273.3264 
L 339.902994 273.3264 
L 339.089323 273.3264 
L 339.089323 273.3264 
L 338.275653 273.3264 
L 338.275653 273.3264 
L 337.461982 273.3264 
L 337.461982 273.3264 
L 336.648312 273.3264 
L 336.648312 273.3264 
L 335.834641 273.3264 
L 335.834641 273.3264 
L 335.020971 273.3264 
L 335.020971 273.3264 
L 334.2073 273.3264 
L 334.2073 273.3264 
L 333.39363 273.3264 
L 333.39363 273.3264 
L 332.579959 273.3264 
L 332.579959 273.3264 
L 331.766288 273.3264 
L 331.766288 273.3264 
L 330.952618 273.3264 
L 330.952618 273.3264 
L 330.138947 273.3264 
L 330.138947 273.3264 
L 329.325277 273.3264 
L 329.325277 273.3264 
L 328.511606 273.3264 
L 328.511606 273.3264 
L 327.697936 273.3264 
L 327.697936 273.3264 
L 326.884265 273.3264 
L 326.884265 273.3264 
L 326.070595 273.3264 
L 326.070595 273.3264 
L 325.256924 273.3264 
L 325.256924 273.3264 
L 324.443254 273.3264 
L 324.443254 273.3264 
L 323.629583 273.3264 
L 323.629583 273.3264 
L 322.815913 273.3264 
L 322.815913 273.3264 
L 322.002242 273.3264 
L 322.002242 273.3264 
L 321.188571 273.3264 
L 321.188571 273.3264 
L 320.374901 273.3264 
L 320.374901 273.3264 
L 319.56123 273.3264 
L 319.56123 273.3264 
L 318.74756 273.3264 
L 318.74756 273.3264 
L 317.933889 273.3264 
L 317.933889 273.3264 
L 317.120219 273.3264 
L 317.120219 273.3264 
L 316.306548 273.3264 
L 316.306548 273.3264 
L 315.492878 273.3264 
L 315.492878 273.3264 
L 314.679207 273.3264 
L 314.679207 273.3264 
L 313.865537 273.3264 
L 313.865537 273.3264 
L 313.051866 273.3264 
L 313.051866 273.3264 
L 312.238195 273.3264 
L 312.238195 273.3264 
L 311.424525 273.3264 
L 311.424525 273.3264 
L 310.610854 273.3264 
L 310.610854 273.3264 
L 309.797184 273.3264 
L 309.797184 273.3264 
L 308.983513 273.3264 
L 308.983513 273.3264 
L 308.169843 273.3264 
L 308.169843 273.3264 
L 307.356172 273.3264 
L 307.356172 273.3264 
L 306.542502 273.3264 
L 306.542502 273.3264 
L 305.728831 273.3264 
L 305.728831 273.3264 
L 304.915161 273.3264 
L 304.915161 273.3264 
L 304.10149 273.3264 
L 304.10149 273.3264 
L 303.28782 273.3264 
L 303.28782 273.3264 
L 302.474149 273.3264 
L 302.474149 273.3264 
L 301.660478 273.3264 
L 301.660478 273.3264 
L 300.846808 273.3264 
L 300.846808 273.3264 
L 300.033137 273.3264 
L 300.033137 273.3264 
L 299.219467 273.3264 
L 299.219467 273.3264 
L 298.405796 273.3264 
L 298.405796 273.3264 
L 297.592126 273.3264 
L 297.592126 273.3264 
L 296.778455 273.3264 
L 296.778455 273.3264 
L 295.964785 273.3264 
L 295.964785 273.3264 
L 295.151114 273.3264 
L 295.151114 273.3264 
L 294.337444 273.3264 
L 294.337444 273.3264 
L 293.523773 273.3264 
L 293.523773 273.3264 
L 292.710103 273.3264 
L 292.710103 273.3264 
L 291.896432 273.3264 
L 291.896432 273.3264 
L 291.082761 273.3264 
L 291.082761 273.3264 
L 290.269091 273.3264 
L 290.269091 273.3264 
L 289.45542 273.3264 
L 289.45542 273.3264 
L 288.64175 273.3264 
L 288.64175 273.3264 
L 287.828079 273.3264 
L 287.828079 273.3264 
L 287.014409 273.3264 
L 287.014409 273.3264 
L 286.200738 273.3264 
L 286.200738 273.3264 
L 285.387068 273.3264 
L 285.387068 273.3264 
L 284.573397 273.3264 
L 284.573397 273.3264 
L 283.759727 273.3264 
L 283.759727 273.3264 
L 282.946056 273.3264 
L 282.946056 273.3264 
L 282.132386 273.3264 
L 282.132386 273.3264 
L 281.318715 273.3264 
L 281.318715 273.3264 
L 280.505044 273.3264 
L 280.505044 273.3264 
L 279.691374 273.3264 
L 279.691374 273.3264 
L 278.877703 273.3264 
L 278.877703 273.3264 
L 278.064033 273.3264 
L 278.064033 273.3264 
L 277.250362 273.3264 
L 277.250362 273.3264 
L 276.436692 273.3264 
L 276.436692 273.3264 
L 275.623021 273.3264 
L 275.623021 273.3264 
L 274.809351 273.3264 
L 274.809351 273.3264 
L 273.99568 273.3264 
L 273.99568 273.3264 
L 273.18201 273.3264 
L 273.18201 273.3264 
L 272.368339 273.3264 
L 272.368339 273.3264 
L 271.554668 273.3264 
L 271.554668 273.3264 
L 270.740998 273.3264 
L 270.740998 273.3264 
L 269.927327 273.3264 
L 269.927327 273.3264 
L 269.113657 273.3264 
L 269.113657 273.3264 
L 268.299986 273.3264 
L 268.299986 273.3264 
L 267.486316 273.3264 
L 267.486316 273.3264 
L 266.672645 273.3264 
L 266.672645 273.3264 
L 265.858975 273.3264 
L 265.858975 273.3264 
L 265.045304 273.3264 
L 265.045304 273.3264 
L 264.231634 273.3264 
L 264.231634 273.3264 
L 263.417963 273.3264 
L 263.417963 273.3264 
L 262.604293 273.3264 
L 262.604293 273.3264 
L 261.790622 273.3264 
L 261.790622 273.3264 
L 260.976951 273.3264 
L 260.976951 273.3264 
L 260.163281 273.3264 
L 260.163281 273.3264 
L 259.34961 273.3264 
L 259.34961 273.3264 
L 258.53594 273.3264 
L 258.53594 273.3264 
L 257.722269 273.3264 
L 257.722269 273.3264 
L 256.908599 273.3264 
L 256.908599 273.3264 
L 256.094928 273.3264 
L 256.094928 273.3264 
L 255.281258 273.3264 
L 255.281258 273.3264 
L 254.467587 273.3264 
L 254.467587 273.3264 
L 253.653917 273.3264 
L 253.653917 273.3264 
L 252.840246 273.3264 
L 252.840246 273.3264 
L 252.026576 273.3264 
L 252.026576 273.3264 
L 251.212905 273.3264 
L 251.212905 273.3264 
L 250.399234 273.3264 
L 250.399234 273.3264 
L 249.585564 273.3264 
L 249.585564 273.3264 
L 248.771893 273.3264 
L 248.771893 273.3264 
L 247.958223 273.3264 
L 247.958223 273.3264 
L 247.144552 273.3264 
L 247.144552 273.3264 
L 246.330882 273.3264 
L 246.330882 273.3264 
L 245.517211 273.3264 
L 245.517211 273.3264 
L 244.703541 273.3264 
L 244.703541 273.3264 
L 243.88987 273.3264 
L 243.88987 273.3264 
L 243.0762 273.3264 
L 243.0762 273.3264 
L 242.262529 273.3264 
L 242.262529 273.3264 
L 241.448859 273.3264 
L 241.448859 273.3264 
L 240.635188 273.3264 
L 240.635188 273.3264 
L 239.821517 273.3264 
L 239.821517 273.3264 
L 239.007847 273.3264 
L 239.007847 273.3264 
L 238.194176 273.3264 
L 238.194176 273.3264 
L 237.380506 273.3264 
L 237.380506 273.3264 
L 236.566835 273.3264 
L 236.566835 273.3264 
L 235.753165 273.3264 
L 235.753165 273.3264 
L 234.939494 273.3264 
L 234.939494 273.3264 
L 234.125824 273.3264 
L 234.125824 273.3264 
L 233.312153 273.3264 
L 233.312153 273.3264 
L 232.498483 273.3264 
L 232.498483 273.3264 
L 231.684812 273.3264 
L 231.684812 273.3264 
L 230.871141 273.3264 
L 230.871141 273.3264 
L 230.057471 273.3264 
L 230.057471 273.3264 
L 229.2438 273.3264 
L 229.2438 273.3264 
L 228.43013 273.3264 
L 228.43013 273.3264 
L 227.616459 273.3264 
L 227.616459 273.3264 
L 226.802789 273.3264 
L 226.802789 273.3264 
L 225.989118 273.3264 
L 225.989118 273.3264 
L 225.175448 273.3264 
L 225.175448 273.3264 
L 224.361777 273.3264 
L 224.361777 273.3264 
L 223.548107 273.3264 
L 223.548107 273.3264 
L 222.734436 273.3264 
L 222.734436 273.3264 
L 221.920766 273.3264 
L 221.920766 273.3264 
L 221.107095 273.3264 
L 221.107095 273.3264 
L 220.293424 273.3264 
L 220.293424 273.3264 
L 219.479754 273.3264 
L 219.479754 273.3264 
L 218.666083 273.3264 
L 218.666083 273.3264 
L 217.852413 273.3264 
L 217.852413 273.3264 
L 217.038742 273.3264 
L 217.038742 273.3264 
L 216.225072 273.3264 
L 216.225072 273.3264 
L 215.411401 273.3264 
L 215.411401 273.3264 
L 214.597731 273.3264 
L 214.597731 273.3264 
L 213.78406 273.3264 
L 213.78406 273.3264 
L 212.97039 273.3264 
L 212.97039 273.3264 
L 212.156719 273.3264 
L 212.156719 273.3264 
L 211.343049 273.3264 
L 211.343049 273.3264 
L 210.529378 273.3264 
L 210.529378 273.3264 
L 209.715707 273.3264 
L 209.715707 273.3264 
L 208.902037 273.3264 
L 208.902037 273.3264 
L 208.088366 273.3264 
L 208.088366 273.3264 
L 207.274696 273.3264 
L 207.274696 273.3264 
L 206.461025 273.3264 
L 206.461025 273.3264 
L 205.647355 273.3264 
L 205.647355 273.3264 
L 204.833684 273.3264 
L 204.833684 273.3264 
L 204.020014 273.3264 
L 204.020014 273.3264 
L 203.206343 273.3264 
L 203.206343 273.3264 
L 202.392673 273.3264 
L 202.392673 273.3264 
L 201.579002 273.3264 
L 201.579002 273.3264 
L 200.765332 273.3264 
L 200.765332 273.3264 
L 199.951661 273.3264 
L 199.951661 273.3264 
L 199.13799 273.3264 
L 199.13799 273.3264 
L 198.32432 273.3264 
L 198.32432 273.3264 
L 197.510649 273.3264 
L 197.510649 273.3264 
L 196.696979 273.3264 
L 196.696979 273.3264 
L 195.883308 273.3264 
L 195.883308 273.3264 
L 195.069638 273.3264 
L 195.069638 273.3264 
L 194.255967 273.3264 
L 194.255967 273.3264 
L 193.442297 273.3264 
L 193.442297 273.3264 
L 192.628626 273.3264 
L 192.628626 273.3264 
L 191.814956 273.3264 
L 191.814956 273.3264 
L 191.001285 273.3264 
L 191.001285 273.3264 
L 190.187614 273.3264 
L 190.187614 273.3264 
L 189.373944 273.3264 
L 189.373944 273.3264 
L 188.560273 273.3264 
L 188.560273 273.3264 
L 187.746603 273.3264 
L 187.746603 273.3264 
L 186.932932 273.3264 
L 186.932932 273.3264 
L 186.119262 273.3264 
L 186.119262 273.3264 
L 185.305591 273.3264 
L 185.305591 273.3264 
L 184.491921 273.3264 
L 184.491921 273.3264 
L 183.67825 273.3264 
L 183.67825 273.3264 
L 182.86458 273.3264 
L 182.86458 273.3264 
L 182.050909 273.3264 
L 182.050909 273.3264 
L 181.237239 273.3264 
L 181.237239 273.3264 
L 180.423568 273.3264 
L 180.423568 273.3264 
L 179.609897 273.3264 
L 179.609897 273.3264 
L 178.796227 273.3264 
L 178.796227 273.3264 
L 177.982556 273.3264 
L 177.982556 273.3264 
L 177.168886 273.3264 
L 177.168886 273.3264 
L 176.355215 273.3264 
L 176.355215 273.3264 
L 175.541545 273.3264 
L 175.541545 273.3264 
L 174.727874 273.3264 
L 174.727874 273.3264 
L 173.914204 273.3264 
L 173.914204 273.3264 
L 173.100533 273.3264 
L 173.100533 273.3264 
L 172.286863 273.3264 
L 172.286863 273.3264 
L 171.473192 273.3264 
L 171.473192 273.3264 
L 170.659522 273.3264 
L 170.659522 273.3264 
L 169.845851 273.3264 
L 169.845851 273.3264 
L 169.03218 273.3264 
L 169.03218 273.3264 
L 168.21851 273.3264 
L 168.21851 273.3264 
L 167.404839 273.3264 
L 167.404839 273.3264 
L 166.591169 273.3264 
L 166.591169 273.3264 
L 165.777498 273.3264 
L 165.777498 273.3264 
L 164.963828 273.3264 
L 164.963828 273.3264 
L 164.150157 273.3264 
L 164.150157 273.3264 
L 163.336487 273.3264 
L 163.336487 273.3264 
L 162.522816 273.3264 
L 162.522816 273.3264 
L 161.709146 273.3264 
L 161.709146 273.3264 
L 160.895475 273.3264 
L 160.895475 273.3264 
L 160.081805 273.3264 
L 160.081805 273.3264 
L 159.268134 273.3264 
L 159.268134 273.3264 
L 158.454463 273.3264 
L 158.454463 273.3264 
L 157.640793 273.3264 
L 157.640793 273.3264 
L 156.827122 273.3264 
L 156.827122 273.3264 
L 156.013452 273.3264 
L 156.013452 273.3264 
L 155.199781 273.3264 
L 155.199781 273.3264 
L 154.386111 273.3264 
L 154.386111 273.3264 
L 153.57244 273.3264 
L 153.57244 273.3264 
L 152.75877 273.3264 
L 152.75877 273.3264 
L 151.945099 273.3264 
L 151.945099 273.3264 
L 151.131429 273.3264 
L 151.131429 273.3264 
L 150.317758 273.3264 
L 150.317758 273.3264 
L 149.504087 273.3264 
L 149.504087 273.3264 
L 148.690417 273.3264 
L 148.690417 273.3264 
L 147.876746 273.3264 
L 147.876746 273.3264 
L 147.063076 273.3264 
L 147.063076 273.3264 
L 146.249405 273.3264 
L 146.249405 273.3264 
L 145.435735 273.3264 
L 145.435735 273.3264 
L 144.622064 273.3264 
L 144.622064 273.3264 
L 143.808394 273.3264 
L 143.808394 273.3264 
L 142.994723 273.3264 
L 142.994723 273.3264 
L 142.181053 273.3264 
L 142.181053 273.3264 
L 141.367382 273.3264 
L 141.367382 273.3264 
L 140.553712 273.3264 
L 140.553712 273.3264 
L 139.740041 273.3264 
L 139.740041 273.3264 
L 138.92637 273.3264 
L 138.92637 273.3264 
L 138.1127 273.3264 
L 138.1127 273.3264 
L 137.299029 273.3264 
L 137.299029 273.3264 
L 136.485359 273.3264 
L 136.485359 273.3264 
L 135.671688 273.3264 
L 135.671688 273.3264 
L 134.858018 273.3264 
L 134.858018 273.3264 
L 134.044347 273.3264 
L 134.044347 273.3264 
L 133.230677 273.3264 
L 133.230677 273.3264 
L 132.417006 273.3264 
L 132.417006 273.3264 
L 131.603336 273.3264 
L 131.603336 273.3264 
L 130.789665 273.3264 
L 130.789665 273.3264 
L 129.975995 273.3264 
L 129.975995 273.3264 
L 129.162324 273.3264 
L 129.162324 273.3264 
L 128.348653 273.3264 
L 128.348653 273.3264 
L 127.534983 273.3264 
L 127.534983 273.3264 
L 126.721312 273.3264 
L 126.721312 273.3264 
L 125.907642 273.3264 
L 125.907642 273.3264 
L 125.093971 273.3264 
L 125.093971 273.3264 
L 124.280301 273.3264 
L 124.280301 273.3264 
L 123.46663 273.3264 
L 123.46663 273.3264 
L 122.65296 273.3264 
L 122.65296 273.3264 
L 121.839289 273.3264 
L 121.839289 273.3264 
L 121.025619 273.3264 
L 121.025619 273.3264 
L 120.211948 273.3264 
L 120.211948 273.3264 
L 119.398278 273.3264 
L 119.398278 273.3264 
L 118.584607 273.3264 
L 118.584607 273.3264 
L 117.770936 273.3264 
L 117.770936 273.3264 
L 116.957266 273.3264 
L 116.957266 273.3264 
L 116.143595 273.3264 
L 116.143595 273.3264 
L 115.329925 273.3264 
L 115.329925 273.3264 
L 114.516254 273.3264 
L 114.516254 273.3264 
L 113.702584 273.3264 
L 113.702584 273.3264 
L 112.888913 273.3264 
L 112.888913 273.3264 
L 112.075243 273.3264 
L 112.075243 273.3264 
L 111.261572 273.3264 
L 111.261572 273.3264 
L 110.447902 273.3264 
L 110.447902 273.3264 
L 109.634231 273.3264 
L 109.634231 273.3264 
L 108.82056 273.3264 
L 108.82056 273.3264 
L 108.00689 273.3264 
L 108.00689 273.3264 
L 107.193219 273.3264 
L 107.193219 273.3264 
L 106.379549 273.3264 
L 106.379549 273.3264 
L 105.565878 273.3264 
L 105.565878 273.3264 
L 104.752208 273.3264 
L 104.752208 273.3264 
L 103.938537 273.3264 
L 103.938537 273.3264 
L 103.124867 273.3264 
L 103.124867 273.3264 
L 102.311196 273.3264 
L 102.311196 273.3264 
L 101.497526 273.3264 
L 101.497526 273.3264 
L 100.683855 273.3264 
L 100.683855 273.3264 
L 99.870185 273.3264 
L 99.870185 273.3264 
L 99.056514 273.3264 
L 99.056514 273.3264 
L 98.242843 273.3264 
L 98.242843 273.3264 
L 97.429173 273.3264 
L 97.429173 273.3264 
L 96.615502 273.3264 
L 96.615502 273.3264 
L 95.801832 273.3264 
L 95.801832 273.3264 
L 94.988161 273.3264 
L 94.988161 273.3264 
L 94.174491 273.3264 
L 94.174491 273.3264 
L 93.36082 273.3264 
L 93.36082 273.3264 
L 92.54715 273.3264 
L 92.54715 273.3264 
L 91.733479 273.3264 
L 91.733479 273.3264 
L 90.919809 273.3264 
L 90.919809 273.3264 
L 90.106138 273.3264 
L 90.106138 273.3264 
L 89.292468 273.3264 
L 89.292468 273.3264 
L 88.478797 273.3264 
L 88.478797 273.3264 
L 87.665126 273.3264 
L 87.665126 273.3264 
L 86.851456 273.3264 
L 86.851456 273.3264 
L 86.037785 273.3264 
L 86.037785 273.3264 
L 85.224115 273.3264 
L 85.224115 273.3264 
L 84.410444 273.3264 
L 84.410444 273.3264 
L 83.596774 273.3264 
L 83.596774 273.3264 
L 82.783103 273.3264 
L 82.783103 273.3264 
L 81.969433 273.3264 
L 81.969433 273.3264 
L 81.155762 273.3264 
L 81.155762 273.3264 
L 80.342092 273.3264 
L 80.342092 273.3264 
L 79.528421 273.3264 
L 79.528421 273.3264 
L 78.714751 273.3264 
L 78.714751 273.3264 
L 77.90108 273.3264 
L 77.90108 273.3264 
L 77.087409 273.3264 
L 77.087409 273.3264 
L 76.273739 273.3264 
L 76.273739 273.3264 
L 75.460068 273.3264 
L 75.460068 273.3264 
L 74.646398 273.3264 
L 74.646398 273.3264 
L 73.832727 273.3264 
L 73.832727 273.3264 
z
" clip-path="url(#p28fb7b8f19)" style="fill: #1f77b4; fill-opacity: 0.4"/>
   </g>
   <g id="matplotlib.axis_1">
    <g id="xtick_1">
     <g id="line2d_1">
      <defs>
       <path id="m03746f46ef" d="M 0 0 
L 0 3.5 
" style="stroke: #000000; stroke-width: 0.8"/>
      </defs>
      <g>
       <use xlink:href="#m03746f46ef" x="73.832727" y="284.5152" style="stroke: #000000; stroke-width: 0.8"/>
      </g>
     </g>
     <g id="text_1">
      <!-- 0.0 -->
      <g transform="translate(65.881165 299.113637) scale(0.1 -0.1)">
       <defs>
        <path id="DejaVuSans-30" d="M 2034 4250 
Q 1547 4250 1301 3770 
Q 1056 3291 1056 2328 
Q 1056 1369 1301 889 
Q 1547 409 2034 409 
Q 2525 409 2770 889 
Q 3016 1369 3016 2328 
Q 3016 3291 2770 3770 
Q 2525 4250 2034 4250 
z
M 2034 4750 
Q 2819 4750 3233 4129 
Q 3647 3509 3647 2328 
Q 3647 1150 3233 529 
Q 2819 -91 2034 -91 
Q 1250 -91 836 529 
Q 422 1150 422 2328 
Q 422 3509 836 4129 
Q 1250 4750 2034 4750 
z
" transform="scale(0.015625)"/>
        <path id="DejaVuSans-2e" d="M 684 794 
L 1344 794 
L 1344 0 
L 684 0 
L 684 794 
z
" transform="scale(0.015625)"/>
       </defs>
       <use xlink:href="#DejaVuSans-30"/>
       <use xlink:href="#DejaVuSans-2e" x="63.623047"/>
       <use xlink:href="#DejaVuSans-30" x="95.410156"/>
      </g>
     </g>
    </g>
    <g id="xtick_2">
     <g id="line2d_2">
      <g>
       <use xlink:href="#m03746f46ef" x="120.541618" y="284.5152" style="stroke: #000000; stroke-width: 0.8"/>
      </g>
     </g>
     <g id="text_2">
      <!-- 0.1 -->
      <g transform="translate(112.590055 299.113637) scale(0.1 -0.1)">
       <defs>
        <path id="DejaVuSans-31" d="M 794 531 
L 1825 531 
L 1825 4091 
L 703 3866 
L 703 4441 
L 1819 4666 
L 2450 4666 
L 2450 531 
L 3481 531 
L 3481 0 
L 794 0 
L 794 531 
z
" transform="scale(0.015625)"/>
       </defs>
       <use xlink:href="#DejaVuSans-30"/>
       <use xlink:href="#DejaVuSans-2e" x="63.623047"/>
       <use xlink:href="#DejaVuSans-31" x="95.410156"/>
      </g>
     </g>
    </g>
    <g id="xtick_3">
     <g id="line2d_3">
      <g>
       <use xlink:href="#m03746f46ef" x="167.250508" y="284.5152" style="stroke: #000000; stroke-width: 0.8"/>
      </g>
     </g>
     <g id="text_3">
      <!-- 0.2 -->
      <g transform="translate(159.298946 299.113637) scale(0.1 -0.1)">
       <defs>
        <path id="DejaVuSans-32" d="M 1228 531 
L 3431 531 
L 3431 0 
L 469 0 
L 469 531 
Q 828 903 1448 1529 
Q 2069 2156 2228 2338 
Q 2531 2678 2651 2914 
Q 2772 3150 2772 3378 
Q 2772 3750 2511 3984 
Q 2250 4219 1831 4219 
Q 1534 4219 1204 4116 
Q 875 4013 500 3803 
L 500 4441 
Q 881 4594 1212 4672 
Q 1544 4750 1819 4750 
Q 2544 4750 2975 4387 
Q 3406 4025 3406 3419 
Q 3406 3131 3298 2873 
Q 3191 2616 2906 2266 
Q 2828 2175 2409 1742 
Q 1991 1309 1228 531 
z
" transform="scale(0.015625)"/>
       </defs>
       <use xlink:href="#DejaVuSans-30"/>
       <use xlink:href="#DejaVuSans-2e" x="63.623047"/>
       <use xlink:href="#DejaVuSans-32" x="95.410156"/>
      </g>
     </g>
    </g>
    <g id="xtick_4">
     <g id="line2d_4">
      <g>
       <use xlink:href="#m03746f46ef" x="213.959399" y="284.5152" style="stroke: #000000; stroke-width: 0.8"/>
      </g>
     </g>
     <g id="text_4">
      <!-- 0.3 -->
      <g transform="translate(206.007836 299.113637) scale(0.1 -0.1)">
       <defs>
        <path id="DejaVuSans-33" d="M 2597 2516 
Q 3050 2419 3304 2112 
Q 3559 1806 3559 1356 
Q 3559 666 3084 287 
Q 2609 -91 1734 -91 
Q 1441 -91 1130 -33 
Q 819 25 488 141 
L 488 750 
Q 750 597 1062 519 
Q 1375 441 1716 441 
Q 2309 441 2620 675 
Q 2931 909 2931 1356 
Q 2931 1769 2642 2001 
Q 2353 2234 1838 2234 
L 1294 2234 
L 1294 2753 
L 1863 2753 
Q 2328 2753 2575 2939 
Q 2822 3125 2822 3475 
Q 2822 3834 2567 4026 
Q 2313 4219 1838 4219 
Q 1578 4219 1281 4162 
Q 984 4106 628 3988 
L 628 4550 
Q 988 4650 1302 4700 
Q 1616 4750 1894 4750 
Q 2613 4750 3031 4423 
Q 3450 4097 3450 3541 
Q 3450 3153 3228 2886 
Q 3006 2619 2597 2516 
z
" transform="scale(0.015625)"/>
       </defs>
       <use xlink:href="#DejaVuSans-30"/>
       <use xlink:href="#DejaVuSans-2e" x="63.623047"/>
       <use xlink:href="#DejaVuSans-33" x="95.410156"/>
      </g>
     </g>
    </g>
    <g id="xtick_5">
     <g id="line2d_5">
      <g>
       <use xlink:href="#m03746f46ef" x="260.668289" y="284.5152" style="stroke: #000000; stroke-width: 0.8"/>
      </g>
     </g>
     <g id="text_5">
      <!-- 0.4 -->
      <g transform="translate(252.716727 299.113637) scale(0.1 -0.1)">
       <defs>
        <path id="DejaVuSans-34" d="M 2419 4116 
L 825 1625 
L 2419 1625 
L 2419 4116 
z
M 2253 4666 
L 3047 4666 
L 3047 1625 
L 3713 1625 
L 3713 1100 
L 3047 1100 
L 3047 0 
L 2419 0 
L 2419 1100 
L 313 1100 
L 313 1709 
L 2253 4666 
z
" transform="scale(0.015625)"/>
       </defs>
       <use xlink:href="#DejaVuSans-30"/>
       <use xlink:href="#DejaVuSans-2e" x="63.623047"/>
       <use xlink:href="#DejaVuSans-34" x="95.410156"/>
      </g>
     </g>
    </g>
    <g id="xtick_6">
     <g id="line2d_6">
      <g>
       <use xlink:href="#m03746f46ef" x="307.37718" y="284.5152" style="stroke: #000000; stroke-width: 0.8"/>
      </g>
     </g>
     <g id="text_6">
      <!-- 0.5 -->
      <g transform="translate(299.425617 299.113637) scale(0.1 -0.1)">
       <defs>
        <path id="DejaVuSans-35" d="M 691 4666 
L 3169 4666 
L 3169 4134 
L 1269 4134 
L 1269 2991 
Q 1406 3038 1543 3061 
Q 1681 3084 1819 3084 
Q 2600 3084 3056 2656 
Q 3513 2228 3513 1497 
Q 3513 744 3044 326 
Q 2575 -91 1722 -91 
Q 1428 -91 1123 -41 
Q 819 9 494 109 
L 494 744 
Q 775 591 1075 516 
Q 1375 441 1709 441 
Q 2250 441 2565 725 
Q 2881 1009 2881 1497 
Q 2881 1984 2565 2268 
Q 2250 2553 1709 2553 
Q 1456 2553 1204 2497 
Q 953 2441 691 2322 
L 691 4666 
z
" transform="scale(0.015625)"/>
       </defs>
       <use xlink:href="#DejaVuSans-30"/>
       <use xlink:href="#DejaVuSans-2e" x="63.623047"/>
       <use xlink:href="#DejaVuSans-35" x="95.410156"/>
      </g>
     </g>
    </g>
    <g id="xtick_7">
     <g id="line2d_7">
      <g>
       <use xlink:href="#m03746f46ef" x="354.08607" y="284.5152" style="stroke: #000000; stroke-width: 0.8"/>
      </g>
     </g>
     <g id="text_7">
      <!-- 0.6 -->
      <g transform="translate(346.134508 299.113637) scale(0.1 -0.1)">
       <defs>
        <path id="DejaVuSans-36" d="M 2113 2584 
Q 1688 2584 1439 2293 
Q 1191 2003 1191 1497 
Q 1191 994 1439 701 
Q 1688 409 2113 409 
Q 2538 409 2786 701 
Q 3034 994 3034 1497 
Q 3034 2003 2786 2293 
Q 2538 2584 2113 2584 
z
M 3366 4563 
L 3366 3988 
Q 3128 4100 2886 4159 
Q 2644 4219 2406 4219 
Q 1781 4219 1451 3797 
Q 1122 3375 1075 2522 
Q 1259 2794 1537 2939 
Q 1816 3084 2150 3084 
Q 2853 3084 3261 2657 
Q 3669 2231 3669 1497 
Q 3669 778 3244 343 
Q 2819 -91 2113 -91 
Q 1303 -91 875 529 
Q 447 1150 447 2328 
Q 447 3434 972 4092 
Q 1497 4750 2381 4750 
Q 2619 4750 2861 4703 
Q 3103 4656 3366 4563 
z
" transform="scale(0.015625)"/>
       </defs>
       <use xlink:href="#DejaVuSans-30"/>
       <use xlink:href="#DejaVuSans-2e" x="63.623047"/>
       <use xlink:href="#DejaVuSans-36" x="95.410156"/>
      </g>
     </g>
    </g>
    <g id="xtick_8">
     <g id="line2d_8">
      <g>
       <use xlink:href="#m03746f46ef" x="400.794961" y="284.5152" style="stroke: #000000; stroke-width: 0.8"/>
      </g>
     </g>
     <g id="text_8">
      <!-- 0.7 -->
      <g transform="translate(392.843398 299.113637) scale(0.1 -0.1)">
       <defs>
        <path id="DejaVuSans-37" d="M 525 4666 
L 3525 4666 
L 3525 4397 
L 1831 0 
L 1172 0 
L 2766 4134 
L 525 4134 
L 525 4666 
z
" transform="scale(0.015625)"/>
       </defs>
       <use xlink:href="#DejaVuSans-30"/>
       <use xlink:href="#DejaVuSans-2e" x="63.623047"/>
       <use xlink:href="#DejaVuSans-37" x="95.410156"/>
      </g>
     </g>
    </g>
    <g id="text_9">
     <!-- Absolute distance error (m) -->
     <g transform="translate(167.47875 312.791763) scale(0.1 -0.1)">
      <defs>
       <path id="DejaVuSans-41" d="M 2188 4044 
L 1331 1722 
L 3047 1722 
L 2188 4044 
z
M 1831 4666 
L 2547 4666 
L 4325 0 
L 3669 0 
L 3244 1197 
L 1141 1197 
L 716 0 
L 50 0 
L 1831 4666 
z
" transform="scale(0.015625)"/>
       <path id="DejaVuSans-62" d="M 3116 1747 
Q 3116 2381 2855 2742 
Q 2594 3103 2138 3103 
Q 1681 3103 1420 2742 
Q 1159 2381 1159 1747 
Q 1159 1113 1420 752 
Q 1681 391 2138 391 
Q 2594 391 2855 752 
Q 3116 1113 3116 1747 
z
M 1159 2969 
Q 1341 3281 1617 3432 
Q 1894 3584 2278 3584 
Q 2916 3584 3314 3078 
Q 3713 2572 3713 1747 
Q 3713 922 3314 415 
Q 2916 -91 2278 -91 
Q 1894 -91 1617 61 
Q 1341 213 1159 525 
L 1159 0 
L 581 0 
L 581 4863 
L 1159 4863 
L 1159 2969 
z
" transform="scale(0.015625)"/>
       <path id="DejaVuSans-73" d="M 2834 3397 
L 2834 2853 
Q 2591 2978 2328 3040 
Q 2066 3103 1784 3103 
Q 1356 3103 1142 2972 
Q 928 2841 928 2578 
Q 928 2378 1081 2264 
Q 1234 2150 1697 2047 
L 1894 2003 
Q 2506 1872 2764 1633 
Q 3022 1394 3022 966 
Q 3022 478 2636 193 
Q 2250 -91 1575 -91 
Q 1294 -91 989 -36 
Q 684 19 347 128 
L 347 722 
Q 666 556 975 473 
Q 1284 391 1588 391 
Q 1994 391 2212 530 
Q 2431 669 2431 922 
Q 2431 1156 2273 1281 
Q 2116 1406 1581 1522 
L 1381 1569 
Q 847 1681 609 1914 
Q 372 2147 372 2553 
Q 372 3047 722 3315 
Q 1072 3584 1716 3584 
Q 2034 3584 2315 3537 
Q 2597 3491 2834 3397 
z
" transform="scale(0.015625)"/>
       <path id="DejaVuSans-6f" d="M 1959 3097 
Q 1497 3097 1228 2736 
Q 959 2375 959 1747 
Q 959 1119 1226 758 
Q 1494 397 1959 397 
Q 2419 397 2687 759 
Q 2956 1122 2956 1747 
Q 2956 2369 2687 2733 
Q 2419 3097 1959 3097 
z
M 1959 3584 
Q 2709 3584 3137 3096 
Q 3566 2609 3566 1747 
Q 3566 888 3137 398 
Q 2709 -91 1959 -91 
Q 1206 -91 779 398 
Q 353 888 353 1747 
Q 353 2609 779 3096 
Q 1206 3584 1959 3584 
z
" transform="scale(0.015625)"/>
       <path id="DejaVuSans-6c" d="M 603 4863 
L 1178 4863 
L 1178 0 
L 603 0 
L 603 4863 
z
" transform="scale(0.015625)"/>
       <path id="DejaVuSans-75" d="M 544 1381 
L 544 3500 
L 1119 3500 
L 1119 1403 
Q 1119 906 1312 657 
Q 1506 409 1894 409 
Q 2359 409 2629 706 
Q 2900 1003 2900 1516 
L 2900 3500 
L 3475 3500 
L 3475 0 
L 2900 0 
L 2900 538 
Q 2691 219 2414 64 
Q 2138 -91 1772 -91 
Q 1169 -91 856 284 
Q 544 659 544 1381 
z
M 1991 3584 
L 1991 3584 
z
" transform="scale(0.015625)"/>
       <path id="DejaVuSans-74" d="M 1172 4494 
L 1172 3500 
L 2356 3500 
L 2356 3053 
L 1172 3053 
L 1172 1153 
Q 1172 725 1289 603 
Q 1406 481 1766 481 
L 2356 481 
L 2356 0 
L 1766 0 
Q 1100 0 847 248 
Q 594 497 594 1153 
L 594 3053 
L 172 3053 
L 172 3500 
L 594 3500 
L 594 4494 
L 1172 4494 
z
" transform="scale(0.015625)"/>
       <path id="DejaVuSans-65" d="M 3597 1894 
L 3597 1613 
L 953 1613 
Q 991 1019 1311 708 
Q 1631 397 2203 397 
Q 2534 397 2845 478 
Q 3156 559 3463 722 
L 3463 178 
Q 3153 47 2828 -22 
Q 2503 -91 2169 -91 
Q 1331 -91 842 396 
Q 353 884 353 1716 
Q 353 2575 817 3079 
Q 1281 3584 2069 3584 
Q 2775 3584 3186 3129 
Q 3597 2675 3597 1894 
z
M 3022 2063 
Q 3016 2534 2758 2815 
Q 2500 3097 2075 3097 
Q 1594 3097 1305 2825 
Q 1016 2553 972 2059 
L 3022 2063 
z
" transform="scale(0.015625)"/>
       <path id="DejaVuSans-20" transform="scale(0.015625)"/>
       <path id="DejaVuSans-64" d="M 2906 2969 
L 2906 4863 
L 3481 4863 
L 3481 0 
L 2906 0 
L 2906 525 
Q 2725 213 2448 61 
Q 2172 -91 1784 -91 
Q 1150 -91 751 415 
Q 353 922 353 1747 
Q 353 2572 751 3078 
Q 1150 3584 1784 3584 
Q 2172 3584 2448 3432 
Q 2725 3281 2906 2969 
z
M 947 1747 
Q 947 1113 1208 752 
Q 1469 391 1925 391 
Q 2381 391 2643 752 
Q 2906 1113 2906 1747 
Q 2906 2381 2643 2742 
Q 2381 3103 1925 3103 
Q 1469 3103 1208 2742 
Q 947 2381 947 1747 
z
" transform="scale(0.015625)"/>
       <path id="DejaVuSans-69" d="M 603 3500 
L 1178 3500 
L 1178 0 
L 603 0 
L 603 3500 
z
M 603 4863 
L 1178 4863 
L 1178 4134 
L 603 4134 
L 603 4863 
z
" transform="scale(0.015625)"/>
       <path id="DejaVuSans-61" d="M 2194 1759 
Q 1497 1759 1228 1600 
Q 959 1441 959 1056 
Q 959 750 1161 570 
Q 1363 391 1709 391 
Q 2188 391 2477 730 
Q 2766 1069 2766 1631 
L 2766 1759 
L 2194 1759 
z
M 3341 1997 
L 3341 0 
L 2766 0 
L 2766 531 
Q 2569 213 2275 61 
Q 1981 -91 1556 -91 
Q 1019 -91 701 211 
Q 384 513 384 1019 
Q 384 1609 779 1909 
Q 1175 2209 1959 2209 
L 2766 2209 
L 2766 2266 
Q 2766 2663 2505 2880 
Q 2244 3097 1772 3097 
Q 1472 3097 1187 3025 
Q 903 2953 641 2809 
L 641 3341 
Q 956 3463 1253 3523 
Q 1550 3584 1831 3584 
Q 2591 3584 2966 3190 
Q 3341 2797 3341 1997 
z
" transform="scale(0.015625)"/>
       <path id="DejaVuSans-6e" d="M 3513 2113 
L 3513 0 
L 2938 0 
L 2938 2094 
Q 2938 2591 2744 2837 
Q 2550 3084 2163 3084 
Q 1697 3084 1428 2787 
Q 1159 2491 1159 1978 
L 1159 0 
L 581 0 
L 581 3500 
L 1159 3500 
L 1159 2956 
Q 1366 3272 1645 3428 
Q 1925 3584 2291 3584 
Q 2894 3584 3203 3211 
Q 3513 2838 3513 2113 
z
" transform="scale(0.015625)"/>
       <path id="DejaVuSans-63" d="M 3122 3366 
L 3122 2828 
Q 2878 2963 2633 3030 
Q 2388 3097 2138 3097 
Q 1578 3097 1268 2742 
Q 959 2388 959 1747 
Q 959 1106 1268 751 
Q 1578 397 2138 397 
Q 2388 397 2633 464 
Q 2878 531 3122 666 
L 3122 134 
Q 2881 22 2623 -34 
Q 2366 -91 2075 -91 
Q 1284 -91 818 406 
Q 353 903 353 1747 
Q 353 2603 823 3093 
Q 1294 3584 2113 3584 
Q 2378 3584 2631 3529 
Q 2884 3475 3122 3366 
z
" transform="scale(0.015625)"/>
       <path id="DejaVuSans-72" d="M 2631 2963 
Q 2534 3019 2420 3045 
Q 2306 3072 2169 3072 
Q 1681 3072 1420 2755 
Q 1159 2438 1159 1844 
L 1159 0 
L 581 0 
L 581 3500 
L 1159 3500 
L 1159 2956 
Q 1341 3275 1631 3429 
Q 1922 3584 2338 3584 
Q 2397 3584 2469 3576 
Q 2541 3569 2628 3553 
L 2631 2963 
z
" transform="scale(0.015625)"/>
       <path id="DejaVuSans-28" d="M 1984 4856 
Q 1566 4138 1362 3434 
Q 1159 2731 1159 2009 
Q 1159 1288 1364 580 
Q 1569 -128 1984 -844 
L 1484 -844 
Q 1016 -109 783 600 
Q 550 1309 550 2009 
Q 550 2706 781 3412 
Q 1013 4119 1484 4856 
L 1984 4856 
z
" transform="scale(0.015625)"/>
       <path id="DejaVuSans-6d" d="M 3328 2828 
Q 3544 3216 3844 3400 
Q 4144 3584 4550 3584 
Q 5097 3584 5394 3201 
Q 5691 2819 5691 2113 
L 5691 0 
L 5113 0 
L 5113 2094 
Q 5113 2597 4934 2840 
Q 4756 3084 4391 3084 
Q 3944 3084 3684 2787 
Q 3425 2491 3425 1978 
L 3425 0 
L 2847 0 
L 2847 2094 
Q 2847 2600 2669 2842 
Q 2491 3084 2119 3084 
Q 1678 3084 1418 2786 
Q 1159 2488 1159 1978 
L 1159 0 
L 581 0 
L 581 3500 
L 1159 3500 
L 1159 2956 
Q 1356 3278 1631 3431 
Q 1906 3584 2284 3584 
Q 2666 3584 2933 3390 
Q 3200 3197 3328 2828 
z
" transform="scale(0.015625)"/>
       <path id="DejaVuSans-29" d="M 513 4856 
L 1013 4856 
Q 1481 4119 1714 3412 
Q 1947 2706 1947 2009 
Q 1947 1309 1714 600 
Q 1481 -109 1013 -844 
L 513 -844 
Q 928 -128 1133 580 
Q 1338 1288 1338 2009 
Q 1338 2731 1133 3434 
Q 928 4138 513 4856 
z
" transform="scale(0.015625)"/>
      </defs>
      <use xlink:href="#DejaVuSans-41"/>
      <use xlink:href="#DejaVuSans-62" x="68.408203"/>
      <use xlink:href="#DejaVuSans-73" x="131.884766"/>
      <use xlink:href="#DejaVuSans-6f" x="183.984375"/>
      <use xlink:href="#DejaVuSans-6c" x="245.166016"/>
      <use xlink:href="#DejaVuSans-75" x="272.949219"/>
      <use xlink:href="#DejaVuSans-74" x="336.328125"/>
      <use xlink:href="#DejaVuSans-65" x="375.537109"/>
      <use xlink:href="#DejaVuSans-20" x="437.060547"/>
      <use xlink:href="#DejaVuSans-64" x="468.847656"/>
      <use xlink:href="#DejaVuSans-69" x="532.324219"/>
      <use xlink:href="#DejaVuSans-73" x="560.107422"/>
      <use xlink:href="#DejaVuSans-74" x="612.207031"/>
      <use xlink:href="#DejaVuSans-61" x="651.416016"/>
      <use xlink:href="#DejaVuSans-6e" x="712.695312"/>
      <use xlink:href="#DejaVuSans-63" x="776.074219"/>
      <use xlink:href="#DejaVuSans-65" x="831.054688"/>
      <use xlink:href="#DejaVuSans-20" x="892.578125"/>
      <use xlink:href="#DejaVuSans-65" x="924.365234"/>
      <use xlink:href="#DejaVuSans-72" x="985.888672"/>
      <use xlink:href="#DejaVuSans-72" x="1025.251953"/>
      <use xlink:href="#DejaVuSans-6f" x="1064.115234"/>
      <use xlink:href="#DejaVuSans-72" x="1125.296875"/>
      <use xlink:href="#DejaVuSans-20" x="1166.410156"/>
      <use xlink:href="#DejaVuSans-28" x="1198.197266"/>
      <use xlink:href="#DejaVuSans-6d" x="1237.210938"/>
      <use xlink:href="#DejaVuSans-29" x="1334.623047"/>
     </g>
    </g>
   </g>
   <g id="matplotlib.axis_2">
    <g id="ytick_1">
     <g id="line2d_9">
      <defs>
       <path id="m128721d82e" d="M 0 0 
L -3.5 0 
" style="stroke: #000000; stroke-width: 0.8"/>
      </defs>
      <g>
       <use xlink:href="#m128721d82e" x="57.6" y="273.3264" style="stroke: #000000; stroke-width: 0.8"/>
      </g>
     </g>
     <g id="text_10">
      <!-- 0.0 -->
      <g transform="translate(34.696875 277.125619) scale(0.1 -0.1)">
       <use xlink:href="#DejaVuSans-30"/>
       <use xlink:href="#DejaVuSans-2e" x="63.623047"/>
       <use xlink:href="#DejaVuSans-30" x="95.410156"/>
      </g>
     </g>
    </g>
    <g id="ytick_2">
     <g id="line2d_10">
      <g>
       <use xlink:href="#m128721d82e" x="57.6" y="228.5712" style="stroke: #000000; stroke-width: 0.8"/>
      </g>
     </g>
     <g id="text_11">
      <!-- 0.2 -->
      <g transform="translate(34.696875 232.370419) scale(0.1 -0.1)">
       <use xlink:href="#DejaVuSans-30"/>
       <use xlink:href="#DejaVuSans-2e" x="63.623047"/>
       <use xlink:href="#DejaVuSans-32" x="95.410156"/>
      </g>
     </g>
    </g>
    <g id="ytick_3">
     <g id="line2d_11">
      <g>
       <use xlink:href="#m128721d82e" x="57.6" y="183.816" style="stroke: #000000; stroke-width: 0.8"/>
      </g>
     </g>
     <g id="text_12">
      <!-- 0.4 -->
      <g transform="translate(34.696875 187.615219) scale(0.1 -0.1)">
       <use xlink:href="#DejaVuSans-30"/>
       <use xlink:href="#DejaVuSans-2e" x="63.623047"/>
       <use xlink:href="#DejaVuSans-34" x="95.410156"/>
      </g>
     </g>
    </g>
    <g id="ytick_4">
     <g id="line2d_12">
      <g>
       <use xlink:href="#m128721d82e" x="57.6" y="139.0608" style="stroke: #000000; stroke-width: 0.8"/>
      </g>
     </g>
     <g id="text_13">
      <!-- 0.6 -->
      <g transform="translate(34.696875 142.860019) scale(0.1 -0.1)">
       <use xlink:href="#DejaVuSans-30"/>
       <use xlink:href="#DejaVuSans-2e" x="63.623047"/>
       <use xlink:href="#DejaVuSans-36" x="95.410156"/>
      </g>
     </g>
    </g>
    <g id="ytick_5">
     <g id="line2d_13">
      <g>
       <use xlink:href="#m128721d82e" x="57.6" y="94.3056" style="stroke: #000000; stroke-width: 0.8"/>
      </g>
     </g>
     <g id="text_14">
      <!-- 0.8 -->
      <g transform="translate(34.696875 98.104819) scale(0.1 -0.1)">
       <defs>
        <path id="DejaVuSans-38" d="M 2034 2216 
Q 1584 2216 1326 1975 
Q 1069 1734 1069 1313 
Q 1069 891 1326 650 
Q 1584 409 2034 409 
Q 2484 409 2743 651 
Q 3003 894 3003 1313 
Q 3003 1734 2745 1975 
Q 2488 2216 2034 2216 
z
M 1403 2484 
Q 997 2584 770 2862 
Q 544 3141 544 3541 
Q 544 4100 942 4425 
Q 1341 4750 2034 4750 
Q 2731 4750 3128 4425 
Q 3525 4100 3525 3541 
Q 3525 3141 3298 2862 
Q 3072 2584 2669 2484 
Q 3125 2378 3379 2068 
Q 3634 1759 3634 1313 
Q 3634 634 3220 271 
Q 2806 -91 2034 -91 
Q 1263 -91 848 271 
Q 434 634 434 1313 
Q 434 1759 690 2068 
Q 947 2378 1403 2484 
z
M 1172 3481 
Q 1172 3119 1398 2916 
Q 1625 2713 2034 2713 
Q 2441 2713 2670 2916 
Q 2900 3119 2900 3481 
Q 2900 3844 2670 4047 
Q 2441 4250 2034 4250 
Q 1625 4250 1398 4047 
Q 1172 3844 1172 3481 
z
" transform="scale(0.015625)"/>
       </defs>
       <use xlink:href="#DejaVuSans-30"/>
       <use xlink:href="#DejaVuSans-2e" x="63.623047"/>
       <use xlink:href="#DejaVuSans-38" x="95.410156"/>
      </g>
     </g>
    </g>
    <g id="ytick_6">
     <g id="line2d_14">
      <g>
       <use xlink:href="#m128721d82e" x="57.6" y="49.5504" style="stroke: #000000; stroke-width: 0.8"/>
      </g>
     </g>
     <g id="text_15">
      <!-- 1.0 -->
      <g transform="translate(34.696875 53.349619) scale(0.1 -0.1)">
       <use xlink:href="#DejaVuSans-31"/>
       <use xlink:href="#DejaVuSans-2e" x="63.623047"/>
       <use xlink:href="#DejaVuSans-30" x="95.410156"/>
      </g>
     </g>
    </g>
    <g id="text_16">
     <!-- Frequency -->
     <g transform="translate(28.617187 187.268088) rotate(-90) scale(0.1 -0.1)">
      <defs>
       <path id="DejaVuSans-46" d="M 628 4666 
L 3309 4666 
L 3309 4134 
L 1259 4134 
L 1259 2759 
L 3109 2759 
L 3109 2228 
L 1259 2228 
L 1259 0 
L 628 0 
L 628 4666 
z
" transform="scale(0.015625)"/>
       <path id="DejaVuSans-71" d="M 947 1747 
Q 947 1113 1208 752 
Q 1469 391 1925 391 
Q 2381 391 2643 752 
Q 2906 1113 2906 1747 
Q 2906 2381 2643 2742 
Q 2381 3103 1925 3103 
Q 1469 3103 1208 2742 
Q 947 2381 947 1747 
z
M 2906 525 
Q 2725 213 2448 61 
Q 2172 -91 1784 -91 
Q 1150 -91 751 415 
Q 353 922 353 1747 
Q 353 2572 751 3078 
Q 1150 3584 1784 3584 
Q 2172 3584 2448 3432 
Q 2725 3281 2906 2969 
L 2906 3500 
L 3481 3500 
L 3481 -1331 
L 2906 -1331 
L 2906 525 
z
" transform="scale(0.015625)"/>
       <path id="DejaVuSans-79" d="M 2059 -325 
Q 1816 -950 1584 -1140 
Q 1353 -1331 966 -1331 
L 506 -1331 
L 506 -850 
L 844 -850 
Q 1081 -850 1212 -737 
Q 1344 -625 1503 -206 
L 1606 56 
L 191 3500 
L 800 3500 
L 1894 763 
L 2988 3500 
L 3597 3500 
L 2059 -325 
z
" transform="scale(0.015625)"/>
      </defs>
      <use xlink:href="#DejaVuSans-46"/>
      <use xlink:href="#DejaVuSans-72" x="50.269531"/>
      <use xlink:href="#DejaVuSans-65" x="89.132812"/>
      <use xlink:href="#DejaVuSans-71" x="150.65625"/>
      <use xlink:href="#DejaVuSans-75" x="214.132812"/>
      <use xlink:href="#DejaVuSans-65" x="277.511719"/>
      <use xlink:href="#DejaVuSans-6e" x="339.035156"/>
      <use xlink:href="#DejaVuSans-63" x="402.414062"/>
      <use xlink:href="#DejaVuSans-79" x="457.394531"/>
     </g>
    </g>
   </g>
   <g id="line2d_15">
    <path d="M 73.832727 233.241708 
L 74.646398 220.055353 
L 76.273739 200.808811 
L 77.90108 186.419254 
L 79.528421 174.835177 
L 81.155762 165.769544 
L 82.783103 158.586823 
L 84.410444 152.986533 
L 86.037785 148.576854 
L 87.665126 144.922645 
L 89.292468 141.825861 
L 90.919809 139.118122 
L 93.36082 135.814117 
L 97.429173 130.813934 
L 100.683855 127.064544 
L 107.193219 120.010296 
L 112.075243 115.132396 
L 116.957266 110.728266 
L 122.65296 106.046917 
L 129.162324 101.070849 
L 135.671688 96.56535 
L 143.808394 91.244839 
L 150.317758 87.303167 
L 154.386111 85.292637 
L 159.268134 83.12141 
L 173.914204 77.265668 
L 181.237239 74.464456 
L 194.255967 69.820667 
L 200.765332 67.802881 
L 211.343049 65.054808 
L 222.734436 62.38655 
L 240.635188 58.745785 
L 251.212905 56.934366 
L 260.976951 55.469524 
L 274.809351 53.723835 
L 284.573397 52.719317 
L 295.964785 51.771138 
L 311.424525 50.846222 
L 329.325277 50.166513 
L 345.598688 49.826979 
L 356.990075 49.693384 
L 371.636145 49.598204 
L 398.487273 49.5504 
L 398.487273 49.5504 
" clip-path="url(#p28fb7b8f19)" style="fill: none; stroke: #1f77b4; stroke-width: 1.5; stroke-linecap: square"/>
   </g>
   <g id="patch_3">
    <path d="M 57.6 284.5152 
L 57.6 38.3616 
" style="fill: none; stroke: #000000; stroke-width: 0.8; stroke-linejoin: miter; stroke-linecap: square"/>
   </g>
   <g id="patch_4">
    <path d="M 414.72 284.5152 
L 414.72 38.3616 
" style="fill: none; stroke: #000000; stroke-width: 0.8; stroke-linejoin: miter; stroke-linecap: square"/>
   </g>
   <g id="patch_5">
    <path d="M 57.6 284.5152 
L 414.72 284.5152 
" style="fill: none; stroke: #000000; stroke-width: 0.8; stroke-linejoin: miter; stroke-linecap: square"/>
   </g>
   <g id="patch_6">
    <path d="M 57.6 38.3616 
L 414.72 38.3616 
" style="fill: none; stroke: #000000; stroke-width: 0.8; stroke-linejoin: miter; stroke-linecap: square"/>
   </g>
   <g id="text_17">
    <!-- CDF of forward tree absolute error distribution -->
    <g transform="translate(97.092187 32.3616) scale(0.12 -0.12)">
     <defs>
      <path id="DejaVuSans-43" d="M 4122 4306 
L 4122 3641 
Q 3803 3938 3442 4084 
Q 3081 4231 2675 4231 
Q 1875 4231 1450 3742 
Q 1025 3253 1025 2328 
Q 1025 1406 1450 917 
Q 1875 428 2675 428 
Q 3081 428 3442 575 
Q 3803 722 4122 1019 
L 4122 359 
Q 3791 134 3420 21 
Q 3050 -91 2638 -91 
Q 1578 -91 968 557 
Q 359 1206 359 2328 
Q 359 3453 968 4101 
Q 1578 4750 2638 4750 
Q 3056 4750 3426 4639 
Q 3797 4528 4122 4306 
z
" transform="scale(0.015625)"/>
      <path id="DejaVuSans-44" d="M 1259 4147 
L 1259 519 
L 2022 519 
Q 2988 519 3436 956 
Q 3884 1394 3884 2338 
Q 3884 3275 3436 3711 
Q 2988 4147 2022 4147 
L 1259 4147 
z
M 628 4666 
L 1925 4666 
Q 3281 4666 3915 4102 
Q 4550 3538 4550 2338 
Q 4550 1131 3912 565 
Q 3275 0 1925 0 
L 628 0 
L 628 4666 
z
" transform="scale(0.015625)"/>
      <path id="DejaVuSans-66" d="M 2375 4863 
L 2375 4384 
L 1825 4384 
Q 1516 4384 1395 4259 
Q 1275 4134 1275 3809 
L 1275 3500 
L 2222 3500 
L 2222 3053 
L 1275 3053 
L 1275 0 
L 697 0 
L 697 3053 
L 147 3053 
L 147 3500 
L 697 3500 
L 697 3744 
Q 697 4328 969 4595 
Q 1241 4863 1831 4863 
L 2375 4863 
z
" transform="scale(0.015625)"/>
      <path id="DejaVuSans-77" d="M 269 3500 
L 844 3500 
L 1563 769 
L 2278 3500 
L 2956 3500 
L 3675 769 
L 4391 3500 
L 4966 3500 
L 4050 0 
L 3372 0 
L 2619 2869 
L 1863 0 
L 1184 0 
L 269 3500 
z
" transform="scale(0.015625)"/>
     </defs>
     <use xlink:href="#DejaVuSans-43"/>
     <use xlink:href="#DejaVuSans-44" x="69.824219"/>
     <use xlink:href="#DejaVuSans-46" x="146.826172"/>
     <use xlink:href="#DejaVuSans-20" x="204.345703"/>
     <use xlink:href="#DejaVuSans-6f" x="236.132812"/>
     <use xlink:href="#DejaVuSans-66" x="297.314453"/>
     <use xlink:href="#DejaVuSans-20" x="332.519531"/>
     <use xlink:href="#DejaVuSans-66" x="364.306641"/>
     <use xlink:href="#DejaVuSans-6f" x="399.511719"/>
     <use xlink:href="#DejaVuSans-72" x="460.693359"/>
     <use xlink:href="#DejaVuSans-77" x="501.806641"/>
     <use xlink:href="#DejaVuSans-61" x="583.59375"/>
     <use xlink:href="#DejaVuSans-72" x="644.873047"/>
     <use xlink:href="#DejaVuSans-64" x="684.236328"/>
     <use xlink:href="#DejaVuSans-20" x="747.712891"/>
     <use xlink:href="#DejaVuSans-74" x="779.5"/>
     <use xlink:href="#DejaVuSans-72" x="818.708984"/>
     <use xlink:href="#DejaVuSans-65" x="857.572266"/>
     <use xlink:href="#DejaVuSans-65" x="919.095703"/>
     <use xlink:href="#DejaVuSans-20" x="980.619141"/>
     <use xlink:href="#DejaVuSans-61" x="1012.40625"/>
     <use xlink:href="#DejaVuSans-62" x="1073.685547"/>
     <use xlink:href="#DejaVuSans-73" x="1137.162109"/>
     <use xlink:href="#DejaVuSans-6f" x="1189.261719"/>
     <use xlink:href="#DejaVuSans-6c" x="1250.443359"/>
     <use xlink:href="#DejaVuSans-75" x="1278.226562"/>
     <use xlink:href="#DejaVuSans-74" x="1341.605469"/>
     <use xlink:href="#DejaVuSans-65" x="1380.814453"/>
     <use xlink:href="#DejaVuSans-20" x="1442.337891"/>
     <use xlink:href="#DejaVuSans-65" x="1474.125"/>
     <use xlink:href="#DejaVuSans-72" x="1535.648438"/>
     <use xlink:href="#DejaVuSans-72" x="1575.011719"/>
     <use xlink:href="#DejaVuSans-6f" x="1613.875"/>
     <use xlink:href="#DejaVuSans-72" x="1675.056641"/>
     <use xlink:href="#DejaVuSans-20" x="1716.169922"/>
     <use xlink:href="#DejaVuSans-64" x="1747.957031"/>
     <use xlink:href="#DejaVuSans-69" x="1811.433594"/>
     <use xlink:href="#DejaVuSans-73" x="1839.216797"/>
     <use xlink:href="#DejaVuSans-74" x="1891.316406"/>
     <use xlink:href="#DejaVuSans-72" x="1930.525391"/>
     <use xlink:href="#DejaVuSans-69" x="1971.638672"/>
     <use xlink:href="#DejaVuSans-62" x="1999.421875"/>
     <use xlink:href="#DejaVuSans-75" x="2062.898438"/>
     <use xlink:href="#DejaVuSans-74" x="2126.277344"/>
     <use xlink:href="#DejaVuSans-69" x="2165.486328"/>
     <use xlink:href="#DejaVuSans-6f" x="2193.269531"/>
     <use xlink:href="#DejaVuSans-6e" x="2254.451172"/>
    </g>
   </g>
  </g>
 </g>
 <defs>
  <clipPath id="p28fb7b8f19">
   <rect x="57.6" y="38.3616" width="357.12" height="246.1536"/>
  </clipPath>
 </defs>
</svg>
