<?xml version="1.0" encoding="utf-8" standalone="no"?>
<!DOCTYPE svg PUBLIC "-//W3C//DTD SVG 1.1//EN"
  "http://www.w3.org/Graphics/SVG/1.1/DTD/svg11.dtd">
<svg xmlns:xlink="http://www.w3.org/1999/xlink" width="460.8pt" height="345.6pt" viewBox="0 0 460.8 345.6" xmlns="http://www.w3.org/2000/svg" version="1.1">
 <metadata>
  <rdf:RDF xmlns:dc="http://purl.org/dc/elements/1.1/" xmlns:cc="http://creativecommons.org/ns#" xmlns:rdf="http://www.w3.org/1999/02/22-rdf-syntax-ns#">
   <cc:Work>
    <dc:type rdf:resource="http://purl.org/dc/dcmitype/StillImage"/>
    <dc:date>2024-02-14T15:09:34.033971</dc:date>
    <dc:format>image/svg+xml</dc:format>
    <dc:creator>
     <cc:Agent>
      <dc:title>Matplotlib v3.6.3, https://matplotlib.org/</dc:title>
     </cc:Agent>
    </dc:creator>
   </cc:Work>
  </rdf:RDF>
 </metadata>
 <defs>
  <style type="text/css">*{stroke-linejoin: round; stroke-linecap: butt}</style>
 </defs>
 <g id="figure_1">
  <g id="patch_1">
   <path d="M 0 345.6 
L 460.8 345.6 
L 460.8 0 
L 0 0 
z
" style="fill: #ffffff"/>
  </g>
  <g id="axes_1">
   <g id="patch_2">
    <path d="M 57.6 307.584 
L 414.72 307.584 
L 414.72 41.472 
L 57.6 41.472 
z
" style="fill: #ffffff"/>
   </g>
   <g id="PolyCollection_1">
    <path d="M 73.832727 295.488 
L 73.832727 295.458469 
L 73.832727 295.41048 
L 74.646398 295.41048 
L 74.646398 295.307121 
L 75.460068 295.307121 
L 75.460068 295.129934 
L 76.273739 295.129934 
L 76.273739 294.904758 
L 77.087409 294.904758 
L 77.087409 294.638977 
L 77.90108 294.638977 
L 77.90108 294.258762 
L 78.714751 294.258762 
L 78.714751 293.804719 
L 79.528421 293.804719 
L 79.528421 293.354367 
L 80.342092 293.354367 
L 80.342092 292.734211 
L 81.155762 292.734211 
L 81.155762 292.069758 
L 81.969433 292.069758 
L 81.969433 291.239191 
L 82.783103 291.239191 
L 82.783103 290.379094 
L 83.596774 290.379094 
L 83.596774 289.282746 
L 84.410444 289.282746 
L 84.410444 288.238078 
L 85.224115 288.238078 
L 85.224115 287.005148 
L 86.037785 287.005148 
L 86.037785 285.779602 
L 86.851456 285.779602 
L 86.851456 284.303039 
L 87.665126 284.303039 
L 87.665126 282.900305 
L 88.478797 282.900305 
L 88.478797 281.383137 
L 89.292468 281.383137 
L 89.292468 279.858586 
L 90.106138 279.858586 
L 90.106138 278.651496 
L 90.919809 278.651496 
L 90.919809 277.370578 
L 91.733479 277.370578 
L 91.733479 276.373898 
L 92.54715 276.373898 
L 92.54715 275.598703 
L 93.36082 275.598703 
L 93.36082 274.838273 
L 94.174491 274.838273 
L 94.174491 274.122141 
L 94.988161 274.122141 
L 94.988161 273.372785 
L 95.801832 273.372785 
L 95.801832 272.627121 
L 96.615502 272.627121 
L 96.615502 271.933137 
L 97.429173 271.933137 
L 97.429173 271.301906 
L 98.242843 271.301906 
L 98.242843 270.755578 
L 99.056514 270.755578 
L 99.056514 270.124348 
L 99.870185 270.124348 
L 99.870185 269.467277 
L 100.683855 269.467277 
L 100.683855 268.858195 
L 101.497526 268.858195 
L 101.497526 268.156828 
L 102.311196 268.156828 
L 102.311196 267.481301 
L 103.124867 267.481301 
L 103.124867 266.838996 
L 103.938537 266.838996 
L 103.938537 266.259445 
L 104.752208 266.259445 
L 104.752208 265.639289 
L 105.565878 265.639289 
L 105.565878 264.98591 
L 106.379549 264.98591 
L 106.379549 264.369445 
L 107.193219 264.369445 
L 107.193219 263.775129 
L 108.00689 263.775129 
L 108.00689 263.136516 
L 108.82056 263.136516 
L 108.82056 262.453605 
L 109.634231 262.453605 
L 109.634231 261.700559 
L 110.447902 261.700559 
L 110.447902 260.988117 
L 111.261572 260.988117 
L 111.261572 260.290441 
L 112.075243 260.290441 
L 112.075243 259.640754 
L 112.888913 259.640754 
L 112.888913 258.909855 
L 113.702584 258.909855 
L 113.702584 258.260168 
L 114.516254 258.260168 
L 114.516254 257.63632 
L 115.329925 257.63632 
L 115.329925 257.049387 
L 116.143595 257.049387 
L 116.143595 256.292648 
L 116.957266 256.292648 
L 116.957266 255.576516 
L 117.770936 255.576516 
L 117.770936 254.971125 
L 118.584607 254.971125 
L 118.584607 254.269758 
L 119.398278 254.269758 
L 119.398278 253.623762 
L 120.211948 253.623762 
L 120.211948 252.999914 
L 121.025619 252.999914 
L 121.025619 252.324387 
L 121.839289 252.324387 
L 121.839289 251.685773 
L 122.65296 251.685773 
L 122.65296 250.988098 
L 123.46663 250.988098 
L 123.46663 250.401164 
L 124.280301 250.401164 
L 124.280301 249.729328 
L 125.093971 249.729328 
L 125.093971 249.090715 
L 125.907642 249.090715 
L 125.907642 248.370891 
L 126.721312 248.370891 
L 126.721312 247.691672 
L 127.534983 247.691672 
L 127.534983 247.019836 
L 128.348653 247.019836 
L 128.348653 246.207727 
L 129.162324 246.207727 
L 129.162324 245.572805 
L 129.975995 245.572805 
L 129.975995 244.919426 
L 130.789665 244.919426 
L 130.789665 244.302961 
L 131.603336 244.302961 
L 131.603336 243.686496 
L 132.417006 243.686496 
L 132.417006 243.018352 
L 133.230677 243.018352 
L 133.230677 242.398195 
L 134.044347 242.398195 
L 134.044347 241.730051 
L 134.858018 241.730051 
L 134.858018 241.039758 
L 135.671688 241.039758 
L 135.671688 240.323625 
L 136.485359 240.323625 
L 136.485359 239.659172 
L 137.299029 239.659172 
L 137.299029 239.013176 
L 138.1127 239.013176 
L 138.1127 238.359797 
L 138.92637 238.359797 
L 138.92637 237.665813 
L 139.740041 237.665813 
L 139.740041 237.038273 
L 140.553712 237.038273 
L 140.553712 236.388586 
L 141.367382 236.388586 
L 141.367382 235.724133 
L 142.181053 235.724133 
L 142.181053 235.148273 
L 142.994723 235.148273 
L 142.994723 234.583488 
L 143.808394 234.583488 
L 143.808394 233.981789 
L 144.622064 233.981789 
L 144.622064 233.413313 
L 145.435735 233.413313 
L 145.435735 232.800539 
L 146.249405 232.800539 
L 146.249405 232.217297 
L 147.063076 232.217297 
L 147.063076 231.578684 
L 147.876746 231.578684 
L 147.876746 230.962219 
L 148.690417 230.962219 
L 148.690417 230.356828 
L 149.504087 230.356828 
L 149.504087 229.83634 
L 150.317758 229.83634 
L 150.317758 229.315852 
L 151.131429 229.315852 
L 151.131429 228.828586 
L 151.945099 228.828586 
L 151.945099 228.333937 
L 152.75877 228.333937 
L 152.75877 227.861438 
L 153.57244 227.861438 
L 153.57244 227.355715 
L 154.386111 227.355715 
L 154.386111 226.89798 
L 155.199781 226.89798 
L 155.199781 226.480852 
L 156.013452 226.480852 
L 156.013452 226.08218 
L 156.827122 226.08218 
L 156.827122 225.665051 
L 157.640793 225.665051 
L 157.640793 225.24423 
L 158.454463 225.24423 
L 158.454463 224.878781 
L 159.268134 224.878781 
L 159.268134 224.520715 
L 160.081805 224.520715 
L 160.081805 224.240168 
L 160.895475 224.240168 
L 160.895475 223.882102 
L 161.709146 223.882102 
L 161.709146 223.535109 
L 162.522816 223.535109 
L 162.522816 223.232414 
L 163.336487 223.232414 
L 163.336487 222.929719 
L 164.150157 222.929719 
L 164.150157 222.656555 
L 164.963828 222.656555 
L 164.963828 222.364934 
L 165.777498 222.364934 
L 165.777498 222.073313 
L 166.591169 222.073313 
L 166.591169 221.72632 
L 167.404839 221.72632 
L 167.404839 221.467922 
L 168.21851 221.467922 
L 168.21851 221.202141 
L 169.03218 221.202141 
L 169.03218 220.928977 
L 169.845851 220.928977 
L 169.845851 220.652121 
L 170.659522 220.652121 
L 170.659522 220.375266 
L 171.473192 220.375266 
L 171.473192 220.057805 
L 172.286863 220.057805 
L 172.286863 219.747727 
L 173.100533 219.747727 
L 173.100533 219.452414 
L 173.914204 219.452414 
L 173.914204 219.164484 
L 174.727874 219.164484 
L 174.727874 218.909777 
L 175.541545 218.909777 
L 175.541545 218.596008 
L 176.355215 218.596008 
L 176.355215 218.20841 
L 177.168886 218.20841 
L 177.168886 217.846652 
L 177.982556 217.846652 
L 177.982556 217.488586 
L 178.796227 217.488586 
L 178.796227 217.167434 
L 179.609897 217.167434 
L 179.609897 216.81675 
L 180.423568 216.81675 
L 180.423568 216.454992 
L 181.237239 216.454992 
L 181.237239 216.026789 
L 182.050909 216.026789 
L 182.050909 215.68718 
L 182.86458 215.68718 
L 182.86458 215.354953 
L 183.67825 215.354953 
L 183.67825 214.945207 
L 184.491921 214.945207 
L 184.491921 214.583449 
L 185.305591 214.583449 
L 185.305591 214.181086 
L 186.119262 214.181086 
L 186.119262 213.789797 
L 186.932932 213.789797 
L 186.932932 213.361594 
L 187.746603 213.361594 
L 187.746603 212.785734 
L 188.560273 212.785734 
L 188.560273 212.357531 
L 189.373944 212.357531 
L 189.373944 211.988391 
L 190.187614 211.988391 
L 190.187614 211.545422 
L 191.001285 211.545422 
L 191.001285 211.102453 
L 191.814956 211.102453 
L 191.814956 210.666867 
L 192.628626 210.666867 
L 192.628626 210.194367 
L 193.442297 210.194367 
L 193.442297 209.75509 
L 194.255967 209.75509 
L 194.255967 209.260441 
L 195.069638 209.260441 
L 195.069638 208.725188 
L 195.883308 208.725188 
L 195.883308 208.164094 
L 196.696979 208.164094 
L 196.696979 207.650988 
L 197.510649 207.650988 
L 197.510649 207.100969 
L 198.32432 207.100969 
L 198.32432 206.610012 
L 199.13799 206.610012 
L 199.13799 206.045227 
L 199.951661 206.045227 
L 199.951661 205.513664 
L 200.765332 205.513664 
L 200.765332 204.959953 
L 201.579002 204.959953 
L 201.579002 204.446848 
L 202.392673 204.446848 
L 202.392673 203.878371 
L 203.206343 203.878371 
L 203.206343 203.339426 
L 204.020014 203.339426 
L 204.020014 202.767258 
L 204.833684 202.767258 
L 204.833684 202.095422 
L 205.647355 202.095422 
L 205.647355 201.541711 
L 206.461025 201.541711 
L 206.461025 200.980617 
L 207.274696 200.980617 
L 207.274696 200.371535 
L 208.088366 200.371535 
L 208.088366 199.751379 
L 208.902037 199.751379 
L 208.902037 199.17552 
L 209.715707 199.17552 
L 209.715707 198.481535 
L 210.529378 198.481535 
L 210.529378 197.809699 
L 211.343049 197.809699 
L 211.343049 197.171086 
L 212.156719 197.171086 
L 212.156719 196.562004 
L 212.97039 196.562004 
L 212.97039 195.882785 
L 213.78406 195.882785 
L 213.78406 195.284777 
L 214.597731 195.284777 
L 214.597731 194.587102 
L 215.411401 194.587102 
L 215.411401 193.918957 
L 216.225072 193.918957 
L 216.225072 193.272961 
L 217.038742 193.272961 
L 217.038742 192.74509 
L 217.852413 192.74509 
L 217.852413 192.095402 
L 218.666083 192.095402 
L 218.666083 191.445715 
L 219.479754 191.445715 
L 219.479754 190.781262 
L 220.293424 190.781262 
L 220.293424 190.1205 
L 221.107095 190.1205 
L 221.107095 189.419133 
L 221.920766 189.419133 
L 221.920766 188.758371 
L 222.734436 188.758371 
L 222.734436 188.04593 
L 223.548107 188.04593 
L 223.548107 187.355637 
L 224.361777 187.355637 
L 224.361777 186.591516 
L 225.175448 186.591516 
L 225.175448 185.956594 
L 225.989118 185.956594 
L 225.989118 185.170324 
L 226.802789 185.170324 
L 226.802789 184.395129 
L 227.616459 184.395129 
L 227.616459 183.708527 
L 228.43013 183.708527 
L 228.43013 182.837355 
L 229.2438 182.837355 
L 229.2438 182.102766 
L 230.057471 182.102766 
L 230.057471 181.394016 
L 230.871141 181.394016 
L 230.871141 180.692648 
L 231.684812 180.692648 
L 231.684812 179.965441 
L 232.498483 179.965441 
L 232.498483 179.230852 
L 233.312153 179.230852 
L 233.312153 178.485188 
L 234.125824 178.485188 
L 234.125824 177.813352 
L 234.939494 177.813352 
L 234.939494 176.923723 
L 235.753165 176.923723 
L 235.753165 176.251887 
L 236.566835 176.251887 
L 236.566835 175.495148 
L 237.380506 175.495148 
L 237.380506 174.723645 
L 238.194176 174.723645 
L 238.194176 173.848781 
L 239.007847 173.848781 
L 239.007847 173.010832 
L 239.821517 173.010832 
L 239.821517 172.187648 
L 240.635188 172.187648 
L 240.635188 171.342316 
L 241.448859 171.342316 
L 241.448859 170.478527 
L 242.262529 170.478527 
L 242.262529 169.721789 
L 243.0762 169.721789 
L 243.0762 168.795246 
L 243.88987 168.795246 
L 243.88987 167.997902 
L 244.703541 167.997902 
L 244.703541 167.027063 
L 245.517211 167.027063 
L 245.517211 166.115285 
L 246.330882 166.115285 
L 246.330882 165.188742 
L 247.144552 165.188742 
L 247.144552 164.391398 
L 247.958223 164.391398 
L 247.958223 163.50177 
L 248.771893 163.50177 
L 248.771893 162.586301 
L 249.585564 162.586301 
L 249.585564 161.681906 
L 250.399234 161.681906 
L 250.399234 160.810734 
L 251.212905 160.810734 
L 251.212905 159.910031 
L 252.026576 159.910031 
L 252.026576 158.917043 
L 252.840246 158.917043 
L 252.840246 158.031105 
L 253.653917 158.031105 
L 253.653917 157.078723 
L 254.467587 157.078723 
L 254.467587 156.218625 
L 255.281258 156.218625 
L 255.281258 155.266242 
L 256.094928 155.266242 
L 256.094928 154.398762 
L 256.908599 154.398762 
L 256.908599 153.564504 
L 257.722269 153.564504 
L 257.722269 152.667492 
L 258.53594 152.667492 
L 258.53594 151.803703 
L 259.34961 151.803703 
L 259.34961 150.847629 
L 260.163281 150.847629 
L 260.163281 149.946926 
L 260.976951 149.946926 
L 260.976951 148.928098 
L 261.790622 148.928098 
L 261.790622 147.960949 
L 262.604293 147.960949 
L 262.604293 147.030715 
L 263.417963 147.030715 
L 263.417963 145.989738 
L 264.231634 145.989738 
L 264.231634 145.015207 
L 265.045304 145.015207 
L 265.045304 144.088664 
L 265.858975 144.088664 
L 265.858975 143.187961 
L 266.672645 143.187961 
L 266.672645 142.217121 
L 267.486316 142.217121 
L 267.486316 141.386555 
L 268.299986 141.386555 
L 268.299986 140.489543 
L 269.113657 140.489543 
L 269.113657 139.540852 
L 269.927327 139.540852 
L 269.927327 138.66968 
L 270.740998 138.66968 
L 270.740998 137.85757 
L 271.554668 137.85757 
L 271.554668 136.949484 
L 272.368339 136.949484 
L 272.368339 136.089387 
L 273.18201 136.089387 
L 273.18201 135.184992 
L 273.99568 135.184992 
L 273.99568 134.350734 
L 274.809351 134.350734 
L 274.809351 133.387277 
L 275.623021 133.387277 
L 275.623021 132.493957 
L 276.436692 132.493957 
L 276.436692 131.637551 
L 277.250362 131.637551 
L 277.250362 130.751613 
L 278.064033 130.751613 
L 278.064033 129.969035 
L 278.877703 129.969035 
L 278.877703 129.053566 
L 279.691374 129.053566 
L 279.691374 128.241457 
L 280.505044 128.241457 
L 280.505044 127.333371 
L 281.318715 127.333371 
L 281.318715 126.458508 
L 282.132386 126.458508 
L 282.132386 125.616867 
L 282.946056 125.616867 
L 282.946056 124.778918 
L 283.759727 124.778918 
L 283.759727 123.948352 
L 284.573397 123.948352 
L 284.573397 123.18423 
L 285.387068 123.18423 
L 285.387068 122.338898 
L 286.200738 122.338898 
L 286.200738 121.475109 
L 287.014409 121.475109 
L 287.014409 120.655617 
L 287.828079 120.655617 
L 287.828079 119.861965 
L 288.64175 119.861965 
L 288.64175 119.116301 
L 289.45542 119.116301 
L 289.45542 118.355871 
L 290.269091 118.355871 
L 290.269091 117.488391 
L 291.082761 117.488391 
L 291.082761 116.742727 
L 291.896432 116.742727 
L 291.896432 115.908469 
L 292.710103 115.908469 
L 292.710103 115.159113 
L 293.523773 115.159113 
L 293.523773 114.454055 
L 294.337444 114.454055 
L 294.337444 113.745305 
L 295.151114 113.745305 
L 295.151114 112.940578 
L 295.964785 112.940578 
L 295.964785 112.228137 
L 296.778455 112.228137 
L 296.778455 111.44925 
L 297.592126 111.44925 
L 297.592126 110.681438 
L 298.405796 110.681438 
L 298.405796 109.865637 
L 299.219467 109.865637 
L 299.219467 108.994465 
L 300.033137 108.994465 
L 300.033137 108.245109 
L 300.846808 108.245109 
L 300.846808 107.51052 
L 301.660478 107.51052 
L 301.660478 106.739016 
L 302.474149 106.739016 
L 302.474149 106.070871 
L 303.28782 106.070871 
L 303.28782 105.395344 
L 304.10149 105.395344 
L 304.10149 104.734582 
L 304.915161 104.734582 
L 304.915161 104.044289 
L 305.728831 104.044289 
L 305.728831 103.457355 
L 306.542502 103.457355 
L 306.542502 102.792902 
L 307.356172 102.792902 
L 307.356172 102.143215 
L 308.169843 102.143215 
L 308.169843 101.463996 
L 308.983513 101.463996 
L 308.983513 100.784777 
L 309.797184 100.784777 
L 309.797184 100.227375 
L 310.610854 100.227375 
L 310.610854 99.63675 
L 311.424525 99.63675 
L 311.424525 99.046125 
L 312.238195 99.046125 
L 312.238195 98.466574 
L 313.051866 98.466574 
L 313.051866 97.868566 
L 313.865537 97.868566 
L 313.865537 97.259484 
L 314.679207 97.259484 
L 314.679207 96.691008 
L 315.492878 96.691008 
L 315.492878 96.004406 
L 316.306548 96.004406 
L 316.306548 95.38425 
L 317.120219 95.38425 
L 317.120219 94.812082 
L 317.933889 94.812082 
L 317.933889 94.188234 
L 318.74756 94.188234 
L 318.74756 93.593918 
L 319.56123 93.593918 
L 319.56123 93.084504 
L 320.374901 93.084504 
L 320.374901 92.486496 
L 321.188571 92.486496 
L 321.188571 91.899563 
L 322.002242 91.899563 
L 322.002242 91.253566 
L 322.815913 91.253566 
L 322.815913 90.803215 
L 323.629583 90.803215 
L 323.629583 90.279035 
L 324.443254 90.279035 
L 324.443254 89.673645 
L 325.256924 89.673645 
L 325.256924 89.071945 
L 326.070595 89.071945 
L 326.070595 88.444406 
L 326.884265 88.444406 
L 326.884265 87.761496 
L 327.697936 87.761496 
L 327.697936 87.252082 
L 328.511606 87.252082 
L 328.511606 86.635617 
L 329.325277 86.635617 
L 329.325277 86.015461 
L 330.138947 86.015461 
L 330.138947 85.454367 
L 330.952618 85.454367 
L 330.952618 84.797297 
L 331.766288 84.797297 
L 331.766288 84.214055 
L 332.579959 84.214055 
L 332.579959 83.64927 
L 333.39363 83.64927 
L 333.39363 83.043879 
L 334.2073 83.043879 
L 334.2073 82.36466 
L 335.020971 82.36466 
L 335.020971 81.855246 
L 335.834641 81.855246 
L 335.834641 81.283078 
L 336.648312 81.283078 
L 336.648312 80.677688 
L 337.461982 80.677688 
L 337.461982 80.131359 
L 338.275653 80.131359 
L 338.275653 79.537043 
L 339.089323 79.537043 
L 339.089323 78.946418 
L 339.902994 78.946418 
L 339.902994 78.333645 
L 340.716664 78.333645 
L 340.716664 77.757785 
L 341.530335 77.757785 
L 341.530335 77.152395 
L 342.344005 77.152395 
L 342.344005 76.639289 
L 343.157676 76.639289 
L 343.157676 76.17048 
L 343.971347 76.17048 
L 343.971347 75.579855 
L 344.785017 75.579855 
L 344.785017 75.074133 
L 345.598688 75.074133 
L 345.598688 74.498273 
L 346.412358 74.498273 
L 346.412358 73.96302 
L 347.226029 73.96302 
L 347.226029 73.416691 
L 348.039699 73.416691 
L 348.039699 72.874055 
L 348.85337 72.874055 
L 348.85337 72.301887 
L 349.66704 72.301887 
L 349.66704 71.796164 
L 350.480711 71.796164 
L 350.480711 71.294133 
L 351.294381 71.294133 
L 351.294381 70.73673 
L 352.108052 70.73673 
L 352.108052 70.223625 
L 352.921722 70.223625 
L 352.921722 69.71052 
L 353.735393 69.71052 
L 353.735393 69.197414 
L 354.549064 69.197414 
L 354.549064 68.665852 
L 355.362734 68.665852 
L 355.362734 68.18966 
L 356.176405 68.18966 
L 356.176405 67.720852 
L 356.990075 67.720852 
L 356.990075 67.19298 
L 357.803746 67.19298 
L 357.803746 66.786926 
L 358.617416 66.786926 
L 358.617416 66.29966 
L 359.431087 66.29966 
L 359.431087 65.764406 
L 360.244757 65.764406 
L 360.244757 65.218078 
L 361.058428 65.218078 
L 361.058428 64.771418 
L 361.872098 64.771418 
L 361.872098 64.298918 
L 362.685769 64.298918 
L 362.685769 63.881789 
L 363.49944 63.881789 
L 363.49944 63.435129 
L 364.31311 63.435129 
L 364.31311 62.96632 
L 365.126781 62.96632 
L 365.126781 62.530734 
L 365.940451 62.530734 
L 365.940451 62.135754 
L 366.754122 62.135754 
L 366.754122 61.748156 
L 367.567792 61.748156 
L 367.567792 61.33841 
L 368.381463 61.33841 
L 368.381463 60.89175 
L 369.195133 60.89175 
L 369.195133 60.555832 
L 370.008804 60.555832 
L 370.008804 60.146086 
L 370.822474 60.146086 
L 370.822474 59.773254 
L 371.636145 59.773254 
L 371.636145 59.319211 
L 372.449815 59.319211 
L 372.449815 58.898391 
L 373.263486 58.898391 
L 373.263486 58.52925 
L 374.077157 58.52925 
L 374.077157 58.219172 
L 374.890827 58.219172 
L 374.890827 57.84634 
L 375.704498 57.84634 
L 375.704498 57.547336 
L 376.518168 57.547336 
L 376.518168 57.281555 
L 377.331839 57.281555 
L 377.331839 56.938254 
L 378.145509 56.938254 
L 378.145509 56.624484 
L 378.95918 56.624484 
L 378.95918 56.32548 
L 379.77285 56.32548 
L 379.77285 56.056008 
L 380.586521 56.056008 
L 380.586521 55.779152 
L 381.400191 55.779152 
L 381.400191 55.50968 
L 382.213862 55.50968 
L 382.213862 55.321418 
L 383.027532 55.321418 
L 383.027532 55.162688 
L 383.841203 55.162688 
L 383.841203 54.992883 
L 384.654874 54.992883 
L 384.654874 54.834152 
L 385.468544 54.834152 
L 385.468544 54.656965 
L 386.282215 54.656965 
L 386.282215 54.465012 
L 387.095885 54.465012 
L 387.095885 54.343195 
L 387.909556 54.343195 
L 387.909556 54.22507 
L 388.723226 54.22507 
L 388.723226 54.11802 
L 389.536897 54.11802 
L 389.536897 53.98882 
L 390.350567 53.98882 
L 390.350567 53.914992 
L 391.164238 53.914992 
L 391.164238 53.815324 
L 391.977908 53.815324 
L 391.977908 53.734113 
L 392.791579 53.734113 
L 392.791579 53.693508 
L 393.605249 53.693508 
L 393.605249 53.656594 
L 394.41892 53.656594 
L 394.41892 53.641828 
L 395.232591 53.641828 
L 395.232591 53.61968 
L 396.046261 53.61968 
L 396.046261 53.601223 
L 396.859932 53.601223 
L 396.859932 53.579074 
L 397.673602 53.579074 
L 397.673602 53.568 
L 398.487273 53.568 
L 398.487273 295.488 
L 398.487273 295.488 
L 397.673602 295.488 
L 397.673602 295.488 
L 396.859932 295.488 
L 396.859932 295.488 
L 396.046261 295.488 
L 396.046261 295.488 
L 395.232591 295.488 
L 395.232591 295.488 
L 394.41892 295.488 
L 394.41892 295.488 
L 393.605249 295.488 
L 393.605249 295.488 
L 392.791579 295.488 
L 392.791579 295.488 
L 391.977908 295.488 
L 391.977908 295.488 
L 391.164238 295.488 
L 391.164238 295.488 
L 390.350567 295.488 
L 390.350567 295.488 
L 389.536897 295.488 
L 389.536897 295.488 
L 388.723226 295.488 
L 388.723226 295.488 
L 387.909556 295.488 
L 387.909556 295.488 
L 387.095885 295.488 
L 387.095885 295.488 
L 386.282215 295.488 
L 386.282215 295.488 
L 385.468544 295.488 
L 385.468544 295.488 
L 384.654874 295.488 
L 384.654874 295.488 
L 383.841203 295.488 
L 383.841203 295.488 
L 383.027532 295.488 
L 383.027532 295.488 
L 382.213862 295.488 
L 382.213862 295.488 
L 381.400191 295.488 
L 381.400191 295.488 
L 380.586521 295.488 
L 380.586521 295.488 
L 379.77285 295.488 
L 379.77285 295.488 
L 378.95918 295.488 
L 378.95918 295.488 
L 378.145509 295.488 
L 378.145509 295.488 
L 377.331839 295.488 
L 377.331839 295.488 
L 376.518168 295.488 
L 376.518168 295.488 
L 375.704498 295.488 
L 375.704498 295.488 
L 374.890827 295.488 
L 374.890827 295.488 
L 374.077157 295.488 
L 374.077157 295.488 
L 373.263486 295.488 
L 373.263486 295.488 
L 372.449815 295.488 
L 372.449815 295.488 
L 371.636145 295.488 
L 371.636145 295.488 
L 370.822474 295.488 
L 370.822474 295.488 
L 370.008804 295.488 
L 370.008804 295.488 
L 369.195133 295.488 
L 369.195133 295.488 
L 368.381463 295.488 
L 368.381463 295.488 
L 367.567792 295.488 
L 367.567792 295.488 
L 366.754122 295.488 
L 366.754122 295.488 
L 365.940451 295.488 
L 365.940451 295.488 
L 365.126781 295.488 
L 365.126781 295.488 
L 364.31311 295.488 
L 364.31311 295.488 
L 363.49944 295.488 
L 363.49944 295.488 
L 362.685769 295.488 
L 362.685769 295.488 
L 361.872098 295.488 
L 361.872098 295.488 
L 361.058428 295.488 
L 361.058428 295.488 
L 360.244757 295.488 
L 360.244757 295.488 
L 359.431087 295.488 
L 359.431087 295.488 
L 358.617416 295.488 
L 358.617416 295.488 
L 357.803746 295.488 
L 357.803746 295.488 
L 356.990075 295.488 
L 356.990075 295.488 
L 356.176405 295.488 
L 356.176405 295.488 
L 355.362734 295.488 
L 355.362734 295.488 
L 354.549064 295.488 
L 354.549064 295.488 
L 353.735393 295.488 
L 353.735393 295.488 
L 352.921722 295.488 
L 352.921722 295.488 
L 352.108052 295.488 
L 352.108052 295.488 
L 351.294381 295.488 
L 351.294381 295.488 
L 350.480711 295.488 
L 350.480711 295.488 
L 349.66704 295.488 
L 349.66704 295.488 
L 348.85337 295.488 
L 348.85337 295.488 
L 348.039699 295.488 
L 348.039699 295.488 
L 347.226029 295.488 
L 347.226029 295.488 
L 346.412358 295.488 
L 346.412358 295.488 
L 345.598688 295.488 
L 345.598688 295.488 
L 344.785017 295.488 
L 344.785017 295.488 
L 343.971347 295.488 
L 343.971347 295.488 
L 343.157676 295.488 
L 343.157676 295.488 
L 342.344005 295.488 
L 342.344005 295.488 
L 341.530335 295.488 
L 341.530335 295.488 
L 340.716664 295.488 
L 340.716664 295.488 
L 339.902994 295.488 
L 339.902994 295.488 
L 339.089323 295.488 
L 339.089323 295.488 
L 338.275653 295.488 
L 338.275653 295.488 
L 337.461982 295.488 
L 337.461982 295.488 
L 336.648312 295.488 
L 336.648312 295.488 
L 335.834641 295.488 
L 335.834641 295.488 
L 335.020971 295.488 
L 335.020971 295.488 
L 334.2073 295.488 
L 334.2073 295.488 
L 333.39363 295.488 
L 333.39363 295.488 
L 332.579959 295.488 
L 332.579959 295.488 
L 331.766288 295.488 
L 331.766288 295.488 
L 330.952618 295.488 
L 330.952618 295.488 
L 330.138947 295.488 
L 330.138947 295.488 
L 329.325277 295.488 
L 329.325277 295.488 
L 328.511606 295.488 
L 328.511606 295.488 
L 327.697936 295.488 
L 327.697936 295.488 
L 326.884265 295.488 
L 326.884265 295.488 
L 326.070595 295.488 
L 326.070595 295.488 
L 325.256924 295.488 
L 325.256924 295.488 
L 324.443254 295.488 
L 324.443254 295.488 
L 323.629583 295.488 
L 323.629583 295.488 
L 322.815913 295.488 
L 322.815913 295.488 
L 322.002242 295.488 
L 322.002242 295.488 
L 321.188571 295.488 
L 321.188571 295.488 
L 320.374901 295.488 
L 320.374901 295.488 
L 319.56123 295.488 
L 319.56123 295.488 
L 318.74756 295.488 
L 318.74756 295.488 
L 317.933889 295.488 
L 317.933889 295.488 
L 317.120219 295.488 
L 317.120219 295.488 
L 316.306548 295.488 
L 316.306548 295.488 
L 315.492878 295.488 
L 315.492878 295.488 
L 314.679207 295.488 
L 314.679207 295.488 
L 313.865537 295.488 
L 313.865537 295.488 
L 313.051866 295.488 
L 313.051866 295.488 
L 312.238195 295.488 
L 312.238195 295.488 
L 311.424525 295.488 
L 311.424525 295.488 
L 310.610854 295.488 
L 310.610854 295.488 
L 309.797184 295.488 
L 309.797184 295.488 
L 308.983513 295.488 
L 308.983513 295.488 
L 308.169843 295.488 
L 308.169843 295.488 
L 307.356172 295.488 
L 307.356172 295.488 
L 306.542502 295.488 
L 306.542502 295.488 
L 305.728831 295.488 
L 305.728831 295.488 
L 304.915161 295.488 
L 304.915161 295.488 
L 304.10149 295.488 
L 304.10149 295.488 
L 303.28782 295.488 
L 303.28782 295.488 
L 302.474149 295.488 
L 302.474149 295.488 
L 301.660478 295.488 
L 301.660478 295.488 
L 300.846808 295.488 
L 300.846808 295.488 
L 300.033137 295.488 
L 300.033137 295.488 
L 299.219467 295.488 
L 299.219467 295.488 
L 298.405796 295.488 
L 298.405796 295.488 
L 297.592126 295.488 
L 297.592126 295.488 
L 296.778455 295.488 
L 296.778455 295.488 
L 295.964785 295.488 
L 295.964785 295.488 
L 295.151114 295.488 
L 295.151114 295.488 
L 294.337444 295.488 
L 294.337444 295.488 
L 293.523773 295.488 
L 293.523773 295.488 
L 292.710103 295.488 
L 292.710103 295.488 
L 291.896432 295.488 
L 291.896432 295.488 
L 291.082761 295.488 
L 291.082761 295.488 
L 290.269091 295.488 
L 290.269091 295.488 
L 289.45542 295.488 
L 289.45542 295.488 
L 288.64175 295.488 
L 288.64175 295.488 
L 287.828079 295.488 
L 287.828079 295.488 
L 287.014409 295.488 
L 287.014409 295.488 
L 286.200738 295.488 
L 286.200738 295.488 
L 285.387068 295.488 
L 285.387068 295.488 
L 284.573397 295.488 
L 284.573397 295.488 
L 283.759727 295.488 
L 283.759727 295.488 
L 282.946056 295.488 
L 282.946056 295.488 
L 282.132386 295.488 
L 282.132386 295.488 
L 281.318715 295.488 
L 281.318715 295.488 
L 280.505044 295.488 
L 280.505044 295.488 
L 279.691374 295.488 
L 279.691374 295.488 
L 278.877703 295.488 
L 278.877703 295.488 
L 278.064033 295.488 
L 278.064033 295.488 
L 277.250362 295.488 
L 277.250362 295.488 
L 276.436692 295.488 
L 276.436692 295.488 
L 275.623021 295.488 
L 275.623021 295.488 
L 274.809351 295.488 
L 274.809351 295.488 
L 273.99568 295.488 
L 273.99568 295.488 
L 273.18201 295.488 
L 273.18201 295.488 
L 272.368339 295.488 
L 272.368339 295.488 
L 271.554668 295.488 
L 271.554668 295.488 
L 270.740998 295.488 
L 270.740998 295.488 
L 269.927327 295.488 
L 269.927327 295.488 
L 269.113657 295.488 
L 269.113657 295.488 
L 268.299986 295.488 
L 268.299986 295.488 
L 267.486316 295.488 
L 267.486316 295.488 
L 266.672645 295.488 
L 266.672645 295.488 
L 265.858975 295.488 
L 265.858975 295.488 
L 265.045304 295.488 
L 265.045304 295.488 
L 264.231634 295.488 
L 264.231634 295.488 
L 263.417963 295.488 
L 263.417963 295.488 
L 262.604293 295.488 
L 262.604293 295.488 
L 261.790622 295.488 
L 261.790622 295.488 
L 260.976951 295.488 
L 260.976951 295.488 
L 260.163281 295.488 
L 260.163281 295.488 
L 259.34961 295.488 
L 259.34961 295.488 
L 258.53594 295.488 
L 258.53594 295.488 
L 257.722269 295.488 
L 257.722269 295.488 
L 256.908599 295.488 
L 256.908599 295.488 
L 256.094928 295.488 
L 256.094928 295.488 
L 255.281258 295.488 
L 255.281258 295.488 
L 254.467587 295.488 
L 254.467587 295.488 
L 253.653917 295.488 
L 253.653917 295.488 
L 252.840246 295.488 
L 252.840246 295.488 
L 252.026576 295.488 
L 252.026576 295.488 
L 251.212905 295.488 
L 251.212905 295.488 
L 250.399234 295.488 
L 250.399234 295.488 
L 249.585564 295.488 
L 249.585564 295.488 
L 248.771893 295.488 
L 248.771893 295.488 
L 247.958223 295.488 
L 247.958223 295.488 
L 247.144552 295.488 
L 247.144552 295.488 
L 246.330882 295.488 
L 246.330882 295.488 
L 245.517211 295.488 
L 245.517211 295.488 
L 244.703541 295.488 
L 244.703541 295.488 
L 243.88987 295.488 
L 243.88987 295.488 
L 243.0762 295.488 
L 243.0762 295.488 
L 242.262529 295.488 
L 242.262529 295.488 
L 241.448859 295.488 
L 241.448859 295.488 
L 240.635188 295.488 
L 240.635188 295.488 
L 239.821517 295.488 
L 239.821517 295.488 
L 239.007847 295.488 
L 239.007847 295.488 
L 238.194176 295.488 
L 238.194176 295.488 
L 237.380506 295.488 
L 237.380506 295.488 
L 236.566835 295.488 
L 236.566835 295.488 
L 235.753165 295.488 
L 235.753165 295.488 
L 234.939494 295.488 
L 234.939494 295.488 
L 234.125824 295.488 
L 234.125824 295.488 
L 233.312153 295.488 
L 233.312153 295.488 
L 232.498483 295.488 
L 232.498483 295.488 
L 231.684812 295.488 
L 231.684812 295.488 
L 230.871141 295.488 
L 230.871141 295.488 
L 230.057471 295.488 
L 230.057471 295.488 
L 229.2438 295.488 
L 229.2438 295.488 
L 228.43013 295.488 
L 228.43013 295.488 
L 227.616459 295.488 
L 227.616459 295.488 
L 226.802789 295.488 
L 226.802789 295.488 
L 225.989118 295.488 
L 225.989118 295.488 
L 225.175448 295.488 
L 225.175448 295.488 
L 224.361777 295.488 
L 224.361777 295.488 
L 223.548107 295.488 
L 223.548107 295.488 
L 222.734436 295.488 
L 222.734436 295.488 
L 221.920766 295.488 
L 221.920766 295.488 
L 221.107095 295.488 
L 221.107095 295.488 
L 220.293424 295.488 
L 220.293424 295.488 
L 219.479754 295.488 
L 219.479754 295.488 
L 218.666083 295.488 
L 218.666083 295.488 
L 217.852413 295.488 
L 217.852413 295.488 
L 217.038742 295.488 
L 217.038742 295.488 
L 216.225072 295.488 
L 216.225072 295.488 
L 215.411401 295.488 
L 215.411401 295.488 
L 214.597731 295.488 
L 214.597731 295.488 
L 213.78406 295.488 
L 213.78406 295.488 
L 212.97039 295.488 
L 212.97039 295.488 
L 212.156719 295.488 
L 212.156719 295.488 
L 211.343049 295.488 
L 211.343049 295.488 
L 210.529378 295.488 
L 210.529378 295.488 
L 209.715707 295.488 
L 209.715707 295.488 
L 208.902037 295.488 
L 208.902037 295.488 
L 208.088366 295.488 
L 208.088366 295.488 
L 207.274696 295.488 
L 207.274696 295.488 
L 206.461025 295.488 
L 206.461025 295.488 
L 205.647355 295.488 
L 205.647355 295.488 
L 204.833684 295.488 
L 204.833684 295.488 
L 204.020014 295.488 
L 204.020014 295.488 
L 203.206343 295.488 
L 203.206343 295.488 
L 202.392673 295.488 
L 202.392673 295.488 
L 201.579002 295.488 
L 201.579002 295.488 
L 200.765332 295.488 
L 200.765332 295.488 
L 199.951661 295.488 
L 199.951661 295.488 
L 199.13799 295.488 
L 199.13799 295.488 
L 198.32432 295.488 
L 198.32432 295.488 
L 197.510649 295.488 
L 197.510649 295.488 
L 196.696979 295.488 
L 196.696979 295.488 
L 195.883308 295.488 
L 195.883308 295.488 
L 195.069638 295.488 
L 195.069638 295.488 
L 194.255967 295.488 
L 194.255967 295.488 
L 193.442297 295.488 
L 193.442297 295.488 
L 192.628626 295.488 
L 192.628626 295.488 
L 191.814956 295.488 
L 191.814956 295.488 
L 191.001285 295.488 
L 191.001285 295.488 
L 190.187614 295.488 
L 190.187614 295.488 
L 189.373944 295.488 
L 189.373944 295.488 
L 188.560273 295.488 
L 188.560273 295.488 
L 187.746603 295.488 
L 187.746603 295.488 
L 186.932932 295.488 
L 186.932932 295.488 
L 186.119262 295.488 
L 186.119262 295.488 
L 185.305591 295.488 
L 185.305591 295.488 
L 184.491921 295.488 
L 184.491921 295.488 
L 183.67825 295.488 
L 183.67825 295.488 
L 182.86458 295.488 
L 182.86458 295.488 
L 182.050909 295.488 
L 182.050909 295.488 
L 181.237239 295.488 
L 181.237239 295.488 
L 180.423568 295.488 
L 180.423568 295.488 
L 179.609897 295.488 
L 179.609897 295.488 
L 178.796227 295.488 
L 178.796227 295.488 
L 177.982556 295.488 
L 177.982556 295.488 
L 177.168886 295.488 
L 177.168886 295.488 
L 176.355215 295.488 
L 176.355215 295.488 
L 175.541545 295.488 
L 175.541545 295.488 
L 174.727874 295.488 
L 174.727874 295.488 
L 173.914204 295.488 
L 173.914204 295.488 
L 173.100533 295.488 
L 173.100533 295.488 
L 172.286863 295.488 
L 172.286863 295.488 
L 171.473192 295.488 
L 171.473192 295.488 
L 170.659522 295.488 
L 170.659522 295.488 
L 169.845851 295.488 
L 169.845851 295.488 
L 169.03218 295.488 
L 169.03218 295.488 
L 168.21851 295.488 
L 168.21851 295.488 
L 167.404839 295.488 
L 167.404839 295.488 
L 166.591169 295.488 
L 166.591169 295.488 
L 165.777498 295.488 
L 165.777498 295.488 
L 164.963828 295.488 
L 164.963828 295.488 
L 164.150157 295.488 
L 164.150157 295.488 
L 163.336487 295.488 
L 163.336487 295.488 
L 162.522816 295.488 
L 162.522816 295.488 
L 161.709146 295.488 
L 161.709146 295.488 
L 160.895475 295.488 
L 160.895475 295.488 
L 160.081805 295.488 
L 160.081805 295.488 
L 159.268134 295.488 
L 159.268134 295.488 
L 158.454463 295.488 
L 158.454463 295.488 
L 157.640793 295.488 
L 157.640793 295.488 
L 156.827122 295.488 
L 156.827122 295.488 
L 156.013452 295.488 
L 156.013452 295.488 
L 155.199781 295.488 
L 155.199781 295.488 
L 154.386111 295.488 
L 154.386111 295.488 
L 153.57244 295.488 
L 153.57244 295.488 
L 152.75877 295.488 
L 152.75877 295.488 
L 151.945099 295.488 
L 151.945099 295.488 
L 151.131429 295.488 
L 151.131429 295.488 
L 150.317758 295.488 
L 150.317758 295.488 
L 149.504087 295.488 
L 149.504087 295.488 
L 148.690417 295.488 
L 148.690417 295.488 
L 147.876746 295.488 
L 147.876746 295.488 
L 147.063076 295.488 
L 147.063076 295.488 
L 146.249405 295.488 
L 146.249405 295.488 
L 145.435735 295.488 
L 145.435735 295.488 
L 144.622064 295.488 
L 144.622064 295.488 
L 143.808394 295.488 
L 143.808394 295.488 
L 142.994723 295.488 
L 142.994723 295.488 
L 142.181053 295.488 
L 142.181053 295.488 
L 141.367382 295.488 
L 141.367382 295.488 
L 140.553712 295.488 
L 140.553712 295.488 
L 139.740041 295.488 
L 139.740041 295.488 
L 138.92637 295.488 
L 138.92637 295.488 
L 138.1127 295.488 
L 138.1127 295.488 
L 137.299029 295.488 
L 137.299029 295.488 
L 136.485359 295.488 
L 136.485359 295.488 
L 135.671688 295.488 
L 135.671688 295.488 
L 134.858018 295.488 
L 134.858018 295.488 
L 134.044347 295.488 
L 134.044347 295.488 
L 133.230677 295.488 
L 133.230677 295.488 
L 132.417006 295.488 
L 132.417006 295.488 
L 131.603336 295.488 
L 131.603336 295.488 
L 130.789665 295.488 
L 130.789665 295.488 
L 129.975995 295.488 
L 129.975995 295.488 
L 129.162324 295.488 
L 129.162324 295.488 
L 128.348653 295.488 
L 128.348653 295.488 
L 127.534983 295.488 
L 127.534983 295.488 
L 126.721312 295.488 
L 126.721312 295.488 
L 125.907642 295.488 
L 125.907642 295.488 
L 125.093971 295.488 
L 125.093971 295.488 
L 124.280301 295.488 
L 124.280301 295.488 
L 123.46663 295.488 
L 123.46663 295.488 
L 122.65296 295.488 
L 122.65296 295.488 
L 121.839289 295.488 
L 121.839289 295.488 
L 121.025619 295.488 
L 121.025619 295.488 
L 120.211948 295.488 
L 120.211948 295.488 
L 119.398278 295.488 
L 119.398278 295.488 
L 118.584607 295.488 
L 118.584607 295.488 
L 117.770936 295.488 
L 117.770936 295.488 
L 116.957266 295.488 
L 116.957266 295.488 
L 116.143595 295.488 
L 116.143595 295.488 
L 115.329925 295.488 
L 115.329925 295.488 
L 114.516254 295.488 
L 114.516254 295.488 
L 113.702584 295.488 
L 113.702584 295.488 
L 112.888913 295.488 
L 112.888913 295.488 
L 112.075243 295.488 
L 112.075243 295.488 
L 111.261572 295.488 
L 111.261572 295.488 
L 110.447902 295.488 
L 110.447902 295.488 
L 109.634231 295.488 
L 109.634231 295.488 
L 108.82056 295.488 
L 108.82056 295.488 
L 108.00689 295.488 
L 108.00689 295.488 
L 107.193219 295.488 
L 107.193219 295.488 
L 106.379549 295.488 
L 106.379549 295.488 
L 105.565878 295.488 
L 105.565878 295.488 
L 104.752208 295.488 
L 104.752208 295.488 
L 103.938537 295.488 
L 103.938537 295.488 
L 103.124867 295.488 
L 103.124867 295.488 
L 102.311196 295.488 
L 102.311196 295.488 
L 101.497526 295.488 
L 101.497526 295.488 
L 100.683855 295.488 
L 100.683855 295.488 
L 99.870185 295.488 
L 99.870185 295.488 
L 99.056514 295.488 
L 99.056514 295.488 
L 98.242843 295.488 
L 98.242843 295.488 
L 97.429173 295.488 
L 97.429173 295.488 
L 96.615502 295.488 
L 96.615502 295.488 
L 95.801832 295.488 
L 95.801832 295.488 
L 94.988161 295.488 
L 94.988161 295.488 
L 94.174491 295.488 
L 94.174491 295.488 
L 93.36082 295.488 
L 93.36082 295.488 
L 92.54715 295.488 
L 92.54715 295.488 
L 91.733479 295.488 
L 91.733479 295.488 
L 90.919809 295.488 
L 90.919809 295.488 
L 90.106138 295.488 
L 90.106138 295.488 
L 89.292468 295.488 
L 89.292468 295.488 
L 88.478797 295.488 
L 88.478797 295.488 
L 87.665126 295.488 
L 87.665126 295.488 
L 86.851456 295.488 
L 86.851456 295.488 
L 86.037785 295.488 
L 86.037785 295.488 
L 85.224115 295.488 
L 85.224115 295.488 
L 84.410444 295.488 
L 84.410444 295.488 
L 83.596774 295.488 
L 83.596774 295.488 
L 82.783103 295.488 
L 82.783103 295.488 
L 81.969433 295.488 
L 81.969433 295.488 
L 81.155762 295.488 
L 81.155762 295.488 
L 80.342092 295.488 
L 80.342092 295.488 
L 79.528421 295.488 
L 79.528421 295.488 
L 78.714751 295.488 
L 78.714751 295.488 
L 77.90108 295.488 
L 77.90108 295.488 
L 77.087409 295.488 
L 77.087409 295.488 
L 76.273739 295.488 
L 76.273739 295.488 
L 75.460068 295.488 
L 75.460068 295.488 
L 74.646398 295.488 
L 74.646398 295.488 
L 73.832727 295.488 
L 73.832727 295.488 
z
" clip-path="url(#p42bbf1a97e)" style="fill: #1f77b4; fill-opacity: 0.4"/>
   </g>
   <g id="matplotlib.axis_1">
    <g id="xtick_1">
     <g id="line2d_1">
      <defs>
       <path id="me87b2c30ac" d="M 0 0 
L 0 3.5 
" style="stroke: #000000; stroke-width: 0.8"/>
      </defs>
      <g>
       <use xlink:href="#me87b2c30ac" x="64.664261" y="307.584" style="stroke: #000000; stroke-width: 0.8"/>
      </g>
     </g>
     <g id="text_1">
      <!-- 0.0 -->
      <g transform="translate(56.712698 322.182437) scale(0.1 -0.1)">
       <defs>
        <path id="DejaVuSans-30" d="M 2034 4250 
Q 1547 4250 1301 3770 
Q 1056 3291 1056 2328 
Q 1056 1369 1301 889 
Q 1547 409 2034 409 
Q 2525 409 2770 889 
Q 3016 1369 3016 2328 
Q 3016 3291 2770 3770 
Q 2525 4250 2034 4250 
z
M 2034 4750 
Q 2819 4750 3233 4129 
Q 3647 3509 3647 2328 
Q 3647 1150 3233 529 
Q 2819 -91 2034 -91 
Q 1250 -91 836 529 
Q 422 1150 422 2328 
Q 422 3509 836 4129 
Q 1250 4750 2034 4750 
z
" transform="scale(0.015625)"/>
        <path id="DejaVuSans-2e" d="M 684 794 
L 1344 794 
L 1344 0 
L 684 0 
L 684 794 
z
" transform="scale(0.015625)"/>
       </defs>
       <use xlink:href="#DejaVuSans-30"/>
       <use xlink:href="#DejaVuSans-2e" x="63.623047"/>
       <use xlink:href="#DejaVuSans-30" x="95.410156"/>
      </g>
     </g>
    </g>
    <g id="xtick_2">
     <g id="line2d_2">
      <g>
       <use xlink:href="#me87b2c30ac" x="121.017622" y="307.584" style="stroke: #000000; stroke-width: 0.8"/>
      </g>
     </g>
     <g id="text_2">
      <!-- 0.1 -->
      <g transform="translate(113.066059 322.182437) scale(0.1 -0.1)">
       <defs>
        <path id="DejaVuSans-31" d="M 794 531 
L 1825 531 
L 1825 4091 
L 703 3866 
L 703 4441 
L 1819 4666 
L 2450 4666 
L 2450 531 
L 3481 531 
L 3481 0 
L 794 0 
L 794 531 
z
" transform="scale(0.015625)"/>
       </defs>
       <use xlink:href="#DejaVuSans-30"/>
       <use xlink:href="#DejaVuSans-2e" x="63.623047"/>
       <use xlink:href="#DejaVuSans-31" x="95.410156"/>
      </g>
     </g>
    </g>
    <g id="xtick_3">
     <g id="line2d_3">
      <g>
       <use xlink:href="#me87b2c30ac" x="177.370983" y="307.584" style="stroke: #000000; stroke-width: 0.8"/>
      </g>
     </g>
     <g id="text_3">
      <!-- 0.2 -->
      <g transform="translate(169.41942 322.182437) scale(0.1 -0.1)">
       <defs>
        <path id="DejaVuSans-32" d="M 1228 531 
L 3431 531 
L 3431 0 
L 469 0 
L 469 531 
Q 828 903 1448 1529 
Q 2069 2156 2228 2338 
Q 2531 2678 2651 2914 
Q 2772 3150 2772 3378 
Q 2772 3750 2511 3984 
Q 2250 4219 1831 4219 
Q 1534 4219 1204 4116 
Q 875 4013 500 3803 
L 500 4441 
Q 881 4594 1212 4672 
Q 1544 4750 1819 4750 
Q 2544 4750 2975 4387 
Q 3406 4025 3406 3419 
Q 3406 3131 3298 2873 
Q 3191 2616 2906 2266 
Q 2828 2175 2409 1742 
Q 1991 1309 1228 531 
z
" transform="scale(0.015625)"/>
       </defs>
       <use xlink:href="#DejaVuSans-30"/>
       <use xlink:href="#DejaVuSans-2e" x="63.623047"/>
       <use xlink:href="#DejaVuSans-32" x="95.410156"/>
      </g>
     </g>
    </g>
    <g id="xtick_4">
     <g id="line2d_4">
      <g>
       <use xlink:href="#me87b2c30ac" x="233.724344" y="307.584" style="stroke: #000000; stroke-width: 0.8"/>
      </g>
     </g>
     <g id="text_4">
      <!-- 0.3 -->
      <g transform="translate(225.772781 322.182437) scale(0.1 -0.1)">
       <defs>
        <path id="DejaVuSans-33" d="M 2597 2516 
Q 3050 2419 3304 2112 
Q 3559 1806 3559 1356 
Q 3559 666 3084 287 
Q 2609 -91 1734 -91 
Q 1441 -91 1130 -33 
Q 819 25 488 141 
L 488 750 
Q 750 597 1062 519 
Q 1375 441 1716 441 
Q 2309 441 2620 675 
Q 2931 909 2931 1356 
Q 2931 1769 2642 2001 
Q 2353 2234 1838 2234 
L 1294 2234 
L 1294 2753 
L 1863 2753 
Q 2328 2753 2575 2939 
Q 2822 3125 2822 3475 
Q 2822 3834 2567 4026 
Q 2313 4219 1838 4219 
Q 1578 4219 1281 4162 
Q 984 4106 628 3988 
L 628 4550 
Q 988 4650 1302 4700 
Q 1616 4750 1894 4750 
Q 2613 4750 3031 4423 
Q 3450 4097 3450 3541 
Q 3450 3153 3228 2886 
Q 3006 2619 2597 2516 
z
" transform="scale(0.015625)"/>
       </defs>
       <use xlink:href="#DejaVuSans-30"/>
       <use xlink:href="#DejaVuSans-2e" x="63.623047"/>
       <use xlink:href="#DejaVuSans-33" x="95.410156"/>
      </g>
     </g>
    </g>
    <g id="xtick_5">
     <g id="line2d_5">
      <g>
       <use xlink:href="#me87b2c30ac" x="290.077704" y="307.584" style="stroke: #000000; stroke-width: 0.8"/>
      </g>
     </g>
     <g id="text_5">
      <!-- 0.4 -->
      <g transform="translate(282.126142 322.182437) scale(0.1 -0.1)">
       <defs>
        <path id="DejaVuSans-34" d="M 2419 4116 
L 825 1625 
L 2419 1625 
L 2419 4116 
z
M 2253 4666 
L 3047 4666 
L 3047 1625 
L 3713 1625 
L 3713 1100 
L 3047 1100 
L 3047 0 
L 2419 0 
L 2419 1100 
L 313 1100 
L 313 1709 
L 2253 4666 
z
" transform="scale(0.015625)"/>
       </defs>
       <use xlink:href="#DejaVuSans-30"/>
       <use xlink:href="#DejaVuSans-2e" x="63.623047"/>
       <use xlink:href="#DejaVuSans-34" x="95.410156"/>
      </g>
     </g>
    </g>
    <g id="xtick_6">
     <g id="line2d_6">
      <g>
       <use xlink:href="#me87b2c30ac" x="346.431065" y="307.584" style="stroke: #000000; stroke-width: 0.8"/>
      </g>
     </g>
     <g id="text_6">
      <!-- 0.5 -->
      <g transform="translate(338.479503 322.182437) scale(0.1 -0.1)">
       <defs>
        <path id="DejaVuSans-35" d="M 691 4666 
L 3169 4666 
L 3169 4134 
L 1269 4134 
L 1269 2991 
Q 1406 3038 1543 3061 
Q 1681 3084 1819 3084 
Q 2600 3084 3056 2656 
Q 3513 2228 3513 1497 
Q 3513 744 3044 326 
Q 2575 -91 1722 -91 
Q 1428 -91 1123 -41 
Q 819 9 494 109 
L 494 744 
Q 775 591 1075 516 
Q 1375 441 1709 441 
Q 2250 441 2565 725 
Q 2881 1009 2881 1497 
Q 2881 1984 2565 2268 
Q 2250 2553 1709 2553 
Q 1456 2553 1204 2497 
Q 953 2441 691 2322 
L 691 4666 
z
" transform="scale(0.015625)"/>
       </defs>
       <use xlink:href="#DejaVuSans-30"/>
       <use xlink:href="#DejaVuSans-2e" x="63.623047"/>
       <use xlink:href="#DejaVuSans-35" x="95.410156"/>
      </g>
     </g>
    </g>
    <g id="xtick_7">
     <g id="line2d_7">
      <g>
       <use xlink:href="#me87b2c30ac" x="402.784426" y="307.584" style="stroke: #000000; stroke-width: 0.8"/>
      </g>
     </g>
     <g id="text_7">
      <!-- 0.6 -->
      <g transform="translate(394.832864 322.182437) scale(0.1 -0.1)">
       <defs>
        <path id="DejaVuSans-36" d="M 2113 2584 
Q 1688 2584 1439 2293 
Q 1191 2003 1191 1497 
Q 1191 994 1439 701 
Q 1688 409 2113 409 
Q 2538 409 2786 701 
Q 3034 994 3034 1497 
Q 3034 2003 2786 2293 
Q 2538 2584 2113 2584 
z
M 3366 4563 
L 3366 3988 
Q 3128 4100 2886 4159 
Q 2644 4219 2406 4219 
Q 1781 4219 1451 3797 
Q 1122 3375 1075 2522 
Q 1259 2794 1537 2939 
Q 1816 3084 2150 3084 
Q 2853 3084 3261 2657 
Q 3669 2231 3669 1497 
Q 3669 778 3244 343 
Q 2819 -91 2113 -91 
Q 1303 -91 875 529 
Q 447 1150 447 2328 
Q 447 3434 972 4092 
Q 1497 4750 2381 4750 
Q 2619 4750 2861 4703 
Q 3103 4656 3366 4563 
z
" transform="scale(0.015625)"/>
       </defs>
       <use xlink:href="#DejaVuSans-30"/>
       <use xlink:href="#DejaVuSans-2e" x="63.623047"/>
       <use xlink:href="#DejaVuSans-36" x="95.410156"/>
      </g>
     </g>
    </g>
    <g id="text_8">
     <!-- Absolute distance error (m) -->
     <g transform="translate(167.47875 335.860562) scale(0.1 -0.1)">
      <defs>
       <path id="DejaVuSans-41" d="M 2188 4044 
L 1331 1722 
L 3047 1722 
L 2188 4044 
z
M 1831 4666 
L 2547 4666 
L 4325 0 
L 3669 0 
L 3244 1197 
L 1141 1197 
L 716 0 
L 50 0 
L 1831 4666 
z
" transform="scale(0.015625)"/>
       <path id="DejaVuSans-62" d="M 3116 1747 
Q 3116 2381 2855 2742 
Q 2594 3103 2138 3103 
Q 1681 3103 1420 2742 
Q 1159 2381 1159 1747 
Q 1159 1113 1420 752 
Q 1681 391 2138 391 
Q 2594 391 2855 752 
Q 3116 1113 3116 1747 
z
M 1159 2969 
Q 1341 3281 1617 3432 
Q 1894 3584 2278 3584 
Q 2916 3584 3314 3078 
Q 3713 2572 3713 1747 
Q 3713 922 3314 415 
Q 2916 -91 2278 -91 
Q 1894 -91 1617 61 
Q 1341 213 1159 525 
L 1159 0 
L 581 0 
L 581 4863 
L 1159 4863 
L 1159 2969 
z
" transform="scale(0.015625)"/>
       <path id="DejaVuSans-73" d="M 2834 3397 
L 2834 2853 
Q 2591 2978 2328 3040 
Q 2066 3103 1784 3103 
Q 1356 3103 1142 2972 
Q 928 2841 928 2578 
Q 928 2378 1081 2264 
Q 1234 2150 1697 2047 
L 1894 2003 
Q 2506 1872 2764 1633 
Q 3022 1394 3022 966 
Q 3022 478 2636 193 
Q 2250 -91 1575 -91 
Q 1294 -91 989 -36 
Q 684 19 347 128 
L 347 722 
Q 666 556 975 473 
Q 1284 391 1588 391 
Q 1994 391 2212 530 
Q 2431 669 2431 922 
Q 2431 1156 2273 1281 
Q 2116 1406 1581 1522 
L 1381 1569 
Q 847 1681 609 1914 
Q 372 2147 372 2553 
Q 372 3047 722 3315 
Q 1072 3584 1716 3584 
Q 2034 3584 2315 3537 
Q 2597 3491 2834 3397 
z
" transform="scale(0.015625)"/>
       <path id="DejaVuSans-6f" d="M 1959 3097 
Q 1497 3097 1228 2736 
Q 959 2375 959 1747 
Q 959 1119 1226 758 
Q 1494 397 1959 397 
Q 2419 397 2687 759 
Q 2956 1122 2956 1747 
Q 2956 2369 2687 2733 
Q 2419 3097 1959 3097 
z
M 1959 3584 
Q 2709 3584 3137 3096 
Q 3566 2609 3566 1747 
Q 3566 888 3137 398 
Q 2709 -91 1959 -91 
Q 1206 -91 779 398 
Q 353 888 353 1747 
Q 353 2609 779 3096 
Q 1206 3584 1959 3584 
z
" transform="scale(0.015625)"/>
       <path id="DejaVuSans-6c" d="M 603 4863 
L 1178 4863 
L 1178 0 
L 603 0 
L 603 4863 
z
" transform="scale(0.015625)"/>
       <path id="DejaVuSans-75" d="M 544 1381 
L 544 3500 
L 1119 3500 
L 1119 1403 
Q 1119 906 1312 657 
Q 1506 409 1894 409 
Q 2359 409 2629 706 
Q 2900 1003 2900 1516 
L 2900 3500 
L 3475 3500 
L 3475 0 
L 2900 0 
L 2900 538 
Q 2691 219 2414 64 
Q 2138 -91 1772 -91 
Q 1169 -91 856 284 
Q 544 659 544 1381 
z
M 1991 3584 
L 1991 3584 
z
" transform="scale(0.015625)"/>
       <path id="DejaVuSans-74" d="M 1172 4494 
L 1172 3500 
L 2356 3500 
L 2356 3053 
L 1172 3053 
L 1172 1153 
Q 1172 725 1289 603 
Q 1406 481 1766 481 
L 2356 481 
L 2356 0 
L 1766 0 
Q 1100 0 847 248 
Q 594 497 594 1153 
L 594 3053 
L 172 3053 
L 172 3500 
L 594 3500 
L 594 4494 
L 1172 4494 
z
" transform="scale(0.015625)"/>
       <path id="DejaVuSans-65" d="M 3597 1894 
L 3597 1613 
L 953 1613 
Q 991 1019 1311 708 
Q 1631 397 2203 397 
Q 2534 397 2845 478 
Q 3156 559 3463 722 
L 3463 178 
Q 3153 47 2828 -22 
Q 2503 -91 2169 -91 
Q 1331 -91 842 396 
Q 353 884 353 1716 
Q 353 2575 817 3079 
Q 1281 3584 2069 3584 
Q 2775 3584 3186 3129 
Q 3597 2675 3597 1894 
z
M 3022 2063 
Q 3016 2534 2758 2815 
Q 2500 3097 2075 3097 
Q 1594 3097 1305 2825 
Q 1016 2553 972 2059 
L 3022 2063 
z
" transform="scale(0.015625)"/>
       <path id="DejaVuSans-20" transform="scale(0.015625)"/>
       <path id="DejaVuSans-64" d="M 2906 2969 
L 2906 4863 
L 3481 4863 
L 3481 0 
L 2906 0 
L 2906 525 
Q 2725 213 2448 61 
Q 2172 -91 1784 -91 
Q 1150 -91 751 415 
Q 353 922 353 1747 
Q 353 2572 751 3078 
Q 1150 3584 1784 3584 
Q 2172 3584 2448 3432 
Q 2725 3281 2906 2969 
z
M 947 1747 
Q 947 1113 1208 752 
Q 1469 391 1925 391 
Q 2381 391 2643 752 
Q 2906 1113 2906 1747 
Q 2906 2381 2643 2742 
Q 2381 3103 1925 3103 
Q 1469 3103 1208 2742 
Q 947 2381 947 1747 
z
" transform="scale(0.015625)"/>
       <path id="DejaVuSans-69" d="M 603 3500 
L 1178 3500 
L 1178 0 
L 603 0 
L 603 3500 
z
M 603 4863 
L 1178 4863 
L 1178 4134 
L 603 4134 
L 603 4863 
z
" transform="scale(0.015625)"/>
       <path id="DejaVuSans-61" d="M 2194 1759 
Q 1497 1759 1228 1600 
Q 959 1441 959 1056 
Q 959 750 1161 570 
Q 1363 391 1709 391 
Q 2188 391 2477 730 
Q 2766 1069 2766 1631 
L 2766 1759 
L 2194 1759 
z
M 3341 1997 
L 3341 0 
L 2766 0 
L 2766 531 
Q 2569 213 2275 61 
Q 1981 -91 1556 -91 
Q 1019 -91 701 211 
Q 384 513 384 1019 
Q 384 1609 779 1909 
Q 1175 2209 1959 2209 
L 2766 2209 
L 2766 2266 
Q 2766 2663 2505 2880 
Q 2244 3097 1772 3097 
Q 1472 3097 1187 3025 
Q 903 2953 641 2809 
L 641 3341 
Q 956 3463 1253 3523 
Q 1550 3584 1831 3584 
Q 2591 3584 2966 3190 
Q 3341 2797 3341 1997 
z
" transform="scale(0.015625)"/>
       <path id="DejaVuSans-6e" d="M 3513 2113 
L 3513 0 
L 2938 0 
L 2938 2094 
Q 2938 2591 2744 2837 
Q 2550 3084 2163 3084 
Q 1697 3084 1428 2787 
Q 1159 2491 1159 1978 
L 1159 0 
L 581 0 
L 581 3500 
L 1159 3500 
L 1159 2956 
Q 1366 3272 1645 3428 
Q 1925 3584 2291 3584 
Q 2894 3584 3203 3211 
Q 3513 2838 3513 2113 
z
" transform="scale(0.015625)"/>
       <path id="DejaVuSans-63" d="M 3122 3366 
L 3122 2828 
Q 2878 2963 2633 3030 
Q 2388 3097 2138 3097 
Q 1578 3097 1268 2742 
Q 959 2388 959 1747 
Q 959 1106 1268 751 
Q 1578 397 2138 397 
Q 2388 397 2633 464 
Q 2878 531 3122 666 
L 3122 134 
Q 2881 22 2623 -34 
Q 2366 -91 2075 -91 
Q 1284 -91 818 406 
Q 353 903 353 1747 
Q 353 2603 823 3093 
Q 1294 3584 2113 3584 
Q 2378 3584 2631 3529 
Q 2884 3475 3122 3366 
z
" transform="scale(0.015625)"/>
       <path id="DejaVuSans-72" d="M 2631 2963 
Q 2534 3019 2420 3045 
Q 2306 3072 2169 3072 
Q 1681 3072 1420 2755 
Q 1159 2438 1159 1844 
L 1159 0 
L 581 0 
L 581 3500 
L 1159 3500 
L 1159 2956 
Q 1341 3275 1631 3429 
Q 1922 3584 2338 3584 
Q 2397 3584 2469 3576 
Q 2541 3569 2628 3553 
L 2631 2963 
z
" transform="scale(0.015625)"/>
       <path id="DejaVuSans-28" d="M 1984 4856 
Q 1566 4138 1362 3434 
Q 1159 2731 1159 2009 
Q 1159 1288 1364 580 
Q 1569 -128 1984 -844 
L 1484 -844 
Q 1016 -109 783 600 
Q 550 1309 550 2009 
Q 550 2706 781 3412 
Q 1013 4119 1484 4856 
L 1984 4856 
z
" transform="scale(0.015625)"/>
       <path id="DejaVuSans-6d" d="M 3328 2828 
Q 3544 3216 3844 3400 
Q 4144 3584 4550 3584 
Q 5097 3584 5394 3201 
Q 5691 2819 5691 2113 
L 5691 0 
L 5113 0 
L 5113 2094 
Q 5113 2597 4934 2840 
Q 4756 3084 4391 3084 
Q 3944 3084 3684 2787 
Q 3425 2491 3425 1978 
L 3425 0 
L 2847 0 
L 2847 2094 
Q 2847 2600 2669 2842 
Q 2491 3084 2119 3084 
Q 1678 3084 1418 2786 
Q 1159 2488 1159 1978 
L 1159 0 
L 581 0 
L 581 3500 
L 1159 3500 
L 1159 2956 
Q 1356 3278 1631 3431 
Q 1906 3584 2284 3584 
Q 2666 3584 2933 3390 
Q 3200 3197 3328 2828 
z
" transform="scale(0.015625)"/>
       <path id="DejaVuSans-29" d="M 513 4856 
L 1013 4856 
Q 1481 4119 1714 3412 
Q 1947 2706 1947 2009 
Q 1947 1309 1714 600 
Q 1481 -109 1013 -844 
L 513 -844 
Q 928 -128 1133 580 
Q 1338 1288 1338 2009 
Q 1338 2731 1133 3434 
Q 928 4138 513 4856 
z
" transform="scale(0.015625)"/>
      </defs>
      <use xlink:href="#DejaVuSans-41"/>
      <use xlink:href="#DejaVuSans-62" x="68.408203"/>
      <use xlink:href="#DejaVuSans-73" x="131.884766"/>
      <use xlink:href="#DejaVuSans-6f" x="183.984375"/>
      <use xlink:href="#DejaVuSans-6c" x="245.166016"/>
      <use xlink:href="#DejaVuSans-75" x="272.949219"/>
      <use xlink:href="#DejaVuSans-74" x="336.328125"/>
      <use xlink:href="#DejaVuSans-65" x="375.537109"/>
      <use xlink:href="#DejaVuSans-20" x="437.060547"/>
      <use xlink:href="#DejaVuSans-64" x="468.847656"/>
      <use xlink:href="#DejaVuSans-69" x="532.324219"/>
      <use xlink:href="#DejaVuSans-73" x="560.107422"/>
      <use xlink:href="#DejaVuSans-74" x="612.207031"/>
      <use xlink:href="#DejaVuSans-61" x="651.416016"/>
      <use xlink:href="#DejaVuSans-6e" x="712.695312"/>
      <use xlink:href="#DejaVuSans-63" x="776.074219"/>
      <use xlink:href="#DejaVuSans-65" x="831.054688"/>
      <use xlink:href="#DejaVuSans-20" x="892.578125"/>
      <use xlink:href="#DejaVuSans-65" x="924.365234"/>
      <use xlink:href="#DejaVuSans-72" x="985.888672"/>
      <use xlink:href="#DejaVuSans-72" x="1025.251953"/>
      <use xlink:href="#DejaVuSans-6f" x="1064.115234"/>
      <use xlink:href="#DejaVuSans-72" x="1125.296875"/>
      <use xlink:href="#DejaVuSans-20" x="1166.410156"/>
      <use xlink:href="#DejaVuSans-28" x="1198.197266"/>
      <use xlink:href="#DejaVuSans-6d" x="1237.210938"/>
      <use xlink:href="#DejaVuSans-29" x="1334.623047"/>
     </g>
    </g>
   </g>
   <g id="matplotlib.axis_2">
    <g id="ytick_1">
     <g id="line2d_8">
      <defs>
       <path id="m144a853fdf" d="M 0 0 
L -3.5 0 
" style="stroke: #000000; stroke-width: 0.8"/>
      </defs>
      <g>
       <use xlink:href="#m144a853fdf" x="57.6" y="295.488" style="stroke: #000000; stroke-width: 0.8"/>
      </g>
     </g>
     <g id="text_9">
      <!-- 0.0 -->
      <g transform="translate(34.696875 299.287219) scale(0.1 -0.1)">
       <use xlink:href="#DejaVuSans-30"/>
       <use xlink:href="#DejaVuSans-2e" x="63.623047"/>
       <use xlink:href="#DejaVuSans-30" x="95.410156"/>
      </g>
     </g>
    </g>
    <g id="ytick_2">
     <g id="line2d_9">
      <g>
       <use xlink:href="#m144a853fdf" x="57.6" y="247.104" style="stroke: #000000; stroke-width: 0.8"/>
      </g>
     </g>
     <g id="text_10">
      <!-- 0.2 -->
      <g transform="translate(34.696875 250.903219) scale(0.1 -0.1)">
       <use xlink:href="#DejaVuSans-30"/>
       <use xlink:href="#DejaVuSans-2e" x="63.623047"/>
       <use xlink:href="#DejaVuSans-32" x="95.410156"/>
      </g>
     </g>
    </g>
    <g id="ytick_3">
     <g id="line2d_10">
      <g>
       <use xlink:href="#m144a853fdf" x="57.6" y="198.72" style="stroke: #000000; stroke-width: 0.8"/>
      </g>
     </g>
     <g id="text_11">
      <!-- 0.4 -->
      <g transform="translate(34.696875 202.519219) scale(0.1 -0.1)">
       <use xlink:href="#DejaVuSans-30"/>
       <use xlink:href="#DejaVuSans-2e" x="63.623047"/>
       <use xlink:href="#DejaVuSans-34" x="95.410156"/>
      </g>
     </g>
    </g>
    <g id="ytick_4">
     <g id="line2d_11">
      <g>
       <use xlink:href="#m144a853fdf" x="57.6" y="150.336" style="stroke: #000000; stroke-width: 0.8"/>
      </g>
     </g>
     <g id="text_12">
      <!-- 0.6 -->
      <g transform="translate(34.696875 154.135219) scale(0.1 -0.1)">
       <use xlink:href="#DejaVuSans-30"/>
       <use xlink:href="#DejaVuSans-2e" x="63.623047"/>
       <use xlink:href="#DejaVuSans-36" x="95.410156"/>
      </g>
     </g>
    </g>
    <g id="ytick_5">
     <g id="line2d_12">
      <g>
       <use xlink:href="#m144a853fdf" x="57.6" y="101.952" style="stroke: #000000; stroke-width: 0.8"/>
      </g>
     </g>
     <g id="text_13">
      <!-- 0.8 -->
      <g transform="translate(34.696875 105.751219) scale(0.1 -0.1)">
       <defs>
        <path id="DejaVuSans-38" d="M 2034 2216 
Q 1584 2216 1326 1975 
Q 1069 1734 1069 1313 
Q 1069 891 1326 650 
Q 1584 409 2034 409 
Q 2484 409 2743 651 
Q 3003 894 3003 1313 
Q 3003 1734 2745 1975 
Q 2488 2216 2034 2216 
z
M 1403 2484 
Q 997 2584 770 2862 
Q 544 3141 544 3541 
Q 544 4100 942 4425 
Q 1341 4750 2034 4750 
Q 2731 4750 3128 4425 
Q 3525 4100 3525 3541 
Q 3525 3141 3298 2862 
Q 3072 2584 2669 2484 
Q 3125 2378 3379 2068 
Q 3634 1759 3634 1313 
Q 3634 634 3220 271 
Q 2806 -91 2034 -91 
Q 1263 -91 848 271 
Q 434 634 434 1313 
Q 434 1759 690 2068 
Q 947 2378 1403 2484 
z
M 1172 3481 
Q 1172 3119 1398 2916 
Q 1625 2713 2034 2713 
Q 2441 2713 2670 2916 
Q 2900 3119 2900 3481 
Q 2900 3844 2670 4047 
Q 2441 4250 2034 4250 
Q 1625 4250 1398 4047 
Q 1172 3844 1172 3481 
z
" transform="scale(0.015625)"/>
       </defs>
       <use xlink:href="#DejaVuSans-30"/>
       <use xlink:href="#DejaVuSans-2e" x="63.623047"/>
       <use xlink:href="#DejaVuSans-38" x="95.410156"/>
      </g>
     </g>
    </g>
    <g id="ytick_6">
     <g id="line2d_13">
      <g>
       <use xlink:href="#m144a853fdf" x="57.6" y="53.568" style="stroke: #000000; stroke-width: 0.8"/>
      </g>
     </g>
     <g id="text_14">
      <!-- 1.0 -->
      <g transform="translate(34.696875 57.367219) scale(0.1 -0.1)">
       <use xlink:href="#DejaVuSans-31"/>
       <use xlink:href="#DejaVuSans-2e" x="63.623047"/>
       <use xlink:href="#DejaVuSans-30" x="95.410156"/>
      </g>
     </g>
    </g>
    <g id="text_15">
     <!-- Frequency -->
     <g transform="translate(28.617187 200.357687) rotate(-90) scale(0.1 -0.1)">
      <defs>
       <path id="DejaVuSans-46" d="M 628 4666 
L 3309 4666 
L 3309 4134 
L 1259 4134 
L 1259 2759 
L 3109 2759 
L 3109 2228 
L 1259 2228 
L 1259 0 
L 628 0 
L 628 4666 
z
" transform="scale(0.015625)"/>
       <path id="DejaVuSans-71" d="M 947 1747 
Q 947 1113 1208 752 
Q 1469 391 1925 391 
Q 2381 391 2643 752 
Q 2906 1113 2906 1747 
Q 2906 2381 2643 2742 
Q 2381 3103 1925 3103 
Q 1469 3103 1208 2742 
Q 947 2381 947 1747 
z
M 2906 525 
Q 2725 213 2448 61 
Q 2172 -91 1784 -91 
Q 1150 -91 751 415 
Q 353 922 353 1747 
Q 353 2572 751 3078 
Q 1150 3584 1784 3584 
Q 2172 3584 2448 3432 
Q 2725 3281 2906 2969 
L 2906 3500 
L 3481 3500 
L 3481 -1331 
L 2906 -1331 
L 2906 525 
z
" transform="scale(0.015625)"/>
       <path id="DejaVuSans-79" d="M 2059 -325 
Q 1816 -950 1584 -1140 
Q 1353 -1331 966 -1331 
L 506 -1331 
L 506 -850 
L 844 -850 
Q 1081 -850 1212 -737 
Q 1344 -625 1503 -206 
L 1606 56 
L 191 3500 
L 800 3500 
L 1894 763 
L 2988 3500 
L 3597 3500 
L 2059 -325 
z
" transform="scale(0.015625)"/>
      </defs>
      <use xlink:href="#DejaVuSans-46"/>
      <use xlink:href="#DejaVuSans-72" x="50.269531"/>
      <use xlink:href="#DejaVuSans-65" x="89.132812"/>
      <use xlink:href="#DejaVuSans-71" x="150.65625"/>
      <use xlink:href="#DejaVuSans-75" x="214.132812"/>
      <use xlink:href="#DejaVuSans-65" x="277.511719"/>
      <use xlink:href="#DejaVuSans-6e" x="339.035156"/>
      <use xlink:href="#DejaVuSans-63" x="402.414062"/>
      <use xlink:href="#DejaVuSans-79" x="457.394531"/>
     </g>
    </g>
   </g>
   <g id="line2d_14">
    <path d="M 73.832727 295.458469 
L 75.460068 295.307121 
L 77.087409 294.904758 
L 78.714751 294.258762 
L 80.342092 293.354367 
L 81.969433 292.069758 
L 83.596774 290.379094 
L 86.037785 287.005148 
L 86.851456 285.779602 
L 90.106138 279.858586 
L 92.54715 276.373898 
L 96.615502 272.627121 
L 98.242843 271.301906 
L 99.870185 270.124348 
L 106.379549 264.98591 
L 109.634231 262.453605 
L 112.075243 260.290441 
L 116.957266 256.292648 
L 119.398278 254.269758 
L 127.534983 247.691672 
L 142.181053 235.724133 
L 147.876746 231.578684 
L 150.317758 229.83634 
L 154.386111 227.355715 
L 156.827122 226.08218 
L 160.081805 224.520715 
L 161.709146 223.882102 
L 164.150157 222.929719 
L 171.473192 220.375266 
L 174.727874 219.164484 
L 176.355215 218.596008 
L 179.609897 217.167434 
L 184.491921 214.945207 
L 186.932932 213.789797 
L 187.746603 213.361594 
L 188.560273 212.785734 
L 195.069638 209.260441 
L 204.833684 202.767258 
L 206.461025 201.541711 
L 209.715707 199.17552 
L 212.156719 197.171086 
L 214.597731 195.284777 
L 217.038742 193.272961 
L 218.666083 192.095402 
L 222.734436 188.758371 
L 228.43013 183.708527 
L 230.057471 182.102766 
L 234.939494 177.813352 
L 235.753165 176.923723 
L 237.380506 175.495148 
L 239.007847 173.848781 
L 245.517211 167.027063 
L 251.212905 160.810734 
L 260.976951 149.946926 
L 265.045304 145.015207 
L 270.740998 138.66968 
L 273.18201 136.089387 
L 278.064033 130.751613 
L 279.691374 129.053566 
L 281.318715 127.333371 
L 284.573397 123.948352 
L 286.200738 122.338898 
L 288.64175 119.861965 
L 291.896432 116.742727 
L 293.523773 115.159113 
L 296.778455 112.228137 
L 303.28782 106.070871 
L 309.797184 100.784777 
L 313.865537 97.868566 
L 322.815913 91.253566 
L 324.443254 90.279035 
L 337.461982 80.677688 
L 339.902994 78.946418 
L 342.344005 77.152395 
L 347.226029 73.96302 
L 353.735393 69.71052 
L 357.803746 67.19298 
L 359.431087 66.29966 
L 361.872098 64.771418 
L 365.940451 62.530734 
L 375.704498 57.84634 
L 382.213862 55.50968 
L 387.095885 54.465012 
L 391.977908 53.815324 
L 394.41892 53.656594 
L 398.487273 53.568 
L 398.487273 53.568 
" clip-path="url(#p42bbf1a97e)" style="fill: none; stroke: #1f77b4; stroke-width: 1.5; stroke-linecap: square"/>
   </g>
   <g id="patch_3">
    <path d="M 57.6 307.584 
L 57.6 41.472 
" style="fill: none; stroke: #000000; stroke-width: 0.8; stroke-linejoin: miter; stroke-linecap: square"/>
   </g>
   <g id="patch_4">
    <path d="M 414.72 307.584 
L 414.72 41.472 
" style="fill: none; stroke: #000000; stroke-width: 0.8; stroke-linejoin: miter; stroke-linecap: square"/>
   </g>
   <g id="patch_5">
    <path d="M 57.6 307.584 
L 414.72 307.584 
" style="fill: none; stroke: #000000; stroke-width: 0.8; stroke-linejoin: miter; stroke-linecap: square"/>
   </g>
   <g id="patch_6">
    <path d="M 57.6 41.472 
L 414.72 41.472 
" style="fill: none; stroke: #000000; stroke-width: 0.8; stroke-linejoin: miter; stroke-linecap: square"/>
   </g>
   <g id="text_16">
    <!-- CDF of forward tree absolute error distribution -->
    <g transform="translate(97.092187 35.472) scale(0.12 -0.12)">
     <defs>
      <path id="DejaVuSans-43" d="M 4122 4306 
L 4122 3641 
Q 3803 3938 3442 4084 
Q 3081 4231 2675 4231 
Q 1875 4231 1450 3742 
Q 1025 3253 1025 2328 
Q 1025 1406 1450 917 
Q 1875 428 2675 428 
Q 3081 428 3442 575 
Q 3803 722 4122 1019 
L 4122 359 
Q 3791 134 3420 21 
Q 3050 -91 2638 -91 
Q 1578 -91 968 557 
Q 359 1206 359 2328 
Q 359 3453 968 4101 
Q 1578 4750 2638 4750 
Q 3056 4750 3426 4639 
Q 3797 4528 4122 4306 
z
" transform="scale(0.015625)"/>
      <path id="DejaVuSans-44" d="M 1259 4147 
L 1259 519 
L 2022 519 
Q 2988 519 3436 956 
Q 3884 1394 3884 2338 
Q 3884 3275 3436 3711 
Q 2988 4147 2022 4147 
L 1259 4147 
z
M 628 4666 
L 1925 4666 
Q 3281 4666 3915 4102 
Q 4550 3538 4550 2338 
Q 4550 1131 3912 565 
Q 3275 0 1925 0 
L 628 0 
L 628 4666 
z
" transform="scale(0.015625)"/>
      <path id="DejaVuSans-66" d="M 2375 4863 
L 2375 4384 
L 1825 4384 
Q 1516 4384 1395 4259 
Q 1275 4134 1275 3809 
L 1275 3500 
L 2222 3500 
L 2222 3053 
L 1275 3053 
L 1275 0 
L 697 0 
L 697 3053 
L 147 3053 
L 147 3500 
L 697 3500 
L 697 3744 
Q 697 4328 969 4595 
Q 1241 4863 1831 4863 
L 2375 4863 
z
" transform="scale(0.015625)"/>
      <path id="DejaVuSans-77" d="M 269 3500 
L 844 3500 
L 1563 769 
L 2278 3500 
L 2956 3500 
L 3675 769 
L 4391 3500 
L 4966 3500 
L 4050 0 
L 3372 0 
L 2619 2869 
L 1863 0 
L 1184 0 
L 269 3500 
z
" transform="scale(0.015625)"/>
     </defs>
     <use xlink:href="#DejaVuSans-43"/>
     <use xlink:href="#DejaVuSans-44" x="69.824219"/>
     <use xlink:href="#DejaVuSans-46" x="146.826172"/>
     <use xlink:href="#DejaVuSans-20" x="204.345703"/>
     <use xlink:href="#DejaVuSans-6f" x="236.132812"/>
     <use xlink:href="#DejaVuSans-66" x="297.314453"/>
     <use xlink:href="#DejaVuSans-20" x="332.519531"/>
     <use xlink:href="#DejaVuSans-66" x="364.306641"/>
     <use xlink:href="#DejaVuSans-6f" x="399.511719"/>
     <use xlink:href="#DejaVuSans-72" x="460.693359"/>
     <use xlink:href="#DejaVuSans-77" x="501.806641"/>
     <use xlink:href="#DejaVuSans-61" x="583.59375"/>
     <use xlink:href="#DejaVuSans-72" x="644.873047"/>
     <use xlink:href="#DejaVuSans-64" x="684.236328"/>
     <use xlink:href="#DejaVuSans-20" x="747.712891"/>
     <use xlink:href="#DejaVuSans-74" x="779.5"/>
     <use xlink:href="#DejaVuSans-72" x="818.708984"/>
     <use xlink:href="#DejaVuSans-65" x="857.572266"/>
     <use xlink:href="#DejaVuSans-65" x="919.095703"/>
     <use xlink:href="#DejaVuSans-20" x="980.619141"/>
     <use xlink:href="#DejaVuSans-61" x="1012.40625"/>
     <use xlink:href="#DejaVuSans-62" x="1073.685547"/>
     <use xlink:href="#DejaVuSans-73" x="1137.162109"/>
     <use xlink:href="#DejaVuSans-6f" x="1189.261719"/>
     <use xlink:href="#DejaVuSans-6c" x="1250.443359"/>
     <use xlink:href="#DejaVuSans-75" x="1278.226562"/>
     <use xlink:href="#DejaVuSans-74" x="1341.605469"/>
     <use xlink:href="#DejaVuSans-65" x="1380.814453"/>
     <use xlink:href="#DejaVuSans-20" x="1442.337891"/>
     <use xlink:href="#DejaVuSans-65" x="1474.125"/>
     <use xlink:href="#DejaVuSans-72" x="1535.648438"/>
     <use xlink:href="#DejaVuSans-72" x="1575.011719"/>
     <use xlink:href="#DejaVuSans-6f" x="1613.875"/>
     <use xlink:href="#DejaVuSans-72" x="1675.056641"/>
     <use xlink:href="#DejaVuSans-20" x="1716.169922"/>
     <use xlink:href="#DejaVuSans-64" x="1747.957031"/>
     <use xlink:href="#DejaVuSans-69" x="1811.433594"/>
     <use xlink:href="#DejaVuSans-73" x="1839.216797"/>
     <use xlink:href="#DejaVuSans-74" x="1891.316406"/>
     <use xlink:href="#DejaVuSans-72" x="1930.525391"/>
     <use xlink:href="#DejaVuSans-69" x="1971.638672"/>
     <use xlink:href="#DejaVuSans-62" x="1999.421875"/>
     <use xlink:href="#DejaVuSans-75" x="2062.898438"/>
     <use xlink:href="#DejaVuSans-74" x="2126.277344"/>
     <use xlink:href="#DejaVuSans-69" x="2165.486328"/>
     <use xlink:href="#DejaVuSans-6f" x="2193.269531"/>
     <use xlink:href="#DejaVuSans-6e" x="2254.451172"/>
    </g>
   </g>
  </g>
 </g>
 <defs>
  <clipPath id="p42bbf1a97e">
   <rect x="57.6" y="41.472" width="357.12" height="266.112"/>
  </clipPath>
 </defs>
</svg>
