<?xml version="1.0" encoding="utf-8" standalone="no"?>
<!DOCTYPE svg PUBLIC "-//W3C//DTD SVG 1.1//EN"
  "http://www.w3.org/Graphics/SVG/1.1/DTD/svg11.dtd">
<svg xmlns:xlink="http://www.w3.org/1999/xlink" width="460.8pt" height="345.6pt" viewBox="0 0 460.8 345.6" xmlns="http://www.w3.org/2000/svg" version="1.1">
 <metadata>
  <rdf:RDF xmlns:dc="http://purl.org/dc/elements/1.1/" xmlns:cc="http://creativecommons.org/ns#" xmlns:rdf="http://www.w3.org/1999/02/22-rdf-syntax-ns#">
   <cc:Work>
    <dc:type rdf:resource="http://purl.org/dc/dcmitype/StillImage"/>
    <dc:date>2024-02-21T12:46:42.228465</dc:date>
    <dc:format>image/svg+xml</dc:format>
    <dc:creator>
     <cc:Agent>
      <dc:title>Matplotlib v3.6.3, https://matplotlib.org/</dc:title>
     </cc:Agent>
    </dc:creator>
   </cc:Work>
  </rdf:RDF>
 </metadata>
 <defs>
  <style type="text/css">*{stroke-linejoin: round; stroke-linecap: butt}</style>
 </defs>
 <g id="figure_1">
  <g id="patch_1">
   <path d="M 0 345.6 
L 460.8 345.6 
L 460.8 0 
L 0 0 
z
" style="fill: #ffffff"/>
  </g>
  <g id="axes_1">
   <g id="patch_2">
    <path d="M 57.6 307.584 
L 414.72 307.584 
L 414.72 41.472 
L 57.6 41.472 
z
" style="fill: #ffffff"/>
   </g>
   <g id="PolyCollection_1">
    <path d="M 73.832727 295.488 
L 73.832727 265.816477 
L 73.832727 257.817199 
L 74.646398 257.817199 
L 74.646398 251.855578 
L 75.460068 251.855578 
L 75.460068 246.617473 
L 76.273739 246.617473 
L 76.273739 241.785422 
L 77.087409 241.785422 
L 77.087409 237.322512 
L 77.90108 237.322512 
L 77.90108 233.361633 
L 78.714751 233.361633 
L 78.714751 229.688684 
L 79.528421 229.688684 
L 79.528421 226.226145 
L 80.342092 226.226145 
L 80.342092 222.95925 
L 81.155762 222.95925 
L 81.155762 219.799406 
L 81.969433 219.799406 
L 81.969433 216.598957 
L 82.783103 216.598957 
L 82.783103 213.53509 
L 83.596774 213.53509 
L 83.596774 210.408469 
L 84.410444 210.408469 
L 84.410444 207.326145 
L 85.224115 207.326145 
L 85.224115 204.53175 
L 86.037785 204.53175 
L 86.037785 202.073273 
L 86.851456 202.073273 
L 86.851456 199.614797 
L 87.665126 199.614797 
L 87.665126 197.289211 
L 88.478797 197.289211 
L 88.478797 194.889797 
L 89.292468 194.889797 
L 89.292468 192.505148 
L 90.106138 192.505148 
L 90.106138 190.345676 
L 90.919809 190.345676 
L 90.919809 188.234191 
L 91.733479 188.234191 
L 91.733479 186.281438 
L 92.54715 186.281438 
L 92.54715 184.302844 
L 93.36082 184.302844 
L 93.36082 182.254113 
L 94.174491 182.254113 
L 94.174491 180.24968 
L 94.988161 180.24968 
L 94.988161 178.296926 
L 95.801832 178.296926 
L 95.801832 176.506594 
L 96.615502 176.506594 
L 96.615502 174.590754 
L 97.429173 174.590754 
L 97.429173 172.981301 
L 98.242843 172.981301 
L 98.242843 171.264797 
L 99.056514 171.264797 
L 99.056514 169.230832 
L 99.870185 169.230832 
L 99.870185 167.263313 
L 100.683855 167.263313 
L 100.683855 165.218273 
L 101.497526 165.218273 
L 101.497526 163.235988 
L 102.311196 163.235988 
L 102.311196 161.368137 
L 103.124867 161.368137 
L 103.124867 159.655324 
L 103.938537 159.655324 
L 103.938537 157.931438 
L 104.752208 157.931438 
L 104.752208 156.325676 
L 105.565878 156.325676 
L 105.565878 154.649777 
L 106.379549 154.649777 
L 106.379549 153.084621 
L 107.193219 153.084621 
L 107.193219 151.626516 
L 108.00689 151.626516 
L 108.00689 150.253313 
L 108.82056 150.253313 
L 108.82056 148.920715 
L 109.634231 148.920715 
L 109.634231 147.521672 
L 110.447902 147.521672 
L 110.447902 146.034035 
L 111.261572 146.034035 
L 111.261572 144.668215 
L 112.075243 144.668215 
L 112.075243 143.335617 
L 112.888913 143.335617 
L 112.888913 141.918117 
L 113.702584 141.918117 
L 113.702584 140.618742 
L 114.516254 140.618742 
L 114.516254 139.271379 
L 115.329925 139.271379 
L 115.329925 137.931398 
L 116.143595 137.931398 
L 116.143595 136.584035 
L 116.957266 136.584035 
L 116.957266 135.317883 
L 117.770936 135.317883 
L 117.770936 134.066496 
L 118.584607 134.066496 
L 118.584607 132.71175 
L 119.398278 132.71175 
L 119.398278 131.353313 
L 120.211948 131.353313 
L 120.211948 130.046555 
L 121.025619 130.046555 
L 121.025619 128.710266 
L 121.839289 128.710266 
L 121.839289 127.399816 
L 122.65296 127.399816 
L 122.65296 126.207492 
L 123.46663 126.207492 
L 123.46663 125.096379 
L 124.280301 125.096379 
L 124.280301 123.99634 
L 125.093971 123.99634 
L 125.093971 122.826164 
L 125.907642 122.826164 
L 125.907642 121.744582 
L 126.721312 121.744582 
L 126.721312 120.68884 
L 127.534983 120.68884 
L 127.534983 119.758605 
L 128.348653 119.758605 
L 128.348653 118.743469 
L 129.162324 118.743469 
L 129.162324 117.816926 
L 129.975995 117.816926 
L 129.975995 116.868234 
L 130.789665 116.868234 
L 130.789665 115.985988 
L 131.603336 115.985988 
L 131.603336 115.07052 
L 132.417006 115.07052 
L 132.417006 114.191965 
L 133.230677 114.191965 
L 133.230677 113.431535 
L 134.044347 113.431535 
L 134.044347 112.637883 
L 134.858018 112.637883 
L 134.858018 111.92175 
L 135.671688 111.92175 
L 135.671688 111.094875 
L 136.485359 111.094875 
L 136.485359 110.249543 
L 137.299029 110.249543 
L 137.299029 109.393137 
L 138.1127 109.393137 
L 138.1127 108.584719 
L 138.92637 108.584719 
L 138.92637 107.824289 
L 139.740041 107.824289 
L 139.740041 107.174602 
L 140.553712 107.174602 
L 140.553712 106.521223 
L 141.367382 106.521223 
L 141.367382 105.790324 
L 142.181053 105.790324 
L 142.181053 105.092648 
L 142.994723 105.092648 
L 142.994723 104.420813 
L 143.808394 104.420813 
L 143.808394 103.693605 
L 144.622064 103.693605 
L 144.622064 103.014387 
L 145.435735 103.014387 
L 145.435735 102.401613 
L 146.249405 102.401613 
L 146.249405 101.829445 
L 147.063076 101.829445 
L 147.063076 101.209289 
L 147.876746 101.209289 
L 147.876746 100.677727 
L 148.690417 100.677727 
L 148.690417 100.087102 
L 149.504087 100.087102 
L 149.504087 99.518625 
L 150.317758 99.518625 
L 150.317758 98.97968 
L 151.131429 98.97968 
L 151.131429 98.418586 
L 151.945099 98.418586 
L 151.945099 97.861184 
L 152.75877 97.861184 
L 152.75877 97.348078 
L 153.57244 97.348078 
L 153.57244 96.786984 
L 154.386111 96.786984 
L 154.386111 96.248039 
L 155.199781 96.248039 
L 155.199781 95.782922 
L 156.013452 95.782922 
L 156.013452 95.251359 
L 156.827122 95.251359 
L 156.827122 94.775168 
L 157.640793 94.775168 
L 157.640793 94.236223 
L 158.454463 94.236223 
L 158.454463 93.741574 
L 159.268134 93.741574 
L 159.268134 93.198938 
L 160.081805 93.198938 
L 160.081805 92.767043 
L 160.895475 92.767043 
L 160.895475 92.298234 
L 161.709146 92.298234 
L 161.709146 91.722375 
L 162.522816 91.722375 
L 162.522816 91.264641 
L 163.336487 91.264641 
L 163.336487 90.821672 
L 164.150157 90.821672 
L 164.150157 90.386086 
L 164.963828 90.386086 
L 164.963828 89.935734 
L 165.777498 89.935734 
L 165.777498 89.489074 
L 166.591169 89.489074 
L 166.591169 89.105168 
L 167.404839 89.105168 
L 167.404839 88.699113 
L 168.21851 88.699113 
L 168.21851 88.226613 
L 169.03218 88.226613 
L 169.03218 87.805793 
L 169.845851 87.805793 
L 169.845851 87.30007 
L 170.659522 87.30007 
L 170.659522 87.001066 
L 171.473192 87.001066 
L 171.473192 86.528566 
L 172.286863 86.528566 
L 172.286863 86.19634 
L 173.100533 86.19634 
L 173.100533 85.808742 
L 173.914204 85.808742 
L 173.914204 85.332551 
L 174.727874 85.332551 
L 174.727874 84.967102 
L 175.541545 84.967102 
L 175.541545 84.623801 
L 176.355215 84.623801 
L 176.355215 84.258352 
L 177.168886 84.258352 
L 177.168886 83.926125 
L 177.982556 83.926125 
L 177.982556 83.62343 
L 178.796227 83.62343 
L 178.796227 83.331809 
L 179.609897 83.331809 
L 179.609897 83.043879 
L 180.423568 83.043879 
L 180.423568 82.693195 
L 181.237239 82.693195 
L 181.237239 82.331438 
L 182.050909 82.331438 
L 182.050909 82.050891 
L 182.86458 82.050891 
L 182.86458 81.744504 
L 183.67825 81.744504 
L 183.67825 81.390129 
L 184.491921 81.390129 
L 184.491921 81.054211 
L 185.305591 81.054211 
L 185.305591 80.692453 
L 186.119262 80.692453 
L 186.119262 80.367609 
L 186.932932 80.367609 
L 186.932932 79.983703 
L 187.746603 79.983703 
L 187.746603 79.666242 
L 188.560273 79.666242 
L 188.560273 79.348781 
L 189.373944 79.348781 
L 189.373944 79.009172 
L 190.187614 79.009172 
L 190.187614 78.665871 
L 191.001285 78.665871 
L 191.001285 78.311496 
L 191.814956 78.311496 
L 191.814956 77.986652 
L 192.628626 77.986652 
L 192.628626 77.695031 
L 193.442297 77.695031 
L 193.442297 77.407102 
L 194.255967 77.407102 
L 194.255967 77.089641 
L 195.069638 77.089641 
L 195.069638 76.731574 
L 195.883308 76.731574 
L 195.883308 76.513781 
L 196.696979 76.513781 
L 196.696979 76.281223 
L 197.510649 76.281223 
L 197.510649 75.993293 
L 198.32432 75.993293 
L 198.32432 75.782883 
L 199.13799 75.782883 
L 199.13799 75.531867 
L 199.951661 75.531867 
L 199.951661 75.273469 
L 200.765332 75.273469 
L 200.765332 75.018762 
L 201.579002 75.018762 
L 201.579002 74.800969 
L 202.392673 74.800969 
L 202.392673 74.561027 
L 203.206343 74.561027 
L 203.206343 74.354309 
L 204.020014 74.354309 
L 204.020014 74.140207 
L 204.833684 74.140207 
L 204.833684 73.922414 
L 205.647355 73.922414 
L 205.647355 73.70093 
L 206.461025 73.70093 
L 206.461025 73.460988 
L 207.274696 73.460988 
L 207.274696 73.257961 
L 208.088366 73.257961 
L 208.088366 73.040168 
L 208.902037 73.040168 
L 208.902037 72.840832 
L 209.715707 72.840832 
L 209.715707 72.619348 
L 210.529378 72.619348 
L 210.529378 72.372023 
L 211.343049 72.372023 
L 211.343049 72.124699 
L 212.156719 72.124699 
L 212.156719 71.91798 
L 212.97039 71.91798 
L 212.97039 71.73341 
L 213.78406 71.73341 
L 213.78406 71.504543 
L 214.597731 71.504543 
L 214.597731 71.316281 
L 215.411401 71.316281 
L 215.411401 71.068957 
L 216.225072 71.068957 
L 216.225072 70.89177 
L 217.038742 70.89177 
L 217.038742 70.670285 
L 217.852413 70.670285 
L 217.852413 70.50048 
L 218.666083 70.50048 
L 218.666083 70.256848 
L 219.479754 70.256848 
L 219.479754 70.016906 
L 220.293424 70.016906 
L 220.293424 69.86925 
L 221.107095 69.86925 
L 221.107095 69.699445 
L 221.920766 69.699445 
L 221.920766 69.55548 
L 222.734436 69.55548 
L 222.734436 69.378293 
L 223.548107 69.378293 
L 223.548107 69.234328 
L 224.361777 69.234328 
L 224.361777 69.097746 
L 225.175448 69.097746 
L 225.175448 68.87257 
L 225.989118 68.87257 
L 225.989118 68.665852 
L 226.802789 68.665852 
L 226.802789 68.514504 
L 227.616459 68.514504 
L 227.616459 68.359465 
L 228.43013 68.359465 
L 228.43013 68.197043 
L 229.2438 68.197043 
L 229.2438 68.075227 
L 230.057471 68.075227 
L 230.057471 67.916496 
L 230.871141 67.916496 
L 230.871141 67.79468 
L 231.684812 67.79468 
L 231.684812 67.632258 
L 232.498483 67.632258 
L 232.498483 67.462453 
L 233.312153 67.462453 
L 233.312153 67.336945 
L 234.125824 67.336945 
L 234.125824 67.196672 
L 234.939494 67.196672 
L 234.939494 67.045324 
L 235.753165 67.045324 
L 235.753165 66.871828 
L 236.566835 66.871828 
L 236.566835 66.738938 
L 237.380506 66.738938 
L 237.380506 66.591281 
L 238.194176 66.591281 
L 238.194176 66.473156 
L 239.007847 66.473156 
L 239.007847 66.340266 
L 239.821517 66.340266 
L 239.821517 66.222141 
L 240.635188 66.222141 
L 240.635188 66.078176 
L 241.448859 66.078176 
L 241.448859 65.967434 
L 242.262529 65.967434 
L 242.262529 65.834543 
L 243.0762 65.834543 
L 243.0762 65.697961 
L 243.88987 65.697961 
L 243.88987 65.561379 
L 244.703541 65.561379 
L 244.703541 65.40634 
L 245.517211 65.40634 
L 245.517211 65.232844 
L 246.330882 65.232844 
L 246.330882 65.133176 
L 247.144552 65.133176 
L 247.144552 65.022434 
L 247.958223 65.022434 
L 247.958223 64.904309 
L 248.771893 64.904309 
L 248.771893 64.793566 
L 249.585564 64.793566 
L 249.585564 64.668059 
L 250.399234 64.668059 
L 250.399234 64.579465 
L 251.212905 64.579465 
L 251.212905 64.476105 
L 252.026576 64.476105 
L 252.026576 64.346906 
L 252.840246 64.346906 
L 252.840246 64.210324 
L 253.653917 64.210324 
L 253.653917 64.114348 
L 254.467587 64.114348 
L 254.467587 63.985148 
L 255.281258 63.985148 
L 255.281258 63.88548 
L 256.094928 63.88548 
L 256.094928 63.789504 
L 256.908599 63.789504 
L 256.908599 63.697219 
L 257.722269 63.697219 
L 257.722269 63.601242 
L 258.53594 63.601242 
L 258.53594 63.501574 
L 259.34961 63.501574 
L 259.34961 63.376066 
L 260.163281 63.376066 
L 260.163281 63.294855 
L 260.976951 63.294855 
L 260.976951 63.187805 
L 261.790622 63.187805 
L 261.790622 63.099211 
L 262.604293 63.099211 
L 262.604293 62.999543 
L 263.417963 62.999543 
L 263.417963 62.866652 
L 264.231634 62.866652 
L 264.231634 62.752219 
L 265.045304 62.752219 
L 265.045304 62.634094 
L 265.858975 62.634094 
L 265.858975 62.527043 
L 266.672645 62.527043 
L 266.672645 62.438449 
L 267.486316 62.438449 
L 267.486316 62.30925 
L 268.299986 62.30925 
L 268.299986 62.183742 
L 269.113657 62.183742 
L 269.113657 62.069309 
L 269.927327 62.069309 
L 269.927327 61.951184 
L 270.740998 61.951184 
L 270.740998 61.873664 
L 271.554668 61.873664 
L 271.554668 61.78507 
L 272.368339 61.78507 
L 272.368339 61.711242 
L 273.18201 61.711242 
L 273.18201 61.6005 
L 273.99568 61.6005 
L 273.99568 61.493449 
L 274.809351 61.493449 
L 274.809351 61.41593 
L 275.623021 61.41593 
L 275.623021 61.28673 
L 276.436692 61.28673 
L 276.436692 61.164914 
L 277.250362 61.164914 
L 277.250362 61.046789 
L 278.064033 61.046789 
L 278.064033 60.936047 
L 278.877703 60.936047 
L 278.877703 60.81423 
L 279.691374 60.81423 
L 279.691374 60.721945 
L 280.505044 60.721945 
L 280.505044 60.589055 
L 281.318715 60.589055 
L 281.318715 60.493078 
L 282.132386 60.493078 
L 282.132386 60.371262 
L 282.946056 60.371262 
L 282.946056 60.245754 
L 283.759727 60.245754 
L 283.759727 60.138703 
L 284.573397 60.138703 
L 284.573397 59.994738 
L 285.387068 59.994738 
L 285.387068 59.847082 
L 286.200738 59.847082 
L 286.200738 59.692043 
L 287.014409 59.692043 
L 287.014409 59.540695 
L 287.828079 59.540695 
L 287.828079 59.411496 
L 288.64175 59.411496 
L 288.64175 59.278605 
L 289.45542 59.278605 
L 289.45542 59.208469 
L 290.269091 59.208469 
L 290.269091 59.119875 
L 291.082761 59.119875 
L 291.082761 59.038664 
L 291.896432 59.038664 
L 291.896432 58.95007 
L 292.710103 58.95007 
L 292.710103 58.839328 
L 293.523773 58.839328 
L 293.523773 58.691672 
L 294.337444 58.691672 
L 294.337444 58.558781 
L 295.151114 58.558781 
L 295.151114 58.448039 
L 295.964785 58.448039 
L 295.964785 58.322531 
L 296.778455 58.322531 
L 296.778455 58.219172 
L 297.592126 58.219172 
L 297.592126 58.126887 
L 298.405796 58.126887 
L 298.405796 58.034602 
L 299.219467 58.034602 
L 299.219467 57.901711 
L 300.033137 57.901711 
L 300.033137 57.798352 
L 300.846808 57.798352 
L 300.846808 57.713449 
L 301.660478 57.713449 
L 301.660478 57.628547 
L 302.474149 57.628547 
L 302.474149 57.50673 
L 303.28782 57.50673 
L 303.28782 57.410754 
L 304.10149 57.410754 
L 304.10149 57.27048 
L 304.915161 57.27048 
L 304.915161 57.167121 
L 305.728831 57.167121 
L 305.728831 57.078527 
L 306.542502 57.078527 
L 306.542502 56.997316 
L 307.356172 56.997316 
L 307.356172 56.8755 
L 308.169843 56.8755 
L 308.169843 56.757375 
L 308.983513 56.757375 
L 308.983513 56.679855 
L 309.797184 56.679855 
L 309.797184 56.572805 
L 310.610854 56.572805 
L 310.610854 56.469445 
L 311.424525 56.469445 
L 311.424525 56.369777 
L 312.238195 56.369777 
L 312.238195 56.288566 
L 313.051866 56.288566 
L 313.051866 56.177824 
L 313.865537 56.177824 
L 313.865537 56.11507 
L 314.679207 56.11507 
L 314.679207 56.026477 
L 315.492878 56.026477 
L 315.492878 55.923117 
L 316.306548 55.923117 
L 316.306548 55.830832 
L 317.120219 55.830832 
L 317.120219 55.74593 
L 317.933889 55.74593 
L 317.933889 55.649953 
L 318.74756 55.649953 
L 318.74756 55.565051 
L 319.56123 55.565051 
L 319.56123 55.50968 
L 320.374901 55.50968 
L 320.374901 55.443234 
L 321.188571 55.443234 
L 321.188571 55.325109 
L 322.002242 55.325109 
L 322.002242 55.243898 
L 322.815913 55.243898 
L 322.815913 55.151613 
L 323.629583 55.151613 
L 323.629583 55.081477 
L 324.443254 55.081477 
L 324.443254 54.9855 
L 325.256924 54.9855 
L 325.256924 54.915363 
L 326.070595 54.915363 
L 326.070595 54.878449 
L 326.884265 54.878449 
L 326.884265 54.823078 
L 327.697936 54.823078 
L 327.697936 54.752941 
L 328.511606 54.752941 
L 328.511606 54.690188 
L 329.325277 54.690188 
L 329.325277 54.623742 
L 330.138947 54.623742 
L 330.138947 54.527766 
L 330.952618 54.527766 
L 330.952618 54.465012 
L 331.766288 54.465012 
L 331.766288 54.402258 
L 332.579959 54.402258 
L 332.579959 54.346887 
L 333.39363 54.346887 
L 333.39363 54.287824 
L 334.2073 54.287824 
L 334.2073 54.221379 
L 335.020971 54.221379 
L 335.020971 54.173391 
L 335.834641 54.173391 
L 335.834641 54.125402 
L 336.648312 54.125402 
L 336.648312 54.06634 
L 337.461982 54.06634 
L 337.461982 53.999895 
L 338.275653 53.999895 
L 338.275653 53.974055 
L 339.089323 53.974055 
L 339.089323 53.940832 
L 339.902994 53.940832 
L 339.902994 53.889152 
L 340.716664 53.889152 
L 340.716664 53.852238 
L 341.530335 53.852238 
L 341.530335 53.815324 
L 342.344005 53.815324 
L 342.344005 53.789484 
L 343.157676 53.789484 
L 343.157676 53.771027 
L 343.971347 53.771027 
L 343.971347 53.763645 
L 344.785017 53.763645 
L 344.785017 53.730422 
L 345.598688 53.730422 
L 345.598688 53.715656 
L 346.412358 53.715656 
L 346.412358 53.697199 
L 347.226029 53.697199 
L 347.226029 53.682434 
L 348.039699 53.682434 
L 348.039699 53.660285 
L 348.85337 53.660285 
L 348.85337 53.656594 
L 349.66704 53.656594 
L 349.66704 53.64552 
L 350.480711 53.64552 
L 350.480711 53.641828 
L 351.294381 53.641828 
L 351.294381 53.634445 
L 352.108052 53.634445 
L 352.108052 53.630754 
L 352.921722 53.630754 
L 352.921722 53.630754 
L 353.735393 53.630754 
L 353.735393 53.623371 
L 354.549064 53.623371 
L 354.549064 53.623371 
L 355.362734 53.623371 
L 355.362734 53.612297 
L 356.176405 53.612297 
L 356.176405 53.608605 
L 356.990075 53.608605 
L 356.990075 53.604914 
L 357.803746 53.604914 
L 357.803746 53.604914 
L 358.617416 53.604914 
L 358.617416 53.604914 
L 359.431087 53.604914 
L 359.431087 53.604914 
L 360.244757 53.604914 
L 360.244757 53.604914 
L 361.058428 53.604914 
L 361.058428 53.604914 
L 361.872098 53.604914 
L 361.872098 53.604914 
L 362.685769 53.604914 
L 362.685769 53.604914 
L 363.49944 53.604914 
L 363.49944 53.604914 
L 364.31311 53.604914 
L 364.31311 53.604914 
L 365.126781 53.604914 
L 365.126781 53.601223 
L 365.940451 53.601223 
L 365.940451 53.601223 
L 366.754122 53.601223 
L 366.754122 53.597531 
L 367.567792 53.597531 
L 367.567792 53.597531 
L 368.381463 53.597531 
L 368.381463 53.597531 
L 369.195133 53.597531 
L 369.195133 53.597531 
L 370.008804 53.597531 
L 370.008804 53.597531 
L 370.822474 53.597531 
L 370.822474 53.597531 
L 371.636145 53.597531 
L 371.636145 53.597531 
L 372.449815 53.597531 
L 372.449815 53.597531 
L 373.263486 53.597531 
L 373.263486 53.597531 
L 374.077157 53.597531 
L 374.077157 53.597531 
L 374.890827 53.597531 
L 374.890827 53.59384 
L 375.704498 53.59384 
L 375.704498 53.59384 
L 376.518168 53.59384 
L 376.518168 53.59384 
L 377.331839 53.59384 
L 377.331839 53.59384 
L 378.145509 53.59384 
L 378.145509 53.59384 
L 378.95918 53.59384 
L 378.95918 53.59384 
L 379.77285 53.59384 
L 379.77285 53.59384 
L 380.586521 53.59384 
L 380.586521 53.59384 
L 381.400191 53.59384 
L 381.400191 53.59384 
L 382.213862 53.59384 
L 382.213862 53.59384 
L 383.027532 53.59384 
L 383.027532 53.59384 
L 383.841203 53.59384 
L 383.841203 53.59384 
L 384.654874 53.59384 
L 384.654874 53.59384 
L 385.468544 53.59384 
L 385.468544 53.59384 
L 386.282215 53.59384 
L 386.282215 53.59384 
L 387.095885 53.59384 
L 387.095885 53.59384 
L 387.909556 53.59384 
L 387.909556 53.59384 
L 388.723226 53.59384 
L 388.723226 53.590148 
L 389.536897 53.590148 
L 389.536897 53.590148 
L 390.350567 53.590148 
L 390.350567 53.590148 
L 391.164238 53.590148 
L 391.164238 53.590148 
L 391.977908 53.590148 
L 391.977908 53.590148 
L 392.791579 53.590148 
L 392.791579 53.590148 
L 393.605249 53.590148 
L 393.605249 53.590148 
L 394.41892 53.590148 
L 394.41892 53.590148 
L 395.232591 53.590148 
L 395.232591 53.586457 
L 396.046261 53.586457 
L 396.046261 53.586457 
L 396.859932 53.586457 
L 396.859932 53.582766 
L 397.673602 53.582766 
L 397.673602 53.568 
L 398.487273 53.568 
L 398.487273 295.488 
L 398.487273 295.488 
L 397.673602 295.488 
L 397.673602 295.488 
L 396.859932 295.488 
L 396.859932 295.488 
L 396.046261 295.488 
L 396.046261 295.488 
L 395.232591 295.488 
L 395.232591 295.488 
L 394.41892 295.488 
L 394.41892 295.488 
L 393.605249 295.488 
L 393.605249 295.488 
L 392.791579 295.488 
L 392.791579 295.488 
L 391.977908 295.488 
L 391.977908 295.488 
L 391.164238 295.488 
L 391.164238 295.488 
L 390.350567 295.488 
L 390.350567 295.488 
L 389.536897 295.488 
L 389.536897 295.488 
L 388.723226 295.488 
L 388.723226 295.488 
L 387.909556 295.488 
L 387.909556 295.488 
L 387.095885 295.488 
L 387.095885 295.488 
L 386.282215 295.488 
L 386.282215 295.488 
L 385.468544 295.488 
L 385.468544 295.488 
L 384.654874 295.488 
L 384.654874 295.488 
L 383.841203 295.488 
L 383.841203 295.488 
L 383.027532 295.488 
L 383.027532 295.488 
L 382.213862 295.488 
L 382.213862 295.488 
L 381.400191 295.488 
L 381.400191 295.488 
L 380.586521 295.488 
L 380.586521 295.488 
L 379.77285 295.488 
L 379.77285 295.488 
L 378.95918 295.488 
L 378.95918 295.488 
L 378.145509 295.488 
L 378.145509 295.488 
L 377.331839 295.488 
L 377.331839 295.488 
L 376.518168 295.488 
L 376.518168 295.488 
L 375.704498 295.488 
L 375.704498 295.488 
L 374.890827 295.488 
L 374.890827 295.488 
L 374.077157 295.488 
L 374.077157 295.488 
L 373.263486 295.488 
L 373.263486 295.488 
L 372.449815 295.488 
L 372.449815 295.488 
L 371.636145 295.488 
L 371.636145 295.488 
L 370.822474 295.488 
L 370.822474 295.488 
L 370.008804 295.488 
L 370.008804 295.488 
L 369.195133 295.488 
L 369.195133 295.488 
L 368.381463 295.488 
L 368.381463 295.488 
L 367.567792 295.488 
L 367.567792 295.488 
L 366.754122 295.488 
L 366.754122 295.488 
L 365.940451 295.488 
L 365.940451 295.488 
L 365.126781 295.488 
L 365.126781 295.488 
L 364.31311 295.488 
L 364.31311 295.488 
L 363.49944 295.488 
L 363.49944 295.488 
L 362.685769 295.488 
L 362.685769 295.488 
L 361.872098 295.488 
L 361.872098 295.488 
L 361.058428 295.488 
L 361.058428 295.488 
L 360.244757 295.488 
L 360.244757 295.488 
L 359.431087 295.488 
L 359.431087 295.488 
L 358.617416 295.488 
L 358.617416 295.488 
L 357.803746 295.488 
L 357.803746 295.488 
L 356.990075 295.488 
L 356.990075 295.488 
L 356.176405 295.488 
L 356.176405 295.488 
L 355.362734 295.488 
L 355.362734 295.488 
L 354.549064 295.488 
L 354.549064 295.488 
L 353.735393 295.488 
L 353.735393 295.488 
L 352.921722 295.488 
L 352.921722 295.488 
L 352.108052 295.488 
L 352.108052 295.488 
L 351.294381 295.488 
L 351.294381 295.488 
L 350.480711 295.488 
L 350.480711 295.488 
L 349.66704 295.488 
L 349.66704 295.488 
L 348.85337 295.488 
L 348.85337 295.488 
L 348.039699 295.488 
L 348.039699 295.488 
L 347.226029 295.488 
L 347.226029 295.488 
L 346.412358 295.488 
L 346.412358 295.488 
L 345.598688 295.488 
L 345.598688 295.488 
L 344.785017 295.488 
L 344.785017 295.488 
L 343.971347 295.488 
L 343.971347 295.488 
L 343.157676 295.488 
L 343.157676 295.488 
L 342.344005 295.488 
L 342.344005 295.488 
L 341.530335 295.488 
L 341.530335 295.488 
L 340.716664 295.488 
L 340.716664 295.488 
L 339.902994 295.488 
L 339.902994 295.488 
L 339.089323 295.488 
L 339.089323 295.488 
L 338.275653 295.488 
L 338.275653 295.488 
L 337.461982 295.488 
L 337.461982 295.488 
L 336.648312 295.488 
L 336.648312 295.488 
L 335.834641 295.488 
L 335.834641 295.488 
L 335.020971 295.488 
L 335.020971 295.488 
L 334.2073 295.488 
L 334.2073 295.488 
L 333.39363 295.488 
L 333.39363 295.488 
L 332.579959 295.488 
L 332.579959 295.488 
L 331.766288 295.488 
L 331.766288 295.488 
L 330.952618 295.488 
L 330.952618 295.488 
L 330.138947 295.488 
L 330.138947 295.488 
L 329.325277 295.488 
L 329.325277 295.488 
L 328.511606 295.488 
L 328.511606 295.488 
L 327.697936 295.488 
L 327.697936 295.488 
L 326.884265 295.488 
L 326.884265 295.488 
L 326.070595 295.488 
L 326.070595 295.488 
L 325.256924 295.488 
L 325.256924 295.488 
L 324.443254 295.488 
L 324.443254 295.488 
L 323.629583 295.488 
L 323.629583 295.488 
L 322.815913 295.488 
L 322.815913 295.488 
L 322.002242 295.488 
L 322.002242 295.488 
L 321.188571 295.488 
L 321.188571 295.488 
L 320.374901 295.488 
L 320.374901 295.488 
L 319.56123 295.488 
L 319.56123 295.488 
L 318.74756 295.488 
L 318.74756 295.488 
L 317.933889 295.488 
L 317.933889 295.488 
L 317.120219 295.488 
L 317.120219 295.488 
L 316.306548 295.488 
L 316.306548 295.488 
L 315.492878 295.488 
L 315.492878 295.488 
L 314.679207 295.488 
L 314.679207 295.488 
L 313.865537 295.488 
L 313.865537 295.488 
L 313.051866 295.488 
L 313.051866 295.488 
L 312.238195 295.488 
L 312.238195 295.488 
L 311.424525 295.488 
L 311.424525 295.488 
L 310.610854 295.488 
L 310.610854 295.488 
L 309.797184 295.488 
L 309.797184 295.488 
L 308.983513 295.488 
L 308.983513 295.488 
L 308.169843 295.488 
L 308.169843 295.488 
L 307.356172 295.488 
L 307.356172 295.488 
L 306.542502 295.488 
L 306.542502 295.488 
L 305.728831 295.488 
L 305.728831 295.488 
L 304.915161 295.488 
L 304.915161 295.488 
L 304.10149 295.488 
L 304.10149 295.488 
L 303.28782 295.488 
L 303.28782 295.488 
L 302.474149 295.488 
L 302.474149 295.488 
L 301.660478 295.488 
L 301.660478 295.488 
L 300.846808 295.488 
L 300.846808 295.488 
L 300.033137 295.488 
L 300.033137 295.488 
L 299.219467 295.488 
L 299.219467 295.488 
L 298.405796 295.488 
L 298.405796 295.488 
L 297.592126 295.488 
L 297.592126 295.488 
L 296.778455 295.488 
L 296.778455 295.488 
L 295.964785 295.488 
L 295.964785 295.488 
L 295.151114 295.488 
L 295.151114 295.488 
L 294.337444 295.488 
L 294.337444 295.488 
L 293.523773 295.488 
L 293.523773 295.488 
L 292.710103 295.488 
L 292.710103 295.488 
L 291.896432 295.488 
L 291.896432 295.488 
L 291.082761 295.488 
L 291.082761 295.488 
L 290.269091 295.488 
L 290.269091 295.488 
L 289.45542 295.488 
L 289.45542 295.488 
L 288.64175 295.488 
L 288.64175 295.488 
L 287.828079 295.488 
L 287.828079 295.488 
L 287.014409 295.488 
L 287.014409 295.488 
L 286.200738 295.488 
L 286.200738 295.488 
L 285.387068 295.488 
L 285.387068 295.488 
L 284.573397 295.488 
L 284.573397 295.488 
L 283.759727 295.488 
L 283.759727 295.488 
L 282.946056 295.488 
L 282.946056 295.488 
L 282.132386 295.488 
L 282.132386 295.488 
L 281.318715 295.488 
L 281.318715 295.488 
L 280.505044 295.488 
L 280.505044 295.488 
L 279.691374 295.488 
L 279.691374 295.488 
L 278.877703 295.488 
L 278.877703 295.488 
L 278.064033 295.488 
L 278.064033 295.488 
L 277.250362 295.488 
L 277.250362 295.488 
L 276.436692 295.488 
L 276.436692 295.488 
L 275.623021 295.488 
L 275.623021 295.488 
L 274.809351 295.488 
L 274.809351 295.488 
L 273.99568 295.488 
L 273.99568 295.488 
L 273.18201 295.488 
L 273.18201 295.488 
L 272.368339 295.488 
L 272.368339 295.488 
L 271.554668 295.488 
L 271.554668 295.488 
L 270.740998 295.488 
L 270.740998 295.488 
L 269.927327 295.488 
L 269.927327 295.488 
L 269.113657 295.488 
L 269.113657 295.488 
L 268.299986 295.488 
L 268.299986 295.488 
L 267.486316 295.488 
L 267.486316 295.488 
L 266.672645 295.488 
L 266.672645 295.488 
L 265.858975 295.488 
L 265.858975 295.488 
L 265.045304 295.488 
L 265.045304 295.488 
L 264.231634 295.488 
L 264.231634 295.488 
L 263.417963 295.488 
L 263.417963 295.488 
L 262.604293 295.488 
L 262.604293 295.488 
L 261.790622 295.488 
L 261.790622 295.488 
L 260.976951 295.488 
L 260.976951 295.488 
L 260.163281 295.488 
L 260.163281 295.488 
L 259.34961 295.488 
L 259.34961 295.488 
L 258.53594 295.488 
L 258.53594 295.488 
L 257.722269 295.488 
L 257.722269 295.488 
L 256.908599 295.488 
L 256.908599 295.488 
L 256.094928 295.488 
L 256.094928 295.488 
L 255.281258 295.488 
L 255.281258 295.488 
L 254.467587 295.488 
L 254.467587 295.488 
L 253.653917 295.488 
L 253.653917 295.488 
L 252.840246 295.488 
L 252.840246 295.488 
L 252.026576 295.488 
L 252.026576 295.488 
L 251.212905 295.488 
L 251.212905 295.488 
L 250.399234 295.488 
L 250.399234 295.488 
L 249.585564 295.488 
L 249.585564 295.488 
L 248.771893 295.488 
L 248.771893 295.488 
L 247.958223 295.488 
L 247.958223 295.488 
L 247.144552 295.488 
L 247.144552 295.488 
L 246.330882 295.488 
L 246.330882 295.488 
L 245.517211 295.488 
L 245.517211 295.488 
L 244.703541 295.488 
L 244.703541 295.488 
L 243.88987 295.488 
L 243.88987 295.488 
L 243.0762 295.488 
L 243.0762 295.488 
L 242.262529 295.488 
L 242.262529 295.488 
L 241.448859 295.488 
L 241.448859 295.488 
L 240.635188 295.488 
L 240.635188 295.488 
L 239.821517 295.488 
L 239.821517 295.488 
L 239.007847 295.488 
L 239.007847 295.488 
L 238.194176 295.488 
L 238.194176 295.488 
L 237.380506 295.488 
L 237.380506 295.488 
L 236.566835 295.488 
L 236.566835 295.488 
L 235.753165 295.488 
L 235.753165 295.488 
L 234.939494 295.488 
L 234.939494 295.488 
L 234.125824 295.488 
L 234.125824 295.488 
L 233.312153 295.488 
L 233.312153 295.488 
L 232.498483 295.488 
L 232.498483 295.488 
L 231.684812 295.488 
L 231.684812 295.488 
L 230.871141 295.488 
L 230.871141 295.488 
L 230.057471 295.488 
L 230.057471 295.488 
L 229.2438 295.488 
L 229.2438 295.488 
L 228.43013 295.488 
L 228.43013 295.488 
L 227.616459 295.488 
L 227.616459 295.488 
L 226.802789 295.488 
L 226.802789 295.488 
L 225.989118 295.488 
L 225.989118 295.488 
L 225.175448 295.488 
L 225.175448 295.488 
L 224.361777 295.488 
L 224.361777 295.488 
L 223.548107 295.488 
L 223.548107 295.488 
L 222.734436 295.488 
L 222.734436 295.488 
L 221.920766 295.488 
L 221.920766 295.488 
L 221.107095 295.488 
L 221.107095 295.488 
L 220.293424 295.488 
L 220.293424 295.488 
L 219.479754 295.488 
L 219.479754 295.488 
L 218.666083 295.488 
L 218.666083 295.488 
L 217.852413 295.488 
L 217.852413 295.488 
L 217.038742 295.488 
L 217.038742 295.488 
L 216.225072 295.488 
L 216.225072 295.488 
L 215.411401 295.488 
L 215.411401 295.488 
L 214.597731 295.488 
L 214.597731 295.488 
L 213.78406 295.488 
L 213.78406 295.488 
L 212.97039 295.488 
L 212.97039 295.488 
L 212.156719 295.488 
L 212.156719 295.488 
L 211.343049 295.488 
L 211.343049 295.488 
L 210.529378 295.488 
L 210.529378 295.488 
L 209.715707 295.488 
L 209.715707 295.488 
L 208.902037 295.488 
L 208.902037 295.488 
L 208.088366 295.488 
L 208.088366 295.488 
L 207.274696 295.488 
L 207.274696 295.488 
L 206.461025 295.488 
L 206.461025 295.488 
L 205.647355 295.488 
L 205.647355 295.488 
L 204.833684 295.488 
L 204.833684 295.488 
L 204.020014 295.488 
L 204.020014 295.488 
L 203.206343 295.488 
L 203.206343 295.488 
L 202.392673 295.488 
L 202.392673 295.488 
L 201.579002 295.488 
L 201.579002 295.488 
L 200.765332 295.488 
L 200.765332 295.488 
L 199.951661 295.488 
L 199.951661 295.488 
L 199.13799 295.488 
L 199.13799 295.488 
L 198.32432 295.488 
L 198.32432 295.488 
L 197.510649 295.488 
L 197.510649 295.488 
L 196.696979 295.488 
L 196.696979 295.488 
L 195.883308 295.488 
L 195.883308 295.488 
L 195.069638 295.488 
L 195.069638 295.488 
L 194.255967 295.488 
L 194.255967 295.488 
L 193.442297 295.488 
L 193.442297 295.488 
L 192.628626 295.488 
L 192.628626 295.488 
L 191.814956 295.488 
L 191.814956 295.488 
L 191.001285 295.488 
L 191.001285 295.488 
L 190.187614 295.488 
L 190.187614 295.488 
L 189.373944 295.488 
L 189.373944 295.488 
L 188.560273 295.488 
L 188.560273 295.488 
L 187.746603 295.488 
L 187.746603 295.488 
L 186.932932 295.488 
L 186.932932 295.488 
L 186.119262 295.488 
L 186.119262 295.488 
L 185.305591 295.488 
L 185.305591 295.488 
L 184.491921 295.488 
L 184.491921 295.488 
L 183.67825 295.488 
L 183.67825 295.488 
L 182.86458 295.488 
L 182.86458 295.488 
L 182.050909 295.488 
L 182.050909 295.488 
L 181.237239 295.488 
L 181.237239 295.488 
L 180.423568 295.488 
L 180.423568 295.488 
L 179.609897 295.488 
L 179.609897 295.488 
L 178.796227 295.488 
L 178.796227 295.488 
L 177.982556 295.488 
L 177.982556 295.488 
L 177.168886 295.488 
L 177.168886 295.488 
L 176.355215 295.488 
L 176.355215 295.488 
L 175.541545 295.488 
L 175.541545 295.488 
L 174.727874 295.488 
L 174.727874 295.488 
L 173.914204 295.488 
L 173.914204 295.488 
L 173.100533 295.488 
L 173.100533 295.488 
L 172.286863 295.488 
L 172.286863 295.488 
L 171.473192 295.488 
L 171.473192 295.488 
L 170.659522 295.488 
L 170.659522 295.488 
L 169.845851 295.488 
L 169.845851 295.488 
L 169.03218 295.488 
L 169.03218 295.488 
L 168.21851 295.488 
L 168.21851 295.488 
L 167.404839 295.488 
L 167.404839 295.488 
L 166.591169 295.488 
L 166.591169 295.488 
L 165.777498 295.488 
L 165.777498 295.488 
L 164.963828 295.488 
L 164.963828 295.488 
L 164.150157 295.488 
L 164.150157 295.488 
L 163.336487 295.488 
L 163.336487 295.488 
L 162.522816 295.488 
L 162.522816 295.488 
L 161.709146 295.488 
L 161.709146 295.488 
L 160.895475 295.488 
L 160.895475 295.488 
L 160.081805 295.488 
L 160.081805 295.488 
L 159.268134 295.488 
L 159.268134 295.488 
L 158.454463 295.488 
L 158.454463 295.488 
L 157.640793 295.488 
L 157.640793 295.488 
L 156.827122 295.488 
L 156.827122 295.488 
L 156.013452 295.488 
L 156.013452 295.488 
L 155.199781 295.488 
L 155.199781 295.488 
L 154.386111 295.488 
L 154.386111 295.488 
L 153.57244 295.488 
L 153.57244 295.488 
L 152.75877 295.488 
L 152.75877 295.488 
L 151.945099 295.488 
L 151.945099 295.488 
L 151.131429 295.488 
L 151.131429 295.488 
L 150.317758 295.488 
L 150.317758 295.488 
L 149.504087 295.488 
L 149.504087 295.488 
L 148.690417 295.488 
L 148.690417 295.488 
L 147.876746 295.488 
L 147.876746 295.488 
L 147.063076 295.488 
L 147.063076 295.488 
L 146.249405 295.488 
L 146.249405 295.488 
L 145.435735 295.488 
L 145.435735 295.488 
L 144.622064 295.488 
L 144.622064 295.488 
L 143.808394 295.488 
L 143.808394 295.488 
L 142.994723 295.488 
L 142.994723 295.488 
L 142.181053 295.488 
L 142.181053 295.488 
L 141.367382 295.488 
L 141.367382 295.488 
L 140.553712 295.488 
L 140.553712 295.488 
L 139.740041 295.488 
L 139.740041 295.488 
L 138.92637 295.488 
L 138.92637 295.488 
L 138.1127 295.488 
L 138.1127 295.488 
L 137.299029 295.488 
L 137.299029 295.488 
L 136.485359 295.488 
L 136.485359 295.488 
L 135.671688 295.488 
L 135.671688 295.488 
L 134.858018 295.488 
L 134.858018 295.488 
L 134.044347 295.488 
L 134.044347 295.488 
L 133.230677 295.488 
L 133.230677 295.488 
L 132.417006 295.488 
L 132.417006 295.488 
L 131.603336 295.488 
L 131.603336 295.488 
L 130.789665 295.488 
L 130.789665 295.488 
L 129.975995 295.488 
L 129.975995 295.488 
L 129.162324 295.488 
L 129.162324 295.488 
L 128.348653 295.488 
L 128.348653 295.488 
L 127.534983 295.488 
L 127.534983 295.488 
L 126.721312 295.488 
L 126.721312 295.488 
L 125.907642 295.488 
L 125.907642 295.488 
L 125.093971 295.488 
L 125.093971 295.488 
L 124.280301 295.488 
L 124.280301 295.488 
L 123.46663 295.488 
L 123.46663 295.488 
L 122.65296 295.488 
L 122.65296 295.488 
L 121.839289 295.488 
L 121.839289 295.488 
L 121.025619 295.488 
L 121.025619 295.488 
L 120.211948 295.488 
L 120.211948 295.488 
L 119.398278 295.488 
L 119.398278 295.488 
L 118.584607 295.488 
L 118.584607 295.488 
L 117.770936 295.488 
L 117.770936 295.488 
L 116.957266 295.488 
L 116.957266 295.488 
L 116.143595 295.488 
L 116.143595 295.488 
L 115.329925 295.488 
L 115.329925 295.488 
L 114.516254 295.488 
L 114.516254 295.488 
L 113.702584 295.488 
L 113.702584 295.488 
L 112.888913 295.488 
L 112.888913 295.488 
L 112.075243 295.488 
L 112.075243 295.488 
L 111.261572 295.488 
L 111.261572 295.488 
L 110.447902 295.488 
L 110.447902 295.488 
L 109.634231 295.488 
L 109.634231 295.488 
L 108.82056 295.488 
L 108.82056 295.488 
L 108.00689 295.488 
L 108.00689 295.488 
L 107.193219 295.488 
L 107.193219 295.488 
L 106.379549 295.488 
L 106.379549 295.488 
L 105.565878 295.488 
L 105.565878 295.488 
L 104.752208 295.488 
L 104.752208 295.488 
L 103.938537 295.488 
L 103.938537 295.488 
L 103.124867 295.488 
L 103.124867 295.488 
L 102.311196 295.488 
L 102.311196 295.488 
L 101.497526 295.488 
L 101.497526 295.488 
L 100.683855 295.488 
L 100.683855 295.488 
L 99.870185 295.488 
L 99.870185 295.488 
L 99.056514 295.488 
L 99.056514 295.488 
L 98.242843 295.488 
L 98.242843 295.488 
L 97.429173 295.488 
L 97.429173 295.488 
L 96.615502 295.488 
L 96.615502 295.488 
L 95.801832 295.488 
L 95.801832 295.488 
L 94.988161 295.488 
L 94.988161 295.488 
L 94.174491 295.488 
L 94.174491 295.488 
L 93.36082 295.488 
L 93.36082 295.488 
L 92.54715 295.488 
L 92.54715 295.488 
L 91.733479 295.488 
L 91.733479 295.488 
L 90.919809 295.488 
L 90.919809 295.488 
L 90.106138 295.488 
L 90.106138 295.488 
L 89.292468 295.488 
L 89.292468 295.488 
L 88.478797 295.488 
L 88.478797 295.488 
L 87.665126 295.488 
L 87.665126 295.488 
L 86.851456 295.488 
L 86.851456 295.488 
L 86.037785 295.488 
L 86.037785 295.488 
L 85.224115 295.488 
L 85.224115 295.488 
L 84.410444 295.488 
L 84.410444 295.488 
L 83.596774 295.488 
L 83.596774 295.488 
L 82.783103 295.488 
L 82.783103 295.488 
L 81.969433 295.488 
L 81.969433 295.488 
L 81.155762 295.488 
L 81.155762 295.488 
L 80.342092 295.488 
L 80.342092 295.488 
L 79.528421 295.488 
L 79.528421 295.488 
L 78.714751 295.488 
L 78.714751 295.488 
L 77.90108 295.488 
L 77.90108 295.488 
L 77.087409 295.488 
L 77.087409 295.488 
L 76.273739 295.488 
L 76.273739 295.488 
L 75.460068 295.488 
L 75.460068 295.488 
L 74.646398 295.488 
L 74.646398 295.488 
L 73.832727 295.488 
L 73.832727 295.488 
z
" clip-path="url(#pa6fd0d2049)" style="fill: #1f77b4; fill-opacity: 0.4"/>
   </g>
   <g id="matplotlib.axis_1">
    <g id="xtick_1">
     <g id="line2d_1">
      <defs>
       <path id="mecf0a619d0" d="M 0 0 
L 0 3.5 
" style="stroke: #000000; stroke-width: 0.8"/>
      </defs>
      <g>
       <use xlink:href="#mecf0a619d0" x="73.832727" y="307.584" style="stroke: #000000; stroke-width: 0.8"/>
      </g>
     </g>
     <g id="text_1">
      <!-- 0.0 -->
      <g transform="translate(65.881165 322.182437) scale(0.1 -0.1)">
       <defs>
        <path id="DejaVuSans-30" d="M 2034 4250 
Q 1547 4250 1301 3770 
Q 1056 3291 1056 2328 
Q 1056 1369 1301 889 
Q 1547 409 2034 409 
Q 2525 409 2770 889 
Q 3016 1369 3016 2328 
Q 3016 3291 2770 3770 
Q 2525 4250 2034 4250 
z
M 2034 4750 
Q 2819 4750 3233 4129 
Q 3647 3509 3647 2328 
Q 3647 1150 3233 529 
Q 2819 -91 2034 -91 
Q 1250 -91 836 529 
Q 422 1150 422 2328 
Q 422 3509 836 4129 
Q 1250 4750 2034 4750 
z
" transform="scale(0.015625)"/>
        <path id="DejaVuSans-2e" d="M 684 794 
L 1344 794 
L 1344 0 
L 684 0 
L 684 794 
z
" transform="scale(0.015625)"/>
       </defs>
       <use xlink:href="#DejaVuSans-30"/>
       <use xlink:href="#DejaVuSans-2e" x="63.623047"/>
       <use xlink:href="#DejaVuSans-30" x="95.410156"/>
      </g>
     </g>
    </g>
    <g id="xtick_2">
     <g id="line2d_2">
      <g>
       <use xlink:href="#mecf0a619d0" x="143.272005" y="307.584" style="stroke: #000000; stroke-width: 0.8"/>
      </g>
     </g>
     <g id="text_2">
      <!-- 0.1 -->
      <g transform="translate(135.320443 322.182437) scale(0.1 -0.1)">
       <defs>
        <path id="DejaVuSans-31" d="M 794 531 
L 1825 531 
L 1825 4091 
L 703 3866 
L 703 4441 
L 1819 4666 
L 2450 4666 
L 2450 531 
L 3481 531 
L 3481 0 
L 794 0 
L 794 531 
z
" transform="scale(0.015625)"/>
       </defs>
       <use xlink:href="#DejaVuSans-30"/>
       <use xlink:href="#DejaVuSans-2e" x="63.623047"/>
       <use xlink:href="#DejaVuSans-31" x="95.410156"/>
      </g>
     </g>
    </g>
    <g id="xtick_3">
     <g id="line2d_3">
      <g>
       <use xlink:href="#mecf0a619d0" x="212.711284" y="307.584" style="stroke: #000000; stroke-width: 0.8"/>
      </g>
     </g>
     <g id="text_3">
      <!-- 0.2 -->
      <g transform="translate(204.759721 322.182437) scale(0.1 -0.1)">
       <defs>
        <path id="DejaVuSans-32" d="M 1228 531 
L 3431 531 
L 3431 0 
L 469 0 
L 469 531 
Q 828 903 1448 1529 
Q 2069 2156 2228 2338 
Q 2531 2678 2651 2914 
Q 2772 3150 2772 3378 
Q 2772 3750 2511 3984 
Q 2250 4219 1831 4219 
Q 1534 4219 1204 4116 
Q 875 4013 500 3803 
L 500 4441 
Q 881 4594 1212 4672 
Q 1544 4750 1819 4750 
Q 2544 4750 2975 4387 
Q 3406 4025 3406 3419 
Q 3406 3131 3298 2873 
Q 3191 2616 2906 2266 
Q 2828 2175 2409 1742 
Q 1991 1309 1228 531 
z
" transform="scale(0.015625)"/>
       </defs>
       <use xlink:href="#DejaVuSans-30"/>
       <use xlink:href="#DejaVuSans-2e" x="63.623047"/>
       <use xlink:href="#DejaVuSans-32" x="95.410156"/>
      </g>
     </g>
    </g>
    <g id="xtick_4">
     <g id="line2d_4">
      <g>
       <use xlink:href="#mecf0a619d0" x="282.150562" y="307.584" style="stroke: #000000; stroke-width: 0.8"/>
      </g>
     </g>
     <g id="text_4">
      <!-- 0.3 -->
      <g transform="translate(274.198999 322.182437) scale(0.1 -0.1)">
       <defs>
        <path id="DejaVuSans-33" d="M 2597 2516 
Q 3050 2419 3304 2112 
Q 3559 1806 3559 1356 
Q 3559 666 3084 287 
Q 2609 -91 1734 -91 
Q 1441 -91 1130 -33 
Q 819 25 488 141 
L 488 750 
Q 750 597 1062 519 
Q 1375 441 1716 441 
Q 2309 441 2620 675 
Q 2931 909 2931 1356 
Q 2931 1769 2642 2001 
Q 2353 2234 1838 2234 
L 1294 2234 
L 1294 2753 
L 1863 2753 
Q 2328 2753 2575 2939 
Q 2822 3125 2822 3475 
Q 2822 3834 2567 4026 
Q 2313 4219 1838 4219 
Q 1578 4219 1281 4162 
Q 984 4106 628 3988 
L 628 4550 
Q 988 4650 1302 4700 
Q 1616 4750 1894 4750 
Q 2613 4750 3031 4423 
Q 3450 4097 3450 3541 
Q 3450 3153 3228 2886 
Q 3006 2619 2597 2516 
z
" transform="scale(0.015625)"/>
       </defs>
       <use xlink:href="#DejaVuSans-30"/>
       <use xlink:href="#DejaVuSans-2e" x="63.623047"/>
       <use xlink:href="#DejaVuSans-33" x="95.410156"/>
      </g>
     </g>
    </g>
    <g id="xtick_5">
     <g id="line2d_5">
      <g>
       <use xlink:href="#mecf0a619d0" x="351.58984" y="307.584" style="stroke: #000000; stroke-width: 0.8"/>
      </g>
     </g>
     <g id="text_5">
      <!-- 0.4 -->
      <g transform="translate(343.638278 322.182437) scale(0.1 -0.1)">
       <defs>
        <path id="DejaVuSans-34" d="M 2419 4116 
L 825 1625 
L 2419 1625 
L 2419 4116 
z
M 2253 4666 
L 3047 4666 
L 3047 1625 
L 3713 1625 
L 3713 1100 
L 3047 1100 
L 3047 0 
L 2419 0 
L 2419 1100 
L 313 1100 
L 313 1709 
L 2253 4666 
z
" transform="scale(0.015625)"/>
       </defs>
       <use xlink:href="#DejaVuSans-30"/>
       <use xlink:href="#DejaVuSans-2e" x="63.623047"/>
       <use xlink:href="#DejaVuSans-34" x="95.410156"/>
      </g>
     </g>
    </g>
    <g id="text_6">
     <!-- Absolute distance error (m) -->
     <g transform="translate(167.47875 335.860562) scale(0.1 -0.1)">
      <defs>
       <path id="DejaVuSans-41" d="M 2188 4044 
L 1331 1722 
L 3047 1722 
L 2188 4044 
z
M 1831 4666 
L 2547 4666 
L 4325 0 
L 3669 0 
L 3244 1197 
L 1141 1197 
L 716 0 
L 50 0 
L 1831 4666 
z
" transform="scale(0.015625)"/>
       <path id="DejaVuSans-62" d="M 3116 1747 
Q 3116 2381 2855 2742 
Q 2594 3103 2138 3103 
Q 1681 3103 1420 2742 
Q 1159 2381 1159 1747 
Q 1159 1113 1420 752 
Q 1681 391 2138 391 
Q 2594 391 2855 752 
Q 3116 1113 3116 1747 
z
M 1159 2969 
Q 1341 3281 1617 3432 
Q 1894 3584 2278 3584 
Q 2916 3584 3314 3078 
Q 3713 2572 3713 1747 
Q 3713 922 3314 415 
Q 2916 -91 2278 -91 
Q 1894 -91 1617 61 
Q 1341 213 1159 525 
L 1159 0 
L 581 0 
L 581 4863 
L 1159 4863 
L 1159 2969 
z
" transform="scale(0.015625)"/>
       <path id="DejaVuSans-73" d="M 2834 3397 
L 2834 2853 
Q 2591 2978 2328 3040 
Q 2066 3103 1784 3103 
Q 1356 3103 1142 2972 
Q 928 2841 928 2578 
Q 928 2378 1081 2264 
Q 1234 2150 1697 2047 
L 1894 2003 
Q 2506 1872 2764 1633 
Q 3022 1394 3022 966 
Q 3022 478 2636 193 
Q 2250 -91 1575 -91 
Q 1294 -91 989 -36 
Q 684 19 347 128 
L 347 722 
Q 666 556 975 473 
Q 1284 391 1588 391 
Q 1994 391 2212 530 
Q 2431 669 2431 922 
Q 2431 1156 2273 1281 
Q 2116 1406 1581 1522 
L 1381 1569 
Q 847 1681 609 1914 
Q 372 2147 372 2553 
Q 372 3047 722 3315 
Q 1072 3584 1716 3584 
Q 2034 3584 2315 3537 
Q 2597 3491 2834 3397 
z
" transform="scale(0.015625)"/>
       <path id="DejaVuSans-6f" d="M 1959 3097 
Q 1497 3097 1228 2736 
Q 959 2375 959 1747 
Q 959 1119 1226 758 
Q 1494 397 1959 397 
Q 2419 397 2687 759 
Q 2956 1122 2956 1747 
Q 2956 2369 2687 2733 
Q 2419 3097 1959 3097 
z
M 1959 3584 
Q 2709 3584 3137 3096 
Q 3566 2609 3566 1747 
Q 3566 888 3137 398 
Q 2709 -91 1959 -91 
Q 1206 -91 779 398 
Q 353 888 353 1747 
Q 353 2609 779 3096 
Q 1206 3584 1959 3584 
z
" transform="scale(0.015625)"/>
       <path id="DejaVuSans-6c" d="M 603 4863 
L 1178 4863 
L 1178 0 
L 603 0 
L 603 4863 
z
" transform="scale(0.015625)"/>
       <path id="DejaVuSans-75" d="M 544 1381 
L 544 3500 
L 1119 3500 
L 1119 1403 
Q 1119 906 1312 657 
Q 1506 409 1894 409 
Q 2359 409 2629 706 
Q 2900 1003 2900 1516 
L 2900 3500 
L 3475 3500 
L 3475 0 
L 2900 0 
L 2900 538 
Q 2691 219 2414 64 
Q 2138 -91 1772 -91 
Q 1169 -91 856 284 
Q 544 659 544 1381 
z
M 1991 3584 
L 1991 3584 
z
" transform="scale(0.015625)"/>
       <path id="DejaVuSans-74" d="M 1172 4494 
L 1172 3500 
L 2356 3500 
L 2356 3053 
L 1172 3053 
L 1172 1153 
Q 1172 725 1289 603 
Q 1406 481 1766 481 
L 2356 481 
L 2356 0 
L 1766 0 
Q 1100 0 847 248 
Q 594 497 594 1153 
L 594 3053 
L 172 3053 
L 172 3500 
L 594 3500 
L 594 4494 
L 1172 4494 
z
" transform="scale(0.015625)"/>
       <path id="DejaVuSans-65" d="M 3597 1894 
L 3597 1613 
L 953 1613 
Q 991 1019 1311 708 
Q 1631 397 2203 397 
Q 2534 397 2845 478 
Q 3156 559 3463 722 
L 3463 178 
Q 3153 47 2828 -22 
Q 2503 -91 2169 -91 
Q 1331 -91 842 396 
Q 353 884 353 1716 
Q 353 2575 817 3079 
Q 1281 3584 2069 3584 
Q 2775 3584 3186 3129 
Q 3597 2675 3597 1894 
z
M 3022 2063 
Q 3016 2534 2758 2815 
Q 2500 3097 2075 3097 
Q 1594 3097 1305 2825 
Q 1016 2553 972 2059 
L 3022 2063 
z
" transform="scale(0.015625)"/>
       <path id="DejaVuSans-20" transform="scale(0.015625)"/>
       <path id="DejaVuSans-64" d="M 2906 2969 
L 2906 4863 
L 3481 4863 
L 3481 0 
L 2906 0 
L 2906 525 
Q 2725 213 2448 61 
Q 2172 -91 1784 -91 
Q 1150 -91 751 415 
Q 353 922 353 1747 
Q 353 2572 751 3078 
Q 1150 3584 1784 3584 
Q 2172 3584 2448 3432 
Q 2725 3281 2906 2969 
z
M 947 1747 
Q 947 1113 1208 752 
Q 1469 391 1925 391 
Q 2381 391 2643 752 
Q 2906 1113 2906 1747 
Q 2906 2381 2643 2742 
Q 2381 3103 1925 3103 
Q 1469 3103 1208 2742 
Q 947 2381 947 1747 
z
" transform="scale(0.015625)"/>
       <path id="DejaVuSans-69" d="M 603 3500 
L 1178 3500 
L 1178 0 
L 603 0 
L 603 3500 
z
M 603 4863 
L 1178 4863 
L 1178 4134 
L 603 4134 
L 603 4863 
z
" transform="scale(0.015625)"/>
       <path id="DejaVuSans-61" d="M 2194 1759 
Q 1497 1759 1228 1600 
Q 959 1441 959 1056 
Q 959 750 1161 570 
Q 1363 391 1709 391 
Q 2188 391 2477 730 
Q 2766 1069 2766 1631 
L 2766 1759 
L 2194 1759 
z
M 3341 1997 
L 3341 0 
L 2766 0 
L 2766 531 
Q 2569 213 2275 61 
Q 1981 -91 1556 -91 
Q 1019 -91 701 211 
Q 384 513 384 1019 
Q 384 1609 779 1909 
Q 1175 2209 1959 2209 
L 2766 2209 
L 2766 2266 
Q 2766 2663 2505 2880 
Q 2244 3097 1772 3097 
Q 1472 3097 1187 3025 
Q 903 2953 641 2809 
L 641 3341 
Q 956 3463 1253 3523 
Q 1550 3584 1831 3584 
Q 2591 3584 2966 3190 
Q 3341 2797 3341 1997 
z
" transform="scale(0.015625)"/>
       <path id="DejaVuSans-6e" d="M 3513 2113 
L 3513 0 
L 2938 0 
L 2938 2094 
Q 2938 2591 2744 2837 
Q 2550 3084 2163 3084 
Q 1697 3084 1428 2787 
Q 1159 2491 1159 1978 
L 1159 0 
L 581 0 
L 581 3500 
L 1159 3500 
L 1159 2956 
Q 1366 3272 1645 3428 
Q 1925 3584 2291 3584 
Q 2894 3584 3203 3211 
Q 3513 2838 3513 2113 
z
" transform="scale(0.015625)"/>
       <path id="DejaVuSans-63" d="M 3122 3366 
L 3122 2828 
Q 2878 2963 2633 3030 
Q 2388 3097 2138 3097 
Q 1578 3097 1268 2742 
Q 959 2388 959 1747 
Q 959 1106 1268 751 
Q 1578 397 2138 397 
Q 2388 397 2633 464 
Q 2878 531 3122 666 
L 3122 134 
Q 2881 22 2623 -34 
Q 2366 -91 2075 -91 
Q 1284 -91 818 406 
Q 353 903 353 1747 
Q 353 2603 823 3093 
Q 1294 3584 2113 3584 
Q 2378 3584 2631 3529 
Q 2884 3475 3122 3366 
z
" transform="scale(0.015625)"/>
       <path id="DejaVuSans-72" d="M 2631 2963 
Q 2534 3019 2420 3045 
Q 2306 3072 2169 3072 
Q 1681 3072 1420 2755 
Q 1159 2438 1159 1844 
L 1159 0 
L 581 0 
L 581 3500 
L 1159 3500 
L 1159 2956 
Q 1341 3275 1631 3429 
Q 1922 3584 2338 3584 
Q 2397 3584 2469 3576 
Q 2541 3569 2628 3553 
L 2631 2963 
z
" transform="scale(0.015625)"/>
       <path id="DejaVuSans-28" d="M 1984 4856 
Q 1566 4138 1362 3434 
Q 1159 2731 1159 2009 
Q 1159 1288 1364 580 
Q 1569 -128 1984 -844 
L 1484 -844 
Q 1016 -109 783 600 
Q 550 1309 550 2009 
Q 550 2706 781 3412 
Q 1013 4119 1484 4856 
L 1984 4856 
z
" transform="scale(0.015625)"/>
       <path id="DejaVuSans-6d" d="M 3328 2828 
Q 3544 3216 3844 3400 
Q 4144 3584 4550 3584 
Q 5097 3584 5394 3201 
Q 5691 2819 5691 2113 
L 5691 0 
L 5113 0 
L 5113 2094 
Q 5113 2597 4934 2840 
Q 4756 3084 4391 3084 
Q 3944 3084 3684 2787 
Q 3425 2491 3425 1978 
L 3425 0 
L 2847 0 
L 2847 2094 
Q 2847 2600 2669 2842 
Q 2491 3084 2119 3084 
Q 1678 3084 1418 2786 
Q 1159 2488 1159 1978 
L 1159 0 
L 581 0 
L 581 3500 
L 1159 3500 
L 1159 2956 
Q 1356 3278 1631 3431 
Q 1906 3584 2284 3584 
Q 2666 3584 2933 3390 
Q 3200 3197 3328 2828 
z
" transform="scale(0.015625)"/>
       <path id="DejaVuSans-29" d="M 513 4856 
L 1013 4856 
Q 1481 4119 1714 3412 
Q 1947 2706 1947 2009 
Q 1947 1309 1714 600 
Q 1481 -109 1013 -844 
L 513 -844 
Q 928 -128 1133 580 
Q 1338 1288 1338 2009 
Q 1338 2731 1133 3434 
Q 928 4138 513 4856 
z
" transform="scale(0.015625)"/>
      </defs>
      <use xlink:href="#DejaVuSans-41"/>
      <use xlink:href="#DejaVuSans-62" x="68.408203"/>
      <use xlink:href="#DejaVuSans-73" x="131.884766"/>
      <use xlink:href="#DejaVuSans-6f" x="183.984375"/>
      <use xlink:href="#DejaVuSans-6c" x="245.166016"/>
      <use xlink:href="#DejaVuSans-75" x="272.949219"/>
      <use xlink:href="#DejaVuSans-74" x="336.328125"/>
      <use xlink:href="#DejaVuSans-65" x="375.537109"/>
      <use xlink:href="#DejaVuSans-20" x="437.060547"/>
      <use xlink:href="#DejaVuSans-64" x="468.847656"/>
      <use xlink:href="#DejaVuSans-69" x="532.324219"/>
      <use xlink:href="#DejaVuSans-73" x="560.107422"/>
      <use xlink:href="#DejaVuSans-74" x="612.207031"/>
      <use xlink:href="#DejaVuSans-61" x="651.416016"/>
      <use xlink:href="#DejaVuSans-6e" x="712.695312"/>
      <use xlink:href="#DejaVuSans-63" x="776.074219"/>
      <use xlink:href="#DejaVuSans-65" x="831.054688"/>
      <use xlink:href="#DejaVuSans-20" x="892.578125"/>
      <use xlink:href="#DejaVuSans-65" x="924.365234"/>
      <use xlink:href="#DejaVuSans-72" x="985.888672"/>
      <use xlink:href="#DejaVuSans-72" x="1025.251953"/>
      <use xlink:href="#DejaVuSans-6f" x="1064.115234"/>
      <use xlink:href="#DejaVuSans-72" x="1125.296875"/>
      <use xlink:href="#DejaVuSans-20" x="1166.410156"/>
      <use xlink:href="#DejaVuSans-28" x="1198.197266"/>
      <use xlink:href="#DejaVuSans-6d" x="1237.210938"/>
      <use xlink:href="#DejaVuSans-29" x="1334.623047"/>
     </g>
    </g>
   </g>
   <g id="matplotlib.axis_2">
    <g id="ytick_1">
     <g id="line2d_6">
      <defs>
       <path id="m6d7198517b" d="M 0 0 
L -3.5 0 
" style="stroke: #000000; stroke-width: 0.8"/>
      </defs>
      <g>
       <use xlink:href="#m6d7198517b" x="57.6" y="295.488" style="stroke: #000000; stroke-width: 0.8"/>
      </g>
     </g>
     <g id="text_7">
      <!-- 0.0 -->
      <g transform="translate(34.696875 299.287219) scale(0.1 -0.1)">
       <use xlink:href="#DejaVuSans-30"/>
       <use xlink:href="#DejaVuSans-2e" x="63.623047"/>
       <use xlink:href="#DejaVuSans-30" x="95.410156"/>
      </g>
     </g>
    </g>
    <g id="ytick_2">
     <g id="line2d_7">
      <g>
       <use xlink:href="#m6d7198517b" x="57.6" y="247.104" style="stroke: #000000; stroke-width: 0.8"/>
      </g>
     </g>
     <g id="text_8">
      <!-- 0.2 -->
      <g transform="translate(34.696875 250.903219) scale(0.1 -0.1)">
       <use xlink:href="#DejaVuSans-30"/>
       <use xlink:href="#DejaVuSans-2e" x="63.623047"/>
       <use xlink:href="#DejaVuSans-32" x="95.410156"/>
      </g>
     </g>
    </g>
    <g id="ytick_3">
     <g id="line2d_8">
      <g>
       <use xlink:href="#m6d7198517b" x="57.6" y="198.72" style="stroke: #000000; stroke-width: 0.8"/>
      </g>
     </g>
     <g id="text_9">
      <!-- 0.4 -->
      <g transform="translate(34.696875 202.519219) scale(0.1 -0.1)">
       <use xlink:href="#DejaVuSans-30"/>
       <use xlink:href="#DejaVuSans-2e" x="63.623047"/>
       <use xlink:href="#DejaVuSans-34" x="95.410156"/>
      </g>
     </g>
    </g>
    <g id="ytick_4">
     <g id="line2d_9">
      <g>
       <use xlink:href="#m6d7198517b" x="57.6" y="150.336" style="stroke: #000000; stroke-width: 0.8"/>
      </g>
     </g>
     <g id="text_10">
      <!-- 0.6 -->
      <g transform="translate(34.696875 154.135219) scale(0.1 -0.1)">
       <defs>
        <path id="DejaVuSans-36" d="M 2113 2584 
Q 1688 2584 1439 2293 
Q 1191 2003 1191 1497 
Q 1191 994 1439 701 
Q 1688 409 2113 409 
Q 2538 409 2786 701 
Q 3034 994 3034 1497 
Q 3034 2003 2786 2293 
Q 2538 2584 2113 2584 
z
M 3366 4563 
L 3366 3988 
Q 3128 4100 2886 4159 
Q 2644 4219 2406 4219 
Q 1781 4219 1451 3797 
Q 1122 3375 1075 2522 
Q 1259 2794 1537 2939 
Q 1816 3084 2150 3084 
Q 2853 3084 3261 2657 
Q 3669 2231 3669 1497 
Q 3669 778 3244 343 
Q 2819 -91 2113 -91 
Q 1303 -91 875 529 
Q 447 1150 447 2328 
Q 447 3434 972 4092 
Q 1497 4750 2381 4750 
Q 2619 4750 2861 4703 
Q 3103 4656 3366 4563 
z
" transform="scale(0.015625)"/>
       </defs>
       <use xlink:href="#DejaVuSans-30"/>
       <use xlink:href="#DejaVuSans-2e" x="63.623047"/>
       <use xlink:href="#DejaVuSans-36" x="95.410156"/>
      </g>
     </g>
    </g>
    <g id="ytick_5">
     <g id="line2d_10">
      <g>
       <use xlink:href="#m6d7198517b" x="57.6" y="101.952" style="stroke: #000000; stroke-width: 0.8"/>
      </g>
     </g>
     <g id="text_11">
      <!-- 0.8 -->
      <g transform="translate(34.696875 105.751219) scale(0.1 -0.1)">
       <defs>
        <path id="DejaVuSans-38" d="M 2034 2216 
Q 1584 2216 1326 1975 
Q 1069 1734 1069 1313 
Q 1069 891 1326 650 
Q 1584 409 2034 409 
Q 2484 409 2743 651 
Q 3003 894 3003 1313 
Q 3003 1734 2745 1975 
Q 2488 2216 2034 2216 
z
M 1403 2484 
Q 997 2584 770 2862 
Q 544 3141 544 3541 
Q 544 4100 942 4425 
Q 1341 4750 2034 4750 
Q 2731 4750 3128 4425 
Q 3525 4100 3525 3541 
Q 3525 3141 3298 2862 
Q 3072 2584 2669 2484 
Q 3125 2378 3379 2068 
Q 3634 1759 3634 1313 
Q 3634 634 3220 271 
Q 2806 -91 2034 -91 
Q 1263 -91 848 271 
Q 434 634 434 1313 
Q 434 1759 690 2068 
Q 947 2378 1403 2484 
z
M 1172 3481 
Q 1172 3119 1398 2916 
Q 1625 2713 2034 2713 
Q 2441 2713 2670 2916 
Q 2900 3119 2900 3481 
Q 2900 3844 2670 4047 
Q 2441 4250 2034 4250 
Q 1625 4250 1398 4047 
Q 1172 3844 1172 3481 
z
" transform="scale(0.015625)"/>
       </defs>
       <use xlink:href="#DejaVuSans-30"/>
       <use xlink:href="#DejaVuSans-2e" x="63.623047"/>
       <use xlink:href="#DejaVuSans-38" x="95.410156"/>
      </g>
     </g>
    </g>
    <g id="ytick_6">
     <g id="line2d_11">
      <g>
       <use xlink:href="#m6d7198517b" x="57.6" y="53.568" style="stroke: #000000; stroke-width: 0.8"/>
      </g>
     </g>
     <g id="text_12">
      <!-- 1.0 -->
      <g transform="translate(34.696875 57.367219) scale(0.1 -0.1)">
       <use xlink:href="#DejaVuSans-31"/>
       <use xlink:href="#DejaVuSans-2e" x="63.623047"/>
       <use xlink:href="#DejaVuSans-30" x="95.410156"/>
      </g>
     </g>
    </g>
    <g id="text_13">
     <!-- Frequency -->
     <g transform="translate(28.617187 200.357687) rotate(-90) scale(0.1 -0.1)">
      <defs>
       <path id="DejaVuSans-46" d="M 628 4666 
L 3309 4666 
L 3309 4134 
L 1259 4134 
L 1259 2759 
L 3109 2759 
L 3109 2228 
L 1259 2228 
L 1259 0 
L 628 0 
L 628 4666 
z
" transform="scale(0.015625)"/>
       <path id="DejaVuSans-71" d="M 947 1747 
Q 947 1113 1208 752 
Q 1469 391 1925 391 
Q 2381 391 2643 752 
Q 2906 1113 2906 1747 
Q 2906 2381 2643 2742 
Q 2381 3103 1925 3103 
Q 1469 3103 1208 2742 
Q 947 2381 947 1747 
z
M 2906 525 
Q 2725 213 2448 61 
Q 2172 -91 1784 -91 
Q 1150 -91 751 415 
Q 353 922 353 1747 
Q 353 2572 751 3078 
Q 1150 3584 1784 3584 
Q 2172 3584 2448 3432 
Q 2725 3281 2906 2969 
L 2906 3500 
L 3481 3500 
L 3481 -1331 
L 2906 -1331 
L 2906 525 
z
" transform="scale(0.015625)"/>
       <path id="DejaVuSans-79" d="M 2059 -325 
Q 1816 -950 1584 -1140 
Q 1353 -1331 966 -1331 
L 506 -1331 
L 506 -850 
L 844 -850 
Q 1081 -850 1212 -737 
Q 1344 -625 1503 -206 
L 1606 56 
L 191 3500 
L 800 3500 
L 1894 763 
L 2988 3500 
L 3597 3500 
L 2059 -325 
z
" transform="scale(0.015625)"/>
      </defs>
      <use xlink:href="#DejaVuSans-46"/>
      <use xlink:href="#DejaVuSans-72" x="50.269531"/>
      <use xlink:href="#DejaVuSans-65" x="89.132812"/>
      <use xlink:href="#DejaVuSans-71" x="150.65625"/>
      <use xlink:href="#DejaVuSans-75" x="214.132812"/>
      <use xlink:href="#DejaVuSans-65" x="277.511719"/>
      <use xlink:href="#DejaVuSans-6e" x="339.035156"/>
      <use xlink:href="#DejaVuSans-63" x="402.414062"/>
      <use xlink:href="#DejaVuSans-79" x="457.394531"/>
     </g>
    </g>
   </g>
   <g id="line2d_12">
    <path d="M 73.832727 265.816477 
L 74.646398 257.817199 
L 76.273739 246.617473 
L 77.90108 237.322512 
L 79.528421 229.688684 
L 81.155762 222.95925 
L 85.224115 207.326145 
L 86.851456 202.073273 
L 90.106138 192.505148 
L 92.54715 186.281438 
L 97.429173 174.590754 
L 99.056514 171.264797 
L 103.124867 161.368137 
L 106.379549 154.649777 
L 108.00689 151.626516 
L 117.770936 135.317883 
L 119.398278 132.71175 
L 122.65296 127.399816 
L 125.907642 122.826164 
L 128.348653 119.758605 
L 130.789665 116.868234 
L 134.044347 113.431535 
L 140.553712 107.174602 
L 143.808394 104.420813 
L 145.435735 103.014387 
L 149.504087 100.087102 
L 154.386111 96.786984 
L 156.827122 95.251359 
L 159.268134 93.741574 
L 160.895475 92.767043 
L 167.404839 89.105168 
L 169.845851 87.805793 
L 170.659522 87.30007 
L 171.473192 87.001066 
L 172.286863 86.528566 
L 173.914204 85.808742 
L 175.541545 84.967102 
L 179.609897 83.331809 
L 181.237239 82.693195 
L 182.86458 82.050891 
L 185.305591 81.054211 
L 189.373944 79.348781 
L 195.883308 76.731574 
L 199.951661 75.531867 
L 204.020014 74.354309 
L 221.920766 69.699445 
L 225.989118 68.87257 
L 228.43013 68.359465 
L 233.312153 67.462453 
L 237.380506 66.738938 
L 241.448859 66.078176 
L 244.703541 65.561379 
L 247.958223 65.022434 
L 257.722269 63.697219 
L 265.858975 62.634094 
L 286.200738 59.847082 
L 289.45542 59.278605 
L 293.523773 58.839328 
L 296.778455 58.322531 
L 317.933889 55.74593 
L 325.256924 54.9855 
L 335.834641 54.173391 
L 343.971347 53.771027 
L 375.704498 53.59384 
L 398.487273 53.568 
L 398.487273 53.568 
" clip-path="url(#pa6fd0d2049)" style="fill: none; stroke: #1f77b4; stroke-width: 1.5; stroke-linecap: square"/>
   </g>
   <g id="patch_3">
    <path d="M 57.6 307.584 
L 57.6 41.472 
" style="fill: none; stroke: #000000; stroke-width: 0.8; stroke-linejoin: miter; stroke-linecap: square"/>
   </g>
   <g id="patch_4">
    <path d="M 414.72 307.584 
L 414.72 41.472 
" style="fill: none; stroke: #000000; stroke-width: 0.8; stroke-linejoin: miter; stroke-linecap: square"/>
   </g>
   <g id="patch_5">
    <path d="M 57.6 307.584 
L 414.72 307.584 
" style="fill: none; stroke: #000000; stroke-width: 0.8; stroke-linejoin: miter; stroke-linecap: square"/>
   </g>
   <g id="patch_6">
    <path d="M 57.6 41.472 
L 414.72 41.472 
" style="fill: none; stroke: #000000; stroke-width: 0.8; stroke-linejoin: miter; stroke-linecap: square"/>
   </g>
   <g id="text_14">
    <!-- CDF of forward tree absolute error distribution -->
    <g transform="translate(97.092187 35.472) scale(0.12 -0.12)">
     <defs>
      <path id="DejaVuSans-43" d="M 4122 4306 
L 4122 3641 
Q 3803 3938 3442 4084 
Q 3081 4231 2675 4231 
Q 1875 4231 1450 3742 
Q 1025 3253 1025 2328 
Q 1025 1406 1450 917 
Q 1875 428 2675 428 
Q 3081 428 3442 575 
Q 3803 722 4122 1019 
L 4122 359 
Q 3791 134 3420 21 
Q 3050 -91 2638 -91 
Q 1578 -91 968 557 
Q 359 1206 359 2328 
Q 359 3453 968 4101 
Q 1578 4750 2638 4750 
Q 3056 4750 3426 4639 
Q 3797 4528 4122 4306 
z
" transform="scale(0.015625)"/>
      <path id="DejaVuSans-44" d="M 1259 4147 
L 1259 519 
L 2022 519 
Q 2988 519 3436 956 
Q 3884 1394 3884 2338 
Q 3884 3275 3436 3711 
Q 2988 4147 2022 4147 
L 1259 4147 
z
M 628 4666 
L 1925 4666 
Q 3281 4666 3915 4102 
Q 4550 3538 4550 2338 
Q 4550 1131 3912 565 
Q 3275 0 1925 0 
L 628 0 
L 628 4666 
z
" transform="scale(0.015625)"/>
      <path id="DejaVuSans-66" d="M 2375 4863 
L 2375 4384 
L 1825 4384 
Q 1516 4384 1395 4259 
Q 1275 4134 1275 3809 
L 1275 3500 
L 2222 3500 
L 2222 3053 
L 1275 3053 
L 1275 0 
L 697 0 
L 697 3053 
L 147 3053 
L 147 3500 
L 697 3500 
L 697 3744 
Q 697 4328 969 4595 
Q 1241 4863 1831 4863 
L 2375 4863 
z
" transform="scale(0.015625)"/>
      <path id="DejaVuSans-77" d="M 269 3500 
L 844 3500 
L 1563 769 
L 2278 3500 
L 2956 3500 
L 3675 769 
L 4391 3500 
L 4966 3500 
L 4050 0 
L 3372 0 
L 2619 2869 
L 1863 0 
L 1184 0 
L 269 3500 
z
" transform="scale(0.015625)"/>
     </defs>
     <use xlink:href="#DejaVuSans-43"/>
     <use xlink:href="#DejaVuSans-44" x="69.824219"/>
     <use xlink:href="#DejaVuSans-46" x="146.826172"/>
     <use xlink:href="#DejaVuSans-20" x="204.345703"/>
     <use xlink:href="#DejaVuSans-6f" x="236.132812"/>
     <use xlink:href="#DejaVuSans-66" x="297.314453"/>
     <use xlink:href="#DejaVuSans-20" x="332.519531"/>
     <use xlink:href="#DejaVuSans-66" x="364.306641"/>
     <use xlink:href="#DejaVuSans-6f" x="399.511719"/>
     <use xlink:href="#DejaVuSans-72" x="460.693359"/>
     <use xlink:href="#DejaVuSans-77" x="501.806641"/>
     <use xlink:href="#DejaVuSans-61" x="583.59375"/>
     <use xlink:href="#DejaVuSans-72" x="644.873047"/>
     <use xlink:href="#DejaVuSans-64" x="684.236328"/>
     <use xlink:href="#DejaVuSans-20" x="747.712891"/>
     <use xlink:href="#DejaVuSans-74" x="779.5"/>
     <use xlink:href="#DejaVuSans-72" x="818.708984"/>
     <use xlink:href="#DejaVuSans-65" x="857.572266"/>
     <use xlink:href="#DejaVuSans-65" x="919.095703"/>
     <use xlink:href="#DejaVuSans-20" x="980.619141"/>
     <use xlink:href="#DejaVuSans-61" x="1012.40625"/>
     <use xlink:href="#DejaVuSans-62" x="1073.685547"/>
     <use xlink:href="#DejaVuSans-73" x="1137.162109"/>
     <use xlink:href="#DejaVuSans-6f" x="1189.261719"/>
     <use xlink:href="#DejaVuSans-6c" x="1250.443359"/>
     <use xlink:href="#DejaVuSans-75" x="1278.226562"/>
     <use xlink:href="#DejaVuSans-74" x="1341.605469"/>
     <use xlink:href="#DejaVuSans-65" x="1380.814453"/>
     <use xlink:href="#DejaVuSans-20" x="1442.337891"/>
     <use xlink:href="#DejaVuSans-65" x="1474.125"/>
     <use xlink:href="#DejaVuSans-72" x="1535.648438"/>
     <use xlink:href="#DejaVuSans-72" x="1575.011719"/>
     <use xlink:href="#DejaVuSans-6f" x="1613.875"/>
     <use xlink:href="#DejaVuSans-72" x="1675.056641"/>
     <use xlink:href="#DejaVuSans-20" x="1716.169922"/>
     <use xlink:href="#DejaVuSans-64" x="1747.957031"/>
     <use xlink:href="#DejaVuSans-69" x="1811.433594"/>
     <use xlink:href="#DejaVuSans-73" x="1839.216797"/>
     <use xlink:href="#DejaVuSans-74" x="1891.316406"/>
     <use xlink:href="#DejaVuSans-72" x="1930.525391"/>
     <use xlink:href="#DejaVuSans-69" x="1971.638672"/>
     <use xlink:href="#DejaVuSans-62" x="1999.421875"/>
     <use xlink:href="#DejaVuSans-75" x="2062.898438"/>
     <use xlink:href="#DejaVuSans-74" x="2126.277344"/>
     <use xlink:href="#DejaVuSans-69" x="2165.486328"/>
     <use xlink:href="#DejaVuSans-6f" x="2193.269531"/>
     <use xlink:href="#DejaVuSans-6e" x="2254.451172"/>
    </g>
   </g>
  </g>
 </g>
 <defs>
  <clipPath id="pa6fd0d2049">
   <rect x="57.6" y="41.472" width="357.12" height="266.112"/>
  </clipPath>
 </defs>
</svg>
