<?xml version="1.0" encoding="UTF-8" standalone="no"?>
<!-- Created with Inkscape (http://www.inkscape.org/) -->

<svg
   version="1.1"
   id="svg1"
   width="4032"
   height="3024"
   viewBox="0 0 4032 3024"
   sodipodi:docname="kdt_partition.jpg"
   inkscape:version="1.3.2 (091e20ef0f, 2023-11-25)"
   xmlns:inkscape="http://www.inkscape.org/namespaces/inkscape"
   xmlns:sodipodi="http://sodipodi.sourceforge.net/DTD/sodipodi-0.dtd"
   xmlns="http://www.w3.org/2000/svg"
   xmlns:svg="http://www.w3.org/2000/svg">
  <defs
     id="defs1" />
  <sodipodi:namedview
     id="namedview1"
     pagecolor="#ffffff"
     bordercolor="#000000"
     borderopacity="0.25"
     inkscape:showpageshadow="2"
     inkscape:pageopacity="0.0"
     inkscape:pagecheckerboard="0"
     inkscape:deskcolor="#d1d1d1"
     inkscape:zoom="0.28691138"
     inkscape:cx="1892.5704"
     inkscape:cy="1634.6511"
     inkscape:window-width="1920"
     inkscape:window-height="1043"
     inkscape:window-x="0"
     inkscape:window-y="0"
     inkscape:window-maximized="1"
     inkscape:current-layer="g1" />
  <g
     inkscape:groupmode="layer"
     inkscape:label="Image"
     id="g1"
     transform="translate(504,-504)">
    <path
       id="path1"
       style="fill:#000000"
       d="m 964.16211,504 c -5.77338,0 -8.2101,0.36573 -8.32813,1.25 -0.0918,0.6875 -0.25394,25.55063 -0.35937,55.25 -0.23378,65.85346 -1.07784,110.43147 -2.33399,123.32617 -0.51814,5.32106 -0.99429,23.84853 -1.05859,41.17188 -0.0643,17.32314 -0.55426,37.57356 -1.08984,45 -0.53559,7.42623 -0.97938,18.99366 -0.98438,25.70507 -0.01,13.35931 -0.64471,15.76705 -5.68164,21.51172 -1.79102,2.04275 -4.36049,5.8936 -5.71094,8.5586 -2.70277,5.33386 -2.71538,6.01065 -0.8457,49.84179 0.40151,9.41267 0.68024,22.01309 0.61914,28 -0.18578,18.19421 -2.2242,76.53475 -3.49023,99.88477 -0.65605,12.1 -1.16867,26.275 -1.13867,31.5 0.03,5.225 -0.5483,13.325 -1.28516,18 -1.46032,9.2651 -2.33541,23.4443 -3.02344,49 -0.24433,9.075 -0.93734,21 -1.54101,26.5 -0.97633,8.8953 -2.42532,158.0174 -2.13672,219.8613 0.0894,19.1646 -0.0577,21.0278 -1.79688,22.8946 -1.48531,1.5943 -1.66446,2.4573 -0.83594,4.0058 1.38709,2.5918 2.93171,37.7127 1.75586,39.9238 -1.23207,2.3171 -1.13446,16.5494 0.11914,17.3243 0.55895,0.3454 0.79075,0.995 0.51368,1.4433 -0.27707,0.4483 1.51432,2.6802 3.98242,4.9531 2.4681,2.275 4.48828,4.309 4.48828,4.5215 0,0.6738 -64.365,-0.1828 -67.5,-0.8984 -5.68002,-1.2966 -7.5,-2.6915 -7.5,-5.7481 0,-1.5823 -0.70257,-4.2373 -1.56055,-5.8964 -1.36721,-2.6439 -1.93098,-2.9344 -4.5664,-2.3555 -2.02987,0.4459 -3.55354,0.1767 -4.68946,-0.8281 -1.91539,-1.6945 -3.96536,-1.6536 -9.74218,0.1992 -3.05618,0.9802 -4.78557,2.4364 -7,5.8945 -3.57209,5.5778 -4.87858,8.5935 -3.29883,7.6172 0.65176,-0.4028 0.93717,-0.1514 0.68554,0.6035 -0.33197,0.9953 -3.74338,1.2237 -14.8789,0.9942 -7.94659,-0.1637 -18.72443,-0.3577 -23.94922,-0.4317 -5.22479,-0.074 -16.77885,-0.5288 -25.67383,-1.0097 -12.24705,-0.662 -16.89618,-0.5741 -19.15429,0.3613 -2.448,1.014 -4.0975,0.9496 -9.20704,-0.3594 -4.33523,-1.111 -8.53625,-1.4272 -13.84375,-1.043 -4.19088,0.3034 -12.48788,-0.029 -18.43554,-0.7382 l -10.81446,-1.2891 -0.89257,-1.6465 c -0.0365,0 -0.0729,2e-4 -0.10938,-0.01 -8.70416,-0.5022 -17.43007,-0.479 -26.11523,-1.2676 -6.196,-0.5372 -12.33754,-1.4151 -18.4668,-2.4453 -5.94926,-1.073 -11.81212,-2.5402 -17.72852,-3.7735 -4.89009,-0.9607 -9.70328,-2.2389 -14.50976,-3.541 -0.52298,0.1515 -0.65937,0.019 -1.2461,0.2617 -1.79334,0.743 -6.41966,1.4066 -10.28125,1.4766 -7.86604,0.142 -12.6871,1.153 -20.02148,4.1992 -4.18604,1.7386 -15.84036,3.5654 -21.5,3.3691 -8.62839,-0.2993 -33.91319,-2.2813 -39,-3.0566 -3.575,-0.5449 -11.67521,-1.298 -18,-1.6738 -6.32479,-0.3758 -13.3,-0.8329 -15.5,-1.0156 -22.96501,-1.9075 -68.50052,-4.1276 -104.5,-5.0958 -46.76537,-1.2564 -107.21302,-2.3193 -159,-2.7929 -51.08922,-0.4673 -129.184414,-1.4956 -158,-2.0801 -20.356879,-0.4129 -111.275153,-1.4994 -242.5,-2.8965 -32.44937,-0.3455 -71.15021,-0.9763 -86,-1.4023 -14.84979,-0.4265 -30.375,-0.4448 -34.5,-0.061 -4.125,0.3922 -10.425,0.2947 -14,-0.2148 -3.575,-0.5096 -42.27584,-1.1635 -86,-1.4531 -43.72416,-0.2895 -86.13771,-0.6183 -94.25,-0.7325 l -14.75,-0.2089 v 6.2793 6.2773 l 19.75,0.1504 c 10.86229,0.083 27.40021,0.2963 36.75,0.4726 9.34979,0.1763 47.15084,0.5403 84,0.8086 83.46183,0.6076 123.48911,1.0667 172,1.9727 55.35774,1.0338 79.38947,1.363 103,1.416 95.3097891,0.2129 119.813275,0.5481 153,2.0879 12.649727,0.5869 47.75063,1.3041 78,1.5937 74.3466,0.7118 101.36179,1.1684 145.5,2.4649 20.62458,0.6058 41.77521,1.0571 47,1.0019 15.62383,-0.166 65.1422,1.0012 66.04102,1.5567 0.98434,0.6085 18.53714,1.5552 35.45898,1.9121 25.82758,0.5448 47.45582,1.7484 57.30078,3.1914 5.66566,0.8304 16.46587,1.8821 24,2.3359 7.53413,0.4538 14.82422,1.0967 16.19922,1.4278 4.74126,1.1418 52.82732,1.175 53.96875,0.035 0.71269,-0.706 6.99699,-0.9477 18.62305,-0.705 19.88863,0.4141 21.3448,0.7933 33.24609,8.6464 5.4331,3.585 8.28843,4.8421 11,4.8321 9.86759,-0.026 28.98176,-1.3638 31.49414,-2.2051 5.10663,-1.7101 39.31456,-2.3096 60.99414,-1.0684 11.45425,0.6558 31.36717,1.09 44.25,0.9649 41.2187,-0.4001 42.2308,-0.367 45.25781,1.5039 0.98626,0.6096 1.10788,11.5287 0.58008,51.9375 -0.36756,28.1398 -0.8221,52.966 -1.00976,55.166 -1.12521,13.1912 -1.42514,21.1732 -1.87696,50 -0.27585,17.6 -0.70278,51.2352 -0.94922,74.7402 -0.24623,23.5071 -0.70793,43.1602 -1.02539,43.6739 -0.31746,0.5137 -0.80087,15.2555 -1.07421,32.7597 -0.27335,17.5042 -0.88142,34.5172 -1.35157,37.8067 -0.47018,3.2896 -0.50978,7.1864 -0.0879,8.6582 0.4221,1.4718 0.55866,12.7308 0.30274,25.0175 -0.46533,22.344 -1.68866,78.7062 -2.70899,124.8438 -0.298,13.475 -1.04621,33.275 -1.66406,44 -0.61785,10.725 -1.02028,29.175 -0.89258,41 0.12776,11.825 0.17813,22.625 0.11133,24 -2.86006,58.8808 -2.9892,56.5543 3.75195,67 1.59729,2.475 2.93923,5.8807 2.98243,7.5684 0.0432,1.6877 0.75529,5.3469 1.58203,8.1308 3.4112,11.4874 3.74704,17.0321 3.3164,54.8008 -0.0188,1.65 -0.68786,20.325 -1.48633,41.5 -0.79827,21.175 -1.6351,55.15 -1.85937,75.5 -0.22428,20.35 -0.70452,46.675 -1.06641,58.5 -0.3619,11.825 -0.77945,29.15 -0.92773,38.5 -0.46034,29.0267 -2.31664,86.9232 -2.83789,88.5 -0.27272,0.825 -0.75111,7.2186 -1.0625,14.209 -0.3114,6.9904 -0.99567,14.6404 -1.51953,17 -4.20281,18.9308 -5.24224,24.2601 -6.07617,31.1113 -0.52367,4.3011 -1.18584,8.1973 -1.47071,8.6582 -2.09106,3.3834 -3.48571,66.1965 -4.00781,180.5215 -0.10297,22.55 -0.46083,49.1 -0.79492,59 -1.09776,32.5293 -2.75556,139.6205 -2.17578,140.5586 0.31204,0.5049 0.10187,5.3105 -0.4668,10.6797 -0.57421,5.4214 -1.26031,46.6675 -1.54492,92.7617 -0.72986,118.2027 -1.71977,240.7184 -2.01563,249.5 -0.55158,16.372 -1.60697,96.4422 -1.95117,148 -0.20011,29.975 -0.68983,56.4125 -1.08789,58.75 l -0.72461,4.25 H 805.87305 812 l 0.18359,-5.25 c 0.38261,-10.9725 0.78538,-58.2905 0.70118,-82.25 -0.0212,-6.05 0.28107,-30.8 0.66992,-55 0.38886,-24.2 0.87513,-56.825 1.08203,-72.5 0.20691,-15.675 0.61746,-31.65 0.91211,-35.5 0.7589,-9.9161 0.76603,-10.6666 0.39844,-44.5 -0.18228,-16.775 -0.29064,-35.675 -0.24024,-42 0.0504,-6.325 0.0305,-14.875 -0.0449,-19 -0.26012,-14.2354 1.77006,-188.0874 2.85547,-244.5 0.2328,-12.1 0.64892,-37.525 0.92383,-56.5 0.27491,-18.975 0.75461,-40.575 1.0664,-48 0.31179,-7.425 0.77286,-37.575 1.02344,-67 0.82716,-97.1298 1.36302,-137.2891 2.06445,-154.5 0.38107,-9.35 0.62803,-18.4625 0.54883,-20.25 -0.0792,-1.7875 0.3058,-3.25 0.85547,-3.25 0.54967,0 1,-2.1001 1,-4.668 0,-4.1021 3.23059,-19.0652 6.02344,-27.8926 2.00716,-6.3434 4.53193,-51.8427 5.46289,-98.4394 0.31316,-15.675 0.79788,-34.125 1.07617,-41 0.27828,-6.875 0.70777,-30.95 0.95312,-53.5 0.24555,-22.55 0.67964,-43.925 0.96485,-47.5 0.28522,-3.575 0.72804,-22.475 0.98437,-42 0.25632,-19.525 0.78154,-40.9 1.16797,-47.5 0.90503,-15.4577 0.90887,-19.0252 0.0371,-36.5 -1.01494,-20.3495 -2.33752,-31.6259 -4.13086,-35.2207 -0.847,-1.6963 -1.53906,-3.9612 -1.53906,-5.0293 0,-1.0681 -0.93117,-3.2487 -2.06836,-4.8457 -1.1707,-1.6441 -1.81819,-3.686 -1.49414,-4.707 0.31476,-0.9917 -0.26105,-3.5788 -1.2793,-5.75 -2.11132,-4.5022 -2.11146,-4.5556 0.22266,-44.4473 2.23568,-38.2092 3.96436,-88.4023 5.01953,-145.752 0.26564,-14.436 0.7281,-26.6466 1.02734,-27.1308 0.29924,-0.4841 0.77926,-17.0204 1.06836,-36.7481 0.28909,-19.7257 0.73594,-41.4941 0.99219,-48.3691 0.25624,-6.875 0.69121,-23.075 0.9668,-36 0.2756,-12.925 0.74692,-29.575 1.04687,-37 0.29995,-7.425 0.98971,-30.6 1.53321,-51.5 0.54351,-20.9 1.20853,-44.75 1.47851,-53 0.26999,-8.25 0.7239,-26.4202 1.00781,-40.377 0.28391,-13.9548 0.81686,-25.8623 1.18555,-26.4589 0.3687,-0.5966 0.72732,-23.1555 0.79492,-50.125 0.12173,-48.5358 0.14594,-49.0904 2.36719,-54.0391 1.34486,-2.9962 2.13525,-6.498 1.97461,-8.7383 -0.14744,-2.0562 0.16453,-4.141 0.69336,-4.6328 1.04966,-0.9762 86.5745,-2.4334 138.46289,-2.3594 30.59,0.044 53.3895,1.2189 62.5,3.2207 8.8241,1.9388 53.9656,2.5133 109.5,1.3926 15.125,-0.3052 31.1,-0.4939 35.5,-0.4199 29.7211,0.5009 125.8449,0.3325 144,-0.252 12.1,-0.3895 37.3,-0.9307 56,-1.2031 37.6185,-0.5481 79.2796,-1.4765 87,-1.9394 2.75,-0.1649 15.575,-0.6007 28.5,-0.9688 12.925,-0.3681 24.175,-0.9426 25,-1.2754 0.825,-0.3328 5.1,-0.7252 9.5,-0.873 4.4,-0.1478 10.475,-0.5231 13.5,-0.834 12.0589,-1.2393 72.7603,-0.2554 74.2188,1.2031 0.5593,0.5614 0.8746,8.6009 0.7519,19.3203 -0.1155,10.0977 -0.3004,35.4594 -0.4102,56.3594 -0.1099,20.9 -0.4971,42.2183 -0.8613,47.373 -1.0034,14.2047 -1.9606,75.3932 -1.7695,113.127 0.096,18.8983 -0.9777,98.1403 -1.4629,108 -0.8747,17.7825 -0.904,62.4865 -0.039,63.8828 0.3727,0.603 0.2117,7.512 -0.3574,15.3555 -0.5691,7.8434 -1.5176,33.1617 -2.1015,56.2617 -0.5861,23.1 -1.6469,58.65 -2.3594,79 -0.7124,20.35 -1.2684,38.8 -1.2344,41 0.034,2.2 -0.4876,8.63 -1.1562,14.2891 -1.8528,15.6327 -1.5914,26.7281 0.7753,32.955 1.0961,2.884 2.274,7.609 2.6172,10.5 0.3432,2.891 0.8169,5.5851 1.0528,5.9864 1.8627,3.1687 3.2791,24.1265 3.9394,58.2695 0.4149,21.45 0.677,40.35 0.582,42 -0.4441,7.742 -1.1834,100.4661 -1.5195,190.5 -0.3295,88.266 -0.5518,99.9042 -1.9629,103.082 -0.8749,1.9702 -1.8999,6.0202 -2.2793,9 -0.3793,2.9798 -1.0329,5.868 -1.4511,6.418 -0.4182,0.55 -1.706,2.6986 -2.8633,4.7754 -2.0571,3.6916 -2.0822,4.2851 -1.0801,26.5 0.5638,12.4982 1.2552,40.9496 1.5352,63.2246 0.2801,22.275 0.7097,41.0794 0.955,41.7871 0.5253,1.5148 0.4906,302.5574 -0.051,396.7129 -0.8285,145.1465 -1.3299,199.466 -1.8458,200.3008 -0.2986,0.483 -0.7548,60.8026 -1.0156,134.039 L 1623.1328,3528 h 7.3145 7.3144 l 0.6817,-10.25 c 0.3757,-5.6375 0.8744,-59.0771 1.1074,-118.75 0.2329,-59.6729 0.6605,-137.525 0.9512,-173 0.2906,-35.475 0.725,-150.6771 0.9648,-256 0.2398,-105.3229 0.5039,-215.575 0.5859,-245 0.082,-29.425 -0.082,-55.975 -0.3652,-59 -0.2834,-3.025 -0.7664,-21.925 -1.0723,-42 -0.3059,-20.075 -0.8027,-41.45 -1.1054,-47.5 -1.7814,-35.6069 -2.1279,-31.8285 4.3867,-47.75 5.6752,-13.8691 5.9226,-23.3405 5.5762,-212.25 -0.1674,-91.2979 -0.4911,-168.475 -0.7188,-171.5 -1.8866,-25.0665 -2.8829,-32.0474 -5.6777,-39.7871 -2.8354,-7.8518 -2.9073,-8.5291 -2.5645,-23.6328 0.1941,-8.5526 0.6143,-15.9762 0.9356,-16.4961 0.5482,-0.887 1.326,-13.1554 3.4882,-55.084 0.4963,-9.625 1.2029,-32.125 1.5704,-50 0.3676,-17.875 1.0503,-38.575 1.5175,-46 0.4673,-7.425 1.1209,-34.875 1.4512,-61 0.3303,-26.125 0.781,-56.05 1.002,-66.5 0.221,-10.45 0.6407,-45.1 0.9336,-77 0.2929,-31.9 0.7505,-60.925 1.0175,-64.5 0.7978,-10.6784 1.5801,-57.5153 2.1016,-125.959 0.2702,-35.4508 0.8579,-64.8286 1.3066,-65.2773 0.2671,-0.267 3.9452,-0.017 5.7403,-0.059 0.1694,-1.4688 0.3231,-2.9386 0.4355,-4.4141 0.1202,-3.019 0.2886,-6.018 0.791,-9 0.031,-0.1643 0.076,-0.3248 0.1094,-0.4883 -5.0031,-0.015 -6.7498,-0.2876 -6.6367,-1.789 0.1206,-1.6013 0.8153,-2.028 3.1894,-1.961 1.6697,0.047 3.7122,-0.1126 4.5372,-0.3554 10e-4,-4e-4 0,-0 0.01,-0 0.2579,-0.8375 0.5198,-1.6737 0.7695,-2.5137 0.4064,-1.5175 0.8963,-3.0118 1.3301,-4.5214 0.4289,-2.0028 0.7461,-4.0264 1.0528,-6.0508 0.1094,-0.7225 0.2589,-1.3941 0.4375,-2.0176 -0.084,-0.7523 -0.2177,-1.4968 -0.2891,-2.252 -0.3786,-3.4552 -0.6141,-6.9222 -0.7285,-10.3964 -0.2883,-1.832 -0.585,-3.6632 -0.9414,-5.4825 -0.2548,-1.3005 -0.1681,-2.3759 0.1328,-3.205 -2.1571,-9.6752 -2.406,-28.3872 -1.4473,-82.7559 0.6013,-34.1 1.0453,-64.25 0.9883,-67 -0.057,-2.75 -0.21,-9.725 -0.3398,-15.5 -0.1301,-5.775 -0.2136,-20.175 -0.1856,-32 0.028,-11.825 0.049,-31.85 0.039,-44.5 -0.01,-12.65 0.2593,-51.0099 0.5898,-85.2402 0.3305,-34.2325 0.2128,-63.9702 -0.2617,-66.0821 -0.4769,-2.1236 -0.4781,-6.48383 -0.018,-9.75778 0.465,-3.2555 0.7831,-18.52034 0.7051,-33.91992 -0.2106,-41.83331 -0.2196,-40.10286 0.4766,-110.89844 0.3563,-36.24363 0.8519,-66.10393 1.1015,-66.35351 0.2496,-0.24959 0.084,-1.42846 -0.3691,-2.61914 -0.4812,-1.26562 -0.2799,-5.04665 0.4824,-9.10352 0.9346,-4.97308 1.055,-9.34352 0.4277,-15.42383 -0.4817,-4.66599 -0.5179,-12.78556 -0.082,-18.04297 0.436,-5.2572 0.6983,-21.7088 0.584,-36.55859 -0.233,-30.2635 0.8507,-50.2969 3.0586,-56.55469 1.6784,-4.75698 1.9926,-15.51081 0.4805,-16.44531 -0.55,-0.33992 -1,-4.38992 -1,-9 0,-4.61008 -0.4336,-8.64946 -0.9629,-8.97656 -0.6035,-0.37296 -0.5439,-1.51358 0.1601,-3.0586 0.845,-1.85437 0.7987,-4.25712 -0.1894,-9.71484 -0.9254,-5.11089 -1.2894,-17.13545 -1.2344,-40.75 0.043,-18.42458 -0.1812,-38.33771 -0.4981,-44.25 L 1667.6992,504 H 1659.3496 1651 l -0.1309,13.75 c -0.072,7.56229 -0.2507,31.30042 -0.3984,52.75 -0.1478,21.44958 -0.651,44.85021 -1.1191,52 -0.4681,7.14979 -0.7766,23.35021 -0.6856,36 0.5041,69.69622 0.3896,101.71338 -0.416,116.5 -0.4945,9.07479 -0.9288,18.525 -0.9668,21 -0.038,2.475 -0.572,10.12521 -1.1855,17 -0.6135,6.87479 -1.345,39.95063 -1.627,73.5 -0.2821,33.54937 -0.7574,76.30042 -1.0547,95 -0.2973,18.7 -0.7162,45.25 -0.9316,59 -0.2928,18.693 -0.5824,107.6848 -0.4375,134.5 0.01,1.375 -0.1924,11.725 -0.4434,23 -1.0005,44.9305 -1.7797,103.9967 -2.0019,151.6387 -0.1908,40.8901 -0.2023,50.8689 -2.6875,52.4668 -0.2037,1.2996 -0.4707,2.5883 -0.6426,3.8945 -0.1576,1.2757 -0.2341,2.5601 -0.2871,3.8438 -0.066,1.173 -0.061,2.3384 0.053,3.5078 0.1563,1.3819 0.2049,2.7702 0.4453,4.1406 0.1751,1.2968 0.3992,2.5811 0.6485,3.8652 0.2855,1.3711 0.3986,2.7647 0.4726,4.1602 0,1.4144 0.2152,2.8111 0.3594,4.2148 0.1011,1.0249 0.1646,2.0521 0.2226,3.0801 0.099,1.7519 -0.3402,3.0256 -1.0234,3.8105 0.011,0.5723 0.421,0.9977 0.1289,1.6524 -0.9712,2.1767 -1.4141,2.2297 -19.8926,2.4355 -19.4174,0.216 -28.9625,0.2328 -42.8984,0.094 -11.4425,-0.1174 -32.8851,0.8233 -48,2.1015 -7.15,0.6056 -21.775,1.3663 -32.5,1.6895 -10.725,0.3231 -22.65,0.764 -26.5,0.9785 -3.85,0.2146 -28.375,0.5932 -54.5,0.8418 -26.125,0.2485 -54.7,0.8905 -63.5,1.4278 -9.4703,0.576 -70.8925,0.8603 -150.5,0.6914 -117.992,-0.2505 -136.0954,-0.4884 -147.5,-1.9375 -7.15,-0.9084 -13.675,-1.9249 -14.5,-2.2539 -0.825,-0.3312 -20.7728,-0.7278 -44.32812,-0.8829 -23.55488,-0.1551 -43.12709,-0.5821 -43.49219,-0.9472 -0.36511,-0.3651 0.0779,-1.0778 0.98242,-1.584 0.90447,-0.5062 3.26075,-3.1712 5.23828,-5.9238 1.97753,-2.7526 4.15924,-5.0173 4.84766,-5.0313 0.68841,-0.014 3.18369,-1.8479 5.54492,-4.0762 3.03635,-2.8653 4.12396,-4.5876 3.71289,-5.8828 -0.78749,-2.4811 -2.73361,-3.0802 -11.06445,-3.4082 -3.90565,-0.1538 -7.54943,-0.555 -8.09571,-0.8926 -1.85085,-1.1439 -3.21047,-8.1685 -4.20312,-21.7148 -0.54408,-7.425 -1.49541,-15.75 -2.11524,-18.5 -0.7515,-3.3341 -1.08168,-18.9934 -0.99218,-47 0.0738,-23.1 0.0255,-71.925 -0.10743,-108.5 -0.19846,-54.5997 0.0767,-71.5992 1.54297,-95 0.9822,-15.675 1.93494,-35.475 2.11719,-44 0.18226,-8.525 0.7859,-21.575 1.33984,-29 0.55394,-7.425 1.27187,-19.575 1.59571,-27 0.32383,-7.425 0.76998,-16.0164 0.99218,-19.0918 1.53203,-21.18357 2.36077,-150.67868 1.03126,-161.125 -0.63098,-4.9569 -0.44178,-6.12179 1.42968,-8.75 1.18734,-1.66747 2.69176,-3.0464 3.3418,-3.0625 0.65005,-0.0161 2.68816,-1.39821 4.5293,-3.07226 2.45901,-2.23604 3.19878,-3.61326 2.78711,-5.1875 -0.30821,-1.17859 0.085,-5.08225 0.87304,-8.67578 1.85963,-8.47999 2.40423,-17.68255 2.51172,-42.36524 0.0483,-11.09321 0.5198,-21.81357 1.04688,-23.82226 0.62773,-2.39247 0.60712,-4.5752 -0.0586,-6.32618 -0.97651,-2.56819 -0.81069,-12.89039 1.61914,-101.02148 0.39429,-14.29979 0.77205,-32.52521 0.83985,-40.5 0.0678,-7.97479 0.5138,-33.28792 0.99023,-56.25 L 972.32227,504 Z m 1489.19529,8.95703 c -1.0736,-0.35822 -2.545,0.95491 -4.6484,3.88281 -3.2591,4.5365 -3.6043,5.73979 -4.6856,16.2793 -0.6421,6.2587 -1.5567,12.95391 -2.0312,14.87891 -3.6254,14.70837 -4.9518,29.61379 -4.0488,45.5 0.094,1.65 0.1604,9.3 0.1464,17 -0.014,7.69979 0.4618,15.5163 1.0586,17.36914 1.4868,4.61546 -0.2786,54.55888 -2.0507,58.01562 -1.814,3.53883 -2.1676,14.70318 -0.586,18.48828 2.1418,5.12596 2.7976,19.26677 2.5098,54.12696 -0.1367,16.49958 -0.194,34.5 -0.127,40 0.6106,50.48003 -0.01,92.94837 -1.3769,94.3164 -0.2745,0.27449 0.059,1.17345 0.7422,1.9961 0.9163,1.10372 1.1788,6.76273 1.0039,21.59179 -1.1252,95.38126 -1.1363,150.45936 -0.061,171.59566 1.2593,24.565 1.5317,43.0065 0.8008,54 -0.2377,3.575 -0.076,11.4521 0.3594,17.5 1.555,21.6191 2.3433,111.0255 1.3887,157.5 -0.322,15.675 -0.8519,41.7771 -1.1778,58 -0.3259,16.225 -1.0494,41.4271 -1.6074,56 -0.5579,14.575 -1.237,46.0771 -1.5098,70 -0.2728,23.925 -0.9489,55.4271 -1.5019,70 -0.553,14.575 -1.042,36.4021 -1.086,48.5 -0.044,12.1 -0.4402,22.45 -0.8808,23 -0.7992,0.9976 -2.4245,61.9895 -2.0469,76.8184 0.1397,5.486 -0.241,8.4897 -1.2754,10.0684 -1.1721,1.7889 -1.4987,6.6385 -1.5957,23.6816 -0.067,11.7878 -0.615,26.6087 -1.2168,32.9316 -0.6017,6.325 -1.2103,14.2021 -1.3515,17.5 -0.1412,3.3 -0.56,10.3931 -0.9317,15.7618 -0.5739,8.2895 -0.4442,9.851 0.8652,10.3535 1.3313,0.5109 4.2565,8.1517 3.3809,8.832 -0.1736,0.1349 -3.2414,-0.1501 -6.8164,-0.6328 -3.575,-0.4827 -7.4,-0.8765 -8.5,-0.877 -1.1,-6e-4 -11.7875,0.126 -23.75,0.2813 -11.9625,0.1552 -21.75,-0.056 -21.75,-0.4688 0,-1.1545 -3.7971,-0.8884 -4.543,0.3184 -0.4291,0.6944 -2.8582,0.835 -6.9355,0.3984 -4.1879,-0.4485 -6.5028,-0.3045 -6.959,0.4336 -0.4949,0.8004 -1.2879,0.7795 -2.873,-0.084 -3.0806,-1.674 -81.3237,-2.3639 -83.2872,-0.7344 -0.8386,0.696 -2.8411,0.8866 -5.1386,0.4883 -2.0701,-0.3588 -7.1387,-1.031 -11.2637,-1.4922 -4.125,-0.4613 -9.8606,-1.419 -12.7461,-2.1289 -4.1784,-1.0279 -5.7168,-1.0332 -7.5527,-0.057 -2.9532,1.5805 -55.572,0.782 -58.6973,-0.8906 -1.5308,-0.8193 -3.6919,-0.6719 -8.7461,0.5957 -5.4264,1.3609 -9.223,1.5582 -19.8027,1.0273 -7.1989,-0.3612 -13.4093,-0.3428 -13.8008,0.055 -1.5895,1.5895 -3.832,1.022 -4.8574,-1.2285 -0.5986,-1.3138 -1.5075,-2.129 -2.0196,-1.8125 -0.9581,0.5921 -7.1633,0.8855 -40.7773,1.9238 -13.3525,0.4124 -21.7068,0.2192 -26.5,-0.6113 -11.4045,-1.9759 -26.2266,-1.3188 -35.2324,1.5606 -1.8141,0.58 -2.4203,0.2187 -3.2364,-1.9278 -0.9818,-2.5878 -1.1405,-2.6292 -7.7675,-2.0312 -3.72,0.3357 -8.1137,1.041 -9.7637,1.5683 -2.5109,0.8024 -3.2706,0.6273 -4.6602,-1.08 -1.8088,-2.2223 -3.8666,-2.6119 -5.4472,-1.0313 -0.5546,0.5546 -6.7935,1.449 -13.8574,1.9883 -7.066,0.5394 -13.0811,1.2139 -13.3672,1.5 -0.2861,0.2861 -1.6013,-0.4957 -2.9239,-1.7383 l -2.4043,-2.2598 -45.6699,-0.248 c -87.051,-0.4729 -158.2262,-0.335 -159.2676,0.3086 -0.5755,0.3557 -21.2895,0.7551 -46.0312,0.8867 -37.1164,0.1974 -45.2249,0.4856 -46.3574,1.6465 -1.597,1.6371 -2.3421,11.5509 -0.9551,12.7109 2.3707,1.9826 8.7919,3.3474 12.2754,2.6094 4.0822,-0.8648 3.9903,-0.8584 34.4844,-2.2949 11.9979,-0.5653 22.6819,-1.3015 23.7382,-1.6367 3.7403,-1.1871 70.5062,-2.9983 101.4434,-2.752 55.5403,0.442 97.8959,0.047 100.0469,-0.9336 1.7031,-0.7764 3.1434,-0.764 5.1582,0.049 1.5373,0.6166 3.6949,1.0879 4.7949,1.0449 1.1,-0.043 18.2,0.2692 38,0.6933 19.8,0.4242 38.475,0.7022 41.5,0.6192 3.025,-0.082 8.2,-0.082 11.5,0 10.8911,0.2724 25.8904,-0.064 33,-0.7403 3.85,-0.366 10.3764,-0.191 14.498,0.3887 4.7485,0.6675 7.8462,0.7047 8.4493,0.1016 1.3539,-1.3539 12.2855,-1.1913 13.1425,0.1953 0.5202,0.8417 8.5831,0.9931 30.3106,0.5703 25.0081,-0.4867 30.6454,-0.3288 36.3418,1.0156 6.1824,1.4594 6.8907,1.4665 8.5195,-0.016 1.473,-1.333 2.5418,-1.4319 6.2578,-0.5762 2.5137,0.5788 13.2621,0.9186 24.4805,0.7735 17.4893,-0.2267 42.6742,-0.2889 55,-0.1368 2.2,0.027 9.0071,0.3531 15.127,0.7247 10.9565,0.6654 11.1631,0.6384 13.5,-1.8125 1.3051,-1.3687 3.8355,-2.7942 5.623,-3.168 2.8945,-0.6054 3.25,-0.4375 3.25,1.539 0,1.2206 -0.7875,2.8251 -1.75,3.5665 -1.479,1.1394 1.5014,1.2763 19.25,0.8808 11.55,-0.2574 22.125,-0.52 23.5,-0.584 1.375,-0.064 6.325,-0.1182 11,-0.1191 36.5564,-0.01 87.168,1.2479 89,2.207 0.825,0.432 3.9749,1.0939 7,1.4707 4.8036,0.5984 6.0698,0.3596 10,-1.8867 4.8576,-2.7764 10.8566,-3.3603 15.6777,-1.5273 4.1634,1.5829 63.7039,2.3585 68.9258,0.9004 3.3261,-0.93 4.9617,-0.8558 8.627,0.3886 2.5501,0.8657 7.7039,1.5058 11.8144,1.4668 6.1877,-0.058 7.6328,-0.4121 9.5547,-2.334 l 2.2656,-2.2636 2.2422,2.3867 c 2.1342,2.2719 2.8458,2.386 14.8164,2.373 6.9166,-0.01 13.6557,-0.3032 14.9746,-0.6562 2.2864,-0.6118 2.3116,-0.7064 0.5371,-2.0039 -6.3936,-4.6767 -27.9157,-7.6146 -53.7695,-7.3418 -11.6411,0.1229 -23.866,-0.1608 -27.166,-0.6309 -3.3,-0.4701 -11.625,-0.572 -18.5,-0.2265 -7.4584,0.3748 -12.9821,0.2417 -13.6953,-0.3282 -0.6574,-0.5253 -3.3574,-0.88 -6,-0.789 -10.5151,0.3631 -10.3882,0.4961 -4.5664,-4.7715 2.8806,-2.6065 5.6792,-5.9682 6.2187,-7.4707 1.1403,-3.1759 0.408,-3.7453 -8.7851,-6.8223 -7.6474,-2.5596 -9.5861,-2.4298 -12.3321,0.8242 -2.4051,2.85 -7.2387,5.5509 -12.1035,6.7637 -5.4669,1.3627 -5.5533,0.8991 -5.5293,-29.3164 0.012,-15.2297 0.425,-28.752 0.918,-30.0488 0.4931,-1.2969 0.944,-7.1528 1.002,-13.0137 0.058,-5.8608 0.4931,-12.235 0.9648,-14.166 0.5978,-2.447 0.3986,-5.0225 -0.6563,-8.5 -1.9374,-6.3868 -2.142,-66.2081 -0.2832,-82.8184 0.9904,-8.8507 0.9789,-10.9771 -0.1,-11.6387 -0.7226,-0.4445 -0.9719,-1.3552 -0.5566,-2.0273 0.414,-0.6698 0.8632,-4.4321 0.9961,-8.3613 0.8086,-23.8886 1.6861,-48.0921 2.4902,-68.6446 0.5057,-12.9229 0.7954,-41.05 0.6446,-62.5 -0.1508,-21.4479 0.038,-39.9 0.4199,-41 1.1725,-3.3768 2.2728,-61.8292 3.0117,-160 0.1117,-14.8479 -0.09,-32.175 -0.4473,-38.5 -0.3574,-6.3229 -0.6371,-12.625 -0.6211,-14 0.1975,-17.4681 -0.3561,-36.6977 -1.0781,-37.4492 -1.2218,-1.2714 -1.165,-5.2777 0.088,-6.0508 1.435,-0.8869 1.3043,-15.5 -0.1387,-15.5 -0.8082,0 -0.9091,-1.5256 -0.3476,-5.25 1.7042,-11.3011 1.8884,-25.1295 0.373,-27.9609 -0.7932,-1.4822 -0.8986,-4.4854 -0.3379,-9.7168 1.4905,-13.9071 1.3586,-43.12 -0.2168,-47.8418 -0.7837,-2.3486 -1.1625,-4.6941 -0.8418,-5.2129 0.3203,-0.5189 0.4773,-11.2 0.3536,-23.7304 -0.2585,-25.7876 -0.2512,-25.8068 0.07,-67.0645 0.2461,-30.99437 -0.2711,-42.11248 -2.0879,-45.83593 -0.77,-1.578 -0.6215,-2.89195 0.5625,-5.18165 1.3478,-2.60605 1.5855,-7.62267 1.5625,-33.38476 -0.034,-37.45616 0.087,-47.07365 0.5957,-47.89648 0.2184,-0.35348 0.6762,-22.64411 1.0176,-49.53321 0.5592,-44.03432 1.0956,-72.85071 1.8242,-97.39062 0.3345,-11.26274 2.1801,-25.32411 3.6875,-28.14063 0.897,-1.67562 0.9007,-2.36235 0.061,-2.64453 -0.6289,-0.20963 -1.1445,-1.5512 -1.1445,-2.98242 0,-1.43122 -0.912,-3.57298 -2.0234,-4.75781 -1.8427,-1.96141 -1.9219,-2.62735 -0.8907,-7.43555 0.6703,-3.12571 0.8533,-7.98664 0.4492,-11.91016 -0.7792,-7.56827 -0.8215,-10.62848 -0.3378,-24.85156 0.2144,-6.30605 0.8189,-10.69209 1.5761,-11.44922 1.6079,-1.6079 1.5544,-3.91231 -0.1465,-6.35547 -2.5482,-3.65996 -3.8418,-15.30953 -2.6679,-24.02148 0.5892,-4.37318 1.3403,-9.18184 1.6699,-10.6875 0.4114,-1.87959 0.1519,-2.91029 -0.8301,-3.28711 -1.116,-0.42828 -1.2784,-1.69337 -0.7383,-5.76172 0.3849,-2.89889 0.2776,-5.73443 -0.2422,-6.38672 -0.5825,-0.731 -0.5127,-5.02191 0.1875,-11.38476 0.618,-5.61638 1.0276,-11.61472 0.9102,-13.32813 -0.2806,-4.09243 1.0685,-10.61523 2.1953,-10.61523 1.4293,0 1.0213,-3.73412 -0.4707,-4.30664 -0.7521,-0.28862 -1.6562,-2.74775 -2.0215,-5.50196 -0.5064,-3.81742 -1.1818,-5.86409 -2.2539,-6.23242 z M 1485.834,834.76758 c -0.5685,1.31071 -13.6951,7.35016 -15.2871,7.0332 -1.8073,-0.35981 -7.5449,3.25817 -7.5449,4.76172 0,0.5846 -1.352,2.3567 -3.002,3.9375 -1.65,1.5808 -3,3.42725 -3,4.10352 0,0.67605 -0.4035,1.37916 -0.8965,1.5625 -0.4929,0.18333 -3.1929,4.33513 -6,9.22656 -3.7598,6.5514 -5.1035,9.92822 -5.1035,12.81836 0,4.99413 3.6646,9.97465 9.3301,12.67968 3.5042,1.67324 4.9536,1.84144 9.082,1.05079 2.7018,-0.51744 6.7518,-2.01247 9,-3.32227 2.2482,-1.30981 6.675,-3.19291 9.8379,-4.18359 7.5064,-2.35118 15.6906,-10.57866 16.4961,-16.58399 0.2877,-2.14481 0.8714,-4.11589 1.2969,-4.3789 1.2924,-0.79871 0.057,-21.05124 -1.4629,-23.98047 -0.7652,-1.47485 -2.6097,-3.31297 -4.0996,-4.08594 -2.913,-1.51127 -8.1014,-1.8952 -8.6465,-0.63867 z m -209.3223,10.38672 c -0.7408,0.74074 1.5708,4.8457 2.7285,4.8457 1.1683,0 0.9063,-1.41704 -0.6582,-3.55664 -0.7801,-1.06675 -1.7122,-1.64713 -2.0703,-1.28906 z M 244.6543,1061.332 c -2.75356,0.1767 -5.55767,1.4277 -9.89649,3.8516 -4.24841,2.3735 -10.09571,6.4559 -12.99219,9.0703 -2.89627,2.6144 -7.5887,6.8017 -10.42773,9.3047 -2.83904,2.5031 -5.91114,6.1283 -6.82617,8.0566 -0.91503,1.9283 -2.25636,3.7332 -2.98242,4.0118 -1.75543,0.6737 -7.50751,12.4648 -8.21875,16.8476 -0.91184,5.619 3.75891,13.0042 10.37304,16.4024 2.78755,1.4322 10.80334,1.452 15.32227,0.025 1.92137,-0.6041 4.67925,-1.1937 6.12695,-1.3105 1.4477,-0.1168 3.39143,-0.9732 4.32031,-1.9023 2.12263,-2.1226 8.84225,-2.2435 10.54688,-0.1895 1.78323,2.1487 8.30284,1.9276 10.36523,-0.3516 1.37651,-1.521 1.56266,-3.0835 1.03711,-8.75 l -0.64062,-6.8984 5.61914,-10.9062 C 261.8104,1088.0559 262,1087.4228 262,1079.7949 c 0,-9.9993 -1.46939,-13.0065 -7.75195,-15.8613 -4.13761,-1.8802 -6.8404,-2.7782 -9.59375,-2.6016 z M 2659,1241 c 0,0.55 -1.8224,1 -4.0488,1 -5.1748,0 -14.1533,5.5404 -16.541,10.207 -0.9268,1.8112 -2.91,4.868 -4.4082,6.793 -3.9414,5.0643 -7.002,12.6358 -7.002,17.3223 0,3.0524 0.6713,4.7686 2.6875,6.873 1.4779,1.5426 3.1702,2.8047 3.7617,2.8047 0.5916,0 1.9205,1.125 2.9531,2.5 2.713,3.6126 6.5494,3.198 15.7442,-1.7012 10.2201,-5.4455 20.6761,-15.8701 21.5566,-21.4922 0.3278,-2.0937 1.2047,-4.6944 1.9473,-5.7793 1.6026,-2.3417 1.6039,-2.3924 0.039,-9.9043 -1.1774,-5.6575 -1.387,-5.9429 -5.7051,-7.6933 C 2665.0696,1239.9367 2659,1239.423 2659,1241 Z m -1038.0508,166.3066 c -0.053,0.6105 -0.114,1.2204 -0.1758,1.8301 0.058,0.01 0.1148,0.016 0.1719,0.027 4e-4,-0.6185 -0,-1.237 0.01,-1.8555 z m 56.4317,7.1114 c 0.066,0.1825 0.1281,0.3661 0.1933,0.5488 -0.049,-0.1436 0.01,-0.3904 -0.1933,-0.5488 z m -61.2891,9.4804 c -0.1295,0.016 -0.2096,0.2983 -0.3379,0.293 0.064,0.2072 0.2673,0.1986 0.3379,0.3965 -3e-4,-0.2298 2e-4,-0.4596 0,-0.6895 z m 15.834,8.8008 -0,0 c 0,0.01 -0.01,0.01 -0.012,0.016 0,8e-4 0.01,0 0.014,0 -2e-4,-0.01 0,-0.013 0,-0.02 z m 58.3965,7.8789 c -0.1125,0.1972 -0.1968,0.412 -0.3028,0.6133 0.1308,-0.045 0.2629,-0.086 0.3907,-0.125 -0.03,-0.1627 -0.058,-0.3257 -0.088,-0.4883 z m -0.7657,5.916 c 8e-4,-0 0,0.043 0,0.043 8e-4,-0.01 -9e-4,-0.04 0,-0.043 z m 0,0.043 c -0.01,0.057 -0.01,0.206 -0.01,0.4199 0.01,-0.041 0.02,-0.081 0.029,-0.1211 -0.01,-0.2472 -0.014,-0.2978 -0.02,-0.2988 z m -3.0175,9.0859 c -0.1497,0.1813 -0.2964,0.365 -0.4453,0.5469 0.057,0.039 0.1,0.048 0.1562,0.088 0.095,-0.2122 0.1948,-0.4222 0.2891,-0.6348 z m 519.7402,242.3165 c -7.916,-0.6718 -17.1148,2.6379 -20.2832,8.2753 -1.1699,2.0817 -2.4908,3.7852 -2.9336,3.7852 -0.4429,0 -1.0473,1.4943 -1.3437,3.3203 -0.2963,1.8259 -1.7052,5.0379 -3.1309,7.1387 -4.8214,7.1047 -2.7254,13.9192 5.5742,18.125 3.5107,1.779 5.9389,2.3973 7.7266,1.9668 1.4339,-0.3453 3.6318,-0.7971 4.8828,-1.0039 6.6757,-1.1038 13.4235,-4.1286 17.8555,-8.002 2.6781,-2.3406 6.6691,-5.1765 8.8691,-6.3027 4.5735,-2.3414 8.0809,-5.8308 8.7852,-8.7422 1.0506,-4.3431 0.6457,-8.4265 -0.9961,-10.0684 -2.3524,-2.3523 -7.6207,-4.4316 -11.2266,-4.4316 -1.6509,0 -4.604,-0.9 -6.5625,-2 -2.0827,-1.1698 -4.5781,-1.8366 -7.2168,-2.0605 z m -1.6504,20.1035 c 1.5877,-0.061 2.4273,3.7956 1.0234,4.7011 -5.668,3.6574 -11.0409,4.4734 -10.4804,1.5938 0.3158,-1.6227 7.2058,-6.2089 9.457,-6.2949 z m -1184.0625,8.3242 c -1.0655,0.1287 -1.7286,0.6483 -2.793,1.6523 -1.7631,1.661 -3.1234,2.0378 -6.0214,1.6602 -6.2697,-0.8168 -9.6815,2.3038 -12.37504,11.3203 -5.00129,16.7415 -5.5378,25.4701 -1.83789,29.8672 8.29703,9.8605 18.54993,10.0511 32.95703,0.6133 8.7301,-5.7189 11.761,-8.9817 16.0938,-17.3262 1.0407,-2.0083 0.8851,-2.8341 -1.0977,-5.7559 -1.6055,-2.3658 -2.2951,-4.7744 -2.2481,-7.8613 0.037,-2.4482 -0.5376,-5.181 -1.2773,-6.0723 -2.109,-2.5412 -9.9209,-6.1163 -16.1934,-7.4121 -2.6735,-0.5522 -4.1415,-0.8143 -5.207,-0.6855 z m 1450.6797,97.0019 c 1.2375,0.3317 3.2625,0.6072 4.5,0.6172 1.3273,0.01 2.25,0.6289 2.25,1.5137 0,1.7656 -0.4859,1.8466 -3.0059,0.498 -1.2524,-0.6703 -2.0779,-0.6703 -2.4921,0 -1.1196,1.8115 -3.502,1.0524 -3.502,-1.1152 0,-1.707 0.4354,-2 2.25,-1.5137 z m 640.25,12.7696 c -4.4,-0.3734 -10.5969,-0.2754 -13.7715,0.2168 -3.5663,0.5529 -12.3551,0.4856 -23,-0.1758 -25.6654,-1.5951 -96.9725,-1.5321 -99.4785,0.096 -0.6875,0.445 -1.25,1.6666 -1.25,2.7148 0,2.7514 -4.3309,4.5677 -9.75,4.0879 -2.3576,-0.2088 -1.2775,-3.7136 1.5,-4.8672 2.2229,-0.9233 0.5633,-1.066 -8.6582,-0.7461 -7.9239,0.2747 -11.6601,0.7939 -12.2344,1.6993 -1.2961,2.0435 -1.0258,2.7928 1.3926,3.8632 l 2.25,0.9961 -2.3281,-0.455 c -1.6716,-0.3268 -2.1826,-0.071 -1.8067,0.9082 0.2896,0.7547 -0.2327,1.5637 -1.1699,1.8086 -0.9321,0.2436 0.3297,0.1819 2.8047,-0.1368 2.475,-0.3186 7.65,-0.696 11.5,-0.8379 35.2807,-1.3019 35.138,-1.2842 33.5195,-4.3085 -1.2678,-2.3688 1.6575,-3.1385 7.9805,-2.1016 4.3734,0.7173 4.305,1.0218 -0.5742,2.5625 -1.3554,0.4279 -1.379,0.6953 -0.1641,1.9101 1.1513,1.1513 9.0408,1.5104 42.8242,1.9512 22.7772,0.2972 46.7441,0.8599 53.2579,1.25 9.499,0.5688 12.0096,0.4395 12.6855,-0.6543 0.6875,-1.1124 1.7307,-1.149 5.6562,-0.1992 2.6477,0.6402 14.6782,1.4092 26.7344,1.709 12.0563,0.2998 22.1451,0.768 22.418,1.041 0.865,0.8649 7.7226,0.5343 8.7129,-0.4199 0.5748,-0.5538 4.504,-0.5524 9.9492,0 5.2877,0.5383 13.5372,0.5553 20,0.045 7.0715,-0.5601 11.8928,-0.5146 13.5,0.127 1.3913,0.5555 16.1821,1.1709 33.3516,1.3886 18.3057,0.2321 31.6261,0.8075 32.7597,1.4141 1.1055,0.5951 6.1516,0.8409 11.9766,0.5937 8.8415,-0.3752 10.2443,-0.6843 11.5449,-2.541 1.9429,-2.7739 4.472,-2.6734 7.6856,0.3047 3.3515,3.1061 11.9508,5.59 21.5722,6.2305 4.1741,0.2778 8.1059,0.9337 8.7364,1.457 0.6306,0.5232 4.235,1.5831 8.0097,2.3555 3.7748,0.7723 10.3146,2.3112 14.5332,3.4199 6.2973,1.6548 9.6091,1.9197 18.5,1.4746 5.9564,-0.2983 12.7227,-1.229 15.0371,-2.0683 2.9541,-1.0711 5.6361,-1.3118 9,-0.8047 4.7185,0.7112 37.1248,0.6284 79.293,-0.2032 11.825,-0.2327 26.1125,-0.3612 31.75,-0.2832 l 10.25,0.1426 V 1855.5527 1850 l -45.75,0.5176 c -25.1625,0.2842 -46.875,0.803 -48.25,1.1523 -4.4181,1.1224 -62.7174,1.9134 -63.7656,0.8653 -0.3124,-0.3125 -2.6295,-0.5884 -5.1504,-0.6114 -6.5475,-0.061 -15.0972,-2.2559 -16.5567,-4.2519 -0.9481,-1.2966 -2.7782,-1.705 -7.6367,-1.7149 -3.5144,-0.01 -8.5989,-0.6811 -11.2988,-1.5 -3.2777,-0.9943 -9.2766,-1.4902 -18.0508,-1.4902 -7.2276,0 -13.5697,-0.4291 -14.0937,-0.9531 -0.524,-0.5239 -8.6008,-1.1981 -17.9493,-1.5 -9.3464,-0.3018 -23.973,-0.8775 -32.498,-1.2793 -8.525,-0.4017 -24.275,-0.7865 -35,-0.8535 -10.725,-0.067 -26.25,-0.593 -34.5,-1.17 -8.25,-0.5771 -24.675,-0.9013 -36.5,-0.7207 -11.825,0.1805 -25.1,0.022 -29.5,-0.3515 z m -643.3203,0.9375 c 1.6635,0.1535 3.4052,0.917 4.6465,2.2383 1.1959,1.2729 2.1738,2.6304 2.1738,3.0175 0,0.3872 -2.2546,0.6244 -5.0098,0.5274 -5.6126,-0.1986 -8.0008,-1.9368 -5.9902,-4.3594 0.9302,-1.1208 2.5161,-1.5773 4.1797,-1.4238 z m 466.9824,3.3945 c -1.4638,0.3683 -5.8121,1.0411 -9.6621,1.4961 -3.85,0.455 -9.5001,1.5542 -12.5547,2.4434 -7.0737,2.0592 -38.8457,2.5785 -43.3789,0.7089 -2.2539,-0.9298 -5.1072,-0.9456 -12.3086,-0.09 -5.9321,0.7083 -9.8122,0.7697 -10.5664,0.1699 -1.0762,-0.8559 -38.0163,-2.8338 -43.4414,-2.3262 -4.3349,0.4056 -10.8433,0.289 -21.75,-0.3867 -8.9459,-0.5542 -11.5454,-0.3922 -13.9199,0.8614 -2.0666,1.091 -3.4521,1.2548 -4.7422,0.5644 -1.3282,-0.7109 -3.2109,-0.3781 -6.9414,1.2266 -3.9262,1.6891 -5.5239,1.95 -6.8574,1.1172 -0.9563,-0.5972 -7.3876,-1.4075 -14.2911,-1.8008 -11.5865,-0.6602 -12.5787,-0.5787 -12.9003,1.0742 -0.21,1.0797 -1.9355,2.2808 -4.3477,3.0254 -3.7495,1.1574 -3.3111,1.2428 7,1.3574 6.05,0.067 15.05,0.5468 20,1.0645 4.95,0.5177 10.575,0.6099 12.5,0.205 1.925,-0.4049 10.925,-0.4708 20,-0.1504 l 16.5,0.586 2.5195,-2.8652 c 2.6407,-3.0017 6.4161,-3.0591 5.2715,-0.068 -0.3204,0.835 0.025,1.8936 0.7656,2.3516 2.2049,1.3627 14.7126,2.1914 36.7227,2.4336 11.3968,0.1232 32.1636,1.0037 46.1484,1.9531 17.0164,1.1552 26.1127,1.4041 27.5,0.7519 5.7857,-2.7201 11.6364,-5.1738 12.3379,-5.1738 0.4335,0 1.974,-1.35 3.4219,-3 1.6457,-1.8755 3.697,-3.0573 5.4727,-3.1523 1.5621,-0.084 3.2898,-0.257 3.8398,-0.3848 0.55,-0.1277 1.3533,-0.2847 1.7852,-0.3477 0.4318,-0.063 0.2801,-1.0599 -0.3379,-2.2148 -0.8821,-1.6482 -1.696,-1.9553 -3.7852,-1.4297 z m -254.3398,0.2754 c -6.9454,0.6029 -14.1741,0.6339 -18.6993,0.086 -5.7998,-0.7051 -7.8318,-0.5987 -9.5058,0.4981 -1.4818,0.971 -2.863,1.1236 -4.5488,0.5 -1.3317,-0.4926 -6.9361,-0.769 -12.4551,-0.6133 l -10.0352,0.2832 -0.6386,3.127 -0.6368,3.1269 6.0996,0.6074 c 16.1862,1.6115 28.603,1.8437 36.7481,0.6875 7.462,-1.0593 9.0154,-1.0134 11.6172,0.3321 2.2843,1.1813 6.2654,1.5527 16.623,1.5527 7.4905,0 14.4056,-0.3227 15.3653,-0.7168 1.3868,-0.5696 1.1797,-0.7817 -1.0059,-1.0332 -3.3802,-0.389 -3.7499,-3.4329 -0.5879,-4.8438 1.7666,-0.7883 0.4054,-1.2951 -7.4277,-2.7695 -8.1333,-1.5309 -11.3104,-1.6571 -20.9121,-0.8242 z M 2307,1841 c 0.55,0 1,0.1988 1,0.4414 0,0.2425 -0.45,0.7187 -1,1.0586 -0.55,0.3399 -1,0.1411 -1,-0.4414 0,-0.5824 0.45,-1.0586 1,-1.0586 z m 72,0 c 0.55,0 1,0.45 1,1 0,0.55 -0.45,1 -1,1 -0.55,0 -1,-0.45 -1,-1 0,-0.55 0.45,-1 1,-1 z m 577.1777,0.1895 c 2.1201,0.3168 2.0401,0.4495 -0.9062,1.5195 -3.1843,1.1565 -6.0135,-0.1033 -2.9082,-1.2949 0.8199,-0.315 2.5369,-0.4155 3.8144,-0.2246 z M 2651,1845 c 1.1,0 2,0.4098 2,0.9062 0,0.4985 -0.9,0.6706 -2,0.3829 -1.1,-0.2876 -2,-0.6955 -2,-0.9063 0,-0.2109 0.9,-0.3828 2,-0.3828 z m -11.1875,0.3164 c 0.7219,-0.2888 1.5837,-0.2502 1.916,0.08 0.3323,0.3323 -0.2584,0.5684 -1.3125,0.5254 -1.165,-0.048 -1.4012,-0.2863 -0.6035,-0.6055 z m 118.7715,0.6992 c 1.0542,0.01 2.591,0.471 3.416,1.0293 1.0955,0.7413 0.6909,0.8358 -1.5,0.3457 -3.6769,-0.8225 -4.4744,-1.395 -1.916,-1.375 z m 20.166,0 c 0.6875,-0.01 1.25,0.4344 1.25,0.9844 0,0.55 -1.2375,0.9944 -2.75,0.9844 -2.1429,-0.012 -2.4189,-0.229 -1.25,-0.9844 0.825,-0.5332 2.0625,-0.9744 2.75,-0.9844 z m -38.7051,0.1699 c 0.7083,0.2098 0.7453,0.7195 -0.1855,1.4415 -0.7479,0.5801 -2.4844,0.7411 -3.8594,0.3574 l -2.5,-0.6973 2.707,-0.7402 c 1.7504,-0.4793 3.1297,-0.5711 3.8379,-0.3614 z m -132.7949,1.125 c -0.9625,0.2515 -0.175,0.4571 1.75,0.4571 1.925,0 2.7125,-0.2056 1.75,-0.4571 -0.9625,-0.2516 -2.5375,-0.2516 -3.5,0 z m 163.5625,0.01 c 0.7219,-0.2888 1.5837,-0.2502 1.916,0.08 0.3323,0.3323 -0.2584,0.5684 -1.3125,0.5254 -1.165,-0.048 -1.4012,-0.2863 -0.6035,-0.6055 z m 162.9375,0.021 c -0.6875,0.2774 -0.125,0.5039 1.25,0.5039 1.375,0 1.9375,-0.2265 1.25,-0.5039 -0.6875,-0.2774 -1.8125,-0.2774 -2.5,0 z m -29.5,2.6777 c 0.4125,-0.01 0.75,0.4344 0.75,0.9844 0,0.55 -1.0125,0.9944 -2.25,0.9844 -1.8194,-0.012 -1.963,-0.2005 -0.75,-0.9844 0.825,-0.5332 1.8375,-0.9744 2.25,-0.9844 z M 2261.584,1855 c -6.5561,0 -12.115,1.362 -14.457,3.541 -0.7553,0.7026 -1.4649,3.4378 -1.5762,6.0781 -0.266,6.3125 2.9503,9.7337 8.6367,9.1914 3.5842,-0.3418 3.7764,-0.1945 5.4297,4.1348 0.9429,2.4688 1.8714,6.9783 2.0644,10.0215 0.615,9.6934 0.5283,56.9032 -0.2031,110.5332 -1.0956,80.332 -1.089,83.8126 0.1328,85.877 0.8532,1.4416 0.7374,2.5998 -0.5,5 -1.3571,2.6324 -1.6147,7.2127 -1.6347,29.123 -0.013,14.3 -0.3972,31.4 -0.8516,38 -0.543,7.8883 -0.4707,12.8566 0.2109,14.5 l 1.0371,2.5 0.062,-2.627 c 0.035,-1.4451 0.8136,-3.2451 1.7286,-4 1.5231,-1.2564 1.6025,-0.9937 0.9492,3.1153 -0.3924,2.4685 -1.3982,4.8708 -2.2363,5.3398 -1.2909,0.7226 -1.4799,3.4745 -1.2325,18.0137 0.2011,11.8201 0.6914,17.7721 1.5743,19.1309 0.7029,1.0849 1.2812,3.1937 1.2812,4.6855 0,1.4918 0.4363,3.8621 0.9707,5.2676 0.6016,1.5815 0.6333,4.3689 0.082,7.3144 -0.4899,2.6178 -0.6355,7.8066 -0.3242,11.5313 0.5299,6.3381 0.676,6.6724 2.293,5.209 1.7827,-1.6132 2.9637,-7.2601 3.3457,-15.9922 0.1206,-2.7562 0.4978,-5.4613 0.8379,-6.0117 0.3402,-0.5504 0.7223,-10.67 0.8476,-22.4883 0.1254,-11.8184 0.6387,-31.1633 1.1407,-42.9883 0.6331,-14.9142 0.5747,-24.0536 -0.1895,-29.8379 -0.7901,-5.9834 -0.7861,-8.7069 -0.02,-9.6426 0.5952,-0.7172 1.0535,-4.1654 1.0215,-7.6621 -0.1145,-12.3866 0.9471,-59.9772 1.3535,-60.6621 1.5067,-2.5397 2.3435,-59.9386 1.0293,-70.4746 -0.3841,-3.0794 -0.1579,-5.2945 0.6172,-6.2285 0.9058,-1.0916 0.9232,-2.2339 0.098,-4.625 -0.8021,-2.3 -0.8146,-5.6085 -0.033,-12.002 0.5902,-4.8542 0.7881,-9.2847 0.4414,-9.8457 -0.347,-0.5611 -0.366,-1.4453 -0.047,-1.9648 0.9076,-1.468 0.9479,-45.1929 0.045,-48.4551 -0.5107,-1.8451 -0.3737,-3.589 0.3769,-4.791 0.6491,-1.0394 0.9016,-2.3407 0.5606,-2.8926 -0.8996,-1.4556 2.3073,-5.916 4.2539,-5.916 0.9107,0 3.1245,0.5312 4.9179,1.1797 2.7439,0.9922 3.9147,0.8827 7.3926,-0.6856 2.2731,-1.0251 4.7755,-2.7816 5.5606,-3.9003 1.6607,-2.3709 1.8599,-5.2086 0.4277,-6.0938 -0.55,-0.3399 -1,-1.4131 -1,-2.3848 0,-4.3372 -11.1154,-10.5874 -17.541,-9.8632 -3.7968,0.428 -4.352,0.1983 -5.916,-2.4493 -2.1975,-3.7201 -5.1185,-4.8027 -12.959,-4.8027 z m -445.1152,159.2031 c -4.0206,-0.3731 -8.0886,0.2145 -11.5254,1.8242 -2.7184,1.2733 -4.9434,2.6323 -4.9434,3.0215 0,0.3893 -1.2375,1.2525 -2.75,1.918 -3.5911,1.58 -15.987,15.8112 -19.5,22.3867 -1.5123,2.8308 -2.7498,6.3281 -2.75,7.7735 -3e-4,4.1793 2.6996,9.5235 6.002,11.875 2.5654,1.8267 4.0235,2.0927 9.2714,1.7011 7.4752,-0.5578 14.9024,-2.6602 23.3457,-6.6113 4.912,-2.2986 7.278,-4.246 11.0137,-9.0566 7.9011,-10.1742 9.3672,-13.402 9.3672,-20.6368 0,-6.3509 0.021,-6.3984 2.8184,-6.3984 1.5502,0 5.1502,-0.6928 8,-1.5391 3.176,-0.9432 5.1816,-2.1043 5.1816,-3 0,-2.0276 -2.864,-1.8253 -7.4824,0.5293 -6.9588,3.5478 -9.8329,3.5772 -14.8164,0.1485 -3.2402,-2.2294 -7.2139,-3.5625 -11.2324,-3.9356 z M 2264,2136 c 1.7042,0 3.0052,3.5964 1.7539,4.8477 -1.4106,1.4106 -3.4248,1.4931 -4.2402,0.1738 -0.7281,-1.1781 1.1745,-5.0215 2.4863,-5.0215 z m 0.3438,11.0586 c 0.813,0.9179 1.6519,7.6137 1.0292,8.2363 -1.2851,1.2851 -2.3677,-0.4638 -1.7675,-2.8554 0.4811,-1.9168 0.2217,-2.4395 -1.211,-2.4395 -1.7114,0 -1.7201,-0.1041 -0.1328,-1.6914 0.9298,-0.9297 1.867,-1.4922 2.0821,-1.25 z M 2264,2184.5 c 0.55,0.3399 1,1.0149 1,1.5 0,0.4851 -0.45,1.1601 -1,1.5 -0.55,0.3399 -1,-0.3351 -1,-1.5 0,-1.1649 0.45,-1.8399 1,-1.5 z m -0.1211,69.9062 c -0.7488,-0.8468 -1.56,-0.7251 -2.3184,0.5 -0.308,0.4988 -1.4061,0.6843 -2.4394,0.4141 -3.1502,-0.8238 -4.0662,6.7303 -3.7852,31.2285 0.2399,20.9145 0.3707,22.2357 2.5137,25.7032 2.05,3.3148 2.123,3.8679 0.791,5.9511 -3.7404,5.8504 -4.6386,12.6068 -4.6386,34.8965 0,11.9552 0.2728,22.4456 0.6054,23.3125 1.2241,3.1901 2.4239,0.2957 1.8067,-4.3574 -0.72,-5.4271 0.9117,-7.7001 3.2402,-4.5156 1.6718,2.2863 1.7752,9.1524 0.1465,9.6953 -0.9354,0.3112 -0.935,0.5647 0,1.1426 1.9312,1.1935 3.4456,-4.2806 2.8476,-10.295 -0.3005,-3.0226 -0.07,-6.2939 0.5215,-7.3984 1.5587,-2.9124 2.8123,-37.0355 1.4121,-38.4356 -0.3702,-0.3702 -1.5849,-0.1021 -2.6992,0.5938 -1.8708,1.1683 -2.002,1.0492 -1.7051,-1.5391 0.1769,-1.5418 0.8848,-2.8587 1.5723,-2.9277 0.6875,-0.069 1.6315,-0.181 2.0977,-0.25 0.8823,-0.1301 2.3033,-17.2141 2.6972,-32.4277 0.1253,-4.8416 0.5081,-9.0843 0.8516,-9.4278 0.7218,-0.7218 0.01,-8.2195 -1.5742,-16.5195 -0.5083,-2.6675 -1.1942,-4.4927 -1.9434,-5.3438 z m -3.3125,7.6934 c 0.2568,-0.2569 0.8716,-0.047 1.3672,0.4668 1.8482,1.9143 2.2503,9.8236 0.6152,12.1074 -1.1487,1.6046 -1.3108,2.8241 -0.6172,4.6485 0.5608,1.475 0.6168,6.8495 0.1387,13.3242 -0.4407,5.9692 -0.5683,12.4264 -0.2851,14.3496 0.4491,3.0494 0.3193,3.3352 -1.0118,2.2305 -1.3103,-1.0874 -1.4656,-4.48 -1.0996,-23.9629 0.2345,-12.483 0.6358,-22.9073 0.8926,-23.1641 z m 0.2324,67.2422 c 0.3069,0.024 0.5889,0.5144 1.1133,1.4941 0.598,1.1176 1.0072,2.174 0.9082,2.3477 -0.099,0.1736 -0.3532,2.5575 -0.5644,5.2969 -0.3634,4.7149 -1.6937,6.9858 -3.4532,5.8984 -1.2613,-0.7795 -0.6724,-11.6919 0.7403,-13.7266 0.6185,-0.8909 0.949,-1.3344 1.2558,-1.3105 z M 2259,2347.5 c 0.55,-0.3399 1,-0.1781 1,0.3594 0,0.5375 0.2735,1.6886 0.6074,2.5586 0.3983,1.038 0.055,1.582 -1,1.582 -1.7657,0 -2.2372,-3.4927 -0.6074,-4.5 z m 0.4414,9.5 c 2.031,0 2.4615,1.1347 1.4492,3.8145 -1.0694,2.8315 -2.8906,1.9663 -2.8906,-1.3731 0,-1.4587 0.5803,-2.4414 1.4414,-2.4414 z m 560.6016,20.1934 c -1.8211,0.019 -3.6447,0.851 -7.0293,2.5097 -7.2511,3.5536 -22.0029,18.5307 -25.7051,26.0977 -3.1439,6.426 -3.2671,10.2422 -0.5352,16.418 3.2142,7.2642 5.5028,8.7812 13.2676,8.7812 5.6397,0 8.3137,-0.6921 17.4024,-4.5 5.9065,-2.4746 11.8761,-5.3932 13.2656,-6.4863 6.2371,-4.906 12.7651,-11.4381 14.334,-14.3438 0.9412,-1.7429 1.767,-5.2526 1.834,-7.7988 0.1084,-4.0986 -0.3155,-5.0732 -3.6954,-8.5 -3.7533,-3.8054 -5.2534,-4.7209 -16.1191,-9.8203 -3.3797,-1.5862 -5.1985,-2.377 -7.0195,-2.3574 z M 2261,2384 c -0.55,0 -1,1.0988 -1,2.4414 0,1.3425 0.45,2.7187 1,3.0586 0.5834,0.3606 1,-0.6567 1,-2.4414 0,-1.6824 -0.45,-3.0586 -1,-3.0586 z m 0.25,11.457 c -0.1657,0.2429 -0.2053,1.1248 -0.2188,2.793 -0.033,4.1145 -0.8989,4.5381 -4.4746,2.1953 -1.3047,-0.8549 -2.5826,-1.1924 -2.8398,-0.75 -0.2572,0.4423 -0.7733,14.5297 -1.1484,31.3047 -0.3752,16.775 -1.0873,35.3164 -1.5821,41.2031 -0.8861,10.5434 0.1487,39.4928 1.5391,43.041 0.3759,0.9593 1.0877,1.4957 1.5801,1.1914 0.4924,-0.3043 0.8945,-0.1147 0.8945,0.4219 0,0.5367 -0.5053,1.1437 -1.123,1.3496 -0.6544,0.2181 -1.4968,4.7402 -2.0176,10.834 -0.4917,5.7525 -1.3089,11.4325 -1.8164,12.6231 -0.5074,1.1905 -0.9789,6.3655 -1.0469,11.5 -0.1872,14.0537 -0.1719,14.2132 1.2539,13.1347 2.5719,-1.9454 5.7148,-1.2866 6.373,1.336 0.466,1.8565 0.9235,2.2202 1.754,1.3906 0.7143,-0.7134 1.2124,-6.8937 1.3671,-16.9746 0.1338,-8.7187 0.4485,-16.4591 0.6993,-17.2012 0.7832,-2.3172 2.0397,-50.6851 1.75,-67.3496 -0.096,-5.5 -0.041,-13.9397 0.1211,-18.7559 0.317,-9.4097 -0.3502,-12.1088 -2.4727,-9.9863 -1.817,1.817 -2.8418,1.5218 -2.8418,-0.8203 0,-1.5653 0.5427,-1.9874 2.25,-1.75 2.1429,0.298 2.2452,0 2.1562,-6.1875 -0.051,-3.575 -0.2133,-7.85 -0.3613,-9.5 -0.1481,-1.65 0.3654,-5.225 1.1426,-7.9434 1.6617,-5.8126 1.6815,-13.2337 0.037,-16.0566 -0.5176,-0.8897 -0.8089,-1.2858 -0.9746,-1.043 z m -3,15.7383 c 0.9625,-0.1881 1.7444,0.028 1.7344,0.4805 -0.031,1.7148 -2.5405,5.685 -3.8731,6.125 -0.98,0.3236 -1.1273,0.052 -0.5,-0.9219 0.4891,-0.7588 0.8887,-2.2696 0.8887,-3.3594 0,-1.0901 0.7872,-2.1361 1.75,-2.3242 z M 2257,2445.5 c 0.55,-0.3399 1,0.084 1,0.9414 0,0.8574 -0.45,1.5586 -1,1.5586 -0.55,0 -1,-0.4238 -1,-0.9414 0,-0.5175 0.45,-1.2187 1,-1.5586 z m 0.1113,7.0684 c 0.891,0.5507 1.2961,12.4316 0.4239,12.4316 -0.2557,0 -0.9548,-0.9181 -1.5547,-2.0391 -1.2404,-2.3177 -0.2679,-11.2569 1.1308,-10.3925 z M 2256.9785,2471 c 1.3687,0 1.3032,5.7032 -0.066,6.5547 -0.598,0.3695 -1.5747,0.1831 -2.1719,-0.4141 -1.2559,-1.2559 0.5245,-6.1406 2.2383,-6.1406 z M 2256,2486.5 c 0.55,0.3399 1,1.0672 1,1.6172 0,0.55 -0.45,0.7227 -1,0.3828 -0.55,-0.3399 -1,-1.0672 -1,-1.6172 0,-0.55 0.45,-0.7227 1,-0.3828 z m 0.8008,15.9668 c 0.957,0.9571 1.0937,6.0852 0.2012,7.5293 -0.5701,0.9227 -0.9279,0.9307 -1.4766,0.045 -0.875,-1.4158 0.3225,-8.527 1.2754,-7.5742 z m -1.6113,23.7051 c 2.4971,0.354 3.2444,3.2849 1.9648,7.7109 -0.5604,1.9381 -0.8945,2.1247 -1.791,1 -0.6062,-0.7605 -1.4134,-3.1058 -1.793,-5.2109 -0.6469,-3.587 -0.5455,-3.8068 1.6192,-3.5 z m -0.2852,11.4453 c 0.5012,-0.3079 1.0997,-0.047 1.4902,0.9707 0.7491,1.9523 0.761,1.9347 -0.061,2.7461 -1.2554,1.2555 -2.334,0.6657 -2.334,-1.2754 0,-1.2576 0.4031,-2.1335 0.9043,-2.4414 z M 2254,2557 c 1.2732,1.9701 1.2732,4.2869 0,3.5 -0.55,-0.3399 -0.9944,-1.6036 -0.9844,-2.8086 0.012,-1.7813 0.1963,-1.9109 0.9844,-0.6914 z m -0.8711,25.9434 -3.6309,0.5878 -0.2773,14.7344 c -0.1579,8.4074 0.1145,14.7344 0.6348,14.7344 1.9936,0 4.1469,-4.8565 3.2265,-7.2773 -0.9324,-2.4524 0.6582,-10.7227 2.0625,-10.7227 1.358,0 2.088,2.164 1.0723,3.1797 -0.9377,0.9377 -0.5885,23.7331 0.3789,24.7363 1.0536,1.0925 1.9585,-1.6687 2.5371,-7.7461 0.3492,-3.668 0.593,-12.0699 0.543,-18.6699 -0.1025,-13.5145 -0.5897,-14.523 -6.5469,-13.5566 z m 4.4629,43.5566 -0.9531,4 c -1.0224,4.295 -3.4713,6.8861 -5.1699,5.4746 -0.57,-0.4733 -1.6434,-0.4929 -2.3868,-0.025 -1.0572,0.6534 -1.1168,1.5105 -0.2734,3.9297 0.6257,1.7949 0.8314,6.0371 0.4902,10.1074 L 2248.709,2657 h 3.5879 c 1.9724,0 3.8674,0.4566 4.2129,1.0156 1.3224,2.1397 2.4908,-0.3424 2.5058,-5.3242 0.01,-2.8551 0.4512,-5.8664 0.9844,-6.6914 1.3757,-2.1288 1.2411,-4.5344 -0.7012,-12.5 z m -8.293,38.7207 c -0.9712,0.9046 -1.4016,7.0688 -1.7441,21.7793 -1.3498,57.9732 -0.7628,92.1331 1.6015,93.5957 1.7384,1.0743 0.7502,6.5896 -1.8984,10.5918 -2.7091,4.0939 -2.7456,4.3645 -2.9414,21.9609 l -0.1992,17.8164 3.043,3.043 c 2.133,2.1334 2.7536,3.4086 2.0722,4.2676 -0.5344,0.6738 -1.0363,4.8246 -1.1133,9.2246 -0.077,4.4 -0.3474,10.7663 -0.6015,14.1484 -0.4216,5.613 -0.3011,6.107 1.3926,5.6641 1.1816,-0.309 2.443,0.3542 3.4726,1.8242 1.5113,2.1576 1.6172,0.9378 1.6172,-18.6699 0,-12.2907 0.4493,-22.4261 1.0859,-24.4727 1.7228,-5.5388 1.9671,-33.0287 0.4434,-49.8632 -0.9591,-10.5973 -1.079,-16.1852 -0.3887,-18 1.7884,-4.7021 3.1613,-21.2397 3.2617,-39.2969 0.054,-9.7163 0.4694,-18.0372 0.9239,-18.4922 0.4545,-0.4549 0.567,-2.1239 0.25,-3.709 -0.317,-1.585 -0.5762,-8.7027 -0.5762,-15.8164 0,-7.728 -0.3754,-12.7032 -0.9316,-12.3594 -0.512,0.3164 -1.2132,0.1176 -1.5586,-0.4414 -0.3455,-0.559 -1.6997,-1.0156 -3.0098,-1.0156 -1.3101,0 -2.6754,-0.4737 -3.0332,-1.0527 -0.461,-0.7458 -0.8442,-1.0281 -1.168,-0.7266 z M 647.12109,2798.1895 c -4.17503,0.2584 -8.51118,3.9146 -15.86718,11.1464 -7.15942,7.0383 -11.75701,12.5995 -15.25196,18.4473 -4.48562,7.5057 -4.96664,8.8738 -4.64453,13.2207 0.19761,2.6666 1.4346,6.9879 2.75,9.6035 2.05496,4.0863 3.02607,4.9417 6.89258,6.0781 4.61268,1.3557 11.67727,0.5074 16.5,-1.9824 4.85371,-2.5059 29.3237,-24.7031 27.23242,-24.7031 -0.38065,0 0.18608,-1.4625 1.25781,-3.25 1.21255,-2.022 1.7705,-4.3363 1.47852,-6.125 -0.25811,-1.5813 -0.46875,-4.1379 -0.46875,-5.6816 0,-2.0679 -1.30886,-4.0446 -4.9707,-7.5118 -6.718,-6.3606 -10.73297,-9.5006 -14.90821,-9.2421 z M 2250.3926,2849 c 0.2162,0 0.6521,0.675 0.9687,1.5 0.3166,0.825 0.1382,1.5 -0.3925,1.5 -0.5327,0 -0.9688,-0.675 -0.9688,-1.5 0,-0.825 0.1765,-1.5 0.3926,-1.5 z m 0,11.2715 c 0.3323,-0.3323 0.5684,0.2584 0.5254,1.3125 -0.048,1.165 -0.2843,1.4012 -0.6035,0.6035 -0.2888,-0.7219 -0.2522,-1.5837 0.078,-1.916 z m -2.5821,9.6582 c -0.1963,-0.589 -0.4489,2.0907 -0.5605,5.9551 -0.1117,3.8645 0.243,7.3031 0.7891,7.6406 1.4564,0.9002 0.1422,2.4812 -1.5293,1.8398 -1.6657,-0.6392 -3.0316,3.53 -2.1993,6.7129 0.2944,1.1257 -0.1421,3.6694 -0.9707,5.6524 -1.2388,2.9648 -1.4917,9.1283 -1.4257,34.6875 0.044,17.095 -0.3752,38.282 -0.9317,47.082 -1.0471,16.5565 -0.6342,26.4135 1.2559,29.9453 0.6017,1.1241 1.2226,4.8585 1.3789,8.2988 0.2481,5.4597 0.056,6.2559 -1.5137,6.2559 -1.5989,0 -1.8726,1.3805 -2.4648,12.459 -0.8496,15.8929 -0.069,23.4989 2.6308,25.6543 1.7786,1.4199 1.8826,2.0099 0.875,4.9004 -1.392,3.9969 -1.4654,6.0303 -0.1445,3.9863 0.702,-1.0863 0.9734,-0.206 0.9844,3.1914 0.01,2.58 -0.4344,4.9687 -0.9844,5.3086 -1.347,0.8325 -1.2784,9.21 0.08,10.0508 0.5948,0.3674 0.8478,1.6311 0.5605,2.8086 -0.2872,1.1775 0.1172,3.0038 0.9004,4.0586 1.266,1.7048 1.199,2.0766 -0.6074,3.3418 -1.6425,1.1505 -2.0259,2.5079 -2.0039,7.082 0.034,6.9384 -0.8741,14.3798 -1.8867,15.4629 -0.4145,0.443 -0.4167,2.687 0.01,4.9863 0.4208,2.2992 0.3831,4.8862 -0.074,5.7481 -0.583,1.0894 -0.2496,1.9357 1.0918,2.7734 1.0615,0.6629 1.9297,2.265 1.9297,3.5605 0,2.0757 -0.4457,2.3408 -3.75,2.2403 l -3.75,-0.1133 -0.3027,9.5 c -0.3639,11.4329 0.2783,15.4756 2.8711,18.0684 3.9484,3.9484 2.4053,18.7398 -2.4883,23.8476 -1.9875,2.0745 -2.5801,3.7205 -2.5801,7.166 0,2.46 0.6237,5.364 1.3867,6.4532 1.7218,2.4583 2.5512,9.1722 3.2363,26.2128 0.4768,11.8617 0.7444,13.3968 2.5704,14.6758 2.1071,1.4758 2.1789,2.5071 2.8418,41.8262 0.026,1.5125 0.4779,2.75 1.0058,2.75 0.5278,0 0.959,1.056 0.959,2.3457 0,1.2898 0.8933,3.1531 1.9844,4.1406 1.326,1.1999 1.7954,2.5428 1.4179,4.0449 -0.3107,1.2378 -0.1798,2.4883 0.2911,2.7793 1.2851,0.7943 1.5654,-88.9542 0.2929,-93.8105 -0.5765,-2.2 -1.4666,-7.6 -1.9765,-12 -0.5099,-4.4 -1.4037,-10.25 -1.9864,-13 -0.7043,-3.3236 -0.7387,-6.6764 -0.1035,-10 0.5255,-2.75 1.2473,-8.4875 1.6035,-12.75 0.5707,-6.8291 0.449,-7.75 -1.0214,-7.75 -0.9178,0 -1.4729,-0.5625 -1.2325,-1.25 0.2404,-0.6875 1.0918,-1.1387 1.8867,-1.002 1.0925,0.1874 1.5009,-1.0432 1.6563,-5 0.3186,-8.102 0.4564,-17.6922 0.3418,-23.748 -0.2903,-15.3385 0.9062,-61.3194 1.7441,-67 1.1685,-7.9225 1.6715,-33.2696 0.6914,-34.8555 -0.3892,-0.6296 -1.6934,-1.1608 -2.8984,-1.1757 -1.969,-0.027 -2.0141,-0.1329 -0.4414,-1.0489 0.9625,-0.5606 1.75,-1.896 1.75,-2.9687 0,-1.0727 0.45,-1.9512 1,-1.9512 0.55,0 1,-1.9148 1,-4.2559 0,-2.3411 0.498,-5.8286 1.1055,-7.75 0.6718,-2.1249 1.2546,-16.0302 1.4883,-35.4941 0.2092,-17.6 0.7578,-35.825 1.2148,-40.5 0.8114,-8.3026 0.663,-19.4551 -0.3926,-29.5 -0.2889,-2.75 -0.9699,-9.5 -1.5117,-15 -0.5418,-5.5 -1.0413,-10.5625 -1.1113,-11.25 -0.07,-0.6875 -0.9145,-1.25 -1.877,-1.25 -0.9625,0 -1.9092,-0.4813 -2.1055,-1.0703 z M 2250,2891 c 0.7582,-1.1732 0.9724,-0.9134 0.9844,1.1914 0.01,1.48 -0.4344,2.9687 -0.9844,3.3086 -1.2769,0.7892 -1.2769,-2.5241 0,-4.5 z m -4.6562,189.7305 c 0.2718,-0.6771 0.4809,0.1195 0.4609,1.7695 -0.02,1.65 -0.2445,2.2034 -0.4981,1.2305 -0.2536,-0.973 -0.2328,-2.323 0.037,-3 z m -4.9473,107.541 c 0.3323,-0.3323 0.5684,0.2584 0.5254,1.3125 -0.048,1.165 -0.2863,1.4012 -0.6055,0.6035 -0.2888,-0.7219 -0.2502,-1.5837 0.08,-1.916 z m 1,105 c -0.3324,0.3323 -0.371,1.1941 -0.08,1.916 0.3192,0.7977 0.5575,0.5615 0.6055,-0.6035 0.043,-1.0541 -0.1931,-1.6448 -0.5254,-1.3125 z m 6.8027,21.7832 c -0.3215,-0.1735 -0.7113,0.157 -1.1816,0.918 -0.4807,0.7779 -2.3685,1.4397 -4.1953,1.4707 l -3.3223,0.057 -0.8828,11.8887 c -0.7626,10.2671 -0.6603,12.2669 0.75,14.6543 0.9288,1.5723 1.6328,4.9383 1.6328,7.8027 0,2.7702 0.4257,5.298 0.9453,5.6191 0.5724,0.3538 0.3978,2.3991 -0.4414,5.1875 -1.4691,4.8815 -2.3236,29.2125 -1.0957,31.1993 0.3901,0.6312 1.3579,1.1484 2.1504,1.1484 0.9802,0 1.4414,1.1193 1.4414,3.5 0,2.6725 -0.4137,3.4964 -1.75,3.4844 -1.3409,-0.012 -1.4385,-0.2132 -0.416,-0.8614 1.0097,-0.64 0.8127,-0.9817 -0.8106,-1.4062 -2.8647,-0.7492 -3.8064,1.8534 -1.8828,5.2051 1.0671,1.8593 1.2462,3.5051 0.6367,5.8574 -0.4816,1.8589 -0.464,3.9637 0.047,4.873 0.7395,1.3214 1.1378,1.0467 2.2852,-1.5722 0.9339,-2.1313 1.9324,-3.0308 3.0429,-2.7442 1.3941,0.3598 1.8419,-1.0799 2.8653,-9.205 1.1508,-9.137 0.8848,-25.3271 -0.5449,-33.1856 -0.4765,-2.6191 -0.2274,-3.903 0.9414,-4.873 1.9494,-1.6177 1.982,-4.7554 0.088,-8.0723 -1.7993,-3.1475 -1.9347,-8 -0.2227,-8 0.9852,0 1.272,-3.648 1.25,-15.9141 -0.02,-11.4672 -0.3636,-16.5108 -1.3281,-17.0312 z m -3.1269,103.2949 c -1.203,-0.91 -1.8028,-0.753 -2.8535,0.75 -0.7324,1.0457 -1.9616,1.9004 -2.7305,1.9004 -1.9822,0 -2.7999,5.6078 -2.3106,15.8398 0.2903,6.0714 0.9396,9.4889 2.1211,11.1758 2.4872,3.551 2.2714,7.9844 -0.3886,7.9844 -2.0528,0 -2.0853,0.3181 -1.7989,17.75 0.1866,11.3591 -0.098,18.4701 -0.789,19.75 -0.5938,1.1 -1.3579,5.681 -1.6993,10.1797 -0.5186,6.8347 -0.3466,8.4521 1.0332,9.834 2.4377,2.4378 3.0063,10.6813 0.8829,12.8047 -1.575,1.5749 -1.3036,1.6816 4.2988,1.6816 h 5.9805 l 0.541,-10.25 c 0.2977,-5.6375 0.9061,-12.725 1.3515,-15.75 0.4454,-3.025 0.5746,-7.3 0.2871,-9.5 -0.2873,-2.2 -0.4412,-18.175 -0.3398,-35.5 0.1871,-31.9442 -0.1957,-36.0856 -3.5859,-38.6504 z m -7.6758,32.9219 c -0.3324,0.3323 -0.371,1.1941 -0.08,1.916 0.3192,0.7977 0.5575,0.5615 0.6055,-0.6035 0.043,-1.0541 -0.1931,-1.6448 -0.5254,-1.3125 z" />
  </g>
</svg>
