<?xml version="1.0" encoding="UTF-8"?>
<!DOCTYPE svg  PUBLIC '-//W3C//DTD SVG 1.1//EN'  'http://www.w3.org/Graphics/SVG/1.1/DTD/svg11.dtd'>
<!-- Generated by graphviz version 8.1.0 (20230707.0739)
 -->
<!-- Title: G Pages: 1 -->
<svg width="335pt" height="46pt" viewBox="0 0 334.5 45.5" xmlns="http://www.w3.org/2000/svg">
 <g id="graph0" class="graph" transform="scale(1) translate(4 41.5)">
  <title>G</title>
  <polygon points="-4 4 -4 -41.5 330.5 -41.5 330.5 4" fill="#fff"/>
  <!-- r -->
  <g id="node1" class="node">
   <title>r</title>
   <path d="m42-36h-30c-6 0-12 6-12 12v12c0 6 6 12 12 12h30c6 0 12-6 12-12v-12c0-6-6-12-12-12" fill="none" stroke="#000" stroke-width=".5"/>
   <text x="27" y="-14.45" font-family="Sans-Serif" font-size="14" text-anchor="middle">r</text>
  </g>
  <!-- a -->
  <g id="node2" class="node">
   <title>a</title>
   <polygon points="190.25 -36 136.25 -36 136.25 0 190.25 0" fill="none" stroke="#000" stroke-width=".5"/>
   <text x="163.25" y="-14.45" font-family="Sans-Serif" font-size="14" text-anchor="middle">a</text>
  </g>
  <!-- r&#45;&gt;a -->
  <g id="edge1" class="edge">
   <title>r-&gt;a</title>
   <path d="m53.88-18h71.63" fill="none" stroke="#000"/>
   <polygon points="125.44 -21.5 135.44 -18 125.44 -14.5" stroke="#000"/>
   <text x="95.12" y="-24.2" font-family="Sans-Serif" font-size="14" text-anchor="middle">0</text>
  </g>
  <!-- b -->
  <g id="node3" class="node">
   <title>b</title>
   <polygon points="326.5 -36 272.5 -36 272.5 0 326.5 0" fill="none" stroke="#000" stroke-width=".5"/>
   <text x="299.5" y="-14.45" font-family="Sans-Serif" font-size="14" text-anchor="middle">b</text>
  </g>
  <!-- a&#45;&gt;b -->
  <g id="edge2" class="edge">
   <title>a-&gt;b</title>
   <path d="m190.13-18h71.63" fill="none" stroke="#000"/>
   <polygon points="261.69 -21.5 271.69 -18 261.69 -14.5" stroke="#000"/>
   <text x="231.38" y="-24.2" font-family="Sans-Serif" font-size="14" text-anchor="middle">0</text>
  </g>
 </g>
</svg>
