<?xml version="1.0" encoding="UTF-8"?>
<!DOCTYPE svg  PUBLIC '-//W3C//DTD SVG 1.1//EN'  'http://www.w3.org/Graphics/SVG/1.1/DTD/svg11.dtd'>
<!-- Generated by graphviz version 8.1.0 (20230707.0739)
 -->
<!-- Title: G Pages: 1 -->
<svg width="327pt" height="82pt" viewBox="0 0 327.25 81.5" xmlns="http://www.w3.org/2000/svg">
 <g id="graph0" class="graph" transform="scale(1) translate(4 77.5)">
  <title>G</title>
  <polygon points="-4 4 -4 -77.5 323.25 -77.5 323.25 4" fill="#fff"/>
  <!-- r -->
  <g id="node1" class="node">
   <title>r</title>
   <path d="m42-36h-30c-6 0-12 6-12 12v12c0 6 6 12 12 12h30c6 0 12-6 12-12v-12c0-6-6-12-12-12" fill="none" stroke="#000" stroke-width=".5"/>
   <text x="27" y="-14.45" font-family="Sans-Serif" font-size="14" text-anchor="middle">r</text>
  </g>
  <!-- x -->
  <g id="node3" class="node">
   <title>x</title>
   <polygon points="190.25 -36 136.25 -36 136.25 0 190.25 0" fill="none" stroke="#000" stroke-width=".5"/>
   <text x="163.25" y="-14.45" font-family="Sans-Serif" font-size="14" text-anchor="middle">x</text>
  </g>
  <!-- r&#45;&gt;x -->
  <g id="edge1" class="edge">
   <title>r-&gt;x</title>
   <path d="m53.88-18h71.63" fill="none" stroke="#000"/>
   <polygon points="125.44 -21.5 135.44 -18 125.44 -14.5" stroke="#000"/>
   <text x="95.12" y="-24.2" font-family="Sans-Serif" font-size="14" text-anchor="middle">0</text>
  </g>
  <!-- y -->
  <!-- x&#45;&gt;y -->
  <g id="edge3" class="edge">
   <title>x-&gt;y</title>
   <path d="m189.95-18h64.69" fill="none" stroke="#000" stroke-dasharray="5,2"/>
   <polygon points="254.59 -21.5 264.59 -18 254.59 -14.5" stroke="#000"/>
  </g>
  <!-- x&#45;&gt;x -->
  <g id="edge2" class="edge">
   <title>x-&gt;x</title>
   <path d="m155.07-35.78c-1.39-9.53 1.34-18.22 8.18-18.22 4.06 0 6.67 3.06 7.84 7.55" fill="none" stroke="#000"/>
   <polygon points="174.61 -46.89 171.43 -36.78 167.61 -46.66" stroke="#000"/>
   <text x="163.25" y="-60.2" font-family="Sans-Serif" font-size="14" text-anchor="middle">1</text>
  </g>
 </g>
</svg>
