<?xml version="1.0" encoding="UTF-8"?>
<!DOCTYPE svg  PUBLIC '-//W3C//DTD SVG 1.1//EN'  'http://www.w3.org/Graphics/SVG/1.1/DTD/svg11.dtd'>
<!-- Generated by graphviz version 8.1.0 (20230707.0739)
 -->
<!-- Title: G Pages: 1 -->
<svg width="951pt" height="1732pt" viewBox="0 0 951 1732" xmlns="http://www.w3.org/2000/svg">
 <g id="graph0" class="graph" transform="scale(1) translate(4 1728)">
  <title>G</title>
  <polygon points="-4 4 -4 -1728 947 -1728 947 4" fill="#fff"/>
  <!-- root -->
  <g id="node1" class="node">
   <title>root</title>
   <path d="m42-765h-30c-6 0-12 6-12 12v12c0 6 6 12 12 12h30c6 0 12-6 12-12v-12c0-6-6-12-12-12" fill="none" stroke="#000" stroke-width=".5"/>
   <text x="27" y="-743.45" font-family="Sans-Serif" font-size="14" text-anchor="middle">root</text>
  </g>
  <!-- 2892 -->
  <g id="node2" class="node">
   <title>2892</title>
   <polygon points="181 -1712 127 -1712 127 -1676 181 -1676" fill="none" stroke="#000" stroke-width=".5"/>
   <text x="154" y="-1690.45" font-family="Sans-Serif" font-size="14" text-anchor="middle">2892</text>
  </g>
  <!-- root&#45;&gt;2892 -->
  <g id="edge61" class="edge">
   <title>root-&gt;2892</title>
   <path d="m28.16-764.78c1.23-120.87 10.52-819.61 61.84-897.22 6.41-9.69 16.7-16.59 27.13-21.44" fill="none" stroke="#000"/>
   <polygon points="115.46 -1687 126.04 -1687.5 118.1 -1680.5" stroke="#000"/>
  </g>
  <!-- 2883 -->
  <g id="node3" class="node">
   <title>2883</title>
   <polygon points="308 -1688 254 -1688 254 -1652 308 -1652" fill="none" stroke="#000" stroke-width=".5"/>
   <text x="281" y="-1666.45" font-family="Sans-Serif" font-size="14" text-anchor="middle">2883</text>
  </g>
  <!-- root&#45;&gt;2883 -->
  <g id="edge69" class="edge">
   <title>root-&gt;2883</title>
   <path d="m27.78-764.84c-1.06-105.4-3.22-647.09 62.22-797.16 26.66-61.15 106.31-89.24 153.6-100.85" fill="none" stroke="#000"/>
   <polygon points="242.48 -1666.4 253.02 -1665.3 244.07 -1659.6" stroke="#000"/>
  </g>
  <!-- 2852 -->
  <g id="node4" class="node">
   <title>2852</title>
   <polygon points="816 -1607 762 -1607 762 -1571 816 -1571" fill="none" stroke="#000" stroke-width=".5"/>
   <text x="789" y="-1585.45" font-family="Sans-Serif" font-size="14" text-anchor="middle">2852</text>
  </g>
  <!-- root&#45;&gt;2852 -->
  <g id="edge62" class="edge">
   <title>root-&gt;2852</title>
   <path d="m28.34-764.97c1.91-91.38 13.16-504.83 61.66-622.03 23.42-56.59 144.24-140.25 164-153 134.21-86.6 184.28-104 344-104h65c33.28 0 67.64 16.54 91.9 31.47" fill="none" stroke="#000"/>
   <polygon points="756.46 -1615 763 -1606.7 752.69 -1609.2" stroke="#000"/>
  </g>
  <!-- 2868 -->
  <g id="node7" class="node">
   <title>2868</title>
   <polygon points="181 -976 127 -976 127 -940 181 -940" fill="none" stroke="#000" stroke-width=".5"/>
   <text x="154" y="-954.45" font-family="Sans-Serif" font-size="14" text-anchor="middle">2868</text>
  </g>
  <!-- root&#45;&gt;2868 -->
  <g id="edge57" class="edge">
   <title>root-&gt;2868</title>
   <path d="m29.77-764.95c4.31-34.96 18.3-112.96 60.23-161.05 7.32-8.39 17.36-14.85 27.28-19.7" fill="none" stroke="#000"/>
   <polygon points="115.5 -949.18 126.06 -950.02 118.33 -942.78" stroke="#000"/>
  </g>
  <!-- 2890 -->
  <g id="node8" class="node">
   <title>2890</title>
   <polygon points="308 -899 254 -899 254 -863 308 -863" fill="none" stroke="#000" stroke-width=".5"/>
   <text x="281" y="-877.45" font-family="Sans-Serif" font-size="14" text-anchor="middle">2890</text>
  </g>
  <!-- root&#45;&gt;2890 -->
  <g id="edge47" class="edge">
   <title>root-&gt;2890</title>
   <path d="m29.75-764.75c4.16-31.26 17.7-95.48 60.25-123.25 46.18-30.14 113.01-17.96 153.86-5.86" fill="none" stroke="#000"/>
   <polygon points="244.66 -896.97 253.16 -890.65 242.57 -890.28" stroke="#000"/>
  </g>
  <!-- 2837 -->
  <g id="node9" class="node">
   <title>2837</title>
   <polygon points="816 -1023 762 -1023 762 -987 816 -987" fill="none" stroke="#000" stroke-width=".5"/>
   <text x="789" y="-1001.45" font-family="Sans-Serif" font-size="14" text-anchor="middle">2837</text>
  </g>
  <!-- root&#45;&gt;2837 -->
  <g id="edge51" class="edge">
   <title>root-&gt;2837</title>
   <path d="m28.36-764.73c2.2-58.29 17.63-240.27 124.64-240.27h510 88.36" fill="none" stroke="#000"/>
   <polygon points="751.14 -1008.5 761.14 -1005 751.14 -1001.5" stroke="#000"/>
  </g>
  <!-- 2871 -->
  <g id="node14" class="node">
   <title>2871</title>
   <polygon points="689 -1499 635 -1499 635 -1463 689 -1463" fill="none" stroke="#000" stroke-width=".5"/>
   <text x="662" y="-1477.45" font-family="Sans-Serif" font-size="14" text-anchor="middle">2871</text>
  </g>
  <!-- root&#45;&gt;2871 -->
  <g id="edge46" class="edge">
   <title>root-&gt;2871</title>
   <path d="m27.74-764.98c-0.97-101.09 0.69-594.02 125.26-594.02h65c154.5 0 200.9 8.25 344-50 27.14-11.05 53.76-31.08 72.56-47.22" fill="none" stroke="#000"/>
   <polygon points="631.79 -1458.3 641.61 -1462.3 636.42 -1453.1" stroke="#000"/>
  </g>
  <!-- 2822 -->
  <g id="node15" class="node">
   <title>2822</title>
   <polygon points="816 -1170 762 -1170 762 -1134 816 -1134" fill="none" stroke="#000" stroke-width=".5"/>
   <text x="789" y="-1148.45" font-family="Sans-Serif" font-size="14" text-anchor="middle">2822</text>
  </g>
  <!-- root&#45;&gt;2822 -->
  <g id="edge63" class="edge">
   <title>root-&gt;2822</title>
   <path d="m29.28-764.76c6.3-80.63 37.2-408.24 123.72-408.24h256c101.16 0 125.02 20.99 226 27 23.96 1.43 30.01 0.73 54 0 20.76-0.63 43.94-2 62.65-3.27" fill="none" stroke="#000"/>
   <polygon points="751.16 -1152.8 761.38 -1150 751.65 -1145.8" stroke="#000"/>
  </g>
  <!-- 2828 -->
  <g id="node23" class="node">
   <title>2828</title>
   <polygon points="181 -846 127 -846 127 -810 181 -810" fill="none" stroke="#000" stroke-width=".5"/>
   <text x="154" y="-824.45" font-family="Sans-Serif" font-size="14" text-anchor="middle">2828</text>
  </g>
  <!-- root&#45;&gt;2828 -->
  <g id="edge68" class="edge">
   <title>root-&gt;2828</title>
   <path d="m53.9-763.78c18.6-12.06 43.89-28.44 64.26-41.64" fill="none" stroke="#000"/>
   <polygon points="115.84 -808.74 126.13 -811.24 119.64 -802.86" stroke="#000"/>
  </g>
  <!-- 2772 -->
  <g id="node33" class="node">
   <title>2772</title>
   <polygon points="181 -1423 127 -1423 127 -1387 181 -1387" fill="none" stroke="#000" stroke-width=".5"/>
   <text x="154" y="-1401.45" font-family="Sans-Serif" font-size="14" text-anchor="middle">2772</text>
  </g>
  <!-- root&#45;&gt;2772 -->
  <g id="edge73" class="edge">
   <title>root-&gt;2772</title>
   <path d="m28.75-764.7c4.19-96.5 25.96-556.69 61.25-608.3 6.56-9.59 16.89-16.47 27.3-21.32" fill="none" stroke="#000"/>
   <polygon points="115.61 -1397.8 126.19 -1398.4 118.27 -1391.4" stroke="#000"/>
  </g>
  <!-- 2881 -->
  <g id="node39" class="node">
   <title>2881</title>
   <polygon points="181 -1069 127 -1069 127 -1033 181 -1033" fill="none" stroke="#000" stroke-width=".5"/>
   <text x="154" y="-1047.45" font-family="Sans-Serif" font-size="14" text-anchor="middle">2881</text>
  </g>
  <!-- root&#45;&gt;2881 -->
  <g id="edge56" class="edge">
   <title>root-&gt;2881</title>
   <path d="m30.07-764.76c6.56-53.79 28.35-213.76 59.93-254.24 6.96-8.92 17.09-15.57 27.19-20.42" fill="none" stroke="#000"/>
   <polygon points="115.6 -1043 126.17 -1043.7 118.35 -1036.5" stroke="#000"/>
  </g>
  <!-- 2901 -->
  <g id="node41" class="node">
   <title>2901</title>
   <polygon points="435 -872 381 -872 381 -836 435 -836" fill="none" stroke="#000" stroke-width=".5"/>
   <text x="408" y="-850.45" font-family="Sans-Serif" font-size="14" text-anchor="middle">2901</text>
  </g>
  <!-- root&#45;&gt;2901 -->
  <g id="edge64" class="edge">
   <title>root-&gt;2901</title>
   <path d="m37.66-764.6c15.16-25.55 47.2-71.86 89.34-90.4 21.97-9.66 30-0.16 54 0 32.45 0.22 40.55 0.78 73 1 39.74 0.27 85.29 0.23 116.29 0.14" fill="none" stroke="#000"/>
   <polygon points="370 -857.36 380.01 -853.89 370.02 -850.36" stroke="#000"/>
  </g>
  <!-- 2902 -->
  <g id="node43" class="node">
   <title>2902</title>
   <polygon points="181 -792 127 -792 127 -756 181 -756" fill="none" stroke="#000" stroke-width=".5"/>
   <text x="154" y="-770.45" font-family="Sans-Serif" font-size="14" text-anchor="middle">2902</text>
  </g>
  <!-- root&#45;&gt;2902 -->
  <g id="edge48" class="edge">
   <title>root-&gt;2902</title>
   <path d="m53.9-752.59c18.1-3.91 42.53-9.19 62.6-13.53" fill="none" stroke="#000"/>
   <polygon points="115.62 -769.72 126.13 -768.41 117.1 -762.88" stroke="#000"/>
  </g>
  <!-- 2900 -->
  <g id="node44" class="node">
   <title>2900</title>
   <polygon points="181 -738 127 -738 127 -702 181 -702" fill="none" stroke="#000" stroke-width=".5"/>
   <text x="154" y="-716.45" font-family="Sans-Serif" font-size="14" text-anchor="middle">2900</text>
  </g>
  <!-- root&#45;&gt;2900 -->
  <g id="edge49" class="edge">
   <title>root-&gt;2900</title>
   <path d="m53.9-741.41c18.1 3.91 42.53 9.19 62.6 13.53" fill="none" stroke="#000"/>
   <polygon points="117.1 -731.12 126.13 -725.59 115.62 -724.28" stroke="#000"/>
  </g>
  <!-- 2842 -->
  <g id="node45" class="node">
   <title>2842</title>
   <polygon points="181 -684 127 -684 127 -648 181 -648" fill="none" stroke="#000" stroke-width=".5"/>
   <text x="154" y="-662.45" font-family="Sans-Serif" font-size="14" text-anchor="middle">2842</text>
  </g>
  <!-- root&#45;&gt;2842 -->
  <g id="edge50" class="edge">
   <title>root-&gt;2842</title>
   <path d="m53.9-730.22c18.6 12.06 43.89 28.44 64.26 41.64" fill="none" stroke="#000"/>
   <polygon points="119.64 -691.14 126.13 -682.76 115.84 -685.26" stroke="#000"/>
  </g>
  <!-- 2877 -->
  <g id="node46" class="node">
   <title>2877</title>
   <polygon points="181 -630 127 -630 127 -594 181 -594" fill="none" stroke="#000" stroke-width=".5"/>
   <text x="154" y="-608.45" font-family="Sans-Serif" font-size="14" text-anchor="middle">2877</text>
  </g>
  <!-- root&#45;&gt;2877 -->
  <g id="edge52" class="edge">
   <title>root-&gt;2877</title>
   <path d="m43.99-729.29c19.46 21.49 53.4 58.78 83.01 90.29 0.35 0.37 0.69 0.74 1.04 1.11" fill="none" stroke="#000"/>
   <polygon points="130.24 -640.61 134.6 -630.95 125.17 -635.78" stroke="#000"/>
  </g>
  <!-- 2869 -->
  <g id="node47" class="node">
   <title>2869</title>
   <polygon points="181 -576 127 -576 127 -540 181 -540" fill="none" stroke="#000" stroke-width=".5"/>
   <text x="154" y="-554.45" font-family="Sans-Serif" font-size="14" text-anchor="middle">2869</text>
  </g>
  <!-- root&#45;&gt;2869 -->
  <g id="edge53" class="edge">
   <title>root-&gt;2869</title>
   <path d="m37.23-729.16c16.26 30.74 51.9 95.11 89.77 144.16 0.22 0.29 0.45 0.58 0.68 0.87" fill="none" stroke="#000"/>
   <polygon points="130.96 -586.68 134.81 -576.81 125.65 -582.12" stroke="#000"/>
  </g>
  <!-- 2873 -->
  <g id="node48" class="node">
   <title>2873</title>
   <polygon points="181 -522 127 -522 127 -486 181 -486" fill="none" stroke="#000" stroke-width=".5"/>
   <text x="154" y="-500.45" font-family="Sans-Serif" font-size="14" text-anchor="middle">2873</text>
  </g>
  <!-- root&#45;&gt;2873 -->
  <g id="edge54" class="edge">
   <title>root-&gt;2873</title>
   <path d="m33.86-729.16c13.08 38.36 47.15 130.66 93.14 198.16 0.13 0.19 0.27 0.39 0.4 0.58" fill="none" stroke="#000"/>
   <polygon points="130.72 -532.87 134.21 -522.87 125.24 -528.51" stroke="#000"/>
  </g>
  <!-- 2867 -->
  <g id="node49" class="node">
   <title>2867</title>
   <polygon points="308 -1625 254 -1625 254 -1589 308 -1589" fill="none" stroke="#000" stroke-width=".5"/>
   <text x="281" y="-1603.45" font-family="Sans-Serif" font-size="14" text-anchor="middle">2867</text>
  </g>
  <!-- root&#45;&gt;2867 -->
  <g id="edge55" class="edge">
   <title>root-&gt;2867</title>
   <path d="m28.2-764.77c1.4-112.21 11.29-719.93 61.8-783.23 36.86-46.2 109.33-57 153.34-59.08" fill="none" stroke="#000"/>
   <polygon points="243.03 -1610.6 253.14 -1607.4 243.26 -1603.6" stroke="#000"/>
  </g>
  <!-- 2897 -->
  <g id="node50" class="node">
   <title>2897</title>
   <polygon points="181 -468 127 -468 127 -432 181 -432" fill="none" stroke="#000" stroke-width=".5"/>
   <text x="154" y="-446.45" font-family="Sans-Serif" font-size="14" text-anchor="middle">2897</text>
  </g>
  <!-- root&#45;&gt;2897 -->
  <g id="edge58" class="edge">
   <title>root-&gt;2897</title>
   <path d="m31.83-729.12c10.21 45 41.02 165.56 95.17 252.12 0.13 0.2 0.25 0.4 0.38 0.6" fill="none" stroke="#000"/>
   <polygon points="130.71 -478.8 133.99 -468.73 125.15 -474.56" stroke="#000"/>
  </g>
  <!-- 2884 -->
  <g id="node51" class="node">
   <title>2884</title>
   <polygon points="181 -414 127 -414 127 -378 181 -378" fill="none" stroke="#000" stroke-width=".5"/>
   <text x="154" y="-392.45" font-family="Sans-Serif" font-size="14" text-anchor="middle">2884</text>
  </g>
  <!-- root&#45;&gt;2884 -->
  <g id="edge59" class="edge">
   <title>root-&gt;2884</title>
   <path d="m30.42-729.32c7.54 50.77 33.99 200.18 96.58 306.32 0.06 0.1 0.12 0.2 0.17 0.29" fill="none" stroke="#000"/>
   <polygon points="130.5 -425.08 133.58 -414.94 124.85 -420.95" stroke="#000"/>
  </g>
  <!-- 2855 -->
  <g id="node52" class="node">
   <title>2855</title>
   <polygon points="181 -360 127 -360 127 -324 181 -324" fill="none" stroke="#000" stroke-width=".5"/>
   <text x="154" y="-338.45" font-family="Sans-Serif" font-size="14" text-anchor="middle">2855</text>
  </g>
  <!-- root&#45;&gt;2855 -->
  <g id="edge60" class="edge">
   <title>root-&gt;2855</title>
   <path d="m29.29-729.16c4.75 56.53 25.02 235.28 97.71 360.16 0.06 0.1 0.12 0.2 0.17 0.3" fill="none" stroke="#000"/>
   <polygon points="130.51 -371.07 133.55 -360.92 124.84 -366.96" stroke="#000"/>
  </g>
  <!-- 2874 -->
  <g id="node53" class="node">
   <title>2874</title>
   <polygon points="181 -306 127 -306 127 -270 181 -270" fill="none" stroke="#000" stroke-width=".5"/>
   <text x="154" y="-284.45" font-family="Sans-Serif" font-size="14" text-anchor="middle">2874</text>
  </g>
  <!-- root&#45;&gt;2874 -->
  <g id="edge65" class="edge">
   <title>root-&gt;2874</title>
   <path d="m31.12-729.01c8.31 47.3 32.2 178.94 58.88 287.01 14.09 57.08 7.53 76.13 37 127 0.06 0.1 0.11 0.2 0.17 0.3" fill="none" stroke="#000"/>
   <polygon points="130.51 -317.07 133.53 -306.92 124.83 -312.96" stroke="#000"/>
  </g>
  <!-- 2899 -->
  <g id="node54" class="node">
   <title>2899</title>
   <polygon points="181 -252 127 -252 127 -216 181 -216" fill="none" stroke="#000" stroke-width=".5"/>
   <text x="154" y="-230.45" font-family="Sans-Serif" font-size="14" text-anchor="middle">2899</text>
  </g>
  <!-- root&#45;&gt;2899 -->
  <g id="edge66" class="edge">
   <title>root-&gt;2899</title>
   <path d="m28.08-729.01c1 66.36 10.9 302.21 98.92 468.01 0.05 0.1 0.11 0.2 0.16 0.3" fill="none" stroke="#000"/>
   <polygon points="130.51 -263.01 133.32 -252.8 124.75 -259.03" stroke="#000"/>
  </g>
  <!-- 2893 -->
  <g id="node55" class="node">
   <title>2893</title>
   <polygon points="181 -198 127 -198 127 -162 181 -162" fill="none" stroke="#000" stroke-width=".5"/>
   <text x="154" y="-176.45" font-family="Sans-Serif" font-size="14" text-anchor="middle">2893</text>
  </g>
  <!-- root&#45;&gt;2893 -->
  <g id="edge67" class="edge">
   <title>root-&gt;2893</title>
   <path d="m29.97-729.06c6.45 57.1 28.3 239.54 60.03 388.06 12.91 60.42 6.41 80.32 37 134 0.06 0.1 0.11 0.2 0.17 0.3" fill="none" stroke="#000"/>
   <polygon points="130.51 -209.06 133.49 -198.89 124.82 -204.98" stroke="#000"/>
  </g>
  <!-- 2896 -->
  <g id="node56" class="node">
   <title>2896</title>
   <polygon points="181 -144 127 -144 127 -108 181 -108" fill="none" stroke="#000" stroke-width=".5"/>
   <text x="154" y="-122.45" font-family="Sans-Serif" font-size="14" text-anchor="middle">2896</text>
  </g>
  <!-- root&#45;&gt;2896 -->
  <g id="edge70" class="edge">
   <title>root-&gt;2896</title>
   <path d="m30.33-729.23c7.58 57.37 32.67 242.81 59.67 395.23 14.32 80.85-1.21 108.33 37 181 0.05 0.1 0.11 0.2 0.16 0.3" fill="none" stroke="#000"/>
   <polygon points="130.51 -155.01 133.29 -144.78 124.74 -151.04" stroke="#000"/>
  </g>
  <!-- 2903 -->
  <g id="node57" class="node">
   <title>2903</title>
   <polygon points="181 -90 127 -90 127 -54 181 -54" fill="none" stroke="#000" stroke-width=".5"/>
   <text x="154" y="-68.45" font-family="Sans-Serif" font-size="14" text-anchor="middle">2903</text>
  </g>
  <!-- root&#45;&gt;2903 -->
  <g id="edge71" class="edge">
   <title>root-&gt;2903</title>
   <path d="m30.5-729.34c8.22 57.89 35.26 247.11 59.5 403.34 15.67 101.01-8.75 135.59 37 227 0.05 0.1 0.1 0.2 0.15 0.31" fill="none" stroke="#000"/>
   <polygon points="130.51 -100.98 133.17 -90.72 124.7 -97.08" stroke="#000"/>
  </g>
  <!-- 2904 -->
  <g id="node58" class="node">
   <title>2904</title>
   <polygon points="181 -36 127 -36 127 0 181 0" fill="none" stroke="#000" stroke-width=".5"/>
   <text x="154" y="-14.45" font-family="Sans-Serif" font-size="14" text-anchor="middle">2904</text>
  </g>
  <!-- root&#45;&gt;2904 -->
  <g id="edge72" class="edge">
   <title>root-&gt;2904</title>
   <path d="m29.03-729.13c5.8 96.68 36.32 557.57 97.97 684.13 0.05 0.1 0.1 0.2 0.15 0.31" fill="none" stroke="#000"/>
   <polygon points="130.51 -46.96 133.11 -36.69 124.67 -43.1" stroke="#000"/>
  </g>
  <!-- 2892&#45;&gt;2883 -->
  <g id="edge1" class="edge">
   <title>2892-&gt;2883</title>
   <path d="m180.9-1689c18.1 3.48 42.53 8.17 62.6 12.02" fill="none" stroke="#000"/>
   <polygon points="243.97 -1680.3 253.13 -1675 242.65 -1673.4" stroke="#000"/>
  </g>
  <!-- 2892&#45;&gt;2852 -->
  <g id="edge2" class="edge">
   <title>2892-&gt;2852</title>
   <path d="m180.9-1704c24.99-8.73 64.06-20.01 99.1-20.01h383c57.79 0 96.33 67.42 113.96 106.97" fill="none" stroke="#000"/>
   <polygon points="780.57 -1618.5 781.28 -1607.9 774.13 -1615.7" stroke="#000"/>
  </g>
  <!-- 2892&#45;&gt;2867 -->
  <g id="edge74" class="edge">
   <title>2892-&gt;2867</title>
   <path d="m180.6-1676.2c18.79 13.07 44.51 30.98 65.08 45.29" fill="none" stroke="#000"/>
   <polygon points="247.23 -1633.4 253.44 -1624.8 243.23 -1627.6" stroke="#000"/>
  </g>
  <!-- 2849 -->
  <g id="node5" class="node">
   <title>2849</title>
   <polygon points="689 -1445 635 -1445 635 -1409 689 -1409" fill="none" stroke="#000" stroke-width=".5"/>
   <text x="662" y="-1423.45" font-family="Sans-Serif" font-size="14" text-anchor="middle">2849</text>
  </g>
  <!-- 2849&#45;&gt;2852 -->
  <g id="edge4" class="edge">
   <title>2849-&gt;2852</title>
   <path d="m680.96-1445c2.76-2.95 5.53-6.02 8.04-9.01 30.43-36.16 62.15-80.85 81.24-108.65" fill="none" stroke="#000"/>
   <polygon points="767.68 -1564.1 776.21 -1570.4 773.46 -1560.2" stroke="#000"/>
  </g>
  <!-- 2848 -->
  <g id="node6" class="node">
   <title>2848</title>
   <polygon points="816 -1374 762 -1374 762 -1338 816 -1338" fill="none" stroke="#000" stroke-width=".5"/>
   <text x="789" y="-1352.45" font-family="Sans-Serif" font-size="14" text-anchor="middle">2848</text>
  </g>
  <!-- 2849&#45;&gt;2848 -->
  <g id="edge3" class="edge">
   <title>2849-&gt;2848</title>
   <path d="m688.9-1412.3c18.44 10.47 43.43 24.67 63.71 36.19" fill="none" stroke="#000"/>
   <polygon points="754.17 -1378.7 761.13 -1370.7 750.71 -1372.6" stroke="#000"/>
  </g>
  <!-- 2801 -->
  <g id="node18" class="node">
   <title>2801</title>
   <polygon points="943 -1374 889 -1374 889 -1338 943 -1338" fill="none" stroke="#000" stroke-width=".5"/>
   <text x="916" y="-1352.45" font-family="Sans-Serif" font-size="14" text-anchor="middle">2801</text>
  </g>
  <!-- 2848&#45;&gt;2801 -->
  <g id="edge13" class="edge">
   <title>2848-&gt;2801</title>
   <path d="m815.9-1356h62.32" fill="none" stroke="#000"/>
   <polygon points="878.13 -1359.5 888.13 -1356 878.13 -1352.5" stroke="#000"/>
  </g>
  <!-- 2868&#45;&gt;2890 -->
  <g id="edge5" class="edge">
   <title>2868-&gt;2890</title>
   <path d="m180.9-942.05c18.52 11.41 43.66 26.9 63.98 39.42" fill="none" stroke="#000"/>
   <polygon points="246.45 -905.16 253.13 -896.93 242.78 -899.2" stroke="#000"/>
  </g>
  <!-- 2868&#45;&gt;2837 -->
  <g id="edge6" class="edge">
   <title>2868-&gt;2837</title>
   <path d="m180.86-951.12c25.27 2.12 64.85 2.12 99.14 2.12h383c35.41 0 73.06-16.73 97.67-32.14" fill="none" stroke="#000"/>
   <polygon points="758.48 -984.55 768.75 -987.16 762.35 -978.71" stroke="#000"/>
  </g>
  <!-- 2890&#45;&gt;2901 -->
  <g id="edge40" class="edge">
   <title>2890-&gt;2901</title>
   <path d="m307.9-875.41c18.1 3.91 42.53 9.19 62.6 13.53" fill="none" stroke="#000"/>
   <polygon points="371.1 -865.12 380.13 -859.59 369.62 -858.28" stroke="#000"/>
  </g>
  <!-- 2837&#45;&gt;2868 -->
  <g id="edge12" class="edge">
   <title>2837-&gt;2868</title>
   <path d="m762.24-996.05c-24.57 11.6-63.07 29.05-99.24 29.05h-383c-29.73 0-63.45 0-88.36 1.38" fill="none" stroke="#000"/>
   <polygon points="192.07 -962.07 181.86 -964.88 191.59 -969.06" stroke="#000"/>
  </g>
  <!-- 2776 -->
  <g id="node10" class="node">
   <title>2776</title>
   <polygon points="689 -1615 635 -1615 635 -1579 689 -1579" fill="none" stroke="#000" stroke-width=".5"/>
   <text x="662" y="-1593.45" font-family="Sans-Serif" font-size="14" text-anchor="middle">2776</text>
  </g>
  <!-- 2762 -->
  <g id="node11" class="node">
   <title>2762</title>
   <polygon points="816 -1428 762 -1428 762 -1392 816 -1392" fill="none" stroke="#000" stroke-width=".5"/>
   <text x="789" y="-1406.45" font-family="Sans-Serif" font-size="14" text-anchor="middle">2762</text>
  </g>
  <!-- 2776&#45;&gt;2762 -->
  <g id="edge7" class="edge">
   <title>2776-&gt;2762</title>
   <path d="m681.17-1579.2c2.73 2.97 5.44 6.1 7.83 9.18 34.14 43.96 66.68 100.27 84.64 133.03" fill="none" stroke="#000"/>
   <polygon points="777.03 -1439.1 778.73 -1428.6 770.88 -1435.7" stroke="#000"/>
  </g>
  <!-- 2853 -->
  <g id="node12" class="node">
   <title>2853</title>
   <polygon points="562 -1324 508 -1324 508 -1288 562 -1288" fill="none" stroke="#000" stroke-width=".5"/>
   <text x="535" y="-1302.45" font-family="Sans-Serif" font-size="14" text-anchor="middle">2853</text>
  </g>
  <!-- 2857 -->
  <g id="node13" class="node">
   <title>2857</title>
   <polygon points="689 -1353 635 -1353 635 -1317 689 -1317" fill="none" stroke="#000" stroke-width=".5"/>
   <text x="662" y="-1331.45" font-family="Sans-Serif" font-size="14" text-anchor="middle">2857</text>
  </g>
  <!-- 2853&#45;&gt;2857 -->
  <g id="edge8" class="edge">
   <title>2853-&gt;2857</title>
   <path d="m561.9-1312c18.1-4.2 42.53-9.86 62.6-14.52" fill="none" stroke="#000"/>
   <polygon points="623.6 -1330.2 634.13 -1329 625.18 -1323.3" stroke="#000"/>
  </g>
  <!-- 2853&#45;&gt;2871 -->
  <g id="edge9" class="edge">
   <title>2853-&gt;2871</title>
   <path d="m545.77-1324c11.62-20.96 32-56.37 52.23-85.01 14.94-21.15 19.78-25.66 37-45 0.34-0.38 0.67-0.76 1.02-1.14" fill="none" stroke="#000"/>
   <polygon points="633.1 -1457.2 642.46 -1462.2 638.23 -1452.5" stroke="#000"/>
  </g>
  <!-- 2857&#45;&gt;2837 -->
  <g id="edge19" class="edge">
   <title>2857-&gt;2837</title>
   <path d="m682.37-1317c2.45 2.86 4.75 5.91 6.63 9.03 28.84 47.98 73.92 209.34 91.56 274.93" fill="none" stroke="#000"/>
   <polygon points="784.14 -1034.3 783.34 -1023.7 777.38 -1032.4" stroke="#000"/>
  </g>
  <!-- 2862 -->
  <g id="node25" class="node">
   <title>2862</title>
   <polygon points="816 -1320 762 -1320 762 -1284 816 -1284" fill="none" stroke="#000" stroke-width=".5"/>
   <text x="789" y="-1298.45" font-family="Sans-Serif" font-size="14" text-anchor="middle">2862</text>
  </g>
  <!-- 2857&#45;&gt;2862 -->
  <g id="edge18" class="edge">
   <title>2857-&gt;2862</title>
   <path d="m688.9-1328.2c18.1 4.78 42.53 11.22 62.6 16.52" fill="none" stroke="#000"/>
   <polygon points="752.36 -1314.8 761.13 -1308.8 750.57 -1308" stroke="#000"/>
  </g>
  <!-- 2814 -->
  <g id="node16" class="node">
   <title>2814</title>
   <polygon points="943 -1170 889 -1170 889 -1134 943 -1134" fill="none" stroke="#000" stroke-width=".5"/>
   <text x="916" y="-1148.45" font-family="Sans-Serif" font-size="14" text-anchor="middle">2814</text>
  </g>
  <!-- 2822&#45;&gt;2814 -->
  <g id="edge10" class="edge">
   <title>2822-&gt;2814</title>
   <path d="m815.9-1152h62.32" fill="none" stroke="#000"/>
   <polygon points="878.13 -1155.5 888.13 -1152 878.13 -1148.5" stroke="#000"/>
  </g>
  <!-- 2836 -->
  <g id="node17" class="node">
   <title>2836</title>
   <polygon points="689 -1245 635 -1245 635 -1209 689 -1209" fill="none" stroke="#000" stroke-width=".5"/>
   <text x="662" y="-1223.45" font-family="Sans-Serif" font-size="14" text-anchor="middle">2836</text>
  </g>
  <!-- 2836&#45;&gt;2822 -->
  <g id="edge11" class="edge">
   <title>2836-&gt;2822</title>
   <path d="m688.9-1211.5c18.52 11.11 43.66 26.2 63.98 38.39" fill="none" stroke="#000"/>
   <polygon points="754.36 -1175.7 761.13 -1167.5 750.76 -1169.7" stroke="#000"/>
  </g>
  <!-- 2835 -->
  <g id="node19" class="node">
   <title>2835</title>
   <polygon points="435 -1591 381 -1591 381 -1555 435 -1555" fill="none" stroke="#000" stroke-width=".5"/>
   <text x="408" y="-1569.45" font-family="Sans-Serif" font-size="14" text-anchor="middle">2835</text>
  </g>
  <!-- 2765 -->
  <g id="node20" class="node">
   <title>2765</title>
   <polygon points="562 -1616 508 -1616 508 -1580 562 -1580" fill="none" stroke="#000" stroke-width=".5"/>
   <text x="535" y="-1594.45" font-family="Sans-Serif" font-size="14" text-anchor="middle">2765</text>
  </g>
  <!-- 2835&#45;&gt;2765 -->
  <g id="edge14" class="edge">
   <title>2835-&gt;2765</title>
   <path d="m434.9-1578.2c18.1-3.62 42.53-8.51 62.6-12.52" fill="none" stroke="#000"/>
   <polygon points="496.64 -1594.3 507.13 -1592.8 498.01 -1587.4" stroke="#000"/>
  </g>
  <!-- 2765&#45;&gt;2849 -->
  <g id="edge44" class="edge">
   <title>2765-&gt;2849</title>
   <path d="m554.16-1580.2c2.74 2.97 5.44 6.09 7.84 9.17 37.68 48.34 35.32 68.66 73 117 0.23 0.29 0.45 0.58 0.68 0.87" fill="none" stroke="#000"/>
   <polygon points="638.96 -1455.7 642.84 -1445.8 633.66 -1451.1" stroke="#000"/>
  </g>
  <!-- 2765&#45;&gt;2776 -->
  <g id="edge42" class="edge">
   <title>2765-&gt;2776</title>
   <path d="m561.9-1592.2c18.02 1.44 42.3 1.84 62.32 1.12" fill="none" stroke="#000"/>
   <polygon points="623.97 -1594.6 634.13 -1591.6 624.32 -1587.6" stroke="#000"/>
  </g>
  <!-- 2765&#45;&gt;2776 -->
  <g id="edge43" class="edge">
   <title>2765-&gt;2776</title>
   <path d="m561.9-1603.4c18.02-1.15 42.3-1.16 62.32-0.12" fill="none" stroke="#000"/>
   <polygon points="624.38 -1606.9 634.13 -1602.8 623.93 -1600" stroke="#000"/>
  </g>
  <!-- 2750 -->
  <g id="node42" class="node">
   <title>2750</title>
   <polygon points="689 -1561 635 -1561 635 -1525 689 -1525" fill="none" stroke="#000" stroke-width=".5"/>
   <text x="662" y="-1539.45" font-family="Sans-Serif" font-size="14" text-anchor="middle">2750</text>
  </g>
  <!-- 2765&#45;&gt;2750 -->
  <g id="edge41" class="edge">
   <title>2765-&gt;2750</title>
   <path d="m561.9-1586.6c18.35 8.07 43.21 19.01 63.43 27.91" fill="none" stroke="#000"/>
   <polygon points="626.39 -1561.6 634.13 -1554.4 623.57 -1555.2" stroke="#000"/>
  </g>
  <!-- 2851 -->
  <g id="node21" class="node">
   <title>2851</title>
   <polygon points="435 -1239 381 -1239 381 -1203 435 -1203" fill="none" stroke="#000" stroke-width=".5"/>
   <text x="408" y="-1217.45" font-family="Sans-Serif" font-size="14" text-anchor="middle">2851</text>
  </g>
  <!-- 2851&#45;&gt;2852 -->
  <g id="edge16" class="edge">
   <title>2851-&gt;2852</title>
   <path d="m420.64-1239c16.65-24.43 49.47-68.04 87.36-94 70.76-48.49 116.59-10.35 181-67 50.19-44.15 78.81-119.97 91.34-160.87" fill="none" stroke="#000"/>
   <polygon points="777.19 -1561.6 783.38 -1570.2 783.91 -1559.6" stroke="#000"/>
  </g>
  <!-- 2783 -->
  <g id="node22" class="node">
   <title>2783</title>
   <polygon points="562 -1267 508 -1267 508 -1231 562 -1231" fill="none" stroke="#000" stroke-width=".5"/>
   <text x="535" y="-1245.45" font-family="Sans-Serif" font-size="14" text-anchor="middle">2783</text>
  </g>
  <!-- 2851&#45;&gt;2783 -->
  <g id="edge15" class="edge">
   <title>2851-&gt;2783</title>
   <path d="m434.9-1226.8c18.1-4.06 42.53-9.53 62.6-14.02" fill="none" stroke="#000"/>
   <polygon points="496.61 -1244.4 507.13 -1243.2 498.14 -1237.6" stroke="#000"/>
  </g>
  <!-- 2783&#45;&gt;2849 -->
  <g id="edge38" class="edge">
   <title>2783-&gt;2849</title>
   <path d="m552.05-1266.8c3.38-3.95 6.86-8.17 9.95-12.22 31.14-40.8 63.53-90.93 82.45-121.13" fill="none" stroke="#000"/>
   <polygon points="641.84 -1401.6 650.1 -1408.2 647.78 -1397.9" stroke="#000"/>
  </g>
  <!-- 2783&#45;&gt;2836 -->
  <g id="edge36" class="edge">
   <title>2783-&gt;2836</title>
   <path d="m561.9-1244.4c18.1 3.18 42.53 7.48 62.6 11.02" fill="none" stroke="#000"/>
   <polygon points="624.89 -1236.7 634.13 -1231.6 623.68 -1229.8" stroke="#000"/>
  </g>
  <!-- 2807 -->
  <g id="node37" class="node">
   <title>2807</title>
   <polygon points="689 -1191 635 -1191 635 -1155 689 -1155" fill="none" stroke="#000" stroke-width=".5"/>
   <text x="662" y="-1169.45" font-family="Sans-Serif" font-size="14" text-anchor="middle">2807</text>
  </g>
  <!-- 2783&#45;&gt;2807 -->
  <g id="edge37" class="edge">
   <title>2783-&gt;2807</title>
   <path d="m561.9-1233.2c18.52 11.26 43.66 26.54 63.98 38.9" fill="none" stroke="#000"/>
   <polygon points="627.41 -1196.9 634.13 -1188.7 623.77 -1190.9" stroke="#000"/>
  </g>
  <!-- 2843 -->
  <g id="node40" class="node">
   <title>2843</title>
   <polygon points="689 -1299 635 -1299 635 -1263 689 -1263" fill="none" stroke="#000" stroke-width=".5"/>
   <text x="662" y="-1277.45" font-family="Sans-Serif" font-size="14" text-anchor="middle">2843</text>
  </g>
  <!-- 2783&#45;&gt;2843 -->
  <g id="edge39" class="edge">
   <title>2783-&gt;2843</title>
   <path d="m561.9-1255.6c18.1-4.63 42.53-10.89 62.6-16.03" fill="none" stroke="#000"/>
   <polygon points="623.58 -1275.3 634.13 -1274.4 625.31 -1268.5" stroke="#000"/>
  </g>
  <!-- 2878 -->
  <g id="node24" class="node">
   <title>2878</title>
   <polygon points="308 -807 254 -807 254 -771 308 -771" fill="none" stroke="#000" stroke-width=".5"/>
   <text x="281" y="-785.45" font-family="Sans-Serif" font-size="14" text-anchor="middle">2878</text>
  </g>
  <!-- 2828&#45;&gt;2878 -->
  <g id="edge17" class="edge">
   <title>2828-&gt;2878</title>
   <path d="m180.9-819.92c18.18 5.67 42.75 13.34 62.88 19.62" fill="none" stroke="#000"/>
   <polygon points="244.63 -803.39 253.13 -797.07 242.54 -796.71" stroke="#000"/>
  </g>
  <!-- 2713 -->
  <g id="node26" class="node">
   <title>2713</title>
   <polygon points="308 -1531 254 -1531 254 -1495 308 -1495" fill="none" stroke="#000" stroke-width=".5"/>
   <text x="281" y="-1509.45" font-family="Sans-Serif" font-size="14" text-anchor="middle">2713</text>
  </g>
  <!-- 2713&#45;&gt;2835 -->
  <g id="edge21" class="edge">
   <title>2713-&gt;2835</title>
   <path d="m307.9-1525.4c18.35-8.81 43.21-20.74 63.43-30.45" fill="none" stroke="#000"/>
   <polygon points="369.6 -1559.4 380.13 -1560.6 372.63 -1553.1" stroke="#000"/>
  </g>
  <!-- 2698 -->
  <g id="node27" class="node">
   <title>2698</title>
   <polygon points="435 -1520 381 -1520 381 -1484 435 -1484" fill="none" stroke="#000" stroke-width=".5"/>
   <text x="408" y="-1498.45" font-family="Sans-Serif" font-size="14" text-anchor="middle">2698</text>
  </g>
  <!-- 2713&#45;&gt;2698 -->
  <g id="edge20" class="edge">
   <title>2713-&gt;2698</title>
   <path d="m307.9-1510.7c18.02 1.58 42.3 3.72 62.32 5.48" fill="none" stroke="#000"/>
   <polygon points="370.48 -1508.6 380.13 -1504.3 369.86 -1501.7" stroke="#000"/>
  </g>
  <!-- 2685 -->
  <g id="node28" class="node">
   <title>2685</title>
   <polygon points="562 -1508 508 -1508 508 -1472 562 -1472" fill="none" stroke="#000" stroke-width=".5"/>
   <text x="535" y="-1486.45" font-family="Sans-Serif" font-size="14" text-anchor="middle">2685</text>
  </g>
  <!-- 2698&#45;&gt;2685 -->
  <g id="edge22" class="edge">
   <title>2698-&gt;2685</title>
   <path d="m434.9-1499.5c18.02 1.73 42.3 4.06 62.32 5.98" fill="none" stroke="#000"/>
   <polygon points="497.51 -1496.9 507.13 -1492.5 496.84 -1490" stroke="#000"/>
  </g>
  <!-- 2712 -->
  <g id="node29" class="node">
   <title>2712</title>
   <polygon points="562 -1454 508 -1454 508 -1418 562 -1418" fill="none" stroke="#000" stroke-width=".5"/>
   <text x="535" y="-1432.45" font-family="Sans-Serif" font-size="14" text-anchor="middle">2712</text>
  </g>
  <!-- 2698&#45;&gt;2712 -->
  <g id="edge23" class="edge">
   <title>2698-&gt;2712</title>
   <path d="m434.9-1488.3c18.44 9.73 43.43 22.93 63.71 33.63" fill="none" stroke="#000"/>
   <polygon points="499.92 -1457.4 507.13 -1449.7 496.66 -1451.2" stroke="#000"/>
  </g>
  <!-- 2742 -->
  <g id="node30" class="node">
   <title>2742</title>
   <polygon points="562 -1562 508 -1562 508 -1526 562 -1526" fill="none" stroke="#000" stroke-width=".5"/>
   <text x="535" y="-1540.45" font-family="Sans-Serif" font-size="14" text-anchor="middle">2742</text>
  </g>
  <!-- 2698&#45;&gt;2742 -->
  <g id="edge24" class="edge">
   <title>2698-&gt;2742</title>
   <path d="m434.9-1510.7c18.18-6.11 42.75-14.37 62.88-21.13" fill="none" stroke="#000"/>
   <polygon points="496.54 -1535.4 507.13 -1535.3 498.77 -1528.8" stroke="#000"/>
  </g>
  <!-- 2813 -->
  <g id="node31" class="node">
   <title>2813</title>
   <polygon points="308 -1331 254 -1331 254 -1295 308 -1295" fill="none" stroke="#000" stroke-width=".5"/>
   <text x="281" y="-1309.45" font-family="Sans-Serif" font-size="14" text-anchor="middle">2813</text>
  </g>
  <!-- 2813&#45;&gt;2783 -->
  <g id="edge26" class="edge">
   <title>2813-&gt;2783</title>
   <path d="m307.59-1305.8c19.95 5.56 48.39 13.36 73.41 19.8 39.89 10.26 85.85 21.27 116.9 28.58" fill="none" stroke="#000"/>
   <polygon points="498.29 -1260.7 507.23 -1255 496.69 -1253.9" stroke="#000"/>
  </g>
  <!-- 2819 -->
  <g id="node32" class="node">
   <title>2819</title>
   <polygon points="435 -1331 381 -1331 381 -1295 435 -1295" fill="none" stroke="#000" stroke-width=".5"/>
   <text x="408" y="-1309.45" font-family="Sans-Serif" font-size="14" text-anchor="middle">2819</text>
  </g>
  <!-- 2813&#45;&gt;2819 -->
  <g id="edge25" class="edge">
   <title>2813-&gt;2819</title>
   <path d="m307.9-1313h62.32" fill="none" stroke="#000"/>
   <polygon points="370.13 -1316.5 380.13 -1313 370.13 -1309.5" stroke="#000"/>
  </g>
  <!-- 2819&#45;&gt;2853 -->
  <g id="edge45" class="edge">
   <title>2819-&gt;2853</title>
   <path d="m434.9-1311.6c18.02 1.01 42.3 2.37 62.32 3.49" fill="none" stroke="#000"/>
   <polygon points="497.34 -1311.5 507.13 -1307.4 496.95 -1304.5" stroke="#000"/>
  </g>
  <!-- 2772&#45;&gt;2713 -->
  <g id="edge27" class="edge">
   <title>2772-&gt;2713</title>
   <path d="m175.64-1422.8c20.63-17.83 52.51-45.37 75.61-65.33" fill="none" stroke="#000"/>
   <polygon points="248.47 -1491.2 258.33 -1495.1 253.05 -1486" stroke="#000"/>
  </g>
  <!-- 2772&#45;&gt;2813 -->
  <g id="edge28" class="edge">
   <title>2772-&gt;2813</title>
   <path d="m179.4-1387c19.27 14.18 46.36 34.12 67.57 49.73" fill="none" stroke="#000"/>
   <polygon points="248.68 -1339.7 254.66 -1330.9 244.54 -1334" stroke="#000"/>
  </g>
  <!-- 2823 -->
  <g id="node34" class="node">
   <title>2823</title>
   <polygon points="308 -1423 254 -1423 254 -1387 308 -1387" fill="none" stroke="#000" stroke-width=".5"/>
   <text x="281" y="-1401.45" font-family="Sans-Serif" font-size="14" text-anchor="middle">2823</text>
  </g>
  <!-- 2772&#45;&gt;2823 -->
  <g id="edge29" class="edge">
   <title>2772-&gt;2823</title>
   <path d="m180.9-1405h62.32" fill="none" stroke="#000"/>
   <polygon points="243.13 -1408.5 253.13 -1405 243.13 -1401.5" stroke="#000"/>
  </g>
  <!-- 2846 -->
  <g id="node35" class="node">
   <title>2846</title>
   <polygon points="308 -1477 254 -1477 254 -1441 308 -1441" fill="none" stroke="#000" stroke-width=".5"/>
   <text x="281" y="-1455.45" font-family="Sans-Serif" font-size="14" text-anchor="middle">2846</text>
  </g>
  <!-- 2772&#45;&gt;2846 -->
  <g id="edge30" class="edge">
   <title>2772-&gt;2846</title>
   <path d="m180.9-1416.2c18.27-7.89 42.98-18.57 63.15-27.28" fill="none" stroke="#000"/>
   <polygon points="242.57 -1447.1 253.13 -1447.8 245.34 -1440.6" stroke="#000"/>
  </g>
  <!-- 2771 -->
  <g id="node36" class="node">
   <title>2771</title>
   <polygon points="308 -1134 254 -1134 254 -1098 308 -1098" fill="none" stroke="#000" stroke-width=".5"/>
   <text x="281" y="-1112.45" font-family="Sans-Serif" font-size="14" text-anchor="middle">2771</text>
  </g>
  <!-- 2771&#45;&gt;2851 -->
  <g id="edge33" class="edge">
   <title>2771-&gt;2851</title>
   <path d="m303.2-1133.8c20.39-17.12 51.37-43.15 74.19-62.32" fill="none" stroke="#000"/>
   <polygon points="374.78 -1199.4 384.69 -1203.1 379.29 -1194" stroke="#000"/>
  </g>
  <!-- 2771&#45;&gt;2807 -->
  <g id="edge31" class="edge">
   <title>2771-&gt;2807</title>
   <path d="m307.75-1119.9c65.9-9.91 240.81-36.22 316.97-47.67" fill="none" stroke="#000"/>
   <polygon points="623.8 -1171.1 634.21 -1169.1 624.84 -1164.2" stroke="#000"/>
  </g>
  <!-- 2759 -->
  <g id="node38" class="node">
   <title>2759</title>
   <polygon points="435 -1107 381 -1107 381 -1071 435 -1071" fill="none" stroke="#000" stroke-width=".5"/>
   <text x="408" y="-1085.45" font-family="Sans-Serif" font-size="14" text-anchor="middle">2759</text>
  </g>
  <!-- 2771&#45;&gt;2759 -->
  <g id="edge32" class="edge">
   <title>2771-&gt;2759</title>
   <path d="m307.9-1110.4c18.1 3.91 42.53 9.19 62.6 13.53" fill="none" stroke="#000"/>
   <polygon points="371.1 -1100.1 380.13 -1094.6 369.62 -1093.3" stroke="#000"/>
  </g>
  <!-- 2881&#45;&gt;2837 -->
  <g id="edge35" class="edge">
   <title>2881-&gt;2837</title>
   <path d="m180.82-1048.4c25.26 2.33 64.82 5.38 99.18 5.38h383c31.16 0 64.87 10.94 89.43 21.08" fill="none" stroke="#000"/>
   <polygon points="753.55 -1024.8 761.35 -1017.6 750.78 -1018.4" stroke="#000"/>
  </g>
  <!-- 2881&#45;&gt;2771 -->
  <g id="edge34" class="edge">
   <title>2881-&gt;2771</title>
   <path d="m180.9-1064.5c18.44-9.58 43.43-22.58 63.71-33.13" fill="none" stroke="#000"/>
   <polygon points="242.65 -1101 253.13 -1102.6 245.88 -1094.8" stroke="#000"/>
  </g>
 </g>
</svg>
