<?xml version="1.0" encoding="UTF-8"?>
<!DOCTYPE svg  PUBLIC '-//W3C//DTD SVG 1.1//EN'  'http://www.w3.org/Graphics/SVG/1.1/DTD/svg11.dtd'>
<!-- Generated by graphviz version 8.1.0 (20230707.0739)
 -->
<!-- Title: G Pages: 1 -->
<svg width="316pt" height="44pt" viewBox="0 0 316 44" xmlns="http://www.w3.org/2000/svg">
 <g id="graph0" class="graph" transform="scale(1) translate(4 40)">
  <title>G</title>
  <polygon points="-4 4 -4 -40 312 -40 312 4" fill="#fff"/>
  <!-- r -->
  <g id="node1" class="node">
   <title>r</title>
   <path d="m42-36h-30c-6 0-12 6-12 12v12c0 6 6 12 12 12h30c6 0 12-6 12-12v-12c0-6-6-12-12-12" fill="none" stroke="#000" stroke-width=".5"/>
   <text x="27" y="-14.45" font-family="Sans-Serif" font-size="14" text-anchor="middle">r</text>
  </g>
  <!-- a -->
  <g id="node2" class="node">
   <title>a</title>
   <polygon points="181 -36 127 -36 127 0 181 0" fill="none" stroke="#000" stroke-width=".5"/>
   <text x="154" y="-14.45" font-family="Sans-Serif" font-size="14" text-anchor="middle">a</text>
  </g>
  <!-- r&#45;&gt;a -->
  <g id="edge1" class="edge">
   <title>r-&gt;a</title>
   <path d="m53.9-18h62.32" fill="none" stroke="#000"/>
   <polygon points="116.13 -21.5 126.13 -18 116.13 -14.5" stroke="#000"/>
  </g>
  <!-- b -->
  <g id="node3" class="node">
   <title>b</title>
   <polygon points="308 -36 254 -36 254 0 308 0" fill="none" stroke="#000" stroke-width=".5"/>
   <text x="281" y="-14.45" font-family="Sans-Serif" font-size="14" text-anchor="middle">b</text>
  </g>
  <!-- a&#45;&gt;b -->
  <g id="edge2" class="edge">
   <title>a-&gt;b</title>
   <path d="m180.9-12.41c18.02 1.3 42.3 1.51 62.32 0.62" fill="none" stroke="#000"/>
   <polygon points="242.95 -15.33 253.13 -12.41 243.35 -8.34" stroke="#000"/>
  </g>
  <!-- b&#45;&gt;a -->
  <g id="edge3" class="edge">
   <title>b-&gt;a</title>
   <path d="m254.13-23.59c-18.01-1.3-42.29-1.51-62.31-0.63" fill="none" stroke="#000"/>
   <polygon points="192.08 -20.67 181.9 -23.59 191.68 -27.66" stroke="#000"/>
  </g>
 </g>
</svg>
