<?xml version="1.0" encoding="UTF-8"?>
<!DOCTYPE svg  PUBLIC '-//W3C//DTD SVG 1.1//EN'  'http://www.w3.org/Graphics/SVG/1.1/DTD/svg11.dtd'>
<!-- Generated by graphviz version 8.1.0 (20230707.0739)
 -->
<!-- Title: G Pages: 1 -->
<svg width="335pt" height="52pt" viewBox="0 0 334.5 52.39" xmlns="http://www.w3.org/2000/svg">
 <g id="graph0" class="graph" transform="scale(1) translate(4 48.39)">
  <title>G</title>
  <polygon points="-4 4 -4 -48.39 330.5 -48.39 330.5 4" fill="#fff"/>
  <!-- r -->
  <g id="node1" class="node">
   <title>r</title>
   <path d="m42-42.89h-30c-6 0-12 6-12 12v12c0 6 6 12 12 12h30c6 0 12-6 12-12v-12c0-6-6-12-12-12" fill="none" stroke="#000" stroke-width=".5"/>
   <text x="27" y="-21.34" font-family="Sans-Serif" font-size="14" text-anchor="middle">r</text>
  </g>
  <!-- a -->
  <g id="node2" class="node">
   <title>a</title>
   <polygon points="190.25 -42.89 136.25 -42.89 136.25 -6.89 190.25 -6.89" fill="none" stroke="#000" stroke-width=".5"/>
   <text x="163.25" y="-21.34" font-family="Sans-Serif" font-size="14" text-anchor="middle">a</text>
  </g>
  <!-- r&#45;&gt;a -->
  <g id="edge1" class="edge">
   <title>r-&gt;a</title>
   <path d="m53.88-24.89h71.63" fill="none" stroke="#000"/>
   <polygon points="125.44 -28.39 135.44 -24.89 125.44 -21.39" stroke="#000"/>
   <text x="95.12" y="-31.09" font-family="Sans-Serif" font-size="14" text-anchor="middle">0</text>
  </g>
  <!-- b -->
  <g id="node3" class="node">
   <title>b</title>
   <polygon points="326.5 -42.89 272.5 -42.89 272.5 -6.89 326.5 -6.89" fill="none" stroke="#000" stroke-width=".5"/>
   <text x="299.5" y="-21.34" font-family="Sans-Serif" font-size="14" text-anchor="middle">b</text>
  </g>
  <!-- a&#45;&gt;b -->
  <g id="edge2" class="edge">
   <title>a-&gt;b</title>
   <path d="m190.13-24.89h71.63" fill="none" stroke="#000"/>
   <polygon points="261.69 -28.39 271.69 -24.89 261.69 -21.39" stroke="#000"/>
   <text x="231.38" y="-31.09" font-family="Sans-Serif" font-size="14" text-anchor="middle">0</text>
  </g>
  <!-- b&#45;&gt;a -->
  <g id="edge3" class="edge">
   <title>b-&gt;a</title>
   <path d="m272.56-9.69c-13.31 6.09-29.93 11.08-45.31 8.3-8.98-1.62-18.36-4.44-27.05-7.58" fill="none" stroke="#000"/>
   <polygon points="199.09 -6.04 191.02 -12.9 201.61 -12.57" stroke="#000"/>
   <text x="231.38" y="-8.09" font-family="Sans-Serif" font-size="14" text-anchor="middle">1</text>
  </g>
 </g>
</svg>
