<?xml version="1.0" encoding="UTF-8" standalone="no"?>
<!DOCTYPE svg PUBLIC "-//W3C//DTD SVG 1.1//EN"
 "http://www.w3.org/Graphics/SVG/1.1/DTD/svg11.dtd">
<!-- Generated by graphviz version 8.1.0 (20230707.0739)
 -->
<!-- Title: G Pages: 1 -->
<svg width="335pt" height="46pt"
 viewBox="0.00 0.00 334.50 45.50" xmlns="http://www.w3.org/2000/svg" xmlns:xlink="http://www.w3.org/1999/xlink">
<g id="graph0" class="graph" transform="scale(1 1) rotate(0) translate(4 41.5)">
<title>G</title>
<polygon fill="white" stroke="none" points="-4,4 -4,-41.5 330.5,-41.5 330.5,4 -4,4"/>
<!-- r -->
<g id="node1" class="node">
<title>r</title>
<path fill="none" stroke="black" stroke-width="0.5" d="M42,-36C42,-36 12,-36 12,-36 6,-36 0,-30 0,-24 0,-24 0,-12 0,-12 0,-6 6,0 12,0 12,0 42,0 42,0 48,0 54,-6 54,-12 54,-12 54,-24 54,-24 54,-30 48,-36 42,-36"/>
<text text-anchor="middle" x="27" y="-14.45" font-family="Sans-Serif" font-size="14.00">r</text>
</g>
<!-- a -->
<g id="node2" class="node">
<title>a</title>
<polygon fill="none" stroke="black" stroke-width="0.5" points="190.25,-36 136.25,-36 136.25,0 190.25,0 190.25,-36"/>
<text text-anchor="middle" x="163.25" y="-14.45" font-family="Sans-Serif" font-size="14.00">a</text>
</g>
<!-- r&#45;&gt;a -->
<g id="edge1" class="edge">
<title>r&#45;&gt;a</title>
<path fill="none" stroke="black" d="M53.88,-18C74.22,-18 102.8,-18 125.51,-18"/>
<polygon fill="black" stroke="black" points="125.44,-21.5 135.44,-18 125.44,-14.5 125.44,-21.5"/>
<text text-anchor="middle" x="95.12" y="-24.2" font-family="Sans-Serif" font-size="14.00">0</text>
</g>
<!-- b -->
<g id="node3" class="node">
<title>b</title>
<polygon fill="none" stroke="black" stroke-width="0.5" points="326.5,-36 272.5,-36 272.5,0 326.5,0 326.5,-36"/>
<text text-anchor="middle" x="299.5" y="-14.45" font-family="Sans-Serif" font-size="14.00">b</text>
</g>
<!-- a&#45;&gt;b -->
<g id="edge2" class="edge">
<title>a&#45;&gt;b</title>
<path fill="none" stroke="black" d="M190.13,-18C210.47,-18 239.05,-18 261.76,-18"/>
<polygon fill="black" stroke="black" points="261.69,-21.5 271.69,-18 261.69,-14.5 261.69,-21.5"/>
<text text-anchor="middle" x="231.38" y="-24.2" font-family="Sans-Serif" font-size="14.00">0</text>
</g>
</g>
</svg>
