<?xml version="1.0" encoding="UTF-8" standalone="no"?>
<!DOCTYPE svg PUBLIC "-//W3C//DTD SVG 1.1//EN"
 "http://www.w3.org/Graphics/SVG/1.1/DTD/svg11.dtd">
<!-- Generated by graphviz version 8.1.0 (20230707.0739)
 -->
<!-- Title: G Pages: 1 -->
<svg width="327pt" height="82pt"
 viewBox="0.00 0.00 327.25 81.50" xmlns="http://www.w3.org/2000/svg" xmlns:xlink="http://www.w3.org/1999/xlink">
<g id="graph0" class="graph" transform="scale(1 1) rotate(0) translate(4 77.5)">
<title>G</title>
<polygon fill="white" stroke="none" points="-4,4 -4,-77.5 323.25,-77.5 323.25,4 -4,4"/>
<!-- r -->
<g id="node1" class="node">
<title>r</title>
<path fill="none" stroke="black" stroke-width="0.5" d="M42,-36C42,-36 12,-36 12,-36 6,-36 0,-30 0,-24 0,-24 0,-12 0,-12 0,-6 6,0 12,0 12,0 42,0 42,0 48,0 54,-6 54,-12 54,-12 54,-24 54,-24 54,-30 48,-36 42,-36"/>
<text text-anchor="middle" x="27" y="-14.45" font-family="Sans-Serif" font-size="14.00">r</text>
</g>
<!-- x -->
<g id="node3" class="node">
<title>x</title>
<polygon fill="none" stroke="black" stroke-width="0.5" points="190.25,-36 136.25,-36 136.25,0 190.25,0 190.25,-36"/>
<text text-anchor="middle" x="163.25" y="-14.45" font-family="Sans-Serif" font-size="14.00">x</text>
</g>
<!-- r&#45;&gt;x -->
<g id="edge1" class="edge">
<title>r&#45;&gt;x</title>
<path fill="none" stroke="black" d="M53.88,-18C74.22,-18 102.8,-18 125.51,-18"/>
<polygon fill="black" stroke="black" points="125.44,-21.5 135.44,-18 125.44,-14.5 125.44,-21.5"/>
<text text-anchor="middle" x="95.12" y="-24.2" font-family="Sans-Serif" font-size="14.00">1</text>
</g>
<!-- y -->
<!-- x&#45;&gt;y -->
<g id="edge2" class="edge">
<title>x&#45;&gt;y</title>
<path fill="none" stroke="black" d="M189.95,-18C208.54,-18 233.93,-18 254.64,-18"/>
<polygon fill="black" stroke="black" points="254.59,-21.5 264.59,-18 254.59,-14.5 254.59,-21.5"/>
</g>
<!-- x&#45;&gt;x -->
<g id="edge3" class="edge">
<title>x&#45;&gt;x</title>
<path fill="none" stroke="black" stroke-dasharray="5,2" d="M155.07,-35.78C153.68,-45.31 156.41,-54 163.25,-54 167.31,-54 169.92,-50.94 171.09,-46.45"/>
<polygon fill="black" stroke="black" points="174.61,-46.89 171.43,-36.78 167.61,-46.66 174.61,-46.89"/>
<text text-anchor="middle" x="163.25" y="-60.2" font-family="Sans-Serif" font-size="14.00">0</text>
</g>
</g>
</svg>
