<?xml version="1.0" encoding="UTF-8" standalone="no"?>
<!DOCTYPE svg PUBLIC "-//W3C//DTD SVG 1.1//EN"
 "http://www.w3.org/Graphics/SVG/1.1/DTD/svg11.dtd">
<!-- Generated by graphviz version 8.1.0 (20230707.0739)
 -->
<!-- Title: G Pages: 1 -->
<svg width="951pt" height="1732pt"
 viewBox="0.00 0.00 951.00 1732.00" xmlns="http://www.w3.org/2000/svg" xmlns:xlink="http://www.w3.org/1999/xlink">
<g id="graph0" class="graph" transform="scale(1 1) rotate(0) translate(4 1728)">
<title>G</title>
<polygon fill="white" stroke="none" points="-4,4 -4,-1728 947,-1728 947,4 -4,4"/>
<!-- root -->
<g id="node1" class="node">
<title>root</title>
<path fill="none" stroke="black" stroke-width="0.5" d="M42,-765C42,-765 12,-765 12,-765 6,-765 0,-759 0,-753 0,-753 0,-741 0,-741 0,-735 6,-729 12,-729 12,-729 42,-729 42,-729 48,-729 54,-735 54,-741 54,-741 54,-753 54,-753 54,-759 48,-765 42,-765"/>
<text text-anchor="middle" x="27" y="-743.45" font-family="Sans-Serif" font-size="14.00">root</text>
</g>
<!-- 2892 -->
<g id="node2" class="node">
<title>2892</title>
<polygon fill="none" stroke="black" stroke-width="0.5" points="181,-1712 127,-1712 127,-1676 181,-1676 181,-1712"/>
<text text-anchor="middle" x="154" y="-1690.45" font-family="Sans-Serif" font-size="14.00">2892</text>
</g>
<!-- root&#45;&gt;2892 -->
<g id="edge61" class="edge">
<title>root&#45;&gt;2892</title>
<path fill="none" stroke="black" d="M28.16,-764.78C29.39,-885.65 38.68,-1584.39 90,-1662 96.41,-1671.69 106.7,-1678.59 117.13,-1683.44"/>
<polygon fill="black" stroke="black" points="115.46,-1686.95 126.04,-1687.49 118.1,-1680.47 115.46,-1686.95"/>
</g>
<!-- 2883 -->
<g id="node3" class="node">
<title>2883</title>
<polygon fill="none" stroke="black" stroke-width="0.5" points="308,-1688 254,-1688 254,-1652 308,-1652 308,-1688"/>
<text text-anchor="middle" x="281" y="-1666.45" font-family="Sans-Serif" font-size="14.00">2883</text>
</g>
<!-- root&#45;&gt;2883 -->
<g id="edge69" class="edge">
<title>root&#45;&gt;2883</title>
<path fill="none" stroke="black" d="M27.78,-764.84C26.72,-870.24 24.56,-1411.93 90,-1562 116.66,-1623.15 196.31,-1651.24 243.6,-1662.85"/>
<polygon fill="black" stroke="black" points="242.48,-1666.41 253.02,-1665.27 244.07,-1659.59 242.48,-1666.41"/>
</g>
<!-- 2852 -->
<g id="node4" class="node">
<title>2852</title>
<polygon fill="none" stroke="black" stroke-width="0.5" points="816,-1607 762,-1607 762,-1571 816,-1571 816,-1607"/>
<text text-anchor="middle" x="789" y="-1585.45" font-family="Sans-Serif" font-size="14.00">2852</text>
</g>
<!-- root&#45;&gt;2852 -->
<g id="edge62" class="edge">
<title>root&#45;&gt;2852</title>
<path fill="none" stroke="black" d="M28.34,-764.97C30.25,-856.35 41.5,-1269.8 90,-1387 113.42,-1443.59 234.24,-1527.25 254,-1540 388.21,-1626.6 438.28,-1644 598,-1644 598,-1644 598,-1644 663,-1644 696.28,-1644 730.64,-1627.46 754.9,-1612.53"/>
<polygon fill="black" stroke="black" points="756.46,-1615.04 763,-1606.71 752.69,-1609.15 756.46,-1615.04"/>
</g>
<!-- 2868 -->
<g id="node7" class="node">
<title>2868</title>
<polygon fill="none" stroke="black" stroke-width="0.5" points="181,-976 127,-976 127,-940 181,-940 181,-976"/>
<text text-anchor="middle" x="154" y="-954.45" font-family="Sans-Serif" font-size="14.00">2868</text>
</g>
<!-- root&#45;&gt;2868 -->
<g id="edge57" class="edge">
<title>root&#45;&gt;2868</title>
<path fill="none" stroke="black" d="M29.77,-764.95C34.08,-799.91 48.07,-877.91 90,-926 97.32,-934.39 107.36,-940.85 117.28,-945.7"/>
<polygon fill="black" stroke="black" points="115.5,-949.18 126.06,-950.02 118.33,-942.78 115.5,-949.18"/>
</g>
<!-- 2890 -->
<g id="node8" class="node">
<title>2890</title>
<polygon fill="none" stroke="black" stroke-width="0.5" points="308,-899 254,-899 254,-863 308,-863 308,-899"/>
<text text-anchor="middle" x="281" y="-877.45" font-family="Sans-Serif" font-size="14.00">2890</text>
</g>
<!-- root&#45;&gt;2890 -->
<g id="edge47" class="edge">
<title>root&#45;&gt;2890</title>
<path fill="none" stroke="black" d="M29.75,-764.75C33.91,-796.01 47.45,-860.23 90,-888 136.18,-918.14 203.01,-905.96 243.86,-893.86"/>
<polygon fill="black" stroke="black" points="244.66,-896.97 253.16,-890.65 242.57,-890.28 244.66,-896.97"/>
</g>
<!-- 2837 -->
<g id="node9" class="node">
<title>2837</title>
<polygon fill="none" stroke="black" stroke-width="0.5" points="816,-1023 762,-1023 762,-987 816,-987 816,-1023"/>
<text text-anchor="middle" x="789" y="-1001.45" font-family="Sans-Serif" font-size="14.00">2837</text>
</g>
<!-- root&#45;&gt;2837 -->
<g id="edge51" class="edge">
<title>root&#45;&gt;2837</title>
<path fill="none" stroke="black" d="M28.36,-764.73C30.56,-823.02 45.99,-1005 153,-1005 153,-1005 153,-1005 663,-1005 692.73,-1005 726.45,-1005 751.36,-1005"/>
<polygon fill="black" stroke="black" points="751.14,-1008.5 761.14,-1005 751.14,-1001.5 751.14,-1008.5"/>
</g>
<!-- 2871 -->
<g id="node14" class="node">
<title>2871</title>
<polygon fill="none" stroke="black" stroke-width="0.5" points="689,-1499 635,-1499 635,-1463 689,-1463 689,-1499"/>
<text text-anchor="middle" x="662" y="-1477.45" font-family="Sans-Serif" font-size="14.00">2871</text>
</g>
<!-- root&#45;&gt;2871 -->
<g id="edge46" class="edge">
<title>root&#45;&gt;2871</title>
<path fill="none" stroke="black" d="M27.74,-764.98C26.77,-866.07 28.43,-1359 153,-1359 153,-1359 153,-1359 218,-1359 372.5,-1359 418.9,-1350.75 562,-1409 589.14,-1420.05 615.76,-1440.08 634.56,-1456.22"/>
<polygon fill="black" stroke="black" points="631.79,-1458.33 641.61,-1462.31 636.42,-1453.07 631.79,-1458.33"/>
</g>
<!-- 2822 -->
<g id="node15" class="node">
<title>2822</title>
<polygon fill="none" stroke="black" stroke-width="0.5" points="816,-1170 762,-1170 762,-1134 816,-1134 816,-1170"/>
<text text-anchor="middle" x="789" y="-1148.45" font-family="Sans-Serif" font-size="14.00">2822</text>
</g>
<!-- root&#45;&gt;2822 -->
<g id="edge63" class="edge">
<title>root&#45;&gt;2822</title>
<path fill="none" stroke="black" d="M29.28,-764.76C35.58,-845.39 66.48,-1173 153,-1173 153,-1173 153,-1173 409,-1173 510.16,-1173 534.02,-1152.01 635,-1146 658.96,-1144.57 665.01,-1145.27 689,-1146 709.76,-1146.63 732.94,-1148 751.65,-1149.27"/>
<polygon fill="black" stroke="black" points="751.16,-1152.81 761.38,-1150.02 751.65,-1145.83 751.16,-1152.81"/>
</g>
<!-- 2828 -->
<g id="node23" class="node">
<title>2828</title>
<polygon fill="none" stroke="black" stroke-width="0.5" points="181,-846 127,-846 127,-810 181,-810 181,-846"/>
<text text-anchor="middle" x="154" y="-824.45" font-family="Sans-Serif" font-size="14.00">2828</text>
</g>
<!-- root&#45;&gt;2828 -->
<g id="edge68" class="edge">
<title>root&#45;&gt;2828</title>
<path fill="none" stroke="black" d="M53.9,-763.78C72.5,-775.84 97.79,-792.22 118.16,-805.42"/>
<polygon fill="black" stroke="black" points="115.84,-808.74 126.13,-811.24 119.64,-802.86 115.84,-808.74"/>
</g>
<!-- 2772 -->
<g id="node33" class="node">
<title>2772</title>
<polygon fill="none" stroke="black" stroke-width="0.5" points="181,-1423 127,-1423 127,-1387 181,-1387 181,-1423"/>
<text text-anchor="middle" x="154" y="-1401.45" font-family="Sans-Serif" font-size="14.00">2772</text>
</g>
<!-- root&#45;&gt;2772 -->
<g id="edge73" class="edge">
<title>root&#45;&gt;2772</title>
<path fill="none" stroke="black" d="M28.75,-764.7C32.94,-861.2 54.71,-1321.39 90,-1373 96.56,-1382.59 106.89,-1389.47 117.3,-1394.32"/>
<polygon fill="black" stroke="black" points="115.61,-1397.82 126.19,-1398.38 118.27,-1391.35 115.61,-1397.82"/>
</g>
<!-- 2881 -->
<g id="node39" class="node">
<title>2881</title>
<polygon fill="none" stroke="black" stroke-width="0.5" points="181,-1069 127,-1069 127,-1033 181,-1033 181,-1069"/>
<text text-anchor="middle" x="154" y="-1047.45" font-family="Sans-Serif" font-size="14.00">2881</text>
</g>
<!-- root&#45;&gt;2881 -->
<g id="edge56" class="edge">
<title>root&#45;&gt;2881</title>
<path fill="none" stroke="black" d="M30.07,-764.76C36.63,-818.55 58.42,-978.52 90,-1019 96.96,-1027.92 107.09,-1034.57 117.19,-1039.42"/>
<polygon fill="black" stroke="black" points="115.6,-1042.98 126.17,-1043.7 118.35,-1036.54 115.6,-1042.98"/>
</g>
<!-- 2901 -->
<g id="node41" class="node">
<title>2901</title>
<polygon fill="none" stroke="black" stroke-width="0.5" points="435,-872 381,-872 381,-836 435,-836 435,-872"/>
<text text-anchor="middle" x="408" y="-850.45" font-family="Sans-Serif" font-size="14.00">2901</text>
</g>
<!-- root&#45;&gt;2901 -->
<g id="edge64" class="edge">
<title>root&#45;&gt;2901</title>
<path fill="none" stroke="black" d="M37.66,-764.6C52.82,-790.15 84.86,-836.46 127,-855 148.97,-864.66 157,-855.16 181,-855 213.45,-854.78 221.55,-854.22 254,-854 293.74,-853.73 339.29,-853.77 370.29,-853.86"/>
<polygon fill="black" stroke="black" points="370,-857.36 380.01,-853.89 370.02,-850.36 370,-857.36"/>
</g>
<!-- 2902 -->
<g id="node43" class="node">
<title>2902</title>
<polygon fill="none" stroke="black" stroke-width="0.5" points="181,-792 127,-792 127,-756 181,-756 181,-792"/>
<text text-anchor="middle" x="154" y="-770.45" font-family="Sans-Serif" font-size="14.00">2902</text>
</g>
<!-- root&#45;&gt;2902 -->
<g id="edge48" class="edge">
<title>root&#45;&gt;2902</title>
<path fill="none" stroke="black" d="M53.9,-752.59C72,-756.5 96.43,-761.78 116.5,-766.12"/>
<polygon fill="black" stroke="black" points="115.62,-769.72 126.13,-768.41 117.1,-762.88 115.62,-769.72"/>
</g>
<!-- 2900 -->
<g id="node44" class="node">
<title>2900</title>
<polygon fill="none" stroke="black" stroke-width="0.5" points="181,-738 127,-738 127,-702 181,-702 181,-738"/>
<text text-anchor="middle" x="154" y="-716.45" font-family="Sans-Serif" font-size="14.00">2900</text>
</g>
<!-- root&#45;&gt;2900 -->
<g id="edge49" class="edge">
<title>root&#45;&gt;2900</title>
<path fill="none" stroke="black" d="M53.9,-741.41C72,-737.5 96.43,-732.22 116.5,-727.88"/>
<polygon fill="black" stroke="black" points="117.1,-731.12 126.13,-725.59 115.62,-724.28 117.1,-731.12"/>
</g>
<!-- 2842 -->
<g id="node45" class="node">
<title>2842</title>
<polygon fill="none" stroke="black" stroke-width="0.5" points="181,-684 127,-684 127,-648 181,-648 181,-684"/>
<text text-anchor="middle" x="154" y="-662.45" font-family="Sans-Serif" font-size="14.00">2842</text>
</g>
<!-- root&#45;&gt;2842 -->
<g id="edge50" class="edge">
<title>root&#45;&gt;2842</title>
<path fill="none" stroke="black" d="M53.9,-730.22C72.5,-718.16 97.79,-701.78 118.16,-688.58"/>
<polygon fill="black" stroke="black" points="119.64,-691.14 126.13,-682.76 115.84,-685.26 119.64,-691.14"/>
</g>
<!-- 2877 -->
<g id="node46" class="node">
<title>2877</title>
<polygon fill="none" stroke="black" stroke-width="0.5" points="181,-630 127,-630 127,-594 181,-594 181,-630"/>
<text text-anchor="middle" x="154" y="-608.45" font-family="Sans-Serif" font-size="14.00">2877</text>
</g>
<!-- root&#45;&gt;2877 -->
<g id="edge52" class="edge">
<title>root&#45;&gt;2877</title>
<path fill="none" stroke="black" d="M43.99,-729.29C63.45,-707.8 97.39,-670.51 127,-639 127.35,-638.63 127.69,-638.26 128.04,-637.89"/>
<polygon fill="black" stroke="black" points="130.24,-640.61 134.6,-630.95 125.17,-635.78 130.24,-640.61"/>
</g>
<!-- 2869 -->
<g id="node47" class="node">
<title>2869</title>
<polygon fill="none" stroke="black" stroke-width="0.5" points="181,-576 127,-576 127,-540 181,-540 181,-576"/>
<text text-anchor="middle" x="154" y="-554.45" font-family="Sans-Serif" font-size="14.00">2869</text>
</g>
<!-- root&#45;&gt;2869 -->
<g id="edge53" class="edge">
<title>root&#45;&gt;2869</title>
<path fill="none" stroke="black" d="M37.23,-729.16C53.49,-698.42 89.13,-634.05 127,-585 127.22,-584.71 127.45,-584.42 127.68,-584.13"/>
<polygon fill="black" stroke="black" points="130.96,-586.68 134.81,-576.81 125.65,-582.12 130.96,-586.68"/>
</g>
<!-- 2873 -->
<g id="node48" class="node">
<title>2873</title>
<polygon fill="none" stroke="black" stroke-width="0.5" points="181,-522 127,-522 127,-486 181,-486 181,-522"/>
<text text-anchor="middle" x="154" y="-500.45" font-family="Sans-Serif" font-size="14.00">2873</text>
</g>
<!-- root&#45;&gt;2873 -->
<g id="edge54" class="edge">
<title>root&#45;&gt;2873</title>
<path fill="none" stroke="black" d="M33.86,-729.16C46.94,-690.8 81.01,-598.5 127,-531 127.13,-530.81 127.27,-530.61 127.4,-530.42"/>
<polygon fill="black" stroke="black" points="130.72,-532.87 134.21,-522.87 125.24,-528.51 130.72,-532.87"/>
</g>
<!-- 2867 -->
<g id="node49" class="node">
<title>2867</title>
<polygon fill="none" stroke="black" stroke-width="0.5" points="308,-1625 254,-1625 254,-1589 308,-1589 308,-1625"/>
<text text-anchor="middle" x="281" y="-1603.45" font-family="Sans-Serif" font-size="14.00">2867</text>
</g>
<!-- root&#45;&gt;2867 -->
<g id="edge55" class="edge">
<title>root&#45;&gt;2867</title>
<path fill="none" stroke="black" d="M28.2,-764.77C29.6,-876.98 39.49,-1484.7 90,-1548 126.86,-1594.2 199.33,-1605 243.34,-1607.08"/>
<polygon fill="black" stroke="black" points="243.03,-1610.6 253.14,-1607.44 243.26,-1603.61 243.03,-1610.6"/>
</g>
<!-- 2897 -->
<g id="node50" class="node">
<title>2897</title>
<polygon fill="none" stroke="black" stroke-width="0.5" points="181,-468 127,-468 127,-432 181,-432 181,-468"/>
<text text-anchor="middle" x="154" y="-446.45" font-family="Sans-Serif" font-size="14.00">2897</text>
</g>
<!-- root&#45;&gt;2897 -->
<g id="edge58" class="edge">
<title>root&#45;&gt;2897</title>
<path fill="none" stroke="black" d="M31.83,-729.12C42.04,-684.12 72.85,-563.56 127,-477 127.13,-476.8 127.25,-476.6 127.38,-476.4"/>
<polygon fill="black" stroke="black" points="130.71,-478.8 133.99,-468.73 125.15,-474.56 130.71,-478.8"/>
</g>
<!-- 2884 -->
<g id="node51" class="node">
<title>2884</title>
<polygon fill="none" stroke="black" stroke-width="0.5" points="181,-414 127,-414 127,-378 181,-378 181,-414"/>
<text text-anchor="middle" x="154" y="-392.45" font-family="Sans-Serif" font-size="14.00">2884</text>
</g>
<!-- root&#45;&gt;2884 -->
<g id="edge59" class="edge">
<title>root&#45;&gt;2884</title>
<path fill="none" stroke="black" d="M30.42,-729.32C37.96,-678.55 64.41,-529.14 127,-423 127.06,-422.9 127.12,-422.8 127.17,-422.71"/>
<polygon fill="black" stroke="black" points="130.5,-425.08 133.58,-414.94 124.85,-420.95 130.5,-425.08"/>
</g>
<!-- 2855 -->
<g id="node52" class="node">
<title>2855</title>
<polygon fill="none" stroke="black" stroke-width="0.5" points="181,-360 127,-360 127,-324 181,-324 181,-360"/>
<text text-anchor="middle" x="154" y="-338.45" font-family="Sans-Serif" font-size="14.00">2855</text>
</g>
<!-- root&#45;&gt;2855 -->
<g id="edge60" class="edge">
<title>root&#45;&gt;2855</title>
<path fill="none" stroke="black" d="M29.29,-729.16C34.04,-672.63 54.31,-493.88 127,-369 127.06,-368.9 127.12,-368.8 127.17,-368.7"/>
<polygon fill="black" stroke="black" points="130.51,-371.07 133.55,-360.92 124.84,-366.96 130.51,-371.07"/>
</g>
<!-- 2874 -->
<g id="node53" class="node">
<title>2874</title>
<polygon fill="none" stroke="black" stroke-width="0.5" points="181,-306 127,-306 127,-270 181,-270 181,-306"/>
<text text-anchor="middle" x="154" y="-284.45" font-family="Sans-Serif" font-size="14.00">2874</text>
</g>
<!-- root&#45;&gt;2874 -->
<g id="edge65" class="edge">
<title>root&#45;&gt;2874</title>
<path fill="none" stroke="black" d="M31.12,-729.01C39.43,-681.71 63.32,-550.07 90,-442 104.09,-384.92 97.53,-365.87 127,-315 127.06,-314.9 127.11,-314.8 127.17,-314.7"/>
<polygon fill="black" stroke="black" points="130.51,-317.07 133.53,-306.92 124.83,-312.96 130.51,-317.07"/>
</g>
<!-- 2899 -->
<g id="node54" class="node">
<title>2899</title>
<polygon fill="none" stroke="black" stroke-width="0.5" points="181,-252 127,-252 127,-216 181,-216 181,-252"/>
<text text-anchor="middle" x="154" y="-230.45" font-family="Sans-Serif" font-size="14.00">2899</text>
</g>
<!-- root&#45;&gt;2899 -->
<g id="edge66" class="edge">
<title>root&#45;&gt;2899</title>
<path fill="none" stroke="black" d="M28.08,-729.01C29.08,-662.65 38.98,-426.8 127,-261 127.05,-260.9 127.11,-260.8 127.16,-260.7"/>
<polygon fill="black" stroke="black" points="130.51,-263.01 133.32,-252.8 124.75,-259.03 130.51,-263.01"/>
</g>
<!-- 2893 -->
<g id="node55" class="node">
<title>2893</title>
<polygon fill="none" stroke="black" stroke-width="0.5" points="181,-198 127,-198 127,-162 181,-162 181,-198"/>
<text text-anchor="middle" x="154" y="-176.45" font-family="Sans-Serif" font-size="14.00">2893</text>
</g>
<!-- root&#45;&gt;2893 -->
<g id="edge67" class="edge">
<title>root&#45;&gt;2893</title>
<path fill="none" stroke="black" d="M29.97,-729.06C36.42,-671.96 58.27,-489.52 90,-341 102.91,-280.58 96.41,-260.68 127,-207 127.06,-206.9 127.11,-206.8 127.17,-206.7"/>
<polygon fill="black" stroke="black" points="130.51,-209.06 133.49,-198.89 124.82,-204.98 130.51,-209.06"/>
</g>
<!-- 2896 -->
<g id="node56" class="node">
<title>2896</title>
<polygon fill="none" stroke="black" stroke-width="0.5" points="181,-144 127,-144 127,-108 181,-108 181,-144"/>
<text text-anchor="middle" x="154" y="-122.45" font-family="Sans-Serif" font-size="14.00">2896</text>
</g>
<!-- root&#45;&gt;2896 -->
<g id="edge70" class="edge">
<title>root&#45;&gt;2896</title>
<path fill="none" stroke="black" d="M30.33,-729.23C37.91,-671.86 63,-486.42 90,-334 104.32,-253.15 88.79,-225.67 127,-153 127.05,-152.9 127.11,-152.8 127.16,-152.7"/>
<polygon fill="black" stroke="black" points="130.51,-155.01 133.29,-144.78 124.74,-151.04 130.51,-155.01"/>
</g>
<!-- 2903 -->
<g id="node57" class="node">
<title>2903</title>
<polygon fill="none" stroke="black" stroke-width="0.5" points="181,-90 127,-90 127,-54 181,-54 181,-90"/>
<text text-anchor="middle" x="154" y="-68.45" font-family="Sans-Serif" font-size="14.00">2903</text>
</g>
<!-- root&#45;&gt;2903 -->
<g id="edge71" class="edge">
<title>root&#45;&gt;2903</title>
<path fill="none" stroke="black" d="M30.5,-729.34C38.72,-671.45 65.76,-482.23 90,-326 105.67,-224.99 81.25,-190.41 127,-99 127.05,-98.9 127.1,-98.8 127.15,-98.69"/>
<polygon fill="black" stroke="black" points="130.51,-100.98 133.17,-90.72 124.7,-97.08 130.51,-100.98"/>
</g>
<!-- 2904 -->
<g id="node58" class="node">
<title>2904</title>
<polygon fill="none" stroke="black" stroke-width="0.5" points="181,-36 127,-36 127,0 181,0 181,-36"/>
<text text-anchor="middle" x="154" y="-14.45" font-family="Sans-Serif" font-size="14.00">2904</text>
</g>
<!-- root&#45;&gt;2904 -->
<g id="edge72" class="edge">
<title>root&#45;&gt;2904</title>
<path fill="none" stroke="black" d="M29.03,-729.13C34.83,-632.45 65.35,-171.56 127,-45 127.05,-44.9 127.1,-44.8 127.15,-44.69"/>
<polygon fill="black" stroke="black" points="130.51,-46.96 133.11,-36.69 124.67,-43.1 130.51,-46.96"/>
</g>
<!-- 2892&#45;&gt;2883 -->
<g id="edge1" class="edge">
<title>2892&#45;&gt;2883</title>
<path fill="none" stroke="black" d="M180.9,-1689.03C199,-1685.55 223.43,-1680.86 243.5,-1677.01"/>
<polygon fill="black" stroke="black" points="243.97,-1680.29 253.13,-1674.97 242.65,-1673.41 243.97,-1680.29"/>
</g>
<!-- 2892&#45;&gt;2852 -->
<g id="edge2" class="edge">
<title>2892&#45;&gt;2852</title>
<path fill="none" stroke="black" d="M180.9,-1703.99C205.89,-1712.72 244.96,-1724 280,-1724 280,-1724 280,-1724 663,-1724 720.79,-1724 759.33,-1656.58 776.96,-1617.03"/>
<polygon fill="black" stroke="black" points="780.57,-1618.5 781.28,-1607.93 774.13,-1615.74 780.57,-1618.5"/>
</g>
<!-- 2892&#45;&gt;2867 -->
<g id="edge74" class="edge">
<title>2892&#45;&gt;2867</title>
<path fill="none" stroke="black" d="M180.6,-1676.18C199.39,-1663.11 225.11,-1645.2 245.68,-1630.89"/>
<polygon fill="black" stroke="black" points="247.23,-1633.38 253.44,-1624.79 243.23,-1627.63 247.23,-1633.38"/>
</g>
<!-- 2849 -->
<g id="node5" class="node">
<title>2849</title>
<polygon fill="none" stroke="black" stroke-width="0.5" points="689,-1445 635,-1445 635,-1409 689,-1409 689,-1445"/>
<text text-anchor="middle" x="662" y="-1423.45" font-family="Sans-Serif" font-size="14.00">2849</text>
</g>
<!-- 2849&#45;&gt;2852 -->
<g id="edge4" class="edge">
<title>2849&#45;&gt;2852</title>
<path fill="none" stroke="black" d="M680.96,-1444.99C683.72,-1447.94 686.49,-1451.01 689,-1454 719.43,-1490.16 751.15,-1534.85 770.24,-1562.65"/>
<polygon fill="black" stroke="black" points="767.68,-1564.11 776.21,-1570.39 773.46,-1560.16 767.68,-1564.11"/>
</g>
<!-- 2848 -->
<g id="node6" class="node">
<title>2848</title>
<polygon fill="none" stroke="black" stroke-width="0.5" points="816,-1374 762,-1374 762,-1338 816,-1338 816,-1374"/>
<text text-anchor="middle" x="789" y="-1352.45" font-family="Sans-Serif" font-size="14.00">2848</text>
</g>
<!-- 2849&#45;&gt;2848 -->
<g id="edge3" class="edge">
<title>2849&#45;&gt;2848</title>
<path fill="none" stroke="black" d="M688.9,-1412.29C707.34,-1401.82 732.33,-1387.62 752.61,-1376.1"/>
<polygon fill="black" stroke="black" points="754.17,-1378.67 761.13,-1370.69 750.71,-1372.59 754.17,-1378.67"/>
</g>
<!-- 2801 -->
<g id="node18" class="node">
<title>2801</title>
<polygon fill="none" stroke="black" stroke-width="0.5" points="943,-1374 889,-1374 889,-1338 943,-1338 943,-1374"/>
<text text-anchor="middle" x="916" y="-1352.45" font-family="Sans-Serif" font-size="14.00">2801</text>
</g>
<!-- 2848&#45;&gt;2801 -->
<g id="edge13" class="edge">
<title>2848&#45;&gt;2801</title>
<path fill="none" stroke="black" d="M815.9,-1356C833.92,-1356 858.2,-1356 878.22,-1356"/>
<polygon fill="black" stroke="black" points="878.13,-1359.5 888.13,-1356 878.13,-1352.5 878.13,-1359.5"/>
</g>
<!-- 2868&#45;&gt;2890 -->
<g id="edge5" class="edge">
<title>2868&#45;&gt;2890</title>
<path fill="none" stroke="black" d="M180.9,-942.05C199.42,-930.64 224.56,-915.15 244.88,-902.63"/>
<polygon fill="black" stroke="black" points="246.45,-905.16 253.13,-896.93 242.78,-899.2 246.45,-905.16"/>
</g>
<!-- 2868&#45;&gt;2837 -->
<g id="edge6" class="edge">
<title>2868&#45;&gt;2837</title>
<path fill="none" stroke="black" d="M180.86,-951.12C206.13,-949 245.71,-949 280,-949 280,-949 280,-949 663,-949 698.41,-949 736.06,-965.73 760.67,-981.14"/>
<polygon fill="black" stroke="black" points="758.48,-984.55 768.75,-987.16 762.35,-978.71 758.48,-984.55"/>
</g>
<!-- 2890&#45;&gt;2901 -->
<g id="edge40" class="edge">
<title>2890&#45;&gt;2901</title>
<path fill="none" stroke="black" d="M307.9,-875.41C326,-871.5 350.43,-866.22 370.5,-861.88"/>
<polygon fill="black" stroke="black" points="371.1,-865.12 380.13,-859.59 369.62,-858.28 371.1,-865.12"/>
</g>
<!-- 2837&#45;&gt;2868 -->
<g id="edge12" class="edge">
<title>2837&#45;&gt;2868</title>
<path fill="none" stroke="black" d="M762.24,-996.05C737.67,-984.45 699.17,-967 663,-967 280,-967 280,-967 280,-967 250.27,-967 216.55,-967 191.64,-965.62"/>
<polygon fill="black" stroke="black" points="192.07,-962.07 181.86,-964.88 191.59,-969.06 192.07,-962.07"/>
</g>
<!-- 2776 -->
<g id="node10" class="node">
<title>2776</title>
<polygon fill="none" stroke="black" stroke-width="0.5" points="689,-1615 635,-1615 635,-1579 689,-1579 689,-1615"/>
<text text-anchor="middle" x="662" y="-1593.45" font-family="Sans-Serif" font-size="14.00">2776</text>
</g>
<!-- 2762 -->
<g id="node11" class="node">
<title>2762</title>
<polygon fill="none" stroke="black" stroke-width="0.5" points="816,-1428 762,-1428 762,-1392 816,-1392 816,-1428"/>
<text text-anchor="middle" x="789" y="-1406.45" font-family="Sans-Serif" font-size="14.00">2762</text>
</g>
<!-- 2776&#45;&gt;2762 -->
<g id="edge7" class="edge">
<title>2776&#45;&gt;2762</title>
<path fill="none" stroke="black" d="M681.17,-1579.18C683.9,-1576.21 686.61,-1573.08 689,-1570 723.14,-1526.04 755.68,-1469.73 773.64,-1436.97"/>
<polygon fill="black" stroke="black" points="777.03,-1439.06 778.73,-1428.6 770.88,-1435.72 777.03,-1439.06"/>
</g>
<!-- 2853 -->
<g id="node12" class="node">
<title>2853</title>
<polygon fill="none" stroke="black" stroke-width="0.5" points="562,-1324 508,-1324 508,-1288 562,-1288 562,-1324"/>
<text text-anchor="middle" x="535" y="-1302.45" font-family="Sans-Serif" font-size="14.00">2853</text>
</g>
<!-- 2857 -->
<g id="node13" class="node">
<title>2857</title>
<polygon fill="none" stroke="black" stroke-width="0.5" points="689,-1353 635,-1353 635,-1317 689,-1317 689,-1353"/>
<text text-anchor="middle" x="662" y="-1331.45" font-family="Sans-Serif" font-size="14.00">2857</text>
</g>
<!-- 2853&#45;&gt;2857 -->
<g id="edge8" class="edge">
<title>2853&#45;&gt;2857</title>
<path fill="none" stroke="black" d="M561.9,-1312.01C580,-1316.21 604.43,-1321.87 624.5,-1326.53"/>
<polygon fill="black" stroke="black" points="623.6,-1330.15 634.13,-1329 625.18,-1323.33 623.6,-1330.15"/>
</g>
<!-- 2853&#45;&gt;2871 -->
<g id="edge9" class="edge">
<title>2853&#45;&gt;2871</title>
<path fill="none" stroke="black" d="M545.77,-1323.99C557.39,-1344.95 577.77,-1380.36 598,-1409 612.94,-1430.15 617.78,-1434.66 635,-1454 635.34,-1454.38 635.67,-1454.76 636.02,-1455.14"/>
<polygon fill="black" stroke="black" points="633.1,-1457.21 642.46,-1462.18 638.23,-1452.46 633.1,-1457.21"/>
</g>
<!-- 2857&#45;&gt;2837 -->
<g id="edge19" class="edge">
<title>2857&#45;&gt;2837</title>
<path fill="none" stroke="black" d="M682.37,-1317.03C684.82,-1314.17 687.12,-1311.12 689,-1308 717.84,-1260.02 762.92,-1098.66 780.56,-1033.07"/>
<polygon fill="black" stroke="black" points="784.14,-1034.26 783.34,-1023.69 777.38,-1032.45 784.14,-1034.26"/>
</g>
<!-- 2862 -->
<g id="node25" class="node">
<title>2862</title>
<polygon fill="none" stroke="black" stroke-width="0.5" points="816,-1320 762,-1320 762,-1284 816,-1284 816,-1320"/>
<text text-anchor="middle" x="789" y="-1298.45" font-family="Sans-Serif" font-size="14.00">2862</text>
</g>
<!-- 2857&#45;&gt;2862 -->
<g id="edge18" class="edge">
<title>2857&#45;&gt;2862</title>
<path fill="none" stroke="black" d="M688.9,-1328.16C707,-1323.38 731.43,-1316.94 751.5,-1311.64"/>
<polygon fill="black" stroke="black" points="752.36,-1314.77 761.13,-1308.83 750.57,-1308 752.36,-1314.77"/>
</g>
<!-- 2814 -->
<g id="node16" class="node">
<title>2814</title>
<polygon fill="none" stroke="black" stroke-width="0.5" points="943,-1170 889,-1170 889,-1134 943,-1134 943,-1170"/>
<text text-anchor="middle" x="916" y="-1148.45" font-family="Sans-Serif" font-size="14.00">2814</text>
</g>
<!-- 2822&#45;&gt;2814 -->
<g id="edge10" class="edge">
<title>2822&#45;&gt;2814</title>
<path fill="none" stroke="black" d="M815.9,-1152C833.92,-1152 858.2,-1152 878.22,-1152"/>
<polygon fill="black" stroke="black" points="878.13,-1155.5 888.13,-1152 878.13,-1148.5 878.13,-1155.5"/>
</g>
<!-- 2836 -->
<g id="node17" class="node">
<title>2836</title>
<polygon fill="none" stroke="black" stroke-width="0.5" points="689,-1245 635,-1245 635,-1209 689,-1209 689,-1245"/>
<text text-anchor="middle" x="662" y="-1223.45" font-family="Sans-Serif" font-size="14.00">2836</text>
</g>
<!-- 2836&#45;&gt;2822 -->
<g id="edge11" class="edge">
<title>2836&#45;&gt;2822</title>
<path fill="none" stroke="black" d="M688.9,-1211.46C707.42,-1200.35 732.56,-1185.26 752.88,-1173.07"/>
<polygon fill="black" stroke="black" points="754.36,-1175.67 761.13,-1167.52 750.76,-1169.66 754.36,-1175.67"/>
</g>
<!-- 2835 -->
<g id="node19" class="node">
<title>2835</title>
<polygon fill="none" stroke="black" stroke-width="0.5" points="435,-1591 381,-1591 381,-1555 435,-1555 435,-1591"/>
<text text-anchor="middle" x="408" y="-1569.45" font-family="Sans-Serif" font-size="14.00">2835</text>
</g>
<!-- 2765 -->
<g id="node20" class="node">
<title>2765</title>
<polygon fill="none" stroke="black" stroke-width="0.5" points="562,-1616 508,-1616 508,-1580 562,-1580 562,-1616"/>
<text text-anchor="middle" x="535" y="-1594.45" font-family="Sans-Serif" font-size="14.00">2765</text>
</g>
<!-- 2835&#45;&gt;2765 -->
<g id="edge14" class="edge">
<title>2835&#45;&gt;2765</title>
<path fill="none" stroke="black" d="M434.9,-1578.18C453,-1581.8 477.43,-1586.69 497.5,-1590.7"/>
<polygon fill="black" stroke="black" points="496.64,-1594.3 507.13,-1592.83 498.01,-1587.43 496.64,-1594.3"/>
</g>
<!-- 2765&#45;&gt;2849 -->
<g id="edge44" class="edge">
<title>2765&#45;&gt;2849</title>
<path fill="none" stroke="black" d="M554.16,-1580.17C556.9,-1577.2 559.6,-1574.08 562,-1571 599.68,-1522.66 597.32,-1502.34 635,-1454 635.23,-1453.71 635.45,-1453.42 635.68,-1453.13"/>
<polygon fill="black" stroke="black" points="638.96,-1455.69 642.84,-1445.83 633.66,-1451.12 638.96,-1455.69"/>
</g>
<!-- 2765&#45;&gt;2776 -->
<g id="edge42" class="edge">
<title>2765&#45;&gt;2776</title>
<path fill="none" stroke="black" d="M561.9,-1592.2C579.92,-1590.76 604.2,-1590.36 624.22,-1591.08"/>
<polygon fill="black" stroke="black" points="623.97,-1594.62 634.13,-1591.62 624.32,-1587.63 623.97,-1594.62"/>
</g>
<!-- 2765&#45;&gt;2776 -->
<g id="edge43" class="edge">
<title>2765&#45;&gt;2776</title>
<path fill="none" stroke="black" d="M561.9,-1603.39C579.92,-1604.54 604.2,-1604.55 624.22,-1603.51"/>
<polygon fill="black" stroke="black" points="624.38,-1606.94 634.13,-1602.8 623.93,-1599.95 624.38,-1606.94"/>
</g>
<!-- 2750 -->
<g id="node42" class="node">
<title>2750</title>
<polygon fill="none" stroke="black" stroke-width="0.5" points="689,-1561 635,-1561 635,-1525 689,-1525 689,-1561"/>
<text text-anchor="middle" x="662" y="-1539.45" font-family="Sans-Serif" font-size="14.00">2750</text>
</g>
<!-- 2765&#45;&gt;2750 -->
<g id="edge41" class="edge">
<title>2765&#45;&gt;2750</title>
<path fill="none" stroke="black" d="M561.9,-1586.6C580.25,-1578.53 605.11,-1567.59 625.33,-1558.69"/>
<polygon fill="black" stroke="black" points="626.39,-1561.61 634.13,-1554.38 623.57,-1555.21 626.39,-1561.61"/>
</g>
<!-- 2851 -->
<g id="node21" class="node">
<title>2851</title>
<polygon fill="none" stroke="black" stroke-width="0.5" points="435,-1239 381,-1239 381,-1203 435,-1203 435,-1239"/>
<text text-anchor="middle" x="408" y="-1217.45" font-family="Sans-Serif" font-size="14.00">2851</text>
</g>
<!-- 2851&#45;&gt;2852 -->
<g id="edge16" class="edge">
<title>2851&#45;&gt;2852</title>
<path fill="none" stroke="black" d="M420.64,-1239C437.29,-1263.43 470.11,-1307.04 508,-1333 578.76,-1381.49 624.59,-1343.35 689,-1400 739.19,-1444.15 767.81,-1519.97 780.34,-1560.87"/>
<polygon fill="black" stroke="black" points="777.19,-1561.59 783.38,-1570.19 783.91,-1559.61 777.19,-1561.59"/>
</g>
<!-- 2783 -->
<g id="node22" class="node">
<title>2783</title>
<polygon fill="none" stroke="black" stroke-width="0.5" points="562,-1267 508,-1267 508,-1231 562,-1231 562,-1267"/>
<text text-anchor="middle" x="535" y="-1245.45" font-family="Sans-Serif" font-size="14.00">2783</text>
</g>
<!-- 2851&#45;&gt;2783 -->
<g id="edge15" class="edge">
<title>2851&#45;&gt;2783</title>
<path fill="none" stroke="black" d="M434.9,-1226.8C453,-1230.86 477.43,-1236.33 497.5,-1240.82"/>
<polygon fill="black" stroke="black" points="496.61,-1244.44 507.13,-1243.21 498.14,-1237.6 496.61,-1244.44"/>
</g>
<!-- 2783&#45;&gt;2849 -->
<g id="edge38" class="edge">
<title>2783&#45;&gt;2849</title>
<path fill="none" stroke="black" d="M552.05,-1266.78C555.43,-1270.73 558.91,-1274.95 562,-1279 593.14,-1319.8 625.53,-1369.93 644.45,-1400.13"/>
<polygon fill="black" stroke="black" points="641.84,-1401.56 650.1,-1408.19 647.78,-1397.86 641.84,-1401.56"/>
</g>
<!-- 2783&#45;&gt;2836 -->
<g id="edge36" class="edge">
<title>2783&#45;&gt;2836</title>
<path fill="none" stroke="black" d="M561.9,-1244.44C580,-1241.26 604.43,-1236.96 624.5,-1233.42"/>
<polygon fill="black" stroke="black" points="624.89,-1236.73 634.13,-1231.55 623.68,-1229.84 624.89,-1236.73"/>
</g>
<!-- 2807 -->
<g id="node37" class="node">
<title>2807</title>
<polygon fill="none" stroke="black" stroke-width="0.5" points="689,-1191 635,-1191 635,-1155 689,-1155 689,-1191"/>
<text text-anchor="middle" x="662" y="-1169.45" font-family="Sans-Serif" font-size="14.00">2807</text>
</g>
<!-- 2783&#45;&gt;2807 -->
<g id="edge37" class="edge">
<title>2783&#45;&gt;2807</title>
<path fill="none" stroke="black" d="M561.9,-1233.25C580.42,-1221.99 605.56,-1206.71 625.88,-1194.35"/>
<polygon fill="black" stroke="black" points="627.41,-1196.91 634.13,-1188.73 623.77,-1190.93 627.41,-1196.91"/>
</g>
<!-- 2843 -->
<g id="node40" class="node">
<title>2843</title>
<polygon fill="none" stroke="black" stroke-width="0.5" points="689,-1299 635,-1299 635,-1263 689,-1263 689,-1299"/>
<text text-anchor="middle" x="662" y="-1277.45" font-family="Sans-Serif" font-size="14.00">2843</text>
</g>
<!-- 2783&#45;&gt;2843 -->
<g id="edge39" class="edge">
<title>2783&#45;&gt;2843</title>
<path fill="none" stroke="black" d="M561.9,-1255.63C580,-1260.26 604.43,-1266.52 624.5,-1271.66"/>
<polygon fill="black" stroke="black" points="623.58,-1275.29 634.13,-1274.38 625.31,-1268.51 623.58,-1275.29"/>
</g>
<!-- 2878 -->
<g id="node24" class="node">
<title>2878</title>
<polygon fill="none" stroke="black" stroke-width="0.5" points="308,-807 254,-807 254,-771 308,-771 308,-807"/>
<text text-anchor="middle" x="281" y="-785.45" font-family="Sans-Serif" font-size="14.00">2878</text>
</g>
<!-- 2828&#45;&gt;2878 -->
<g id="edge17" class="edge">
<title>2828&#45;&gt;2878</title>
<path fill="none" stroke="black" d="M180.9,-819.92C199.08,-814.25 223.65,-806.58 243.78,-800.3"/>
<polygon fill="black" stroke="black" points="244.63,-803.39 253.13,-797.07 242.54,-796.71 244.63,-803.39"/>
</g>
<!-- 2713 -->
<g id="node26" class="node">
<title>2713</title>
<polygon fill="none" stroke="black" stroke-width="0.5" points="308,-1531 254,-1531 254,-1495 308,-1495 308,-1531"/>
<text text-anchor="middle" x="281" y="-1509.45" font-family="Sans-Serif" font-size="14.00">2713</text>
</g>
<!-- 2713&#45;&gt;2835 -->
<g id="edge21" class="edge">
<title>2713&#45;&gt;2835</title>
<path fill="none" stroke="black" d="M307.9,-1525.43C326.25,-1534.24 351.11,-1546.17 371.33,-1555.88"/>
<polygon fill="black" stroke="black" points="369.6,-1559.41 380.13,-1560.58 372.63,-1553.1 369.6,-1559.41"/>
</g>
<!-- 2698 -->
<g id="node27" class="node">
<title>2698</title>
<polygon fill="none" stroke="black" stroke-width="0.5" points="435,-1520 381,-1520 381,-1484 435,-1484 435,-1520"/>
<text text-anchor="middle" x="408" y="-1498.45" font-family="Sans-Serif" font-size="14.00">2698</text>
</g>
<!-- 2713&#45;&gt;2698 -->
<g id="edge20" class="edge">
<title>2713&#45;&gt;2698</title>
<path fill="none" stroke="black" d="M307.9,-1510.72C325.92,-1509.14 350.2,-1507 370.22,-1505.24"/>
<polygon fill="black" stroke="black" points="370.48,-1508.64 380.13,-1504.28 369.86,-1501.67 370.48,-1508.64"/>
</g>
<!-- 2685 -->
<g id="node28" class="node">
<title>2685</title>
<polygon fill="none" stroke="black" stroke-width="0.5" points="562,-1508 508,-1508 508,-1472 562,-1472 562,-1508"/>
<text text-anchor="middle" x="535" y="-1486.45" font-family="Sans-Serif" font-size="14.00">2685</text>
</g>
<!-- 2698&#45;&gt;2685 -->
<g id="edge22" class="edge">
<title>2698&#45;&gt;2685</title>
<path fill="none" stroke="black" d="M434.9,-1499.51C452.92,-1497.78 477.2,-1495.45 497.22,-1493.53"/>
<polygon fill="black" stroke="black" points="497.51,-1496.92 507.13,-1492.48 496.84,-1489.95 497.51,-1496.92"/>
</g>
<!-- 2712 -->
<g id="node29" class="node">
<title>2712</title>
<polygon fill="none" stroke="black" stroke-width="0.5" points="562,-1454 508,-1454 508,-1418 562,-1418 562,-1454"/>
<text text-anchor="middle" x="535" y="-1432.45" font-family="Sans-Serif" font-size="14.00">2712</text>
</g>
<!-- 2698&#45;&gt;2712 -->
<g id="edge23" class="edge">
<title>2698&#45;&gt;2712</title>
<path fill="none" stroke="black" d="M434.9,-1488.32C453.34,-1478.59 478.33,-1465.39 498.61,-1454.69"/>
<polygon fill="black" stroke="black" points="499.92,-1457.42 507.13,-1449.66 496.66,-1451.23 499.92,-1457.42"/>
</g>
<!-- 2742 -->
<g id="node30" class="node">
<title>2742</title>
<polygon fill="none" stroke="black" stroke-width="0.5" points="562,-1562 508,-1562 508,-1526 562,-1526 562,-1562"/>
<text text-anchor="middle" x="535" y="-1540.45" font-family="Sans-Serif" font-size="14.00">2742</text>
</g>
<!-- 2698&#45;&gt;2742 -->
<g id="edge24" class="edge">
<title>2698&#45;&gt;2742</title>
<path fill="none" stroke="black" d="M434.9,-1510.7C453.08,-1516.81 477.65,-1525.07 497.78,-1531.83"/>
<polygon fill="black" stroke="black" points="496.54,-1535.44 507.13,-1535.31 498.77,-1528.81 496.54,-1535.44"/>
</g>
<!-- 2813 -->
<g id="node31" class="node">
<title>2813</title>
<polygon fill="none" stroke="black" stroke-width="0.5" points="308,-1331 254,-1331 254,-1295 308,-1295 308,-1331"/>
<text text-anchor="middle" x="281" y="-1309.45" font-family="Sans-Serif" font-size="14.00">2813</text>
</g>
<!-- 2813&#45;&gt;2783 -->
<g id="edge26" class="edge">
<title>2813&#45;&gt;2783</title>
<path fill="none" stroke="black" d="M307.59,-1305.8C327.54,-1300.24 355.98,-1292.44 381,-1286 420.89,-1275.74 466.85,-1264.73 497.9,-1257.42"/>
<polygon fill="black" stroke="black" points="498.29,-1260.69 507.23,-1254.99 496.69,-1253.87 498.29,-1260.69"/>
</g>
<!-- 2819 -->
<g id="node32" class="node">
<title>2819</title>
<polygon fill="none" stroke="black" stroke-width="0.5" points="435,-1331 381,-1331 381,-1295 435,-1295 435,-1331"/>
<text text-anchor="middle" x="408" y="-1309.45" font-family="Sans-Serif" font-size="14.00">2819</text>
</g>
<!-- 2813&#45;&gt;2819 -->
<g id="edge25" class="edge">
<title>2813&#45;&gt;2819</title>
<path fill="none" stroke="black" d="M307.9,-1313C325.92,-1313 350.2,-1313 370.22,-1313"/>
<polygon fill="black" stroke="black" points="370.13,-1316.5 380.13,-1313 370.13,-1309.5 370.13,-1316.5"/>
</g>
<!-- 2819&#45;&gt;2853 -->
<g id="edge45" class="edge">
<title>2819&#45;&gt;2853</title>
<path fill="none" stroke="black" d="M434.9,-1311.55C452.92,-1310.54 477.2,-1309.18 497.22,-1308.06"/>
<polygon fill="black" stroke="black" points="497.34,-1311.5 507.13,-1307.45 496.95,-1304.51 497.34,-1311.5"/>
</g>
<!-- 2772&#45;&gt;2713 -->
<g id="edge27" class="edge">
<title>2772&#45;&gt;2713</title>
<path fill="none" stroke="black" d="M175.64,-1422.83C196.27,-1440.66 228.15,-1468.2 251.25,-1488.16"/>
<polygon fill="black" stroke="black" points="248.47,-1491.25 258.33,-1495.14 253.05,-1485.95 248.47,-1491.25"/>
</g>
<!-- 2772&#45;&gt;2813 -->
<g id="edge28" class="edge">
<title>2772&#45;&gt;2813</title>
<path fill="none" stroke="black" d="M179.4,-1387.04C198.67,-1372.86 225.76,-1352.92 246.97,-1337.31"/>
<polygon fill="black" stroke="black" points="248.68,-1339.66 254.66,-1330.91 244.54,-1334.02 248.68,-1339.66"/>
</g>
<!-- 2823 -->
<g id="node34" class="node">
<title>2823</title>
<polygon fill="none" stroke="black" stroke-width="0.5" points="308,-1423 254,-1423 254,-1387 308,-1387 308,-1423"/>
<text text-anchor="middle" x="281" y="-1401.45" font-family="Sans-Serif" font-size="14.00">2823</text>
</g>
<!-- 2772&#45;&gt;2823 -->
<g id="edge29" class="edge">
<title>2772&#45;&gt;2823</title>
<path fill="none" stroke="black" d="M180.9,-1405C198.92,-1405 223.2,-1405 243.22,-1405"/>
<polygon fill="black" stroke="black" points="243.13,-1408.5 253.13,-1405 243.13,-1401.5 243.13,-1408.5"/>
</g>
<!-- 2846 -->
<g id="node35" class="node">
<title>2846</title>
<polygon fill="none" stroke="black" stroke-width="0.5" points="308,-1477 254,-1477 254,-1441 308,-1441 308,-1477"/>
<text text-anchor="middle" x="281" y="-1455.45" font-family="Sans-Serif" font-size="14.00">2846</text>
</g>
<!-- 2772&#45;&gt;2846 -->
<g id="edge30" class="edge">
<title>2772&#45;&gt;2846</title>
<path fill="none" stroke="black" d="M180.9,-1416.19C199.17,-1424.08 223.88,-1434.76 244.05,-1443.47"/>
<polygon fill="black" stroke="black" points="242.57,-1447.07 253.13,-1447.83 245.34,-1440.65 242.57,-1447.07"/>
</g>
<!-- 2771 -->
<g id="node36" class="node">
<title>2771</title>
<polygon fill="none" stroke="black" stroke-width="0.5" points="308,-1134 254,-1134 254,-1098 308,-1098 308,-1134"/>
<text text-anchor="middle" x="281" y="-1112.45" font-family="Sans-Serif" font-size="14.00">2771</text>
</g>
<!-- 2771&#45;&gt;2851 -->
<g id="edge33" class="edge">
<title>2771&#45;&gt;2851</title>
<path fill="none" stroke="black" d="M303.2,-1133.81C323.59,-1150.93 354.57,-1176.96 377.39,-1196.13"/>
<polygon fill="black" stroke="black" points="374.78,-1199.35 384.69,-1203.1 379.29,-1193.99 374.78,-1199.35"/>
</g>
<!-- 2771&#45;&gt;2807 -->
<g id="edge31" class="edge">
<title>2771&#45;&gt;2807</title>
<path fill="none" stroke="black" d="M307.75,-1119.87C373.65,-1129.78 548.56,-1156.09 624.72,-1167.54"/>
<polygon fill="black" stroke="black" points="623.8,-1171.1 634.21,-1169.12 624.84,-1164.17 623.8,-1171.1"/>
</g>
<!-- 2759 -->
<g id="node38" class="node">
<title>2759</title>
<polygon fill="none" stroke="black" stroke-width="0.5" points="435,-1107 381,-1107 381,-1071 435,-1071 435,-1107"/>
<text text-anchor="middle" x="408" y="-1085.45" font-family="Sans-Serif" font-size="14.00">2759</text>
</g>
<!-- 2771&#45;&gt;2759 -->
<g id="edge32" class="edge">
<title>2771&#45;&gt;2759</title>
<path fill="none" stroke="black" d="M307.9,-1110.41C326,-1106.5 350.43,-1101.22 370.5,-1096.88"/>
<polygon fill="black" stroke="black" points="371.1,-1100.12 380.13,-1094.59 369.62,-1093.28 371.1,-1100.12"/>
</g>
<!-- 2881&#45;&gt;2837 -->
<g id="edge35" class="edge">
<title>2881&#45;&gt;2837</title>
<path fill="none" stroke="black" d="M180.82,-1048.38C206.08,-1046.05 245.64,-1043 280,-1043 280,-1043 280,-1043 663,-1043 694.16,-1043 727.87,-1032.06 752.43,-1021.92"/>
<polygon fill="black" stroke="black" points="753.55,-1024.82 761.35,-1017.65 750.78,-1018.38 753.55,-1024.82"/>
</g>
<!-- 2881&#45;&gt;2771 -->
<g id="edge34" class="edge">
<title>2881&#45;&gt;2771</title>
<path fill="none" stroke="black" d="M180.9,-1064.47C199.34,-1074.05 224.33,-1087.05 244.61,-1097.6"/>
<polygon fill="black" stroke="black" points="242.65,-1101.04 253.13,-1102.55 245.88,-1094.83 242.65,-1101.04"/>
</g>
</g>
</svg>
