<?xml version="1.0" encoding="UTF-8" standalone="no"?>
<!DOCTYPE svg PUBLIC "-//W3C//DTD SVG 1.1//EN"
 "http://www.w3.org/Graphics/SVG/1.1/DTD/svg11.dtd">
<!-- Generated by graphviz version 8.1.0 (20230707.0739)
 -->
<!-- Title: G Pages: 1 -->
<svg width="335pt" height="52pt"
 viewBox="0.00 0.00 334.50 52.39" xmlns="http://www.w3.org/2000/svg" xmlns:xlink="http://www.w3.org/1999/xlink">
<g id="graph0" class="graph" transform="scale(1 1) rotate(0) translate(4 48.39)">
<title>G</title>
<polygon fill="white" stroke="none" points="-4,4 -4,-48.39 330.5,-48.39 330.5,4 -4,4"/>
<!-- r -->
<g id="node1" class="node">
<title>r</title>
<path fill="none" stroke="black" stroke-width="0.5" d="M42,-42.89C42,-42.89 12,-42.89 12,-42.89 6,-42.89 0,-36.89 0,-30.89 0,-30.89 0,-18.89 0,-18.89 0,-12.89 6,-6.89 12,-6.89 12,-6.89 42,-6.89 42,-6.89 48,-6.89 54,-12.89 54,-18.89 54,-18.89 54,-30.89 54,-30.89 54,-36.89 48,-42.89 42,-42.89"/>
<text text-anchor="middle" x="27" y="-21.34" font-family="Sans-Serif" font-size="14.00">r</text>
</g>
<!-- a -->
<g id="node2" class="node">
<title>a</title>
<polygon fill="none" stroke="black" stroke-width="0.5" points="190.25,-42.89 136.25,-42.89 136.25,-6.89 190.25,-6.89 190.25,-42.89"/>
<text text-anchor="middle" x="163.25" y="-21.34" font-family="Sans-Serif" font-size="14.00">a</text>
</g>
<!-- r&#45;&gt;a -->
<g id="edge1" class="edge">
<title>r&#45;&gt;a</title>
<path fill="none" stroke="black" d="M53.88,-24.89C74.22,-24.89 102.8,-24.89 125.51,-24.89"/>
<polygon fill="black" stroke="black" points="125.44,-28.39 135.44,-24.89 125.44,-21.39 125.44,-28.39"/>
<text text-anchor="middle" x="95.12" y="-31.09" font-family="Sans-Serif" font-size="14.00">0</text>
</g>
<!-- b -->
<g id="node3" class="node">
<title>b</title>
<polygon fill="none" stroke="black" stroke-width="0.5" points="326.5,-42.89 272.5,-42.89 272.5,-6.89 326.5,-6.89 326.5,-42.89"/>
<text text-anchor="middle" x="299.5" y="-21.34" font-family="Sans-Serif" font-size="14.00">b</text>
</g>
<!-- a&#45;&gt;b -->
<g id="edge2" class="edge">
<title>a&#45;&gt;b</title>
<path fill="none" stroke="black" d="M190.13,-24.89C210.47,-24.89 239.05,-24.89 261.76,-24.89"/>
<polygon fill="black" stroke="black" points="261.69,-28.39 271.69,-24.89 261.69,-21.39 261.69,-28.39"/>
<text text-anchor="middle" x="231.38" y="-31.09" font-family="Sans-Serif" font-size="14.00">0</text>
</g>
<!-- b&#45;&gt;a -->
<g id="edge3" class="edge">
<title>b&#45;&gt;a</title>
<path fill="none" stroke="black" d="M272.56,-9.69C259.25,-3.6 242.63,1.39 227.25,-1.39 218.27,-3.01 208.89,-5.83 200.2,-8.97"/>
<polygon fill="black" stroke="black" points="199.09,-6.04 191.02,-12.9 201.61,-12.57 199.09,-6.04"/>
<text text-anchor="middle" x="231.38" y="-8.09" font-family="Sans-Serif" font-size="14.00">1</text>
</g>
</g>
</svg>
