<?xml version="1.0" encoding="UTF-8"?>
<!DOCTYPE svg  PUBLIC '-//W3C//DTD SVG 1.1//EN'  'http://www.w3.org/Graphics/SVG/1.1/DTD/svg11.dtd'>
<svg width="460.8pt" height="319.68pt" version="1.1" viewBox="0 0 460.8 319.68" xmlns="http://www.w3.org/2000/svg" xmlns:xlink="http://www.w3.org/1999/xlink">
 <metadata>
  <rdf:RDF xmlns:cc="http://creativecommons.org/ns#" xmlns:dc="http://purl.org/dc/elements/1.1/" xmlns:rdf="http://www.w3.org/1999/02/22-rdf-syntax-ns#">
   <cc:Work>
    <dc:type rdf:resource="http://purl.org/dc/dcmitype/StillImage"/>
    <dc:date>2024-06-06T15:26:05.962077</dc:date>
    <dc:format>image/svg+xml</dc:format>
    <dc:creator>
     <cc:Agent>
      <dc:title>Matplotlib v3.8.4, https://matplotlib.org/</dc:title>
     </cc:Agent>
    </dc:creator>
   </cc:Work>
  </rdf:RDF>
 </metadata>
 <defs>
  <style type="text/css">*{stroke-linejoin: round; stroke-linecap: butt}</style>
 </defs>
 <g id="figure_1">
  <g id="patch_1">
   <path d="m0 319.68h460.8v-319.68h-460.8z" fill="#fff"/>
  </g>
  <g id="axes_1">
   <g id="patch_2">
    <path d="m57.6 284.52h357.12v-246.15h-357.12z" fill="#fff"/>
   </g>
   <g id="matplotlib.axis_1">
    <g id="xtick_1">
     <g id="line2d_1">
      <defs>
       <path id="m5e0a586c94" d="m0 0v3.5" stroke="#000" stroke-width=".8"/>
      </defs>
      <use x="71.30331" y="284.5152" stroke="#000000" stroke-width=".8" xlink:href="#m5e0a586c94"/>
     </g>
     <g id="text_1">
      <!-- 0 -->
      <g transform="translate(68.122 299.11) scale(.1 -.1)">
       <defs>
        <path id="DejaVuSans-30" transform="scale(.015625)" d="m2034 4250q-487 0-733-480-245-479-245-1442 0-959 245-1439 246-480 733-480 491 0 736 480 246 480 246 1439 0 963-246 1442-245 480-736 480zm0 500q785 0 1199-621 414-620 414-1801 0-1178-414-1799-414-620-1199-620-784 0-1198 620-414 621-414 1799 0 1181 414 1801 414 621 1198 621z"/>
       </defs>
       <use xlink:href="#DejaVuSans-30"/>
      </g>
     </g>
    </g>
    <g id="xtick_2">
     <g id="line2d_2">
      <use x="122.40265" y="284.5152" stroke="#000000" stroke-width=".8" xlink:href="#m5e0a586c94"/>
     </g>
     <g id="text_2">
      <!-- 10000 -->
      <g transform="translate(106.5 299.11) scale(.1 -.1)">
       <defs>
        <path id="DejaVuSans-31" transform="scale(.015625)" d="m794 531h1031v3560l-1122-225v575l1116 225h631v-4135h1031v-531h-2687v531z"/>
       </defs>
       <use xlink:href="#DejaVuSans-31"/>
       <use x="63.623047" xlink:href="#DejaVuSans-30"/>
       <use x="127.246094" xlink:href="#DejaVuSans-30"/>
       <use x="190.869141" xlink:href="#DejaVuSans-30"/>
       <use x="254.492188" xlink:href="#DejaVuSans-30"/>
      </g>
     </g>
    </g>
    <g id="xtick_3">
     <g id="line2d_3">
      <use x="173.50199" y="284.5152" stroke="#000000" stroke-width=".8" xlink:href="#m5e0a586c94"/>
     </g>
     <g id="text_3">
      <!-- 20000 -->
      <g transform="translate(157.6 299.11) scale(.1 -.1)">
       <defs>
        <path id="DejaVuSans-32" transform="scale(.015625)" d="m1228 531h2203v-531h-2962v531q359 372 979 998 621 627 780 809 303 340 423 576 121 236 121 464 0 372-261 606-261 235-680 235-297 0-627-103-329-103-704-313v638q381 153 712 231 332 78 607 78 725 0 1156-363 431-362 431-968 0-288-108-546-107-257-392-607-78-91-497-524-418-433-1181-1211z"/>
       </defs>
       <use xlink:href="#DejaVuSans-32"/>
       <use x="63.623047" xlink:href="#DejaVuSans-30"/>
       <use x="127.246094" xlink:href="#DejaVuSans-30"/>
       <use x="190.869141" xlink:href="#DejaVuSans-30"/>
       <use x="254.492188" xlink:href="#DejaVuSans-30"/>
      </g>
     </g>
    </g>
    <g id="xtick_4">
     <g id="line2d_4">
      <use x="224.601329" y="284.5152" stroke="#000000" stroke-width=".8" xlink:href="#m5e0a586c94"/>
     </g>
     <g id="text_4">
      <!-- 30000 -->
      <g transform="translate(208.7 299.11) scale(.1 -.1)">
       <defs>
        <path id="DejaVuSans-33" transform="scale(.015625)" d="m2597 2516q453-97 707-404 255-306 255-756 0-690-475-1069-475-378-1350-378-293 0-604 58t-642 174v609q262-153 574-231 313-78 654-78 593 0 904 234t311 681q0 413-289 645-289 233-804 233h-544v519h569q465 0 712 186t247 536q0 359-255 551-254 193-729 193-260 0-557-57-297-56-653-174v562q360 100 674 150t592 50q719 0 1137-327 419-326 419-882 0-388-222-655t-631-370z"/>
       </defs>
       <use xlink:href="#DejaVuSans-33"/>
       <use x="63.623047" xlink:href="#DejaVuSans-30"/>
       <use x="127.246094" xlink:href="#DejaVuSans-30"/>
       <use x="190.869141" xlink:href="#DejaVuSans-30"/>
       <use x="254.492188" xlink:href="#DejaVuSans-30"/>
      </g>
     </g>
    </g>
    <g id="xtick_5">
     <g id="line2d_5">
      <use x="275.700669" y="284.5152" stroke="#000000" stroke-width=".8" xlink:href="#m5e0a586c94"/>
     </g>
     <g id="text_5">
      <!-- 40000 -->
      <g transform="translate(259.79 299.11) scale(.1 -.1)">
       <defs>
        <path id="DejaVuSans-34" transform="scale(.015625)" d="m2419 4116-1594-2491h1594v2491zm-166 550h794v-3041h666v-525h-666v-1100h-628v1100h-2106v609l1940 2957z"/>
       </defs>
       <use xlink:href="#DejaVuSans-34"/>
       <use x="63.623047" xlink:href="#DejaVuSans-30"/>
       <use x="127.246094" xlink:href="#DejaVuSans-30"/>
       <use x="190.869141" xlink:href="#DejaVuSans-30"/>
       <use x="254.492188" xlink:href="#DejaVuSans-30"/>
      </g>
     </g>
    </g>
    <g id="xtick_6">
     <g id="line2d_6">
      <use x="326.800009" y="284.5152" stroke="#000000" stroke-width=".8" xlink:href="#m5e0a586c94"/>
     </g>
     <g id="text_6">
      <!-- 50000 -->
      <g transform="translate(310.89 299.11) scale(.1 -.1)">
       <defs>
        <path id="DejaVuSans-35" transform="scale(.015625)" d="m691 4666h2478v-532h-1900v-1143q137 47 274 70 138 23 276 23 781 0 1237-428 457-428 457-1159 0-753-469-1171-469-417-1322-417-294 0-599 50-304 50-629 150v635q281-153 581-228t634-75q541 0 856 284 316 284 316 772 0 487-316 771-315 285-856 285-253 0-505-56-251-56-513-175v2344z"/>
       </defs>
       <use xlink:href="#DejaVuSans-35"/>
       <use x="63.623047" xlink:href="#DejaVuSans-30"/>
       <use x="127.246094" xlink:href="#DejaVuSans-30"/>
       <use x="190.869141" xlink:href="#DejaVuSans-30"/>
       <use x="254.492188" xlink:href="#DejaVuSans-30"/>
      </g>
     </g>
    </g>
    <g id="xtick_7">
     <g id="line2d_7">
      <use x="377.899349" y="284.5152" stroke="#000000" stroke-width=".8" xlink:href="#m5e0a586c94"/>
     </g>
     <g id="text_7">
      <!-- 60000 -->
      <g transform="translate(361.99 299.11) scale(.1 -.1)">
       <defs>
        <path id="DejaVuSans-36" transform="scale(.015625)" d="m2113 2584q-425 0-674-291-248-290-248-796 0-503 248-796 249-292 674-292t673 292q248 293 248 796 0 506-248 796-248 291-673 291zm1253 1979v-575q-238 112-480 171-242 60-480 60-625 0-955-422-329-422-376-1275 184 272 462 417 279 145 613 145 703 0 1111-427 408-426 408-1160 0-719-425-1154-425-434-1131-434-810 0-1238 620-428 621-428 1799 0 1106 525 1764t1409 658q238 0 480-47t505-140z"/>
       </defs>
       <use xlink:href="#DejaVuSans-36"/>
       <use x="63.623047" xlink:href="#DejaVuSans-30"/>
       <use x="127.246094" xlink:href="#DejaVuSans-30"/>
       <use x="190.869141" xlink:href="#DejaVuSans-30"/>
       <use x="254.492188" xlink:href="#DejaVuSans-30"/>
      </g>
     </g>
    </g>
    <g id="text_8">
     <!-- Number of points in cloud -->
     <g transform="translate(171.44 312.79) scale(.1 -.1)">
      <defs>
       <path id="DejaVuSans-4e" transform="scale(.015625)" d="m628 4666h850l2069-3903v3903h612v-4666h-850l-2068 3903v-3903h-613v4666z"/>
       <path id="DejaVuSans-75" transform="scale(.015625)" d="m544 1381v2119h575v-2097q0-497 193-746 194-248 582-248 465 0 735 297 271 297 271 810v1984h575v-3500h-575v538q-209-319-486-474-276-155-642-155-603 0-916 375-312 375-312 1097zm1447 2203z"/>
       <path id="DejaVuSans-6d" transform="scale(.015625)" d="m3328 2828q216 388 516 572t706 184q547 0 844-383 297-382 297-1088v-2113h-578v2094q0 503-179 746-178 244-543 244-447 0-707-297-259-296-259-809v-1978h-578v2094q0 506-178 748t-550 242q-441 0-701-298-259-298-259-808v-1978h-578v3500h578v-544q197 322 472 475t653 153q382 0 649-194 267-193 395-562z"/>
       <path id="DejaVuSans-62" transform="scale(.015625)" d="m3116 1747q0 634-261 995t-717 361q-457 0-718-361t-261-995 261-995 718-361q456 0 717 361t261 995zm-1957 1222q182 312 458 463 277 152 661 152 638 0 1036-506 399-506 399-1331t-399-1332q-398-506-1036-506-384 0-661 152-276 152-458 464v-525h-578v4863h578v-1894z"/>
       <path id="DejaVuSans-65" transform="scale(.015625)" d="m3597 1894v-281h-2644q38-594 358-905t892-311q331 0 642 81t618 244v-544q-310-131-635-200t-659-69q-838 0-1327 487-489 488-489 1320 0 859 464 1363 464 505 1252 505 706 0 1117-455 411-454 411-1235zm-575 169q-6 471-264 752-258 282-683 282-481 0-770-272t-333-766l2050 4z"/>
       <path id="DejaVuSans-72" transform="scale(.015625)" d="m2631 2963q-97 56-211 82-114 27-251 27-488 0-749-317t-261-911v-1844h-578v3500h578v-544q182 319 472 473 291 155 707 155 59 0 131-8 72-7 159-23l3-590z"/>
       <path id="DejaVuSans-6f" transform="scale(.015625)" d="m1959 3097q-462 0-731-361t-269-989 267-989q268-361 733-361 460 0 728 362 269 363 269 988 0 622-269 986-268 364-728 364zm0 487q750 0 1178-488 429-487 429-1349 0-859-429-1349-428-489-1178-489-753 0-1180 489-426 490-426 1349 0 862 426 1349 427 488 1180 488z"/>
       <path id="DejaVuSans-66" transform="scale(.015625)" d="m2375 4863v-479h-550q-309 0-430-125-120-125-120-450v-309h947v-447h-947v-3053h-578v3053h-550v447h550v244q0 584 272 851 272 268 862 268h544z"/>
       <path id="DejaVuSans-70" transform="scale(.015625)" d="m1159 525v-1856h-578v4831h578v-531q182 312 458 463 277 152 661 152 638 0 1036-506 399-506 399-1331t-399-1332q-398-506-1036-506-384 0-661 152-276 152-458 464zm1957 1222q0 634-261 995t-717 361q-457 0-718-361t-261-995 261-995 718-361q456 0 717 361t261 995z"/>
       <path id="DejaVuSans-69" transform="scale(.015625)" d="m603 3500h575v-3500h-575v3500zm0 1363h575v-729h-575v729z"/>
       <path id="DejaVuSans-6e" transform="scale(.015625)" d="m3513 2113v-2113h-575v2094q0 497-194 743-194 247-581 247-466 0-735-297-269-296-269-809v-1978h-578v3500h578v-544q207 316 486 472 280 156 646 156 603 0 912-373 310-373 310-1098z"/>
       <path id="DejaVuSans-74" transform="scale(.015625)" d="m1172 4494v-994h1184v-447h-1184v-1900q0-428 117-550t477-122h590v-481h-590q-666 0-919 248-253 249-253 905v1900h-422v447h422v994h578z"/>
       <path id="DejaVuSans-73" transform="scale(.015625)" d="m2834 3397v-544q-243 125-506 187-262 63-544 63-428 0-642-131t-214-394q0-200 153-314t616-217l197-44q612-131 870-370t258-667q0-488-386-773-386-284-1061-284-281 0-586 55t-642 164v594q319-166 628-249 309-82 613-82 406 0 624 139 219 139 219 392 0 234-158 359-157 125-692 241l-200 47q-534 112-772 345-237 233-237 639 0 494 350 762 350 269 994 269 318 0 599-47 282-46 519-140z"/>
       <path id="DejaVuSans-63" transform="scale(.015625)" d="m3122 3366v-538q-244 135-489 202t-495 67q-560 0-870-355-309-354-309-995t309-996q310-354 870-354 250 0 495 67t489 202v-532q-241-112-499-168-257-57-548-57-791 0-1257 497-465 497-465 1341 0 856 470 1346 471 491 1290 491 265 0 518-55 253-54 491-163z"/>
       <path id="DejaVuSans-6c" transform="scale(.015625)" d="m603 4863h575v-4863h-575v4863z"/>
       <path id="DejaVuSans-64" transform="scale(.015625)" d="m2906 2969v1894h575v-4863h-575v525q-181-312-458-464-276-152-664-152-634 0-1033 506-398 507-398 1332t398 1331q399 506 1033 506 388 0 664-152 277-151 458-463zm-1959-1222q0-634 261-995t717-361 718 361q263 361 263 995t-263 995q-262 361-718 361t-717-361-261-995z"/>
      </defs>
      <use xlink:href="#DejaVuSans-4e"/>
      <use x="74.804688" xlink:href="#DejaVuSans-75"/>
      <use x="138.183594" xlink:href="#DejaVuSans-6d"/>
      <use x="235.595703" xlink:href="#DejaVuSans-62"/>
      <use x="299.072266" xlink:href="#DejaVuSans-65"/>
      <use x="360.595703" xlink:href="#DejaVuSans-72"/>
      <use x="401.708984" xlink:href="#DejaVuSans-20"/>
      <use x="433.496094" xlink:href="#DejaVuSans-6f"/>
      <use x="494.677734" xlink:href="#DejaVuSans-66"/>
      <use x="529.882812" xlink:href="#DejaVuSans-20"/>
      <use x="561.669922" xlink:href="#DejaVuSans-70"/>
      <use x="625.146484" xlink:href="#DejaVuSans-6f"/>
      <use x="686.328125" xlink:href="#DejaVuSans-69"/>
      <use x="714.111328" xlink:href="#DejaVuSans-6e"/>
      <use x="777.490234" xlink:href="#DejaVuSans-74"/>
      <use x="816.699219" xlink:href="#DejaVuSans-73"/>
      <use x="868.798828" xlink:href="#DejaVuSans-20"/>
      <use x="900.585938" xlink:href="#DejaVuSans-69"/>
      <use x="928.369141" xlink:href="#DejaVuSans-6e"/>
      <use x="991.748047" xlink:href="#DejaVuSans-20"/>
      <use x="1023.535156" xlink:href="#DejaVuSans-63"/>
      <use x="1078.515625" xlink:href="#DejaVuSans-6c"/>
      <use x="1106.298828" xlink:href="#DejaVuSans-6f"/>
      <use x="1167.480469" xlink:href="#DejaVuSans-75"/>
      <use x="1230.859375" xlink:href="#DejaVuSans-64"/>
     </g>
    </g>
   </g>
   <g id="matplotlib.axis_2">
    <g id="ytick_1">
     <g id="line2d_8">
      <defs>
       <path id="macd892fe88" d="m0 0h-3.5" stroke="#000" stroke-width=".8"/>
      </defs>
      <use x="57.6" y="273.332772" stroke="#000000" stroke-width=".8" xlink:href="#macd892fe88"/>
     </g>
     <g id="text_9">
      <!-- 0 -->
      <g transform="translate(44.238 277.13) scale(.1 -.1)">
       <use xlink:href="#DejaVuSans-30"/>
      </g>
     </g>
    </g>
    <g id="ytick_2">
     <g id="line2d_9">
      <use x="57.6" y="227.624075" stroke="#000000" stroke-width=".8" xlink:href="#macd892fe88"/>
     </g>
     <g id="text_10">
      <!-- 100 -->
      <g transform="translate(31.512 231.42) scale(.1 -.1)">
       <use xlink:href="#DejaVuSans-31"/>
       <use x="63.623047" xlink:href="#DejaVuSans-30"/>
       <use x="127.246094" xlink:href="#DejaVuSans-30"/>
      </g>
     </g>
    </g>
    <g id="ytick_3">
     <g id="line2d_10">
      <use x="57.6" y="181.915379" stroke="#000000" stroke-width=".8" xlink:href="#macd892fe88"/>
     </g>
     <g id="text_11">
      <!-- 200 -->
      <g transform="translate(31.512 185.71) scale(.1 -.1)">
       <use xlink:href="#DejaVuSans-32"/>
       <use x="63.623047" xlink:href="#DejaVuSans-30"/>
       <use x="127.246094" xlink:href="#DejaVuSans-30"/>
      </g>
     </g>
    </g>
    <g id="ytick_4">
     <g id="line2d_11">
      <use x="57.6" y="136.206682" stroke="#000000" stroke-width=".8" xlink:href="#macd892fe88"/>
     </g>
     <g id="text_12">
      <!-- 300 -->
      <g transform="translate(31.512 140.01) scale(.1 -.1)">
       <use xlink:href="#DejaVuSans-33"/>
       <use x="63.623047" xlink:href="#DejaVuSans-30"/>
       <use x="127.246094" xlink:href="#DejaVuSans-30"/>
      </g>
     </g>
    </g>
    <g id="ytick_5">
     <g id="line2d_12">
      <use x="57.6" y="90.497986" stroke="#000000" stroke-width=".8" xlink:href="#macd892fe88"/>
     </g>
     <g id="text_13">
      <!-- 400 -->
      <g transform="translate(31.512 94.297) scale(.1 -.1)">
       <use xlink:href="#DejaVuSans-34"/>
       <use x="63.623047" xlink:href="#DejaVuSans-30"/>
       <use x="127.246094" xlink:href="#DejaVuSans-30"/>
      </g>
     </g>
    </g>
    <g id="ytick_6">
     <g id="line2d_13">
      <use x="57.6" y="44.789289" stroke="#000000" stroke-width=".8" xlink:href="#macd892fe88"/>
     </g>
     <g id="text_14">
      <!-- 500 -->
      <g transform="translate(31.512 48.589) scale(.1 -.1)">
       <use xlink:href="#DejaVuSans-35"/>
       <use x="63.623047" xlink:href="#DejaVuSans-30"/>
       <use x="127.246094" xlink:href="#DejaVuSans-30"/>
      </g>
     </g>
    </g>
    <g id="text_15">
     <!-- Construction time (ms) -->
     <g transform="translate(25.433 219.12) rotate(-90) scale(.1 -.1)">
      <defs>
       <path id="DejaVuSans-43" transform="scale(.015625)" d="m4122 4306v-665q-319 297-680 443-361 147-767 147-800 0-1225-489t-425-1414q0-922 425-1411t1225-489q406 0 767 147t680 444v-660q-331-225-702-338-370-112-782-112-1060 0-1670 648-609 649-609 1771 0 1125 609 1773 610 649 1670 649 418 0 788-111 371-111 696-333z"/>
       <path id="DejaVuSans-28" transform="scale(.015625)" d="m1984 4856q-418-718-622-1422-203-703-203-1425 0-721 205-1429t620-1424h-500q-468 735-701 1444t-233 1409q0 697 231 1403 232 707 703 1444h500z"/>
       <path id="DejaVuSans-29" transform="scale(.015625)" d="m513 4856h500q468-737 701-1444 233-706 233-1403 0-700-233-1409t-701-1444h-500q415 716 620 1424t205 1429q0 722-205 1425-205 704-620 1422z"/>
      </defs>
      <use xlink:href="#DejaVuSans-43"/>
      <use x="69.824219" xlink:href="#DejaVuSans-6f"/>
      <use x="131.005859" xlink:href="#DejaVuSans-6e"/>
      <use x="194.384766" xlink:href="#DejaVuSans-73"/>
      <use x="246.484375" xlink:href="#DejaVuSans-74"/>
      <use x="285.693359" xlink:href="#DejaVuSans-72"/>
      <use x="326.806641" xlink:href="#DejaVuSans-75"/>
      <use x="390.185547" xlink:href="#DejaVuSans-63"/>
      <use x="445.166016" xlink:href="#DejaVuSans-74"/>
      <use x="484.375" xlink:href="#DejaVuSans-69"/>
      <use x="512.158203" xlink:href="#DejaVuSans-6f"/>
      <use x="573.339844" xlink:href="#DejaVuSans-6e"/>
      <use x="636.71875" xlink:href="#DejaVuSans-20"/>
      <use x="668.505859" xlink:href="#DejaVuSans-74"/>
      <use x="707.714844" xlink:href="#DejaVuSans-69"/>
      <use x="735.498047" xlink:href="#DejaVuSans-6d"/>
      <use x="832.910156" xlink:href="#DejaVuSans-65"/>
      <use x="894.433594" xlink:href="#DejaVuSans-20"/>
      <use x="926.220703" xlink:href="#DejaVuSans-28"/>
      <use x="965.234375" xlink:href="#DejaVuSans-6d"/>
      <use x="1062.646484" xlink:href="#DejaVuSans-73"/>
      <use x="1114.746094" xlink:href="#DejaVuSans-29"/>
     </g>
    </g>
   </g>
   <g id="line2d_14">
    <path d="m398.49 271.55-0.4088-0.01197-0.40368 0.26594-0.47522-0.18917-0.89424 0.089278-1.0526-0.01816-0.49055 0.1644-0.55698-0.78712-0.63363 0.62125-0.70517-0.39118-0.67451 0.40178-0.73583 0.14231-3.8325 0.002255-0.75116-0.5169-0.94534 0.51354-1.7067 0.020389-0.90446-0.54159-0.8738 0.54257-4.3792 0.015735-1.1804-0.63578-1.0629 0.65316-3.8887 0.011339-9.7753 0.056539-3.4901-0.001758-3.3572 0.053117-3.4441 0.019865-1.7374-0.28067-1.8549 0.22682-7.4809 0.071489-1.9418-0.48187-1.7834 0.52496-14.395 0.032497-1.8549-0.11091-2.0746 0.14897-2.1871 0.02614-2.4425-0.092568-4.4661 0.13493-6.3414 0.026084-2.279-0.45338-2.1922 0.38782-2.2126 0.10947-4.4661 0.016191-2.2177-0.25892-2.3966 0.27504-6.8524 0.008036-2.0235-0.379-2.1104 0.40479-4.2566 0.012602-2.1615-0.57133-1.952 0.60196-1.9673 0.03662-2.0951-0.56686-2.2126 0.57577-87.17 0.43896-10.215 0.045206-1.5279-0.27523 1.0884 0.27271-15.396 0.0848-71.784 0.30043-3.0711 0.009029v0" clip-path="url(#p8a9bff9b89)" fill="none" stroke="#1f77b4" stroke-linecap="square" stroke-width="1.5"/>
   </g>
   <g id="line2d_15">
    <path d="m398.49 270.78-1.2877 0.06571-0.44967-0.04318-0.44456 0.079431-1.0526-0.11695-0.49055 0.10534-2.5703-0.024923-1.4717 0.026373-7.4043 0.022699-2.9689 0.024903-1.1344-0.043727-1.1497 0.084056-3.5463-0.022494-3.9704 0.00919-11.881 0.016911-6.8013 0.040881-14.798 0.098964-31.758 0.12313-15.371 0.12883-11.273-0.03339-2.1104 0.14018-6.4181-0.043709-12.402 0.13169-6.2035 0.026545-12.1 0.025781-1.8907 0.50614-81.616 0.40259-2.1462 0.23511-10.327 0.03839-22.744 0.11218-7.0568 0.032808-2.0593 0.11207-8.9271 0.052025-20.808 0.1411-0.78693 0.028126-7.2357 0.049542v0" clip-path="url(#p8a9bff9b89)" fill="none" stroke="#ff7f0e" stroke-linecap="square" stroke-width="1.5"/>
   </g>
   <g id="line2d_16">
    <path d="m398.49 50.832-0.4088 0.51344-0.40368-1.7951-0.47522 1.0008-0.44967-0.36154-0.44456 1.544-0.50077 0.63476-0.55187 1.4233-0.49055 0.29046-0.55698 1.6549-0.63363 0.77496-0.70517 1.1694-0.67451 1.5374-0.73583-0.15377-0.73583 2.2051-0.74605 0.79204-0.78182-3.1993-0.79715 7.4175-0.7716 0.79449-0.75116 1.3952-0.94534-3.7869-0.78182 6.4524-0.9249 1.1549-1.7783 2.9012-1.0935 1.4821-4.4661 8.1114-1.0629 1.4149-1.303 0.81766-1.2264 3.2359-1.3592-5.2346-1.3848 7.213-1.303 1.8876-1.3081 0.20313-1.4308 2.7509-1.4666 0.92912-1.4206 2.7562-1.4614 3.0858-1.768 0.53888-1.722 0.70164-1.7169 5.9247-1.6403 2.8039-1.6045 2.2532-3.577 6.6802-1.8549 1.9049-1.9878 3.4441-1.722 2.3319-1.8345 1.9758-1.9367 3.8322-1.9418 0.3254-1.7834 3.2412-2.0133 2.2312-1.9111 4.0366-2.0286 1.2926-2.1819 2.8793-2.1104 3.4046-2.0491 2.3081-2.1002 2.9047-1.8549 2.8825-4.2617 4.682-2.4425 2.764-2.1513 1.9167-2.3148 1.5971-2.2484 2.4128-2.09 2.809-2.0031 2.3263-2.279 2.1851-2.1922 1.5096-6.6787 6.4093-2.2177 1.879-2.3966 1.8591-2.3761 1.6759-2.3659 1.3773-2.1104 2.1334-2.0235 1.7296-2.1104 2.6799-2.0644 1.3947-4.3537 4.2682-1.952 0.90271-1.9673 1.7768-2.0951 0.74817-2.2126 2.2889-2.1564 1.7946-2.0184 1.0795-6.2035 4.2242-1.9827 1.7335-2.1871 1.0288-1.998-4.6403-1.8345 6.788-4.0982 2.4052-1.8907 1.6054-1.9469 0.2206-2.0082 1.6946-4.7982 1.9292-2.1717 1.5178-1.8856 1.1002-2.3761 0.4083-1.9111 1.0843-1.6096 0.26858-1.768 0.4184-1.7374 0.91228-1.5636 0.99172-2.0491 0.8423-5.4625 2.416-2.0695-0.30583-1.9418 1.6651-4.3486 1.8581-3.6127 1.1109-1.6403 0.65984-1.8242 0.3554-2.1104 0.8636-3.6587 1.3088-1.9367 0.4307-1.7731 0.25942-1.722 0.4987-1.4052 0.21571-3.4696 0.88453-1.5534 0.67648-1.6914 0.33054-1.8702 0.89999-1.7987 0.16213-1.6761 0.81954-1.625 0.35022-1.5279 0.55656 1.0884-0.43486-1.7425 0.54283-1.533 0.33046-1.722 0.58225-1.4717 0.076684-3.8376 1.3642-8.83 1.995-1.4972-0.023183-1.6045 0.66472-2.0031 0.47285-1.257 0.1027-1.4206 0.31346-2.7696 0.47391-2.5243 0.47243-18.222 3.2569-1.0629 1.0734-0.99644-0.32324-3.4441 0.51492-0.84825 0.011545-3.5054 0.44346-9.1774 1.0755-2.4885 0.36412-1.3848 0.33527-2.9944 0.18632-1.3848 0.096376-0.60297-0.11276-1.1957 0.2128-2.7083 0.20484-0.78693 0.09811-7.2357 0.39044v0" clip-path="url(#p8a9bff9b89)" fill="none" stroke="#2ca02c" stroke-linecap="square" stroke-width="1.5"/>
   </g>
   <g id="patch_3">
    <path d="m57.6 284.52v-246.15" fill="none" stroke="#000" stroke-linecap="square" stroke-width=".8"/>
   </g>
   <g id="patch_4">
    <path d="m414.72 284.52v-246.15" fill="none" stroke="#000" stroke-linecap="square" stroke-width=".8"/>
   </g>
   <g id="patch_5">
    <path d="m57.6 284.52h357.12" fill="none" stroke="#000" stroke-linecap="square" stroke-width=".8"/>
   </g>
   <g id="patch_6">
    <path d="m57.6 38.362h357.12" fill="none" stroke="#000" stroke-linecap="square" stroke-width=".8"/>
   </g>
   <g id="text_16">
    <!-- Scaling of CC structure construction time -->
    <g transform="translate(112.64 32.362) scale(.12 -.12)">
     <defs>
      <path id="DejaVuSans-53" transform="scale(.015625)" d="m3425 4513v-616q-359 172-678 256-319 85-616 85-515 0-795-200t-280-569q0-310 186-468 186-157 705-254l381-78q706-135 1042-474t336-907q0-679-455-1029-454-350-1332-350-331 0-705 75-373 75-773 222v650q384-215 753-325 369-109 725-109 540 0 834 212 294 213 294 607 0 343-211 537t-692 291l-385 75q-706 140-1022 440-315 300-315 835 0 619 436 975t1201 356q329 0 669-60 341-59 697-177z"/>
      <path id="DejaVuSans-61" transform="scale(.015625)" d="m2194 1759q-697 0-966-159t-269-544q0-306 202-486 202-179 548-179 479 0 768 339t289 901v128h-572zm1147 238v-1997h-575v531q-197-318-491-470t-719-152q-537 0-855 302-317 302-317 808 0 590 395 890 396 300 1180 300h807v57q0 397-261 614t-733 217q-300 0-585-72-284-72-546-216v532q315 122 612 182 297 61 578 61 760 0 1135-394 375-393 375-1193z"/>
      <path id="DejaVuSans-67" transform="scale(.015625)" d="m2906 1791q0 625-258 968-257 344-723 344-462 0-720-344-258-343-258-968 0-622 258-966t720-344q466 0 723 344 258 344 258 966zm575-1357q0-893-397-1329-396-436-1215-436-303 0-572 45t-522 139v559q253-137 500-202 247-66 503-66 566 0 847 295t281 892v285q-178-310-456-463t-666-153q-643 0-1037 490-394 491-394 1301 0 812 394 1302 394 491 1037 491 388 0 666-153t456-462v531h575v-3066z"/>
     </defs>
     <use xlink:href="#DejaVuSans-53"/>
     <use x="63.476562" xlink:href="#DejaVuSans-63"/>
     <use x="118.457031" xlink:href="#DejaVuSans-61"/>
     <use x="179.736328" xlink:href="#DejaVuSans-6c"/>
     <use x="207.519531" xlink:href="#DejaVuSans-69"/>
     <use x="235.302734" xlink:href="#DejaVuSans-6e"/>
     <use x="298.681641" xlink:href="#DejaVuSans-67"/>
     <use x="362.158203" xlink:href="#DejaVuSans-20"/>
     <use x="393.945312" xlink:href="#DejaVuSans-6f"/>
     <use x="455.126953" xlink:href="#DejaVuSans-66"/>
     <use x="490.332031" xlink:href="#DejaVuSans-20"/>
     <use x="522.119141" xlink:href="#DejaVuSans-43"/>
     <use x="591.943359" xlink:href="#DejaVuSans-43"/>
     <use x="661.767578" xlink:href="#DejaVuSans-20"/>
     <use x="693.554688" xlink:href="#DejaVuSans-73"/>
     <use x="745.654297" xlink:href="#DejaVuSans-74"/>
     <use x="784.863281" xlink:href="#DejaVuSans-72"/>
     <use x="825.976562" xlink:href="#DejaVuSans-75"/>
     <use x="889.355469" xlink:href="#DejaVuSans-63"/>
     <use x="944.335938" xlink:href="#DejaVuSans-74"/>
     <use x="983.544922" xlink:href="#DejaVuSans-75"/>
     <use x="1046.923828" xlink:href="#DejaVuSans-72"/>
     <use x="1085.787109" xlink:href="#DejaVuSans-65"/>
     <use x="1147.310547" xlink:href="#DejaVuSans-20"/>
     <use x="1179.097656" xlink:href="#DejaVuSans-63"/>
     <use x="1234.078125" xlink:href="#DejaVuSans-6f"/>
     <use x="1295.259766" xlink:href="#DejaVuSans-6e"/>
     <use x="1358.638672" xlink:href="#DejaVuSans-73"/>
     <use x="1410.738281" xlink:href="#DejaVuSans-74"/>
     <use x="1449.947266" xlink:href="#DejaVuSans-72"/>
     <use x="1491.060547" xlink:href="#DejaVuSans-75"/>
     <use x="1554.439453" xlink:href="#DejaVuSans-63"/>
     <use x="1609.419922" xlink:href="#DejaVuSans-74"/>
     <use x="1648.628906" xlink:href="#DejaVuSans-69"/>
     <use x="1676.412109" xlink:href="#DejaVuSans-6f"/>
     <use x="1737.59375" xlink:href="#DejaVuSans-6e"/>
     <use x="1800.972656" xlink:href="#DejaVuSans-20"/>
     <use x="1832.759766" xlink:href="#DejaVuSans-74"/>
     <use x="1871.96875" xlink:href="#DejaVuSans-69"/>
     <use x="1899.751953" xlink:href="#DejaVuSans-6d"/>
     <use x="1997.164062" xlink:href="#DejaVuSans-65"/>
    </g>
   </g>
   <g id="legend_1">
    <g id="patch_7">
     <path d="m64.6 90.396h109.4q2 0 2-2v-43.034q0-2-2-2h-109.4q-2 0-2 2v43.034q0 2 2 2z" fill="#fff" opacity=".8" stroke="#ccc"/>
    </g>
    <g id="line2d_17">
     <path d="m66.6 51.46h10 10" fill="none" stroke="#1f77b4" stroke-linecap="square" stroke-width="1.5"/>
    </g>
    <g id="text_17">
     <!-- kiddo (k-d tree) -->
     <g transform="translate(94.6 54.96) scale(.1 -.1)">
      <defs>
       <path id="DejaVuSans-6b" transform="scale(.015625)" d="m581 4863h578v-2872l1716 1509h734l-1856-1637 1935-1863h-750l-1779 1709v-1709h-578v4863z"/>
       <path id="DejaVuSans-2d" transform="scale(.015625)" d="m313 2009h1684v-512h-1684v512z"/>
      </defs>
      <use xlink:href="#DejaVuSans-6b"/>
      <use x="57.910156" xlink:href="#DejaVuSans-69"/>
      <use x="85.693359" xlink:href="#DejaVuSans-64"/>
      <use x="149.169922" xlink:href="#DejaVuSans-64"/>
      <use x="212.646484" xlink:href="#DejaVuSans-6f"/>
      <use x="273.828125" xlink:href="#DejaVuSans-20"/>
      <use x="305.615234" xlink:href="#DejaVuSans-28"/>
      <use x="344.628906" xlink:href="#DejaVuSans-6b"/>
      <use x="402.539062" xlink:href="#DejaVuSans-2d"/>
      <use x="438.623047" xlink:href="#DejaVuSans-64"/>
      <use x="502.099609" xlink:href="#DejaVuSans-20"/>
      <use x="533.886719" xlink:href="#DejaVuSans-74"/>
      <use x="573.095703" xlink:href="#DejaVuSans-72"/>
      <use x="611.958984" xlink:href="#DejaVuSans-65"/>
      <use x="673.482422" xlink:href="#DejaVuSans-65"/>
      <use x="735.005859" xlink:href="#DejaVuSans-29"/>
     </g>
    </g>
    <g id="line2d_18">
     <path d="m66.6 66.138h10 10" fill="none" stroke="#ff7f0e" stroke-linecap="square" stroke-width="1.5"/>
    </g>
    <g id="text_18">
     <!-- forward tree -->
     <g transform="translate(94.6 69.638) scale(.1 -.1)">
      <defs>
       <path id="DejaVuSans-77" transform="scale(.015625)" d="m269 3500h575l719-2731 715 2731h678l719-2731 716 2731h575l-916-3500h-678l-753 2869-756-2869h-679l-915 3500z"/>
      </defs>
      <use xlink:href="#DejaVuSans-66"/>
      <use x="35.205078" xlink:href="#DejaVuSans-6f"/>
      <use x="96.386719" xlink:href="#DejaVuSans-72"/>
      <use x="137.5" xlink:href="#DejaVuSans-77"/>
      <use x="219.287109" xlink:href="#DejaVuSans-61"/>
      <use x="280.566406" xlink:href="#DejaVuSans-72"/>
      <use x="319.929688" xlink:href="#DejaVuSans-64"/>
      <use x="383.40625" xlink:href="#DejaVuSans-20"/>
      <use x="415.193359" xlink:href="#DejaVuSans-74"/>
      <use x="454.402344" xlink:href="#DejaVuSans-72"/>
      <use x="493.265625" xlink:href="#DejaVuSans-65"/>
      <use x="554.789062" xlink:href="#DejaVuSans-65"/>
     </g>
    </g>
    <g id="line2d_19">
     <path d="m66.6 80.816h10 10" fill="none" stroke="#2ca02c" stroke-linecap="square" stroke-width="1.5"/>
    </g>
    <g id="text_19">
     <!-- CAPT -->
     <g transform="translate(94.6 84.316) scale(.1 -.1)">
      <defs>
       <path id="DejaVuSans-41" transform="scale(.015625)" d="m2188 4044-857-2322h1716l-859 2322zm-357 622h716l1778-4666h-656l-425 1197h-2103l-425-1197h-666l1781 4666z"/>
       <path id="DejaVuSans-50" transform="scale(.015625)" d="m1259 4147v-1753h794q441 0 681 228 241 228 241 650 0 419-241 647-240 228-681 228h-794zm-631 519h1425q785 0 1186-355 402-355 402-1039 0-691-402-1044-401-353-1186-353h-794v-1875h-631v4666z"/>
       <path id="DejaVuSans-54" transform="scale(.015625)" d="m-19 4666h3947v-532h-1656v-4134h-634v4134h-1657v532z"/>
      </defs>
      <use xlink:href="#DejaVuSans-43"/>
      <use x="69.824219" xlink:href="#DejaVuSans-41"/>
      <use x="138.232422" xlink:href="#DejaVuSans-50"/>
      <use x="198.535156" xlink:href="#DejaVuSans-54"/>
     </g>
    </g>
   </g>
  </g>
 </g>
 <defs>
  <clipPath id="p8a9bff9b89">
   <rect x="57.6" y="38.362" width="357.12" height="246.15"/>
  </clipPath>
 </defs>
</svg>
