<?xml version="1.0" encoding="UTF-8"?>
<!DOCTYPE svg  PUBLIC '-//W3C//DTD SVG 1.1//EN'  'http://www.w3.org/Graphics/SVG/1.1/DTD/svg11.dtd'>
<svg width="460.8pt" height="345.6pt" version="1.1" viewBox="0 0 460.8 345.6" xmlns="http://www.w3.org/2000/svg" xmlns:xlink="http://www.w3.org/1999/xlink">
 <metadata>
  <rdf:RDF xmlns:cc="http://creativecommons.org/ns#" xmlns:dc="http://purl.org/dc/elements/1.1/" xmlns:rdf="http://www.w3.org/1999/02/22-rdf-syntax-ns#">
   <cc:Work>
    <dc:type rdf:resource="http://purl.org/dc/dcmitype/StillImage"/>
    <dc:date>2024-02-26T13:15:33.641519</dc:date>
    <dc:format>image/svg+xml</dc:format>
    <dc:creator>
     <cc:Agent>
      <dc:title>Matplotlib v3.6.3, https://matplotlib.org/</dc:title>
     </cc:Agent>
    </dc:creator>
   </cc:Work>
  </rdf:RDF>
 </metadata>
 <defs>
  <style type="text/css">*{stroke-linejoin: round; stroke-linecap: butt}</style>
 </defs>
 <g id="figure_1">
  <g id="patch_1">
   <path d="m0 345.6h460.8v-345.6h-460.8z" fill="#fff"/>
  </g>
  <g id="axes_1">
   <g id="patch_2">
    <path d="m57.6 307.58h357.12v-266.11h-357.12z" fill="#fff"/>
   </g>
   <g id="matplotlib.axis_1">
    <g id="xtick_1">
     <g id="line2d_1">
      <defs>
       <path id="m9cfe8a146a" d="m0 0v3.5" stroke="#000" stroke-width=".8"/>
      </defs>
      <use x="73.832727" y="307.584" stroke="#000000" stroke-width=".8" xlink:href="#m9cfe8a146a"/>
     </g>
     <g id="text_1">
      <!-- 0 -->
      <g transform="translate(70.651 322.18) scale(.1 -.1)">
       <defs>
        <path id="DejaVuSans-30" transform="scale(.015625)" d="m2034 4250q-487 0-733-480-245-479-245-1442 0-959 245-1439 246-480 733-480 491 0 736 480 246 480 246 1439 0 963-246 1442-245 480-736 480zm0 500q785 0 1199-621 414-620 414-1801 0-1178-414-1799-414-620-1199-620-784 0-1198 620-414 621-414 1799 0 1181 414 1801 414 621 1198 621z"/>
       </defs>
       <use xlink:href="#DejaVuSans-30"/>
      </g>
     </g>
    </g>
    <g id="xtick_2">
     <g id="line2d_2">
      <use x="138.828632" y="307.584" stroke="#000000" stroke-width=".8" xlink:href="#m9cfe8a146a"/>
     </g>
     <g id="text_2">
      <!-- 2 -->
      <g transform="translate(135.65 322.18) scale(.1 -.1)">
       <defs>
        <path id="DejaVuSans-32" transform="scale(.015625)" d="m1228 531h2203v-531h-2962v531q359 372 979 998 621 627 780 809 303 340 423 576 121 236 121 464 0 372-261 606-261 235-680 235-297 0-627-103-329-103-704-313v638q381 153 712 231 332 78 607 78 725 0 1156-363 431-362 431-968 0-288-108-546-107-257-392-607-78-91-497-524-418-433-1181-1211z"/>
       </defs>
       <use xlink:href="#DejaVuSans-32"/>
      </g>
     </g>
    </g>
    <g id="xtick_3">
     <g id="line2d_3">
      <use x="203.824537" y="307.584" stroke="#000000" stroke-width=".8" xlink:href="#m9cfe8a146a"/>
     </g>
     <g id="text_3">
      <!-- 4 -->
      <g transform="translate(200.64 322.18) scale(.1 -.1)">
       <defs>
        <path id="DejaVuSans-34" transform="scale(.015625)" d="m2419 4116-1594-2491h1594v2491zm-166 550h794v-3041h666v-525h-666v-1100h-628v1100h-2106v609l1940 2957z"/>
       </defs>
       <use xlink:href="#DejaVuSans-34"/>
      </g>
     </g>
    </g>
    <g id="xtick_4">
     <g id="line2d_4">
      <use x="268.820442" y="307.584" stroke="#000000" stroke-width=".8" xlink:href="#m9cfe8a146a"/>
     </g>
     <g id="text_4">
      <!-- 6 -->
      <g transform="translate(265.64 322.18) scale(.1 -.1)">
       <defs>
        <path id="DejaVuSans-36" transform="scale(.015625)" d="m2113 2584q-425 0-674-291-248-290-248-796 0-503 248-796 249-292 674-292t673 292q248 293 248 796 0 506-248 796-248 291-673 291zm1253 1979v-575q-238 112-480 171-242 60-480 60-625 0-955-422-329-422-376-1275 184 272 462 417 279 145 613 145 703 0 1111-427 408-426 408-1160 0-719-425-1154-425-434-1131-434-810 0-1238 620-428 621-428 1799 0 1106 525 1764t1409 658q238 0 480-47t505-140z"/>
       </defs>
       <use xlink:href="#DejaVuSans-36"/>
      </g>
     </g>
    </g>
    <g id="xtick_5">
     <g id="line2d_5">
      <use x="333.816347" y="307.584" stroke="#000000" stroke-width=".8" xlink:href="#m9cfe8a146a"/>
     </g>
     <g id="text_5">
      <!-- 8 -->
      <g transform="translate(330.64 322.18) scale(.1 -.1)">
       <defs>
        <path id="DejaVuSans-38" transform="scale(.015625)" d="m2034 2216q-450 0-708-241-257-241-257-662 0-422 257-663 258-241 708-241t709 242q260 243 260 662 0 421-258 662-257 241-711 241zm-631 268q-406 100-633 378-226 279-226 679 0 559 398 884 399 325 1092 325 697 0 1094-325t397-884q0-400-227-679-226-278-629-378 456-106 710-416 255-309 255-755 0-679-414-1042-414-362-1186-362-771 0-1186 362-414 363-414 1042 0 446 256 755 257 310 713 416zm-231 997q0-362 226-565 227-203 636-203 407 0 636 203 230 203 230 565 0 363-230 566-229 203-636 203-409 0-636-203-226-203-226-566z"/>
       </defs>
       <use xlink:href="#DejaVuSans-38"/>
      </g>
     </g>
    </g>
    <g id="xtick_6">
     <g id="line2d_6">
      <use x="398.812252" y="307.584" stroke="#000000" stroke-width=".8" xlink:href="#m9cfe8a146a"/>
     </g>
     <g id="text_6">
      <!-- 10 -->
      <g transform="translate(392.45 322.18) scale(.1 -.1)">
       <defs>
        <path id="DejaVuSans-31" transform="scale(.015625)" d="m794 531h1031v3560l-1122-225v575l1116 225h631v-4135h1031v-531h-2687v531z"/>
       </defs>
       <use xlink:href="#DejaVuSans-31"/>
       <use x="63.623047" xlink:href="#DejaVuSans-30"/>
      </g>
     </g>
    </g>
    <g id="text_7">
     <!-- Filter radius (cm) -->
     <g transform="translate(193.62 335.86) scale(.1 -.1)">
      <defs>
       <path id="DejaVuSans-46" transform="scale(.015625)" d="m628 4666h2681v-532h-2050v-1375h1850v-531h-1850v-2228h-631v4666z"/>
       <path id="DejaVuSans-69" transform="scale(.015625)" d="m603 3500h575v-3500h-575v3500zm0 1363h575v-729h-575v729z"/>
       <path id="DejaVuSans-6c" transform="scale(.015625)" d="m603 4863h575v-4863h-575v4863z"/>
       <path id="DejaVuSans-74" transform="scale(.015625)" d="m1172 4494v-994h1184v-447h-1184v-1900q0-428 117-550t477-122h590v-481h-590q-666 0-919 248-253 249-253 905v1900h-422v447h422v994h578z"/>
       <path id="DejaVuSans-65" transform="scale(.015625)" d="m3597 1894v-281h-2644q38-594 358-905t892-311q331 0 642 81t618 244v-544q-310-131-635-200t-659-69q-838 0-1327 487-489 488-489 1320 0 859 464 1363 464 505 1252 505 706 0 1117-455 411-454 411-1235zm-575 169q-6 471-264 752-258 282-683 282-481 0-770-272t-333-766l2050 4z"/>
       <path id="DejaVuSans-72" transform="scale(.015625)" d="m2631 2963q-97 56-211 82-114 27-251 27-488 0-749-317t-261-911v-1844h-578v3500h578v-544q182 319 472 473 291 155 707 155 59 0 131-8 72-7 159-23l3-590z"/>
       <path id="DejaVuSans-61" transform="scale(.015625)" d="m2194 1759q-697 0-966-159t-269-544q0-306 202-486 202-179 548-179 479 0 768 339t289 901v128h-572zm1147 238v-1997h-575v531q-197-318-491-470t-719-152q-537 0-855 302-317 302-317 808 0 590 395 890 396 300 1180 300h807v57q0 397-261 614t-733 217q-300 0-585-72-284-72-546-216v532q315 122 612 182 297 61 578 61 760 0 1135-394 375-393 375-1193z"/>
       <path id="DejaVuSans-64" transform="scale(.015625)" d="m2906 2969v1894h575v-4863h-575v525q-181-312-458-464-276-152-664-152-634 0-1033 506-398 507-398 1332t398 1331q399 506 1033 506 388 0 664-152 277-151 458-463zm-1959-1222q0-634 261-995t717-361 718 361q263 361 263 995t-263 995q-262 361-718 361t-717-361-261-995z"/>
       <path id="DejaVuSans-75" transform="scale(.015625)" d="m544 1381v2119h575v-2097q0-497 193-746 194-248 582-248 465 0 735 297 271 297 271 810v1984h575v-3500h-575v538q-209-319-486-474-276-155-642-155-603 0-916 375-312 375-312 1097zm1447 2203z"/>
       <path id="DejaVuSans-73" transform="scale(.015625)" d="m2834 3397v-544q-243 125-506 187-262 63-544 63-428 0-642-131t-214-394q0-200 153-314t616-217l197-44q612-131 870-370t258-667q0-488-386-773-386-284-1061-284-281 0-586 55t-642 164v594q319-166 628-249 309-82 613-82 406 0 624 139 219 139 219 392 0 234-158 359-157 125-692 241l-200 47q-534 112-772 345-237 233-237 639 0 494 350 762 350 269 994 269 318 0 599-47 282-46 519-140z"/>
       <path id="DejaVuSans-28" transform="scale(.015625)" d="m1984 4856q-418-718-622-1422-203-703-203-1425 0-721 205-1429t620-1424h-500q-468 735-701 1444t-233 1409q0 697 231 1403 232 707 703 1444h500z"/>
       <path id="DejaVuSans-63" transform="scale(.015625)" d="m3122 3366v-538q-244 135-489 202t-495 67q-560 0-870-355-309-354-309-995t309-996q310-354 870-354 250 0 495 67t489 202v-532q-241-112-499-168-257-57-548-57-791 0-1257 497-465 497-465 1341 0 856 470 1346 471 491 1290 491 265 0 518-55 253-54 491-163z"/>
       <path id="DejaVuSans-6d" transform="scale(.015625)" d="m3328 2828q216 388 516 572t706 184q547 0 844-383 297-382 297-1088v-2113h-578v2094q0 503-179 746-178 244-543 244-447 0-707-297-259-296-259-809v-1978h-578v2094q0 506-178 748t-550 242q-441 0-701-298-259-298-259-808v-1978h-578v3500h578v-544q197 322 472 475t653 153q382 0 649-194 267-193 395-562z"/>
       <path id="DejaVuSans-29" transform="scale(.015625)" d="m513 4856h500q468-737 701-1444 233-706 233-1403 0-700-233-1409t-701-1444h-500q415 716 620 1424t205 1429q0 722-205 1425-205 704-620 1422z"/>
      </defs>
      <use xlink:href="#DejaVuSans-46"/>
      <use x="50.269531" xlink:href="#DejaVuSans-69"/>
      <use x="78.052734" xlink:href="#DejaVuSans-6c"/>
      <use x="105.835938" xlink:href="#DejaVuSans-74"/>
      <use x="145.044922" xlink:href="#DejaVuSans-65"/>
      <use x="206.568359" xlink:href="#DejaVuSans-72"/>
      <use x="247.681641" xlink:href="#DejaVuSans-20"/>
      <use x="279.46875" xlink:href="#DejaVuSans-72"/>
      <use x="320.582031" xlink:href="#DejaVuSans-61"/>
      <use x="381.861328" xlink:href="#DejaVuSans-64"/>
      <use x="445.337891" xlink:href="#DejaVuSans-69"/>
      <use x="473.121094" xlink:href="#DejaVuSans-75"/>
      <use x="536.5" xlink:href="#DejaVuSans-73"/>
      <use x="588.599609" xlink:href="#DejaVuSans-20"/>
      <use x="620.386719" xlink:href="#DejaVuSans-28"/>
      <use x="659.400391" xlink:href="#DejaVuSans-63"/>
      <use x="714.380859" xlink:href="#DejaVuSans-6d"/>
      <use x="811.792969" xlink:href="#DejaVuSans-29"/>
     </g>
    </g>
   </g>
   <g id="matplotlib.axis_2">
    <g id="ytick_1">
     <g id="line2d_7">
      <defs>
       <path id="m7cf887b601" d="m0 0h-3.5" stroke="#000" stroke-width=".8"/>
      </defs>
      <use x="57.6" y="299.536526" stroke="#000000" stroke-width=".8" xlink:href="#m7cf887b601"/>
     </g>
     <g id="text_8">
      <!-- $\mathdefault{10^{3}}$ -->
      <g transform="translate(33 303.34) scale(.1 -.1)">
       <defs>
        <path id="DejaVuSans-33" transform="scale(.015625)" d="m2597 2516q453-97 707-404 255-306 255-756 0-690-475-1069-475-378-1350-378-293 0-604 58t-642 174v609q262-153 574-231 313-78 654-78 593 0 904 234t311 681q0 413-289 645-289 233-804 233h-544v519h569q465 0 712 186t247 536q0 359-255 551-254 193-729 193-260 0-557-57-297-56-653-174v562q360 100 674 150t592 50q719 0 1137-327 419-326 419-882 0-388-222-655t-631-370z"/>
       </defs>
       <use transform="translate(0 .76562)" xlink:href="#DejaVuSans-31"/>
       <use transform="translate(63.623 .76562)" xlink:href="#DejaVuSans-30"/>
       <use transform="translate(128.2 39.047) scale(.7)" xlink:href="#DejaVuSans-33"/>
      </g>
     </g>
    </g>
    <g id="ytick_2">
     <g id="line2d_8">
      <use x="57.6" y="193.616932" stroke="#000000" stroke-width=".8" xlink:href="#m7cf887b601"/>
     </g>
     <g id="text_9">
      <!-- $\mathdefault{10^{4}}$ -->
      <g transform="translate(33 197.42) scale(.1 -.1)">
       <use transform="translate(0 .68438)" xlink:href="#DejaVuSans-31"/>
       <use transform="translate(63.623 .68438)" xlink:href="#DejaVuSans-30"/>
       <use transform="translate(128.2 38.966) scale(.7)" xlink:href="#DejaVuSans-34"/>
      </g>
     </g>
    </g>
    <g id="ytick_3">
     <g id="line2d_9">
      <use x="57.6" y="87.697337" stroke="#000000" stroke-width=".8" xlink:href="#m7cf887b601"/>
     </g>
     <g id="text_10">
      <!-- $\mathdefault{10^{5}}$ -->
      <g transform="translate(33 91.497) scale(.1 -.1)">
       <defs>
        <path id="DejaVuSans-35" transform="scale(.015625)" d="m691 4666h2478v-532h-1900v-1143q137 47 274 70 138 23 276 23 781 0 1237-428 457-428 457-1159 0-753-469-1171-469-417-1322-417-294 0-599 50-304 50-629 150v635q281-153 581-228t634-75q541 0 856 284 316 284 316 772 0 487-316 771-315 285-856 285-253 0-505-56-251-56-513-175v2344z"/>
       </defs>
       <use transform="translate(0 .68438)" xlink:href="#DejaVuSans-31"/>
       <use transform="translate(63.623 .68438)" xlink:href="#DejaVuSans-30"/>
       <use transform="translate(128.2 38.966) scale(.7)" xlink:href="#DejaVuSans-35"/>
      </g>
     </g>
    </g>
    <g id="ytick_4">
     <g id="line2d_10">
      <defs>
       <path id="ma8a92c1a48" d="m0 0h-2" stroke="#000" stroke-width=".6"/>
      </defs>
      <use x="57.6" y="304.383141" stroke="#000000" stroke-width=".6" xlink:href="#ma8a92c1a48"/>
     </g>
    </g>
    <g id="ytick_5">
     <g id="line2d_11">
      <use x="57.6" y="267.651551" stroke="#000000" stroke-width=".6" xlink:href="#ma8a92c1a48"/>
     </g>
    </g>
    <g id="ytick_6">
     <g id="line2d_12">
      <use x="57.6" y="249.000036" stroke="#000000" stroke-width=".6" xlink:href="#ma8a92c1a48"/>
     </g>
    </g>
    <g id="ytick_7">
     <g id="line2d_13">
      <use x="57.6" y="235.766576" stroke="#000000" stroke-width=".6" xlink:href="#ma8a92c1a48"/>
     </g>
    </g>
    <g id="ytick_8">
     <g id="line2d_14">
      <use x="57.6" y="225.501907" stroke="#000000" stroke-width=".6" xlink:href="#ma8a92c1a48"/>
     </g>
    </g>
    <g id="ytick_9">
     <g id="line2d_15">
      <use x="57.6" y="217.115061" stroke="#000000" stroke-width=".6" xlink:href="#ma8a92c1a48"/>
     </g>
    </g>
    <g id="ytick_10">
     <g id="line2d_16">
      <use x="57.6" y="210.024085" stroke="#000000" stroke-width=".6" xlink:href="#ma8a92c1a48"/>
     </g>
    </g>
    <g id="ytick_11">
     <g id="line2d_17">
      <use x="57.6" y="203.881601" stroke="#000000" stroke-width=".6" xlink:href="#ma8a92c1a48"/>
     </g>
    </g>
    <g id="ytick_12">
     <g id="line2d_18">
      <use x="57.6" y="198.463547" stroke="#000000" stroke-width=".6" xlink:href="#ma8a92c1a48"/>
     </g>
    </g>
    <g id="ytick_13">
     <g id="line2d_19">
      <use x="57.6" y="161.731957" stroke="#000000" stroke-width=".6" xlink:href="#ma8a92c1a48"/>
     </g>
    </g>
    <g id="ytick_14">
     <g id="line2d_20">
      <use x="57.6" y="143.080442" stroke="#000000" stroke-width=".6" xlink:href="#ma8a92c1a48"/>
     </g>
    </g>
    <g id="ytick_15">
     <g id="line2d_21">
      <use x="57.6" y="129.846981" stroke="#000000" stroke-width=".6" xlink:href="#ma8a92c1a48"/>
     </g>
    </g>
    <g id="ytick_16">
     <g id="line2d_22">
      <use x="57.6" y="119.582312" stroke="#000000" stroke-width=".6" xlink:href="#ma8a92c1a48"/>
     </g>
    </g>
    <g id="ytick_17">
     <g id="line2d_23">
      <use x="57.6" y="111.195467" stroke="#000000" stroke-width=".6" xlink:href="#ma8a92c1a48"/>
     </g>
    </g>
    <g id="ytick_18">
     <g id="line2d_24">
      <use x="57.6" y="104.10449" stroke="#000000" stroke-width=".6" xlink:href="#ma8a92c1a48"/>
     </g>
    </g>
    <g id="ytick_19">
     <g id="line2d_25">
      <use x="57.6" y="97.962006" stroke="#000000" stroke-width=".6" xlink:href="#ma8a92c1a48"/>
     </g>
    </g>
    <g id="ytick_20">
     <g id="line2d_26">
      <use x="57.6" y="92.543952" stroke="#000000" stroke-width=".6" xlink:href="#ma8a92c1a48"/>
     </g>
    </g>
    <g id="ytick_21">
     <g id="line2d_27">
      <use x="57.6" y="55.812362" stroke="#000000" stroke-width=".6" xlink:href="#ma8a92c1a48"/>
     </g>
    </g>
    <g id="text_11">
     <!-- Number of points after filtering -->
     <g transform="translate(26.92 252.34) rotate(-90) scale(.1 -.1)">
      <defs>
       <path id="DejaVuSans-4e" transform="scale(.015625)" d="m628 4666h850l2069-3903v3903h612v-4666h-850l-2068 3903v-3903h-613v4666z"/>
       <path id="DejaVuSans-62" transform="scale(.015625)" d="m3116 1747q0 634-261 995t-717 361q-457 0-718-361t-261-995 261-995 718-361q456 0 717 361t261 995zm-1957 1222q182 312 458 463 277 152 661 152 638 0 1036-506 399-506 399-1331t-399-1332q-398-506-1036-506-384 0-661 152-276 152-458 464v-525h-578v4863h578v-1894z"/>
       <path id="DejaVuSans-6f" transform="scale(.015625)" d="m1959 3097q-462 0-731-361t-269-989 267-989q268-361 733-361 460 0 728 362 269 363 269 988 0 622-269 986-268 364-728 364zm0 487q750 0 1178-488 429-487 429-1349 0-859-429-1349-428-489-1178-489-753 0-1180 489-426 490-426 1349 0 862 426 1349 427 488 1180 488z"/>
       <path id="DejaVuSans-66" transform="scale(.015625)" d="m2375 4863v-479h-550q-309 0-430-125-120-125-120-450v-309h947v-447h-947v-3053h-578v3053h-550v447h550v244q0 584 272 851 272 268 862 268h544z"/>
       <path id="DejaVuSans-70" transform="scale(.015625)" d="m1159 525v-1856h-578v4831h578v-531q182 312 458 463 277 152 661 152 638 0 1036-506 399-506 399-1331t-399-1332q-398-506-1036-506-384 0-661 152-276 152-458 464zm1957 1222q0 634-261 995t-717 361q-457 0-718-361t-261-995 261-995 718-361q456 0 717 361t261 995z"/>
       <path id="DejaVuSans-6e" transform="scale(.015625)" d="m3513 2113v-2113h-575v2094q0 497-194 743-194 247-581 247-466 0-735-297-269-296-269-809v-1978h-578v3500h578v-544q207 316 486 472 280 156 646 156 603 0 912-373 310-373 310-1098z"/>
       <path id="DejaVuSans-67" transform="scale(.015625)" d="m2906 1791q0 625-258 968-257 344-723 344-462 0-720-344-258-343-258-968 0-622 258-966t720-344q466 0 723 344 258 344 258 966zm575-1357q0-893-397-1329-396-436-1215-436-303 0-572 45t-522 139v559q253-137 500-202 247-66 503-66 566 0 847 295t281 892v285q-178-310-456-463t-666-153q-643 0-1037 490-394 491-394 1301 0 812 394 1302 394 491 1037 491 388 0 666-153t456-462v531h575v-3066z"/>
      </defs>
      <use xlink:href="#DejaVuSans-4e"/>
      <use x="74.804688" xlink:href="#DejaVuSans-75"/>
      <use x="138.183594" xlink:href="#DejaVuSans-6d"/>
      <use x="235.595703" xlink:href="#DejaVuSans-62"/>
      <use x="299.072266" xlink:href="#DejaVuSans-65"/>
      <use x="360.595703" xlink:href="#DejaVuSans-72"/>
      <use x="401.708984" xlink:href="#DejaVuSans-20"/>
      <use x="433.496094" xlink:href="#DejaVuSans-6f"/>
      <use x="494.677734" xlink:href="#DejaVuSans-66"/>
      <use x="529.882812" xlink:href="#DejaVuSans-20"/>
      <use x="561.669922" xlink:href="#DejaVuSans-70"/>
      <use x="625.146484" xlink:href="#DejaVuSans-6f"/>
      <use x="686.328125" xlink:href="#DejaVuSans-69"/>
      <use x="714.111328" xlink:href="#DejaVuSans-6e"/>
      <use x="777.490234" xlink:href="#DejaVuSans-74"/>
      <use x="816.699219" xlink:href="#DejaVuSans-73"/>
      <use x="868.798828" xlink:href="#DejaVuSans-20"/>
      <use x="900.585938" xlink:href="#DejaVuSans-61"/>
      <use x="961.865234" xlink:href="#DejaVuSans-66"/>
      <use x="995.320312" xlink:href="#DejaVuSans-74"/>
      <use x="1034.529297" xlink:href="#DejaVuSans-65"/>
      <use x="1096.052734" xlink:href="#DejaVuSans-72"/>
      <use x="1137.166016" xlink:href="#DejaVuSans-20"/>
      <use x="1168.953125" xlink:href="#DejaVuSans-66"/>
      <use x="1204.158203" xlink:href="#DejaVuSans-69"/>
      <use x="1231.941406" xlink:href="#DejaVuSans-6c"/>
      <use x="1259.724609" xlink:href="#DejaVuSans-74"/>
      <use x="1298.933594" xlink:href="#DejaVuSans-65"/>
      <use x="1360.457031" xlink:href="#DejaVuSans-72"/>
      <use x="1401.570312" xlink:href="#DejaVuSans-69"/>
      <use x="1429.353516" xlink:href="#DejaVuSans-6e"/>
      <use x="1492.732422" xlink:href="#DejaVuSans-67"/>
     </g>
    </g>
   </g>
   <g id="line2d_28">
    <path d="m73.833 53.568 0.32498 0.11361 0.64996 0.76122 0.64996 1.2916 0.97494 2.5028 3.8998 10.866 2.5998 6.2807 1.9499 4.0709 8.1245 14.67 2.5998 3.9031 3.5748 4.7849 2.9248 3.8651 1.6249 2.0376 2.5998 3.2894 2.5998 3.2647 1.2999 1.7118 5.1997 6.8398 2.2749 2.4872 5.5247 5.5395 1.9499 1.8605 4.8747 4.4455 0.64996 0.58227 6.1746 5.5714 3.2498 2.9006 1.6249 1.521 2.5998 2.2035 12.024 10.679 0.97494 0.87309 0.64996 0.54091 3.2498 2.4536 2.2749 1.615 0.64996 0.42581 0.97494 0.68855 2.2749 1.6113 0.64996 0.57672 0.64996 0.34002 0.97494 0.60541 5.1997 3.6133 2.2749 1.6099 0.97494 0.58799 4.5497 2.6783 0.64996 0.24953 2.2749 1.3636 0.97494 0.46842 4.2247 2.0197 18.199 7.1898 1.2999 0.71136 0.97494 0.52516 1.2999 0.89034 0.97494 0.59249 0.97494 0.50665 1.2999 0.74922 0.32498 0.10939 0.64996 0.54127 0.64996 0.38709 0.97494 0.72975 0.64996 0.40162 0.64996 0.38005 3.8998 3.1859 0.64996 0.61761 0.64996 0.49902 1.2999 1.1162 1.9499 1.4927 0.97494 0.72341 0.97494 0.74099 0.32498 0.17503 0.97494 0.86064 0.97494 0.72032 0.97494 0.80178 0.64996 0.51233 0.32498 0.18714 0.64996 0.57257 0.32498 0.045853 0.64996 0.45444 0.64996 0.43892 0.97494 0.7274 0.64996 0.27918 0.64996 0.4737 0.64996 0.35329 1.2999 1.0693 1.9499 1.1896 0.64996 0.35193 0.32498 0.11053 1.2999 0.90901 0.32498 0.075312 0.64996 0.42404 0.64996 0.1753 0.97494 0.53766 1.2999 0.6301 0.97494 0.26708 1.9499 0.73056 0.32498 0.281 0.97494 0.36383 0.32498 0.24416 0.64996 0.081677 0.97494 0.52619 0.97494 0.43201 0.64996 0.20076 1.2999 0.54818 0.64996 0.48615 0.32498-0.017145 0.64996 0.33549 0.97494 0.43372 0.32498 0.043598 0.64996 0.37666 1.2999 0.35317 0.32498 0.15092 0.32498 0.29439 0.32498 0.09855 0.64996 0.35111 0.32498 0.23558 1.6249 0.55748 0.64996 0.3322 0.64996 0.12055 0.32498 0.22339 0.64996 0.22448 1.2999 0.54707 0.32498 0.018981 0.32498 0.36213 0.97494 0.48088 0.64996 0.31042 0.97494 0.6272 0.32498 0.17795 0.32498 0.30809 0.64996 0.24998 0.32498 0.27151 0.32498 0.070653 0.64996 0.46701 0.32498 0.12261 0.64996 0.44207 0.97494 0.33176 0.97494 0.78707 0.32498 0.11658 0.32498 0.27673 0.97494 0.34289 0.97494 0.70446 0.97494 0.41689 0.64996 0.38735 0.64996 0.41306 0.64996 0.30378 1.9499 1.1777 0.64996 0.17405 0.97494 0.43215 0.32498 0.37705 0.32498 0.011833 0.64996 0.33256 0.32498 0.10741 0.97494 0.58922 0.97494 0.40112 0.32498 0.18349 0.32498 0.35683 0.64996 0.16086 1.2999 0.69945 0.32498 0.3284 0.32498 0.050731 0.32498 0.30557 0.97494 0.39772 0.64996 0.28435 1.2999 0.48223 0.32498 0.24961 0.97494 0.34378 0.64996 0.39989 0.32498 0.12065 0.97494 0.67609 0.32498 0.040883 0.64996 0.54861 1.6249 0.83538 0.97494 0.3951 1.2999 0.87268 0.32498 0.086738 0.32498 0.21756 0.32498 0.043636 0.32498 0.32127 0.64996 0.23507 1.2999 0.60791 0.32498 0.25444 1.6249 0.46762 0.64996 0.4112 0.64996-0.030585 3.2498 1.1768 0.64996 0.015686 1.9499 1.0313 0.64996 0.2413 0.64996 0.43756 0.64996 0.16312 0.32498 0.22935 0.64996 0.1975 1.2999 0.4142 0.32498 0.20015 0.32498 0.016718 1.9499 0.89488 0.32498-0.017046 2.2749 0.73877 0.32498 0.2083 0.32498 0.052223 2.2749 1.1285 2.5998 0.66525 0.64996 0.3819 0.64996 0.054816 0.32498 0.21992 0.64996 0.018375 3.2498 1.0221 0.64996 0.056408 0.64996 0.056476 0.32498-0.018833 0.64996 0.30226 0.64996 0.11386 1.6249 0.40075 0.64996 0.38494 0.32498-0.019324 0.64996 0.13544 0.64996 0.25259 1.2999 0.33242 1.2999 0.15727 0.64996 0.19734 0.97494 0.25782 0.97494 0.23927 0.64996 0.28074 0.32498 0.18138 0.32498-0.020189 0.32498 0.10103 0.64996-0.080844 4.2247 1.0209 0.32498-0.020642 0.32498 0.12399 0.64996 0.062121 0.64996 0.10372 1.2999-0.020763 0.97494 0.33334 0.97494 0.041837 0.97494 0.29393 0.32498 0.21111h0.64996l2.2749 0.25461 0.32498 0.10651 0.32498-0.042632 1.6249 0.44962 1.2999 0.23728 0.64996-0.15114 0.32498 0.15114 0.32498-0.043234 0.32498 0.19487 4.5497 0.98693 0.32498 0.1332 0.64996 0.044488 1.2999 0.42479 0.32498 0.22516 1.9499 0.090374 0.97494 0.5918 0.32498-0.045794 0.32498 0.20643 0.32498-0.068914 0.97494 0.045931 0.32498 0.022983 0.32498 0.29983 2.5998 0.4184 0.32498 0.1169h0.64996l0.64996 0.2347 0.97494 0.66359 0.64996 0.023877 0.64996 0.16749 0.32498 0.023977 0.32498 0.26458 0.97494 0.29038 0.64996 0.21899 0.64996-0.024384 0.32498 0.12205h0.32498l1.2999 0.41741 1.2999 0.24731 0.64996 0.39849 0.32498 0.075102v0" clip-path="url(#p570cd40389)" fill="none" stroke="#1f77b4" stroke-linecap="square" stroke-width="1.5"/>
   </g>
   <g id="line2d_29">
    <path d="m73.833 53.568 0.32498 0.11361 0.64996 0.76925 0.64996 1.3109 0.97494 2.5782 4.2247 12.12 1.9499 4.893 2.2749 4.9146 3.8998 7.2887 5.5247 9.6946 3.5748 5.0201 10.074 13.192 0.97494 1.1999 0.97494 1.2782 4.2247 5.6721 2.5998 3.1751 2.9248 3.191 0.32498 0.74997 1.6249 1.6846 3.2498 3.1139 0.32498 0.27144 0.32498 0.10483 0.97494 0.86739 0.32498 0.065551 3.2498 2.9737 0.64996 0.3901 1.2999 1.1669 0.32498 0.24886 0.32498 0.61907 0.97494 0.83707 0.32498-0.030652 3.2498 3.0759 0.64996 0.76139 0.64996 0.57816 0.97494 0.92496 1.9499 1.793 1.6249 1.4706 1.6249 1.5765 0.64996 0.4495 1.6249 1.5029 0.64996 0.67709 7.1496 6.7318 0.97494 0.85847 1.6249 1.5118 0.32498 0.35164 0.64996 0.4396 0.32498 0.26428 0.32498 0.64821 0.32498 0.0743 1.2999 1.1581 4.2247 3.0211 0.64996 0.52811 0.32498 0.15934 1.2999 1.0873 1.2999 0.95245 0.97494 0.64207 2.5998 1.7835 0.64996 0.4133 1.9499 1.4225 0.97494 0.63522 0.32498-0.052996 0.64996 0.52268 0.97494 0.59647 4.2247 2.714 0.97494 0.60847 1.6249 0.80175 1.6249 0.95213 0.32498-0.14748 0.64996 0.34866 0.32498-0.030423 0.97494 0.52765 0.32498 0.4172 2.5998 1.1314 0.32498 0.18731 0.32498 0.37692 0.64996 0.18154 0.97494 0.32859 0.64996 0.30636 4.2247 1.3685 2.2749 0.95562 0.64996 0.29841 3.5748 1.679 0.64996 0.40226 1.6249 0.87535 0.32498 0.02777 1.6249 0.83155 1.6249 1.2762 0.64996 0.45786 0.32498-0.35111 0.64996 0.58668 3.8998 2.7159 0.97494 1.2325 0.97494 0.82223 0.64996 0.51594 0.64996 0.47715 0.64996 0.57242 0.97494 0.91827 0.64996 0.35856 1.6249 1.8118 0.32498 0.7366 0.32498 0.098291 0.64996 0.75021 1.2999 1.1263 0.64996 0.69708 0.64996 0.60226 0.32498 0.21134 1.2999 1.3025 0.64996 0.69298 0.64996 0.55641 0.64996 0.61283 1.2999 1.2944 0.32498 0.39555 0.32498 0.05889 0.64996 0.4813 0.64996 0.87923 0.32498 0.15199 0.64996 0.60533 0.32498-0.015423 3.5748 2.9369 0.32498 0.032887 1.9499 1.4538 0.32498 0.68416 0.97494 0.6333 0.32498 0.28917 0.32498-0.07027 0.64996 0.44096 0.32498 0.03546 0.64996 0.75104 0.32498 0.19874 0.32498 0.036228 1.6249 1.2304 0.64996 0.39253 0.32498 0.39591 0.32498 0.094768 0.64996 0.3906 1.6249 0.73294 0.64996-0.38721 0.32498 0.33863 0.64996 0.24341 0.32498 0.25452 0.64996 0.24607 0.64996 0.35667 0.32498 0.099568 0.97494 0.69296 0.64996 0.11144 0.32498 0.14223 0.32498-0.18278 0.32498 0.19296 0.32498 1.1751 0.32498 0.23026 0.32498-0.48015 0.32498 0.20815 0.64996 0.64073 0.32498 0.084696 0.32498 0.66173 0.97494 0.29118 0.97494 0.64276 0.64996 0.29717 0.32498-0.022078 0.97494 0.42131 0.32498 0.033426 1.2999 0.71894 0.32498-0.42823 0.97494 0.27 0.32498 0.36248 0.64996 0.43418 0.32498-0.12611 0.32498-0.6141 0.64996 0.29466 0.32498 0.091045 0.97494 0.61931 0.32498-0.057695 0.32498 0.15016 0.32498 0.62903 0.32498 0.1292 0.32498-0.17609 0.64996 0.22316 0.32498 0.30714 0.32498 0.035572 1.2999 0.85 0.64996 0.2666 0.32498 0.26815 0.32498-0.036658 1.6249 1.4518 0.97494 0.51978 0.64996 0.4098 0.32498 0.038607 0.32498 0.24527 0.32498 0.45526h0.32498l0.64996 0.28849 0.32498 1.6471 0.32498-0.28542 1.2999 0.47669 0.64996 0.41256 0.32498 0.68191 0.32498-0.47423 0.97494 0.3063 1.2999 0.51978 0.32498-1.0061 0.32498 0.3051 1.2999 0.5318 0.32498 0.29655 0.64996 0.099276 1.2999 0.48527 0.32498 0.27343 0.32498 0.49338 1.2999-0.14566 0.64996 0.45306 0.32498 0.99472 0.32498 0.090138 0.32498 0.46855 0.64996 0.35074 1.2999 0.15334 0.64996 0.23096 0.32498-0.015434 0.64996 0.48087 0.32498-0.077901 0.32498 0.2341 1.2999 0.34551 0.64996 0.50724 0.32498 0.095734 0.32498-0.079792 0.64996 0.41644 0.32498-0.11249 1.2999 0.66282 0.32498-0.081345 0.32498 0.24447 1.2999 0.1801 0.32498 0.18081 0.32498 0.58009 0.97494 0.21734 0.32498 0.25206h0.32498l0.32498 0.2365 0.32498 0.084762 0.32498 0.25523 0.97494 0.29098 0.64996 0.55277 0.64996-0.12149 0.64996 0.17365 0.64996 0.24422 0.32498 0.1928h0.32498l0.64996 0.31724 0.32498 0.33726 0.97494 0.42958 0.32498-0.053917 0.32498-2.0549 0.64996 0.27566 0.32498 1.9773 0.64996-0.10811 1.6249 0.6525 0.32498-0.30928 0.32498 0.054428 0.32498 0.41943 1.2999 0.46028 0.32498 0.46494 0.64996 0.14978 0.32498 0.20674h0.32498l0.32498 0.32135 0.32498-0.056872 0.32498 0.28507 0.32498-0.057155 0.97494 0.59406 0.64996 0.32906 0.32498 0.2337 0.32498-0.38885 0.32498 0.019365 0.32498-0.096741 0.64996 0.17428 0.32498-0.019397 0.32498 0.36995 0.64996 0.15666 0.32498 0.019621 1.9499 1.052 0.97494 0.14077 0.32498 0.1412 0.32498 0.44661 0.64996 0.20445 0.32498 0.14366 0.32498-0.57195 0.64996 0.46929 1.6249 0.20554 0.64996 0.47626 0.32498 0.02082 0.32498 0.52357 1.6249 0.6149h0.32498l0.32498 0.19252 0.32498-0.19252 0.64996 0.042712 0.32498-0.064053 0.64996 0.29968 0.64996 0.15057 0.64996 0.10786 0.32498-0.043173 0.64996 0.23795 0.64996 0.43582 0.64996 0.15352 0.64996 0.19814 1.2999 0.24333 0.32498-0.11076 0.32498 0.044273 0.32498-0.1106 1.9499 0.62284 0.64996 0.067235 0.64996 0.38287 0.97494 0.52312 0.32498 0.068674 0.32498 0.20664 0.64996-0.046 0.97494 0.43887 0.64996 0.046442 1.2999 0.46701 0.32498 0.18814 0.32498-0.023559 0.32498 0.094311 0.32498-1.6232 0.32498-0.022778 0.64996 0.15968 0.32498-0.022846 0.64996 0.18309 0.64996-0.022926 1.2999 0.22977 0.32498 2.1213h0.64996l0.32498-0.28856 0.97494 0.38514 0.32498 0.12102 0.32498-0.74525 0.97494 0.095486 0.32498 0.16758 0.32498-0.071894 1.9499 0.57832 0.32498 0.21876h0.32498l1.2999 0.53917 0.32498-0.049277 0.64996 0.27168h0.97494l0.64996 0.17373 1.6249-0.024858 0.64996 0.37429 0.32498-0.050082 0.97494 0.57926 0.97494 0.15232 0.64996 0.15282 0.64996 0.3843 0.32498 0.051483 0.97494 0.57015 1.9499 0.2353 0.32498 0.23651h0.64996l0.32498 0.26422 0.64996-0.10587 1.2999 0.71939 0.32498-0.053676 0.32498 0.13431h0.64996l0.32498 0.2698 0.32498-0.10811 1.9499 0.27075 0.32498 0.054342 0.97494 1.2121 2.2749 0.67483 0.32498 0.22716 0.32498 0.028475 0.64996 0.34307 1.2999 0.08617 0.64996 0.25948 0.32498-0.25948 0.32498 0.11514 0.32498-0.057608 0.32498-0.20106 0.32498 0.20106 0.32498 0.057608 0.32498 0.26014 0.64996 0.14516v0" clip-path="url(#p570cd40389)" fill="none" stroke="#ff7f0e" stroke-linecap="square" stroke-width="1.5"/>
   </g>
   <g id="line2d_30">
    <path d="m73.833 53.568 0.32498 0.11383 0.64996 0.77462 0.64996 1.3359 0.97494 2.6546 4.2247 12.457 1.9499 4.9186 2.2749 5.0495 3.8998 7.5272 5.1997 9.3775 1.9499 3.0733 3.5748 5.0708 7.1495 9.8775 2.9248 3.8319 0.64996 0.85988 4.5497 6.2177 1.9499 2.409 2.9248 3.4518 0.32498 0.76399 1.2999 1.4492 1.6249 1.6381 2.5998 2.4508 6.8246 6.1083 0.32498 0.6469 0.97494 0.85382 0.32498-0.069288 2.2749 2.1133 0.64996 0.65884 0.64996 0.69684 1.6249 1.6799 0.97494 0.90112 0.64996 0.60753 0.32498 0.18709 2.9248 2.8263 0.32498 0.53194 0.64996 0.23312 12.674 12.145 0.97494 0.67008 0.32498 0.63564 0.32498 0.063772 1.2999 1.186 3.5748 2.5221 1.2999 1.0003 0.64996 0.41993 0.64996 0.44572 1.9499 1.4735 1.6249 1.1229 2.2749 1.6703 1.2999 1.113 0.97494 0.64883 0.64996 0.47015 0.32498 0.007215 2.2749 1.7053 1.2999 0.87313 2.5998 1.8969 1.2999 0.77394 2.5998 1.7768 0.32498-0.23478 0.64996 0.44542 0.32498-0.071727 0.97494 0.67099 0.32498 0.54653 2.9248 1.5228 0.32498 0.46322 0.64996 0.29929 0.97494 0.31041 0.64996 0.32174 3.5748 1.2294 0.32498 0.22796 0.64996 0.2291 0.64996 0.37955 0.64996 0.31952 0.64996 0.1801 0.64996 0.21999 1.2999 0.43327 2.2749 1.1927 0.97494 0.68536 0.97494 0.60166 0.32498 0.34587 0.64996 0.13697 0.32498 0.10564 1.2999 1.0321 1.6249 1.6293 0.32498 0.24156 0.32498-0.42609 1.9499 2.2706 0.64996 0.47144 0.64996 0.72838 1.2999 1.4302 0.97494 1.521 1.6249 1.447 0.64996 0.5261 1.2999 1.0843 0.32498 0.51028 0.97494 0.87502 0.97494 1.0436 0.32498 0.40664 0.32498 0.82422 0.32498 0.037142 0.64996 0.76432 1.2999 1.295 0.32498 0.53939 1.6249 1.5432 1.9499 2.1388 0.64996 0.53982 0.64996 0.7035 0.32498 0.30734 0.64996 0.76402 0.32498 0.38682 0.32498 0.18103 0.97494 1.1758 0.32498 0.78827 0.32498 0.21821 0.32498 0.46837 0.32498 0.19255 0.32498-0.048213 0.32498 0.19316 0.32498 0.45714 0.32498 0.21555 0.32498 0.47383 1.2999 0.99296 0.97494 1.1498 0.32498 0.062416 1.6249 1.8479 0.32498 0.16283 0.32498 0.62408 0.97494 0.59914 0.32498 0.30252 0.32498-0.056173 0.97494 0.62171 0.64996 0.63023 0.32498 0.23133 0.32498-0.034774 0.97494 0.96008 0.64996 0.7034 0.97494 0.62899 0.32498-0.073017 0.32498 0.31724 0.32498 0.06126 0.64996 0.62956 0.32498 0.049744 0.64996 0.36226 0.32498 0.33986 0.32498-0.2017 2.5998 1.1334 0.32498 0.10326 0.32498 0.35021 1.2999 0.16958 0.32498 0.2227 0.32498-0.19656 0.32498 0.13094 0.32498 1.0746 0.32498 0.14789 0.32498-0.13446 0.64996 0.32338 0.32498 0.31205 0.64996 0.30048 0.64996 0.34385 0.32498-0.096537 0.32498 0.068934 0.32498 0.24902 1.2999 0.19462 0.32498 0.22344 0.32498-0.055961 0.32498 0.11199 0.32498 0.36586 0.97494 0.52572 0.32498 0.11446 0.32498-0.48452 0.97494 0.14198 0.32498 0.44293 0.64996 0.36034 0.32498-0.1589 0.32498-0.7438 0.64996 0.18483 0.97494 0.35754 0.64996-0.15766 0.32498 0.042944 0.32498 0.44612 0.32498 0.17386 0.32498-0.058026 0.32498 0.15975 0.32498 0.029105 1.2999 0.86699 0.32498-0.029659 0.32498 0.11875 0.32498-0.014861 0.32498 0.19356 0.64996 0.059721 0.32498 0.20964 0.32498 0.5435 3.2498 0.96685 0.32498 0.37374 0.32498 0.046931 0.32498 0.1882 0.32498-0.031421 0.32498 1.7119 0.32498-0.27628 0.64996 0.21112 1.2999 0.67227 0.32498 0.64872 0.32498-0.4335 0.32498 0.23291 0.32498 0.03337 0.32498 0.26783 0.32498 0.016792 0.64996 0.21885 0.32498 0.1352 0.32498-0.87175 0.64996 0.48413 0.32498-0.05032 0.64996 0.3872 0.32498 0.39048 1.2999 0.051178 0.32498 0.41148 0.32498 0.12071 0.32498 0.27711 0.32498 0.50656 0.64996-0.052662 1.2999 0.56486 0.32498 0.66189 0.32498 0.10824 0.32498 0.25355 0.32498 0.40127 0.64996 0.16517 0.32498 0.14732 0.32498-0.11053 0.64996 0.29535 0.32498 0.27862 0.32498-0.13023 0.32498 0.018582 0.32498 0.33577 0.32498-0.074827 2.2749 1.5009 0.32498 0.09666 0.32498-0.038688 0.64996 0.34937 0.32498-0.19442 0.32498 0.27242 0.32498 0.097686 0.32498 0.21564 0.64996 0.078667 0.32498-0.03935 0.32498 0.35537h0.64996l0.64996 0.4381 0.32498 0.66508 0.64996 0.18307 0.32498-0.061103 0.32498 0.30633 0.32498-0.061429 0.32498 0.49375 0.32498 0.22808 0.32498 0.083221 0.32498 0.29246 0.32498 0.062913 0.97494 0.76175 0.97494 0.12819 1.2999 0.77676 0.32498-0.043499 0.32498 0.19607 0.32498 0.021837 0.32498 0.43894 0.64996 0.1989 0.32498 0.37806 0.32498 0.20141 0.32498-1.868 0.64996 0.28082 0.32498 1.8345 0.32498-0.2698 1.2999 0.29235 0.32498 0.20349h0.64996l0.64996 0.22716 1.2999 0.71142 0.32498 0.55843 1.9499 0.5653 0.32498 0.30913 0.32498-0.095337 0.32498 0.26266 0.32498 0.095884 1.2999 0.84762 0.32498-0.46207 0.64996-0.048371 1.2999 0.80469 0.32498 0.12316 0.64996-0.22145 0.97494 0.51839 0.32498 0.074534 0.32498 0.19935 0.32498 0.47695 0.97494 0.050494 0.32498 0.075846 0.32498 0.50886 0.64996 0.20513 0.32498 0.07716 0.32498-0.68983 0.32498 0.10155 0.32498 0.40844 0.64996 0.10268 1.2999 0.5949 0.32498 0.26107 0.32498 0.052392 0.32498 0.58029 0.32498 0.18618 0.32498-0.026644 0.97494 0.32075 0.64996 0.24204 0.32498-0.21521h0.32498l0.32498 0.21521 0.32498-0.080821 0.97494 0.35125 0.32498 0.24476 1.9499 0.43836 0.32498 0.27611 0.32498 0.083158 0.32498 0.25038 0.64996 0.27981 0.64996 0.28152 0.64996 0.084793 0.32498-0.11302 0.32498 0.16964h0.97494l0.32498 0.34117 0.32498 0.057107 0.32498 0.20044 0.97494 0.057428 1.2999 0.75317h0.64996l0.32498 0.14626h0.32498l0.32498-0.14626 0.32498 0.35182 0.64996 0.23605 0.64996 0.17784 0.64996 0.20835 0.97494 0.81259 0.32498-0.24227 0.32498 0.15127 0.32498-1.6079 0.32498 0.029271 0.64996 0.23485 0.32498 0.058899 0.32498 0.20674 0.32498-0.029592 0.32498-0.17715 0.64996 0.14758 0.64996-0.1181 0.32498 0.088547 0.32498 1.8384 0.64996 0.27758 0.32498-0.40041 1.2999 0.52431 0.32498-0.55497 0.32498-0.030636 0.32498 0.12267 0.32498-0.061374 0.32498 0.21517 0.64996-0.24583 0.32498 0.092031 0.32498 0.2772h0.32498l2.5998 1.1892 0.64996 0.12698 0.64996-0.095272 0.64996-0.031713 0.32498 0.28621 0.32498 0.12778h0.32498l0.32498 0.12814 0.32498-0.064112 0.32498-0.2874 0.32498 0.095601 0.64996 0.54553 0.32498-0.064516 0.32498 0.12912 0.64996 0.52015 0.32498 0.032705 0.32498 0.26248 0.32498-0.26248 0.97494 0.2954 0.32498 0.1319 0.32498-0.03301 0.64996 0.29795 0.97494 0.099747 0.32498 0.16673h0.97494l0.32498 0.30164 0.32498-0.26822 0.32498-0.033418 0.32498 0.40263 0.32498-0.10099 0.97494 0.2698 0.32498 0.27139 0.64996 0.10218 1.6249 0.10241 0.32498-0.1365 0.64996 0.34201 0.64996-0.17132 0.64996 0.17132 0.32498 0.31 0.32498-0.034548 0.32498 0.31187 0.97494 0.279 0.32498-0.13971 2.2749 1.1298 0.64996-0.21396 0.64996 0.14253 0.64996 0.21462 0.32498-0.28594 1.2999-0.10677 0.97494 0.21379 0.32498 0.071484v0" clip-path="url(#p570cd40389)" fill="none" stroke="#2ca02c" stroke-linecap="square" stroke-width="1.5"/>
   </g>
   <g id="line2d_31">
    <path d="m73.833 53.568 0.32498 0.11427 0.32498 0.31266 0.64996 1.0956 0.64996 1.5557 1.2999 3.9353 2.5998 8.0502 1.6249 4.4065 2.2749 5.5956 1.2999 2.8661 4.2247 8.273 4.2247 7.613 2.2749 3.8117 11.374 16.068 2.5998 3.393 0.97494 1.2854 2.5998 3.3947 1.2999 1.8271 1.9499 2.5322 3.2498 3.8899 0.32498 0.7356 2.2749 2.5352 1.6249 1.6401 0.97494 1.1069 0.32498 0.31243 0.32498 0.1563 6.8246 6.3741 0.32498 0.61285 0.97494 0.87433 0.32498-0.054497 1.2999 1.2036 1.9499 1.9212 0.64996 0.72709 0.64996 0.6317 0.97494 0.98424 1.2999 1.1844 0.64996 0.53811 2.5998 2.5005 0.32498 0.49431 0.64996 0.26198 4.5497 4.326 0.64996 0.46936 1.2999 1.3642 1.6249 1.5269 0.64996 0.60733 0.64996 0.6362 1.2999 1.3128 0.32498 0.21667 0.64996 0.67798 0.32498 0.19087 0.32498 0.34833 0.32498 0.62088 2.2749 1.4889 0.97494 0.86414 1.6249 1.2082 1.6249 1.0861 0.97494 0.80663 1.9499 1.3551 8.4495 6.2424 0.32498 0.07047 1.9499 1.3981 0.64996 0.50787 7.4745 5.2525 0.32498-0.2077 0.32498 0.31624 0.32498 0.16112 0.32498-0.052318 0.97494 0.64061 0.32498 0.52882 0.32498 0.1567 0.32498 0.031404 2.2749 1.3988 0.32498 0.45096 1.2999 0.6114 0.32498 0.06159 0.32498 0.30442 0.97494 0.33047 1.9499 0.69743 0.64996 0.35272 1.2999 0.60889 0.32498 0.21478 0.64996 0.2007 0.64996 0.33815 0.64996 0.14714 0.64996 0.27013 0.32498 0.020451 1.9499 0.90898 2.5998 2.3323 0.32498 0.19246 0.32498 0.48192 0.97494 0.50953 0.97494 0.93852 2.2749 2.4246 0.32498-0.36803 1.6249 1.7703 0.97494 1.1125 0.97494 1.0548 0.32498 0.48037 0.64996 0.55234 0.64996 0.9743 0.32498 0.50883 0.64996 0.47259 0.97494 0.79623 0.64996 0.55776 2.9248 2.5211 0.97494 0.95989 0.32498 0.93281 0.32498 0.28596 0.32498 0.47254 0.32498-0.13665 0.32498 0.27372 0.32498 0.44625 0.32498 0.23705 1.2999 1.457 0.64996 0.54459 0.97494 0.87277 0.32498 0.28001 0.64996 0.74324 0.64996 0.71919 0.32498 0.26351 0.64996 0.7441 0.64996 0.7187 0.32498 0.94085 0.64996-0.21075 0.97494 1.0244 0.32498 0.79848 0.32498 0.24927 0.32498 0.41175 0.32498 0.18194 0.32498-0.07084 1.6249 1.7941 0.64996 0.31652 0.32498 0.19096 0.97494 1.3484 0.32498 0.087662 0.32498 0.47406 0.32498-0.055375 1.2999 1.2339 0.32498 0.4226 1.2999 0.97408 0.32498 0.42386 0.97494 0.55932 0.64996 0.69973 0.32498 0.23156 0.32498-0.061049 0.64996 0.42905 0.32498 0.14803 0.64996 0.65956 0.32498 0.22617 0.32498 1.2254 0.32498 0.28548 0.32498 0.013018 1.2999 0.60286 0.32498 0.039593 0.32498 0.26483 0.32498-0.013278 0.32498 0.4268 0.32498-0.10707 0.64996 0.21439 0.32498 0.04031 0.32498 0.18858h0.32498l0.32498 0.20291 0.32498-1.0323 0.32498 1.3451 0.32498 0.1367 0.32498 0.30218h0.32498l0.32498 0.1242 0.32498-0.082834 0.32498 0.11048 0.32498 0.24955h0.32498l0.64996 0.29286 0.32498 0.070005 0.32498-0.097977 0.64996 0.29456 0.32498 0.33897 0.64996 0.34148 0.64996 0.47372 0.64996-0.014427 0.64996 0.17342 0.32498 0.043458 0.32498 0.23247h0.32498l0.32498 0.30691 0.32498-0.11716 0.32498 0.13183 0.32498-0.073284 0.32498 0.4119 0.64996 0.29649 0.32498 0.13405 0.32498-0.5486 0.97494 0.22162 0.32498 0.97288 0.32498 0.12117 0.32498 0.24331 0.64996-0.22814h0.32498l0.97494 0.51875 0.32498-0.41242 0.64996-0.16697 0.32498-0.015149 0.64996 0.56387 0.32498-0.85076 2.5998 1.1276 0.32498 0.046301 0.64996 0.29433 0.64996 0.20247 0.32498 1.3945 0.32498 0.16118 0.64996 0.14555 2.2749 1.3144 0.32498 0.40175 0.32498-0.033614 0.32498 0.20205 0.32498 0.033761 0.32498 0.32198 0.32498-0.37261 0.64996 0.21982 0.64996 0.3744 0.32498-0.017085 0.32498 0.2226 0.32498 0.72661 0.32498-0.50293 0.32498 0.25945 0.97494 0.26092 0.97494 0.52632 0.32498-0.035276 0.64996 0.49635 0.32498-0.053437 0.64996 0.35742 0.32498 0.34214 0.32498-0.090285 0.97494 0.14454 0.32498 0.3816 0.64996 0.348 0.32498 0.48052 0.64996 0.074374 0.64996 0.43 0.32498 0.018787 0.32498 0.22605 0.32498-0.094321 0.64996 0.2267 0.32498 0.34215 0.64996 0.15289 0.32498 0.1534 0.32498-0.1151 0.64996 0.4041 0.32498 0.32975 0.32498-0.11665 0.32498 0.019422 0.32498 0.37058 0.32498-0.058712 0.32498 0.314 0.32498 0.1183 0.64996 0.65616 0.32498-0.020022 0.97494 0.72634 0.32498-0.081273 0.32498 0.060941 0.32498 0.28546 0.32498-0.081742 0.32498 0.32784 0.97494 0.39237 0.64996-0.14495 0.32498 0.29035 0.97494 0.20852 0.32498 0.25148 0.32498 0.6561 0.32498 0.23508 0.32498 0.085781 0.32498-0.064351 0.32498 0.27951 0.32498-0.021561 0.32498 0.54208 0.32498 0.21863 0.32498 0.065793 0.32498 0.3525 0.32498 0.044252 0.32498 0.37787 2.2749 1.0383 0.32498 0.41277 1.2999 0.39327 0.32498 0.34981 0.64996 0.2347 0.32498 0.3543 0.32498 0.16628 0.32498-1.9796 0.64996 0.41215 0.32498 2.0458 0.32498-0.26375h0.32498l0.32498 0.21568 0.32498-0.16784 0.64996 0.457 0.32498-0.096588 0.32498 0.096588 0.32498-0.048319 0.97494 0.41234 0.32498 0.29331 0.32498 0.07362 0.32498 0.56837 0.32498 0.19935 0.97494 0.12504 0.32498 0.20076 0.32498 0.050329 0.32498 0.45545 0.32498-0.025422 0.97494 0.43409 0.97494 0.75009 0.32498-0.54439 0.32498-0.051512 0.64996 0.30994 1.2999 0.83687 0.64996-0.21065 0.64996 0.52844 0.97494 0.37355 0.32498 0.48478 1.2999 0.16274 0.32498 0.51916 0.32498 0.19276 0.64996 0.11051 0.32498-0.79526 0.32498 0.081633 0.32498 0.41035 0.32498-0.027471 1.6249 0.66388 0.32498 0.27947 0.32498 0.02804 0.32498 0.73512 0.32498 0.14272 0.32498-0.085688 0.64996 0.28625 0.97494 0.23029 0.32498-0.14407h0.32498l0.32498 0.23072 0.64996 0.028922 0.97494 0.52373 1.9499 0.61865 0.32498 0.32741 0.32498 0.089698 1.6249 0.9984 0.32498 0.091848 0.64996-0.15298 0.64996 0.18364 0.32498-0.091909 0.32498 0.091909 0.32498 0.24599 0.32498 0.030842 0.32498 0.18548 0.32498 0.030987 0.32498 0.15525h0.32498l1.2999 0.87921 1.2999 0.22245 0.32498-0.19074 0.32498 0.47834 0.32498 0.19274 1.6249 0.25825 0.97494 0.88245 0.32498-0.26324 0.32498 0.32928 0.32498-1.7826 1.9499 0.47934 0.32498-0.22431 0.32498 0.16011 1.2999 0.19287 0.32498 1.8067 0.32498 0.033516 0.32498 0.20161 0.32498-0.43571 0.64996 0.33479 0.32498 0.23581 0.32498-0.067499 0.32498-0.63634 0.64996 0.033273h0.32498l0.32498 0.30055 0.32498 0.033516 0.32498-0.33406 0.32498 0.099965 0.32498 0.2341 0.32498-0.10047 0.32498 0.066958 0.64996 0.40381 0.64996 0.16931 0.32498 0.30633 0.32498 0.068351 0.32498 0.20566 0.64996 0.06876 0.32498-0.13742 0.64996 0.034316 0.32498-0.13711 0.97494 0.55091 0.64996 0.06933 0.32498-0.2422 0.32498-0.034496 0.64996 0.52017 0.64996 0.069804 0.32498 0.45632 0.32498 0.14132h0.32498l0.32498 0.39089 0.32498-0.28461 0.32498 0.070988 0.32498-0.10644 0.32498 0.24875 0.64996 0.035645 0.32498 0.035673 0.32498 0.17878 0.64996-0.035812 0.97494 0.32332 0.32498-0.1799 1.2999 0.10786 0.32498 0.39765 0.32498-0.145 1.9499 0.32689 0.32498-0.072842 0.32498 0.1458 1.2999-0.18218 0.64996 0.40175 0.32498-0.073307 0.64996 0.14673 0.32498 0.22098 0.32498 0.37067 0.32498-0.14863 0.32498 0.26042 0.97494 0.2619 0.32498-0.14984 0.32498 0.33782 0.97494 0.34032 0.32498 0.037969 0.32498 0.15219h0.32498l0.64996-0.37954 0.32498-0.15094 0.97494 0.30239 0.32498-0.2647 0.97494-0.22568 1.2999 0.49037 0.32498-0.11363v0" clip-path="url(#p570cd40389)" fill="none" stroke="#d62728" stroke-linecap="square" stroke-width="1.5"/>
   </g>
   <g id="line2d_32">
    <path d="m73.833 53.568 0.32498 0.11427 0.32498 0.31266 0.64996 1.0979 0.64996 1.5607 1.2999 3.9549 2.5998 8.0931 1.6249 4.4309 1.9499 4.834 1.6249 3.6822 3.8998 7.7334 6.8246 12.05 11.374 16.133 3.5748 4.701 2.9248 3.9627 2.5998 3.4641 1.2999 1.5562 0.64996 0.91 0.97494 1.1882 0.64996 0.77715 0.32498 0.71353 1.9499 2.2418 3.2498 3.4635 0.32498 0.15553 2.9248 2.8515 1.6249 1.6464 0.97494 0.8213 1.2999 1.261 0.32498 0.60707 0.97494 0.89898 0.32498-0.058979 1.2999 1.2708 3.5748 3.6771 1.2999 1.2504 3.8998 3.6716 0.32498 0.58159h0.32498l0.32498 0.15474 1.6249 1.5564 0.64996 0.64127 4.5497 4.3561 0.32498 0.24231 0.97494 1.0106 1.9499 1.9202 2.2749 2.1506 0.32498 0.70631 2.2749 1.4756 0.64996 0.67469 1.6249 1.2746 1.2999 0.87396 0.32498 0.14834 1.6249 1.3375 0.32498 0.17282 0.32498 0.32785 0.32498 0.1351 2.9248 2.3908 1.9499 1.4943 0.64996 0.51636 0.64996 0.44882 0.97494 0.81759 1.6249 1.2447 2.5998 1.7709 0.64996 0.58963 1.2999 0.88857 4.2247 3.1334 1.9499 1.4183 0.32498-0.12705 0.32498 0.33653 0.32498 0.16461 0.32498-0.054937 0.97494 0.67754 0.32498 0.49953 0.32498 0.20228 0.32498 0.014146 2.2749 1.3787 0.32498 0.42964 2.9248 1.3893 0.97494 0.31961 0.64996 0.3834 0.32498 0.051363 1.2999 0.71994 0.64996 0.267 0.64996 0.35314 0.32498 0.10064 0.64996 0.38338 0.97494 0.32194 1.6249 0.53618 0.97494 0.52597 1.6249 2.0335 1.9499 1.9891 0.64996 0.41077 0.97494 0.83272 0.32498 0.2851 0.97494 1.2669 0.97494 0.96221 0.32498-0.37047 0.64996 0.57322 3.8998 4.1685 0.32498 0.5414 0.32498 0.29137 0.32498 0.45531 0.64996 0.4226 1.6249 1.4143 0.32498 0.13846 1.6249 1.2653 0.32498 0.11894 0.64996 0.79278 0.97494 0.8725 0.32498 0.91455 0.64996 0.98454 0.32498-0.19689 0.97494 1.1592 1.6249 1.8501 0.32498 0.20108 0.64996 0.62712 0.64996 0.50417 0.32498 0.45284 0.32498 0.20905 0.64996 0.77798 1.2999 1.2967 0.32498 0.52103 0.32498 1.3082 0.64996-0.46418 0.64996 0.56798 0.32498 0.46998 0.32498 0.8155 0.32498 0.18201 0.64996 0.87725 0.32498 0.032814 1.6249 1.819 0.97494 0.52664 1.2999 2.0966 0.32498 0.75332 0.32498-0.86166 0.32498 0.43488 0.32498 0.19461 0.32498 0.5148 0.97494 0.75809 0.32498 0.18835 0.64996 0.62069 0.32498 0.73273 0.97494 0.69194 0.32498 0.60911 0.64996 0.5363 0.32498-0.18842 0.97494 0.2154 0.64996 0.78937 0.32498 0.26156 0.32498 1.4017 0.32498 0.3572 0.32498-0.18609 0.32498 0.18609 0.32498-0.014342 0.32498 0.33099 0.64996 0.043349 0.97494 0.80205 0.64996 0.044153 1.6249 0.80209 0.32498-1.5035 0.32498 1.6235 1.2999 0.54403 0.32498-0.21233 0.64996 0.25796 0.32498 0.32067 0.32498 0.092031 0.32498-0.22973 0.32498-0.015275 0.32498 0.13766 0.32498-0.1071 0.97494 0.52256 0.32498 0.015459 0.64996 0.48185 1.6249-0.03124 0.32498 0.4393 0.32498 0.03154 0.32498 0.39608 0.32498-0.063602 0.32498 0.11136 0.32498-0.12725 0.32498 0.6559 0.64996 0.32338 0.32498 0.12999 0.32498-0.72646 0.97494 0.016019 0.32498 1.6474 0.32498 0.016609 0.32498 0.33346 0.64996-0.23367 0.32498 0.016652 0.32498 0.284 0.32498-0.066983 0.32498 0.18444 0.32498-0.89841 0.64996-0.21369 0.32498-0.032787 0.32498 0.11486 0.32498 0.32975 0.32498-0.94984 0.64996-0.016206 0.32498 0.24369 0.32498 0.03259 1.2999 0.67323 0.32498 0.033093 1.2999 0.5998 0.32498 2.4452 0.97494 0.15945 0.32498 0.37421 0.32498 0.17927 0.32498-0.053854 0.32498 0.34214 0.32498 0.054257 0.32498 0.5095 0.32498-0.67208 0.32498 0.3439 0.97494 0.1638 0.32498-0.054665 0.32498-0.29045 1.2999 0.60108 0.32498-0.14644 0.32498 0.29335 0.32498 0.79777 0.32498-0.44697 0.32498 0.33482 0.64996 0.093439 0.32498 0.074889 0.32498 0.26307 0.32498 0.018849 1.2999 0.77952 0.32498-0.076636 0.64996 0.19183 0.32498 0.32796 0.32498-0.0967 0.64996 0.13544 0.32498-0.038737 1.2999 0.95858 0.64996 0.039553 0.32498 0.25793 0.32498 0.45991 0.32498-0.14046 0.32498 0.30151 0.32498-0.36158h0.32498l1.2999 0.72602 0.32498 0.061022 0.32498-0.10166 1.2999 0.7783 0.32498 0.02066 0.32498 0.37348 0.32498-0.1456 2.2749 1.4343 0.32498 0.085781 0.32498-0.1072 0.32498 0.085742 0.32498 0.3662 0.32498-0.064835 0.32498 0.36861 1.2999 0.26199 0.32498-0.087495 0.32498 0.30696 1.2999 0.37552 0.32498 0.64774 0.32498 0.2481 0.32498 0.067897 0.32498-0.067897 0.32498 0.22671 0.32498-0.1135 0.32498 0.63922 0.32498 0.29983 0.32498 0.11584 0.32498 0.4663 0.32498 0.070355 0.64996 0.51925 1.2999 0.57322 0.32498 0.28931 0.32498 0.12108 0.32498 0.36518 0.97494 0.12237 0.32498 0.14728 0.32498 0.32073 0.64996 0.32298 0.64996 0.55181 0.32498-1.7333 0.32498 0.29253h0.32498l0.32498 1.7699 0.32498-0.30397 0.32498 0.025254 0.32498 0.30414 0.32498-0.30414 0.64996 0.48248 0.32498-0.076518 0.32498 0.17874 0.64996 0.15376 1.2999 0.64626 0.32498 0.54997 0.64996 0.50332 0.32498 0.026644 0.32498 0.18694 0.32498 0.3492h0.32498l0.32498 0.40625h0.64996l0.64996 0.43732 0.32498 0.16507 0.64996 0.69425 0.32498-0.55624 0.32498 0.13843 0.32498-0.083108 0.97494 0.6972 0.97494 0.2536 0.32498-0.16922 0.64996 0.56651 0.32498 0.19994 0.32498 0.057286 0.32498 0.20106 0.32498 0.49199 1.2999 0.029105 0.32498 0.67455 0.32498 0.11833h0.64996l0.32498-0.90918 0.32498-0.058045 0.32498 0.46642 0.64996-0.029291 1.2999 0.67844 0.32498 0.32804 0.32498 0.029938 0.32498 0.63325 0.32498 0.09118 0.32498-0.060806 0.64996 0.36605 0.97494 0.30728 0.32498-0.092401 0.32498 0.03078 0.32498 0.18511 0.64996-0.030904 0.64996 0.24781 0.32498 0.34294 0.97494 0.4718 0.64996 0.063274 0.32498 0.19035 0.32498 0.35103 0.32498 0.064112 0.32498 0.19287h0.32498l0.97494 0.91093 0.32498 0.19757 0.64996-0.26324 0.32498 0.23025 0.64996 0.032987 0.32498 0.03301 0.32498 0.26494 0.64996 0.13304 0.32498-0.09982 0.32498 0.19986 0.32498 0.066812 1.6249 1.1509 0.97494 0.03429 0.32498-0.20536 0.64996 0.7228 0.64996-0.034678 0.97494 0.069382 0.64996 0.87622 0.32498 0.31957 0.32498-0.28417 0.32498 0.31982 0.32498-1.7836 0.64996 0.30977 0.32498-0.10349 0.32498 0.27649 0.64996 0.034678 0.32498-0.27669 0.32498 0.24202h0.32498l0.32498-0.173h0.64996l0.32498 1.6883 0.32498 0.03584 0.32498 0.17962 0.32498-0.39424 0.97494 0.61071 0.32498 0.072384 0.32498-0.6831 0.32498-0.035673 0.64996 0.1071 0.32498 0.35882 0.32498-0.10794 0.32498-0.46483 0.32498 0.03559 0.32498 0.17836 0.64996-0.035728 0.64996 0.61119 2.2749 0.76638 0.64996-0.036785h0.32498l0.32498-0.18349 0.64996 0.73838 0.32498 0.18646 0.64996-0.037353 0.32498-0.40889 0.32498 0.074074 0.64996 0.52189 0.64996 0.075042 0.32498 0.45284 0.32498 0.19001 0.32498 0.038095 0.32498 0.42115 0.32498-0.19191 0.32498 0.076667 0.32498-0.076667 0.64996 0.15346 0.64996-0.11514 0.64996 0.11514h0.64996l0.32498 0.34717 0.32498 0.038737 0.32498-0.30899 0.32498 0.077053 0.32498 0.1932 0.64996-0.11602 0.32498 0.50486 0.32498-0.117 0.32498 0.2343 1.2999 0.2355 0.32498-0.31373h0.32498l0.32498 0.1174 0.64996-0.2345 0.32498-0.038967 0.32498-0.23311 0.64996 0.38918h0.64996l0.32498 0.1174 0.64996 0.51221 0.32498-0.15821 1.2999 0.6762 0.32498-0.16 0.64996 0.56246 0.32498 0.24317h0.64996l0.64996 0.16283 0.32498-0.32509 0.97494-0.040475 0.64996 0.3248 0.32498-0.28433 0.97494-0.24232 0.32498 0.1614h0.32498l0.64996 0.20256 0.32498-0.16212v0" clip-path="url(#p570cd40389)" fill="none" stroke="#9467bd" stroke-linecap="square" stroke-width="1.5"/>
   </g>
   <g id="line2d_33">
    <path d="m73.833 53.568 0.32498 0.11427 0.32498 0.31266 0.64996 1.0979 0.64996 1.5626 1.2999 3.9576 2.5998 8.1028 1.6249 4.4381 1.9499 4.8375 1.6249 3.6895 4.2247 8.3358 2.5998 4.7573 4.5497 7.6833 11.374 16.066 2.2749 2.9508 2.2749 3.1202 3.5748 4.8194 1.9499 2.3404 0.97494 1.3526 0.97494 1.1284 0.32498 0.71525 1.9499 2.2676 3.2498 3.4801 0.32498 0.15605 2.9248 2.8878 1.9499 1.8861 0.64996 0.57896 1.2999 1.2679 0.32498 0.60967 0.97494 0.90987 0.32498-0.048798 1.9499 1.9207 4.2247 4.3211 3.8998 3.6935 0.32498 0.60931 0.32498-0.004381 0.32498 0.16238 1.6249 1.5718 0.64996 0.65747 2.5998 2.4474 0.64996 0.62966 0.64996 0.70098 1.2999 1.2157 0.97494 0.99047 0.97494 0.87011 1.2999 1.403 0.32498 0.22973 0.64996 0.69334 0.32498 0.20044 0.32498 0.34932 0.32498 0.71538 2.2749 1.471 0.64996 0.67155 7.1496 5.4082 0.64996 0.57336 0.64996 0.46528 1.6249 1.1413 1.2999 1.13 0.64996 0.4421 1.9499 1.7391 0.32498 0.073105 0.64996 0.4372 0.32498 0.073921 8.7744 6.5324 0.64996 0.45099 0.64996 0.47376 0.32498-0.10976 0.64996 0.50987 0.32498-0.087677 0.97494 0.65935 0.32498 0.50315 0.32498 0.22276 0.32498 0.009503 2.2749 1.4139 0.32498 0.45801 2.9248 1.4123 0.97494 0.33809 0.64996 0.37168 0.32498 0.031109 2.5998 1.3901 0.64996 0.32725 0.64996 0.24292 1.6249 0.5335 1.6249 0.79532 0.64996 0.88876 0.64996 0.73281 0.64996 0.80337 0.97494 0.9074 0.32498 0.55437 0.97494 0.62869 0.97494 0.93121 0.64996 0.70781 0.64996 0.8614 0.97494 0.94403 0.32498-0.38257 1.6249 1.5565 0.97494 1.1141 0.64996 0.50396 1.6249 2.0877 0.32498 0.22148 0.32498 0.48355 0.64996 0.42071 1.6249 1.5348 0.64996 0.40757 1.6249 1.0511 0.64996 0.79621 0.97494 0.92716 0.32498 0.9121 0.64996 1.0264 0.32498-0.13934 0.32498 0.33163 0.64996 0.86646 2.5998 2.6073 0.64996 0.48427 0.32498 0.45084 0.32498 0.1932 0.97494 1.0476 1.2999 1.5919 0.32498 1.6065 0.32498 0.13822 0.32498-0.84406 0.64996 0.68462 0.32498 0.48001 0.32498 0.77858 0.32498 0.13106 0.64996 0.86108 0.32498 0.055751 1.6249 1.8439 0.97494 0.60789 0.64996 0.91516 0.32498 1.4883h0.32498l0.32498 0.76263 0.32498-1.1823 0.32498 0.4941 0.32498 0.14927 0.32498 0.5389 1.9499 1.4991 0.32498 0.72195 0.97494 0.63946 0.32498 0.5805 0.64996 0.61544 0.32498-0.19236 0.97494 0.26125 0.64996 0.79277 0.32498 0.28143 0.32498 1.3608 0.32498 0.37957 0.32498-0.24853 0.32498 0.21922 0.32498-0.014647 0.32498 0.36759 0.64996 0.073872 0.97494 0.79043 0.64996 0.090344 0.64996 0.24179 0.32498 0.33455 0.32498 0.061089 0.32498 0.1991 0.32498-1.3908 0.32498 1.4216 0.32498 0.092246 0.32498-0.030769 0.32498 0.30862 0.32498 0.046473 0.32498-0.20104 0.64996 0.23205 0.32498 0.34247 0.32498 0.093846 0.32498-0.21868 0.97494-0.046725 1.9499 1.1187 1.6249-0.015947 0.32498 0.41644 0.32498 0.032191 0.32498 0.45305 0.32498-0.032509 0.32498 0.13017 0.32498-0.081402 0.32498 0.65529 0.64996 0.3478 0.32498 0.099856 0.32498-0.66165 0.97494-0.098431 0.32498 1.7537 0.32498 0.051102 0.32498 0.34214 0.32498-0.20559h0.64996l0.32498 0.22276 0.32498-0.17145 0.32498 0.18863 0.32498-1.0532 0.64996-0.21781 0.32498-0.050118 0.32498 0.083561 0.32498 0.31892 0.32498-0.86764h0.64996l0.32498 0.28186 0.32498 0.033273 1.2999 0.75508 0.64996 0.10162 0.97494 0.34037 0.32498 2.6002 0.97494 0.090463 0.64996 0.4733 0.32498-0.018294 0.97494 0.86778 0.32498-0.68451 0.32498 0.33174 0.97494 0.22249 0.32498-0.055724 0.32498-0.3145 1.2999 0.64986 0.32498-0.093401 0.32498 0.14953 0.32498 0.83124 0.32498-0.45526 0.32498 0.37907 0.32498-0.019028 1.6249 0.57429 0.97494 0.71831 0.32498-0.097727 0.64996 0.15646 0.32498 0.2751 0.32498-0.098438 0.64996 0.1576 0.32498-0.01973 1.2999 0.95671 0.97494 0.28283 0.32498 0.44799 0.32498-0.16341 0.32498 0.30687 0.32498-0.49002h0.32498l0.97494 0.75764 0.97494 0.061981 1.2999 0.8977 0.32498 0.10553 0.32498 0.36062 0.32498-0.14883 0.97494 0.55526 0.32498 0.34506 0.32498 0.021652 0.97494 0.50084 0.32498-0.087495 0.32498 0.065605 0.32498 0.43978 0.32498-0.13238 0.32498 0.37606 0.64996 0.15574 0.64996 0.11157 0.32498-0.066974 0.32498 0.29093 0.97494 0.24762 0.32498 0.24896 0.32498 0.6859 0.32498 0.23093 0.64996-0.069399 0.32498 0.23174 0.32498-0.092836 0.32498 0.63031 0.32498 0.33026 0.32498 0.047374 0.32498 0.57233 0.32498 0.048017 0.32498 0.31334 0.97494 0.43741 1.2999 0.68879 0.32498 0.32333 0.64996-0.12463 0.64996 0.29968 0.32498 0.35211 0.64996 0.30397 0.64996 0.51112 0.32498-1.814 0.32498 0.39698 0.32498 0.024926 0.32498 1.8571 0.32498-0.31046 0.32498 0.051599 0.32498 0.31081 0.32498-0.38819 0.97494 0.51832 0.32498 0.15664 0.32498 0.026159 0.64996 0.20981 0.32498 0.026293 0.32498 0.3167 0.32498 0.10605 0.32498 0.56082 0.64996 0.48621 0.32498 0.027163 0.32498 0.16332 0.32498 0.32838 0.32498 0.027471 0.32498 0.44178h0.64996l0.32498 0.33414 0.64996 0.33659 0.64996 0.70924 0.32498-0.6247 0.32498 0.14124 0.32498-0.14124 0.64996 0.42501 0.32498 0.25691 0.97494 0.28714 0.32498-0.1438 0.64996 0.54883 0.32498 0.20386 0.32498 0.058413 0.32498 0.20503 0.32498 0.50177 1.2999 0.059394 0.32498 0.62831 0.32498 0.15087h0.64996l0.32498-0.74945 0.32498-0.11879 0.32498 0.56699h0.97494l1.6249 0.78738 0.32498 0.70795 0.97494 0.18649 0.64996 0.24983 0.97494 0.094039 0.32498 0.031388 0.32498 0.18878h0.97494l0.32498 0.15791 0.64996 0.57302 0.32498 0.064112 0.32498 0.28961 0.64996 0.064607 0.32498 0.16192 0.32498 0.35824 0.97494 0.2623 0.97494 0.89646 0.32498 0.20161 0.64996-0.26862 0.64996 0.33602h0.64996l0.32498 0.27059 0.97494-0.033911 0.32498 0.20384 0.32498 0.068148 1.6249 1.2443h0.32498l0.32498 0.14035 0.64996-0.31519 0.64996 0.77432 0.64996-0.03548 0.64996 0.070988 0.32498-0.10644 0.64996 0.85851 0.32498 0.3989 0.32498-0.21801 0.32498 0.21801 0.32498-1.856 0.64996 0.2807h0.32498l0.32498 0.28243 0.64996 0.070879 0.32498-0.2476 0.32498 0.21215 1.2999-0.1062 0.32498 1.766 0.32498 0.073542 0.32498 0.25833 0.32498-0.40529 0.64996 0.40529 0.32498 0.22258 0.32498 0.074434 0.32498-0.73898 0.32498-0.036639 0.32498 0.11 0.32498-0.11 0.32498 0.36771 0.32498-0.073778 0.32498-0.51316 1.2999 0.21922 0.97494 0.73838 0.32498-0.037202 1.2999 0.59887 0.32498-0.037658 0.32498-0.15033 0.64996 0.037536 0.32498-0.18738 0.64996 0.75412 0.32498 0.19048 0.64996-0.038159 0.32498-0.30414 0.32498 0.075846 0.64996 0.53445 0.64996 0.11534 0.32498 0.50316 0.32498 0.27323 0.32498 0.039166 0.32498 0.47261 0.32498-0.27628 0.32498 0.1182 0.32498-0.039435 0.32498 0.1184 0.64996-0.039502 0.32498-0.2363 0.97494 0.2363 0.32498 0.039502 0.32498 0.31724 0.32498 0.03981 0.32498-0.31752 0.64996 0.15848 0.32498-0.11892h0.32498l0.32498 0.59767 0.32498-0.20009 0.32498 0.20009 0.97494 0.20096 0.32498 0.121 0.32498-0.36205 0.64996 0.08021 0.64996-0.20026h0.32498l0.32498-0.15958 0.64996 0.4h0.64996l0.97494 0.60661 0.32498-0.16254 1.2999 0.69482 0.32498-0.12338 0.32498 0.57863 0.64996 0.41781h0.64996l0.64996 0.16819 0.32498-0.33577 0.97494-0.0418 0.64996 0.33546 0.32498-0.29366 0.64996-0.0418 0.32498-0.12517 0.32498 0.16697h0.32498l0.32498 0.16758 0.64996-0.25114v0" clip-path="url(#p570cd40389)" fill="none" stroke="#8c564b" stroke-linecap="square" stroke-width="1.5"/>
   </g>
   <g id="patch_3">
    <path d="m57.6 307.58v-266.11" fill="none" stroke="#000" stroke-linecap="square" stroke-width=".8"/>
   </g>
   <g id="patch_4">
    <path d="m414.72 307.58v-266.11" fill="none" stroke="#000" stroke-linecap="square" stroke-width=".8"/>
   </g>
   <g id="patch_5">
    <path d="m57.6 307.58h357.12" fill="none" stroke="#000" stroke-linecap="square" stroke-width=".8"/>
   </g>
   <g id="patch_6">
    <path d="m57.6 41.472h357.12" fill="none" stroke="#000" stroke-linecap="square" stroke-width=".8"/>
   </g>
   <g id="text_12">
    <!-- Effectiveness of space-filling curve filter by radius -->
    <g transform="translate(86.087 35.472) scale(.12 -.12)">
     <defs>
      <path id="DejaVuSans-45" transform="scale(.015625)" d="m628 4666h2950v-532h-2319v-1381h2222v-531h-2222v-1691h2375v-531h-3006v4666z"/>
      <path id="DejaVuSans-76" transform="scale(.015625)" d="m191 3500h609l1094-2937 1094 2937h609l-1313-3500h-781l-1312 3500z"/>
      <path id="DejaVuSans-2d" transform="scale(.015625)" d="m313 2009h1684v-512h-1684v512z"/>
      <path id="DejaVuSans-79" transform="scale(.015625)" d="m2059-325q-243-625-475-815-231-191-618-191h-460v481h338q237 0 368 113 132 112 291 531l103 262-1415 3444h609l1094-2737 1094 2737h609l-1538-3825z"/>
     </defs>
     <use xlink:href="#DejaVuSans-45"/>
     <use x="63.183594" xlink:href="#DejaVuSans-66"/>
     <use x="98.388672" xlink:href="#DejaVuSans-66"/>
     <use x="133.59375" xlink:href="#DejaVuSans-65"/>
     <use x="195.117188" xlink:href="#DejaVuSans-63"/>
     <use x="250.097656" xlink:href="#DejaVuSans-74"/>
     <use x="289.306641" xlink:href="#DejaVuSans-69"/>
     <use x="317.089844" xlink:href="#DejaVuSans-76"/>
     <use x="376.269531" xlink:href="#DejaVuSans-65"/>
     <use x="437.792969" xlink:href="#DejaVuSans-6e"/>
     <use x="501.171875" xlink:href="#DejaVuSans-65"/>
     <use x="562.695312" xlink:href="#DejaVuSans-73"/>
     <use x="614.794922" xlink:href="#DejaVuSans-73"/>
     <use x="666.894531" xlink:href="#DejaVuSans-20"/>
     <use x="698.681641" xlink:href="#DejaVuSans-6f"/>
     <use x="759.863281" xlink:href="#DejaVuSans-66"/>
     <use x="795.068359" xlink:href="#DejaVuSans-20"/>
     <use x="826.855469" xlink:href="#DejaVuSans-73"/>
     <use x="878.955078" xlink:href="#DejaVuSans-70"/>
     <use x="942.431641" xlink:href="#DejaVuSans-61"/>
     <use x="1003.710938" xlink:href="#DejaVuSans-63"/>
     <use x="1058.691406" xlink:href="#DejaVuSans-65"/>
     <use x="1120.214844" xlink:href="#DejaVuSans-2d"/>
     <use x="1156.298828" xlink:href="#DejaVuSans-66"/>
     <use x="1191.503906" xlink:href="#DejaVuSans-69"/>
     <use x="1219.287109" xlink:href="#DejaVuSans-6c"/>
     <use x="1247.070312" xlink:href="#DejaVuSans-6c"/>
     <use x="1274.853516" xlink:href="#DejaVuSans-69"/>
     <use x="1302.636719" xlink:href="#DejaVuSans-6e"/>
     <use x="1366.015625" xlink:href="#DejaVuSans-67"/>
     <use x="1429.492188" xlink:href="#DejaVuSans-20"/>
     <use x="1461.279297" xlink:href="#DejaVuSans-63"/>
     <use x="1516.259766" xlink:href="#DejaVuSans-75"/>
     <use x="1579.638672" xlink:href="#DejaVuSans-72"/>
     <use x="1620.751953" xlink:href="#DejaVuSans-76"/>
     <use x="1679.931641" xlink:href="#DejaVuSans-65"/>
     <use x="1741.455078" xlink:href="#DejaVuSans-20"/>
     <use x="1773.242188" xlink:href="#DejaVuSans-66"/>
     <use x="1808.447266" xlink:href="#DejaVuSans-69"/>
     <use x="1836.230469" xlink:href="#DejaVuSans-6c"/>
     <use x="1864.013672" xlink:href="#DejaVuSans-74"/>
     <use x="1903.222656" xlink:href="#DejaVuSans-65"/>
     <use x="1964.746094" xlink:href="#DejaVuSans-72"/>
     <use x="2005.859375" xlink:href="#DejaVuSans-20"/>
     <use x="2037.646484" xlink:href="#DejaVuSans-62"/>
     <use x="2101.123047" xlink:href="#DejaVuSans-79"/>
     <use x="2160.302734" xlink:href="#DejaVuSans-20"/>
     <use x="2192.089844" xlink:href="#DejaVuSans-72"/>
     <use x="2233.203125" xlink:href="#DejaVuSans-61"/>
     <use x="2294.482422" xlink:href="#DejaVuSans-64"/>
     <use x="2357.958984" xlink:href="#DejaVuSans-69"/>
     <use x="2385.742188" xlink:href="#DejaVuSans-75"/>
     <use x="2449.121094" xlink:href="#DejaVuSans-73"/>
    </g>
   </g>
   <g id="legend_1">
    <g id="patch_7">
     <path d="m299.25 137.54h108.47q2 0 2-2v-87.069q0-2-2-2h-108.47q-2 0-2 2v87.069q0 2 2 2z" fill="#fff" opacity=".8" stroke="#ccc"/>
    </g>
    <g id="line2d_34">
     <path d="m301.25 54.57h10 10" fill="none" stroke="#1f77b4" stroke-linecap="square" stroke-width="1.5"/>
    </g>
    <g id="text_13">
     <!-- 1 permutations -->
     <g transform="translate(329.25 58.07) scale(.1 -.1)">
      <use xlink:href="#DejaVuSans-31"/>
      <use x="63.623047" xlink:href="#DejaVuSans-20"/>
      <use x="95.410156" xlink:href="#DejaVuSans-70"/>
      <use x="158.886719" xlink:href="#DejaVuSans-65"/>
      <use x="220.410156" xlink:href="#DejaVuSans-72"/>
      <use x="259.773438" xlink:href="#DejaVuSans-6d"/>
      <use x="357.185547" xlink:href="#DejaVuSans-75"/>
      <use x="420.564453" xlink:href="#DejaVuSans-74"/>
      <use x="459.773438" xlink:href="#DejaVuSans-61"/>
      <use x="521.052734" xlink:href="#DejaVuSans-74"/>
      <use x="560.261719" xlink:href="#DejaVuSans-69"/>
      <use x="588.044922" xlink:href="#DejaVuSans-6f"/>
      <use x="649.226562" xlink:href="#DejaVuSans-6e"/>
      <use x="712.605469" xlink:href="#DejaVuSans-73"/>
     </g>
    </g>
    <g id="line2d_35">
     <path d="m301.25 69.249h10 10" fill="none" stroke="#ff7f0e" stroke-linecap="square" stroke-width="1.5"/>
    </g>
    <g id="text_14">
     <!-- 2 permutations -->
     <g transform="translate(329.25 72.749) scale(.1 -.1)">
      <use xlink:href="#DejaVuSans-32"/>
      <use x="63.623047" xlink:href="#DejaVuSans-20"/>
      <use x="95.410156" xlink:href="#DejaVuSans-70"/>
      <use x="158.886719" xlink:href="#DejaVuSans-65"/>
      <use x="220.410156" xlink:href="#DejaVuSans-72"/>
      <use x="259.773438" xlink:href="#DejaVuSans-6d"/>
      <use x="357.185547" xlink:href="#DejaVuSans-75"/>
      <use x="420.564453" xlink:href="#DejaVuSans-74"/>
      <use x="459.773438" xlink:href="#DejaVuSans-61"/>
      <use x="521.052734" xlink:href="#DejaVuSans-74"/>
      <use x="560.261719" xlink:href="#DejaVuSans-69"/>
      <use x="588.044922" xlink:href="#DejaVuSans-6f"/>
      <use x="649.226562" xlink:href="#DejaVuSans-6e"/>
      <use x="712.605469" xlink:href="#DejaVuSans-73"/>
     </g>
    </g>
    <g id="line2d_36">
     <path d="m301.25 83.927h10 10" fill="none" stroke="#2ca02c" stroke-linecap="square" stroke-width="1.5"/>
    </g>
    <g id="text_15">
     <!-- 3 permutations -->
     <g transform="translate(329.25 87.427) scale(.1 -.1)">
      <use xlink:href="#DejaVuSans-33"/>
      <use x="63.623047" xlink:href="#DejaVuSans-20"/>
      <use x="95.410156" xlink:href="#DejaVuSans-70"/>
      <use x="158.886719" xlink:href="#DejaVuSans-65"/>
      <use x="220.410156" xlink:href="#DejaVuSans-72"/>
      <use x="259.773438" xlink:href="#DejaVuSans-6d"/>
      <use x="357.185547" xlink:href="#DejaVuSans-75"/>
      <use x="420.564453" xlink:href="#DejaVuSans-74"/>
      <use x="459.773438" xlink:href="#DejaVuSans-61"/>
      <use x="521.052734" xlink:href="#DejaVuSans-74"/>
      <use x="560.261719" xlink:href="#DejaVuSans-69"/>
      <use x="588.044922" xlink:href="#DejaVuSans-6f"/>
      <use x="649.226562" xlink:href="#DejaVuSans-6e"/>
      <use x="712.605469" xlink:href="#DejaVuSans-73"/>
     </g>
    </g>
    <g id="line2d_37">
     <path d="m301.25 98.605h10 10" fill="none" stroke="#d62728" stroke-linecap="square" stroke-width="1.5"/>
    </g>
    <g id="text_16">
     <!-- 4 permutations -->
     <g transform="translate(329.25 102.1) scale(.1 -.1)">
      <use xlink:href="#DejaVuSans-34"/>
      <use x="63.623047" xlink:href="#DejaVuSans-20"/>
      <use x="95.410156" xlink:href="#DejaVuSans-70"/>
      <use x="158.886719" xlink:href="#DejaVuSans-65"/>
      <use x="220.410156" xlink:href="#DejaVuSans-72"/>
      <use x="259.773438" xlink:href="#DejaVuSans-6d"/>
      <use x="357.185547" xlink:href="#DejaVuSans-75"/>
      <use x="420.564453" xlink:href="#DejaVuSans-74"/>
      <use x="459.773438" xlink:href="#DejaVuSans-61"/>
      <use x="521.052734" xlink:href="#DejaVuSans-74"/>
      <use x="560.261719" xlink:href="#DejaVuSans-69"/>
      <use x="588.044922" xlink:href="#DejaVuSans-6f"/>
      <use x="649.226562" xlink:href="#DejaVuSans-6e"/>
      <use x="712.605469" xlink:href="#DejaVuSans-73"/>
     </g>
    </g>
    <g id="line2d_38">
     <path d="m301.25 113.28h10 10" fill="none" stroke="#9467bd" stroke-linecap="square" stroke-width="1.5"/>
    </g>
    <g id="text_17">
     <!-- 5 permutations -->
     <g transform="translate(329.25 116.78) scale(.1 -.1)">
      <use xlink:href="#DejaVuSans-35"/>
      <use x="63.623047" xlink:href="#DejaVuSans-20"/>
      <use x="95.410156" xlink:href="#DejaVuSans-70"/>
      <use x="158.886719" xlink:href="#DejaVuSans-65"/>
      <use x="220.410156" xlink:href="#DejaVuSans-72"/>
      <use x="259.773438" xlink:href="#DejaVuSans-6d"/>
      <use x="357.185547" xlink:href="#DejaVuSans-75"/>
      <use x="420.564453" xlink:href="#DejaVuSans-74"/>
      <use x="459.773438" xlink:href="#DejaVuSans-61"/>
      <use x="521.052734" xlink:href="#DejaVuSans-74"/>
      <use x="560.261719" xlink:href="#DejaVuSans-69"/>
      <use x="588.044922" xlink:href="#DejaVuSans-6f"/>
      <use x="649.226562" xlink:href="#DejaVuSans-6e"/>
      <use x="712.605469" xlink:href="#DejaVuSans-73"/>
     </g>
    </g>
    <g id="line2d_39">
     <path d="m301.25 127.96h10 10" fill="none" stroke="#8c564b" stroke-linecap="square" stroke-width="1.5"/>
    </g>
    <g id="text_18">
     <!-- 6 permutations -->
     <g transform="translate(329.25 131.46) scale(.1 -.1)">
      <use xlink:href="#DejaVuSans-36"/>
      <use x="63.623047" xlink:href="#DejaVuSans-20"/>
      <use x="95.410156" xlink:href="#DejaVuSans-70"/>
      <use x="158.886719" xlink:href="#DejaVuSans-65"/>
      <use x="220.410156" xlink:href="#DejaVuSans-72"/>
      <use x="259.773438" xlink:href="#DejaVuSans-6d"/>
      <use x="357.185547" xlink:href="#DejaVuSans-75"/>
      <use x="420.564453" xlink:href="#DejaVuSans-74"/>
      <use x="459.773438" xlink:href="#DejaVuSans-61"/>
      <use x="521.052734" xlink:href="#DejaVuSans-74"/>
      <use x="560.261719" xlink:href="#DejaVuSans-69"/>
      <use x="588.044922" xlink:href="#DejaVuSans-6f"/>
      <use x="649.226562" xlink:href="#DejaVuSans-6e"/>
      <use x="712.605469" xlink:href="#DejaVuSans-73"/>
     </g>
    </g>
   </g>
  </g>
 </g>
 <defs>
  <clipPath id="p570cd40389">
   <rect x="57.6" y="41.472" width="357.12" height="266.11"/>
  </clipPath>
 </defs>
</svg>
