<?xml version="1.0" encoding="UTF-8"?>
<!DOCTYPE svg  PUBLIC '-//W3C//DTD SVG 1.1//EN'  'http://www.w3.org/Graphics/SVG/1.1/DTD/svg11.dtd'>
<svg width="460.8pt" height="319.68pt" version="1.1" viewBox="0 0 460.8 319.68" xmlns="http://www.w3.org/2000/svg" xmlns:xlink="http://www.w3.org/1999/xlink">
 <metadata>
  <rdf:RDF xmlns:cc="http://creativecommons.org/ns#" xmlns:dc="http://purl.org/dc/elements/1.1/" xmlns:rdf="http://www.w3.org/1999/02/22-rdf-syntax-ns#">
   <cc:Work>
    <dc:type rdf:resource="http://purl.org/dc/dcmitype/StillImage"/>
    <dc:date>2024-06-06T15:22:00.673985</dc:date>
    <dc:format>image/svg+xml</dc:format>
    <dc:creator>
     <cc:Agent>
      <dc:title>Matplotlib v3.8.4, https://matplotlib.org/</dc:title>
     </cc:Agent>
    </dc:creator>
   </cc:Work>
  </rdf:RDF>
 </metadata>
 <defs>
  <style type="text/css">*{stroke-linejoin: round; stroke-linecap: butt}</style>
 </defs>
 <g id="figure_1">
  <g id="patch_1">
   <path d="m0 319.68h460.8v-319.68h-460.8z" fill="#fff"/>
  </g>
  <g id="axes_1">
   <g id="patch_2">
    <path d="m57.6 284.52h357.12v-246.15h-357.12z" fill="#fff"/>
   </g>
   <g id="matplotlib.axis_1">
    <g id="xtick_1">
     <g id="line2d_1">
      <defs>
       <path id="m386ebc4a66" d="m0 0v3.5" stroke="#000" stroke-width=".8"/>
      </defs>
      <use x="71.30331" y="284.5152" stroke="#000000" stroke-width=".8" xlink:href="#m386ebc4a66"/>
     </g>
     <g id="text_1">
      <!-- 0 -->
      <g transform="translate(68.122 299.11) scale(.1 -.1)">
       <defs>
        <path id="DejaVuSans-30" transform="scale(.015625)" d="m2034 4250q-487 0-733-480-245-479-245-1442 0-959 245-1439 246-480 733-480 491 0 736 480 246 480 246 1439 0 963-246 1442-245 480-736 480zm0 500q785 0 1199-621 414-620 414-1801 0-1178-414-1799-414-620-1199-620-784 0-1198 620-414 621-414 1799 0 1181 414 1801 414 621 1198 621z"/>
       </defs>
       <use xlink:href="#DejaVuSans-30"/>
      </g>
     </g>
    </g>
    <g id="xtick_2">
     <g id="line2d_2">
      <use x="122.40265" y="284.5152" stroke="#000000" stroke-width=".8" xlink:href="#m386ebc4a66"/>
     </g>
     <g id="text_2">
      <!-- 10000 -->
      <g transform="translate(106.5 299.11) scale(.1 -.1)">
       <defs>
        <path id="DejaVuSans-31" transform="scale(.015625)" d="m794 531h1031v3560l-1122-225v575l1116 225h631v-4135h1031v-531h-2687v531z"/>
       </defs>
       <use xlink:href="#DejaVuSans-31"/>
       <use x="63.623047" xlink:href="#DejaVuSans-30"/>
       <use x="127.246094" xlink:href="#DejaVuSans-30"/>
       <use x="190.869141" xlink:href="#DejaVuSans-30"/>
       <use x="254.492188" xlink:href="#DejaVuSans-30"/>
      </g>
     </g>
    </g>
    <g id="xtick_3">
     <g id="line2d_3">
      <use x="173.50199" y="284.5152" stroke="#000000" stroke-width=".8" xlink:href="#m386ebc4a66"/>
     </g>
     <g id="text_3">
      <!-- 20000 -->
      <g transform="translate(157.6 299.11) scale(.1 -.1)">
       <defs>
        <path id="DejaVuSans-32" transform="scale(.015625)" d="m1228 531h2203v-531h-2962v531q359 372 979 998 621 627 780 809 303 340 423 576 121 236 121 464 0 372-261 606-261 235-680 235-297 0-627-103-329-103-704-313v638q381 153 712 231 332 78 607 78 725 0 1156-363 431-362 431-968 0-288-108-546-107-257-392-607-78-91-497-524-418-433-1181-1211z"/>
       </defs>
       <use xlink:href="#DejaVuSans-32"/>
       <use x="63.623047" xlink:href="#DejaVuSans-30"/>
       <use x="127.246094" xlink:href="#DejaVuSans-30"/>
       <use x="190.869141" xlink:href="#DejaVuSans-30"/>
       <use x="254.492188" xlink:href="#DejaVuSans-30"/>
      </g>
     </g>
    </g>
    <g id="xtick_4">
     <g id="line2d_4">
      <use x="224.601329" y="284.5152" stroke="#000000" stroke-width=".8" xlink:href="#m386ebc4a66"/>
     </g>
     <g id="text_4">
      <!-- 30000 -->
      <g transform="translate(208.7 299.11) scale(.1 -.1)">
       <defs>
        <path id="DejaVuSans-33" transform="scale(.015625)" d="m2597 2516q453-97 707-404 255-306 255-756 0-690-475-1069-475-378-1350-378-293 0-604 58t-642 174v609q262-153 574-231 313-78 654-78 593 0 904 234t311 681q0 413-289 645-289 233-804 233h-544v519h569q465 0 712 186t247 536q0 359-255 551-254 193-729 193-260 0-557-57-297-56-653-174v562q360 100 674 150t592 50q719 0 1137-327 419-326 419-882 0-388-222-655t-631-370z"/>
       </defs>
       <use xlink:href="#DejaVuSans-33"/>
       <use x="63.623047" xlink:href="#DejaVuSans-30"/>
       <use x="127.246094" xlink:href="#DejaVuSans-30"/>
       <use x="190.869141" xlink:href="#DejaVuSans-30"/>
       <use x="254.492188" xlink:href="#DejaVuSans-30"/>
      </g>
     </g>
    </g>
    <g id="xtick_5">
     <g id="line2d_5">
      <use x="275.700669" y="284.5152" stroke="#000000" stroke-width=".8" xlink:href="#m386ebc4a66"/>
     </g>
     <g id="text_5">
      <!-- 40000 -->
      <g transform="translate(259.79 299.11) scale(.1 -.1)">
       <defs>
        <path id="DejaVuSans-34" transform="scale(.015625)" d="m2419 4116-1594-2491h1594v2491zm-166 550h794v-3041h666v-525h-666v-1100h-628v1100h-2106v609l1940 2957z"/>
       </defs>
       <use xlink:href="#DejaVuSans-34"/>
       <use x="63.623047" xlink:href="#DejaVuSans-30"/>
       <use x="127.246094" xlink:href="#DejaVuSans-30"/>
       <use x="190.869141" xlink:href="#DejaVuSans-30"/>
       <use x="254.492188" xlink:href="#DejaVuSans-30"/>
      </g>
     </g>
    </g>
    <g id="xtick_6">
     <g id="line2d_6">
      <use x="326.800009" y="284.5152" stroke="#000000" stroke-width=".8" xlink:href="#m386ebc4a66"/>
     </g>
     <g id="text_6">
      <!-- 50000 -->
      <g transform="translate(310.89 299.11) scale(.1 -.1)">
       <defs>
        <path id="DejaVuSans-35" transform="scale(.015625)" d="m691 4666h2478v-532h-1900v-1143q137 47 274 70 138 23 276 23 781 0 1237-428 457-428 457-1159 0-753-469-1171-469-417-1322-417-294 0-599 50-304 50-629 150v635q281-153 581-228t634-75q541 0 856 284 316 284 316 772 0 487-316 771-315 285-856 285-253 0-505-56-251-56-513-175v2344z"/>
       </defs>
       <use xlink:href="#DejaVuSans-35"/>
       <use x="63.623047" xlink:href="#DejaVuSans-30"/>
       <use x="127.246094" xlink:href="#DejaVuSans-30"/>
       <use x="190.869141" xlink:href="#DejaVuSans-30"/>
       <use x="254.492188" xlink:href="#DejaVuSans-30"/>
      </g>
     </g>
    </g>
    <g id="xtick_7">
     <g id="line2d_7">
      <use x="377.899349" y="284.5152" stroke="#000000" stroke-width=".8" xlink:href="#m386ebc4a66"/>
     </g>
     <g id="text_7">
      <!-- 60000 -->
      <g transform="translate(361.99 299.11) scale(.1 -.1)">
       <defs>
        <path id="DejaVuSans-36" transform="scale(.015625)" d="m2113 2584q-425 0-674-291-248-290-248-796 0-503 248-796 249-292 674-292t673 292q248 293 248 796 0 506-248 796-248 291-673 291zm1253 1979v-575q-238 112-480 171-242 60-480 60-625 0-955-422-329-422-376-1275 184 272 462 417 279 145 613 145 703 0 1111-427 408-426 408-1160 0-719-425-1154-425-434-1131-434-810 0-1238 620-428 621-428 1799 0 1106 525 1764t1409 658q238 0 480-47t505-140z"/>
       </defs>
       <use xlink:href="#DejaVuSans-36"/>
       <use x="63.623047" xlink:href="#DejaVuSans-30"/>
       <use x="127.246094" xlink:href="#DejaVuSans-30"/>
       <use x="190.869141" xlink:href="#DejaVuSans-30"/>
       <use x="254.492188" xlink:href="#DejaVuSans-30"/>
      </g>
     </g>
    </g>
    <g id="text_8">
     <!-- Number of points in cloud -->
     <g transform="translate(171.44 312.79) scale(.1 -.1)">
      <defs>
       <path id="DejaVuSans-4e" transform="scale(.015625)" d="m628 4666h850l2069-3903v3903h612v-4666h-850l-2068 3903v-3903h-613v4666z"/>
       <path id="DejaVuSans-75" transform="scale(.015625)" d="m544 1381v2119h575v-2097q0-497 193-746 194-248 582-248 465 0 735 297 271 297 271 810v1984h575v-3500h-575v538q-209-319-486-474-276-155-642-155-603 0-916 375-312 375-312 1097zm1447 2203z"/>
       <path id="DejaVuSans-6d" transform="scale(.015625)" d="m3328 2828q216 388 516 572t706 184q547 0 844-383 297-382 297-1088v-2113h-578v2094q0 503-179 746-178 244-543 244-447 0-707-297-259-296-259-809v-1978h-578v2094q0 506-178 748t-550 242q-441 0-701-298-259-298-259-808v-1978h-578v3500h578v-544q197 322 472 475t653 153q382 0 649-194 267-193 395-562z"/>
       <path id="DejaVuSans-62" transform="scale(.015625)" d="m3116 1747q0 634-261 995t-717 361q-457 0-718-361t-261-995 261-995 718-361q456 0 717 361t261 995zm-1957 1222q182 312 458 463 277 152 661 152 638 0 1036-506 399-506 399-1331t-399-1332q-398-506-1036-506-384 0-661 152-276 152-458 464v-525h-578v4863h578v-1894z"/>
       <path id="DejaVuSans-65" transform="scale(.015625)" d="m3597 1894v-281h-2644q38-594 358-905t892-311q331 0 642 81t618 244v-544q-310-131-635-200t-659-69q-838 0-1327 487-489 488-489 1320 0 859 464 1363 464 505 1252 505 706 0 1117-455 411-454 411-1235zm-575 169q-6 471-264 752-258 282-683 282-481 0-770-272t-333-766l2050 4z"/>
       <path id="DejaVuSans-72" transform="scale(.015625)" d="m2631 2963q-97 56-211 82-114 27-251 27-488 0-749-317t-261-911v-1844h-578v3500h578v-544q182 319 472 473 291 155 707 155 59 0 131-8 72-7 159-23l3-590z"/>
       <path id="DejaVuSans-6f" transform="scale(.015625)" d="m1959 3097q-462 0-731-361t-269-989 267-989q268-361 733-361 460 0 728 362 269 363 269 988 0 622-269 986-268 364-728 364zm0 487q750 0 1178-488 429-487 429-1349 0-859-429-1349-428-489-1178-489-753 0-1180 489-426 490-426 1349 0 862 426 1349 427 488 1180 488z"/>
       <path id="DejaVuSans-66" transform="scale(.015625)" d="m2375 4863v-479h-550q-309 0-430-125-120-125-120-450v-309h947v-447h-947v-3053h-578v3053h-550v447h550v244q0 584 272 851 272 268 862 268h544z"/>
       <path id="DejaVuSans-70" transform="scale(.015625)" d="m1159 525v-1856h-578v4831h578v-531q182 312 458 463 277 152 661 152 638 0 1036-506 399-506 399-1331t-399-1332q-398-506-1036-506-384 0-661 152-276 152-458 464zm1957 1222q0 634-261 995t-717 361q-457 0-718-361t-261-995 261-995 718-361q456 0 717 361t261 995z"/>
       <path id="DejaVuSans-69" transform="scale(.015625)" d="m603 3500h575v-3500h-575v3500zm0 1363h575v-729h-575v729z"/>
       <path id="DejaVuSans-6e" transform="scale(.015625)" d="m3513 2113v-2113h-575v2094q0 497-194 743-194 247-581 247-466 0-735-297-269-296-269-809v-1978h-578v3500h578v-544q207 316 486 472 280 156 646 156 603 0 912-373 310-373 310-1098z"/>
       <path id="DejaVuSans-74" transform="scale(.015625)" d="m1172 4494v-994h1184v-447h-1184v-1900q0-428 117-550t477-122h590v-481h-590q-666 0-919 248-253 249-253 905v1900h-422v447h422v994h578z"/>
       <path id="DejaVuSans-73" transform="scale(.015625)" d="m2834 3397v-544q-243 125-506 187-262 63-544 63-428 0-642-131t-214-394q0-200 153-314t616-217l197-44q612-131 870-370t258-667q0-488-386-773-386-284-1061-284-281 0-586 55t-642 164v594q319-166 628-249 309-82 613-82 406 0 624 139 219 139 219 392 0 234-158 359-157 125-692 241l-200 47q-534 112-772 345-237 233-237 639 0 494 350 762 350 269 994 269 318 0 599-47 282-46 519-140z"/>
       <path id="DejaVuSans-63" transform="scale(.015625)" d="m3122 3366v-538q-244 135-489 202t-495 67q-560 0-870-355-309-354-309-995t309-996q310-354 870-354 250 0 495 67t489 202v-532q-241-112-499-168-257-57-548-57-791 0-1257 497-465 497-465 1341 0 856 470 1346 471 491 1290 491 265 0 518-55 253-54 491-163z"/>
       <path id="DejaVuSans-6c" transform="scale(.015625)" d="m603 4863h575v-4863h-575v4863z"/>
       <path id="DejaVuSans-64" transform="scale(.015625)" d="m2906 2969v1894h575v-4863h-575v525q-181-312-458-464-276-152-664-152-634 0-1033 506-398 507-398 1332t398 1331q399 506 1033 506 388 0 664-152 277-151 458-463zm-1959-1222q0-634 261-995t717-361 718 361q263 361 263 995t-263 995q-262 361-718 361t-717-361-261-995z"/>
      </defs>
      <use xlink:href="#DejaVuSans-4e"/>
      <use x="74.804688" xlink:href="#DejaVuSans-75"/>
      <use x="138.183594" xlink:href="#DejaVuSans-6d"/>
      <use x="235.595703" xlink:href="#DejaVuSans-62"/>
      <use x="299.072266" xlink:href="#DejaVuSans-65"/>
      <use x="360.595703" xlink:href="#DejaVuSans-72"/>
      <use x="401.708984" xlink:href="#DejaVuSans-20"/>
      <use x="433.496094" xlink:href="#DejaVuSans-6f"/>
      <use x="494.677734" xlink:href="#DejaVuSans-66"/>
      <use x="529.882812" xlink:href="#DejaVuSans-20"/>
      <use x="561.669922" xlink:href="#DejaVuSans-70"/>
      <use x="625.146484" xlink:href="#DejaVuSans-6f"/>
      <use x="686.328125" xlink:href="#DejaVuSans-69"/>
      <use x="714.111328" xlink:href="#DejaVuSans-6e"/>
      <use x="777.490234" xlink:href="#DejaVuSans-74"/>
      <use x="816.699219" xlink:href="#DejaVuSans-73"/>
      <use x="868.798828" xlink:href="#DejaVuSans-20"/>
      <use x="900.585938" xlink:href="#DejaVuSans-69"/>
      <use x="928.369141" xlink:href="#DejaVuSans-6e"/>
      <use x="991.748047" xlink:href="#DejaVuSans-20"/>
      <use x="1023.535156" xlink:href="#DejaVuSans-63"/>
      <use x="1078.515625" xlink:href="#DejaVuSans-6c"/>
      <use x="1106.298828" xlink:href="#DejaVuSans-6f"/>
      <use x="1167.480469" xlink:href="#DejaVuSans-75"/>
      <use x="1230.859375" xlink:href="#DejaVuSans-64"/>
     </g>
    </g>
   </g>
   <g id="matplotlib.axis_2">
    <g id="ytick_1">
     <g id="line2d_8">
      <defs>
       <path id="m68cad401a8" d="m0 0h-3.5" stroke="#000" stroke-width=".8"/>
      </defs>
      <use x="57.6" y="256.848061" stroke="#000000" stroke-width=".8" xlink:href="#m68cad401a8"/>
     </g>
     <g id="text_9">
      <!-- $\mathdefault{10^{1}}$ -->
      <g transform="translate(33 260.65) scale(.1 -.1)">
       <use transform="translate(0 .68438)" xlink:href="#DejaVuSans-31"/>
       <use transform="translate(63.623 .68438)" xlink:href="#DejaVuSans-30"/>
       <use transform="translate(128.2 38.966) scale(.7)" xlink:href="#DejaVuSans-31"/>
      </g>
     </g>
    </g>
    <g id="ytick_2">
     <g id="line2d_9">
      <use x="57.6" y="117.761429" stroke="#000000" stroke-width=".8" xlink:href="#m68cad401a8"/>
     </g>
     <g id="text_10">
      <!-- $\mathdefault{10^{2}}$ -->
      <g transform="translate(33 121.56) scale(.1 -.1)">
       <use transform="translate(0 .76562)" xlink:href="#DejaVuSans-31"/>
       <use transform="translate(63.623 .76562)" xlink:href="#DejaVuSans-30"/>
       <use transform="translate(128.2 39.047) scale(.7)" xlink:href="#DejaVuSans-32"/>
      </g>
     </g>
    </g>
    <g id="ytick_3">
     <g id="line2d_10">
      <defs>
       <path id="medf284d855" d="m0 0h-2" stroke="#000" stroke-width=".6"/>
      </defs>
      <use x="57.6" y="278.392853" stroke="#000000" stroke-width=".6" xlink:href="#medf284d855"/>
     </g>
    </g>
    <g id="ytick_4">
     <g id="line2d_11">
      <use x="57.6" y="270.326948" stroke="#000000" stroke-width=".6" xlink:href="#medf284d855"/>
     </g>
    </g>
    <g id="ytick_5">
     <g id="line2d_12">
      <use x="57.6" y="263.212316" stroke="#000000" stroke-width=".6" xlink:href="#medf284d855"/>
     </g>
    </g>
    <g id="ytick_6">
     <g id="line2d_13">
      <use x="57.6" y="214.978813" stroke="#000000" stroke-width=".6" xlink:href="#medf284d855"/>
     </g>
    </g>
    <g id="ytick_7">
     <g id="line2d_14">
      <use x="57.6" y="190.486873" stroke="#000000" stroke-width=".6" xlink:href="#medf284d855"/>
     </g>
    </g>
    <g id="ytick_8">
     <g id="line2d_15">
      <use x="57.6" y="173.109564" stroke="#000000" stroke-width=".6" xlink:href="#medf284d855"/>
     </g>
    </g>
    <g id="ytick_9">
     <g id="line2d_16">
      <use x="57.6" y="159.630677" stroke="#000000" stroke-width=".6" xlink:href="#medf284d855"/>
     </g>
    </g>
    <g id="ytick_10">
     <g id="line2d_17">
      <use x="57.6" y="148.617624" stroke="#000000" stroke-width=".6" xlink:href="#medf284d855"/>
     </g>
    </g>
    <g id="ytick_11">
     <g id="line2d_18">
      <use x="57.6" y="139.306221" stroke="#000000" stroke-width=".6" xlink:href="#medf284d855"/>
     </g>
    </g>
    <g id="ytick_12">
     <g id="line2d_19">
      <use x="57.6" y="131.240316" stroke="#000000" stroke-width=".6" xlink:href="#medf284d855"/>
     </g>
    </g>
    <g id="ytick_13">
     <g id="line2d_20">
      <use x="57.6" y="124.125684" stroke="#000000" stroke-width=".6" xlink:href="#medf284d855"/>
     </g>
    </g>
    <g id="ytick_14">
     <g id="line2d_21">
      <use x="57.6" y="75.892181" stroke="#000000" stroke-width=".6" xlink:href="#medf284d855"/>
     </g>
    </g>
    <g id="ytick_15">
     <g id="line2d_22">
      <use x="57.6" y="51.400241" stroke="#000000" stroke-width=".6" xlink:href="#medf284d855"/>
     </g>
    </g>
    <g id="text_11">
     <!-- Query time (ns) -->
     <g transform="translate(26.92 200.78) rotate(-90) scale(.1 -.1)">
      <defs>
       <path id="DejaVuSans-51" transform="scale(.015625)" d="m2522 4238q-688 0-1093-513-404-512-404-1397 0-881 404-1394 405-512 1093-512 687 0 1089 512 402 513 402 1394 0 885-402 1397-402 513-1089 513zm884-4154 832-909h-763l-691 747q-103-6-158-9-54-4-104-4-984 0-1574 658-589 658-589 1761 0 1106 589 1764 590 658 1574 658 981 0 1568-658 588-658 588-1764 0-812-327-1391-326-578-945-853z"/>
       <path id="DejaVuSans-79" transform="scale(.015625)" d="m2059-325q-243-625-475-815-231-191-618-191h-460v481h338q237 0 368 113 132 112 291 531l103 262-1415 3444h609l1094-2737 1094 2737h609l-1538-3825z"/>
       <path id="DejaVuSans-28" transform="scale(.015625)" d="m1984 4856q-418-718-622-1422-203-703-203-1425 0-721 205-1429t620-1424h-500q-468 735-701 1444t-233 1409q0 697 231 1403 232 707 703 1444h500z"/>
       <path id="DejaVuSans-29" transform="scale(.015625)" d="m513 4856h500q468-737 701-1444 233-706 233-1403 0-700-233-1409t-701-1444h-500q415 716 620 1424t205 1429q0 722-205 1425-205 704-620 1422z"/>
      </defs>
      <use xlink:href="#DejaVuSans-51"/>
      <use x="78.710938" xlink:href="#DejaVuSans-75"/>
      <use x="142.089844" xlink:href="#DejaVuSans-65"/>
      <use x="203.613281" xlink:href="#DejaVuSans-72"/>
      <use x="244.726562" xlink:href="#DejaVuSans-79"/>
      <use x="303.90625" xlink:href="#DejaVuSans-20"/>
      <use x="335.693359" xlink:href="#DejaVuSans-74"/>
      <use x="374.902344" xlink:href="#DejaVuSans-69"/>
      <use x="402.685547" xlink:href="#DejaVuSans-6d"/>
      <use x="500.097656" xlink:href="#DejaVuSans-65"/>
      <use x="561.621094" xlink:href="#DejaVuSans-20"/>
      <use x="593.408203" xlink:href="#DejaVuSans-28"/>
      <use x="632.421875" xlink:href="#DejaVuSans-6e"/>
      <use x="695.800781" xlink:href="#DejaVuSans-73"/>
      <use x="747.900391" xlink:href="#DejaVuSans-29"/>
     </g>
    </g>
   </g>
   <g id="line2d_23">
    <path d="m398.49 58.017-0.4088-0.027094-0.40368 0.36939-0.47522-0.21428-0.89424 0.14859-0.50077-0.27025-0.55187 0.31558-1.0475-0.53643-0.63363 0.45635-0.70517-0.56164-2.8922 0.11082-0.78182-0.40141-0.79715 0.31192-0.7716-0.34704-0.75116-1.4768-0.94534 1.4655-0.78182-0.38124-0.9249 0.77497-0.90446-0.6057-1.9673 1.246-1.0015-0.18549-1.1344 0.26647-1.1497 0.035432-1.1804-0.16219-1.0629-1.3175-1.303 1.2971-1.2264-0.059289-1.3592-0.82683-1.3848 1.3097-1.303-0.011224-2.7389 0.88186-1.4666-1.3212-1.4206 0.83395-1.4614-0.52364-1.768-0.46368-1.722 1.5726-1.7169-0.3954-1.6403 0.60715-1.6045-0.099218-1.8396-0.35279-1.7374 0.35426-1.8549-0.37758-1.9878 0.14916-1.722 0.42787-1.8345-0.02073-1.9367 0.14653-1.9418-0.4874-1.7834 0.09492-2.0133-0.40376-1.9111 0.79702-2.0286 0.39833-2.1819-0.81012-2.1104 1.0773-2.0491-1.3934-3.9551 0.29398-2.0746-0.74493-2.1871-1.9238-2.4425-0.081027-2.1513 0.84332-2.3148-0.6936-2.2484-1.1471-2.09-0.23408-2.0031-0.60366-4.4712-1.5507-2.2126-0.78565-2.233-1.1036-2.233-2.1508-2.2177 1.3896-2.3966-0.81775-2.3761-0.52962-2.3659 0.28776-2.1104 0.009536-2.0235 0.72765-2.1104 0.48578-4.2566-0.78093-2.1615 1.5289-1.952 0.90595-1.9673-0.037441-2.0951 0.31756-2.2126-0.70899-2.1564 1.6007-2.0184-0.68589-2.2024-0.46538-2.0695 0.6316-1.9316-0.50138-1.9827 0.25668-2.1871-0.90965-1.998-0.57196-1.8345-0.13924-2.1922-1.48-1.906 1.035-1.8907 33.399-1.9469 0.65122-2.0082 0.36472-2.7287 1.0327-2.0695-0.74471-2.1717-0.60276-1.8856-0.38669-2.3761 0.62456-1.9111-1.7738-1.6096 0.62687-1.768-1.6615-1.7374 0.31523-1.5636-0.12208-2.0491-0.50863-5.4625-0.78097-4.0113-1.6629-2.1155-1.2272-4.2208-2.6852-1.625 0.6298-1.6403-0.5977-1.8242-0.86903-2.1104 1.8278-2.0133-1.1123-1.6454-0.73182-1.9367 1.1216-1.7731-0.15305-1.722 0.63415-1.4052 0.86507-1.6454 0.28775-1.8242 0.1193-1.5534-0.25797-1.6914 0.56259-1.8702 0.11956-1.7987-0.49359-1.6761 0.68843-1.625-0.5125-1.5279 1.2108 1.0884-0.59989-1.7425 0.62932-1.533-0.99515-1.722-0.12661-1.4717 0.54016-1.6914-0.864-2.1462 4.1423-1.6709-0.16308-3.4185-0.99091-2.0082 0.93863-1.7323-1.1355-1.4972 0.60963-1.6045-1.6786-2.0031 0.2713-1.257 1.1191-1.4206 0.10034-1.3644-0.027809-1.4052-1.401-1.1753 0.53562-1.349 1.3086-1.3899-1.5833-1.4359 0.63342-1.4666-0.87306-1.5943 1.7444-1.303-0.34709-1.1344 0.23469-2.8411-0.69449-1.4768 1.2515-1.2417 0.14987-1.1293-0.47683-1.1037 0.26148-1.1089-2.0121-0.99644-0.6265-1.0629 18.675-0.99644-0.33486-0.86869 0.26034-0.98622 1.0215-1.0986-0.76939 0.42923 1.3618-1.768-1.3313-0.86869-0.12921-0.89424 1.3075-0.84825-0.5476-0.89424 0.32457-1.1293 0.20567-2.8105-1.2201-1.441 0.20167-1.4666 2.4748-1.0424 0.6483-1.2877 0.39065-1.2519-0.36674-1.2366 9.9951-1.3848 0.99649-0.68473-1.4916-0.9249 0.35223-0.70517 2.1508-0.67962-1.4448-1.3848 1.017-0.60297 1.3978-0.88402-0.64434-0.31171-1.5782-0.5672 2.7024-0.66429 0.081769-0.53654-0.30337-0.72561 1.381 0.061319 0.52703-0.27594-2.3202-0.2044 3.4273-0.3066 1.6668-0.27594 0.010036-0.81248-2.7615-0.33214 0.43124-0.99133 2.1544 0.47522-1.6739-0.33726-0.44315-0.4088 2.4979-0.64896-1.0106-0.12264 0.30099-0.36792-2.0141-0.0511 3.3728-0.28616-0.32482-0.28105-2.0492-0.1533-0.22582-0.31171 7.0348-0.14308 0.30538-0.16863 0.072852-0.071539 2.6208-0.21973-0.43396-0.11753 2.7793-0.24528-4.6411-0.45478 1.9882-0.18907 0.094309-0.28105 2.0035-0.23506 1.4533-0.13286-2.3456-0.02044-4.3714-0.1022 2.0396-0.16352 21.097-0.061319-1.2411" clip-path="url(#p1f82ea0d48)" fill="none" stroke="#1f77b4" stroke-linecap="square" stroke-width="1.5"/>
   </g>
   <g id="line2d_24">
    <path d="m398.49 243.43-0.4088-0.09721-0.40368 0.040407-0.47522-0.18533-0.44967-1.3178-0.44456 1.0796-0.50077 0.19851-1.0424-0.022516-0.55698 0.26024-0.63363-0.94637-0.70517 1.0269-1.4103-0.45928-0.73583 0.37199-0.74605-0.68387-0.78182 0.71646-0.79715-0.319-0.7716 0.40955-0.75116-0.17789-0.94534 0.046119-0.78182-0.16544-2.7032 0.21732-2.0951-0.043898-1.1344-1.3169-1.1497 1.3211-4.7727-0.007313-1.3592-0.42837-1.3848 0.51459-1.303-0.27488-1.3081-1.1011-1.4308 1.0979-1.4666-1.3415-1.4206 1.5734-1.4614-0.26129-1.768-0.45495-1.722 0.58731-3.3572 0.078387-1.6045-0.061257-1.8396 0.16891-1.7374 0.02078-1.8549-0.32765-1.9878-0.11054-9.2183 0.42847-2.0133-0.37832-3.9398-0.037054-2.1819-0.99026-2.1104 1.4052-2.0491-0.47976-2.1002 0.453-1.8549-0.30891-2.0746-0.007418-2.1871 0.25099-2.4425-0.38462-2.1513 0.4678-6.6531-0.56671-2.0031 0.46942-2.279-0.33443-2.1922 0.39536-2.2126-0.068245-2.233 0.14136-2.233-2.02-2.2177 1.6638-2.3966 0.26555-2.3761-0.03379-2.3659-0.24461-2.1104-1.5213-2.0235 1.5858-2.1104 0.15866-2.0644-0.25379-2.1922 0.33814-2.1615-0.16658-1.952 0.17564-1.9673-0.057228-2.0951-0.34104-2.2126 0.12712-2.1564 0.23708-2.0184-0.055202-2.2024-0.2056-2.0695-0.065554-1.9316 0.27727-1.9827-0.27475-2.1871-0.09232-1.998 0.4501-1.8345-0.12556-2.1922 0.031765-1.906-2.0993-1.8907 5.8185-1.9469-0.24242-2.0082 0.20171-2.7287-0.20565-2.0695 0.2212-2.1717-37.49-1.8856 37.13-2.3761 0.41912-3.5207-0.038749-1.768-0.32739-1.7374-0.05664-1.5636 0.37343-2.0491-0.021906-5.4625-0.2614-2.0695 0.31979-1.9418-4.1873-2.1155 4.154-7.4861 0.002121-1.8242 0.032805-2.1104-4.605-2.0133 2.3411-1.6454 2.2477-1.9367-0.2247-1.7731 0.18186-1.722-0.20018-3.0506 0.042829-3.3777 0.24021-1.6914-0.10518-1.8702-0.65578-3.4748 0.75262-1.625-0.31256-1.5279 0.32459 1.0884-0.55848-1.7425 0.50318-3.255 0.034081-1.4717-0.29225-1.6914-0.090871-2.1462 3.9724-1.6709-0.59155-3.4185-1.0367-2.0082 1.5754-1.7323-0.2955-1.4972-0.081288-1.6045 0.55748-2.0031-0.97295-1.257 0.56022-1.4206 0.46586-1.3644-0.4926-1.4052 0.52588-8.411-0.009189-1.303-0.098129-1.1344 0.12163-1.2826-0.32161-1.5585 0.27868-1.4768-0.4768-1.2417 0.50677-1.1293-0.079944-1.1037-0.25853-2.1053-0.021569-1.0629 4.342-0.99644 0.14726-0.86869-0.15981-0.98622-0.32188-1.0986 0.42235 0.42923-0.30638-0.91979 0.20317-0.84825-0.10143-0.86869 0.21399-0.89424-0.25188-0.84825 0.24172-0.89424-0.39161-1.1293 0.38887-2.8105-0.36309-2.9076-0.001922-1.0424 0.11447-1.2877 0.27182-1.2519-0.27454-1.2366 4.5256-1.3848-0.53088-1.6096 0.6363-0.70517-0.010048-0.67962-1.73-1.3848 1.6005-0.60297-0.27095-0.88402 0.38289-0.31171-0.31419-0.5672 0.31817-0.66429-3.8497-0.53654 3.2855-0.72561 0.57269 0.061319-0.29185-0.27594 0.28302-0.2044 4.696-1.395-0.030504-0.33214-0.30252-0.99133-0.20851 0.47522-0.10269-0.33726 0.13442-0.4088 0.3608-0.64896 0.09194-0.12264-0.48354-0.41902 0.48074-0.28616-0.27371-0.28105 0.068358-0.1533 0.21957-0.31171 5.0051-0.31171 0.091919-0.071539-0.312-0.21973 0.25544-0.11753-0.20136-0.16863 0.24224-0.076649-0.095349-0.64385 0.071142-0.18396-0.35831-0.097089 0.3935-0.23506-0.037026-0.051099-0.31623-0.081759 0.3085-0.02044-1.1377-0.17374 1.2002-0.025549-0.024015-0.06643 4.2553-0.061319-2.0374" clip-path="url(#p1f82ea0d48)" fill="none" stroke="#ff7f0e" stroke-linecap="square" stroke-width="1.5"/>
   </g>
   <g id="line2d_25">
    <path d="m398.49 236.29-0.4088 0.09515-0.40368-0.041794-0.9249-0.98401-0.44456 0.86128-0.50077-0.19293-0.55187 0.24091-0.49055-0.16645-0.55698 0.079861-0.63363-0.72606-0.70517 0.85143-0.67451-0.39038-0.73583 0.41783-0.73583 0.050552-0.74605-0.35404-0.78182 0.59079-0.79715-0.31038-0.7716-0.11464-0.75116 0.25296-0.94534 0.10538-1.7067-0.58932-0.90446 0.58386-1.9673-0.44396-1.0015 0.37738-1.1344 0.016017-1.1497-0.32828-1.1804-0.039642-4.9515 0.46626-2.6878-0.26376-1.3081-0.58682-1.4308 0.82135-1.4666 0.18216-1.4206-0.31684-1.4614 0.44424-1.768-3.3827-1.722 2.9775-1.7169 0.065153-1.6403-0.072388-1.6045 0.4213-1.8396-0.3704-1.7374-0.53838-1.8549 0.56806-1.9878 0.21521-1.722-0.096815-1.8345-0.32965-1.9367 0.71569-1.9418-1.3192-1.7834 1.1109-3.9244 0.25401-4.2106-0.085268-2.1104 0.23117-2.0491-0.22603-3.9551 0.13048-2.0746-0.3262-2.1871-0.15429-2.4425 0.58313-2.1513-0.30954-2.3148 0.289-2.2484-0.21389-2.09 0.15363-2.0031-0.13974-2.279-0.011969-2.1922 0.3771-2.2126-0.10288-2.233-1.722-4.4508 1.4806-2.3966 0.29061-4.742-0.1609-2.1104 0.45739-2.0235-0.12188-2.1104-0.35795-2.0644 0.53185-2.1922-0.14107-6.0808 0.024153-2.0951 0.29872-2.2126 0.021854-2.1564-0.55097-2.0184 0.3369-2.2024-0.27791-2.0695 0.48421-1.9316-0.13923-1.9827-0.51037-2.1871 0.79523-1.998 0.005112-1.8345-0.33865-2.1922-0.056015-1.906 0.35049-1.8907 4.1572-1.9469-1.1276-2.0082-0.27866-2.7287 0.97944-2.0695 0.30572-2.1717-0.7928-1.8856 0.91529-4.2872-1.1484-1.6096 0.72694-1.768 0.35311-1.7374-1.3632-1.5636 1.5574-2.0491-0.96616-5.4625 1.1208-2.0695-0.25303-1.9418-3.4069-2.1155 2.9753-2.233-0.13794-1.9878 0.57232-1.625-0.56238-1.6403 0.81634-1.8242 0.028153-5.7691-0.33841-3.7098-0.038279-1.722 0.27736-1.4052-0.43556-3.4696 0.34971-1.5534 0.35004-1.6914-0.34442-1.8702 0.022596-1.7987-0.12463-1.6761 0.45526-1.625-0.33154-1.5279 0.38963 1.0884-0.44264-1.7425 0.44935-1.533-1.4987-1.722 1.4842-1.4717 0.012491-1.6914-0.17109-2.1462 3.83-1.6709-0.023744-3.4185-0.46088-2.0082 0.33854-3.2295 0.05061-1.6045 0.25915-2.0031-1.9051-1.257 1.9652-2.7849-0.76244-2.5805 0.71829-1.349-0.05756-1.3899 0.10634-1.4359-1.2139-1.4666 1.185-1.5943-0.011632-1.303-0.77624-2.417 0.80526-1.5585-0.30529-1.4768 0.38161-1.2417-0.33207-1.1293-0.1028-1.1037 0.4294-1.1089-0.34823-0.99644 0.24136-1.0629 3.5406-0.99644 0.28057-0.86869-2.7741-2.0849 2.9468 0.42923 0.020661-0.91979-0.5861-0.84825 0.18611-0.86869 0.45168-0.89424-0.024724-0.84825-0.7042-0.89424 0.73432-3.9398-8.99e-4 -1.441-0.68202-1.4666 0.64216-1.0424 0.051699-1.2877-0.31982-1.2519 0.30798-1.2366 3.8515-1.3848 0.42693-0.68473-0.031043-0.9249-0.45896-1.3848 0.26726-1.9878-0.12282-0.88402 0.29442-0.31171-0.53215-0.5672 0.53311-0.66429-0.10456-1.2622 0.16632 0.061319-0.053884-0.27594-0.37185-0.2044 4.9073-0.58253-0.068246-1.1446 0.055423-0.99133-0.50592 0.47522 0.50124-1.8856-0.011087-0.0511-0.53825-0.28616 0.55696-0.43434-0.011435-0.31171 4.9216-0.60297-0.040773-0.11753-0.33342-0.16863 0.4165-0.076649-0.058843-0.64385 0.075586-0.18396-0.4239-0.097089 0.39042-0.23506-0.059016-0.051099-0.35718-0.081759 0.41695-0.02044-2.2974-0.26572 6.7943-0.061319-0.27951" clip-path="url(#p1f82ea0d48)" fill="none" stroke="#2ca02c" stroke-linecap="square" stroke-width="1.5"/>
   </g>
   <g id="line2d_26">
    <path d="m398.49 136.39-0.4088-0.46811-0.40368 0.13002-2.4221-0.080741-0.49055-0.20477-0.55698 0.071275-0.63363 0.65897-0.70517-0.71034-1.4103 0.89873-1.4819-0.97856-0.78182 0.75781-0.79715 0.10632-0.7716-0.96147-1.6965 0.37761-0.78182 0.88388-0.9249-0.205-0.90446-0.70007-1.9673-0.29101-1.0015 0.42297-1.1344-0.59832-1.1497 1.2925-2.2433-0.50701-1.303-0.3788-1.2264-0.16255-1.3592 0.6274-2.6878-0.57006-1.3081-0.099177-1.4308 0.4169-1.4666-0.095314-1.4206 0.24411-1.4614-0.11457-1.768 0.087145-1.722-0.87692-1.7169 0.62052-1.6403 0.42684-1.6045-0.54171-1.8396 0.11505-1.7374 0.50609-1.8549-0.5589-1.9878 0.005119-1.722 0.40566-1.8345-0.44277-1.9367 0.63369-1.9418-0.49345-3.7967-0.17325-1.9111 0.38694-2.0286-0.05916-2.1819-0.21232-6.2597 0.1922-1.8549-0.053835-2.0746 0.68175-2.1871-0.095578-2.4425 0.23431-6.7145 0.10196-2.09-0.098334-2.0031 0.16884-2.279-0.1976-4.4048 0.20319-2.233 0.61156-2.233-0.62759-2.2177 0.66748-2.3966-0.57322-2.3761 1.1-2.3659-1.1708-2.1104-0.14756-2.0235 0.81294-2.1104-0.91282-2.0644 0.54904-2.1922-0.47763-2.1615-0.044513-1.952 0.30768-8.4314-0.49396-2.0184 0.24413-2.2024-0.55599-2.0695 0.47893-1.9316 0.08693-1.9827 0.9511-2.1871-0.53915-1.998 0.26024-1.8345-0.16948-2.1922 0.068293-1.906 0.23807-1.8907 3.99-1.9469 0.19033-2.0082-0.61149-2.7287-0.058724-2.0695 0.36836-2.1717-0.57095-1.8856 0.46474-4.2872-0.082381-1.6096 0.75428-3.5054-0.93073-1.5636 0.7576-2.0491-0.77019-5.4625 0.15294-2.0695 0.25215-1.9418-1.0036-2.1155 1.0336-2.233-0.53689-1.9878 0.18742-1.625 0.008993-1.6403-0.16816-1.8242 0.23428-2.1104 0.13-2.0133 0.5421-3.5821-0.48665-1.7731-0.10094-1.722 0.22773-1.4052-0.28096-1.6454 0.13799-1.8242 0.91285-3.2448-0.22176-1.8702-0.46494-1.7987 0.2923-1.6761-0.067814-3.1528 0.12611 1.0884-0.43754-3.2755 0.080412-3.1937-0.083577-1.6914-0.31139-2.1462 6.0827-1.6709-0.13486-3.4185-0.59775-2.0082 0.90691-1.7323 0.018554-1.4972-0.33232-1.6045 0.16157-2.0031-0.88574-1.257 0.59591-1.4206 0.10148-1.3644-0.24791-1.4052 0.36244-1.1753 0.047747-1.349-0.08614-1.3899 0.3635-2.9024-0.17856-1.5943 0.30927-1.303-1.1091-1.1344 0.81198-1.2826 0.24784-1.5585-0.0881-1.4768 0.26784-1.2417-0.36921-1.1293-0.57111-1.1037 0.92693-1.1089 0.14258-0.99644-1.638-1.0629 5.9055-0.99644 0.2438-0.86869-0.22231-0.98622 0.18912-1.0986 0.42819 0.42923-0.20623-0.91979-0.8807-1.7169 0.83713-1.7425-0.34986-0.89424 0.12217-1.1293-0.03231-2.8105 0.46388-1.441-0.89824-1.4666 0.70156-1.0424 0.34005-1.2877-0.30754-1.2519-0.10609-1.2366 4.3942-1.3848 0.43824-2.9944-0.27295-1.3848 0.20256-0.60297-0.45991-0.88402 0.1604-0.31171 0.37633-0.5672 0.19615-0.66429-0.89915-0.53654 0.59761-0.94023-0.001283-0.2044 4.6118-0.3066 0.16987-0.75627-0.22873-0.66429 0.26452-0.99133-0.30576 0.47522 0.038537-0.33726-0.33835-0.4088 0.61672-0.64896 0.076216-0.12264 0.39812-0.41902-0.78721-0.5672 0.05145-0.1533 0.47392-0.31171 4.4032-0.31171-0.013432-0.071539 0.076958-0.33726 0.015967-0.16863-0.022391-0.076649-0.16575-0.45478 0.24746-0.18907-0.14122-0.28105 0.10365-0.23506-0.073402-0.051099 0.69704-0.1022-1.31-0.1022 1.4985-0.035769-0.4416-0.061319-0.51771-0.12775 5.7118v0" clip-path="url(#p1f82ea0d48)" fill="none" stroke="#d62728" stroke-linecap="square" stroke-width="1.5"/>
   </g>
   <g id="line2d_27">
    <path d="m398.49 89.153-0.4088-0.58158-0.40368 0.36291-0.47522 1.9218-0.44967-2.1916-0.44456 0.35394-0.50077 2.0961-0.55187-0.32711-0.49055 0.07622-0.55698 0.26993-0.63363-0.92779-0.70517 0.59644-1.4103 0.057071-0.73583 0.41166-0.74605-1.1807-0.78182 0.85153-0.79715-0.32981-0.7716 0.72596-0.75116-1.1009-0.94534 0.60889-1.7067-0.023838-0.90446-0.077581-0.8738 0.3653-1.0935 0.025696-1.0015 0.18227-1.1344-0.7743-1.1497 0.51886-1.1804 0.30679-1.0629-0.74445-1.303 0.63649-1.2264-0.18144-1.3592-0.57315-1.3848 0.58507-2.6112-0.5064-1.4308 0.46615-2.8871-0.50854-1.4614 0.90196-1.768-0.75816-1.722 0.33771-1.7169-0.09299-1.6403 0.23347-1.6045-0.027516-1.8396 0.29302-1.7374-0.39392-3.8427 0.16328-1.722 0.12687-1.8345-0.12809-1.9367 0.14242-1.9418-0.4698-1.7834 0.75565-2.0133-0.58037-1.9111 0.5897-2.0286-0.51629-2.1819-0.94962-2.1104 1.546-2.0491 0.13299-2.1002-1.1977-1.8549 1.6586-2.0746-0.43365-2.1871 0.007839-2.4425-0.38251-4.4661 1.8663-2.2484-0.1708-2.09-0.53974-2.0031 0.93617-2.279-0.29149-2.1922 0.72748-2.2126-0.09773-2.233-1.4893-2.233-5.4995-2.2177 7.1352-9.249-0.51141-2.0235-0.56634-2.1104-0.27757-2.0644 0.57029-2.1922-0.51241-2.1615-0.036446-1.952 0.32863-1.9673-0.20376-2.0951 0.1123-2.2126 0.69023-2.1564-0.27881-2.0184 0.054862-4.2719-0.2185-1.9316 0.43104-1.9827 0.73796-4.185-0.21435-1.8345-0.99484-2.1922 0.77566-1.906-0.53216-1.8907 3.2276-1.9469 0.14011-2.0082-0.27515-4.7982 0.042744-2.1717-0.51935-1.8856 0.20491-2.3761 0.045127-1.9111 0.27799-3.3777 0.11661-1.7374-1.3574-1.5636 1.235-2.0491-0.14211-5.4625 0.11962-2.0695-0.17742-1.9418-0.85519-2.1155-11.761-2.233 12.718-1.9878-0.17988-1.625 0.3315-1.6403 0.05639-3.9346-0.12301-2.0133 1.5504-1.6454-0.75064-1.9367-0.45084-1.7731-0.088524-1.722 0.18505-1.4052-0.012281-1.6454 0.42281-1.8242 1.1659-1.5534-0.19134-1.6914 0.11254-1.8702-0.97231-1.7987 0.30737-1.6761-0.22993-1.625 0.2065-1.5279-0.04626 1.0884-0.58042-1.7425 0.15402-6.4181-0.66194-2.1462 5.8008-1.6709 0.29507-3.4185-0.050659-2.0082 0.5157-1.7323 0.12679-5.1048-1.4888-1.257 1.1485-1.4206-0.90503-1.3644 0.18255-1.4052-0.038526-1.1753-0.2116-1.349-0.036676-1.3899 0.46358-1.4359 0.18687-1.4666-0.16756-1.5943 0.44438-1.303-0.82276-1.1344 0.52606-1.2826-0.13121-1.5585 0.45154-2.7185-0.41286-1.1293-0.71952-1.1037 1.5218-1.1089-0.16138-0.99644-2.1165-1.0629 5.9429-0.99644 0.073715-0.86869-0.32593-0.98622 0.1127-1.0986 1.6709 0.42923-1.135-0.91979-0.46681-1.7169 0.49564-0.89424-0.26891-1.7425-0.05807-1.1293 0.12252-4.2515-0.15507-1.4666 1.3364-1.0424 0.32855-1.2877-1.037-1.2519-0.83778-1.2366 5.6126-1.3848 1.4372-0.68473-0.85652-0.9249-0.49238-0.70517-0.19952-0.67962-0.62236-1.3848 0.96472-0.60297-0.061678-0.88402-0.54911-0.31171 1.2932-0.5672 0.55875-0.66429-1.7608-0.53654 0.057919-0.72561 0.54468 0.061319 0.77349-0.27594-0.16981-0.2044 6.385-0.3066 0.63458-0.27594-0.38244-0.48033-0.076864-0.33215-0.27509-0.33214 0.99764-0.99133-1.0485 0.47522 0.18875-0.33726-1.1249-0.4088 1.6461-0.64896-0.01797-0.12264 0.36052-0.36792-0.97205-0.0511 0.12863-0.28616-0.37398-0.43434 2.0063-0.45478 3.806-0.45989-0.39451-0.11753 0.16375-0.24528-0.050128-0.45478 0.33551-0.37302-0.28195-0.097089 0.078749-0.49055 2.0534-0.097088-1.0002-0.12775 5.2438v0" clip-path="url(#p1f82ea0d48)" fill="none" stroke="#9467bd" stroke-linecap="square" stroke-width="1.5"/>
   </g>
   <g id="patch_3">
    <path d="m57.6 284.52v-246.15" fill="none" stroke="#000" stroke-linecap="square" stroke-width=".8"/>
   </g>
   <g id="patch_4">
    <path d="m414.72 284.52v-246.15" fill="none" stroke="#000" stroke-linecap="square" stroke-width=".8"/>
   </g>
   <g id="patch_5">
    <path d="m57.6 284.52h357.12" fill="none" stroke="#000" stroke-linecap="square" stroke-width=".8"/>
   </g>
   <g id="patch_6">
    <path d="m57.6 38.362h357.12" fill="none" stroke="#000" stroke-linecap="square" stroke-width=".8"/>
   </g>
   <g id="text_12">
    <!-- Scaling of CC on mixed queries -->
    <g transform="translate(142.63 32.362) scale(.12 -.12)">
     <defs>
      <path id="DejaVuSans-53" transform="scale(.015625)" d="m3425 4513v-616q-359 172-678 256-319 85-616 85-515 0-795-200t-280-569q0-310 186-468 186-157 705-254l381-78q706-135 1042-474t336-907q0-679-455-1029-454-350-1332-350-331 0-705 75-373 75-773 222v650q384-215 753-325 369-109 725-109 540 0 834 212 294 213 294 607 0 343-211 537t-692 291l-385 75q-706 140-1022 440-315 300-315 835 0 619 436 975t1201 356q329 0 669-60 341-59 697-177z"/>
      <path id="DejaVuSans-61" transform="scale(.015625)" d="m2194 1759q-697 0-966-159t-269-544q0-306 202-486 202-179 548-179 479 0 768 339t289 901v128h-572zm1147 238v-1997h-575v531q-197-318-491-470t-719-152q-537 0-855 302-317 302-317 808 0 590 395 890 396 300 1180 300h807v57q0 397-261 614t-733 217q-300 0-585-72-284-72-546-216v532q315 122 612 182 297 61 578 61 760 0 1135-394 375-393 375-1193z"/>
      <path id="DejaVuSans-67" transform="scale(.015625)" d="m2906 1791q0 625-258 968-257 344-723 344-462 0-720-344-258-343-258-968 0-622 258-966t720-344q466 0 723 344 258 344 258 966zm575-1357q0-893-397-1329-396-436-1215-436-303 0-572 45t-522 139v559q253-137 500-202 247-66 503-66 566 0 847 295t281 892v285q-178-310-456-463t-666-153q-643 0-1037 490-394 491-394 1301 0 812 394 1302 394 491 1037 491 388 0 666-153t456-462v531h575v-3066z"/>
      <path id="DejaVuSans-43" transform="scale(.015625)" d="m4122 4306v-665q-319 297-680 443-361 147-767 147-800 0-1225-489t-425-1414q0-922 425-1411t1225-489q406 0 767 147t680 444v-660q-331-225-702-338-370-112-782-112-1060 0-1670 648-609 649-609 1771 0 1125 609 1773 610 649 1670 649 418 0 788-111 371-111 696-333z"/>
      <path id="DejaVuSans-78" transform="scale(.015625)" d="m3513 3500-1266-1703 1331-1797h-678l-1019 1375-1018-1375h-679l1360 1831-1244 1669h678l928-1247 928 1247h679z"/>
      <path id="DejaVuSans-71" transform="scale(.015625)" d="m947 1747q0-634 261-995t717-361 718 361q263 361 263 995t-263 995q-262 361-718 361t-717-361-261-995zm1959-1222q-181-312-458-464-276-152-664-152-634 0-1033 506-398 507-398 1332t398 1331q399 506 1033 506 388 0 664-152 277-151 458-463v531h575v-4831h-575v1856z"/>
     </defs>
     <use xlink:href="#DejaVuSans-53"/>
     <use x="63.476562" xlink:href="#DejaVuSans-63"/>
     <use x="118.457031" xlink:href="#DejaVuSans-61"/>
     <use x="179.736328" xlink:href="#DejaVuSans-6c"/>
     <use x="207.519531" xlink:href="#DejaVuSans-69"/>
     <use x="235.302734" xlink:href="#DejaVuSans-6e"/>
     <use x="298.681641" xlink:href="#DejaVuSans-67"/>
     <use x="362.158203" xlink:href="#DejaVuSans-20"/>
     <use x="393.945312" xlink:href="#DejaVuSans-6f"/>
     <use x="455.126953" xlink:href="#DejaVuSans-66"/>
     <use x="490.332031" xlink:href="#DejaVuSans-20"/>
     <use x="522.119141" xlink:href="#DejaVuSans-43"/>
     <use x="591.943359" xlink:href="#DejaVuSans-43"/>
     <use x="661.767578" xlink:href="#DejaVuSans-20"/>
     <use x="693.554688" xlink:href="#DejaVuSans-6f"/>
     <use x="754.736328" xlink:href="#DejaVuSans-6e"/>
     <use x="818.115234" xlink:href="#DejaVuSans-20"/>
     <use x="849.902344" xlink:href="#DejaVuSans-6d"/>
     <use x="947.314453" xlink:href="#DejaVuSans-69"/>
     <use x="975.097656" xlink:href="#DejaVuSans-78"/>
     <use x="1031.152344" xlink:href="#DejaVuSans-65"/>
     <use x="1092.675781" xlink:href="#DejaVuSans-64"/>
     <use x="1156.152344" xlink:href="#DejaVuSans-20"/>
     <use x="1187.939453" xlink:href="#DejaVuSans-71"/>
     <use x="1251.416016" xlink:href="#DejaVuSans-75"/>
     <use x="1314.794922" xlink:href="#DejaVuSans-65"/>
     <use x="1376.318359" xlink:href="#DejaVuSans-72"/>
     <use x="1417.431641" xlink:href="#DejaVuSans-69"/>
     <use x="1445.214844" xlink:href="#DejaVuSans-65"/>
     <use x="1506.738281" xlink:href="#DejaVuSans-73"/>
    </g>
   </g>
   <g id="legend_1">
    <g id="patch_7">
     <path d="m64.6 119.75h130.98q2 0 2-2v-72.391q0-2-2-2h-130.98q-2 0-2 2v72.391q0 2 2 2z" fill="#fff" opacity=".8" stroke="#ccc"/>
    </g>
    <g id="line2d_28">
     <path d="m66.6 51.46h10 10" fill="none" stroke="#1f77b4" stroke-linecap="square" stroke-width="1.5"/>
    </g>
    <g id="text_13">
     <!-- kiddo (k-d tree) -->
     <g transform="translate(94.6 54.96) scale(.1 -.1)">
      <defs>
       <path id="DejaVuSans-6b" transform="scale(.015625)" d="m581 4863h578v-2872l1716 1509h734l-1856-1637 1935-1863h-750l-1779 1709v-1709h-578v4863z"/>
       <path id="DejaVuSans-2d" transform="scale(.015625)" d="m313 2009h1684v-512h-1684v512z"/>
      </defs>
      <use xlink:href="#DejaVuSans-6b"/>
      <use x="57.910156" xlink:href="#DejaVuSans-69"/>
      <use x="85.693359" xlink:href="#DejaVuSans-64"/>
      <use x="149.169922" xlink:href="#DejaVuSans-64"/>
      <use x="212.646484" xlink:href="#DejaVuSans-6f"/>
      <use x="273.828125" xlink:href="#DejaVuSans-20"/>
      <use x="305.615234" xlink:href="#DejaVuSans-28"/>
      <use x="344.628906" xlink:href="#DejaVuSans-6b"/>
      <use x="402.539062" xlink:href="#DejaVuSans-2d"/>
      <use x="438.623047" xlink:href="#DejaVuSans-64"/>
      <use x="502.099609" xlink:href="#DejaVuSans-20"/>
      <use x="533.886719" xlink:href="#DejaVuSans-74"/>
      <use x="573.095703" xlink:href="#DejaVuSans-72"/>
      <use x="611.958984" xlink:href="#DejaVuSans-65"/>
      <use x="673.482422" xlink:href="#DejaVuSans-65"/>
      <use x="735.005859" xlink:href="#DejaVuSans-29"/>
     </g>
    </g>
    <g id="line2d_29">
     <path d="m66.6 66.138h10 10" fill="none" stroke="#ff7f0e" stroke-linecap="square" stroke-width="1.5"/>
    </g>
    <g id="text_14">
     <!-- forward tree (SIMD) -->
     <g transform="translate(94.6 69.638) scale(.1 -.1)">
      <defs>
       <path id="DejaVuSans-77" transform="scale(.015625)" d="m269 3500h575l719-2731 715 2731h678l719-2731 716 2731h575l-916-3500h-678l-753 2869-756-2869h-679l-915 3500z"/>
       <path id="DejaVuSans-49" transform="scale(.015625)" d="m628 4666h631v-4666h-631v4666z"/>
       <path id="DejaVuSans-4d" transform="scale(.015625)" d="m628 4666h941l1190-3175 1197 3175h941v-4666h-616v4097l-1203-3200h-634l-1203 3200v-4097h-613v4666z"/>
       <path id="DejaVuSans-44" transform="scale(.015625)" d="m1259 4147v-3628h763q966 0 1414 437 448 438 448 1382 0 937-448 1373t-1414 436h-763zm-631 519h1297q1356 0 1990-564 635-564 635-1764 0-1207-638-1773-637-565-1987-565h-1297v4666z"/>
      </defs>
      <use xlink:href="#DejaVuSans-66"/>
      <use x="35.205078" xlink:href="#DejaVuSans-6f"/>
      <use x="96.386719" xlink:href="#DejaVuSans-72"/>
      <use x="137.5" xlink:href="#DejaVuSans-77"/>
      <use x="219.287109" xlink:href="#DejaVuSans-61"/>
      <use x="280.566406" xlink:href="#DejaVuSans-72"/>
      <use x="319.929688" xlink:href="#DejaVuSans-64"/>
      <use x="383.40625" xlink:href="#DejaVuSans-20"/>
      <use x="415.193359" xlink:href="#DejaVuSans-74"/>
      <use x="454.402344" xlink:href="#DejaVuSans-72"/>
      <use x="493.265625" xlink:href="#DejaVuSans-65"/>
      <use x="554.789062" xlink:href="#DejaVuSans-65"/>
      <use x="616.3125" xlink:href="#DejaVuSans-20"/>
      <use x="648.099609" xlink:href="#DejaVuSans-28"/>
      <use x="687.113281" xlink:href="#DejaVuSans-53"/>
      <use x="750.589844" xlink:href="#DejaVuSans-49"/>
      <use x="780.082031" xlink:href="#DejaVuSans-4d"/>
      <use x="866.361328" xlink:href="#DejaVuSans-44"/>
      <use x="943.363281" xlink:href="#DejaVuSans-29"/>
     </g>
    </g>
    <g id="line2d_30">
     <path d="m66.6 80.816h10 10" fill="none" stroke="#2ca02c" stroke-linecap="square" stroke-width="1.5"/>
    </g>
    <g id="text_15">
     <!-- forest (SIMD, T=1) -->
     <g transform="translate(94.6 84.316) scale(.1 -.1)">
      <defs>
       <path id="DejaVuSans-2c" transform="scale(.015625)" d="m750 794h659v-538l-512-1e3h-403l256 1e3v538z"/>
       <path id="DejaVuSans-54" transform="scale(.015625)" d="m-19 4666h3947v-532h-1656v-4134h-634v4134h-1657v532z"/>
       <path id="DejaVuSans-3d" transform="scale(.015625)" d="m678 2906h4006v-525h-4006v525zm0-1275h4006v-531h-4006v531z"/>
      </defs>
      <use xlink:href="#DejaVuSans-66"/>
      <use x="35.205078" xlink:href="#DejaVuSans-6f"/>
      <use x="96.386719" xlink:href="#DejaVuSans-72"/>
      <use x="135.25" xlink:href="#DejaVuSans-65"/>
      <use x="196.773438" xlink:href="#DejaVuSans-73"/>
      <use x="248.873047" xlink:href="#DejaVuSans-74"/>
      <use x="288.082031" xlink:href="#DejaVuSans-20"/>
      <use x="319.869141" xlink:href="#DejaVuSans-28"/>
      <use x="358.882812" xlink:href="#DejaVuSans-53"/>
      <use x="422.359375" xlink:href="#DejaVuSans-49"/>
      <use x="451.851562" xlink:href="#DejaVuSans-4d"/>
      <use x="538.130859" xlink:href="#DejaVuSans-44"/>
      <use x="615.132812" xlink:href="#DejaVuSans-2c"/>
      <use x="646.919922" xlink:href="#DejaVuSans-20"/>
      <use x="678.707031" xlink:href="#DejaVuSans-54"/>
      <use x="739.791016" xlink:href="#DejaVuSans-3d"/>
      <use x="823.580078" xlink:href="#DejaVuSans-31"/>
      <use x="887.203125" xlink:href="#DejaVuSans-29"/>
     </g>
    </g>
    <g id="line2d_31">
     <path d="m66.6 95.494h10 10" fill="none" stroke="#d62728" stroke-linecap="square" stroke-width="1.5"/>
    </g>
    <g id="text_16">
     <!-- forest (SIMD, T=5) -->
     <g transform="translate(94.6 98.994) scale(.1 -.1)">
      <use xlink:href="#DejaVuSans-66"/>
      <use x="35.205078" xlink:href="#DejaVuSans-6f"/>
      <use x="96.386719" xlink:href="#DejaVuSans-72"/>
      <use x="135.25" xlink:href="#DejaVuSans-65"/>
      <use x="196.773438" xlink:href="#DejaVuSans-73"/>
      <use x="248.873047" xlink:href="#DejaVuSans-74"/>
      <use x="288.082031" xlink:href="#DejaVuSans-20"/>
      <use x="319.869141" xlink:href="#DejaVuSans-28"/>
      <use x="358.882812" xlink:href="#DejaVuSans-53"/>
      <use x="422.359375" xlink:href="#DejaVuSans-49"/>
      <use x="451.851562" xlink:href="#DejaVuSans-4d"/>
      <use x="538.130859" xlink:href="#DejaVuSans-44"/>
      <use x="615.132812" xlink:href="#DejaVuSans-2c"/>
      <use x="646.919922" xlink:href="#DejaVuSans-20"/>
      <use x="678.707031" xlink:href="#DejaVuSans-54"/>
      <use x="739.791016" xlink:href="#DejaVuSans-3d"/>
      <use x="823.580078" xlink:href="#DejaVuSans-35"/>
      <use x="887.203125" xlink:href="#DejaVuSans-29"/>
     </g>
    </g>
    <g id="line2d_32">
     <path d="m66.6 110.17h10 10" fill="none" stroke="#9467bd" stroke-linecap="square" stroke-width="1.5"/>
    </g>
    <g id="text_17">
     <!-- forest (SIMD, T=10) -->
     <g transform="translate(94.6 113.67) scale(.1 -.1)">
      <use xlink:href="#DejaVuSans-66"/>
      <use x="35.205078" xlink:href="#DejaVuSans-6f"/>
      <use x="96.386719" xlink:href="#DejaVuSans-72"/>
      <use x="135.25" xlink:href="#DejaVuSans-65"/>
      <use x="196.773438" xlink:href="#DejaVuSans-73"/>
      <use x="248.873047" xlink:href="#DejaVuSans-74"/>
      <use x="288.082031" xlink:href="#DejaVuSans-20"/>
      <use x="319.869141" xlink:href="#DejaVuSans-28"/>
      <use x="358.882812" xlink:href="#DejaVuSans-53"/>
      <use x="422.359375" xlink:href="#DejaVuSans-49"/>
      <use x="451.851562" xlink:href="#DejaVuSans-4d"/>
      <use x="538.130859" xlink:href="#DejaVuSans-44"/>
      <use x="615.132812" xlink:href="#DejaVuSans-2c"/>
      <use x="646.919922" xlink:href="#DejaVuSans-20"/>
      <use x="678.707031" xlink:href="#DejaVuSans-54"/>
      <use x="739.791016" xlink:href="#DejaVuSans-3d"/>
      <use x="823.580078" xlink:href="#DejaVuSans-31"/>
      <use x="887.203125" xlink:href="#DejaVuSans-30"/>
      <use x="950.826172" xlink:href="#DejaVuSans-29"/>
     </g>
    </g>
   </g>
  </g>
 </g>
 <defs>
  <clipPath id="p1f82ea0d48">
   <rect x="57.6" y="38.362" width="357.12" height="246.15"/>
  </clipPath>
 </defs>
</svg>
