<?xml version="1.0" encoding="UTF-8"?>
<!DOCTYPE svg  PUBLIC '-//W3C//DTD SVG 1.1//EN'  'http://www.w3.org/Graphics/SVG/1.1/DTD/svg11.dtd'>
<svg width="460.8pt" height="345.6pt" version="1.1" viewBox="0 0 460.8 345.6" xmlns="http://www.w3.org/2000/svg" xmlns:xlink="http://www.w3.org/1999/xlink">
 <metadata>
  <rdf:RDF xmlns:cc="http://creativecommons.org/ns#" xmlns:dc="http://purl.org/dc/elements/1.1/" xmlns:rdf="http://www.w3.org/1999/02/22-rdf-syntax-ns#">
   <cc:Work>
    <dc:type rdf:resource="http://purl.org/dc/dcmitype/StillImage"/>
    <dc:date>2024-02-21T12:13:23.962691</dc:date>
    <dc:format>image/svg+xml</dc:format>
    <dc:creator>
     <cc:Agent>
      <dc:title>Matplotlib v3.6.3, https://matplotlib.org/</dc:title>
     </cc:Agent>
    </dc:creator>
   </cc:Work>
  </rdf:RDF>
 </metadata>
 <defs>
  <style type="text/css">*{stroke-linejoin: round; stroke-linecap: butt}</style>
 </defs>
 <g id="figure_1">
  <g id="axes_1">
   <g id="matplotlib.axis_1">
    <g id="xtick_1">
     <g id="line2d_1">
      <defs>
       <path id="m86e9cf8194" d="m0 0v3.5" stroke="#000" stroke-width=".8"/>
      </defs>
      <use x="73.832727" y="307.584" stroke="#000000" stroke-width=".8" xlink:href="#m86e9cf8194"/>
     </g>
     <g id="text_1">
      <!-- 0.00 -->
      <g transform="translate(62.7 322.18) scale(.1 -.1)">
       <defs>
        <path id="DejaVuSans-30" transform="scale(.015625)" d="m2034 4250q-487 0-733-480-245-479-245-1442 0-959 245-1439 246-480 733-480 491 0 736 480 246 480 246 1439 0 963-246 1442-245 480-736 480zm0 500q785 0 1199-621 414-620 414-1801 0-1178-414-1799-414-620-1199-620-784 0-1198 620-414 621-414 1799 0 1181 414 1801 414 621 1198 621z"/>
        <path id="DejaVuSans-2e" transform="scale(.015625)" d="m684 794h660v-794h-660v794z"/>
       </defs>
       <use xlink:href="#DejaVuSans-30"/>
       <use x="63.623047" xlink:href="#DejaVuSans-2e"/>
       <use x="95.410156" xlink:href="#DejaVuSans-30"/>
       <use x="159.033203" xlink:href="#DejaVuSans-30"/>
      </g>
     </g>
    </g>
    <g id="xtick_2">
     <g id="line2d_2">
      <use x="115.602305" y="307.584" stroke="#000000" stroke-width=".8" xlink:href="#m86e9cf8194"/>
     </g>
     <g id="text_2">
      <!-- 0.25 -->
      <g transform="translate(104.47 322.18) scale(.1 -.1)">
       <defs>
        <path id="DejaVuSans-32" transform="scale(.015625)" d="m1228 531h2203v-531h-2962v531q359 372 979 998 621 627 780 809 303 340 423 576 121 236 121 464 0 372-261 606-261 235-680 235-297 0-627-103-329-103-704-313v638q381 153 712 231 332 78 607 78 725 0 1156-363 431-362 431-968 0-288-108-546-107-257-392-607-78-91-497-524-418-433-1181-1211z"/>
        <path id="DejaVuSans-35" transform="scale(.015625)" d="m691 4666h2478v-532h-1900v-1143q137 47 274 70 138 23 276 23 781 0 1237-428 457-428 457-1159 0-753-469-1171-469-417-1322-417-294 0-599 50-304 50-629 150v635q281-153 581-228t634-75q541 0 856 284 316 284 316 772 0 487-316 771-315 285-856 285-253 0-505-56-251-56-513-175v2344z"/>
       </defs>
       <use xlink:href="#DejaVuSans-30"/>
       <use x="63.623047" xlink:href="#DejaVuSans-2e"/>
       <use x="95.410156" xlink:href="#DejaVuSans-32"/>
       <use x="159.033203" xlink:href="#DejaVuSans-35"/>
      </g>
     </g>
    </g>
    <g id="xtick_3">
     <g id="line2d_3">
      <use x="157.371883" y="307.584" stroke="#000000" stroke-width=".8" xlink:href="#m86e9cf8194"/>
     </g>
     <g id="text_3">
      <!-- 0.50 -->
      <g transform="translate(146.24 322.18) scale(.1 -.1)">
       <use xlink:href="#DejaVuSans-30"/>
       <use x="63.623047" xlink:href="#DejaVuSans-2e"/>
       <use x="95.410156" xlink:href="#DejaVuSans-35"/>
       <use x="159.033203" xlink:href="#DejaVuSans-30"/>
      </g>
     </g>
    </g>
    <g id="xtick_4">
     <g id="line2d_4">
      <use x="199.141461" y="307.584" stroke="#000000" stroke-width=".8" xlink:href="#m86e9cf8194"/>
     </g>
     <g id="text_4">
      <!-- 0.75 -->
      <g transform="translate(188.01 322.18) scale(.1 -.1)">
       <defs>
        <path id="DejaVuSans-37" transform="scale(.015625)" d="m525 4666h3e3v-269l-1694-4397h-659l1594 4134h-2241v532z"/>
       </defs>
       <use xlink:href="#DejaVuSans-30"/>
       <use x="63.623047" xlink:href="#DejaVuSans-2e"/>
       <use x="95.410156" xlink:href="#DejaVuSans-37"/>
       <use x="159.033203" xlink:href="#DejaVuSans-35"/>
      </g>
     </g>
    </g>
    <g id="xtick_5">
     <g id="line2d_5">
      <use x="240.911038" y="307.584" stroke="#000000" stroke-width=".8" xlink:href="#m86e9cf8194"/>
     </g>
     <g id="text_5">
      <!-- 1.00 -->
      <g transform="translate(229.78 322.18) scale(.1 -.1)">
       <defs>
        <path id="DejaVuSans-31" transform="scale(.015625)" d="m794 531h1031v3560l-1122-225v575l1116 225h631v-4135h1031v-531h-2687v531z"/>
       </defs>
       <use xlink:href="#DejaVuSans-31"/>
       <use x="63.623047" xlink:href="#DejaVuSans-2e"/>
       <use x="95.410156" xlink:href="#DejaVuSans-30"/>
       <use x="159.033203" xlink:href="#DejaVuSans-30"/>
      </g>
     </g>
    </g>
    <g id="xtick_6">
     <g id="line2d_6">
      <use x="282.680616" y="307.584" stroke="#000000" stroke-width=".8" xlink:href="#m86e9cf8194"/>
     </g>
     <g id="text_6">
      <!-- 1.25 -->
      <g transform="translate(271.55 322.18) scale(.1 -.1)">
       <use xlink:href="#DejaVuSans-31"/>
       <use x="63.623047" xlink:href="#DejaVuSans-2e"/>
       <use x="95.410156" xlink:href="#DejaVuSans-32"/>
       <use x="159.033203" xlink:href="#DejaVuSans-35"/>
      </g>
     </g>
    </g>
    <g id="xtick_7">
     <g id="line2d_7">
      <use x="324.450194" y="307.584" stroke="#000000" stroke-width=".8" xlink:href="#m86e9cf8194"/>
     </g>
     <g id="text_7">
      <!-- 1.50 -->
      <g transform="translate(313.32 322.18) scale(.1 -.1)">
       <use xlink:href="#DejaVuSans-31"/>
       <use x="63.623047" xlink:href="#DejaVuSans-2e"/>
       <use x="95.410156" xlink:href="#DejaVuSans-35"/>
       <use x="159.033203" xlink:href="#DejaVuSans-30"/>
      </g>
     </g>
    </g>
    <g id="xtick_8">
     <g id="line2d_8">
      <use x="366.219772" y="307.584" stroke="#000000" stroke-width=".8" xlink:href="#m86e9cf8194"/>
     </g>
     <g id="text_8">
      <!-- 1.75 -->
      <g transform="translate(355.09 322.18) scale(.1 -.1)">
       <use xlink:href="#DejaVuSans-31"/>
       <use x="63.623047" xlink:href="#DejaVuSans-2e"/>
       <use x="95.410156" xlink:href="#DejaVuSans-37"/>
       <use x="159.033203" xlink:href="#DejaVuSans-35"/>
      </g>
     </g>
    </g>
    <g id="xtick_9">
     <g id="line2d_9">
      <use x="407.98935" y="307.584" stroke="#000000" stroke-width=".8" xlink:href="#m86e9cf8194"/>
     </g>
     <g id="text_9">
      <!-- 2.00 -->
      <g transform="translate(396.86 322.18) scale(.1 -.1)">
       <use xlink:href="#DejaVuSans-32"/>
       <use x="63.623047" xlink:href="#DejaVuSans-2e"/>
       <use x="95.410156" xlink:href="#DejaVuSans-30"/>
       <use x="159.033203" xlink:href="#DejaVuSans-30"/>
      </g>
     </g>
    </g>
    <g id="text_10">
     <!-- Absolute distance error (m) -->
     <g transform="translate(167.48 335.86) scale(.1 -.1)">
      <defs>
       <path id="DejaVuSans-41" transform="scale(.015625)" d="m2188 4044-857-2322h1716l-859 2322zm-357 622h716l1778-4666h-656l-425 1197h-2103l-425-1197h-666l1781 4666z"/>
       <path id="DejaVuSans-62" transform="scale(.015625)" d="m3116 1747q0 634-261 995t-717 361q-457 0-718-361t-261-995 261-995 718-361q456 0 717 361t261 995zm-1957 1222q182 312 458 463 277 152 661 152 638 0 1036-506 399-506 399-1331t-399-1332q-398-506-1036-506-384 0-661 152-276 152-458 464v-525h-578v4863h578v-1894z"/>
       <path id="DejaVuSans-73" transform="scale(.015625)" d="m2834 3397v-544q-243 125-506 187-262 63-544 63-428 0-642-131t-214-394q0-200 153-314t616-217l197-44q612-131 870-370t258-667q0-488-386-773-386-284-1061-284-281 0-586 55t-642 164v594q319-166 628-249 309-82 613-82 406 0 624 139 219 139 219 392 0 234-158 359-157 125-692 241l-200 47q-534 112-772 345-237 233-237 639 0 494 350 762 350 269 994 269 318 0 599-47 282-46 519-140z"/>
       <path id="DejaVuSans-6f" transform="scale(.015625)" d="m1959 3097q-462 0-731-361t-269-989 267-989q268-361 733-361 460 0 728 362 269 363 269 988 0 622-269 986-268 364-728 364zm0 487q750 0 1178-488 429-487 429-1349 0-859-429-1349-428-489-1178-489-753 0-1180 489-426 490-426 1349 0 862 426 1349 427 488 1180 488z"/>
       <path id="DejaVuSans-6c" transform="scale(.015625)" d="m603 4863h575v-4863h-575v4863z"/>
       <path id="DejaVuSans-75" transform="scale(.015625)" d="m544 1381v2119h575v-2097q0-497 193-746 194-248 582-248 465 0 735 297 271 297 271 810v1984h575v-3500h-575v538q-209-319-486-474-276-155-642-155-603 0-916 375-312 375-312 1097zm1447 2203z"/>
       <path id="DejaVuSans-74" transform="scale(.015625)" d="m1172 4494v-994h1184v-447h-1184v-1900q0-428 117-550t477-122h590v-481h-590q-666 0-919 248-253 249-253 905v1900h-422v447h422v994h578z"/>
       <path id="DejaVuSans-65" transform="scale(.015625)" d="m3597 1894v-281h-2644q38-594 358-905t892-311q331 0 642 81t618 244v-544q-310-131-635-200t-659-69q-838 0-1327 487-489 488-489 1320 0 859 464 1363 464 505 1252 505 706 0 1117-455 411-454 411-1235zm-575 169q-6 471-264 752-258 282-683 282-481 0-770-272t-333-766l2050 4z"/>
       <path id="DejaVuSans-64" transform="scale(.015625)" d="m2906 2969v1894h575v-4863h-575v525q-181-312-458-464-276-152-664-152-634 0-1033 506-398 507-398 1332t398 1331q399 506 1033 506 388 0 664-152 277-151 458-463zm-1959-1222q0-634 261-995t717-361 718 361q263 361 263 995t-263 995q-262 361-718 361t-717-361-261-995z"/>
       <path id="DejaVuSans-69" transform="scale(.015625)" d="m603 3500h575v-3500h-575v3500zm0 1363h575v-729h-575v729z"/>
       <path id="DejaVuSans-61" transform="scale(.015625)" d="m2194 1759q-697 0-966-159t-269-544q0-306 202-486 202-179 548-179 479 0 768 339t289 901v128h-572zm1147 238v-1997h-575v531q-197-318-491-470t-719-152q-537 0-855 302-317 302-317 808 0 590 395 890 396 300 1180 300h807v57q0 397-261 614t-733 217q-300 0-585-72-284-72-546-216v532q315 122 612 182 297 61 578 61 760 0 1135-394 375-393 375-1193z"/>
       <path id="DejaVuSans-6e" transform="scale(.015625)" d="m3513 2113v-2113h-575v2094q0 497-194 743-194 247-581 247-466 0-735-297-269-296-269-809v-1978h-578v3500h578v-544q207 316 486 472 280 156 646 156 603 0 912-373 310-373 310-1098z"/>
       <path id="DejaVuSans-63" transform="scale(.015625)" d="m3122 3366v-538q-244 135-489 202t-495 67q-560 0-870-355-309-354-309-995t309-996q310-354 870-354 250 0 495 67t489 202v-532q-241-112-499-168-257-57-548-57-791 0-1257 497-465 497-465 1341 0 856 470 1346 471 491 1290 491 265 0 518-55 253-54 491-163z"/>
       <path id="DejaVuSans-72" transform="scale(.015625)" d="m2631 2963q-97 56-211 82-114 27-251 27-488 0-749-317t-261-911v-1844h-578v3500h578v-544q182 319 472 473 291 155 707 155 59 0 131-8 72-7 159-23l3-590z"/>
       <path id="DejaVuSans-28" transform="scale(.015625)" d="m1984 4856q-418-718-622-1422-203-703-203-1425 0-721 205-1429t620-1424h-500q-468 735-701 1444t-233 1409q0 697 231 1403 232 707 703 1444h500z"/>
       <path id="DejaVuSans-6d" transform="scale(.015625)" d="m3328 2828q216 388 516 572t706 184q547 0 844-383 297-382 297-1088v-2113h-578v2094q0 503-179 746-178 244-543 244-447 0-707-297-259-296-259-809v-1978h-578v2094q0 506-178 748t-550 242q-441 0-701-298-259-298-259-808v-1978h-578v3500h578v-544q197 322 472 475t653 153q382 0 649-194 267-193 395-562z"/>
       <path id="DejaVuSans-29" transform="scale(.015625)" d="m513 4856h500q468-737 701-1444 233-706 233-1403 0-700-233-1409t-701-1444h-500q415 716 620 1424t205 1429q0 722-205 1425-205 704-620 1422z"/>
      </defs>
      <use xlink:href="#DejaVuSans-41"/>
      <use x="68.408203" xlink:href="#DejaVuSans-62"/>
      <use x="131.884766" xlink:href="#DejaVuSans-73"/>
      <use x="183.984375" xlink:href="#DejaVuSans-6f"/>
      <use x="245.166016" xlink:href="#DejaVuSans-6c"/>
      <use x="272.949219" xlink:href="#DejaVuSans-75"/>
      <use x="336.328125" xlink:href="#DejaVuSans-74"/>
      <use x="375.537109" xlink:href="#DejaVuSans-65"/>
      <use x="437.060547" xlink:href="#DejaVuSans-20"/>
      <use x="468.847656" xlink:href="#DejaVuSans-64"/>
      <use x="532.324219" xlink:href="#DejaVuSans-69"/>
      <use x="560.107422" xlink:href="#DejaVuSans-73"/>
      <use x="612.207031" xlink:href="#DejaVuSans-74"/>
      <use x="651.416016" xlink:href="#DejaVuSans-61"/>
      <use x="712.695312" xlink:href="#DejaVuSans-6e"/>
      <use x="776.074219" xlink:href="#DejaVuSans-63"/>
      <use x="831.054688" xlink:href="#DejaVuSans-65"/>
      <use x="892.578125" xlink:href="#DejaVuSans-20"/>
      <use x="924.365234" xlink:href="#DejaVuSans-65"/>
      <use x="985.888672" xlink:href="#DejaVuSans-72"/>
      <use x="1025.251953" xlink:href="#DejaVuSans-72"/>
      <use x="1064.115234" xlink:href="#DejaVuSans-6f"/>
      <use x="1125.296875" xlink:href="#DejaVuSans-72"/>
      <use x="1166.410156" xlink:href="#DejaVuSans-20"/>
      <use x="1198.197266" xlink:href="#DejaVuSans-28"/>
      <use x="1237.210938" xlink:href="#DejaVuSans-6d"/>
      <use x="1334.623047" xlink:href="#DejaVuSans-29"/>
     </g>
    </g>
   </g>
   <g id="matplotlib.axis_2">
    <g id="ytick_1">
     <g id="line2d_10">
      <defs>
       <path id="ma0f63affea" d="m0 0h-3.5" stroke="#000" stroke-width=".8"/>
      </defs>
      <use x="57.6" y="295.657463" stroke="#000000" stroke-width=".8" xlink:href="#ma0f63affea"/>
     </g>
     <g id="text_11">
      <!-- 0.0 -->
      <g transform="translate(34.697 299.46) scale(.1 -.1)">
       <use xlink:href="#DejaVuSans-30"/>
       <use x="63.623047" xlink:href="#DejaVuSans-2e"/>
       <use x="95.410156" xlink:href="#DejaVuSans-30"/>
      </g>
     </g>
    </g>
    <g id="ytick_2">
     <g id="line2d_11">
      <use x="57.6" y="247.23957" stroke="#000000" stroke-width=".8" xlink:href="#ma0f63affea"/>
     </g>
     <g id="text_12">
      <!-- 0.2 -->
      <g transform="translate(34.697 251.04) scale(.1 -.1)">
       <use xlink:href="#DejaVuSans-30"/>
       <use x="63.623047" xlink:href="#DejaVuSans-2e"/>
       <use x="95.410156" xlink:href="#DejaVuSans-32"/>
      </g>
     </g>
    </g>
    <g id="ytick_3">
     <g id="line2d_12">
      <use x="57.6" y="198.821678" stroke="#000000" stroke-width=".8" xlink:href="#ma0f63affea"/>
     </g>
     <g id="text_13">
      <!-- 0.4 -->
      <g transform="translate(34.697 202.62) scale(.1 -.1)">
       <defs>
        <path id="DejaVuSans-34" transform="scale(.015625)" d="m2419 4116-1594-2491h1594v2491zm-166 550h794v-3041h666v-525h-666v-1100h-628v1100h-2106v609l1940 2957z"/>
       </defs>
       <use xlink:href="#DejaVuSans-30"/>
       <use x="63.623047" xlink:href="#DejaVuSans-2e"/>
       <use x="95.410156" xlink:href="#DejaVuSans-34"/>
      </g>
     </g>
    </g>
    <g id="ytick_4">
     <g id="line2d_13">
      <use x="57.6" y="150.403785" stroke="#000000" stroke-width=".8" xlink:href="#ma0f63affea"/>
     </g>
     <g id="text_14">
      <!-- 0.6 -->
      <g transform="translate(34.697 154.2) scale(.1 -.1)">
       <defs>
        <path id="DejaVuSans-36" transform="scale(.015625)" d="m2113 2584q-425 0-674-291-248-290-248-796 0-503 248-796 249-292 674-292t673 292q248 293 248 796 0 506-248 796-248 291-673 291zm1253 1979v-575q-238 112-480 171-242 60-480 60-625 0-955-422-329-422-376-1275 184 272 462 417 279 145 613 145 703 0 1111-427 408-426 408-1160 0-719-425-1154-425-434-1131-434-810 0-1238 620-428 621-428 1799 0 1106 525 1764t1409 658q238 0 480-47t505-140z"/>
       </defs>
       <use xlink:href="#DejaVuSans-30"/>
       <use x="63.623047" xlink:href="#DejaVuSans-2e"/>
       <use x="95.410156" xlink:href="#DejaVuSans-36"/>
      </g>
     </g>
    </g>
    <g id="ytick_5">
     <g id="line2d_14">
      <use x="57.6" y="101.985893" stroke="#000000" stroke-width=".8" xlink:href="#ma0f63affea"/>
     </g>
     <g id="text_15">
      <!-- 0.8 -->
      <g transform="translate(34.697 105.79) scale(.1 -.1)">
       <defs>
        <path id="DejaVuSans-38" transform="scale(.015625)" d="m2034 2216q-450 0-708-241-257-241-257-662 0-422 257-663 258-241 708-241t709 242q260 243 260 662 0 421-258 662-257 241-711 241zm-631 268q-406 100-633 378-226 279-226 679 0 559 398 884 399 325 1092 325 697 0 1094-325t397-884q0-400-227-679-226-278-629-378 456-106 710-416 255-309 255-755 0-679-414-1042-414-362-1186-362-771 0-1186 362-414 363-414 1042 0 446 256 755 257 310 713 416zm-231 997q0-362 226-565 227-203 636-203 407 0 636 203 230 203 230 565 0 363-230 566-229 203-636 203-409 0-636-203-226-203-226-566z"/>
       </defs>
       <use xlink:href="#DejaVuSans-30"/>
       <use x="63.623047" xlink:href="#DejaVuSans-2e"/>
       <use x="95.410156" xlink:href="#DejaVuSans-38"/>
      </g>
     </g>
    </g>
    <g id="ytick_6">
     <g id="line2d_15">
      <use x="57.6" y="53.568" stroke="#000000" stroke-width=".8" xlink:href="#ma0f63affea"/>
     </g>
     <g id="text_16">
      <!-- 1.0 -->
      <g transform="translate(34.697 57.367) scale(.1 -.1)">
       <use xlink:href="#DejaVuSans-31"/>
       <use x="63.623047" xlink:href="#DejaVuSans-2e"/>
       <use x="95.410156" xlink:href="#DejaVuSans-30"/>
      </g>
     </g>
    </g>
    <g id="text_17">
     <!-- Frequency -->
     <g transform="translate(28.617 200.36) rotate(-90) scale(.1 -.1)">
      <defs>
       <path id="DejaVuSans-46" transform="scale(.015625)" d="m628 4666h2681v-532h-2050v-1375h1850v-531h-1850v-2228h-631v4666z"/>
       <path id="DejaVuSans-71" transform="scale(.015625)" d="m947 1747q0-634 261-995t717-361 718 361q263 361 263 995t-263 995q-262 361-718 361t-717-361-261-995zm1959-1222q-181-312-458-464-276-152-664-152-634 0-1033 506-398 507-398 1332t398 1331q399 506 1033 506 388 0 664-152 277-151 458-463v531h575v-4831h-575v1856z"/>
       <path id="DejaVuSans-79" transform="scale(.015625)" d="m2059-325q-243-625-475-815-231-191-618-191h-460v481h338q237 0 368 113 132 112 291 531l103 262-1415 3444h609l1094-2737 1094 2737h609l-1538-3825z"/>
      </defs>
      <use xlink:href="#DejaVuSans-46"/>
      <use x="50.269531" xlink:href="#DejaVuSans-72"/>
      <use x="89.132812" xlink:href="#DejaVuSans-65"/>
      <use x="150.65625" xlink:href="#DejaVuSans-71"/>
      <use x="214.132812" xlink:href="#DejaVuSans-75"/>
      <use x="277.511719" xlink:href="#DejaVuSans-65"/>
      <use x="339.035156" xlink:href="#DejaVuSans-6e"/>
      <use x="402.414062" xlink:href="#DejaVuSans-63"/>
      <use x="457.394531" xlink:href="#DejaVuSans-79"/>
     </g>
    </g>
   </g>
   <g id="line2d_16">
    <path d="m73.833 295.49 1.6273-0.36313 4.0684-1.1378 0.81367-0.41155 0.81367-0.62943 1.6273-0.75048 3.2547-1.6946 0.81367-0.50839 0.81367-0.31472 1.6273-1.0168 0.81367-0.5326 4.882-3.9945 3.2547-2.4209 4.882-4.5997 0.81367-0.96836 0.81367-0.75048 3.2547-3.8492 0.81367-0.7989 0.81367-1.0168 0.81367-0.8231 0.81367-0.60522 3.2547-3.5587 1.6273-2.0578 0.81367-0.72627 3.2547-4.6239 0.81367-0.89573 1.6273-2.3241 1.6273-2.3967 2.441-3.8976 1.6273-2.1788 2.441-4.0187 2.441-4.866 0.81367-1.0894 0.81367-1.4525 0.81367-1.1378 0.81367-1.9851 1.6273-2.784 1.6273-3.1956 3.2547-5.1323 3.2547-6.0764 2.441-3.6798 2.441-3.704 1.6273-2.3483 2.441-3.5103 0.81367-1.0894 0.81367-1.3799 0.81367-1.041 0.81367-1.2347 0.81367-1.6462 2.441-3.5103 4.0684-5.3744 4.882-7.7469 3.2547-5.9312 1.6273-3.0987 0.81367-1.2831 1.6273-2.8567 0.81367-0.94415 1.6273-2.9777 4.0684-6.488 1.6273-2.6146 1.6273-2.663 0.81367-0.87152 0.81367-1.2589 0.81367-0.89573 0.81367-1.1136 0.81367-1.3799 2.441-2.7598 1.6273-1.6946 1.6273-2.1788 0.81367-0.96836 1.6273-2.6388 1.6273-1.7915 2.441-3.3408 1.6273-1.9125 0.81367-0.62943 4.0684-4.4544 1.6273-2.0578 2.441-3.0745 1.6273-1.8157 1.6273-1.7673 2.441-2.784 0.81367-0.65364 3.2547-3.4861 0.81367-0.5568 0.81367-0.70206 0.81367-1.1378 0.81367-0.84731 0.81367-0.62943 1.6273-2.0578 1.6273-1.7915 4.0684-3.7766 2.441-1.9125 0.81367-0.65364 1.6273-1.501 4.882-3.7766 0.81367-0.77469 1.6273-0.99257 2.441-2.2756 1.6273-0.94415 3.2547-2.1546 1.6273-1.0894 4.0684-2.2514 0.81367-0.60522 4.0684-2.4209 0.81367-0.33892 5.6957-3.5103 0.81367-0.31472 0.81367-0.48418 7.323-2.7356 2.441-0.8231 8.1367-3.123 1.6273-0.45997 0.81367-0.29051 0.81367-0.41155 1.6273-0.41155 3.2547-0.72627 0.81367-0.12104 0.81367-0.2663 1.6273-0.21788 2.441-0.45997 3.2547-0.65364 1.6273-0.33892 9.764-0.94415 0.81367-0.16946h0.81367l1.6273-0.21788 2.441-0.21788 7.323-0.33892 2.441-0.16946 1.6273-0.16946 4.882-0.19367 5.6957-0.16946 13.832-0.31472 14.646-0.096835 2.441-0.072627 19.528-0.072627v0" clip-path="url(#pefe5dd6b12)" fill="none" stroke="#1f77b4" stroke-linecap="square" stroke-width="1.5"/>
   </g>
   <g id="line2d_17">
    <path d="m73.833 263.68 0.76846-29.148 1.5369-39.412 0.57635-10.386 1.1527-17.14 0.96058-12.589 2.4975-23.967 2.3054-15.881 1.9212-11.281 0.76846-3.7766 0.76846-3.7524 2.6896-9.611 0.57635-1.4767 0.38423-1.1136 1.9212-3.9218 2.1133-3.5103 0.19212-0.21788 0.57635-0.99257 0.38423-0.41155 0.57635-0.94415 0.38423-0.38734 0.38423-0.5326 0.96058-1.4767 0.76846-0.87152 0.19212-0.31472 0.38423-0.24209 0.38423-0.58102 1.1527-1.4041 0.19212-0.048418 1.5369-1.5978 1.1527-0.70206 0.76846-0.60522 0.38423-0.16946 0.38423-0.41155 0.57635-0.38734 0.19212-0.072627 0.76846-0.7989 0.76846-0.50839 0.57635-0.55681 0.38423-0.2663 2.6896-1.1136 0.38423-0.14525 0.38423-0.19367 0.76846-0.58102 0.38423-0.19367 1.1527-0.84731 0.57635-0.31472 0.38423-0.12104 0.96058-0.41155 0.57635-0.16946 1.729-0.55681 0.76846-0.072627 0.76846-0.2663 1.9212-0.31472 1.3448-0.41155 0.57635-0.048417 0.57635-0.096836 1.3448-0.24209 0.38423-0.072626 1.1527-0.19367 0.96058-0.21788 2.4975-0.5326 0.76846-0.072627 1.1527-0.19367 3.8423-0.38734 0.76846-0.072627 0.96058-0.14525 1.5369-0.096836 1.729-0.12104 1.3448-0.096836 1.3448-0.072627 0.57635-0.096835 1.1527-0.048418 4.0344-0.096836 0.19212-0.024209v0" clip-path="url(#pefe5dd6b12)" fill="none" stroke="#ff7f0e" stroke-linecap="square" stroke-width="1.5"/>
   </g>
   <g id="line2d_18">
    <path d="m73.833 251.19 0.38245-21.304 0.57367-21.376 0.95612-26.872 1.3386-28.833 0.76489-11.741 1.1473-15.881 0.95612-10.386 1.9122-16.414 1.9122-11.862 1.3386-6.3912 1.3386-5.6165 1.3386-4.1155 0.57367-1.2347 1.3386-2.4693 1.3386-2.1546 0.57367-0.72627 0.38245-0.41155 3.2508-3.1472 0.76489-0.38734 0.57367-0.41155 0.19122-0.024209 0.38245-0.38734 0.38245-0.2663 0.38245-0.12104 0.57367-0.50839 1.3386-0.58102 0.95611-0.60522 0.57367-0.048417 0.38245-0.29051 0.95612-0.2663 4.5894-1.0652 0.57367-0.14525 1.9122-0.62943 6.5016-0.72627 5.163-0.096836 0.95612-0.024209 27.727-0.096836v0" clip-path="url(#pefe5dd6b12)" fill="none" stroke="#2ca02c" stroke-linecap="square" stroke-width="1.5"/>
   </g>
   <g id="line2d_19">
    <path d="m73.833 243.46 0.52913-34.861 0.63496-25.879 0.63496-18.98 0.63496-15.421 0.74079-13.848 1.1641-16.849 0.42331-5.0597 0.74079-8.6426 1.3757-11.523 0.84661-5.0113 1.0583-6.1491 0.52913-2.3241 0.52913-2.4693 1.2699-4.7692 3.069-8.1826 0.42331-0.75048 0.31748-0.67785 0.74079-1.2831 0.95244-1.1862 0.31748-0.29051 0.31748-0.50839 0.21165-0.2663 0.31748-0.45997 0.31748-0.41155 1.2699-0.65364 0.84661-0.67785 0.42331-0.096836 0.95244-0.5326 0.42331-0.096836 2.2224-0.58101 0.31748-0.12104 4.6564-0.96836 4.7622-0.096836 0.63496-0.048417 5.2913-0.096836 0.63496-0.048418 1.6932-0.072627v0" clip-path="url(#pefe5dd6b12)" fill="none" stroke="#d62728" stroke-linecap="square" stroke-width="1.5"/>
   </g>
   <g id="line2d_20">
    <path d="m73.833 237.8 0.57372-40.429 0.76496-29.825 0.86057-22.926 0.86057-15.687 1.4343-18.592 1.2431-11.62 2.4861-17.092 0.57372-2.784 0.4781-2.2272 1.8168-7.3595 1.1474-3.5587 0.19124-0.29051 0.66934-1.5736 2.5817-4.4302 0.28686-0.33892 0.66934-0.87152 0.38248-0.33893 0.38248-0.5326 0.66934-0.38734 0.19124-0.21788 0.19124-0.16946 1.3387-0.7989 0.38248-0.33892 0.57372-0.33892 0.57372-0.21788 0.38248-0.19367 0.76495-0.096836 0.86057-0.096836 0.28686-0.048418 0.28686-0.096836 0.95619-0.14525 1.1474-0.072627 0.38248-0.19367 1.6255-0.096836 0.4781-0.024208 3.5379-0.096836 0.4781-0.024209 5.6415-0.096836v0" clip-path="url(#pefe5dd6b12)" fill="none" stroke="#9467bd" stroke-linecap="square" stroke-width="1.5"/>
   </g>
   <g id="line2d_21">
    <path d="m73.833 229.86 0.46723-34.522 0.58404-25.177 1.1681-31.835 0.81766-14.816 0.46723-6.8027 0.81766-9.7804 1.5185-13.848 0.23362-1.4767 0.70085-5.7617 0.35042-2.2272 0.46723-2.6388 1.0513-4.7934 0.23362-0.8231 0.81766-3.5587 0.70085-2.663 0.58404-2.1304 0.70085-1.8399 1.7521-3.4135 1.9857-3.0019 0.23362-0.33893 1.0513-1.3315 0.23362-0.12104 0.35042-0.33892 1.7521-0.96836 1.6353-0.58101 1.4017-0.38734 0.46723-0.096836 1.1681-0.096836 0.46723-0.096836 0.70085-0.096836 0.23362-0.072626 0.81766-0.096836 0.70085-0.048418 1.1681-0.096836 1.0513-0.12104 4.906-0.096835 0.58404-0.024209 3.8547-0.096836 0.58404-0.024209 7.8262-0.048418v0" clip-path="url(#pefe5dd6b12)" fill="none" stroke="#8c564b" stroke-linecap="square" stroke-width="1.5"/>
   </g>
   <g id="line2d_22">
    <path d="m73.833 230.34 0.36977-30.479 0.55466-26.025 0.55466-20.481 0.73954-18.592 1.2942-19.73 0.46222-5.9312 0.92443-10.071 1.5715-11.499 0.46222-2.4935 0.36977-2.0336 0.55466-2.6388 3.1431-12.734 1.0169-3.3408 0.73954-1.9609 1.7564-3.0503 1.2942-1.4525 0.46222-0.75048 0.73954-0.62943 0.73954-0.29051 0.27733-0.19367 0.27733-0.12104 0.36977-0.24209 0.6471-0.38734 0.27733-0.096835 0.83199-0.31472 0.73954-0.2663 1.2018-0.096836 0.18489-0.096836 1.4791-0.29051 1.0169-0.096836 1.4791-0.19367 0.36977-0.096836 9.9839-0.096836v0" clip-path="url(#pefe5dd6b12)" fill="none" stroke="#e377c2" stroke-linecap="square" stroke-width="1.5"/>
   </g>
   <g id="line2d_23">
    <path d="m73.833 214.61 0.37396-31.69 0.56094-26.049 0.46745-14.961 0.9349-20.36 1.9633-24.088 0.65443-5.5438 0.37396-2.8324 1.3089-8.4731 2.0568-10.604 0.74792-2.3483 2.3373-5.7859 0.46745-0.77469 0.18698-0.31472 0.37396-0.48418 0.46745-0.67785 0.28047-0.38734 0.28047-0.41155 1.5893-1.8883 0.46745-0.33893 0.37396-0.31472 0.28047-0.24209 1.4024-0.8231 0.37396-0.24209 0.28047-0.072627 1.0284-0.41155 0.46745-0.096836 1.0284-0.16946 0.9349-0.096836 0.28047-0.048418 1.3089-0.096836 0.74792-0.096836 0.84141-0.096835 0.56094-0.048418 9.723-0.096836 0.46745-0.024209 1.3089-0.048418v0" clip-path="url(#pefe5dd6b12)" fill="none" stroke="#7f7f7f" stroke-linecap="square" stroke-width="1.5"/>
   </g>
   <g id="line2d_24">
    <path d="m73.833 213.93 0.3517-31.472 0.52754-26.46 0.79132-22.079 0.87924-16.123 1.5826-18.52 2.0223-15.881 0.087924-0.29051 0.43962-3.0019 0.3517-1.743 1.143-5.447 0.17585-0.62943 0.61547-2.4451 0.3517-1.2589 0.26377-1.0652 1.3189-2.9777 0.61547-1.1862 0.17585-0.2663 1.8464-2.8567 0.61547-0.99257 0.3517-0.45997 0.3517-0.33892 0.26377-0.48418 0.26377-0.24209 0.17585-0.048418 0.3517-0.33892 1.7585-1.3315 0.26377-0.14525 0.26377-0.12104 0.26377-0.16946 0.26377-0.096836 1.0551-0.48418 0.26377-0.072627 0.79132-0.31472 3.1653-0.77469 3.1653-0.096835 0.61547-0.072627 7.2977-0.072627v0" clip-path="url(#pefe5dd6b12)" fill="none" stroke="#bcbd22" stroke-linecap="square" stroke-width="1.5"/>
   </g>
   <g id="line2d_25">
    <path d="m73.833 207.44 0.35757-32.392 0.62574-26.267 0.98331-24.378 1.2515-18.133 0.44696-4.6723 0.53635-5.5438 0.80453-7.3353 1.4303-9.853 0.71514-3.5587 0.53635-2.3725 0.62574-2.5177 0.44696-1.9125 0.53635-1.622 0.80453-2.4935 0.35757-0.65364 1.1621-2.2756 0.26818-0.21788 1.4303-1.8157h0.089392l0.80453-0.91994 0.26818-0.29051 0.17878-0.21788 0.17878-0.048418 0.35757-0.38734 0.26818-0.36313 0.98331-0.89573 0.26818-0.29051 0.62574-0.41155 0.26818-0.072626 0.17878-0.12104 0.17878-0.072627 1.1621-0.50839h0.089392l0.26818-0.19367 0.26818-0.096836 2.3242-0.5326 0.98331-0.096836 0.44696-0.024209 1.1621-0.096835 0.35757-0.072627 2.2348-0.096836 0.44696-0.024209 7.9559-0.024209v0" clip-path="url(#pefe5dd6b12)" fill="none" stroke="#17becf" stroke-linecap="square" stroke-width="1.5"/>
   </g>
   <g id="patch_3">
    <path d="m57.6 307.58v-266.11" fill="none" stroke="#000" stroke-linecap="square" stroke-width=".8"/>
   </g>
   <g id="patch_4">
    <path d="m414.72 307.58v-266.11" fill="none" stroke="#000" stroke-linecap="square" stroke-width=".8"/>
   </g>
   <g id="patch_5">
    <path d="m57.6 307.58h357.12" fill="none" stroke="#000" stroke-linecap="square" stroke-width=".8"/>
   </g>
   <g id="patch_6">
    <path d="m57.6 41.472h357.12" fill="none" stroke="#000" stroke-linecap="square" stroke-width=".8"/>
   </g>
   <g id="text_18">
    <!-- CDF of forest absolute error distribution -->
    <g transform="translate(116.79 35.472) scale(.12 -.12)">
     <defs>
      <path id="DejaVuSans-43" transform="scale(.015625)" d="m4122 4306v-665q-319 297-680 443-361 147-767 147-800 0-1225-489t-425-1414q0-922 425-1411t1225-489q406 0 767 147t680 444v-660q-331-225-702-338-370-112-782-112-1060 0-1670 648-609 649-609 1771 0 1125 609 1773 610 649 1670 649 418 0 788-111 371-111 696-333z"/>
      <path id="DejaVuSans-44" transform="scale(.015625)" d="m1259 4147v-3628h763q966 0 1414 437 448 438 448 1382 0 937-448 1373t-1414 436h-763zm-631 519h1297q1356 0 1990-564 635-564 635-1764 0-1207-638-1773-637-565-1987-565h-1297v4666z"/>
      <path id="DejaVuSans-66" transform="scale(.015625)" d="m2375 4863v-479h-550q-309 0-430-125-120-125-120-450v-309h947v-447h-947v-3053h-578v3053h-550v447h550v244q0 584 272 851 272 268 862 268h544z"/>
     </defs>
     <use xlink:href="#DejaVuSans-43"/>
     <use x="69.824219" xlink:href="#DejaVuSans-44"/>
     <use x="146.826172" xlink:href="#DejaVuSans-46"/>
     <use x="204.345703" xlink:href="#DejaVuSans-20"/>
     <use x="236.132812" xlink:href="#DejaVuSans-6f"/>
     <use x="297.314453" xlink:href="#DejaVuSans-66"/>
     <use x="332.519531" xlink:href="#DejaVuSans-20"/>
     <use x="364.306641" xlink:href="#DejaVuSans-66"/>
     <use x="399.511719" xlink:href="#DejaVuSans-6f"/>
     <use x="460.693359" xlink:href="#DejaVuSans-72"/>
     <use x="499.556641" xlink:href="#DejaVuSans-65"/>
     <use x="561.080078" xlink:href="#DejaVuSans-73"/>
     <use x="613.179688" xlink:href="#DejaVuSans-74"/>
     <use x="652.388672" xlink:href="#DejaVuSans-20"/>
     <use x="684.175781" xlink:href="#DejaVuSans-61"/>
     <use x="745.455078" xlink:href="#DejaVuSans-62"/>
     <use x="808.931641" xlink:href="#DejaVuSans-73"/>
     <use x="861.03125" xlink:href="#DejaVuSans-6f"/>
     <use x="922.212891" xlink:href="#DejaVuSans-6c"/>
     <use x="949.996094" xlink:href="#DejaVuSans-75"/>
     <use x="1013.375" xlink:href="#DejaVuSans-74"/>
     <use x="1052.583984" xlink:href="#DejaVuSans-65"/>
     <use x="1114.107422" xlink:href="#DejaVuSans-20"/>
     <use x="1145.894531" xlink:href="#DejaVuSans-65"/>
     <use x="1207.417969" xlink:href="#DejaVuSans-72"/>
     <use x="1246.78125" xlink:href="#DejaVuSans-72"/>
     <use x="1285.644531" xlink:href="#DejaVuSans-6f"/>
     <use x="1346.826172" xlink:href="#DejaVuSans-72"/>
     <use x="1387.939453" xlink:href="#DejaVuSans-20"/>
     <use x="1419.726562" xlink:href="#DejaVuSans-64"/>
     <use x="1483.203125" xlink:href="#DejaVuSans-69"/>
     <use x="1510.986328" xlink:href="#DejaVuSans-73"/>
     <use x="1563.085938" xlink:href="#DejaVuSans-74"/>
     <use x="1602.294922" xlink:href="#DejaVuSans-72"/>
     <use x="1643.408203" xlink:href="#DejaVuSans-69"/>
     <use x="1671.191406" xlink:href="#DejaVuSans-62"/>
     <use x="1734.667969" xlink:href="#DejaVuSans-75"/>
     <use x="1798.046875" xlink:href="#DejaVuSans-74"/>
     <use x="1837.255859" xlink:href="#DejaVuSans-69"/>
     <use x="1865.039062" xlink:href="#DejaVuSans-6f"/>
     <use x="1926.220703" xlink:href="#DejaVuSans-6e"/>
    </g>
   </g>
   <g id="legend_1">
    <g id="patch_7">
     <path d="m348.51 302.58h59.212q2 0 2-2v-145.78q0-2-2-2h-59.212q-2 0-2 2v145.78q0 2 2 2z" fill="#fff" opacity=".8" stroke="#ccc"/>
    </g>
    <g id="line2d_26">
     <path d="m350.51 160.9h10 10" fill="none" stroke="#1f77b4" stroke-linecap="square" stroke-width="1.5"/>
    </g>
    <g id="text_19">
     <!-- T=1 -->
     <g transform="translate(378.51 164.4) scale(.1 -.1)">
      <defs>
       <path id="DejaVuSans-54" transform="scale(.015625)" d="m-19 4666h3947v-532h-1656v-4134h-634v4134h-1657v532z"/>
       <path id="DejaVuSans-3d" transform="scale(.015625)" d="m678 2906h4006v-525h-4006v525zm0-1275h4006v-531h-4006v531z"/>
      </defs>
      <use xlink:href="#DejaVuSans-54"/>
      <use x="61.083984" xlink:href="#DejaVuSans-3d"/>
      <use x="144.873047" xlink:href="#DejaVuSans-31"/>
     </g>
    </g>
    <g id="line2d_27">
     <path d="m350.51 175.58h10 10" fill="none" stroke="#ff7f0e" stroke-linecap="square" stroke-width="1.5"/>
    </g>
    <g id="text_20">
     <!-- T=2 -->
     <g transform="translate(378.51 179.08) scale(.1 -.1)">
      <use xlink:href="#DejaVuSans-54"/>
      <use x="61.083984" xlink:href="#DejaVuSans-3d"/>
      <use x="144.873047" xlink:href="#DejaVuSans-32"/>
     </g>
    </g>
    <g id="line2d_28">
     <path d="m350.51 190.26h10 10" fill="none" stroke="#2ca02c" stroke-linecap="square" stroke-width="1.5"/>
    </g>
    <g id="text_21">
     <!-- T=3 -->
     <g transform="translate(378.51 193.76) scale(.1 -.1)">
      <defs>
       <path id="DejaVuSans-33" transform="scale(.015625)" d="m2597 2516q453-97 707-404 255-306 255-756 0-690-475-1069-475-378-1350-378-293 0-604 58t-642 174v609q262-153 574-231 313-78 654-78 593 0 904 234t311 681q0 413-289 645-289 233-804 233h-544v519h569q465 0 712 186t247 536q0 359-255 551-254 193-729 193-260 0-557-57-297-56-653-174v562q360 100 674 150t592 50q719 0 1137-327 419-326 419-882 0-388-222-655t-631-370z"/>
      </defs>
      <use xlink:href="#DejaVuSans-54"/>
      <use x="61.083984" xlink:href="#DejaVuSans-3d"/>
      <use x="144.873047" xlink:href="#DejaVuSans-33"/>
     </g>
    </g>
    <g id="line2d_29">
     <path d="m350.51 204.94h10 10" fill="none" stroke="#d62728" stroke-linecap="square" stroke-width="1.5"/>
    </g>
    <g id="text_22">
     <!-- T=4 -->
     <g transform="translate(378.51 208.44) scale(.1 -.1)">
      <use xlink:href="#DejaVuSans-54"/>
      <use x="61.083984" xlink:href="#DejaVuSans-3d"/>
      <use x="144.873047" xlink:href="#DejaVuSans-34"/>
     </g>
    </g>
    <g id="line2d_30">
     <path d="m350.51 219.61h10 10" fill="none" stroke="#9467bd" stroke-linecap="square" stroke-width="1.5"/>
    </g>
    <g id="text_23">
     <!-- T=5 -->
     <g transform="translate(378.51 223.11) scale(.1 -.1)">
      <use xlink:href="#DejaVuSans-54"/>
      <use x="61.083984" xlink:href="#DejaVuSans-3d"/>
      <use x="144.873047" xlink:href="#DejaVuSans-35"/>
     </g>
    </g>
    <g id="line2d_31">
     <path d="m350.51 234.29h10 10" fill="none" stroke="#8c564b" stroke-linecap="square" stroke-width="1.5"/>
    </g>
    <g id="text_24">
     <!-- T=6 -->
     <g transform="translate(378.51 237.79) scale(.1 -.1)">
      <use xlink:href="#DejaVuSans-54"/>
      <use x="61.083984" xlink:href="#DejaVuSans-3d"/>
      <use x="144.873047" xlink:href="#DejaVuSans-36"/>
     </g>
    </g>
    <g id="line2d_32">
     <path d="m350.51 248.97h10 10" fill="none" stroke="#e377c2" stroke-linecap="square" stroke-width="1.5"/>
    </g>
    <g id="text_25">
     <!-- T=7 -->
     <g transform="translate(378.51 252.47) scale(.1 -.1)">
      <use xlink:href="#DejaVuSans-54"/>
      <use x="61.083984" xlink:href="#DejaVuSans-3d"/>
      <use x="144.873047" xlink:href="#DejaVuSans-37"/>
     </g>
    </g>
    <g id="line2d_33">
     <path d="m350.51 263.65h10 10" fill="none" stroke="#7f7f7f" stroke-linecap="square" stroke-width="1.5"/>
    </g>
    <g id="text_26">
     <!-- T=8 -->
     <g transform="translate(378.51 267.15) scale(.1 -.1)">
      <use xlink:href="#DejaVuSans-54"/>
      <use x="61.083984" xlink:href="#DejaVuSans-3d"/>
      <use x="144.873047" xlink:href="#DejaVuSans-38"/>
     </g>
    </g>
    <g id="line2d_34">
     <path d="m350.51 278.33h10 10" fill="none" stroke="#bcbd22" stroke-linecap="square" stroke-width="1.5"/>
    </g>
    <g id="text_27">
     <!-- T=9 -->
     <g transform="translate(378.51 281.83) scale(.1 -.1)">
      <defs>
       <path id="DejaVuSans-39" transform="scale(.015625)" d="m703 97v575q238-113 481-172 244-59 479-59 625 0 954 420 330 420 377 1277-181-269-460-413-278-144-615-144-700 0-1108 423-408 424-408 1159 0 718 425 1152 425 435 1131 435 810 0 1236-621 427-620 427-1801 0-1103-524-1761-523-658-1407-658-238 0-482 47-243 47-506 141zm1256 1978q425 0 673 290 249 291 249 798 0 503-249 795-248 292-673 292t-673-292-248-795q0-507 248-798 248-290 673-290z"/>
      </defs>
      <use xlink:href="#DejaVuSans-54"/>
      <use x="61.083984" xlink:href="#DejaVuSans-3d"/>
      <use x="144.873047" xlink:href="#DejaVuSans-39"/>
     </g>
    </g>
    <g id="line2d_35">
     <path d="m350.51 293h10 10" fill="none" stroke="#17becf" stroke-linecap="square" stroke-width="1.5"/>
    </g>
    <g id="text_28">
     <!-- T=10 -->
     <g transform="translate(378.51 296.5) scale(.1 -.1)">
      <use xlink:href="#DejaVuSans-54"/>
      <use x="61.083984" xlink:href="#DejaVuSans-3d"/>
      <use x="144.873047" xlink:href="#DejaVuSans-31"/>
      <use x="208.496094" xlink:href="#DejaVuSans-30"/>
     </g>
    </g>
   </g>
  </g>
 </g>
 <defs>
  <clipPath id="pefe5dd6b12">
   <rect x="57.6" y="41.472" width="357.12" height="266.11"/>
  </clipPath>
 </defs>
</svg>
