<?xml version="1.0" encoding="UTF-8"?>
<!DOCTYPE svg  PUBLIC '-//W3C//DTD SVG 1.1//EN'  'http://www.w3.org/Graphics/SVG/1.1/DTD/svg11.dtd'>
<svg width="460.8pt" height="319.68pt" version="1.1" viewBox="0 0 460.8 319.68" xmlns="http://www.w3.org/2000/svg" xmlns:xlink="http://www.w3.org/1999/xlink">
 <metadata>
  <rdf:RDF xmlns:cc="http://creativecommons.org/ns#" xmlns:dc="http://purl.org/dc/elements/1.1/" xmlns:rdf="http://www.w3.org/1999/02/22-rdf-syntax-ns#">
   <cc:Work>
    <dc:type rdf:resource="http://purl.org/dc/dcmitype/StillImage"/>
    <dc:date>2024-06-07T11:46:36.267899</dc:date>
    <dc:format>image/svg+xml</dc:format>
    <dc:creator>
     <cc:Agent>
      <dc:title>Matplotlib v3.8.4, https://matplotlib.org/</dc:title>
     </cc:Agent>
    </dc:creator>
   </cc:Work>
  </rdf:RDF>
 </metadata>
 <defs>
  <style type="text/css">*{stroke-linejoin: round; stroke-linecap: butt}</style>
 </defs>
 <g id="figure_1">
  <g id="patch_1">
   <path d="m0 319.68h460.8v-319.68h-460.8z" fill="#fff"/>
  </g>
  <g id="axes_1">
   <g id="patch_2">
    <path d="m57.6 284.52h357.12v-246.15h-357.12z" fill="#fff"/>
   </g>
   <g id="matplotlib.axis_1">
    <g id="xtick_1">
     <g id="line2d_1">
      <defs>
       <path id="m1a80e2477c" d="m0 0v3.5" stroke="#000" stroke-width=".8"/>
      </defs>
      <use x="71.30331" y="284.5152" stroke="#000000" stroke-width=".8" xlink:href="#m1a80e2477c"/>
     </g>
     <g id="text_1">
      <!-- 0 -->
      <g transform="translate(68.122 299.11) scale(.1 -.1)">
       <defs>
        <path id="DejaVuSans-30" transform="scale(.015625)" d="m2034 4250q-487 0-733-480-245-479-245-1442 0-959 245-1439 246-480 733-480 491 0 736 480 246 480 246 1439 0 963-246 1442-245 480-736 480zm0 500q785 0 1199-621 414-620 414-1801 0-1178-414-1799-414-620-1199-620-784 0-1198 620-414 621-414 1799 0 1181 414 1801 414 621 1198 621z"/>
       </defs>
       <use xlink:href="#DejaVuSans-30"/>
      </g>
     </g>
    </g>
    <g id="xtick_2">
     <g id="line2d_2">
      <use x="122.40265" y="284.5152" stroke="#000000" stroke-width=".8" xlink:href="#m1a80e2477c"/>
     </g>
     <g id="text_2">
      <!-- 10000 -->
      <g transform="translate(106.5 299.11) scale(.1 -.1)">
       <defs>
        <path id="DejaVuSans-31" transform="scale(.015625)" d="m794 531h1031v3560l-1122-225v575l1116 225h631v-4135h1031v-531h-2687v531z"/>
       </defs>
       <use xlink:href="#DejaVuSans-31"/>
       <use x="63.623047" xlink:href="#DejaVuSans-30"/>
       <use x="127.246094" xlink:href="#DejaVuSans-30"/>
       <use x="190.869141" xlink:href="#DejaVuSans-30"/>
       <use x="254.492188" xlink:href="#DejaVuSans-30"/>
      </g>
     </g>
    </g>
    <g id="xtick_3">
     <g id="line2d_3">
      <use x="173.50199" y="284.5152" stroke="#000000" stroke-width=".8" xlink:href="#m1a80e2477c"/>
     </g>
     <g id="text_3">
      <!-- 20000 -->
      <g transform="translate(157.6 299.11) scale(.1 -.1)">
       <defs>
        <path id="DejaVuSans-32" transform="scale(.015625)" d="m1228 531h2203v-531h-2962v531q359 372 979 998 621 627 780 809 303 340 423 576 121 236 121 464 0 372-261 606-261 235-680 235-297 0-627-103-329-103-704-313v638q381 153 712 231 332 78 607 78 725 0 1156-363 431-362 431-968 0-288-108-546-107-257-392-607-78-91-497-524-418-433-1181-1211z"/>
       </defs>
       <use xlink:href="#DejaVuSans-32"/>
       <use x="63.623047" xlink:href="#DejaVuSans-30"/>
       <use x="127.246094" xlink:href="#DejaVuSans-30"/>
       <use x="190.869141" xlink:href="#DejaVuSans-30"/>
       <use x="254.492188" xlink:href="#DejaVuSans-30"/>
      </g>
     </g>
    </g>
    <g id="xtick_4">
     <g id="line2d_4">
      <use x="224.601329" y="284.5152" stroke="#000000" stroke-width=".8" xlink:href="#m1a80e2477c"/>
     </g>
     <g id="text_4">
      <!-- 30000 -->
      <g transform="translate(208.7 299.11) scale(.1 -.1)">
       <defs>
        <path id="DejaVuSans-33" transform="scale(.015625)" d="m2597 2516q453-97 707-404 255-306 255-756 0-690-475-1069-475-378-1350-378-293 0-604 58t-642 174v609q262-153 574-231 313-78 654-78 593 0 904 234t311 681q0 413-289 645-289 233-804 233h-544v519h569q465 0 712 186t247 536q0 359-255 551-254 193-729 193-260 0-557-57-297-56-653-174v562q360 100 674 150t592 50q719 0 1137-327 419-326 419-882 0-388-222-655t-631-370z"/>
       </defs>
       <use xlink:href="#DejaVuSans-33"/>
       <use x="63.623047" xlink:href="#DejaVuSans-30"/>
       <use x="127.246094" xlink:href="#DejaVuSans-30"/>
       <use x="190.869141" xlink:href="#DejaVuSans-30"/>
       <use x="254.492188" xlink:href="#DejaVuSans-30"/>
      </g>
     </g>
    </g>
    <g id="xtick_5">
     <g id="line2d_5">
      <use x="275.700669" y="284.5152" stroke="#000000" stroke-width=".8" xlink:href="#m1a80e2477c"/>
     </g>
     <g id="text_5">
      <!-- 40000 -->
      <g transform="translate(259.79 299.11) scale(.1 -.1)">
       <defs>
        <path id="DejaVuSans-34" transform="scale(.015625)" d="m2419 4116-1594-2491h1594v2491zm-166 550h794v-3041h666v-525h-666v-1100h-628v1100h-2106v609l1940 2957z"/>
       </defs>
       <use xlink:href="#DejaVuSans-34"/>
       <use x="63.623047" xlink:href="#DejaVuSans-30"/>
       <use x="127.246094" xlink:href="#DejaVuSans-30"/>
       <use x="190.869141" xlink:href="#DejaVuSans-30"/>
       <use x="254.492188" xlink:href="#DejaVuSans-30"/>
      </g>
     </g>
    </g>
    <g id="xtick_6">
     <g id="line2d_6">
      <use x="326.800009" y="284.5152" stroke="#000000" stroke-width=".8" xlink:href="#m1a80e2477c"/>
     </g>
     <g id="text_6">
      <!-- 50000 -->
      <g transform="translate(310.89 299.11) scale(.1 -.1)">
       <defs>
        <path id="DejaVuSans-35" transform="scale(.015625)" d="m691 4666h2478v-532h-1900v-1143q137 47 274 70 138 23 276 23 781 0 1237-428 457-428 457-1159 0-753-469-1171-469-417-1322-417-294 0-599 50-304 50-629 150v635q281-153 581-228t634-75q541 0 856 284 316 284 316 772 0 487-316 771-315 285-856 285-253 0-505-56-251-56-513-175v2344z"/>
       </defs>
       <use xlink:href="#DejaVuSans-35"/>
       <use x="63.623047" xlink:href="#DejaVuSans-30"/>
       <use x="127.246094" xlink:href="#DejaVuSans-30"/>
       <use x="190.869141" xlink:href="#DejaVuSans-30"/>
       <use x="254.492188" xlink:href="#DejaVuSans-30"/>
      </g>
     </g>
    </g>
    <g id="xtick_7">
     <g id="line2d_7">
      <use x="377.899349" y="284.5152" stroke="#000000" stroke-width=".8" xlink:href="#m1a80e2477c"/>
     </g>
     <g id="text_7">
      <!-- 60000 -->
      <g transform="translate(361.99 299.11) scale(.1 -.1)">
       <defs>
        <path id="DejaVuSans-36" transform="scale(.015625)" d="m2113 2584q-425 0-674-291-248-290-248-796 0-503 248-796 249-292 674-292t673 292q248 293 248 796 0 506-248 796-248 291-673 291zm1253 1979v-575q-238 112-480 171-242 60-480 60-625 0-955-422-329-422-376-1275 184 272 462 417 279 145 613 145 703 0 1111-427 408-426 408-1160 0-719-425-1154-425-434-1131-434-810 0-1238 620-428 621-428 1799 0 1106 525 1764t1409 658q238 0 480-47t505-140z"/>
       </defs>
       <use xlink:href="#DejaVuSans-36"/>
       <use x="63.623047" xlink:href="#DejaVuSans-30"/>
       <use x="127.246094" xlink:href="#DejaVuSans-30"/>
       <use x="190.869141" xlink:href="#DejaVuSans-30"/>
       <use x="254.492188" xlink:href="#DejaVuSans-30"/>
      </g>
     </g>
    </g>
    <g id="text_8">
     <!-- Number of points in cloud -->
     <g transform="translate(171.44 312.79) scale(.1 -.1)">
      <defs>
       <path id="DejaVuSans-4e" transform="scale(.015625)" d="m628 4666h850l2069-3903v3903h612v-4666h-850l-2068 3903v-3903h-613v4666z"/>
       <path id="DejaVuSans-75" transform="scale(.015625)" d="m544 1381v2119h575v-2097q0-497 193-746 194-248 582-248 465 0 735 297 271 297 271 810v1984h575v-3500h-575v538q-209-319-486-474-276-155-642-155-603 0-916 375-312 375-312 1097zm1447 2203z"/>
       <path id="DejaVuSans-6d" transform="scale(.015625)" d="m3328 2828q216 388 516 572t706 184q547 0 844-383 297-382 297-1088v-2113h-578v2094q0 503-179 746-178 244-543 244-447 0-707-297-259-296-259-809v-1978h-578v2094q0 506-178 748t-550 242q-441 0-701-298-259-298-259-808v-1978h-578v3500h578v-544q197 322 472 475t653 153q382 0 649-194 267-193 395-562z"/>
       <path id="DejaVuSans-62" transform="scale(.015625)" d="m3116 1747q0 634-261 995t-717 361q-457 0-718-361t-261-995 261-995 718-361q456 0 717 361t261 995zm-1957 1222q182 312 458 463 277 152 661 152 638 0 1036-506 399-506 399-1331t-399-1332q-398-506-1036-506-384 0-661 152-276 152-458 464v-525h-578v4863h578v-1894z"/>
       <path id="DejaVuSans-65" transform="scale(.015625)" d="m3597 1894v-281h-2644q38-594 358-905t892-311q331 0 642 81t618 244v-544q-310-131-635-200t-659-69q-838 0-1327 487-489 488-489 1320 0 859 464 1363 464 505 1252 505 706 0 1117-455 411-454 411-1235zm-575 169q-6 471-264 752-258 282-683 282-481 0-770-272t-333-766l2050 4z"/>
       <path id="DejaVuSans-72" transform="scale(.015625)" d="m2631 2963q-97 56-211 82-114 27-251 27-488 0-749-317t-261-911v-1844h-578v3500h578v-544q182 319 472 473 291 155 707 155 59 0 131-8 72-7 159-23l3-590z"/>
       <path id="DejaVuSans-6f" transform="scale(.015625)" d="m1959 3097q-462 0-731-361t-269-989 267-989q268-361 733-361 460 0 728 362 269 363 269 988 0 622-269 986-268 364-728 364zm0 487q750 0 1178-488 429-487 429-1349 0-859-429-1349-428-489-1178-489-753 0-1180 489-426 490-426 1349 0 862 426 1349 427 488 1180 488z"/>
       <path id="DejaVuSans-66" transform="scale(.015625)" d="m2375 4863v-479h-550q-309 0-430-125-120-125-120-450v-309h947v-447h-947v-3053h-578v3053h-550v447h550v244q0 584 272 851 272 268 862 268h544z"/>
       <path id="DejaVuSans-70" transform="scale(.015625)" d="m1159 525v-1856h-578v4831h578v-531q182 312 458 463 277 152 661 152 638 0 1036-506 399-506 399-1331t-399-1332q-398-506-1036-506-384 0-661 152-276 152-458 464zm1957 1222q0 634-261 995t-717 361q-457 0-718-361t-261-995 261-995 718-361q456 0 717 361t261 995z"/>
       <path id="DejaVuSans-69" transform="scale(.015625)" d="m603 3500h575v-3500h-575v3500zm0 1363h575v-729h-575v729z"/>
       <path id="DejaVuSans-6e" transform="scale(.015625)" d="m3513 2113v-2113h-575v2094q0 497-194 743-194 247-581 247-466 0-735-297-269-296-269-809v-1978h-578v3500h578v-544q207 316 486 472 280 156 646 156 603 0 912-373 310-373 310-1098z"/>
       <path id="DejaVuSans-74" transform="scale(.015625)" d="m1172 4494v-994h1184v-447h-1184v-1900q0-428 117-550t477-122h590v-481h-590q-666 0-919 248-253 249-253 905v1900h-422v447h422v994h578z"/>
       <path id="DejaVuSans-73" transform="scale(.015625)" d="m2834 3397v-544q-243 125-506 187-262 63-544 63-428 0-642-131t-214-394q0-200 153-314t616-217l197-44q612-131 870-370t258-667q0-488-386-773-386-284-1061-284-281 0-586 55t-642 164v594q319-166 628-249 309-82 613-82 406 0 624 139 219 139 219 392 0 234-158 359-157 125-692 241l-200 47q-534 112-772 345-237 233-237 639 0 494 350 762 350 269 994 269 318 0 599-47 282-46 519-140z"/>
       <path id="DejaVuSans-63" transform="scale(.015625)" d="m3122 3366v-538q-244 135-489 202t-495 67q-560 0-870-355-309-354-309-995t309-996q310-354 870-354 250 0 495 67t489 202v-532q-241-112-499-168-257-57-548-57-791 0-1257 497-465 497-465 1341 0 856 470 1346 471 491 1290 491 265 0 518-55 253-54 491-163z"/>
       <path id="DejaVuSans-6c" transform="scale(.015625)" d="m603 4863h575v-4863h-575v4863z"/>
       <path id="DejaVuSans-64" transform="scale(.015625)" d="m2906 2969v1894h575v-4863h-575v525q-181-312-458-464-276-152-664-152-634 0-1033 506-398 507-398 1332t398 1331q399 506 1033 506 388 0 664-152 277-151 458-463zm-1959-1222q0-634 261-995t717-361 718 361q263 361 263 995t-263 995q-262 361-718 361t-717-361-261-995z"/>
      </defs>
      <use xlink:href="#DejaVuSans-4e"/>
      <use x="74.804688" xlink:href="#DejaVuSans-75"/>
      <use x="138.183594" xlink:href="#DejaVuSans-6d"/>
      <use x="235.595703" xlink:href="#DejaVuSans-62"/>
      <use x="299.072266" xlink:href="#DejaVuSans-65"/>
      <use x="360.595703" xlink:href="#DejaVuSans-72"/>
      <use x="401.708984" xlink:href="#DejaVuSans-20"/>
      <use x="433.496094" xlink:href="#DejaVuSans-6f"/>
      <use x="494.677734" xlink:href="#DejaVuSans-66"/>
      <use x="529.882812" xlink:href="#DejaVuSans-20"/>
      <use x="561.669922" xlink:href="#DejaVuSans-70"/>
      <use x="625.146484" xlink:href="#DejaVuSans-6f"/>
      <use x="686.328125" xlink:href="#DejaVuSans-69"/>
      <use x="714.111328" xlink:href="#DejaVuSans-6e"/>
      <use x="777.490234" xlink:href="#DejaVuSans-74"/>
      <use x="816.699219" xlink:href="#DejaVuSans-73"/>
      <use x="868.798828" xlink:href="#DejaVuSans-20"/>
      <use x="900.585938" xlink:href="#DejaVuSans-69"/>
      <use x="928.369141" xlink:href="#DejaVuSans-6e"/>
      <use x="991.748047" xlink:href="#DejaVuSans-20"/>
      <use x="1023.535156" xlink:href="#DejaVuSans-63"/>
      <use x="1078.515625" xlink:href="#DejaVuSans-6c"/>
      <use x="1106.298828" xlink:href="#DejaVuSans-6f"/>
      <use x="1167.480469" xlink:href="#DejaVuSans-75"/>
      <use x="1230.859375" xlink:href="#DejaVuSans-64"/>
     </g>
    </g>
   </g>
   <g id="matplotlib.axis_2">
    <g id="ytick_1">
     <g id="line2d_8">
      <defs>
       <path id="m4f60b11c18" d="m0 0h-3.5" stroke="#000" stroke-width=".8"/>
      </defs>
      <use x="57.6" y="249.40201" stroke="#000000" stroke-width=".8" xlink:href="#m4f60b11c18"/>
     </g>
     <g id="text_9">
      <!-- $\mathdefault{10^{1}}$ -->
      <g transform="translate(33 253.2) scale(.1 -.1)">
       <use transform="translate(0 .68438)" xlink:href="#DejaVuSans-31"/>
       <use transform="translate(63.623 .68438)" xlink:href="#DejaVuSans-30"/>
       <use transform="translate(128.2 38.966) scale(.7)" xlink:href="#DejaVuSans-31"/>
      </g>
     </g>
    </g>
    <g id="ytick_2">
     <g id="line2d_9">
      <use x="57.6" y="122.929796" stroke="#000000" stroke-width=".8" xlink:href="#m4f60b11c18"/>
     </g>
     <g id="text_10">
      <!-- $\mathdefault{10^{2}}$ -->
      <g transform="translate(33 126.73) scale(.1 -.1)">
       <use transform="translate(0 .76562)" xlink:href="#DejaVuSans-31"/>
       <use transform="translate(63.623 .76562)" xlink:href="#DejaVuSans-30"/>
       <use transform="translate(128.2 39.047) scale(.7)" xlink:href="#DejaVuSans-32"/>
      </g>
     </g>
    </g>
    <g id="ytick_3">
     <g id="line2d_10">
      <defs>
       <path id="m4cf902fbf7" d="m0 0h-2" stroke="#000" stroke-width=".6"/>
      </defs>
      <use x="57.6" y="277.459712" stroke="#000000" stroke-width=".6" xlink:href="#m4cf902fbf7"/>
     </g>
    </g>
    <g id="ytick_4">
     <g id="line2d_11">
      <use x="57.6" y="268.992804" stroke="#000000" stroke-width=".6" xlink:href="#m4cf902fbf7"/>
     </g>
    </g>
    <g id="ytick_5">
     <g id="line2d_12">
      <use x="57.6" y="261.658434" stroke="#000000" stroke-width=".6" xlink:href="#m4cf902fbf7"/>
     </g>
    </g>
    <g id="ytick_6">
     <g id="line2d_13">
      <use x="57.6" y="255.189061" stroke="#000000" stroke-width=".6" xlink:href="#m4cf902fbf7"/>
     </g>
    </g>
    <g id="ytick_7">
     <g id="line2d_14">
      <use x="57.6" y="211.33008" stroke="#000000" stroke-width=".6" xlink:href="#m4cf902fbf7"/>
     </g>
    </g>
    <g id="ytick_8">
     <g id="line2d_15">
      <use x="57.6" y="189.059429" stroke="#000000" stroke-width=".6" xlink:href="#m4cf902fbf7"/>
     </g>
    </g>
    <g id="ytick_9">
     <g id="line2d_16">
      <use x="57.6" y="173.25815" stroke="#000000" stroke-width=".6" xlink:href="#m4cf902fbf7"/>
     </g>
    </g>
    <g id="ytick_10">
     <g id="line2d_17">
      <use x="57.6" y="161.001726" stroke="#000000" stroke-width=".6" xlink:href="#m4cf902fbf7"/>
     </g>
    </g>
    <g id="ytick_11">
     <g id="line2d_18">
      <use x="57.6" y="150.987499" stroke="#000000" stroke-width=".6" xlink:href="#m4cf902fbf7"/>
     </g>
    </g>
    <g id="ytick_12">
     <g id="line2d_19">
      <use x="57.6" y="142.52059" stroke="#000000" stroke-width=".6" xlink:href="#m4cf902fbf7"/>
     </g>
    </g>
    <g id="ytick_13">
     <g id="line2d_20">
      <use x="57.6" y="135.18622" stroke="#000000" stroke-width=".6" xlink:href="#m4cf902fbf7"/>
     </g>
    </g>
    <g id="ytick_14">
     <g id="line2d_21">
      <use x="57.6" y="128.716848" stroke="#000000" stroke-width=".6" xlink:href="#m4cf902fbf7"/>
     </g>
    </g>
    <g id="ytick_15">
     <g id="line2d_22">
      <use x="57.6" y="84.857866" stroke="#000000" stroke-width=".6" xlink:href="#m4cf902fbf7"/>
     </g>
    </g>
    <g id="ytick_16">
     <g id="line2d_23">
      <use x="57.6" y="62.587215" stroke="#000000" stroke-width=".6" xlink:href="#m4cf902fbf7"/>
     </g>
    </g>
    <g id="ytick_17">
     <g id="line2d_24">
      <use x="57.6" y="46.785937" stroke="#000000" stroke-width=".6" xlink:href="#m4cf902fbf7"/>
     </g>
    </g>
    <g id="text_11">
     <!-- Query time (ns) -->
     <g transform="translate(26.92 200.78) rotate(-90) scale(.1 -.1)">
      <defs>
       <path id="DejaVuSans-51" transform="scale(.015625)" d="m2522 4238q-688 0-1093-513-404-512-404-1397 0-881 404-1394 405-512 1093-512 687 0 1089 512 402 513 402 1394 0 885-402 1397-402 513-1089 513zm884-4154 832-909h-763l-691 747q-103-6-158-9-54-4-104-4-984 0-1574 658-589 658-589 1761 0 1106 589 1764 590 658 1574 658 981 0 1568-658 588-658 588-1764 0-812-327-1391-326-578-945-853z"/>
       <path id="DejaVuSans-79" transform="scale(.015625)" d="m2059-325q-243-625-475-815-231-191-618-191h-460v481h338q237 0 368 113 132 112 291 531l103 262-1415 3444h609l1094-2737 1094 2737h609l-1538-3825z"/>
       <path id="DejaVuSans-28" transform="scale(.015625)" d="m1984 4856q-418-718-622-1422-203-703-203-1425 0-721 205-1429t620-1424h-500q-468 735-701 1444t-233 1409q0 697 231 1403 232 707 703 1444h500z"/>
       <path id="DejaVuSans-29" transform="scale(.015625)" d="m513 4856h500q468-737 701-1444 233-706 233-1403 0-700-233-1409t-701-1444h-500q415 716 620 1424t205 1429q0 722-205 1425-205 704-620 1422z"/>
      </defs>
      <use xlink:href="#DejaVuSans-51"/>
      <use x="78.710938" xlink:href="#DejaVuSans-75"/>
      <use x="142.089844" xlink:href="#DejaVuSans-65"/>
      <use x="203.613281" xlink:href="#DejaVuSans-72"/>
      <use x="244.726562" xlink:href="#DejaVuSans-79"/>
      <use x="303.90625" xlink:href="#DejaVuSans-20"/>
      <use x="335.693359" xlink:href="#DejaVuSans-74"/>
      <use x="374.902344" xlink:href="#DejaVuSans-69"/>
      <use x="402.685547" xlink:href="#DejaVuSans-6d"/>
      <use x="500.097656" xlink:href="#DejaVuSans-65"/>
      <use x="561.621094" xlink:href="#DejaVuSans-20"/>
      <use x="593.408203" xlink:href="#DejaVuSans-28"/>
      <use x="632.421875" xlink:href="#DejaVuSans-6e"/>
      <use x="695.800781" xlink:href="#DejaVuSans-73"/>
      <use x="747.900391" xlink:href="#DejaVuSans-29"/>
     </g>
    </g>
   </g>
   <g id="line2d_25">
    <path d="m398.49 68.51-0.81248 0.35447-0.47522 0.061316-1.395-0.51106-0.55187-0.006497-0.49055-0.51496-0.55698 0.75905-1.3388 0.017882-0.67451-0.61684-0.73583 0.79695-0.73583-0.66336-0.74605 0.16539-0.78182-0.30061-0.79715 0.43621-0.7716-0.093965-1.6965-1.8904-0.78182 1.4951-0.9249 0.54155-0.90446 0.14133-0.8738-0.40693-1.0935 0.59788-1.0015-0.087204-1.1344-2.5458-1.1497 3.0496-1.1804-0.34904-2.3659-0.23188-1.2264-0.83806-1.3592 0.9607-1.3848 0.34335-1.303-0.25976-1.3081 0.33751-1.4308-13.558-1.4666 12.253-1.4206 0.43985-1.4614 0.86504-1.768-0.3964-1.722 0.3886-1.7169 0.13131-1.6403-18.542-1.6045 17.298-1.8396 1.2761-1.7374 0.34-1.8549-0.25784-1.9878-0.017025-5.4932 0.58988-1.9418-0.16074-1.7834-20.351-2.0133 19.987-1.9111 0.75701-2.0286-0.23168-2.1819-0.53534-2.1104 0.44129-2.0491-0.94624-2.1002 0.30635-1.8549 0.024211-2.0746-0.12645-2.1871-2.1351-2.4425 0.34923-2.1513-0.075235-2.3148 0.15941-2.2484-0.61333-2.09-0.35148-2.0031-1.3061-4.4712-1.4684-2.2126-1.2036-2.233-0.15463-2.233-1.1141-2.2177 0.134-2.3966-0.67563-2.3761-0.035022-2.3659-0.33807-2.1104 0.038101-4.1339 2.0096-2.0644-0.19666-2.1922-0.065339-2.1615 0.18054-1.952 0.62024-1.9673 0.80119-2.0951-0.38582-4.369 0.49123-2.0184-1.7362-2.2024 1.0681-2.0695 0.19297-1.9316-0.28431-1.9827 0.09042-2.1871-2.7089-1.998 1.2049-1.8345 0.90637-2.1922-0.30527-1.906-0.61114-1.8907 30.672-3.9551 0.95947-2.7287 0.37686-2.0695 0.46237-2.1717-1.1566-1.8856 0.07323-2.3761 0.2916-1.9111-1.9701-1.6096 0.18999-1.768-0.7879-1.7374-0.19784-1.5636-0.007318-2.0491-0.27532-5.4625-0.35048-2.0695-1.1579-1.9418-0.048401-2.1155-2.0247-2.233-0.63928-1.9878-0.10416-1.625-0.75408-3.4645-0.86328-2.1104 0.85026-2.0133-0.42534-1.6454-0.51082-1.9367 0.81076-1.7731-0.26657-1.722 0.58344-1.4052 1.0543-1.6454 0.64112-1.8242-0.41787-1.5534 0.557-1.6914 0.16742-1.8702-0.032906-1.7987 0.1108-1.6761 0.9244-1.625-0.76023-1.5279 0.33479 1.0884-0.01218-1.7425-0.065082-1.533-0.042009-1.722 0.56564-1.4717-1.2292-1.6914-0.11335-2.1462 1.6012-1.6709 1.8746-3.4185-1.116-2.0082-0.026421-1.7323-1.3217-1.4972 1.0499-1.6045-0.037471-2.0031-0.53281-1.257 0.34014-1.4206-0.28639-1.3644 0.81894-2.5805-1.6397-1.349 0.89091-1.3899-0.73128-1.4359 0.70228-1.4666-0.27941-1.5943 0.94121-1.303 0.32052-2.417-0.87712-1.5585 0.5594-1.4768 0.16189-1.2417 0.28979-1.1293 0.4305-1.1037-0.42393-1.1089-2.2417-0.99644 0.62506-1.0629 16.332-0.99644-0.93925-0.86869 1.6924-0.98622 0.59054-1.0986-1.1993 0.42923 0.28097-0.91979 0.24553-0.84825 0.61667-0.86869-0.75024-0.89424-0.007501-0.84825 0.72114-0.89424-0.28314-1.1293-0.062304-2.8105-0.027707-1.441-0.54843-1.4666 1.9131-1.0424-23.829-1.2877 24.434-1.2519-0.4065-1.2366 9.7138-2.0695 0.99733-0.9249-0.30594-0.70517 1.2239-0.67962 0.31147-1.3848 0.46711-0.60297-1.1029-0.88402 1.1806-0.31171-1.1825-0.5672 0.81924-0.66429 1.4405-0.53654 0.15139-0.72561-0.29898 0.061319 1.2473-0.27594-2.2233-0.51099 3.4188-0.27594 0.4641-0.48033-0.43104-0.66429-1.732-0.99133 2.3925 0.47522-1.7094-0.33726-0.39235-1.0578 2.9032-0.12264-0.67805-0.36792-0.379-0.0511 0.70866-0.28616 0.88519-0.43434-3.7499-0.45478 7.3555-0.45989 2.5816-0.11753-1.0047-0.16863 0.54178-0.076649-0.47854-0.45478-0.84517-0.18907 2.283-0.18396-0.83475-0.33215 2.7613-0.051099-5.398-0.081759 3.1809-0.02044-0.34463-0.1022-0.34531-0.22484 18.39v0" clip-path="url(#p33d6529d2e)" fill="none" stroke="#1f77b4" stroke-linecap="square" stroke-width="1.5"/>
   </g>
   <g id="line2d_26">
    <path d="m398.49 233.24-0.4088 0.41642-0.40368-1.288-0.47522 0.44458-0.89424 1.0653-0.50077-0.46274-0.55187-0.35402-0.49055-1.7496-0.55698 1.7832-0.63363-0.42814-0.70517 0.63912-0.67451-0.070643-1.4717 0.3095-0.74605-0.38657-0.78182 0.047357-0.79715-0.40834-0.7716 0.55923-0.75116-0.050983-0.94534 0.15637-0.78182-0.4099-0.9249-0.029843-0.90446-0.63396-0.8738 0.36554-1.0935 0.98302-1.0015-0.51989-1.1344-0.083343-4.696 0.27796-1.2264-0.54692-1.3592 0.11162-1.3848 0.34941-1.303-0.58771-1.3081-0.046398-1.4308 0.56355-1.4666 0.00428-1.4206-0.38648-1.4614 0.38817-1.768-0.4501-1.722 0.43321-1.7169-0.24966-1.6403 0.2678-3.4441 0.12315-1.7374-0.35181-1.8549-0.65582-1.9878 1.0952-1.722-0.17083-1.8345-0.46128-1.9367 0.40472-1.9418 0.053407-1.7834-0.30801-2.0133 0.48041-1.9111-0.47929-2.0286 0.39963-2.1819-0.37832-2.1104 0.11709-2.0491-0.2979-3.9551 0.42628-2.0746 0.028732-2.1871-0.48563-2.4425 0.41929-2.1513-1.1226-2.3148 0.81187-2.2484-25.085-2.09 25.053-2.0031 0.4289-2.279-1.5469-2.1922 1.4291-2.2126-0.48132-2.233-0.051054-2.233 0.46929-2.2177 0.008766-2.3966-1.1825-2.3761 1.1614-4.4763 0.037538-2.0235-0.40772-2.1104 0.14426-2.0644-0.16367-2.1922 0.26974-2.1615-0.13951-1.952-5.7047-1.9673 6.2768-2.0951-0.19772-2.2126-0.044341-2.1564-1.2718-2.0184 0.81882-2.2024 0.20097-2.0695-0.62276-1.9316 0.94757-1.9827-0.29344-2.1871 0.17473-1.998-0.098599-1.8345-0.74742-2.1922 1.1839-1.906-0.77419-1.8907 5.1618-1.9469 0.46168-2.0082-0.3658-2.7287 0.58328-2.0695-0.91007-2.1717 0.24084-1.8856 0.39792-2.3761-0.81462-1.9111 0.25448-1.6096 0.78435-1.768-0.3051-1.7374 0.40395-3.6127-0.91117-5.4625 0.66456-2.0695-2.9587-1.9418 3.083-2.1155-0.070186-2.233-2.3721-1.9878 2.535-1.625-0.74973-1.6403-0.98975-1.8242 0.22887-2.1104 1.7725-2.0133-1.9232-1.6454 1.2213-1.9367 0.65314-1.7731-0.31398-1.722 0.18522-1.4052-0.33894-1.6454-1.0206-1.8242-1.4363-1.5534 2.5225-1.6914-0.19255-3.6689 0.23226-1.6761-0.073945-1.625-0.43657-1.5279 1.0409 1.0884-1.2634-1.7425 1.1555-1.533-0.60047-1.722 0.21206-1.4717 0.38255-1.6914-0.65871-2.1462 3.7222-1.6709 0.6905-3.4185-0.75836-2.0082 0.19033-1.7323 0.54587-1.4972-1.9237-1.6045 1.991-2.0031-0.62757-1.257 0.50065-1.4206 0.14242-1.3644-0.42442-1.4052-1.6405-1.1753 1.6863-1.349-0.25451-1.3899 0.7205-1.4359-0.60862-1.4666 0.13201-1.5943 0.37764-1.303-0.9352-1.1344 0.68577-1.2826 0.25344-1.5585-0.94407-1.4768 1.0649-1.2417-2.6558-1.1293-0.44505-1.1037 2.8935-1.1089-0.44382-0.99644-0.051325-1.0629 5.4225-0.99644-0.86356-0.86869 0.17468-0.98622 0.80634-1.0986 0.070538 0.42923-0.17793-0.91979-0.73468-0.84825 1.0187-0.86869-0.20956-0.89424 0.31574-0.84825-0.19722-2.0235-0.20382-2.8105 0.10518-1.441-0.76954-1.4666 0.77114-1.0424-1.3991-1.2877 1.3418-1.2519-3.271-1.2366 6.972-2.0695 0.22358-0.9249-0.053473-0.70517-1.1772-0.67962 1.0654-1.3848-0.79769-0.60297 0.94492-0.88402 0.5631-0.87891-1.3173-0.66429 0.21871-0.53654 0.52827-0.72561 0.38713 0.061319-0.39952-0.27594 0.10027-0.2044 7.7831-0.3066 1.6238-0.27594 0.17719-0.48033-0.94134-0.33215 0.64628-0.33214 0.35381-0.99133-0.15292 0.47522-0.34634-0.33726 0.44182-0.4088 0.018331-0.64896-1.761-0.12264 1.6588-0.36792-0.076506-0.0511-5.2398-0.28616 0.056644-0.28105 5.2935-0.1533-0.045011-0.31171 5.0818-0.14308-0.14276-0.16863-0.5447-0.071539 0.72576-0.21973-0.13938-0.11753-1.1161-0.16863 0.42406-0.076649 0.64465-0.45478-0.5321-0.18907-0.048321-0.18396-1.1859-0.097089 1.1711-0.28616 0.5672-0.081759-1.3501-0.02044 1.3342-0.1022-0.51025-0.097088 0.63835-0.06643 7.2997-0.061319-1.604" clip-path="url(#p33d6529d2e)" fill="none" stroke="#ff7f0e" stroke-linecap="square" stroke-width="1.5"/>
   </g>
   <g id="line2d_27">
    <path d="m398.49 237.01-0.4088 0.21075-1.3286-0.039818-0.44456-0.30464-0.50077-0.035962-0.55187 0.42948-0.49055-0.58137-0.55698 0.41608-0.63363-0.008215-0.70517-0.3438-0.67451-0.019684-0.73583 0.16032-0.73583-0.4072-0.74605 0.77042-0.78182-0.3389-0.79715 0.22369-0.7716-0.27387-0.75116 0.038388-0.94534-0.2836-0.78182 0.55344-2.7032-0.19032-1.0935 0.27252-1.0015-0.40546-1.1344 0.31454-2.3301-0.78861-1.0629 0.81814-1.303-0.31411-1.2264 0.34038-1.3592-0.26307-2.6878 0.28863-1.3081-0.086663-1.4308-0.32005-1.4666 0.070626-1.4206 0.22838-1.4614-0.34468-1.768 0.083801-1.722 0.283-1.7169 0.049126-1.6403-0.23531-1.6045-0.11114-1.8396 0.062226-1.7374 0.20765-3.8427 0.081173-1.722-0.26256-3.7711 0.22734-1.9418-0.34-1.7834 0.38575-2.0133-0.45989-1.9111 0.38971-2.0286 0.11076-2.1819-0.096613-2.1104 0.053734-2.0491-0.44654-2.1002 0.35472-1.8549-0.1821-2.0746-2.8714-2.1871 2.95-2.4425-0.11474-2.1513 0.24145-2.3148 0.025885-2.2484-11.056-2.09 11.123-2.0031-1.017-2.279-0.00868-2.1922 1.0124-2.2126-0.43006-2.233 0.43381-2.233-1.0298-2.2177 0.62232-2.3966 0.34322-2.3761-0.38924-4.4763 0.10328-2.0235 0.29987-6.367 0.009198-2.1615-0.33169-1.952 0.39236-1.9673-0.89624-2.0951-1.7802-2.2126 2.2685-2.1564 0.31152-2.0184 0.061475-2.2024-4.5746-2.0695 4.5727-1.9316-0.3856-1.9827-0.24329-2.1871 0.25242-1.998-0.55574-1.8345 0.90146-2.1922-0.25956-1.906 0.26585-1.8907 2.8903-1.9469-0.011096-2.0082 0.42185-2.7287-0.93494-2.0695 0.90269-4.0573 0.014259-2.3761-1.1833-1.9111 1.2179-1.6096 0.027261-1.768-2.3034-1.7374-0.1547-1.5636 2.3259-2.0491-0.88991-5.4625 0.82874-2.0695 0.098907-1.9418-0.71286-2.1155 0.69309-2.233-0.020404-1.9878-3.1978-1.625 3.1213-1.6403 0.20668-1.8242-0.056046-2.1104-0.91407-2.0133 0.96767-1.6454-0.97336-1.9367 0.76464-1.7731 0.041654-1.722-2.9095-1.4052-0.054085-1.6454 2.282-1.8242 0.70055-1.5534-2.1646-1.6914 2.3238-1.8702-1.4942-1.7987 1.2243-3.301 0.22009-1.5279-4.2598 1.0884 4.1087-1.7425-4.9289-1.533 4.0505-1.722 1.0891-1.4717-0.29844-1.6914 0.19702-2.1462 3.2338-1.6709 0.25488-3.4185-0.40763-2.0082-0.034082-1.7323 0.40314-1.4972 0.015591-1.6045-2.9456-2.0031 2.5824-1.257 0.15539-1.4206 0.040894-1.3644-0.17495-1.4052 0.35552-1.1753-3.2261-1.349-0.5946-1.3899 3.2448-4.4967 0.61511-1.303-0.077301-1.1344 0.079355-1.2826-0.25721-1.5585 0.25995-1.4768-0.2921-1.2417-2.1123-1.1293 0.33536-1.1037 1.7809-1.1089-0.77793-0.99644 0.63483-1.0629 4.1692-0.99644-0.084065-0.86869-0.93719-0.98622 0.6725-1.0986-3.6897 0.42923 3.8144-0.91979 0.11734-0.84825-0.28408-0.86869-3.486-0.89424 3.6134-0.84825 0.14182-0.89424-0.30276-1.1293 0.33729-2.8105-0.16555-1.441 0.083807-1.4666 0.24309-1.0424-1.1356-1.2877 1.0652-1.2519-0.16465-1.2366 3.9834-1.3848-3.688-0.68473 3.8266-1.6301-0.061087-0.67962-1.439-1.3848-3.591-0.60297 4.9891-0.88402-2.8334-0.31171 2.6602-0.5672 0.19124-0.66429-3.6429-0.53654 3.5374-0.72561 0.14792 0.061319-0.39556-0.27594 0.003438-0.2044 4.626-0.58253 0.011563-0.48033-1.0275-0.33215 1.0115-1.3235 0.049154 0.47522-5.3821-0.33726 5.0279-1.0578 0.3482-0.12264-0.01361-0.36792-0.45686-0.0511 0.14831-0.28616-6.5921-0.28105 6.4386-0.1533 0.26749-0.31171 4.8221-0.14308-0.32528-0.16863 0.29864-0.071539-0.46084-0.21973 0.44808-0.11753-0.090721-0.16863 0.069829-0.076649-0.37654-0.45478 0.38264-0.96067-0.001294-0.035769-0.41199-0.061319 0.43622-0.06643 5.0144-0.061319-1.11" clip-path="url(#p33d6529d2e)" fill="none" stroke="#2ca02c" stroke-linecap="square" stroke-width="1.5"/>
   </g>
   <g id="patch_3">
    <path d="m57.6 284.52v-246.15" fill="none" stroke="#000" stroke-linecap="square" stroke-width=".8"/>
   </g>
   <g id="patch_4">
    <path d="m414.72 284.52v-246.15" fill="none" stroke="#000" stroke-linecap="square" stroke-width=".8"/>
   </g>
   <g id="patch_5">
    <path d="m57.6 284.52h357.12" fill="none" stroke="#000" stroke-linecap="square" stroke-width=".8"/>
   </g>
   <g id="patch_6">
    <path d="m57.6 38.362h357.12" fill="none" stroke="#000" stroke-linecap="square" stroke-width=".8"/>
   </g>
   <g id="text_12">
    <!-- Scaling of CC on mixed queries -->
    <g transform="translate(142.63 32.362) scale(.12 -.12)">
     <defs>
      <path id="DejaVuSans-53" transform="scale(.015625)" d="m3425 4513v-616q-359 172-678 256-319 85-616 85-515 0-795-200t-280-569q0-310 186-468 186-157 705-254l381-78q706-135 1042-474t336-907q0-679-455-1029-454-350-1332-350-331 0-705 75-373 75-773 222v650q384-215 753-325 369-109 725-109 540 0 834 212 294 213 294 607 0 343-211 537t-692 291l-385 75q-706 140-1022 440-315 300-315 835 0 619 436 975t1201 356q329 0 669-60 341-59 697-177z"/>
      <path id="DejaVuSans-61" transform="scale(.015625)" d="m2194 1759q-697 0-966-159t-269-544q0-306 202-486 202-179 548-179 479 0 768 339t289 901v128h-572zm1147 238v-1997h-575v531q-197-318-491-470t-719-152q-537 0-855 302-317 302-317 808 0 590 395 890 396 300 1180 300h807v57q0 397-261 614t-733 217q-300 0-585-72-284-72-546-216v532q315 122 612 182 297 61 578 61 760 0 1135-394 375-393 375-1193z"/>
      <path id="DejaVuSans-67" transform="scale(.015625)" d="m2906 1791q0 625-258 968-257 344-723 344-462 0-720-344-258-343-258-968 0-622 258-966t720-344q466 0 723 344 258 344 258 966zm575-1357q0-893-397-1329-396-436-1215-436-303 0-572 45t-522 139v559q253-137 500-202 247-66 503-66 566 0 847 295t281 892v285q-178-310-456-463t-666-153q-643 0-1037 490-394 491-394 1301 0 812 394 1302 394 491 1037 491 388 0 666-153t456-462v531h575v-3066z"/>
      <path id="DejaVuSans-43" transform="scale(.015625)" d="m4122 4306v-665q-319 297-680 443-361 147-767 147-800 0-1225-489t-425-1414q0-922 425-1411t1225-489q406 0 767 147t680 444v-660q-331-225-702-338-370-112-782-112-1060 0-1670 648-609 649-609 1771 0 1125 609 1773 610 649 1670 649 418 0 788-111 371-111 696-333z"/>
      <path id="DejaVuSans-78" transform="scale(.015625)" d="m3513 3500-1266-1703 1331-1797h-678l-1019 1375-1018-1375h-679l1360 1831-1244 1669h678l928-1247 928 1247h679z"/>
      <path id="DejaVuSans-71" transform="scale(.015625)" d="m947 1747q0-634 261-995t717-361 718 361q263 361 263 995t-263 995q-262 361-718 361t-717-361-261-995zm1959-1222q-181-312-458-464-276-152-664-152-634 0-1033 506-398 507-398 1332t398 1331q399 506 1033 506 388 0 664-152 277-151 458-463v531h575v-4831h-575v1856z"/>
     </defs>
     <use xlink:href="#DejaVuSans-53"/>
     <use x="63.476562" xlink:href="#DejaVuSans-63"/>
     <use x="118.457031" xlink:href="#DejaVuSans-61"/>
     <use x="179.736328" xlink:href="#DejaVuSans-6c"/>
     <use x="207.519531" xlink:href="#DejaVuSans-69"/>
     <use x="235.302734" xlink:href="#DejaVuSans-6e"/>
     <use x="298.681641" xlink:href="#DejaVuSans-67"/>
     <use x="362.158203" xlink:href="#DejaVuSans-20"/>
     <use x="393.945312" xlink:href="#DejaVuSans-6f"/>
     <use x="455.126953" xlink:href="#DejaVuSans-66"/>
     <use x="490.332031" xlink:href="#DejaVuSans-20"/>
     <use x="522.119141" xlink:href="#DejaVuSans-43"/>
     <use x="591.943359" xlink:href="#DejaVuSans-43"/>
     <use x="661.767578" xlink:href="#DejaVuSans-20"/>
     <use x="693.554688" xlink:href="#DejaVuSans-6f"/>
     <use x="754.736328" xlink:href="#DejaVuSans-6e"/>
     <use x="818.115234" xlink:href="#DejaVuSans-20"/>
     <use x="849.902344" xlink:href="#DejaVuSans-6d"/>
     <use x="947.314453" xlink:href="#DejaVuSans-69"/>
     <use x="975.097656" xlink:href="#DejaVuSans-78"/>
     <use x="1031.152344" xlink:href="#DejaVuSans-65"/>
     <use x="1092.675781" xlink:href="#DejaVuSans-64"/>
     <use x="1156.152344" xlink:href="#DejaVuSans-20"/>
     <use x="1187.939453" xlink:href="#DejaVuSans-71"/>
     <use x="1251.416016" xlink:href="#DejaVuSans-75"/>
     <use x="1314.794922" xlink:href="#DejaVuSans-65"/>
     <use x="1376.318359" xlink:href="#DejaVuSans-72"/>
     <use x="1417.431641" xlink:href="#DejaVuSans-69"/>
     <use x="1445.214844" xlink:href="#DejaVuSans-65"/>
     <use x="1506.738281" xlink:href="#DejaVuSans-73"/>
    </g>
   </g>
   <g id="legend_1">
    <g id="patch_7">
     <path d="m64.6 90.396h156.76q2 0 2-2v-43.034q0-2-2-2h-156.76q-2 0-2 2v43.034q0 2 2 2z" fill="#fff" opacity=".8" stroke="#ccc"/>
    </g>
    <g id="line2d_28">
     <path d="m66.6 51.46h10 10" fill="none" stroke="#1f77b4" stroke-linecap="square" stroke-width="1.5"/>
    </g>
    <g id="text_13">
     <!-- kiddo (k-d tree) -->
     <g transform="translate(94.6 54.96) scale(.1 -.1)">
      <defs>
       <path id="DejaVuSans-6b" transform="scale(.015625)" d="m581 4863h578v-2872l1716 1509h734l-1856-1637 1935-1863h-750l-1779 1709v-1709h-578v4863z"/>
       <path id="DejaVuSans-2d" transform="scale(.015625)" d="m313 2009h1684v-512h-1684v512z"/>
      </defs>
      <use xlink:href="#DejaVuSans-6b"/>
      <use x="57.910156" xlink:href="#DejaVuSans-69"/>
      <use x="85.693359" xlink:href="#DejaVuSans-64"/>
      <use x="149.169922" xlink:href="#DejaVuSans-64"/>
      <use x="212.646484" xlink:href="#DejaVuSans-6f"/>
      <use x="273.828125" xlink:href="#DejaVuSans-20"/>
      <use x="305.615234" xlink:href="#DejaVuSans-28"/>
      <use x="344.628906" xlink:href="#DejaVuSans-6b"/>
      <use x="402.539062" xlink:href="#DejaVuSans-2d"/>
      <use x="438.623047" xlink:href="#DejaVuSans-64"/>
      <use x="502.099609" xlink:href="#DejaVuSans-20"/>
      <use x="533.886719" xlink:href="#DejaVuSans-74"/>
      <use x="573.095703" xlink:href="#DejaVuSans-72"/>
      <use x="611.958984" xlink:href="#DejaVuSans-65"/>
      <use x="673.482422" xlink:href="#DejaVuSans-65"/>
      <use x="735.005859" xlink:href="#DejaVuSans-29"/>
     </g>
    </g>
    <g id="line2d_29">
     <path d="m66.6 66.138h10 10" fill="none" stroke="#ff7f0e" stroke-linecap="square" stroke-width="1.5"/>
    </g>
    <g id="text_14">
     <!-- forward tree (sequential) -->
     <g transform="translate(94.6 69.638) scale(.1 -.1)">
      <defs>
       <path id="DejaVuSans-77" transform="scale(.015625)" d="m269 3500h575l719-2731 715 2731h678l719-2731 716 2731h575l-916-3500h-678l-753 2869-756-2869h-679l-915 3500z"/>
      </defs>
      <use xlink:href="#DejaVuSans-66"/>
      <use x="35.205078" xlink:href="#DejaVuSans-6f"/>
      <use x="96.386719" xlink:href="#DejaVuSans-72"/>
      <use x="137.5" xlink:href="#DejaVuSans-77"/>
      <use x="219.287109" xlink:href="#DejaVuSans-61"/>
      <use x="280.566406" xlink:href="#DejaVuSans-72"/>
      <use x="319.929688" xlink:href="#DejaVuSans-64"/>
      <use x="383.40625" xlink:href="#DejaVuSans-20"/>
      <use x="415.193359" xlink:href="#DejaVuSans-74"/>
      <use x="454.402344" xlink:href="#DejaVuSans-72"/>
      <use x="493.265625" xlink:href="#DejaVuSans-65"/>
      <use x="554.789062" xlink:href="#DejaVuSans-65"/>
      <use x="616.3125" xlink:href="#DejaVuSans-20"/>
      <use x="648.099609" xlink:href="#DejaVuSans-28"/>
      <use x="687.113281" xlink:href="#DejaVuSans-73"/>
      <use x="739.212891" xlink:href="#DejaVuSans-65"/>
      <use x="800.736328" xlink:href="#DejaVuSans-71"/>
      <use x="864.212891" xlink:href="#DejaVuSans-75"/>
      <use x="927.591797" xlink:href="#DejaVuSans-65"/>
      <use x="989.115234" xlink:href="#DejaVuSans-6e"/>
      <use x="1052.494141" xlink:href="#DejaVuSans-74"/>
      <use x="1091.703125" xlink:href="#DejaVuSans-69"/>
      <use x="1119.486328" xlink:href="#DejaVuSans-61"/>
      <use x="1180.765625" xlink:href="#DejaVuSans-6c"/>
      <use x="1208.548828" xlink:href="#DejaVuSans-29"/>
     </g>
    </g>
    <g id="line2d_30">
     <path d="m66.6 80.816h10 10" fill="none" stroke="#2ca02c" stroke-linecap="square" stroke-width="1.5"/>
    </g>
    <g id="text_15">
     <!-- forward tree (SIMD) -->
     <g transform="translate(94.6 84.316) scale(.1 -.1)">
      <defs>
       <path id="DejaVuSans-49" transform="scale(.015625)" d="m628 4666h631v-4666h-631v4666z"/>
       <path id="DejaVuSans-4d" transform="scale(.015625)" d="m628 4666h941l1190-3175 1197 3175h941v-4666h-616v4097l-1203-3200h-634l-1203 3200v-4097h-613v4666z"/>
       <path id="DejaVuSans-44" transform="scale(.015625)" d="m1259 4147v-3628h763q966 0 1414 437 448 438 448 1382 0 937-448 1373t-1414 436h-763zm-631 519h1297q1356 0 1990-564 635-564 635-1764 0-1207-638-1773-637-565-1987-565h-1297v4666z"/>
      </defs>
      <use xlink:href="#DejaVuSans-66"/>
      <use x="35.205078" xlink:href="#DejaVuSans-6f"/>
      <use x="96.386719" xlink:href="#DejaVuSans-72"/>
      <use x="137.5" xlink:href="#DejaVuSans-77"/>
      <use x="219.287109" xlink:href="#DejaVuSans-61"/>
      <use x="280.566406" xlink:href="#DejaVuSans-72"/>
      <use x="319.929688" xlink:href="#DejaVuSans-64"/>
      <use x="383.40625" xlink:href="#DejaVuSans-20"/>
      <use x="415.193359" xlink:href="#DejaVuSans-74"/>
      <use x="454.402344" xlink:href="#DejaVuSans-72"/>
      <use x="493.265625" xlink:href="#DejaVuSans-65"/>
      <use x="554.789062" xlink:href="#DejaVuSans-65"/>
      <use x="616.3125" xlink:href="#DejaVuSans-20"/>
      <use x="648.099609" xlink:href="#DejaVuSans-28"/>
      <use x="687.113281" xlink:href="#DejaVuSans-53"/>
      <use x="750.589844" xlink:href="#DejaVuSans-49"/>
      <use x="780.082031" xlink:href="#DejaVuSans-4d"/>
      <use x="866.361328" xlink:href="#DejaVuSans-44"/>
      <use x="943.363281" xlink:href="#DejaVuSans-29"/>
     </g>
    </g>
   </g>
  </g>
 </g>
 <defs>
  <clipPath id="p33d6529d2e">
   <rect x="57.6" y="38.362" width="357.12" height="246.15"/>
  </clipPath>
 </defs>
</svg>
