<?xml version="1.0" encoding="utf-8" standalone="no"?>
<!DOCTYPE svg PUBLIC "-//W3C//DTD SVG 1.1//EN"
  "http://www.w3.org/Graphics/SVG/1.1/DTD/svg11.dtd">
<svg xmlns:xlink="http://www.w3.org/1999/xlink" width="460.8pt" height="345.6pt" viewBox="0 0 460.8 345.6" xmlns="http://www.w3.org/2000/svg" version="1.1">
 <metadata>
  <rdf:RDF xmlns:dc="http://purl.org/dc/elements/1.1/" xmlns:cc="http://creativecommons.org/ns#" xmlns:rdf="http://www.w3.org/1999/02/22-rdf-syntax-ns#">
   <cc:Work>
    <dc:type rdf:resource="http://purl.org/dc/dcmitype/StillImage"/>
    <dc:date>2024-03-13T21:22:01.148312</dc:date>
    <dc:format>image/svg+xml</dc:format>
    <dc:creator>
     <cc:Agent>
      <dc:title>Matplotlib v3.6.3, https://matplotlib.org/</dc:title>
     </cc:Agent>
    </dc:creator>
   </cc:Work>
  </rdf:RDF>
 </metadata>
 <defs>
  <style type="text/css">*{stroke-linejoin: round; stroke-linecap: butt}</style>
 </defs>
 <g id="figure_1">
  <g id="patch_1">
  </g>
  <g id="axes_1">
   <g id="patch_2">
   </g>
   <g id="matplotlib.axis_1">
    <g id="xtick_1">
     <g id="line2d_1">
      <defs>
       <path id="m5d2d453b49" d="M 0 0 
L 0 3.5 
" style="stroke: #000000; stroke-width: 0.8"/>
      </defs>
      <g>
       <use xlink:href="#m5d2d453b49" x="71.769567" y="307.584" style="stroke: #000000; stroke-width: 0.8"/>
      </g>
     </g>
     <g id="text_1">
      <!-- 0 -->
      <g transform="translate(68.588317 322.182437) scale(0.1 -0.1)">
       <defs>
        <path id="DejaVuSans-30" d="M 2034 4250 
Q 1547 4250 1301 3770 
Q 1056 3291 1056 2328 
Q 1056 1369 1301 889 
Q 1547 409 2034 409 
Q 2525 409 2770 889 
Q 3016 1369 3016 2328 
Q 3016 3291 2770 3770 
Q 2525 4250 2034 4250 
z
M 2034 4750 
Q 2819 4750 3233 4129 
Q 3647 3509 3647 2328 
Q 3647 1150 3233 529 
Q 2819 -91 2034 -91 
Q 1250 -91 836 529 
Q 422 1150 422 2328 
Q 422 3509 836 4129 
Q 1250 4750 2034 4750 
z
" transform="scale(0.015625)"/>
       </defs>
       <use xlink:href="#DejaVuSans-30"/>
      </g>
     </g>
    </g>
    <g id="xtick_2">
     <g id="line2d_2">
      <g>
       <use xlink:href="#m5d2d453b49" x="124.134048" y="307.584" style="stroke: #000000; stroke-width: 0.8"/>
      </g>
     </g>
     <g id="text_2">
      <!-- 10000 -->
      <g transform="translate(108.227798 322.182437) scale(0.1 -0.1)">
       <defs>
        <path id="DejaVuSans-31" d="M 794 531 
L 1825 531 
L 1825 4091 
L 703 3866 
L 703 4441 
L 1819 4666 
L 2450 4666 
L 2450 531 
L 3481 531 
L 3481 0 
L 794 0 
L 794 531 
z
" transform="scale(0.015625)"/>
       </defs>
       <use xlink:href="#DejaVuSans-31"/>
       <use xlink:href="#DejaVuSans-30" x="63.623047"/>
       <use xlink:href="#DejaVuSans-30" x="127.246094"/>
       <use xlink:href="#DejaVuSans-30" x="190.869141"/>
       <use xlink:href="#DejaVuSans-30" x="254.492188"/>
      </g>
     </g>
    </g>
    <g id="xtick_3">
     <g id="line2d_3">
      <g>
       <use xlink:href="#m5d2d453b49" x="176.498529" y="307.584" style="stroke: #000000; stroke-width: 0.8"/>
      </g>
     </g>
     <g id="text_3">
      <!-- 20000 -->
      <g transform="translate(160.592279 322.182437) scale(0.1 -0.1)">
       <defs>
        <path id="DejaVuSans-32" d="M 1228 531 
L 3431 531 
L 3431 0 
L 469 0 
L 469 531 
Q 828 903 1448 1529 
Q 2069 2156 2228 2338 
Q 2531 2678 2651 2914 
Q 2772 3150 2772 3378 
Q 2772 3750 2511 3984 
Q 2250 4219 1831 4219 
Q 1534 4219 1204 4116 
Q 875 4013 500 3803 
L 500 4441 
Q 881 4594 1212 4672 
Q 1544 4750 1819 4750 
Q 2544 4750 2975 4387 
Q 3406 4025 3406 3419 
Q 3406 3131 3298 2873 
Q 3191 2616 2906 2266 
Q 2828 2175 2409 1742 
Q 1991 1309 1228 531 
z
" transform="scale(0.015625)"/>
       </defs>
       <use xlink:href="#DejaVuSans-32"/>
       <use xlink:href="#DejaVuSans-30" x="63.623047"/>
       <use xlink:href="#DejaVuSans-30" x="127.246094"/>
       <use xlink:href="#DejaVuSans-30" x="190.869141"/>
       <use xlink:href="#DejaVuSans-30" x="254.492188"/>
      </g>
     </g>
    </g>
    <g id="xtick_4">
     <g id="line2d_4">
      <g>
       <use xlink:href="#m5d2d453b49" x="228.86301" y="307.584" style="stroke: #000000; stroke-width: 0.8"/>
      </g>
     </g>
     <g id="text_4">
      <!-- 30000 -->
      <g transform="translate(212.95676 322.182437) scale(0.1 -0.1)">
       <defs>
        <path id="DejaVuSans-33" d="M 2597 2516 
Q 3050 2419 3304 2112 
Q 3559 1806 3559 1356 
Q 3559 666 3084 287 
Q 2609 -91 1734 -91 
Q 1441 -91 1130 -33 
Q 819 25 488 141 
L 488 750 
Q 750 597 1062 519 
Q 1375 441 1716 441 
Q 2309 441 2620 675 
Q 2931 909 2931 1356 
Q 2931 1769 2642 2001 
Q 2353 2234 1838 2234 
L 1294 2234 
L 1294 2753 
L 1863 2753 
Q 2328 2753 2575 2939 
Q 2822 3125 2822 3475 
Q 2822 3834 2567 4026 
Q 2313 4219 1838 4219 
Q 1578 4219 1281 4162 
Q 984 4106 628 3988 
L 628 4550 
Q 988 4650 1302 4700 
Q 1616 4750 1894 4750 
Q 2613 4750 3031 4423 
Q 3450 4097 3450 3541 
Q 3450 3153 3228 2886 
Q 3006 2619 2597 2516 
z
" transform="scale(0.015625)"/>
       </defs>
       <use xlink:href="#DejaVuSans-33"/>
       <use xlink:href="#DejaVuSans-30" x="63.623047"/>
       <use xlink:href="#DejaVuSans-30" x="127.246094"/>
       <use xlink:href="#DejaVuSans-30" x="190.869141"/>
       <use xlink:href="#DejaVuSans-30" x="254.492188"/>
      </g>
     </g>
    </g>
    <g id="xtick_5">
     <g id="line2d_5">
      <g>
       <use xlink:href="#m5d2d453b49" x="281.227491" y="307.584" style="stroke: #000000; stroke-width: 0.8"/>
      </g>
     </g>
     <g id="text_5">
      <!-- 40000 -->
      <g transform="translate(265.321241 322.182437) scale(0.1 -0.1)">
       <defs>
        <path id="DejaVuSans-34" d="M 2419 4116 
L 825 1625 
L 2419 1625 
L 2419 4116 
z
M 2253 4666 
L 3047 4666 
L 3047 1625 
L 3713 1625 
L 3713 1100 
L 3047 1100 
L 3047 0 
L 2419 0 
L 2419 1100 
L 313 1100 
L 313 1709 
L 2253 4666 
z
" transform="scale(0.015625)"/>
       </defs>
       <use xlink:href="#DejaVuSans-34"/>
       <use xlink:href="#DejaVuSans-30" x="63.623047"/>
       <use xlink:href="#DejaVuSans-30" x="127.246094"/>
       <use xlink:href="#DejaVuSans-30" x="190.869141"/>
       <use xlink:href="#DejaVuSans-30" x="254.492188"/>
      </g>
     </g>
    </g>
    <g id="xtick_6">
     <g id="line2d_6">
      <g>
       <use xlink:href="#m5d2d453b49" x="333.591971" y="307.584" style="stroke: #000000; stroke-width: 0.8"/>
      </g>
     </g>
     <g id="text_6">
      <!-- 50000 -->
      <g transform="translate(317.685721 322.182437) scale(0.1 -0.1)">
       <defs>
        <path id="DejaVuSans-35" d="M 691 4666 
L 3169 4666 
L 3169 4134 
L 1269 4134 
L 1269 2991 
Q 1406 3038 1543 3061 
Q 1681 3084 1819 3084 
Q 2600 3084 3056 2656 
Q 3513 2228 3513 1497 
Q 3513 744 3044 326 
Q 2575 -91 1722 -91 
Q 1428 -91 1123 -41 
Q 819 9 494 109 
L 494 744 
Q 775 591 1075 516 
Q 1375 441 1709 441 
Q 2250 441 2565 725 
Q 2881 1009 2881 1497 
Q 2881 1984 2565 2268 
Q 2250 2553 1709 2553 
Q 1456 2553 1204 2497 
Q 953 2441 691 2322 
L 691 4666 
z
" transform="scale(0.015625)"/>
       </defs>
       <use xlink:href="#DejaVuSans-35"/>
       <use xlink:href="#DejaVuSans-30" x="63.623047"/>
       <use xlink:href="#DejaVuSans-30" x="127.246094"/>
       <use xlink:href="#DejaVuSans-30" x="190.869141"/>
       <use xlink:href="#DejaVuSans-30" x="254.492188"/>
      </g>
     </g>
    </g>
    <g id="xtick_7">
     <g id="line2d_7">
      <g>
       <use xlink:href="#m5d2d453b49" x="385.956452" y="307.584" style="stroke: #000000; stroke-width: 0.8"/>
      </g>
     </g>
     <g id="text_7">
      <!-- 60000 -->
      <g transform="translate(370.050202 322.182437) scale(0.1 -0.1)">
       <defs>
        <path id="DejaVuSans-36" d="M 2113 2584 
Q 1688 2584 1439 2293 
Q 1191 2003 1191 1497 
Q 1191 994 1439 701 
Q 1688 409 2113 409 
Q 2538 409 2786 701 
Q 3034 994 3034 1497 
Q 3034 2003 2786 2293 
Q 2538 2584 2113 2584 
z
M 3366 4563 
L 3366 3988 
Q 3128 4100 2886 4159 
Q 2644 4219 2406 4219 
Q 1781 4219 1451 3797 
Q 1122 3375 1075 2522 
Q 1259 2794 1537 2939 
Q 1816 3084 2150 3084 
Q 2853 3084 3261 2657 
Q 3669 2231 3669 1497 
Q 3669 778 3244 343 
Q 2819 -91 2113 -91 
Q 1303 -91 875 529 
Q 447 1150 447 2328 
Q 447 3434 972 4092 
Q 1497 4750 2381 4750 
Q 2619 4750 2861 4703 
Q 3103 4656 3366 4563 
z
" transform="scale(0.015625)"/>
       </defs>
       <use xlink:href="#DejaVuSans-36"/>
       <use xlink:href="#DejaVuSans-30" x="63.623047"/>
       <use xlink:href="#DejaVuSans-30" x="127.246094"/>
       <use xlink:href="#DejaVuSans-30" x="190.869141"/>
       <use xlink:href="#DejaVuSans-30" x="254.492188"/>
      </g>
     </g>
    </g>
    <g id="text_8">
     <!-- Number of points in cloud -->
     <g transform="translate(171.443594 335.860562) scale(0.1 -0.1)">
      <defs>
       <path id="DejaVuSans-4e" d="M 628 4666 
L 1478 4666 
L 3547 763 
L 3547 4666 
L 4159 4666 
L 4159 0 
L 3309 0 
L 1241 3903 
L 1241 0 
L 628 0 
L 628 4666 
z
" transform="scale(0.015625)"/>
       <path id="DejaVuSans-75" d="M 544 1381 
L 544 3500 
L 1119 3500 
L 1119 1403 
Q 1119 906 1312 657 
Q 1506 409 1894 409 
Q 2359 409 2629 706 
Q 2900 1003 2900 1516 
L 2900 3500 
L 3475 3500 
L 3475 0 
L 2900 0 
L 2900 538 
Q 2691 219 2414 64 
Q 2138 -91 1772 -91 
Q 1169 -91 856 284 
Q 544 659 544 1381 
z
M 1991 3584 
L 1991 3584 
z
" transform="scale(0.015625)"/>
       <path id="DejaVuSans-6d" d="M 3328 2828 
Q 3544 3216 3844 3400 
Q 4144 3584 4550 3584 
Q 5097 3584 5394 3201 
Q 5691 2819 5691 2113 
L 5691 0 
L 5113 0 
L 5113 2094 
Q 5113 2597 4934 2840 
Q 4756 3084 4391 3084 
Q 3944 3084 3684 2787 
Q 3425 2491 3425 1978 
L 3425 0 
L 2847 0 
L 2847 2094 
Q 2847 2600 2669 2842 
Q 2491 3084 2119 3084 
Q 1678 3084 1418 2786 
Q 1159 2488 1159 1978 
L 1159 0 
L 581 0 
L 581 3500 
L 1159 3500 
L 1159 2956 
Q 1356 3278 1631 3431 
Q 1906 3584 2284 3584 
Q 2666 3584 2933 3390 
Q 3200 3197 3328 2828 
z
" transform="scale(0.015625)"/>
       <path id="DejaVuSans-62" d="M 3116 1747 
Q 3116 2381 2855 2742 
Q 2594 3103 2138 3103 
Q 1681 3103 1420 2742 
Q 1159 2381 1159 1747 
Q 1159 1113 1420 752 
Q 1681 391 2138 391 
Q 2594 391 2855 752 
Q 3116 1113 3116 1747 
z
M 1159 2969 
Q 1341 3281 1617 3432 
Q 1894 3584 2278 3584 
Q 2916 3584 3314 3078 
Q 3713 2572 3713 1747 
Q 3713 922 3314 415 
Q 2916 -91 2278 -91 
Q 1894 -91 1617 61 
Q 1341 213 1159 525 
L 1159 0 
L 581 0 
L 581 4863 
L 1159 4863 
L 1159 2969 
z
" transform="scale(0.015625)"/>
       <path id="DejaVuSans-65" d="M 3597 1894 
L 3597 1613 
L 953 1613 
Q 991 1019 1311 708 
Q 1631 397 2203 397 
Q 2534 397 2845 478 
Q 3156 559 3463 722 
L 3463 178 
Q 3153 47 2828 -22 
Q 2503 -91 2169 -91 
Q 1331 -91 842 396 
Q 353 884 353 1716 
Q 353 2575 817 3079 
Q 1281 3584 2069 3584 
Q 2775 3584 3186 3129 
Q 3597 2675 3597 1894 
z
M 3022 2063 
Q 3016 2534 2758 2815 
Q 2500 3097 2075 3097 
Q 1594 3097 1305 2825 
Q 1016 2553 972 2059 
L 3022 2063 
z
" transform="scale(0.015625)"/>
       <path id="DejaVuSans-72" d="M 2631 2963 
Q 2534 3019 2420 3045 
Q 2306 3072 2169 3072 
Q 1681 3072 1420 2755 
Q 1159 2438 1159 1844 
L 1159 0 
L 581 0 
L 581 3500 
L 1159 3500 
L 1159 2956 
Q 1341 3275 1631 3429 
Q 1922 3584 2338 3584 
Q 2397 3584 2469 3576 
Q 2541 3569 2628 3553 
L 2631 2963 
z
" transform="scale(0.015625)"/>
       <path id="DejaVuSans-20" transform="scale(0.015625)"/>
       <path id="DejaVuSans-6f" d="M 1959 3097 
Q 1497 3097 1228 2736 
Q 959 2375 959 1747 
Q 959 1119 1226 758 
Q 1494 397 1959 397 
Q 2419 397 2687 759 
Q 2956 1122 2956 1747 
Q 2956 2369 2687 2733 
Q 2419 3097 1959 3097 
z
M 1959 3584 
Q 2709 3584 3137 3096 
Q 3566 2609 3566 1747 
Q 3566 888 3137 398 
Q 2709 -91 1959 -91 
Q 1206 -91 779 398 
Q 353 888 353 1747 
Q 353 2609 779 3096 
Q 1206 3584 1959 3584 
z
" transform="scale(0.015625)"/>
       <path id="DejaVuSans-66" d="M 2375 4863 
L 2375 4384 
L 1825 4384 
Q 1516 4384 1395 4259 
Q 1275 4134 1275 3809 
L 1275 3500 
L 2222 3500 
L 2222 3053 
L 1275 3053 
L 1275 0 
L 697 0 
L 697 3053 
L 147 3053 
L 147 3500 
L 697 3500 
L 697 3744 
Q 697 4328 969 4595 
Q 1241 4863 1831 4863 
L 2375 4863 
z
" transform="scale(0.015625)"/>
       <path id="DejaVuSans-70" d="M 1159 525 
L 1159 -1331 
L 581 -1331 
L 581 3500 
L 1159 3500 
L 1159 2969 
Q 1341 3281 1617 3432 
Q 1894 3584 2278 3584 
Q 2916 3584 3314 3078 
Q 3713 2572 3713 1747 
Q 3713 922 3314 415 
Q 2916 -91 2278 -91 
Q 1894 -91 1617 61 
Q 1341 213 1159 525 
z
M 3116 1747 
Q 3116 2381 2855 2742 
Q 2594 3103 2138 3103 
Q 1681 3103 1420 2742 
Q 1159 2381 1159 1747 
Q 1159 1113 1420 752 
Q 1681 391 2138 391 
Q 2594 391 2855 752 
Q 3116 1113 3116 1747 
z
" transform="scale(0.015625)"/>
       <path id="DejaVuSans-69" d="M 603 3500 
L 1178 3500 
L 1178 0 
L 603 0 
L 603 3500 
z
M 603 4863 
L 1178 4863 
L 1178 4134 
L 603 4134 
L 603 4863 
z
" transform="scale(0.015625)"/>
       <path id="DejaVuSans-6e" d="M 3513 2113 
L 3513 0 
L 2938 0 
L 2938 2094 
Q 2938 2591 2744 2837 
Q 2550 3084 2163 3084 
Q 1697 3084 1428 2787 
Q 1159 2491 1159 1978 
L 1159 0 
L 581 0 
L 581 3500 
L 1159 3500 
L 1159 2956 
Q 1366 3272 1645 3428 
Q 1925 3584 2291 3584 
Q 2894 3584 3203 3211 
Q 3513 2838 3513 2113 
z
" transform="scale(0.015625)"/>
       <path id="DejaVuSans-74" d="M 1172 4494 
L 1172 3500 
L 2356 3500 
L 2356 3053 
L 1172 3053 
L 1172 1153 
Q 1172 725 1289 603 
Q 1406 481 1766 481 
L 2356 481 
L 2356 0 
L 1766 0 
Q 1100 0 847 248 
Q 594 497 594 1153 
L 594 3053 
L 172 3053 
L 172 3500 
L 594 3500 
L 594 4494 
L 1172 4494 
z
" transform="scale(0.015625)"/>
       <path id="DejaVuSans-73" d="M 2834 3397 
L 2834 2853 
Q 2591 2978 2328 3040 
Q 2066 3103 1784 3103 
Q 1356 3103 1142 2972 
Q 928 2841 928 2578 
Q 928 2378 1081 2264 
Q 1234 2150 1697 2047 
L 1894 2003 
Q 2506 1872 2764 1633 
Q 3022 1394 3022 966 
Q 3022 478 2636 193 
Q 2250 -91 1575 -91 
Q 1294 -91 989 -36 
Q 684 19 347 128 
L 347 722 
Q 666 556 975 473 
Q 1284 391 1588 391 
Q 1994 391 2212 530 
Q 2431 669 2431 922 
Q 2431 1156 2273 1281 
Q 2116 1406 1581 1522 
L 1381 1569 
Q 847 1681 609 1914 
Q 372 2147 372 2553 
Q 372 3047 722 3315 
Q 1072 3584 1716 3584 
Q 2034 3584 2315 3537 
Q 2597 3491 2834 3397 
z
" transform="scale(0.015625)"/>
       <path id="DejaVuSans-63" d="M 3122 3366 
L 3122 2828 
Q 2878 2963 2633 3030 
Q 2388 3097 2138 3097 
Q 1578 3097 1268 2742 
Q 959 2388 959 1747 
Q 959 1106 1268 751 
Q 1578 397 2138 397 
Q 2388 397 2633 464 
Q 2878 531 3122 666 
L 3122 134 
Q 2881 22 2623 -34 
Q 2366 -91 2075 -91 
Q 1284 -91 818 406 
Q 353 903 353 1747 
Q 353 2603 823 3093 
Q 1294 3584 2113 3584 
Q 2378 3584 2631 3529 
Q 2884 3475 3122 3366 
z
" transform="scale(0.015625)"/>
       <path id="DejaVuSans-6c" d="M 603 4863 
L 1178 4863 
L 1178 0 
L 603 0 
L 603 4863 
z
" transform="scale(0.015625)"/>
       <path id="DejaVuSans-64" d="M 2906 2969 
L 2906 4863 
L 3481 4863 
L 3481 0 
L 2906 0 
L 2906 525 
Q 2725 213 2448 61 
Q 2172 -91 1784 -91 
Q 1150 -91 751 415 
Q 353 922 353 1747 
Q 353 2572 751 3078 
Q 1150 3584 1784 3584 
Q 2172 3584 2448 3432 
Q 2725 3281 2906 2969 
z
M 947 1747 
Q 947 1113 1208 752 
Q 1469 391 1925 391 
Q 2381 391 2643 752 
Q 2906 1113 2906 1747 
Q 2906 2381 2643 2742 
Q 2381 3103 1925 3103 
Q 1469 3103 1208 2742 
Q 947 2381 947 1747 
z
" transform="scale(0.015625)"/>
      </defs>
      <use xlink:href="#DejaVuSans-4e"/>
      <use xlink:href="#DejaVuSans-75" x="74.804688"/>
      <use xlink:href="#DejaVuSans-6d" x="138.183594"/>
      <use xlink:href="#DejaVuSans-62" x="235.595703"/>
      <use xlink:href="#DejaVuSans-65" x="299.072266"/>
      <use xlink:href="#DejaVuSans-72" x="360.595703"/>
      <use xlink:href="#DejaVuSans-20" x="401.708984"/>
      <use xlink:href="#DejaVuSans-6f" x="433.496094"/>
      <use xlink:href="#DejaVuSans-66" x="494.677734"/>
      <use xlink:href="#DejaVuSans-20" x="529.882812"/>
      <use xlink:href="#DejaVuSans-70" x="561.669922"/>
      <use xlink:href="#DejaVuSans-6f" x="625.146484"/>
      <use xlink:href="#DejaVuSans-69" x="686.328125"/>
      <use xlink:href="#DejaVuSans-6e" x="714.111328"/>
      <use xlink:href="#DejaVuSans-74" x="777.490234"/>
      <use xlink:href="#DejaVuSans-73" x="816.699219"/>
      <use xlink:href="#DejaVuSans-20" x="868.798828"/>
      <use xlink:href="#DejaVuSans-69" x="900.585938"/>
      <use xlink:href="#DejaVuSans-6e" x="928.369141"/>
      <use xlink:href="#DejaVuSans-20" x="991.748047"/>
      <use xlink:href="#DejaVuSans-63" x="1023.535156"/>
      <use xlink:href="#DejaVuSans-6c" x="1078.515625"/>
      <use xlink:href="#DejaVuSans-6f" x="1106.298828"/>
      <use xlink:href="#DejaVuSans-75" x="1167.480469"/>
      <use xlink:href="#DejaVuSans-64" x="1230.859375"/>
     </g>
    </g>
   </g>
   <g id="matplotlib.axis_2">
    <g id="ytick_1">
     <g id="line2d_8">
      <defs>
       <path id="m8d0ba919dc" d="M 0 0 
L -3.5 0 
" style="stroke: #000000; stroke-width: 0.8"/>
      </defs>
      <g>
       <use xlink:href="#m8d0ba919dc" x="57.6" y="302.419538" style="stroke: #000000; stroke-width: 0.8"/>
      </g>
     </g>
     <g id="text_9">
      <!-- $\mathdefault{10^{1}}$ -->
      <g transform="translate(33 306.218756) scale(0.1 -0.1)">
       <use xlink:href="#DejaVuSans-31" transform="translate(0 0.684375)"/>
       <use xlink:href="#DejaVuSans-30" transform="translate(63.623047 0.684375)"/>
       <use xlink:href="#DejaVuSans-31" transform="translate(128.203125 38.965625) scale(0.7)"/>
      </g>
     </g>
    </g>
    <g id="ytick_2">
     <g id="line2d_9">
      <g>
       <use xlink:href="#m8d0ba919dc" x="57.6" y="166.791182" style="stroke: #000000; stroke-width: 0.8"/>
      </g>
     </g>
     <g id="text_10">
      <!-- $\mathdefault{10^{2}}$ -->
      <g transform="translate(33 170.590401) scale(0.1 -0.1)">
       <use xlink:href="#DejaVuSans-31" transform="translate(0 0.765625)"/>
       <use xlink:href="#DejaVuSans-30" transform="translate(63.623047 0.765625)"/>
       <use xlink:href="#DejaVuSans-32" transform="translate(128.203125 39.046875) scale(0.7)"/>
      </g>
     </g>
    </g>
    <g id="ytick_3">
     <g id="line2d_10">
      <defs>
       <path id="mdfe67a63f4" d="M 0 0 
L -2 0 
" style="stroke: #000000; stroke-width: 0.6"/>
      </defs>
      <g>
       <use xlink:href="#mdfe67a63f4" x="57.6" y="261.591334" style="stroke: #000000; stroke-width: 0.6"/>
      </g>
     </g>
    </g>
    <g id="ytick_4">
     <g id="line2d_11">
      <g>
       <use xlink:href="#mdfe67a63f4" x="57.6" y="237.708366" style="stroke: #000000; stroke-width: 0.6"/>
      </g>
     </g>
    </g>
    <g id="ytick_5">
     <g id="line2d_12">
      <g>
       <use xlink:href="#mdfe67a63f4" x="57.6" y="220.763131" style="stroke: #000000; stroke-width: 0.6"/>
      </g>
     </g>
    </g>
    <g id="ytick_6">
     <g id="line2d_13">
      <g>
       <use xlink:href="#mdfe67a63f4" x="57.6" y="207.619385" style="stroke: #000000; stroke-width: 0.6"/>
      </g>
     </g>
    </g>
    <g id="ytick_7">
     <g id="line2d_14">
      <g>
       <use xlink:href="#mdfe67a63f4" x="57.6" y="196.880163" style="stroke: #000000; stroke-width: 0.6"/>
      </g>
     </g>
    </g>
    <g id="ytick_8">
     <g id="line2d_15">
      <g>
       <use xlink:href="#mdfe67a63f4" x="57.6" y="187.80028" style="stroke: #000000; stroke-width: 0.6"/>
      </g>
     </g>
    </g>
    <g id="ytick_9">
     <g id="line2d_16">
      <g>
       <use xlink:href="#mdfe67a63f4" x="57.6" y="179.934928" style="stroke: #000000; stroke-width: 0.6"/>
      </g>
     </g>
    </g>
    <g id="ytick_10">
     <g id="line2d_17">
      <g>
       <use xlink:href="#mdfe67a63f4" x="57.6" y="172.997195" style="stroke: #000000; stroke-width: 0.6"/>
      </g>
     </g>
    </g>
    <g id="ytick_11">
     <g id="line2d_18">
      <g>
       <use xlink:href="#mdfe67a63f4" x="57.6" y="125.962979" style="stroke: #000000; stroke-width: 0.6"/>
      </g>
     </g>
    </g>
    <g id="ytick_12">
     <g id="line2d_19">
      <g>
       <use xlink:href="#mdfe67a63f4" x="57.6" y="102.080011" style="stroke: #000000; stroke-width: 0.6"/>
      </g>
     </g>
    </g>
    <g id="ytick_13">
     <g id="line2d_20">
      <g>
       <use xlink:href="#mdfe67a63f4" x="57.6" y="85.134776" style="stroke: #000000; stroke-width: 0.6"/>
      </g>
     </g>
    </g>
    <g id="ytick_14">
     <g id="line2d_21">
      <g>
       <use xlink:href="#mdfe67a63f4" x="57.6" y="71.99103" style="stroke: #000000; stroke-width: 0.6"/>
      </g>
     </g>
    </g>
    <g id="ytick_15">
     <g id="line2d_22">
      <g>
       <use xlink:href="#mdfe67a63f4" x="57.6" y="61.251808" style="stroke: #000000; stroke-width: 0.6"/>
      </g>
     </g>
    </g>
    <g id="ytick_16">
     <g id="line2d_23">
      <g>
       <use xlink:href="#mdfe67a63f4" x="57.6" y="52.171925" style="stroke: #000000; stroke-width: 0.6"/>
      </g>
     </g>
    </g>
    <g id="ytick_17">
     <g id="line2d_24">
      <g>
       <use xlink:href="#mdfe67a63f4" x="57.6" y="44.306572" style="stroke: #000000; stroke-width: 0.6"/>
      </g>
     </g>
    </g>
    <g id="text_11">
     <!-- Query time (ns) -->
     <g transform="translate(26.920312 213.873312) rotate(-90) scale(0.1 -0.1)">
      <defs>
       <path id="DejaVuSans-51" d="M 2522 4238 
Q 1834 4238 1429 3725 
Q 1025 3213 1025 2328 
Q 1025 1447 1429 934 
Q 1834 422 2522 422 
Q 3209 422 3611 934 
Q 4013 1447 4013 2328 
Q 4013 3213 3611 3725 
Q 3209 4238 2522 4238 
z
M 3406 84 
L 4238 -825 
L 3475 -825 
L 2784 -78 
Q 2681 -84 2626 -87 
Q 2572 -91 2522 -91 
Q 1538 -91 948 567 
Q 359 1225 359 2328 
Q 359 3434 948 4092 
Q 1538 4750 2522 4750 
Q 3503 4750 4090 4092 
Q 4678 3434 4678 2328 
Q 4678 1516 4351 937 
Q 4025 359 3406 84 
z
" transform="scale(0.015625)"/>
       <path id="DejaVuSans-79" d="M 2059 -325 
Q 1816 -950 1584 -1140 
Q 1353 -1331 966 -1331 
L 506 -1331 
L 506 -850 
L 844 -850 
Q 1081 -850 1212 -737 
Q 1344 -625 1503 -206 
L 1606 56 
L 191 3500 
L 800 3500 
L 1894 763 
L 2988 3500 
L 3597 3500 
L 2059 -325 
z
" transform="scale(0.015625)"/>
       <path id="DejaVuSans-28" d="M 1984 4856 
Q 1566 4138 1362 3434 
Q 1159 2731 1159 2009 
Q 1159 1288 1364 580 
Q 1569 -128 1984 -844 
L 1484 -844 
Q 1016 -109 783 600 
Q 550 1309 550 2009 
Q 550 2706 781 3412 
Q 1013 4119 1484 4856 
L 1984 4856 
z
" transform="scale(0.015625)"/>
       <path id="DejaVuSans-29" d="M 513 4856 
L 1013 4856 
Q 1481 4119 1714 3412 
Q 1947 2706 1947 2009 
Q 1947 1309 1714 600 
Q 1481 -109 1013 -844 
L 513 -844 
Q 928 -128 1133 580 
Q 1338 1288 1338 2009 
Q 1338 2731 1133 3434 
Q 928 4138 513 4856 
z
" transform="scale(0.015625)"/>
      </defs>
      <use xlink:href="#DejaVuSans-51"/>
      <use xlink:href="#DejaVuSans-75" x="78.710938"/>
      <use xlink:href="#DejaVuSans-65" x="142.089844"/>
      <use xlink:href="#DejaVuSans-72" x="203.613281"/>
      <use xlink:href="#DejaVuSans-79" x="244.726562"/>
      <use xlink:href="#DejaVuSans-20" x="303.90625"/>
      <use xlink:href="#DejaVuSans-74" x="335.693359"/>
      <use xlink:href="#DejaVuSans-69" x="374.902344"/>
      <use xlink:href="#DejaVuSans-6d" x="402.685547"/>
      <use xlink:href="#DejaVuSans-65" x="500.097656"/>
      <use xlink:href="#DejaVuSans-20" x="561.621094"/>
      <use xlink:href="#DejaVuSans-28" x="593.408203"/>
      <use xlink:href="#DejaVuSans-6e" x="632.421875"/>
      <use xlink:href="#DejaVuSans-73" x="695.800781"/>
      <use xlink:href="#DejaVuSans-29" x="747.900391"/>
     </g>
    </g>
   </g>
   <g id="line2d_25">
    <path d="M 398.487273 55.490883 
L 397.743697 58.252604 
L 396.895393 59.365656 
L 396.094216 57.401849 
L 395.308749 53.568 
L 394.523282 59.616337 
L 393.591194 59.98828 
L 392.669579 60.554842 
L 390.758275 60.939884 
L 389.820951 61.442949 
L 388.862681 60.893488 
L 387.967249 61.999285 
L 383.448194 64.159702 
L 382.33283 61.999228 
L 381.165102 63.623718 
L 380.002611 63.819341 
L 378.703972 63.560184 
L 377.279658 65.487294 
L 375.78727 63.638529 
L 374.404848 65.017166 
L 373.064317 64.888985 
L 371.545747 65.818137 
L 370.147616 65.386468 
L 368.602863 65.671674 
L 367.209968 66.13205 
L 365.460995 66.505773 
L 363.968607 67.708861 
L 362.434328 68.456599 
L 360.559679 69.187151 
L 359.109183 68.562182 
L 357.354973 69.768206 
L 355.653127 70.509595 
L 353.862262 70.537012 
L 352.176126 71.30664 
L 350.432389 72.998916 
L 348.437302 73.809406 
L 346.452688 76.59045 
L 344.431419 78.675931 
L 340.362699 79.200598 
L 338.561361 77.459981 
L 336.435363 79.047863 
L 334.513586 79.26668 
L 332.623229 77.335473 
L 330.455339 79.921287 
L 328.517853 79.395702 
L 326.433747 79.368799 
L 324.464842 79.869572 
L 322.694923 79.264798 
L 320.668418 78.343484 
L 318.814715 77.056948 
L 316.69919 76.369937 
L 314.45799 77.398819 
L 312.609524 77.488898 
L 310.504472 78.330307 
L 308.640296 84.269139 
L 306.739466 78.546093 
L 304.901472 78.961557 
L 302.833075 80.626209 
L 298.999995 82.221038 
L 296.963017 83.3378 
L 295.083132 83.61313 
L 293.135173 84.270808 
L 291.380963 84.535731 
L 287.804469 86.518744 
L 286.10786 88.754367 
L 284.128483 89.4436 
L 282.133396 91.792226 
L 280.410605 91.212942 
L 278.384099 89.864332 
L 276.640362 92.999512 
L 274.938516 94.646716 
L 271.524352 95.263675 
L 269.712541 93.994337 
L 268.146843 95.001444 
L 264.685551 96.306684 
L 262.878976 97.438135 
L 260.9572 97.650488 
L 257.600637 97.2431 
L 256.087303 97.364675 
L 254.55826 95.962562 
L 252.584119 95.042552 
L 250.924165 95.686138 
L 249.091409 95.944714 
L 247.242942 102.358336 
L 245.651062 95.174447 
L 243.828778 95.157066 
L 242.058859 71.822101 
L 240.383195 72.519792 
L 238.503311 73.491841 
L 236.754337 73.915261 
L 232.423794 76.155743 
L 229.030576 77.19737 
L 227.333967 78.604136 
L 225.480264 79.142657 
L 223.610852 79.473794 
L 220.47422 80.263498 
L 215.185407 82.929555 
L 213.237448 82.590337 
L 211.237125 84.216065 
L 209.262984 84.274174 
L 207.550666 85.139978 
L 205.602707 85.521525 
L 203.900862 85.648048 
L 202.151888 84.308931 
L 200.319131 86.039515 
L 198.470665 86.056958 
L 196.637908 86.678833 
L 194.396708 87.707628 
L 192.590134 89.007732 
L 190.924943 89.482223 
L 189.254516 91.208131 
L 187.631217 91.285162 
L 185.908426 91.852589 
L 184.227526 92.924629 
L 180.829071 93.951018 
L 177.194976 96.675579 
L 175.451239 98.709651 
L 173.744157 100.371631 
L 171.775252 101.3423 
L 170.398067 101.819633 
L 168.607201 102.273234 
L 166.999612 101.961161 
L 165.371076 102.48342 
L 161.946439 102.397251 
L 160.32314 102.772276 
L 158.621295 102.321324 
L 156.767592 99.82751 
L 155.290914 100.781312 
L 153.63096 101.441419 
L 151.766784 101.71309 
L 150.263924 102.466886 
L 148.614443 102.239969 
L 146.970198 103.247324 
L 145.446391 102.369872 
L 143.81262 103.543704 
L 142.257395 103.844333 
L 140.555549 104.34862 
L 139.031743 103.642124 
L 137.638847 103.369314 
L 136.225006 103.234464 
L 134.706436 102.938645 
L 133.324014 105.996309 
L 130.580115 109.249216 
L 129.18722 110.497991 
L 127.820507 111.936928 
L 126.54805 111.216551 
L 125.02948 113.937655 
L 123.662767 114.927738 
L 122.453148 115.57157 
L 121.013125 116.73475 
L 119.892525 116.101326 
L 118.57294 115.587305 
L 117.468049 115.327079 
L 116.415523 116.701649 
L 115.315869 117.10196 
L 113.247472 123.315841 
L 112.414877 123.612949 
L 111.226203 124.171958 
L 110.09513 123.735153 
L 108.686526 124.85328 
L 107.660182 124.320494 
L 106.466272 124.871382 
L 105.560366 124.452493 
L 103.685718 125.465449 
L 102.460389 128.491701 
L 101.449755 129.764754 
L 100.643342 131.202538 
L 98.637782 132.68488 
L 97.72664 133.716359 
L 96.647932 133.246999 
L 95.317874 136.040105 
L 94.422441 135.038749 
L 93.33326 136.217315 
L 92.511138 128.388313 
L 91.401011 128.633559 
L 90.468923 129.127606 
L 89.405924 130.781928 
L 89.01319 130.517847 
L 88.14394 129.446702 
L 87.67266 130.690011 
L 87.012867 131.399651 
L 85.808484 134.762734 
L 84.735012 137.017625 
L 84.541264 136.340469 
L 84.14853 138.967064 
L 83.520156 138.103953 
L 82.802763 139.58576 
L 82.420502 148.343423 
L 82.237226 148.652427 
L 81.745 145.361458 
L 81.917803 146.274107 
L 80.959533 147.299277 
L 80.781494 147.046328 
L 80.655819 142.420893 
L 80.446361 143.405092 
L 79.797042 142.31623 
L 79.393835 143.705918 
L 79.084885 147.191162 
L 79.205323 147.236845 
L 78.875427 151.627077 
L 77.932866 155.646912 
L 77.718172 155.611002 
L 77.309729 157.562961 
L 76.948414 166.280966 
L 76.539971 164.026757 
L 76.189129 160.761156 
L 75.901124 160.147623 
L 75.440317 167.014011 
L 75.492681 163.367613 
L 75.188967 165.006395 
L 74.754342 168.954766 
L 74.770051 169.908568 
L 74.487283 170.497426 
L 73.832727 164.820055 
L 73.832727 164.820055 
" clip-path="url(#p2ba64883ff)" style="fill: none; stroke: #1f77b4; stroke-width: 1.5; stroke-linecap: square"/>
   </g>
   <g id="line2d_26">
    <path d="M 398.487273 236.970938 
L 396.895393 240.572254 
L 396.094216 237.83784 
L 395.308749 219.056698 
L 394.523282 238.028947 
L 393.591194 238.631637 
L 392.669579 238.64673 
L 391.7532 238.986825 
L 390.758275 238.439334 
L 389.820951 238.817523 
L 388.862681 238.83795 
L 387.967249 238.042908 
L 386.982796 238.846211 
L 385.925034 237.364219 
L 384.725887 238.931367 
L 383.448194 238.063992 
L 382.33283 236.693686 
L 381.165102 230.964572 
L 380.002611 235.309755 
L 378.703972 236.197749 
L 377.279658 229.004525 
L 375.78727 236.64931 
L 373.064317 235.463432 
L 371.545747 239.092313 
L 370.147616 238.739954 
L 368.602863 238.692087 
L 367.209968 237.407632 
L 365.460995 236.577033 
L 363.968607 236.394534 
L 362.434328 237.473456 
L 360.559679 239.008361 
L 359.109183 237.285374 
L 357.354973 240.40473 
L 355.653127 236.480237 
L 353.862262 238.908867 
L 352.176126 236.723961 
L 350.432389 237.4903 
L 348.437302 239.202312 
L 346.452688 239.20403 
L 344.431419 236.468862 
L 342.415387 237.327816 
L 340.362699 239.169961 
L 338.561361 237.115537 
L 336.435363 237.053744 
L 334.513586 239.050571 
L 332.623229 236.485475 
L 330.455339 239.006483 
L 328.517853 239.314404 
L 326.433747 237.180822 
L 324.464842 238.430091 
L 322.694923 237.631973 
L 320.668418 237.61169 
L 318.814715 237.820138 
L 316.69919 237.210598 
L 314.45799 237.184998 
L 312.609524 239.180927 
L 310.504472 237.654584 
L 308.640296 237.687679 
L 306.739466 239.076553 
L 304.901472 236.574277 
L 302.833075 239.1451 
L 300.80657 239.199985 
L 298.999995 238.779221 
L 296.963017 236.421696 
L 295.083132 239.027915 
L 293.135173 237.249663 
L 291.380963 237.199189 
L 289.574389 237.862913 
L 287.804469 237.361587 
L 286.10786 238.992402 
L 284.128483 237.457908 
L 282.133396 239.207521 
L 280.410605 239.264239 
L 278.384099 236.173743 
L 276.640362 237.297926 
L 274.938516 237.140358 
L 273.173833 237.506611 
L 271.524352 238.709339 
L 269.712541 237.100083 
L 268.146843 237.284677 
L 266.355978 239.078267 
L 264.685551 238.519357 
L 260.9572 236.690978 
L 259.360083 237.266819 
L 257.600637 236.666239 
L 256.087303 236.273252 
L 254.55826 236.414667 
L 252.584119 237.062186 
L 250.924165 236.598977 
L 249.091409 236.994204 
L 247.242942 237.889298 
L 245.651062 237.849482 
L 243.828778 237.362178 
L 242.058859 245.54335 
L 240.383195 245.70129 
L 238.503311 242.778018 
L 236.754337 243.188358 
L 234.062803 242.038102 
L 232.423794 245.170391 
L 230.753367 242.837221 
L 229.030576 246.048687 
L 227.333967 242.518698 
L 225.480264 243.918341 
L 223.610852 241.0039 
L 220.47422 242.239157 
L 218.709537 242.678067 
L 217.149075 244.950909 
L 215.185407 242.931007 
L 213.237448 244.049773 
L 211.237125 243.410047 
L 209.262984 244.301133 
L 207.550666 243.906637 
L 203.900862 244.361766 
L 202.151888 244.387961 
L 200.319131 243.144025 
L 198.470665 242.493907 
L 196.637908 244.9954 
L 194.396708 244.319201 
L 192.590134 246.195322 
L 190.924943 241.943287 
L 189.254516 243.928607 
L 187.631217 244.174023 
L 185.908426 241.984285 
L 184.227526 240.554448 
L 182.546626 243.837357 
L 180.829071 244.334011 
L 179.09057 243.867158 
L 177.194976 244.699444 
L 175.451239 241.926977 
L 173.744157 243.70233 
L 171.775252 243.930709 
L 170.398067 241.584758 
L 168.607201 244.963251 
L 166.999612 244.320712 
L 165.371076 243.377918 
L 163.690177 244.296964 
L 161.946439 243.835079 
L 160.32314 244.605413 
L 158.621295 244.31074 
L 156.767592 248.411555 
L 155.290914 248.683125 
L 153.63096 248.759262 
L 151.766784 250.20143 
L 150.263924 249.945657 
L 148.614443 250.469052 
L 146.970198 248.524655 
L 145.446391 247.411852 
L 143.81262 249.666364 
L 140.555549 247.910675 
L 139.031743 250.299957 
L 137.638847 246.920882 
L 136.225006 248.696274 
L 134.706436 248.844176 
L 133.324014 248.023845 
L 131.931119 248.597207 
L 130.580115 248.567578 
L 129.18722 250.179528 
L 127.820507 248.533743 
L 126.54805 248.844372 
L 123.662767 251.936144 
L 122.453148 247.259429 
L 121.013125 248.526667 
L 119.892525 247.703353 
L 118.57294 247.795798 
L 117.468049 250.472474 
L 115.315869 249.8608 
L 113.247472 256.11132 
L 112.414877 256.390118 
L 111.226203 256.205388 
L 110.09513 256.463757 
L 108.686526 256.333541 
L 107.660182 256.504625 
L 106.466272 256.173448 
L 105.560366 256.669199 
L 103.685718 256.451948 
L 101.449755 256.672106 
L 100.643342 256.229576 
L 99.653653 254.731302 
L 98.637782 254.429436 
L 97.72664 256.667336 
L 96.647932 256.688359 
L 95.317874 256.977026 
L 94.422441 256.776035 
L 93.33326 256.693205 
L 92.511138 263.162046 
L 91.401011 261.467077 
L 90.468923 261.657739 
L 89.405924 261.083737 
L 89.01319 261.619379 
L 88.14394 263.189683 
L 87.67266 263.051627 
L 87.012867 261.335254 
L 84.541264 261.198091 
L 84.14853 261.695962 
L 82.802763 261.441853 
L 82.237226 267.077759 
L 81.954458 265.980668 
L 81.745 267.279566 
L 81.917803 265.765682 
L 81.03808 266.224927 
L 80.959533 265.975517 
L 80.781494 267.079093 
L 80.655819 266.230626 
L 80.446361 266.046445 
L 79.797042 267.005402 
L 79.393835 265.713426 
L 79.084885 266.223262 
L 79.205323 266.050553 
L 78.875427 267.822744 
L 77.932866 267.082384 
L 77.718172 266.276586 
L 77.309729 266.242551 
L 76.948414 272.4023 
L 76.539971 272.419243 
L 76.189129 273.749678 
L 75.901124 273.819748 
L 75.440317 272.404734 
L 75.492681 272.38906 
L 74.754342 272.389742 
L 74.770051 272.350624 
L 74.487283 272.29462 
L 73.832727 279.513919 
L 73.832727 279.513919 
" clip-path="url(#p2ba64883ff)" style="fill: none; stroke: #ff7f0e; stroke-width: 1.5; stroke-linecap: square"/>
   </g>
   <g id="line2d_27">
    <path d="M 398.487273 267.650767 
L 397.743697 269.554102 
L 396.895393 268.672328 
L 396.094216 269.622323 
L 395.308749 260.073503 
L 394.523282 271.239397 
L 393.591194 268.859602 
L 392.669579 268.572254 
L 391.7532 268.494667 
L 390.758275 269.725315 
L 389.820951 269.583144 
L 388.862681 269.650842 
L 387.967249 271.217541 
L 386.982796 268.089345 
L 385.925034 270.803155 
L 384.725887 269.421505 
L 383.448194 270.981845 
L 382.33283 268.46898 
L 381.165102 255.877577 
L 380.002611 267.810855 
L 378.703972 269.515617 
L 377.279658 260.62829 
L 375.78727 265.694917 
L 374.404848 268.164044 
L 373.064317 267.607671 
L 371.545747 268.622635 
L 370.147616 266.90528 
L 368.602863 269.717222 
L 367.209968 268.146198 
L 365.460995 267.46568 
L 363.968607 267.809504 
L 362.434328 268.356523 
L 360.559679 268.357705 
L 359.109183 267.830581 
L 357.354973 268.670135 
L 355.653127 267.749916 
L 353.862262 269.151859 
L 352.176126 268.958697 
L 350.432389 267.684906 
L 348.437302 268.427557 
L 346.452688 269.813578 
L 344.431419 268.341072 
L 342.415387 267.95314 
L 340.362699 269.607558 
L 338.561361 268.315088 
L 336.435363 268.348252 
L 332.623229 271.167657 
L 330.455339 269.764589 
L 328.517853 269.676492 
L 326.433747 268.376524 
L 324.464842 269.606537 
L 322.694923 268.378888 
L 320.668418 268.363522 
L 318.814715 269.774272 
L 316.69919 269.571637 
L 314.45799 269.006744 
L 312.609524 269.672124 
L 310.504472 268.069532 
L 308.640296 271.214392 
L 306.739466 269.664781 
L 302.833075 269.629196 
L 300.80657 269.725501 
L 298.999995 268.511799 
L 296.963017 268.805995 
L 295.083132 269.606816 
L 293.135173 268.344707 
L 291.380963 268.104187 
L 289.574389 267.161962 
L 287.804469 267.895301 
L 286.10786 269.408086 
L 284.128483 271.328334 
L 282.133396 269.710618 
L 280.410605 269.804448 
L 278.384099 266.729148 
L 276.640362 268.389164 
L 274.938516 268.49649 
L 273.173833 267.781053 
L 271.524352 269.495318 
L 269.712541 268.174102 
L 268.146843 269.706432 
L 266.355978 269.570987 
L 264.685551 269.656882 
L 262.878976 268.180083 
L 260.9572 271.134678 
L 259.360083 267.432651 
L 257.600637 269.60858 
L 256.087303 267.743529 
L 254.55826 265.222357 
L 252.584119 268.368341 
L 250.924165 269.784981 
L 249.091409 269.61833 
L 247.242942 267.272873 
L 243.828778 268.130078 
L 242.058859 273.050378 
L 240.383195 272.911941 
L 238.503311 271.849558 
L 236.754337 271.640918 
L 234.062803 272.692759 
L 232.423794 274.320127 
L 230.753367 271.321738 
L 229.030576 272.733573 
L 227.333967 271.47239 
L 225.480264 273.073318 
L 223.610852 271.490219 
L 220.47422 270.613387 
L 218.709537 275.24006 
L 217.149075 272.998819 
L 215.185407 271.33627 
L 213.237448 271.470953 
L 211.237125 270.266558 
L 209.262984 272.360839 
L 207.550666 270.558349 
L 205.602707 273.110849 
L 203.900862 272.949566 
L 202.151888 270.503175 
L 200.319131 271.547285 
L 198.470665 273.210852 
L 196.637908 273.183024 
L 194.396708 269.9834 
L 192.590134 273.014853 
L 190.924943 271.499422 
L 189.254516 270.278296 
L 185.908426 272.783626 
L 184.227526 271.334931 
L 182.546626 270.990779 
L 180.829071 272.99459 
L 179.09057 274.557173 
L 177.194976 273.199009 
L 175.451239 270.554009 
L 173.744157 271.373476 
L 171.775252 273.244916 
L 170.398067 271.358361 
L 168.607201 273.150771 
L 166.999612 270.517317 
L 165.371076 272.092439 
L 163.690177 273.258646 
L 161.946439 273.041617 
L 160.32314 270.699965 
L 158.621295 270.605548 
L 156.767592 275.591329 
L 155.290914 275.116875 
L 153.63096 275.114938 
L 151.766784 277.21793 
L 150.263924 277.101825 
L 148.614443 277.209267 
L 146.970198 275.363913 
L 145.446391 275.226269 
L 143.81262 277.233992 
L 142.257395 274.652887 
L 140.555549 277.279665 
L 139.031743 277.185926 
L 137.638847 276.06197 
L 134.706436 274.837171 
L 133.324014 277.766073 
L 131.931119 275.460537 
L 130.580115 277.496035 
L 127.820507 276.821688 
L 126.54805 273.864944 
L 125.02948 277.179484 
L 123.662767 275.792499 
L 122.453148 275.468639 
L 121.013125 275.801884 
L 119.892525 275.295051 
L 118.57294 273.220625 
L 117.468049 276.875655 
L 116.415523 277.15225 
L 115.315869 277.58676 
L 113.247472 277.577193 
L 112.414877 277.761381 
L 111.226203 277.537556 
L 110.09513 277.453588 
L 107.660182 277.71789 
L 106.466272 277.501024 
L 105.560366 276.583522 
L 103.685718 278.485378 
L 102.460389 277.652608 
L 101.449755 277.591439 
L 100.643342 278.012184 
L 99.653653 279.017825 
L 98.637782 278.374399 
L 97.72664 277.607496 
L 96.647932 277.640369 
L 95.317874 280.474698 
L 94.422441 277.478734 
L 93.33326 276.820743 
L 92.511138 284.726498 
L 91.401011 283.254764 
L 90.468923 283.091695 
L 89.01319 283.370061 
L 88.14394 284.593667 
L 87.67266 285.585831 
L 87.012867 283.739615 
L 85.808484 284.633197 
L 85.132982 282.81487 
L 84.735012 283.212755 
L 84.541264 284.55177 
L 84.14853 284.147026 
L 83.520156 283.285441 
L 82.802763 281.696001 
L 82.420502 288.38917 
L 82.237226 287.246513 
L 81.954458 287.66412 
L 81.745 288.503205 
L 81.917803 287.90228 
L 81.03808 286.770431 
L 80.959533 287.038814 
L 80.781494 288.591055 
L 80.655819 288.271148 
L 80.446361 288.22426 
L 79.797042 286.822517 
L 79.393835 290.234051 
L 78.875427 286.613827 
L 77.932866 288.489003 
L 77.718172 290.118328 
L 77.309729 288.233558 
L 76.948414 292.247309 
L 76.189129 294.602279 
L 75.901124 295.006165 
L 75.440317 293.33095 
L 75.492681 292.790353 
L 75.188967 292.971474 
L 74.754342 293.418102 
L 74.770051 291.717063 
L 74.487283 293.87347 
L 73.832727 295.488 
L 73.832727 295.488 
" clip-path="url(#p2ba64883ff)" style="fill: none; stroke: #2ca02c; stroke-width: 1.5; stroke-linecap: square"/>
   </g>
   <g id="line2d_28">
    <path d="M 398.487273 213.939209 
L 397.743697 220.263126 
L 396.895393 223.115494 
L 396.094216 223.840809 
L 395.308749 217.399498 
L 394.523282 225.000272 
L 393.591194 225.19574 
L 392.669579 221.940176 
L 391.7532 223.750204 
L 390.758275 225.191721 
L 389.820951 224.365547 
L 388.862681 223.671826 
L 387.967249 227.186312 
L 386.982796 229.404328 
L 385.925034 229.341396 
L 384.725887 228.106806 
L 383.448194 228.070191 
L 382.33283 226.472787 
L 381.165102 213.686291 
L 380.002611 224.710058 
L 378.703972 224.619664 
L 377.279658 216.449756 
L 375.78727 217.309751 
L 374.404848 218.522058 
L 373.064317 217.803003 
L 371.545747 231.203736 
L 370.147616 229.665639 
L 368.602863 229.576493 
L 367.209968 228.125305 
L 365.460995 184.570515 
L 363.968607 176.916203 
L 362.434328 179.649063 
L 360.559679 168.821268 
L 359.109183 210.082824 
L 357.354973 179.884161 
L 355.653127 181.214594 
L 353.862262 184.978494 
L 352.176126 178.551604 
L 350.432389 178.430761 
L 348.437302 187.650187 
L 346.452688 207.80437 
L 344.431419 193.439037 
L 342.415387 189.755495 
L 340.362699 166.114168 
L 338.561361 162.73039 
L 336.435363 182.818704 
L 334.513586 179.414719 
L 332.623229 181.11189 
L 330.455339 180.197986 
L 326.433747 183.364982 
L 324.464842 171.689069 
L 322.694923 174.825329 
L 320.668418 175.784435 
L 318.814715 221.732338 
L 316.69919 201.442876 
L 314.45799 175.057831 
L 312.609524 162.146191 
L 310.504472 161.768521 
L 308.640296 164.655962 
L 306.739466 174.900217 
L 304.901472 198.13944 
L 302.833075 212.014778 
L 300.80657 214.736652 
L 298.999995 222.569674 
L 296.963017 224.182557 
L 295.083132 228.070695 
L 293.135173 230.263325 
L 291.380963 231.186662 
L 289.574389 229.573623 
L 287.804469 225.784301 
L 286.10786 197.47127 
L 284.128483 233.289748 
L 282.133396 231.312971 
L 280.410605 228.829886 
L 278.384099 226.944344 
L 276.640362 228.781862 
L 274.938516 189.348324 
L 273.173833 234.229365 
L 271.524352 233.559252 
L 269.712541 234.377284 
L 268.146843 236.263552 
L 266.355978 234.053022 
L 264.685551 233.360759 
L 262.878976 232.189502 
L 260.9572 235.369122 
L 259.360083 233.901559 
L 257.600637 233.06035 
L 256.087303 232.840048 
L 254.55826 233.847144 
L 252.584119 234.686145 
L 250.924165 233.336126 
L 249.091409 234.207268 
L 247.242942 234.178411 
L 245.651062 235.128602 
L 243.828778 234.740417 
L 242.058859 239.376615 
L 240.383195 238.610239 
L 238.503311 240.823126 
L 236.754337 240.965234 
L 234.062803 239.406689 
L 232.423794 239.311295 
L 230.753367 239.050018 
L 229.030576 239.091539 
L 227.333967 239.297363 
L 225.480264 238.6576 
L 223.610852 237.528151 
L 220.47422 239.736115 
L 218.709537 241.225932 
L 217.149075 239.911951 
L 215.185407 238.622473 
L 213.237448 237.806825 
L 211.237125 238.89299 
L 209.262984 239.528253 
L 207.550666 237.771445 
L 205.602707 237.887293 
L 203.900862 238.951006 
L 202.151888 238.809927 
L 200.319131 237.431877 
L 198.470665 239.135026 
L 196.637908 238.287579 
L 194.396708 238.306841 
L 192.590134 237.937546 
L 190.924943 237.960817 
L 189.254516 237.289719 
L 187.631217 236.466323 
L 185.908426 238.825946 
L 184.227526 237.658632 
L 182.546626 237.658956 
L 180.829071 238.594662 
L 179.09057 240.796078 
L 177.194976 239.553889 
L 175.451239 241.192967 
L 173.744157 239.568551 
L 170.398067 239.005158 
L 168.607201 239.765925 
L 166.999612 241.439423 
L 165.371076 241.264942 
L 163.690177 239.402074 
L 161.946439 238.893101 
L 160.32314 241.402311 
L 158.621295 241.315118 
L 155.290914 245.009953 
L 153.63096 245.004572 
L 151.766784 243.30587 
L 150.263924 243.380892 
L 148.614443 243.323636 
L 146.970198 243.417605 
L 145.446391 241.773097 
L 143.81262 242.960058 
L 142.257395 243.436417 
L 140.555549 242.662258 
L 139.031743 243.216765 
L 137.638847 241.929821 
L 136.225006 242.647158 
L 134.706436 243.996672 
L 133.324014 241.984808 
L 131.931119 241.590586 
L 130.580115 244.415197 
L 129.18722 242.661494 
L 127.820507 243.164469 
L 126.54805 243.276708 
L 125.02948 242.866992 
L 123.662767 243.720695 
L 122.453148 243.512798 
L 121.013125 245.238188 
L 119.892525 241.438387 
L 118.57294 243.3869 
L 116.415523 243.642371 
L 115.315869 244.976451 
L 113.247472 246.506876 
L 112.414877 246.350893 
L 111.226203 245.992448 
L 110.09513 246.432529 
L 108.686526 246.119996 
L 107.660182 246.245635 
L 106.466272 246.551806 
L 105.560366 247.857958 
L 104.534022 247.740621 
L 103.685718 245.802542 
L 102.460389 246.209737 
L 101.449755 245.613864 
L 100.643342 246.186899 
L 99.653653 247.225893 
L 98.637782 246.079193 
L 97.72664 247.981509 
L 96.647932 246.533415 
L 95.317874 248.14149 
L 94.422441 246.74421 
L 93.33326 245.913841 
L 92.511138 253.69713 
L 91.401011 251.454161 
L 90.468923 251.845763 
L 89.405924 251.92177 
L 89.01319 251.13703 
L 88.14394 251.278341 
L 87.67266 253.660997 
L 87.012867 251.744207 
L 85.808484 253.330032 
L 85.132982 253.241286 
L 84.735012 251.452115 
L 84.541264 253.503899 
L 84.14853 251.543191 
L 83.520156 251.812189 
L 82.802763 253.620073 
L 82.237226 260.297661 
L 81.954458 258.765333 
L 81.745 258.96208 
L 81.917803 259.047854 
L 81.03808 260.465089 
L 80.959533 260.854253 
L 80.781494 258.121526 
L 80.655819 259.657208 
L 80.446361 258.985178 
L 79.797042 258.148806 
L 79.393835 260.554196 
L 79.084885 258.917536 
L 79.205323 259.236127 
L 78.875427 256.956424 
L 77.932866 258.474783 
L 77.718172 260.570919 
L 77.309729 259.229353 
L 76.948414 262.983882 
L 76.189129 266.298262 
L 75.901124 265.470929 
L 75.440317 262.781029 
L 75.492681 264.421627 
L 75.188967 264.358149 
L 74.754342 263.360288 
L 74.770051 266.229749 
L 74.487283 263.132093 
L 73.832727 266.615196 
L 73.832727 266.615196 
" clip-path="url(#p2ba64883ff)" style="fill: none; stroke: #d62728; stroke-width: 1.5; stroke-linecap: square"/>
   </g>
   <g id="line2d_29">
    <path d="M 398.487273 261.140484 
L 397.743697 258.538764 
L 396.895393 261.100611 
L 396.094216 261.039567 
L 395.308749 249.282695 
L 394.523282 261.318152 
L 393.591194 261.364388 
L 391.7532 261.125931 
L 390.758275 261.387802 
L 389.820951 261.448239 
L 388.862681 261.108165 
L 387.967249 261.45794 
L 386.982796 261.310006 
L 385.925034 261.36576 
L 384.725887 261.078756 
L 383.448194 261.274773 
L 382.33283 261.153191 
L 381.165102 250.881022 
L 380.002611 260.123752 
L 378.703972 259.025817 
L 377.279658 244.234526 
L 375.78727 258.926906 
L 374.404848 261.37892 
L 373.064317 258.008792 
L 371.545747 261.649384 
L 370.147616 259.448987 
L 368.602863 261.477428 
L 367.209968 261.068234 
L 365.460995 244.970217 
L 363.968607 259.607434 
L 362.434328 257.546458 
L 360.559679 257.793694 
L 359.109183 261.518772 
L 357.354973 259.780374 
L 355.653127 260.169376 
L 353.862262 259.745101 
L 352.176126 260.138297 
L 350.432389 260.307809 
L 348.437302 260.141539 
L 346.452688 260.351592 
L 344.431419 257.248519 
L 342.415387 259.238229 
L 340.362699 256.071683 
L 338.561361 254.786577 
L 336.435363 260.175863 
L 334.513586 249.868039 
L 332.623229 248.851944 
L 330.455339 250.198358 
L 328.517853 250.591823 
L 326.433747 248.149165 
L 324.464842 251.428856 
L 322.694923 251.935938 
L 320.668418 252.297953 
L 318.814715 261.716666 
L 316.69919 259.402902 
L 314.45799 256.115085 
L 312.609524 245.280563 
L 310.504472 251.689933 
L 308.640296 251.765122 
L 306.739466 256.302792 
L 302.833075 261.58234 
L 300.80657 261.33356 
L 298.999995 261.677132 
L 296.963017 259.804346 
L 295.083132 261.536256 
L 289.574389 261.601951 
L 287.804469 261.836488 
L 286.10786 254.649496 
L 284.128483 261.606247 
L 282.133396 261.786872 
L 280.410605 260.215115 
L 278.384099 256.446304 
L 276.640362 261.868476 
L 274.938516 250.764794 
L 273.173833 261.852277 
L 271.524352 261.868802 
L 269.712541 260.703834 
L 268.146843 261.415912 
L 266.355978 261.751921 
L 264.685551 260.292112 
L 262.878976 259.67211 
L 260.9572 261.888671 
L 259.360083 260.126755 
L 257.600637 261.844626 
L 256.087303 260.495943 
L 254.55826 259.77173 
L 252.584119 261.500564 
L 250.924165 261.816148 
L 249.091409 261.812325 
L 247.242942 260.380561 
L 245.651062 260.470892 
L 243.828778 259.440392 
L 242.058859 263.144655 
L 240.383195 265.173595 
L 238.503311 264.560038 
L 236.754337 264.595246 
L 234.062803 263.507023 
L 232.423794 263.017413 
L 230.753367 264.637387 
L 229.030576 264.611195 
L 227.333967 263.35628 
L 225.480264 264.288206 
L 223.610852 262.459672 
L 220.47422 264.628769 
L 218.709537 265.255808 
L 217.149075 264.232668 
L 215.185407 264.047439 
L 213.237448 264.856767 
L 211.237125 262.197832 
L 209.262984 264.592262 
L 207.550666 262.175812 
L 205.602707 262.429909 
L 203.900862 264.372674 
L 202.151888 263.063009 
L 200.319131 266.258338 
L 198.470665 264.581775 
L 196.637908 264.320706 
L 194.396708 265.777513 
L 192.590134 262.181132 
L 190.924943 264.609404 
L 189.254516 264.272769 
L 187.631217 263.719536 
L 185.908426 262.909833 
L 184.227526 262.912817 
L 182.546626 261.249308 
L 180.829071 256.96841 
L 179.09057 264.35127 
L 177.194976 263.307036 
L 175.451239 264.677936 
L 173.744157 264.680754 
L 171.775252 265.451977 
L 170.398067 264.945142 
L 165.371076 264.287952 
L 163.690177 264.682889 
L 160.32314 264.551432 
L 158.621295 264.748343 
L 156.767592 267.23683 
L 155.290914 267.480365 
L 153.63096 267.495233 
L 151.766784 266.151158 
L 150.263924 266.541729 
L 148.614443 265.419799 
L 146.970198 267.764312 
L 145.446391 264.907924 
L 143.81262 267.816709 
L 142.257395 265.891598 
L 140.555549 267.765842 
L 139.031743 265.952214 
L 137.638847 266.192324 
L 136.225006 267.567657 
L 134.706436 267.772682 
L 133.324014 267.510553 
L 131.931119 269.266493 
L 130.580115 268.53942 
L 129.18722 266.379775 
L 127.820507 267.753065 
L 126.54805 265.145098 
L 125.02948 267.727519 
L 123.662767 266.107133 
L 122.453148 267.681222 
L 121.013125 267.827788 
L 119.892525 266.1579 
L 118.57294 266.436233 
L 116.415523 266.36668 
L 115.315869 267.708546 
L 113.247472 269.458539 
L 111.226203 269.515432 
L 110.09513 269.068538 
L 108.686526 269.49467 
L 107.660182 267.540129 
L 106.466272 269.500508 
L 104.534022 269.563936 
L 103.685718 269.500786 
L 101.449755 269.130765 
L 100.643342 269.004722 
L 99.653653 269.442334 
L 98.637782 268.114415 
L 97.72664 269.525908 
L 96.647932 266.773198 
L 95.317874 269.491333 
L 93.33326 269.502176 
L 92.511138 272.334576 
L 91.401011 273.027249 
L 90.468923 273.107893 
L 89.405924 271.298897 
L 89.01319 272.854518 
L 88.14394 270.865914 
L 87.67266 272.646694 
L 87.012867 272.958116 
L 85.808484 272.515346 
L 85.132982 272.859325 
L 84.14853 272.889357 
L 83.520156 273.103361 
L 82.802763 273.065736 
L 82.420502 276.677144 
L 82.237226 276.450823 
L 81.954458 274.823068 
L 81.745 274.77551 
L 81.917803 273.51119 
L 81.03808 276.564398 
L 80.959533 276.469076 
L 80.781494 276.456455 
L 80.655819 276.68908 
L 80.446361 276.364536 
L 79.797042 276.58509 
L 79.393835 276.485979 
L 79.084885 274.64611 
L 79.205323 274.045774 
L 78.875427 276.333408 
L 77.932866 276.138789 
L 77.718172 275.924755 
L 77.309729 274.300014 
L 76.948414 280.353113 
L 76.539971 277.726202 
L 76.189129 280.097601 
L 75.901124 280.390789 
L 75.492681 277.742616 
L 74.754342 280.255136 
L 74.770051 279.723233 
L 74.487283 279.973912 
L 73.832727 282.834393 
L 73.832727 282.834393 
" clip-path="url(#p2ba64883ff)" style="fill: none; stroke: #9467bd; stroke-width: 1.5; stroke-linecap: square"/>
   </g>
   <g id="patch_3">
    <path d="M 57.6 307.584 
L 57.6 41.472 
" style="fill: none; stroke: #000000; stroke-width: 0.8; stroke-linejoin: miter; stroke-linecap: square"/>
   </g>
   <g id="patch_4">
    <path d="M 414.72 307.584 
L 414.72 41.472 
" style="fill: none; stroke: #000000; stroke-width: 0.8; stroke-linejoin: miter; stroke-linecap: square"/>
   </g>
   <g id="patch_5">
    <path d="M 57.6 307.584 
L 414.72 307.584 
" style="fill: none; stroke: #000000; stroke-width: 0.8; stroke-linejoin: miter; stroke-linecap: square"/>
   </g>
   <g id="patch_6">
    <path d="M 57.6 41.472 
L 414.72 41.472 
" style="fill: none; stroke: #000000; stroke-width: 0.8; stroke-linejoin: miter; stroke-linecap: square"/>
   </g>
   <g id="text_12">
    <!-- Scaling of CC on mixed queries -->
    <g transform="translate(142.628438 35.472) scale(0.12 -0.12)">
     <defs>
      <path id="DejaVuSans-53" d="M 3425 4513 
L 3425 3897 
Q 3066 4069 2747 4153 
Q 2428 4238 2131 4238 
Q 1616 4238 1336 4038 
Q 1056 3838 1056 3469 
Q 1056 3159 1242 3001 
Q 1428 2844 1947 2747 
L 2328 2669 
Q 3034 2534 3370 2195 
Q 3706 1856 3706 1288 
Q 3706 609 3251 259 
Q 2797 -91 1919 -91 
Q 1588 -91 1214 -16 
Q 841 59 441 206 
L 441 856 
Q 825 641 1194 531 
Q 1563 422 1919 422 
Q 2459 422 2753 634 
Q 3047 847 3047 1241 
Q 3047 1584 2836 1778 
Q 2625 1972 2144 2069 
L 1759 2144 
Q 1053 2284 737 2584 
Q 422 2884 422 3419 
Q 422 4038 858 4394 
Q 1294 4750 2059 4750 
Q 2388 4750 2728 4690 
Q 3069 4631 3425 4513 
z
" transform="scale(0.015625)"/>
      <path id="DejaVuSans-61" d="M 2194 1759 
Q 1497 1759 1228 1600 
Q 959 1441 959 1056 
Q 959 750 1161 570 
Q 1363 391 1709 391 
Q 2188 391 2477 730 
Q 2766 1069 2766 1631 
L 2766 1759 
L 2194 1759 
z
M 3341 1997 
L 3341 0 
L 2766 0 
L 2766 531 
Q 2569 213 2275 61 
Q 1981 -91 1556 -91 
Q 1019 -91 701 211 
Q 384 513 384 1019 
Q 384 1609 779 1909 
Q 1175 2209 1959 2209 
L 2766 2209 
L 2766 2266 
Q 2766 2663 2505 2880 
Q 2244 3097 1772 3097 
Q 1472 3097 1187 3025 
Q 903 2953 641 2809 
L 641 3341 
Q 956 3463 1253 3523 
Q 1550 3584 1831 3584 
Q 2591 3584 2966 3190 
Q 3341 2797 3341 1997 
z
" transform="scale(0.015625)"/>
      <path id="DejaVuSans-67" d="M 2906 1791 
Q 2906 2416 2648 2759 
Q 2391 3103 1925 3103 
Q 1463 3103 1205 2759 
Q 947 2416 947 1791 
Q 947 1169 1205 825 
Q 1463 481 1925 481 
Q 2391 481 2648 825 
Q 2906 1169 2906 1791 
z
M 3481 434 
Q 3481 -459 3084 -895 
Q 2688 -1331 1869 -1331 
Q 1566 -1331 1297 -1286 
Q 1028 -1241 775 -1147 
L 775 -588 
Q 1028 -725 1275 -790 
Q 1522 -856 1778 -856 
Q 2344 -856 2625 -561 
Q 2906 -266 2906 331 
L 2906 616 
Q 2728 306 2450 153 
Q 2172 0 1784 0 
Q 1141 0 747 490 
Q 353 981 353 1791 
Q 353 2603 747 3093 
Q 1141 3584 1784 3584 
Q 2172 3584 2450 3431 
Q 2728 3278 2906 2969 
L 2906 3500 
L 3481 3500 
L 3481 434 
z
" transform="scale(0.015625)"/>
      <path id="DejaVuSans-43" d="M 4122 4306 
L 4122 3641 
Q 3803 3938 3442 4084 
Q 3081 4231 2675 4231 
Q 1875 4231 1450 3742 
Q 1025 3253 1025 2328 
Q 1025 1406 1450 917 
Q 1875 428 2675 428 
Q 3081 428 3442 575 
Q 3803 722 4122 1019 
L 4122 359 
Q 3791 134 3420 21 
Q 3050 -91 2638 -91 
Q 1578 -91 968 557 
Q 359 1206 359 2328 
Q 359 3453 968 4101 
Q 1578 4750 2638 4750 
Q 3056 4750 3426 4639 
Q 3797 4528 4122 4306 
z
" transform="scale(0.015625)"/>
      <path id="DejaVuSans-78" d="M 3513 3500 
L 2247 1797 
L 3578 0 
L 2900 0 
L 1881 1375 
L 863 0 
L 184 0 
L 1544 1831 
L 300 3500 
L 978 3500 
L 1906 2253 
L 2834 3500 
L 3513 3500 
z
" transform="scale(0.015625)"/>
      <path id="DejaVuSans-71" d="M 947 1747 
Q 947 1113 1208 752 
Q 1469 391 1925 391 
Q 2381 391 2643 752 
Q 2906 1113 2906 1747 
Q 2906 2381 2643 2742 
Q 2381 3103 1925 3103 
Q 1469 3103 1208 2742 
Q 947 2381 947 1747 
z
M 2906 525 
Q 2725 213 2448 61 
Q 2172 -91 1784 -91 
Q 1150 -91 751 415 
Q 353 922 353 1747 
Q 353 2572 751 3078 
Q 1150 3584 1784 3584 
Q 2172 3584 2448 3432 
Q 2725 3281 2906 2969 
L 2906 3500 
L 3481 3500 
L 3481 -1331 
L 2906 -1331 
L 2906 525 
z
" transform="scale(0.015625)"/>
     </defs>
     <use xlink:href="#DejaVuSans-53"/>
     <use xlink:href="#DejaVuSans-63" x="63.476562"/>
     <use xlink:href="#DejaVuSans-61" x="118.457031"/>
     <use xlink:href="#DejaVuSans-6c" x="179.736328"/>
     <use xlink:href="#DejaVuSans-69" x="207.519531"/>
     <use xlink:href="#DejaVuSans-6e" x="235.302734"/>
     <use xlink:href="#DejaVuSans-67" x="298.681641"/>
     <use xlink:href="#DejaVuSans-20" x="362.158203"/>
     <use xlink:href="#DejaVuSans-6f" x="393.945312"/>
     <use xlink:href="#DejaVuSans-66" x="455.126953"/>
     <use xlink:href="#DejaVuSans-20" x="490.332031"/>
     <use xlink:href="#DejaVuSans-43" x="522.119141"/>
     <use xlink:href="#DejaVuSans-43" x="591.943359"/>
     <use xlink:href="#DejaVuSans-20" x="661.767578"/>
     <use xlink:href="#DejaVuSans-6f" x="693.554688"/>
     <use xlink:href="#DejaVuSans-6e" x="754.736328"/>
     <use xlink:href="#DejaVuSans-20" x="818.115234"/>
     <use xlink:href="#DejaVuSans-6d" x="849.902344"/>
     <use xlink:href="#DejaVuSans-69" x="947.314453"/>
     <use xlink:href="#DejaVuSans-78" x="975.097656"/>
     <use xlink:href="#DejaVuSans-65" x="1031.152344"/>
     <use xlink:href="#DejaVuSans-64" x="1092.675781"/>
     <use xlink:href="#DejaVuSans-20" x="1156.152344"/>
     <use xlink:href="#DejaVuSans-71" x="1187.939453"/>
     <use xlink:href="#DejaVuSans-75" x="1251.416016"/>
     <use xlink:href="#DejaVuSans-65" x="1314.794922"/>
     <use xlink:href="#DejaVuSans-72" x="1376.318359"/>
     <use xlink:href="#DejaVuSans-69" x="1417.431641"/>
     <use xlink:href="#DejaVuSans-65" x="1445.214844"/>
     <use xlink:href="#DejaVuSans-73" x="1506.738281"/>
    </g>
   </g>
   <g id="legend_1">
    <g id="patch_7">
     <path d="M 64.6 122.862625 
L 221.35625 122.862625 
Q 223.35625 122.862625 223.35625 120.862625 
L 223.35625 48.472 
Q 223.35625 46.472 221.35625 46.472 
L 64.6 46.472 
Q 62.6 46.472 62.6 48.472 
L 62.6 120.862625 
Q 62.6 122.862625 64.6 122.862625 
z
" style="fill: #ffffff; opacity: 0.8; stroke: #cccccc; stroke-linejoin: miter"/>
    </g>
    <g id="line2d_30">
     <path d="M 66.6 54.570438 
L 76.6 54.570438 
L 86.6 54.570438 
" style="fill: none; stroke: #1f77b4; stroke-width: 1.5; stroke-linecap: square"/>
    </g>
    <g id="text_13">
     <!-- kiddo (k-d tree) -->
     <g transform="translate(94.6 58.070438) scale(0.1 -0.1)">
      <defs>
       <path id="DejaVuSans-6b" d="M 581 4863 
L 1159 4863 
L 1159 1991 
L 2875 3500 
L 3609 3500 
L 1753 1863 
L 3688 0 
L 2938 0 
L 1159 1709 
L 1159 0 
L 581 0 
L 581 4863 
z
" transform="scale(0.015625)"/>
       <path id="DejaVuSans-2d" d="M 313 2009 
L 1997 2009 
L 1997 1497 
L 313 1497 
L 313 2009 
z
" transform="scale(0.015625)"/>
      </defs>
      <use xlink:href="#DejaVuSans-6b"/>
      <use xlink:href="#DejaVuSans-69" x="57.910156"/>
      <use xlink:href="#DejaVuSans-64" x="85.693359"/>
      <use xlink:href="#DejaVuSans-64" x="149.169922"/>
      <use xlink:href="#DejaVuSans-6f" x="212.646484"/>
      <use xlink:href="#DejaVuSans-20" x="273.828125"/>
      <use xlink:href="#DejaVuSans-28" x="305.615234"/>
      <use xlink:href="#DejaVuSans-6b" x="344.628906"/>
      <use xlink:href="#DejaVuSans-2d" x="402.539062"/>
      <use xlink:href="#DejaVuSans-64" x="438.623047"/>
      <use xlink:href="#DejaVuSans-20" x="502.099609"/>
      <use xlink:href="#DejaVuSans-74" x="533.886719"/>
      <use xlink:href="#DejaVuSans-72" x="573.095703"/>
      <use xlink:href="#DejaVuSans-65" x="611.958984"/>
      <use xlink:href="#DejaVuSans-65" x="673.482422"/>
      <use xlink:href="#DejaVuSans-29" x="735.005859"/>
     </g>
    </g>
    <g id="line2d_31">
     <path d="M 66.6 69.248563 
L 76.6 69.248563 
L 86.6 69.248563 
" style="fill: none; stroke: #ff7f0e; stroke-width: 1.5; stroke-linecap: square"/>
    </g>
    <g id="text_14">
     <!-- forward tree (sequential) -->
     <g transform="translate(94.6 72.748563) scale(0.1 -0.1)">
      <defs>
       <path id="DejaVuSans-77" d="M 269 3500 
L 844 3500 
L 1563 769 
L 2278 3500 
L 2956 3500 
L 3675 769 
L 4391 3500 
L 4966 3500 
L 4050 0 
L 3372 0 
L 2619 2869 
L 1863 0 
L 1184 0 
L 269 3500 
z
" transform="scale(0.015625)"/>
      </defs>
      <use xlink:href="#DejaVuSans-66"/>
      <use xlink:href="#DejaVuSans-6f" x="35.205078"/>
      <use xlink:href="#DejaVuSans-72" x="96.386719"/>
      <use xlink:href="#DejaVuSans-77" x="137.5"/>
      <use xlink:href="#DejaVuSans-61" x="219.287109"/>
      <use xlink:href="#DejaVuSans-72" x="280.566406"/>
      <use xlink:href="#DejaVuSans-64" x="319.929688"/>
      <use xlink:href="#DejaVuSans-20" x="383.40625"/>
      <use xlink:href="#DejaVuSans-74" x="415.193359"/>
      <use xlink:href="#DejaVuSans-72" x="454.402344"/>
      <use xlink:href="#DejaVuSans-65" x="493.265625"/>
      <use xlink:href="#DejaVuSans-65" x="554.789062"/>
      <use xlink:href="#DejaVuSans-20" x="616.3125"/>
      <use xlink:href="#DejaVuSans-28" x="648.099609"/>
      <use xlink:href="#DejaVuSans-73" x="687.113281"/>
      <use xlink:href="#DejaVuSans-65" x="739.212891"/>
      <use xlink:href="#DejaVuSans-71" x="800.736328"/>
      <use xlink:href="#DejaVuSans-75" x="864.212891"/>
      <use xlink:href="#DejaVuSans-65" x="927.591797"/>
      <use xlink:href="#DejaVuSans-6e" x="989.115234"/>
      <use xlink:href="#DejaVuSans-74" x="1052.494141"/>
      <use xlink:href="#DejaVuSans-69" x="1091.703125"/>
      <use xlink:href="#DejaVuSans-61" x="1119.486328"/>
      <use xlink:href="#DejaVuSans-6c" x="1180.765625"/>
      <use xlink:href="#DejaVuSans-29" x="1208.548828"/>
     </g>
    </g>
    <g id="line2d_32">
     <path d="M 66.6 83.926688 
L 76.6 83.926688 
L 86.6 83.926688 
" style="fill: none; stroke: #2ca02c; stroke-width: 1.5; stroke-linecap: square"/>
    </g>
    <g id="text_15">
     <!-- forward tree (SIMD) -->
     <g transform="translate(94.6 87.426688) scale(0.1 -0.1)">
      <defs>
       <path id="DejaVuSans-49" d="M 628 4666 
L 1259 4666 
L 1259 0 
L 628 0 
L 628 4666 
z
" transform="scale(0.015625)"/>
       <path id="DejaVuSans-4d" d="M 628 4666 
L 1569 4666 
L 2759 1491 
L 3956 4666 
L 4897 4666 
L 4897 0 
L 4281 0 
L 4281 4097 
L 3078 897 
L 2444 897 
L 1241 4097 
L 1241 0 
L 628 0 
L 628 4666 
z
" transform="scale(0.015625)"/>
       <path id="DejaVuSans-44" d="M 1259 4147 
L 1259 519 
L 2022 519 
Q 2988 519 3436 956 
Q 3884 1394 3884 2338 
Q 3884 3275 3436 3711 
Q 2988 4147 2022 4147 
L 1259 4147 
z
M 628 4666 
L 1925 4666 
Q 3281 4666 3915 4102 
Q 4550 3538 4550 2338 
Q 4550 1131 3912 565 
Q 3275 0 1925 0 
L 628 0 
L 628 4666 
z
" transform="scale(0.015625)"/>
      </defs>
      <use xlink:href="#DejaVuSans-66"/>
      <use xlink:href="#DejaVuSans-6f" x="35.205078"/>
      <use xlink:href="#DejaVuSans-72" x="96.386719"/>
      <use xlink:href="#DejaVuSans-77" x="137.5"/>
      <use xlink:href="#DejaVuSans-61" x="219.287109"/>
      <use xlink:href="#DejaVuSans-72" x="280.566406"/>
      <use xlink:href="#DejaVuSans-64" x="319.929688"/>
      <use xlink:href="#DejaVuSans-20" x="383.40625"/>
      <use xlink:href="#DejaVuSans-74" x="415.193359"/>
      <use xlink:href="#DejaVuSans-72" x="454.402344"/>
      <use xlink:href="#DejaVuSans-65" x="493.265625"/>
      <use xlink:href="#DejaVuSans-65" x="554.789062"/>
      <use xlink:href="#DejaVuSans-20" x="616.3125"/>
      <use xlink:href="#DejaVuSans-28" x="648.099609"/>
      <use xlink:href="#DejaVuSans-53" x="687.113281"/>
      <use xlink:href="#DejaVuSans-49" x="750.589844"/>
      <use xlink:href="#DejaVuSans-4d" x="780.082031"/>
      <use xlink:href="#DejaVuSans-44" x="866.361328"/>
      <use xlink:href="#DejaVuSans-29" x="943.363281"/>
     </g>
    </g>
    <g id="line2d_33">
     <path d="M 66.6 98.604813 
L 76.6 98.604813 
L 86.6 98.604813 
" style="fill: none; stroke: #d62728; stroke-width: 1.5; stroke-linecap: square"/>
    </g>
    <g id="text_16">
     <!-- captree (sequential) -->
     <g transform="translate(94.6 102.104813) scale(0.1 -0.1)">
      <use xlink:href="#DejaVuSans-63"/>
      <use xlink:href="#DejaVuSans-61" x="54.980469"/>
      <use xlink:href="#DejaVuSans-70" x="116.259766"/>
      <use xlink:href="#DejaVuSans-74" x="179.736328"/>
      <use xlink:href="#DejaVuSans-72" x="218.945312"/>
      <use xlink:href="#DejaVuSans-65" x="257.808594"/>
      <use xlink:href="#DejaVuSans-65" x="319.332031"/>
      <use xlink:href="#DejaVuSans-20" x="380.855469"/>
      <use xlink:href="#DejaVuSans-28" x="412.642578"/>
      <use xlink:href="#DejaVuSans-73" x="451.65625"/>
      <use xlink:href="#DejaVuSans-65" x="503.755859"/>
      <use xlink:href="#DejaVuSans-71" x="565.279297"/>
      <use xlink:href="#DejaVuSans-75" x="628.755859"/>
      <use xlink:href="#DejaVuSans-65" x="692.134766"/>
      <use xlink:href="#DejaVuSans-6e" x="753.658203"/>
      <use xlink:href="#DejaVuSans-74" x="817.037109"/>
      <use xlink:href="#DejaVuSans-69" x="856.246094"/>
      <use xlink:href="#DejaVuSans-61" x="884.029297"/>
      <use xlink:href="#DejaVuSans-6c" x="945.308594"/>
      <use xlink:href="#DejaVuSans-29" x="973.091797"/>
     </g>
    </g>
    <g id="line2d_34">
     <path d="M 66.6 113.282938 
L 76.6 113.282938 
L 86.6 113.282938 
" style="fill: none; stroke: #9467bd; stroke-width: 1.5; stroke-linecap: square"/>
    </g>
    <g id="text_17">
     <!-- captree (SIMD) -->
     <g transform="translate(94.6 116.782938) scale(0.1 -0.1)">
      <use xlink:href="#DejaVuSans-63"/>
      <use xlink:href="#DejaVuSans-61" x="54.980469"/>
      <use xlink:href="#DejaVuSans-70" x="116.259766"/>
      <use xlink:href="#DejaVuSans-74" x="179.736328"/>
      <use xlink:href="#DejaVuSans-72" x="218.945312"/>
      <use xlink:href="#DejaVuSans-65" x="257.808594"/>
      <use xlink:href="#DejaVuSans-65" x="319.332031"/>
      <use xlink:href="#DejaVuSans-20" x="380.855469"/>
      <use xlink:href="#DejaVuSans-28" x="412.642578"/>
      <use xlink:href="#DejaVuSans-53" x="451.65625"/>
      <use xlink:href="#DejaVuSans-49" x="515.132812"/>
      <use xlink:href="#DejaVuSans-4d" x="544.625"/>
      <use xlink:href="#DejaVuSans-44" x="630.904297"/>
      <use xlink:href="#DejaVuSans-29" x="707.90625"/>
     </g>
    </g>
   </g>
  </g>
 </g>
 <defs>
  <clipPath id="p2ba64883ff">
   <rect x="57.6" y="41.472" width="357.12" height="266.112"/>
  </clipPath>
 </defs>
</svg>
