<?xml version="1.0" encoding="UTF-8"?>
<!DOCTYPE svg  PUBLIC '-//W3C//DTD SVG 1.1//EN'  'http://www.w3.org/Graphics/SVG/1.1/DTD/svg11.dtd'>
<svg width="460.8pt" height="319.68pt" version="1.1" viewBox="0 0 460.8 319.68" xmlns="http://www.w3.org/2000/svg" xmlns:xlink="http://www.w3.org/1999/xlink">
 <metadata>
  <rdf:RDF xmlns:cc="http://creativecommons.org/ns#" xmlns:dc="http://purl.org/dc/elements/1.1/" xmlns:rdf="http://www.w3.org/1999/02/22-rdf-syntax-ns#">
   <cc:Work>
    <dc:type rdf:resource="http://purl.org/dc/dcmitype/StillImage"/>
    <dc:date>2024-06-06T15:28:38.272345</dc:date>
    <dc:format>image/svg+xml</dc:format>
    <dc:creator>
     <cc:Agent>
      <dc:title>Matplotlib v3.8.4, https://matplotlib.org/</dc:title>
     </cc:Agent>
    </dc:creator>
   </cc:Work>
  </rdf:RDF>
 </metadata>
 <defs>
  <style type="text/css">*{stroke-linejoin: round; stroke-linecap: butt}</style>
 </defs>
 <g id="figure_1">
  <g id="patch_1">
   <path d="m0 319.68h460.8v-319.68h-460.8z" fill="#fff"/>
  </g>
  <g id="axes_1">
   <g id="patch_2">
    <path d="m57.6 284.52h357.12v-246.15h-357.12z" fill="#fff"/>
   </g>
   <g id="matplotlib.axis_1">
    <g id="xtick_1">
     <g id="line2d_1">
      <defs>
       <path id="m51b87e9e75" d="m0 0v3.5" stroke="#000" stroke-width=".8"/>
      </defs>
      <use x="71.30331" y="284.5152" stroke="#000000" stroke-width=".8" xlink:href="#m51b87e9e75"/>
     </g>
     <g id="text_1">
      <!-- 0 -->
      <g transform="translate(68.122 299.11) scale(.1 -.1)">
       <defs>
        <path id="DejaVuSans-30" transform="scale(.015625)" d="m2034 4250q-487 0-733-480-245-479-245-1442 0-959 245-1439 246-480 733-480 491 0 736 480 246 480 246 1439 0 963-246 1442-245 480-736 480zm0 500q785 0 1199-621 414-620 414-1801 0-1178-414-1799-414-620-1199-620-784 0-1198 620-414 621-414 1799 0 1181 414 1801 414 621 1198 621z"/>
       </defs>
       <use xlink:href="#DejaVuSans-30"/>
      </g>
     </g>
    </g>
    <g id="xtick_2">
     <g id="line2d_2">
      <use x="122.40265" y="284.5152" stroke="#000000" stroke-width=".8" xlink:href="#m51b87e9e75"/>
     </g>
     <g id="text_2">
      <!-- 10000 -->
      <g transform="translate(106.5 299.11) scale(.1 -.1)">
       <defs>
        <path id="DejaVuSans-31" transform="scale(.015625)" d="m794 531h1031v3560l-1122-225v575l1116 225h631v-4135h1031v-531h-2687v531z"/>
       </defs>
       <use xlink:href="#DejaVuSans-31"/>
       <use x="63.623047" xlink:href="#DejaVuSans-30"/>
       <use x="127.246094" xlink:href="#DejaVuSans-30"/>
       <use x="190.869141" xlink:href="#DejaVuSans-30"/>
       <use x="254.492188" xlink:href="#DejaVuSans-30"/>
      </g>
     </g>
    </g>
    <g id="xtick_3">
     <g id="line2d_3">
      <use x="173.50199" y="284.5152" stroke="#000000" stroke-width=".8" xlink:href="#m51b87e9e75"/>
     </g>
     <g id="text_3">
      <!-- 20000 -->
      <g transform="translate(157.6 299.11) scale(.1 -.1)">
       <defs>
        <path id="DejaVuSans-32" transform="scale(.015625)" d="m1228 531h2203v-531h-2962v531q359 372 979 998 621 627 780 809 303 340 423 576 121 236 121 464 0 372-261 606-261 235-680 235-297 0-627-103-329-103-704-313v638q381 153 712 231 332 78 607 78 725 0 1156-363 431-362 431-968 0-288-108-546-107-257-392-607-78-91-497-524-418-433-1181-1211z"/>
       </defs>
       <use xlink:href="#DejaVuSans-32"/>
       <use x="63.623047" xlink:href="#DejaVuSans-30"/>
       <use x="127.246094" xlink:href="#DejaVuSans-30"/>
       <use x="190.869141" xlink:href="#DejaVuSans-30"/>
       <use x="254.492188" xlink:href="#DejaVuSans-30"/>
      </g>
     </g>
    </g>
    <g id="xtick_4">
     <g id="line2d_4">
      <use x="224.601329" y="284.5152" stroke="#000000" stroke-width=".8" xlink:href="#m51b87e9e75"/>
     </g>
     <g id="text_4">
      <!-- 30000 -->
      <g transform="translate(208.7 299.11) scale(.1 -.1)">
       <defs>
        <path id="DejaVuSans-33" transform="scale(.015625)" d="m2597 2516q453-97 707-404 255-306 255-756 0-690-475-1069-475-378-1350-378-293 0-604 58t-642 174v609q262-153 574-231 313-78 654-78 593 0 904 234t311 681q0 413-289 645-289 233-804 233h-544v519h569q465 0 712 186t247 536q0 359-255 551-254 193-729 193-260 0-557-57-297-56-653-174v562q360 100 674 150t592 50q719 0 1137-327 419-326 419-882 0-388-222-655t-631-370z"/>
       </defs>
       <use xlink:href="#DejaVuSans-33"/>
       <use x="63.623047" xlink:href="#DejaVuSans-30"/>
       <use x="127.246094" xlink:href="#DejaVuSans-30"/>
       <use x="190.869141" xlink:href="#DejaVuSans-30"/>
       <use x="254.492188" xlink:href="#DejaVuSans-30"/>
      </g>
     </g>
    </g>
    <g id="xtick_5">
     <g id="line2d_5">
      <use x="275.700669" y="284.5152" stroke="#000000" stroke-width=".8" xlink:href="#m51b87e9e75"/>
     </g>
     <g id="text_5">
      <!-- 40000 -->
      <g transform="translate(259.79 299.11) scale(.1 -.1)">
       <defs>
        <path id="DejaVuSans-34" transform="scale(.015625)" d="m2419 4116-1594-2491h1594v2491zm-166 550h794v-3041h666v-525h-666v-1100h-628v1100h-2106v609l1940 2957z"/>
       </defs>
       <use xlink:href="#DejaVuSans-34"/>
       <use x="63.623047" xlink:href="#DejaVuSans-30"/>
       <use x="127.246094" xlink:href="#DejaVuSans-30"/>
       <use x="190.869141" xlink:href="#DejaVuSans-30"/>
       <use x="254.492188" xlink:href="#DejaVuSans-30"/>
      </g>
     </g>
    </g>
    <g id="xtick_6">
     <g id="line2d_6">
      <use x="326.800009" y="284.5152" stroke="#000000" stroke-width=".8" xlink:href="#m51b87e9e75"/>
     </g>
     <g id="text_6">
      <!-- 50000 -->
      <g transform="translate(310.89 299.11) scale(.1 -.1)">
       <defs>
        <path id="DejaVuSans-35" transform="scale(.015625)" d="m691 4666h2478v-532h-1900v-1143q137 47 274 70 138 23 276 23 781 0 1237-428 457-428 457-1159 0-753-469-1171-469-417-1322-417-294 0-599 50-304 50-629 150v635q281-153 581-228t634-75q541 0 856 284 316 284 316 772 0 487-316 771-315 285-856 285-253 0-505-56-251-56-513-175v2344z"/>
       </defs>
       <use xlink:href="#DejaVuSans-35"/>
       <use x="63.623047" xlink:href="#DejaVuSans-30"/>
       <use x="127.246094" xlink:href="#DejaVuSans-30"/>
       <use x="190.869141" xlink:href="#DejaVuSans-30"/>
       <use x="254.492188" xlink:href="#DejaVuSans-30"/>
      </g>
     </g>
    </g>
    <g id="xtick_7">
     <g id="line2d_7">
      <use x="377.899349" y="284.5152" stroke="#000000" stroke-width=".8" xlink:href="#m51b87e9e75"/>
     </g>
     <g id="text_7">
      <!-- 60000 -->
      <g transform="translate(361.99 299.11) scale(.1 -.1)">
       <defs>
        <path id="DejaVuSans-36" transform="scale(.015625)" d="m2113 2584q-425 0-674-291-248-290-248-796 0-503 248-796 249-292 674-292t673 292q248 293 248 796 0 506-248 796-248 291-673 291zm1253 1979v-575q-238 112-480 171-242 60-480 60-625 0-955-422-329-422-376-1275 184 272 462 417 279 145 613 145 703 0 1111-427 408-426 408-1160 0-719-425-1154-425-434-1131-434-810 0-1238 620-428 621-428 1799 0 1106 525 1764t1409 658q238 0 480-47t505-140z"/>
       </defs>
       <use xlink:href="#DejaVuSans-36"/>
       <use x="63.623047" xlink:href="#DejaVuSans-30"/>
       <use x="127.246094" xlink:href="#DejaVuSans-30"/>
       <use x="190.869141" xlink:href="#DejaVuSans-30"/>
       <use x="254.492188" xlink:href="#DejaVuSans-30"/>
      </g>
     </g>
    </g>
    <g id="text_8">
     <!-- Number of points in cloud -->
     <g transform="translate(171.44 312.79) scale(.1 -.1)">
      <defs>
       <path id="DejaVuSans-4e" transform="scale(.015625)" d="m628 4666h850l2069-3903v3903h612v-4666h-850l-2068 3903v-3903h-613v4666z"/>
       <path id="DejaVuSans-75" transform="scale(.015625)" d="m544 1381v2119h575v-2097q0-497 193-746 194-248 582-248 465 0 735 297 271 297 271 810v1984h575v-3500h-575v538q-209-319-486-474-276-155-642-155-603 0-916 375-312 375-312 1097zm1447 2203z"/>
       <path id="DejaVuSans-6d" transform="scale(.015625)" d="m3328 2828q216 388 516 572t706 184q547 0 844-383 297-382 297-1088v-2113h-578v2094q0 503-179 746-178 244-543 244-447 0-707-297-259-296-259-809v-1978h-578v2094q0 506-178 748t-550 242q-441 0-701-298-259-298-259-808v-1978h-578v3500h578v-544q197 322 472 475t653 153q382 0 649-194 267-193 395-562z"/>
       <path id="DejaVuSans-62" transform="scale(.015625)" d="m3116 1747q0 634-261 995t-717 361q-457 0-718-361t-261-995 261-995 718-361q456 0 717 361t261 995zm-1957 1222q182 312 458 463 277 152 661 152 638 0 1036-506 399-506 399-1331t-399-1332q-398-506-1036-506-384 0-661 152-276 152-458 464v-525h-578v4863h578v-1894z"/>
       <path id="DejaVuSans-65" transform="scale(.015625)" d="m3597 1894v-281h-2644q38-594 358-905t892-311q331 0 642 81t618 244v-544q-310-131-635-200t-659-69q-838 0-1327 487-489 488-489 1320 0 859 464 1363 464 505 1252 505 706 0 1117-455 411-454 411-1235zm-575 169q-6 471-264 752-258 282-683 282-481 0-770-272t-333-766l2050 4z"/>
       <path id="DejaVuSans-72" transform="scale(.015625)" d="m2631 2963q-97 56-211 82-114 27-251 27-488 0-749-317t-261-911v-1844h-578v3500h578v-544q182 319 472 473 291 155 707 155 59 0 131-8 72-7 159-23l3-590z"/>
       <path id="DejaVuSans-6f" transform="scale(.015625)" d="m1959 3097q-462 0-731-361t-269-989 267-989q268-361 733-361 460 0 728 362 269 363 269 988 0 622-269 986-268 364-728 364zm0 487q750 0 1178-488 429-487 429-1349 0-859-429-1349-428-489-1178-489-753 0-1180 489-426 490-426 1349 0 862 426 1349 427 488 1180 488z"/>
       <path id="DejaVuSans-66" transform="scale(.015625)" d="m2375 4863v-479h-550q-309 0-430-125-120-125-120-450v-309h947v-447h-947v-3053h-578v3053h-550v447h550v244q0 584 272 851 272 268 862 268h544z"/>
       <path id="DejaVuSans-70" transform="scale(.015625)" d="m1159 525v-1856h-578v4831h578v-531q182 312 458 463 277 152 661 152 638 0 1036-506 399-506 399-1331t-399-1332q-398-506-1036-506-384 0-661 152-276 152-458 464zm1957 1222q0 634-261 995t-717 361q-457 0-718-361t-261-995 261-995 718-361q456 0 717 361t261 995z"/>
       <path id="DejaVuSans-69" transform="scale(.015625)" d="m603 3500h575v-3500h-575v3500zm0 1363h575v-729h-575v729z"/>
       <path id="DejaVuSans-6e" transform="scale(.015625)" d="m3513 2113v-2113h-575v2094q0 497-194 743-194 247-581 247-466 0-735-297-269-296-269-809v-1978h-578v3500h578v-544q207 316 486 472 280 156 646 156 603 0 912-373 310-373 310-1098z"/>
       <path id="DejaVuSans-74" transform="scale(.015625)" d="m1172 4494v-994h1184v-447h-1184v-1900q0-428 117-550t477-122h590v-481h-590q-666 0-919 248-253 249-253 905v1900h-422v447h422v994h578z"/>
       <path id="DejaVuSans-73" transform="scale(.015625)" d="m2834 3397v-544q-243 125-506 187-262 63-544 63-428 0-642-131t-214-394q0-200 153-314t616-217l197-44q612-131 870-370t258-667q0-488-386-773-386-284-1061-284-281 0-586 55t-642 164v594q319-166 628-249 309-82 613-82 406 0 624 139 219 139 219 392 0 234-158 359-157 125-692 241l-200 47q-534 112-772 345-237 233-237 639 0 494 350 762 350 269 994 269 318 0 599-47 282-46 519-140z"/>
       <path id="DejaVuSans-63" transform="scale(.015625)" d="m3122 3366v-538q-244 135-489 202t-495 67q-560 0-870-355-309-354-309-995t309-996q310-354 870-354 250 0 495 67t489 202v-532q-241-112-499-168-257-57-548-57-791 0-1257 497-465 497-465 1341 0 856 470 1346 471 491 1290 491 265 0 518-55 253-54 491-163z"/>
       <path id="DejaVuSans-6c" transform="scale(.015625)" d="m603 4863h575v-4863h-575v4863z"/>
       <path id="DejaVuSans-64" transform="scale(.015625)" d="m2906 2969v1894h575v-4863h-575v525q-181-312-458-464-276-152-664-152-634 0-1033 506-398 507-398 1332t398 1331q399 506 1033 506 388 0 664-152 277-151 458-463zm-1959-1222q0-634 261-995t717-361 718 361q263 361 263 995t-263 995q-262 361-718 361t-717-361-261-995z"/>
      </defs>
      <use xlink:href="#DejaVuSans-4e"/>
      <use x="74.804688" xlink:href="#DejaVuSans-75"/>
      <use x="138.183594" xlink:href="#DejaVuSans-6d"/>
      <use x="235.595703" xlink:href="#DejaVuSans-62"/>
      <use x="299.072266" xlink:href="#DejaVuSans-65"/>
      <use x="360.595703" xlink:href="#DejaVuSans-72"/>
      <use x="401.708984" xlink:href="#DejaVuSans-20"/>
      <use x="433.496094" xlink:href="#DejaVuSans-6f"/>
      <use x="494.677734" xlink:href="#DejaVuSans-66"/>
      <use x="529.882812" xlink:href="#DejaVuSans-20"/>
      <use x="561.669922" xlink:href="#DejaVuSans-70"/>
      <use x="625.146484" xlink:href="#DejaVuSans-6f"/>
      <use x="686.328125" xlink:href="#DejaVuSans-69"/>
      <use x="714.111328" xlink:href="#DejaVuSans-6e"/>
      <use x="777.490234" xlink:href="#DejaVuSans-74"/>
      <use x="816.699219" xlink:href="#DejaVuSans-73"/>
      <use x="868.798828" xlink:href="#DejaVuSans-20"/>
      <use x="900.585938" xlink:href="#DejaVuSans-69"/>
      <use x="928.369141" xlink:href="#DejaVuSans-6e"/>
      <use x="991.748047" xlink:href="#DejaVuSans-20"/>
      <use x="1023.535156" xlink:href="#DejaVuSans-63"/>
      <use x="1078.515625" xlink:href="#DejaVuSans-6c"/>
      <use x="1106.298828" xlink:href="#DejaVuSans-6f"/>
      <use x="1167.480469" xlink:href="#DejaVuSans-75"/>
      <use x="1230.859375" xlink:href="#DejaVuSans-64"/>
     </g>
    </g>
   </g>
   <g id="matplotlib.axis_2">
    <g id="ytick_1">
     <g id="line2d_8">
      <defs>
       <path id="m5abe74d41c" d="m0 0h-3.5" stroke="#000" stroke-width=".8"/>
      </defs>
      <use x="57.6" y="250.744904" stroke="#000000" stroke-width=".8" xlink:href="#m5abe74d41c"/>
     </g>
     <g id="text_9">
      <!-- $\mathdefault{10^{1}}$ -->
      <g transform="translate(33 254.54) scale(.1 -.1)">
       <use transform="translate(0 .68438)" xlink:href="#DejaVuSans-31"/>
       <use transform="translate(63.623 .68438)" xlink:href="#DejaVuSans-30"/>
       <use transform="translate(128.2 38.966) scale(.7)" xlink:href="#DejaVuSans-31"/>
      </g>
     </g>
    </g>
    <g id="ytick_2">
     <g id="line2d_9">
      <use x="57.6" y="115.753193" stroke="#000000" stroke-width=".8" xlink:href="#m5abe74d41c"/>
     </g>
     <g id="text_10">
      <!-- $\mathdefault{10^{2}}$ -->
      <g transform="translate(33 119.55) scale(.1 -.1)">
       <use transform="translate(0 .76562)" xlink:href="#DejaVuSans-31"/>
       <use transform="translate(63.623 .76562)" xlink:href="#DejaVuSans-30"/>
       <use transform="translate(128.2 39.047) scale(.7)" xlink:href="#DejaVuSans-32"/>
      </g>
     </g>
    </g>
    <g id="ytick_3">
     <g id="line2d_10">
      <defs>
       <path id="m0caeb4b170" d="m0 0h-2" stroke="#000" stroke-width=".6"/>
      </defs>
      <use x="57.6" y="280.692646" stroke="#000000" stroke-width=".6" xlink:href="#m0caeb4b170"/>
     </g>
    </g>
    <g id="ytick_4">
     <g id="line2d_11">
      <use x="57.6" y="271.655384" stroke="#000000" stroke-width=".6" xlink:href="#m0caeb4b170"/>
     </g>
    </g>
    <g id="ytick_5">
     <g id="line2d_12">
      <use x="57.6" y="263.826952" stroke="#000000" stroke-width=".6" xlink:href="#m0caeb4b170"/>
     </g>
    </g>
    <g id="ytick_6">
     <g id="line2d_13">
      <use x="57.6" y="256.921786" stroke="#000000" stroke-width=".6" xlink:href="#m0caeb4b170"/>
     </g>
    </g>
    <g id="ytick_7">
     <g id="line2d_14">
      <use x="57.6" y="210.108349" stroke="#000000" stroke-width=".6" xlink:href="#m0caeb4b170"/>
     </g>
    </g>
    <g id="ytick_8">
     <g id="line2d_15">
      <use x="57.6" y="186.337489" stroke="#000000" stroke-width=".6" xlink:href="#m0caeb4b170"/>
     </g>
    </g>
    <g id="ytick_9">
     <g id="line2d_16">
      <use x="57.6" y="169.471795" stroke="#000000" stroke-width=".6" xlink:href="#m0caeb4b170"/>
     </g>
    </g>
    <g id="ytick_10">
     <g id="line2d_17">
      <use x="57.6" y="156.389747" stroke="#000000" stroke-width=".6" xlink:href="#m0caeb4b170"/>
     </g>
    </g>
    <g id="ytick_11">
     <g id="line2d_18">
      <use x="57.6" y="145.700935" stroke="#000000" stroke-width=".6" xlink:href="#m0caeb4b170"/>
     </g>
    </g>
    <g id="ytick_12">
     <g id="line2d_19">
      <use x="57.6" y="136.663673" stroke="#000000" stroke-width=".6" xlink:href="#m0caeb4b170"/>
     </g>
    </g>
    <g id="ytick_13">
     <g id="line2d_20">
      <use x="57.6" y="128.835241" stroke="#000000" stroke-width=".6" xlink:href="#m0caeb4b170"/>
     </g>
    </g>
    <g id="ytick_14">
     <g id="line2d_21">
      <use x="57.6" y="121.930075" stroke="#000000" stroke-width=".6" xlink:href="#m0caeb4b170"/>
     </g>
    </g>
    <g id="ytick_15">
     <g id="line2d_22">
      <use x="57.6" y="75.116639" stroke="#000000" stroke-width=".6" xlink:href="#m0caeb4b170"/>
     </g>
    </g>
    <g id="ytick_16">
     <g id="line2d_23">
      <use x="57.6" y="51.345779" stroke="#000000" stroke-width=".6" xlink:href="#m0caeb4b170"/>
     </g>
    </g>
    <g id="text_11">
     <!-- Query time (ns) -->
     <g transform="translate(26.92 200.78) rotate(-90) scale(.1 -.1)">
      <defs>
       <path id="DejaVuSans-51" transform="scale(.015625)" d="m2522 4238q-688 0-1093-513-404-512-404-1397 0-881 404-1394 405-512 1093-512 687 0 1089 512 402 513 402 1394 0 885-402 1397-402 513-1089 513zm884-4154 832-909h-763l-691 747q-103-6-158-9-54-4-104-4-984 0-1574 658-589 658-589 1761 0 1106 589 1764 590 658 1574 658 981 0 1568-658 588-658 588-1764 0-812-327-1391-326-578-945-853z"/>
       <path id="DejaVuSans-79" transform="scale(.015625)" d="m2059-325q-243-625-475-815-231-191-618-191h-460v481h338q237 0 368 113 132 112 291 531l103 262-1415 3444h609l1094-2737 1094 2737h609l-1538-3825z"/>
       <path id="DejaVuSans-28" transform="scale(.015625)" d="m1984 4856q-418-718-622-1422-203-703-203-1425 0-721 205-1429t620-1424h-500q-468 735-701 1444t-233 1409q0 697 231 1403 232 707 703 1444h500z"/>
       <path id="DejaVuSans-29" transform="scale(.015625)" d="m513 4856h500q468-737 701-1444 233-706 233-1403 0-700-233-1409t-701-1444h-500q415 716 620 1424t205 1429q0 722-205 1425-205 704-620 1422z"/>
      </defs>
      <use xlink:href="#DejaVuSans-51"/>
      <use x="78.710938" xlink:href="#DejaVuSans-75"/>
      <use x="142.089844" xlink:href="#DejaVuSans-65"/>
      <use x="203.613281" xlink:href="#DejaVuSans-72"/>
      <use x="244.726562" xlink:href="#DejaVuSans-79"/>
      <use x="303.90625" xlink:href="#DejaVuSans-20"/>
      <use x="335.693359" xlink:href="#DejaVuSans-74"/>
      <use x="374.902344" xlink:href="#DejaVuSans-69"/>
      <use x="402.685547" xlink:href="#DejaVuSans-6d"/>
      <use x="500.097656" xlink:href="#DejaVuSans-65"/>
      <use x="561.621094" xlink:href="#DejaVuSans-20"/>
      <use x="593.408203" xlink:href="#DejaVuSans-28"/>
      <use x="632.421875" xlink:href="#DejaVuSans-6e"/>
      <use x="695.800781" xlink:href="#DejaVuSans-73"/>
      <use x="747.900391" xlink:href="#DejaVuSans-29"/>
     </g>
    </g>
   </g>
   <g id="line2d_24">
    <path d="m398.49 57.767-0.4088-0.026295-0.40368 0.35851-0.47522-0.20797-0.89424 0.14422-0.50077-0.26229-0.55187 0.30628-1.0475-0.52063-0.63363 0.44292-0.70517-0.5451-2.8922 0.10755-0.78182-0.3896-0.79715 0.30274-0.7716-0.33682-0.75116-1.4333-0.94534 1.4223-0.78182-0.37001-0.9249 0.75215-0.90446-0.58786-1.9673 1.2093-1.0015-0.18003-1.1344 0.25862-1.1497 0.034389-1.1804-0.15742-1.0629-1.2787-1.303 1.2589-1.2264-0.057544-1.3592-0.80249-1.3848 1.2711-1.303-0.010894-2.7389 0.8559-1.4666-1.2823-1.4206 0.8094-1.4614-0.50822-1.768-0.45002-1.722 1.5263-1.7169-0.38376-1.6403 0.58927-1.6045-0.096297-1.8396-0.3424-1.7374 0.34383-1.8549-0.36646-1.9878 0.14477-1.722 0.41527-1.8345-0.020119-1.9367 0.14222-1.9418-0.47304-1.7834 0.092125-2.0133-0.39187-1.9111 0.77356-2.0286 0.3866-2.1819-0.78627-2.1104 1.0456-2.0491-1.3523-3.9551 0.28533-2.0746-0.723-2.1871-1.8672-2.4425-0.078642-2.1513 0.81849-2.3148-0.67318-2.2484-1.1134-2.09-0.22719-2.0031-0.58589-4.4712-1.5051-2.2126-0.76252-2.233-1.0711-2.233-2.0874-2.2177 1.3487-2.3966-0.79367-2.3761-0.51403-2.3659 0.27929-2.1104 0.009256-2.0235 0.70622-2.1104 0.47147-4.2566-0.75794-2.1615 1.4839-1.952 0.87928-1.9673-0.036338-2.0951 0.30821-2.2126-0.68812-2.1564 1.5535-2.0184-0.6657-2.2024-0.45168-2.0695 0.61301-1.9316-0.48662-1.9827 0.24913-2.1871-0.88287-1.998-0.55512-1.8345-0.13514-2.1922-1.4364-1.906 1.0046-1.8907 32.415-1.9469 0.63205-2.0082 0.35399-2.7287 1.0023-2.0695-0.72278-2.1717-0.58501-1.8856-0.3753-2.3761 0.60617-1.9111-1.7216-1.6096 0.60842-1.768-1.6126-1.7374 0.30595-1.5636-0.11848-2.0491-0.49365-5.4625-0.75797-4.0113-1.614-2.1155-1.191-4.2208-2.6061-1.625 0.61126-1.6403-0.58011-1.8242-0.84344-2.1104 1.774-2.0133-1.0796-1.6454-0.71028-1.9367 1.0886-1.7731-0.14854-1.722 0.61548-1.4052 0.8396-1.6454 0.27928-1.8242 0.11578-1.5534-0.25037-1.6914 0.54603-1.8702 0.11604-1.7987-0.47906-1.6761 0.66816-1.625-0.49741-1.5279 1.1751 1.0884-0.58222-1.7425 0.61079-1.533-0.96585-1.722-0.12289-1.4717 0.52426-1.6914-0.83856-2.1462 4.0203-1.6709-0.15828-3.4185-0.96174-2.0082 0.911-1.7323-1.102-1.4972 0.59168-1.6045-1.6291-2.0031 0.26332-1.257 1.0861-1.4206 0.097389-1.3644-0.02699-1.4052-1.3597-1.1753 0.51985-1.349 1.2701-1.3899-1.5367-1.4359 0.61477-1.4666-0.84736-1.5943 1.693-1.303-0.33687-1.1344 0.22778-2.8411-0.67404-1.4768 1.2146-1.2417 0.14546-1.1293-0.46279-1.1037 0.25379-1.1089-1.9528-0.99644-0.60805-1.0629 18.125-0.99644-0.325-0.86869 0.25268-0.98622 0.99138-1.0986-0.74674 0.42923 1.3217-1.768-1.2921-0.86869-0.1254-0.89424 1.269-0.84825-0.53148-0.89424 0.31502-1.1293 0.19961-2.8105-1.1842-1.441 0.19574-1.4666 2.402-1.0424 0.62921-1.2877 0.37915-1.2519-0.35594-1.2366 9.7008-1.3848 0.96715-0.68473-1.4477-0.9249 0.34186-0.70517 2.0875-0.67962-1.4023-1.3848 0.98708-0.60297 1.3567-0.88402-0.62537-0.31171-1.5317-0.5672 2.6228-0.66429 0.079362-0.53654-0.29444-0.72561 1.3403 0.061319 0.51151-0.27594-2.2519-0.2044 3.3264-0.3066 1.6178-0.27594 0.009739-0.81248-2.6802-0.33214 0.41854-0.99133 2.091 0.47522-1.6246-0.33726-0.4301-0.4088 2.4243-0.64896-0.98088-0.12264 0.29213-0.36792-1.9548-0.0511 3.2735-0.28616-0.31526-0.28105-1.9888-0.1533-0.21917-0.31171 6.8276-0.14308 0.29639-0.16863 0.070707-0.071539 2.5436-0.21973-0.42119-0.11753 2.6975-0.24528-4.5045-0.45478 1.9297-0.18907 0.091532-0.28105 1.9445-0.23506 1.4105-0.13286-2.2766-0.02044-4.2427-0.1022 1.9796-0.16352 20.475-0.061319-1.2046" clip-path="url(#p65d9a8972f)" fill="none" stroke="#1f77b4" stroke-linecap="square" stroke-width="1.5"/>
   </g>
   <g id="line2d_25">
    <path d="m398.49 233.13-0.4088-0.046325-0.87891 0.49258-0.44967-0.57273-0.44456 0.59692-0.50077 0.016016-0.55187-0.19526-0.49055 0.20779-0.55698 0.080645-0.63363 0.41899-0.70517-0.50879-1.4103 0.061338-0.73583-0.31624-0.74605 0.30093-0.78182-0.4461-0.79715 0.32785-1.5228-0.090753-0.94534-0.1406-0.78182 0.3496-0.9249-0.67354-0.90446 0.44436-0.8738 0.15365-2.0951-0.3288-1.1344 0.90379-1.1497-1.1699-1.1804 0.50325-1.0629-0.7716-1.303 0.58212-1.2264-0.073515-1.3592 0.33889-1.3848-0.15012-1.303 0.19648-1.3081 0.31376-1.4308-0.44802-1.4666 0.27378-1.4206-0.59938-1.4614 0.61979-1.768-1.2744-1.722 0.8311-1.7169-0.16757-1.6403 0.095577-3.4441 0.52286-3.5923-0.2104-1.9878 0.083829-1.722-0.32717-1.8345 0.16528-1.9367-0.06331-1.9418-0.8622-1.7834 0.72117-2.0133 0.40131-1.9111-0.014108-2.0286-0.19188-2.1819-0.7124-4.1595 0.97594-2.1002 0.26983-1.8549-0.91704-2.0746 0.47905-2.1871-1.4291-2.4425 1.3007-2.1513-0.11627-2.3148-0.38747-2.2484 0.36973-4.0931-0.059648-2.279 0.25639-2.1922-0.43306-2.2126 0.12211-4.4661 0.49497-4.6143-0.49246-2.3761 0.12896-2.3659-0.45673-2.1104-0.583-2.0235 0.87549-2.1104-0.86654-2.0644 0.97518-2.1922-1.3161-2.1615 1.3529-1.952-0.34947-1.9673-0.52995-2.0951 1.0958-2.2126-0.049172-2.1564-0.46921-2.0184 0.068829-2.2024 0.27097-2.0695-0.14432-1.9316-0.25328-1.9827 0.21716-2.1871 0.9262-1.998-2.3403-1.8345 0.98756-2.1922-0.051602-1.906-0.31691-1.8907 6.6738-1.9469-0.21804-2.0082-0.41889-2.7287 0.69299-2.0695-0.58518-2.1717-43.18-1.8856 43.255-2.3761-0.092767-1.9111 0.078738-1.6096 0.37575-1.768-0.11692-1.7374-1.0878-1.5636 1.7742-2.0491-0.66279-5.4625-0.001844-2.0695-0.6061-1.9418 0.9602-4.3486-0.29967-1.9878 0.084445-1.625-0.14823-1.6403 0.31748-1.8242-0.42591-2.1104 0.30104-2.0133 0.67595-1.6454-0.89648-1.9367 0.9762-1.7731-1.1805-1.722 0.99532-1.4052-1.2324-1.6454 1.3164-1.8242-1.0864-1.5534 0.77986-1.6914-0.34843-1.8702 0.57858-1.7987-0.63392-1.6761 0.33628-3.8069 0.33355-1.533-0.67748-1.722 0.64158-1.4717-0.13956-1.6914 0.43214-2.1462 2.3636-1.6709-0.036155-3.4185-0.59812-2.0082 1.6573-1.7323-0.44181-1.4972 0.14657-1.6045-0.072906-2.0031-7.0452-1.257 6.8857-1.4206-0.16425-1.3644 0.65068-1.4052-0.1329-1.1753-0.47859-1.349 0.3484-1.3899 0.80531-1.4359-1.1484-1.4666 0.61524-1.5943-0.23598-1.303-1.1088-1.1344 1.4351-1.2826-0.026734-1.5585-1.9737-1.4768 2.3339-1.2417-0.40087-1.1293-0.23324-1.1037-0.032821-1.1089 0.45575-0.99644-0.50481-1.0629 5.7145-0.99644-0.24437-0.86869-6.3624-0.98622 6.7027-1.0986 0.01982 0.42923-0.004371-0.91979-4.5022-0.84825 3.3554-0.86869 1.1532-0.89424-0.038542-0.84825-2.1306-0.89424 2.0696-1.1293-0.17535-2.8105 0.31748-1.441-1.1428-1.4666 1.0437-3.5821 0.081926-1.2366 3.6949-1.3848 0.47643-1.6096-0.14235-0.70517 0.068788-0.67962-0.65761-1.3848-0.10704-0.60297 1.0689-0.88402-0.53288-0.31171 0.19884-0.5672-0.39236-0.66429-2.555-0.53654 3.6869-0.72561-0.90474 0.061319 0.10257-0.27594 0.023748-0.2044 9.3132-0.58253 0.23438-0.81248 0.93438-0.33214-0.31756-0.99133 0.19328 0.47522-5.4743-0.33726 4.8774-0.4088-3.8691-0.7716 4.2462-0.36792-0.049292-0.0511 0.35711-0.28616-0.21708-0.28105-1.5545-0.1533 1.021-0.31171 5.2741-0.14308 0.44694-0.45989 0.021544-0.11753 0.20059-0.24528-0.17032-0.45478-0.00392-0.18907-0.49633-0.28105 0.65093-0.23506-0.6764-0.051099 0.56211-0.081759-0.018737-0.02044-4.1621-0.32704 9.1313v0" clip-path="url(#p65d9a8972f)" fill="none" stroke="#ff7f0e" stroke-linecap="square" stroke-width="1.5"/>
   </g>
   <g id="line2d_26">
    <path d="m398.49 237.72-0.4088-0.094348-0.40368 0.039218-0.47522-0.17988-0.44967-1.279-0.44456 1.0478-0.50077 0.19267-1.0424-0.021853-0.55698 0.25258-0.63363-0.9185-0.70517 0.99665-1.4103-0.44576-0.73583 0.36103-0.74605-0.66374-0.78182 0.69537-0.79715-0.30961-0.7716 0.39749-0.75116-0.17265-0.94534 0.044761-0.78182-0.16057-2.7032 0.21092-2.0951-0.042605-1.1344-1.2781-1.1497 1.2823-4.7727-0.007099-1.3592-0.41575-1.3848 0.49944-1.303-0.26679-1.3081-1.0687-1.4308 1.0656-1.4666-1.302-1.4206 1.527-1.4614-0.2536-1.768-0.44156-1.722 0.57002-3.3572 0.076079-1.6045-0.059453-1.8396 0.16393-1.7374 0.020168-1.8549-0.318-1.9878-0.10729-9.2183 0.41586-2.0133-0.36718-3.9398-0.035962-2.1819-0.96111-2.1104 1.3639-2.0491-0.46564-2.1002 0.43966-1.8549-0.29982-2.0746-0.007199-2.1871 0.2436-2.4425-0.37329-2.1513 0.45403-6.6531-0.55002-2.0031 0.4556-2.279-0.32458-2.1922 0.38372-2.2126-0.066236-2.233 0.1372-2.233-1.9606-2.2177 1.6148-2.3966 0.25773-2.3761-0.032795-2.3659-0.23741-2.1104-1.4765-2.0235 1.5391-2.1104 0.15399-2.0644-0.24632-2.1922 0.32818-2.1615-0.16168-1.952 0.17047-1.9673-0.055544-2.0951-0.331-6.3874 0.2999-2.2024-0.19954-2.0695-0.063624-1.9316 0.2691-1.9827-0.26666-2.1871-0.089603-1.998 0.43685-1.8345-0.12187-2.1922 0.03083-1.906-2.0375-1.8907 5.6472-1.9469-0.23528-2.0082 0.19577-2.7287-0.1996-2.0695 0.21469-2.1717-36.387-1.8856 36.037-2.3761 0.40679-3.5207-0.037609-1.768-0.31775-1.7374-0.054973-1.5636 0.36243-2.0491-0.021261-5.4625-0.25371-2.0695 0.31038-1.9418-4.0641-2.1155 4.0317-7.4861 0.002058-1.8242 0.031839-2.1104-4.4694-2.0133 2.2721-1.6454 2.1815-1.9367-0.21808-1.7731 0.17651-1.722-0.19428-3.0506 0.041568-3.3777 0.23314-1.6914-0.10208-1.8702-0.63648-3.4748 0.73046-1.625-0.30336-1.5279 0.31503 1.0884-0.54204-1.7425 0.48836-3.255 0.033078-1.4717-0.28364-1.6914-0.088195-2.1462 3.8555-1.6709-0.57414-3.4185-1.0062-2.0082 1.529-1.7323-0.2868-1.4972-0.078895-1.6045 0.54107-2.0031-0.9443-1.257 0.54373-1.4206 0.45214-1.3644-0.47809-1.4052 0.5104-8.411-0.008918-1.303-0.09524-1.1344 0.11805-1.2826-0.31214-1.5585 0.27047-1.4768-0.46276-1.2417 0.49185-1.1293-0.07759-1.1037-0.25092-2.1053-0.020934-1.0629 4.2142-0.99644 0.14292-0.86869-0.1551-0.98622-0.3124-1.0986 0.40992 0.42923-0.29736-0.91979 0.19719-0.84825-0.098442-0.86869 0.20769-0.89424-0.24446-0.84825 0.23461-0.89424-0.38008-1.1293 0.37742-2.8105-0.3524-2.9076-0.001866-1.0424 0.1111-1.2877 0.26381-1.2519-0.26646-1.2366 4.3924-1.3848-0.51525-1.6096 0.61756-0.70517-0.009752-0.67962-1.679-1.3848 1.5534-0.60297-0.26297-0.88402 0.37162-0.31171-0.30494-0.5672 0.30881-0.66429-3.7364-0.53654 3.1888-0.72561 0.55583 0.061319-0.28326-0.27594 0.27468-0.2044 4.5577-1.395-0.029606-0.33214-0.29361-0.99133-0.20237 0.47522-0.099666-0.33726 0.13046-0.4088 0.35018-0.64896 0.089233-0.12264-0.46931-0.41902 0.46658-0.28616-0.26565-0.28105 0.066346-0.1533 0.2131-0.31171 4.8578-0.31171 0.089213-0.071539-0.30281-0.21973 0.24792-0.11753-0.19543-0.16863 0.23511-0.076649-0.092542-0.64385 0.069047-0.18396-0.34776-0.097089 0.38192-0.23506-0.035935-0.051099-0.30692-0.081759 0.29942-0.02044-1.1042-0.17374 1.1649-0.025549-0.023308-0.06643 4.13-0.061319-1.9774" clip-path="url(#p65d9a8972f)" fill="none" stroke="#2ca02c" stroke-linecap="square" stroke-width="1.5"/>
   </g>
   <g id="line2d_27">
    <path d="m398.49 136.53-0.4088 0.79372-0.40368-0.24692-0.47522-0.10068-0.44967-0.36121-0.44456 2.6004-0.50077-1.7621-0.55187 0.036917-0.49055 1.9168-0.55698-0.40416-0.63363 1.4884-0.70517-2.7075-0.67451-0.67672-0.73583-0.25741-0.73583 0.099262-0.74605-1.0109-0.78182 0.2594-0.79715 0.76592-0.7716 1.9324-0.75116-1.6344-0.94534-0.58884-0.78182 0.55691-0.9249-0.080106-0.90446 0.46989-0.8738 1.6165-1.0935-1.3251-1.0015 0.9698-1.1344-9.5626-1.1497 0.35839-1.1804-0.97801-1.0629 0.69444-1.303-1.0462-1.2264-2.1781-1.3592-5.7142-1.3848-2.172-1.303 0.015531-1.3081 2.982-1.4308 4.0866-1.4666 1.8552-2.882-0.79444-1.768 0.22186-1.722 4.88-1.7169-2.7963-1.6403 0.19946-1.6045 2.6496-1.8396 0.5564-1.7374-1.6386-1.8549 2.5025-1.9878 3.1263-1.722-0.18151-1.8345 1.116-1.9367 0.21679-1.9418-0.10522-1.7834 1.9028-2.0133 0.45773-1.9111 2.1352-2.0286 1.7504-2.1819-1.0381-2.1104 0.27855-2.0491 1.0496-2.1002 1.3648-1.8549 0.53844-2.0746-3.2167-2.1871 4.2788-2.4425 0.81918-2.1513 9.3032-2.3148 0.38342-2.2484 0.12358-2.09 2.6453-2.0031-1.6641-2.279 2.0992-4.4048 0.24765-2.233 1.0751-2.233-0.36716-2.2177-1.7752-2.3966 1.2324-2.3761 0.11709-2.3659 2.502-2.1104 1.3599-2.0235-1.4155-4.1748 2.091-2.1922 2.0178-2.1615-0.39288-1.952 1.693-1.9673-0.33576-2.0951 2.4854-2.2126 1.7034-2.1564 0.47429-2.0184 2.2823-2.2024-0.071325-2.0695 0.90605-1.9316 2.4137-1.9827 1.1549-2.1871 1.5884-1.998-1.4773-1.8345 0.87393-2.1922-0.57714-1.906 0.47332-1.8907-15.157-1.9469 0.16759-2.0082 1.2341-2.7287-0.20863-2.0695 1.9086-2.1717-35.023-1.8856 39.683-2.3761-1.8355-1.9111 5.9274-1.6096-1.0653-1.768-1.3636-1.7374-1.6968-1.5636 0.53571-2.0491 0.16501-5.4625-0.12972-2.0695 8.2497-1.9418-2.2441-2.1155-10.046-4.2208 17.638-1.625 5.9025-1.6403 1.2724-1.8242-4.1878-2.1104-0.35491-2.0133 1.4682-1.6454-3.0087-1.9367 2.1837-1.7731 0.52844-1.722 2.5424-1.4052-2.7671-1.6454 1.2951-1.8242-1.3602-1.5534 3.0517-1.6914-0.51576-1.8702-0.156-1.7987-0.27745-1.6761 3.2014-1.625 0.79484-1.5279-0.90796 1.0884 0.59961-1.7425 0.65673-1.533-0.53705-1.722-0.98505-1.4717 0.89836-1.6914 1.8695-2.1462-1.6943-1.6709 0.12624-3.4185 0.070008-2.0082 1.4894-1.7323 0.37697-1.4972 0.89026-1.6045 1.1055-2.0031-1.2831-1.257 2.716-1.4206 0.15468-1.3644-4.9938-1.4052 4.1648-1.1753-2.0051-1.349 0.8738-1.3899 2.2082-1.4359 4.4536-1.4666-0.9972-1.5943 0.38745-1.303-0.85949-1.1344 3.8412-1.2826-0.57065-1.5585-0.37918-1.4768 0.51348-2.371 0.48141-1.1037 2.3374-1.1089-5.6392-0.99644 0.35476-1.0629 3.5389-0.99644-2.3904-0.86869 0.34181-0.98622 1.2335-1.0986 3.7459 0.42923-3.9786-0.91979-1.3436-0.84825 3.4989-0.86869 2.6057-0.89424 0.2128-0.84825-6.6602-0.89424 5.5008-1.1293 1.4287-2.8105 2.9932-1.441-1.8762-1.4666-0.1477-1.0424-1.1219-1.2877 5.4873-1.2519-0.64497-1.2366 4.0919-1.3848 4.1233-0.68473-2.1672-0.9249 2.0605-0.70517-0.26474-0.67962 2.9789-1.3848-2.2959-0.60297 3.6014-0.88402-2.4147-0.31171 0.12354-0.5672 1.7638-0.66429-1.5145-0.53654 1.7054-0.72561-2.6807 0.061319 0.05841-0.27594 0.080946-0.2044 3.4044-0.3066 1.612-0.27594-0.77958-0.48033 3.4174-0.33215-1.8646-0.33214 2.5068-0.99133-0.90144 0.47522-0.19783-0.33726 0.15771-0.4088-1.7187-0.7716 2.2419-0.36792 3.0479-0.0511-2.2989-0.28616 1.9818-0.28105-0.6381-0.1533-1.2003-0.31171 5.0044-0.14308-0.56034-0.16863-1.6586-0.071539 0.30169-0.21973-0.97455-0.11753 1.5379-0.16863 3.9125-0.076649-6.1455-0.82781 5.2222-0.097089-1.5886-0.23506 0.29062-0.051099-1.8026-0.081759 0.43093-0.12264 3.2752-0.035769 1.3595-0.03577-2.9519-0.025549 0.93685-0.12775 7.3068v0" clip-path="url(#p65d9a8972f)" fill="none" stroke="#d62728" stroke-linecap="square" stroke-width="1.5"/>
   </g>
   <g id="line2d_28">
    <path d="m398.49 190.25-0.81248 0.53271-0.47522-0.34474-0.44967-0.17009-0.44456 1.8933-0.50077-1.4926-0.55187 0.32311-0.49055 1.0725-0.55698-0.54179-0.63363 0.21922-0.70517-1.2365-0.67451-0.031512-0.73583-0.189-0.73583 0.12459-0.74605-1.9931-0.78182 1.3098-0.79715 0.62339-0.7716 1.2048-0.75116-1.1638-1.7272 0.098665-1.8294 0.2538-0.8738 1.047-1.0935-0.88967-1.0015 0.63924-1.1344-8.2914-1.1497 2.1599-1.1804-0.45983-1.0629-0.033019-1.303-0.89856-1.2264-1.1297-1.3592-3.8876-1.3848-1.5654-1.303-1.7356-1.3081 3.0345-1.4308 3.7607-1.4666 0.76279-1.4206 0.29746-1.4614-0.15424-1.768-0.68049-1.722 3.9363-1.7169-1.7912-1.6403 0.1959-1.6045 1.6125-1.8396 0.14781-1.7374-1.0529-3.8427 4.087-1.722 0.12803-1.8345 0.63597-1.9367 0.25941-1.9418-1.2808-1.7834 2.4941-2.0133 0.3022-3.9398 2.5234-2.1819-1.7087-2.1104 1.2639-2.0491 0.57818-2.1002 0.042124-1.8549 1.0183-2.0746-2.0732-2.1871 3.0708-2.4425 0.28388-2.1513 5.3025-4.5632 1.0486-2.09 0.21216-2.0031-0.077213-2.279 1.5402-2.1922-0.23287-2.2126-0.026542-2.233-1.4684-2.233 1.8068-2.2177-0.78012-2.3966 0.82561-2.3761 0.30745-2.3659 1.1692-2.1104 0.72956-2.0235-0.57326-2.1104 0.40624-2.0644-0.12216-2.1922 1.4638-2.1615-0.16835-1.952 1.1903-1.9673 0.011101-2.0951 1.1154-2.2126 0.91922-2.1564 0.26009-2.0184 1.3989-2.2024-0.77146-2.0695 0.76803-1.9316 0.11208-1.9827 1.3976-2.1871 0.7455-1.998-0.070203-1.8345 0.065306-2.1922-0.053745-1.906-1.3317-1.8907-4.5114-1.9469-0.40458-2.0082 0.62428-2.7287 0.1117-2.0695 1.1911-2.1717-11.352-1.8856 12.649-2.3761 0.37166-1.9111 2.9469-1.6096-0.8706-1.768-0.20301-1.7374-1.3095-1.5636 0.33094-2.0491 0.098482-5.4625-0.2223-2.0695 4.4336-1.9418-2.5605-2.1155-4.1933-2.233 5.9997-1.9878 3.9071-3.2652 2.2934-1.8242-1.712-2.1104-0.55204-2.0133 1.3446-1.6454-2.3442-1.9367 1.8949-1.7731-0.62675-1.722 2.0282-1.4052-0.65252-1.6454 0.11682-1.8242-0.90993-1.5534 1.0963-3.5616 0.057722-1.7987 0.41127-3.301 1.4077-1.5279-1.3494 1.0884 1.0281-1.7425 0.11475-1.533-0.26542-1.722-1.1441-1.4717 0.14909-1.6914 1.6921-2.1462 1.0814-1.6709 0.018737-3.4185 0.27091-2.0082 0.99941-1.7323-0.23077-1.4972-0.86914-1.6045 1.8624-2.0031-0.90822-1.257 1.4582-1.4206 0.31767-1.3644-2.007-1.4052 1.7912-1.1753-1.2334-1.349 0.041178-1.3899 1.4158-1.4359 1.9101-1.4666-0.55748-1.5943 0.23921-1.303 0.56408-1.1344 0.9377-1.2826-0.75295-1.5585-0.010774-2.7185 0.46152-1.1293 0.30042-1.1037 0.97185-1.1089-2.318-0.99644 0.1265-1.0629 3.2966-0.99644-0.49322-0.86869 0.39682-0.98622-0.5757-1.0986 1.6821 0.42923-1.8334-0.91979 0.33471-0.84825 1.3196-0.86869 0.32489-0.89424 0.11732-0.84825-2.089-0.89424 1.9276-1.1293 0.7866-2.8105 0.56946-1.441-1.2575-1.4666 1.0707-1.0424-0.89236-1.2877 2.5216-1.2519-0.56536-1.2366 0.92037-1.3848 3.7152-0.68473-0.69604-0.9249 1.2895-0.70517-1.9814-0.67962 2.332-1.3848-0.010446-0.60297 0.82088-0.88402-0.79956-0.31171 0.383-0.5672-0.012101-0.66429-3.0803-0.53654 3.3615-0.72561-0.33311 0.061319-0.68422-0.27594 0.74974-0.2044 3.2946-0.3066 0.48898-0.27594-0.25288-1.1446 0.75962-0.99133 0.25245 0.47522-1.0446-0.33726 0.76756-0.4088-0.92808-0.7716 0.98358-0.36792 0.96519-0.0511-0.35919-0.5672 0.022885-0.1533-0.34249-0.45478 5.0032-0.24017-0.9189-0.33726 0.17606-0.16863 0.96852-0.076649-1.2373-0.45478 0.57626-0.18907-0.67228-0.18396 1.0374-0.097089-0.23941-0.23506-0.14571-0.051099-0.39599-0.1022 0.35844-0.13797 1.2866-0.03577-0.97128-0.025549 0.51469-0.12775 3.9792v0" clip-path="url(#p65d9a8972f)" fill="none" stroke="#9467bd" stroke-linecap="square" stroke-width="1.5"/>
   </g>
   <g id="patch_3">
    <path d="m57.6 284.52v-246.15" fill="none" stroke="#000" stroke-linecap="square" stroke-width=".8"/>
   </g>
   <g id="patch_4">
    <path d="m414.72 284.52v-246.15" fill="none" stroke="#000" stroke-linecap="square" stroke-width=".8"/>
   </g>
   <g id="patch_5">
    <path d="m57.6 284.52h357.12" fill="none" stroke="#000" stroke-linecap="square" stroke-width=".8"/>
   </g>
   <g id="patch_6">
    <path d="m57.6 38.362h357.12" fill="none" stroke="#000" stroke-linecap="square" stroke-width=".8"/>
   </g>
   <g id="text_12">
    <!-- Scaling of CC on mixed queries -->
    <g transform="translate(142.63 32.362) scale(.12 -.12)">
     <defs>
      <path id="DejaVuSans-53" transform="scale(.015625)" d="m3425 4513v-616q-359 172-678 256-319 85-616 85-515 0-795-200t-280-569q0-310 186-468 186-157 705-254l381-78q706-135 1042-474t336-907q0-679-455-1029-454-350-1332-350-331 0-705 75-373 75-773 222v650q384-215 753-325 369-109 725-109 540 0 834 212 294 213 294 607 0 343-211 537t-692 291l-385 75q-706 140-1022 440-315 300-315 835 0 619 436 975t1201 356q329 0 669-60 341-59 697-177z"/>
      <path id="DejaVuSans-61" transform="scale(.015625)" d="m2194 1759q-697 0-966-159t-269-544q0-306 202-486 202-179 548-179 479 0 768 339t289 901v128h-572zm1147 238v-1997h-575v531q-197-318-491-470t-719-152q-537 0-855 302-317 302-317 808 0 590 395 890 396 300 1180 300h807v57q0 397-261 614t-733 217q-300 0-585-72-284-72-546-216v532q315 122 612 182 297 61 578 61 760 0 1135-394 375-393 375-1193z"/>
      <path id="DejaVuSans-67" transform="scale(.015625)" d="m2906 1791q0 625-258 968-257 344-723 344-462 0-720-344-258-343-258-968 0-622 258-966t720-344q466 0 723 344 258 344 258 966zm575-1357q0-893-397-1329-396-436-1215-436-303 0-572 45t-522 139v559q253-137 500-202 247-66 503-66 566 0 847 295t281 892v285q-178-310-456-463t-666-153q-643 0-1037 490-394 491-394 1301 0 812 394 1302 394 491 1037 491 388 0 666-153t456-462v531h575v-3066z"/>
      <path id="DejaVuSans-43" transform="scale(.015625)" d="m4122 4306v-665q-319 297-680 443-361 147-767 147-800 0-1225-489t-425-1414q0-922 425-1411t1225-489q406 0 767 147t680 444v-660q-331-225-702-338-370-112-782-112-1060 0-1670 648-609 649-609 1771 0 1125 609 1773 610 649 1670 649 418 0 788-111 371-111 696-333z"/>
      <path id="DejaVuSans-78" transform="scale(.015625)" d="m3513 3500-1266-1703 1331-1797h-678l-1019 1375-1018-1375h-679l1360 1831-1244 1669h678l928-1247 928 1247h679z"/>
      <path id="DejaVuSans-71" transform="scale(.015625)" d="m947 1747q0-634 261-995t717-361 718 361q263 361 263 995t-263 995q-262 361-718 361t-717-361-261-995zm1959-1222q-181-312-458-464-276-152-664-152-634 0-1033 506-398 507-398 1332t398 1331q399 506 1033 506 388 0 664-152 277-151 458-463v531h575v-4831h-575v1856z"/>
     </defs>
     <use xlink:href="#DejaVuSans-53"/>
     <use x="63.476562" xlink:href="#DejaVuSans-63"/>
     <use x="118.457031" xlink:href="#DejaVuSans-61"/>
     <use x="179.736328" xlink:href="#DejaVuSans-6c"/>
     <use x="207.519531" xlink:href="#DejaVuSans-69"/>
     <use x="235.302734" xlink:href="#DejaVuSans-6e"/>
     <use x="298.681641" xlink:href="#DejaVuSans-67"/>
     <use x="362.158203" xlink:href="#DejaVuSans-20"/>
     <use x="393.945312" xlink:href="#DejaVuSans-6f"/>
     <use x="455.126953" xlink:href="#DejaVuSans-66"/>
     <use x="490.332031" xlink:href="#DejaVuSans-20"/>
     <use x="522.119141" xlink:href="#DejaVuSans-43"/>
     <use x="591.943359" xlink:href="#DejaVuSans-43"/>
     <use x="661.767578" xlink:href="#DejaVuSans-20"/>
     <use x="693.554688" xlink:href="#DejaVuSans-6f"/>
     <use x="754.736328" xlink:href="#DejaVuSans-6e"/>
     <use x="818.115234" xlink:href="#DejaVuSans-20"/>
     <use x="849.902344" xlink:href="#DejaVuSans-6d"/>
     <use x="947.314453" xlink:href="#DejaVuSans-69"/>
     <use x="975.097656" xlink:href="#DejaVuSans-78"/>
     <use x="1031.152344" xlink:href="#DejaVuSans-65"/>
     <use x="1092.675781" xlink:href="#DejaVuSans-64"/>
     <use x="1156.152344" xlink:href="#DejaVuSans-20"/>
     <use x="1187.939453" xlink:href="#DejaVuSans-71"/>
     <use x="1251.416016" xlink:href="#DejaVuSans-75"/>
     <use x="1314.794922" xlink:href="#DejaVuSans-65"/>
     <use x="1376.318359" xlink:href="#DejaVuSans-72"/>
     <use x="1417.431641" xlink:href="#DejaVuSans-69"/>
     <use x="1445.214844" xlink:href="#DejaVuSans-65"/>
     <use x="1506.738281" xlink:href="#DejaVuSans-73"/>
    </g>
   </g>
   <g id="legend_1">
    <g id="patch_7">
     <path d="m64.6 119.75h156.76q2 0 2-2v-72.391q0-2-2-2h-156.76q-2 0-2 2v72.391q0 2 2 2z" fill="#fff" opacity=".8" stroke="#ccc"/>
    </g>
    <g id="line2d_29">
     <path d="m66.6 51.46h10 10" fill="none" stroke="#1f77b4" stroke-linecap="square" stroke-width="1.5"/>
    </g>
    <g id="text_13">
     <!-- kiddo (k-d tree) -->
     <g transform="translate(94.6 54.96) scale(.1 -.1)">
      <defs>
       <path id="DejaVuSans-6b" transform="scale(.015625)" d="m581 4863h578v-2872l1716 1509h734l-1856-1637 1935-1863h-750l-1779 1709v-1709h-578v4863z"/>
       <path id="DejaVuSans-2d" transform="scale(.015625)" d="m313 2009h1684v-512h-1684v512z"/>
      </defs>
      <use xlink:href="#DejaVuSans-6b"/>
      <use x="57.910156" xlink:href="#DejaVuSans-69"/>
      <use x="85.693359" xlink:href="#DejaVuSans-64"/>
      <use x="149.169922" xlink:href="#DejaVuSans-64"/>
      <use x="212.646484" xlink:href="#DejaVuSans-6f"/>
      <use x="273.828125" xlink:href="#DejaVuSans-20"/>
      <use x="305.615234" xlink:href="#DejaVuSans-28"/>
      <use x="344.628906" xlink:href="#DejaVuSans-6b"/>
      <use x="402.539062" xlink:href="#DejaVuSans-2d"/>
      <use x="438.623047" xlink:href="#DejaVuSans-64"/>
      <use x="502.099609" xlink:href="#DejaVuSans-20"/>
      <use x="533.886719" xlink:href="#DejaVuSans-74"/>
      <use x="573.095703" xlink:href="#DejaVuSans-72"/>
      <use x="611.958984" xlink:href="#DejaVuSans-65"/>
      <use x="673.482422" xlink:href="#DejaVuSans-65"/>
      <use x="735.005859" xlink:href="#DejaVuSans-29"/>
     </g>
    </g>
    <g id="line2d_30">
     <path d="m66.6 66.138h10 10" fill="none" stroke="#ff7f0e" stroke-linecap="square" stroke-width="1.5"/>
    </g>
    <g id="text_14">
     <!-- forward tree (sequential) -->
     <g transform="translate(94.6 69.638) scale(.1 -.1)">
      <defs>
       <path id="DejaVuSans-77" transform="scale(.015625)" d="m269 3500h575l719-2731 715 2731h678l719-2731 716 2731h575l-916-3500h-678l-753 2869-756-2869h-679l-915 3500z"/>
      </defs>
      <use xlink:href="#DejaVuSans-66"/>
      <use x="35.205078" xlink:href="#DejaVuSans-6f"/>
      <use x="96.386719" xlink:href="#DejaVuSans-72"/>
      <use x="137.5" xlink:href="#DejaVuSans-77"/>
      <use x="219.287109" xlink:href="#DejaVuSans-61"/>
      <use x="280.566406" xlink:href="#DejaVuSans-72"/>
      <use x="319.929688" xlink:href="#DejaVuSans-64"/>
      <use x="383.40625" xlink:href="#DejaVuSans-20"/>
      <use x="415.193359" xlink:href="#DejaVuSans-74"/>
      <use x="454.402344" xlink:href="#DejaVuSans-72"/>
      <use x="493.265625" xlink:href="#DejaVuSans-65"/>
      <use x="554.789062" xlink:href="#DejaVuSans-65"/>
      <use x="616.3125" xlink:href="#DejaVuSans-20"/>
      <use x="648.099609" xlink:href="#DejaVuSans-28"/>
      <use x="687.113281" xlink:href="#DejaVuSans-73"/>
      <use x="739.212891" xlink:href="#DejaVuSans-65"/>
      <use x="800.736328" xlink:href="#DejaVuSans-71"/>
      <use x="864.212891" xlink:href="#DejaVuSans-75"/>
      <use x="927.591797" xlink:href="#DejaVuSans-65"/>
      <use x="989.115234" xlink:href="#DejaVuSans-6e"/>
      <use x="1052.494141" xlink:href="#DejaVuSans-74"/>
      <use x="1091.703125" xlink:href="#DejaVuSans-69"/>
      <use x="1119.486328" xlink:href="#DejaVuSans-61"/>
      <use x="1180.765625" xlink:href="#DejaVuSans-6c"/>
      <use x="1208.548828" xlink:href="#DejaVuSans-29"/>
     </g>
    </g>
    <g id="line2d_31">
     <path d="m66.6 80.816h10 10" fill="none" stroke="#2ca02c" stroke-linecap="square" stroke-width="1.5"/>
    </g>
    <g id="text_15">
     <!-- forward tree (SIMD) -->
     <g transform="translate(94.6 84.316) scale(.1 -.1)">
      <defs>
       <path id="DejaVuSans-49" transform="scale(.015625)" d="m628 4666h631v-4666h-631v4666z"/>
       <path id="DejaVuSans-4d" transform="scale(.015625)" d="m628 4666h941l1190-3175 1197 3175h941v-4666h-616v4097l-1203-3200h-634l-1203 3200v-4097h-613v4666z"/>
       <path id="DejaVuSans-44" transform="scale(.015625)" d="m1259 4147v-3628h763q966 0 1414 437 448 438 448 1382 0 937-448 1373t-1414 436h-763zm-631 519h1297q1356 0 1990-564 635-564 635-1764 0-1207-638-1773-637-565-1987-565h-1297v4666z"/>
      </defs>
      <use xlink:href="#DejaVuSans-66"/>
      <use x="35.205078" xlink:href="#DejaVuSans-6f"/>
      <use x="96.386719" xlink:href="#DejaVuSans-72"/>
      <use x="137.5" xlink:href="#DejaVuSans-77"/>
      <use x="219.287109" xlink:href="#DejaVuSans-61"/>
      <use x="280.566406" xlink:href="#DejaVuSans-72"/>
      <use x="319.929688" xlink:href="#DejaVuSans-64"/>
      <use x="383.40625" xlink:href="#DejaVuSans-20"/>
      <use x="415.193359" xlink:href="#DejaVuSans-74"/>
      <use x="454.402344" xlink:href="#DejaVuSans-72"/>
      <use x="493.265625" xlink:href="#DejaVuSans-65"/>
      <use x="554.789062" xlink:href="#DejaVuSans-65"/>
      <use x="616.3125" xlink:href="#DejaVuSans-20"/>
      <use x="648.099609" xlink:href="#DejaVuSans-28"/>
      <use x="687.113281" xlink:href="#DejaVuSans-53"/>
      <use x="750.589844" xlink:href="#DejaVuSans-49"/>
      <use x="780.082031" xlink:href="#DejaVuSans-4d"/>
      <use x="866.361328" xlink:href="#DejaVuSans-44"/>
      <use x="943.363281" xlink:href="#DejaVuSans-29"/>
     </g>
    </g>
    <g id="line2d_32">
     <path d="m66.6 95.494h10 10" fill="none" stroke="#d62728" stroke-linecap="square" stroke-width="1.5"/>
    </g>
    <g id="text_16">
     <!-- CAPT (sequential) -->
     <g transform="translate(94.6 98.994) scale(.1 -.1)">
      <defs>
       <path id="DejaVuSans-41" transform="scale(.015625)" d="m2188 4044-857-2322h1716l-859 2322zm-357 622h716l1778-4666h-656l-425 1197h-2103l-425-1197h-666l1781 4666z"/>
       <path id="DejaVuSans-50" transform="scale(.015625)" d="m1259 4147v-1753h794q441 0 681 228 241 228 241 650 0 419-241 647-240 228-681 228h-794zm-631 519h1425q785 0 1186-355 402-355 402-1039 0-691-402-1044-401-353-1186-353h-794v-1875h-631v4666z"/>
       <path id="DejaVuSans-54" transform="scale(.015625)" d="m-19 4666h3947v-532h-1656v-4134h-634v4134h-1657v532z"/>
      </defs>
      <use xlink:href="#DejaVuSans-43"/>
      <use x="69.824219" xlink:href="#DejaVuSans-41"/>
      <use x="138.232422" xlink:href="#DejaVuSans-50"/>
      <use x="198.535156" xlink:href="#DejaVuSans-54"/>
      <use x="259.619141" xlink:href="#DejaVuSans-20"/>
      <use x="291.40625" xlink:href="#DejaVuSans-28"/>
      <use x="330.419922" xlink:href="#DejaVuSans-73"/>
      <use x="382.519531" xlink:href="#DejaVuSans-65"/>
      <use x="444.042969" xlink:href="#DejaVuSans-71"/>
      <use x="507.519531" xlink:href="#DejaVuSans-75"/>
      <use x="570.898438" xlink:href="#DejaVuSans-65"/>
      <use x="632.421875" xlink:href="#DejaVuSans-6e"/>
      <use x="695.800781" xlink:href="#DejaVuSans-74"/>
      <use x="735.009766" xlink:href="#DejaVuSans-69"/>
      <use x="762.792969" xlink:href="#DejaVuSans-61"/>
      <use x="824.072266" xlink:href="#DejaVuSans-6c"/>
      <use x="851.855469" xlink:href="#DejaVuSans-29"/>
     </g>
    </g>
    <g id="line2d_33">
     <path d="m66.6 110.17h10 10" fill="none" stroke="#9467bd" stroke-linecap="square" stroke-width="1.5"/>
    </g>
    <g id="text_17">
     <!-- CAPT (SIMD) -->
     <g transform="translate(94.6 113.67) scale(.1 -.1)">
      <use xlink:href="#DejaVuSans-43"/>
      <use x="69.824219" xlink:href="#DejaVuSans-41"/>
      <use x="138.232422" xlink:href="#DejaVuSans-50"/>
      <use x="198.535156" xlink:href="#DejaVuSans-54"/>
      <use x="259.619141" xlink:href="#DejaVuSans-20"/>
      <use x="291.40625" xlink:href="#DejaVuSans-28"/>
      <use x="330.419922" xlink:href="#DejaVuSans-53"/>
      <use x="393.896484" xlink:href="#DejaVuSans-49"/>
      <use x="423.388672" xlink:href="#DejaVuSans-4d"/>
      <use x="509.667969" xlink:href="#DejaVuSans-44"/>
      <use x="586.669922" xlink:href="#DejaVuSans-29"/>
     </g>
    </g>
   </g>
  </g>
 </g>
 <defs>
  <clipPath id="p65d9a8972f">
   <rect x="57.6" y="38.362" width="357.12" height="246.15"/>
  </clipPath>
 </defs>
</svg>
