<?xml version="1.0" encoding="UTF-8"?>
<!-- Created with Inkscape (http://www.inkscape.org/) -->
<svg id="svg5" width="100mm" height="100mm" version="1.1" viewBox="0 0 100 100" xmlns="http://www.w3.org/2000/svg">
 <defs id="defs2">
  <clipPath id="clipPath4565">
   <rect id="rect4567" width="100" height="100"/>
  </clipPath>
  <clipPath id="clipPath4569">
   <rect id="rect4571" width="100" height="100"/>
  </clipPath>
  <clipPath id="clipPath4573">
   <rect id="rect4575" width="100" height="100"/>
  </clipPath>
  <clipPath id="clipPath4577">
   <rect id="rect4579" width="100" height="100"/>
  </clipPath>
  <clipPath id="clipPath4581">
   <rect id="rect4583" width="100" height="100"/>
  </clipPath>
  <clipPath id="clipPath4585">
   <rect id="rect4587" width="100" height="100"/>
  </clipPath>
  <clipPath id="clipPath4589">
   <rect id="rect4591" width="100" height="100"/>
  </clipPath>
  <clipPath id="clipPath4593">
   <rect id="rect4595" width="100" height="100"/>
  </clipPath>
  <clipPath id="clipPath4597">
   <rect id="rect4599" width="100" height="100"/>
  </clipPath>
  <clipPath id="clipPath4601">
   <rect id="rect4603" width="100" height="100"/>
  </clipPath>
  <clipPath id="clipPath4605">
   <rect id="rect4607" width="100" height="100"/>
  </clipPath>
  <clipPath id="clipPath4609">
   <rect id="rect4611" width="100" height="100"/>
  </clipPath>
  <clipPath id="clipPath4613">
   <rect id="rect4615" width="100" height="100"/>
  </clipPath>
  <clipPath id="clipPath4617">
   <rect id="rect4619" width="100" height="100"/>
  </clipPath>
  <clipPath id="clipPath4621">
   <rect id="rect4623" width="100" height="100"/>
  </clipPath>
  <clipPath id="clipPath4625">
   <rect id="rect4627" width="100" height="100"/>
  </clipPath>
  <clipPath id="clipPath4629">
   <rect id="rect4631" width="100" height="100"/>
  </clipPath>
  <clipPath id="clipPath4633">
   <rect id="rect4635" width="100" height="100"/>
  </clipPath>
  <clipPath id="clipPath4637">
   <rect id="rect4639" width="100" height="100"/>
  </clipPath>
  <clipPath id="clipPath4641">
   <rect id="rect4643" width="100" height="100"/>
  </clipPath>
  <clipPath id="clipPath4645">
   <rect id="rect4647" width="100" height="100"/>
  </clipPath>
  <clipPath id="clipPath4649">
   <rect id="rect4651" width="100" height="100"/>
  </clipPath>
  <clipPath id="clipPath4653">
   <rect id="rect4655" width="100" height="100"/>
  </clipPath>
  <clipPath id="clipPath4657">
   <rect id="rect4659" width="100" height="100"/>
  </clipPath>
  <clipPath id="clipPath4661">
   <rect id="rect4663" width="100" height="100"/>
  </clipPath>
  <clipPath id="clipPath4665">
   <rect id="rect4667" width="100" height="100"/>
  </clipPath>
  <clipPath id="clipPath4669">
   <rect id="rect4671" width="100" height="100"/>
  </clipPath>
 </defs>
 <g id="layer1">
  <rect id="rect234" x="12.918" y="-2.2806" width="1" height="121.28" clip-path="url(#clipPath4669)" fill="#cacaca" fill-opacity=".9843"/>
  <rect id="rect234-6" x="84.308" y="21.109" width="1" height="121.28" clip-path="url(#clipPath4665)" fill="#cacaca" fill-opacity=".9843"/>
  <rect id="rect234-3" x="13.435" y="20.475" width="100" height="1" clip-path="url(#clipPath4661)" fill="#cacaca" fill-opacity=".9843"/>
  <rect id="rect234-3-7" x="13.564" y="68.596" width="71.248" height="1" clip-path="url(#clipPath4657)" fill="#cacaca" fill-opacity=".9843"/>
  <circle id="path4040" cx="33.076" cy="63.129" r="1" clip-path="url(#clipPath4653)"/>
  <circle id="path4040-2" transform="translate(2.0614)" cx="50.48" cy="49.453" r="1" clip-path="url(#clipPath4649)"/>
  <circle id="path4040-9" cx="61.927" cy="52.627" r="1" clip-path="url(#clipPath4645)"/>
  <circle id="path4040-9-6" cx="57.663" cy="75.635" r="1" clip-path="url(#clipPath4641)"/>
  <circle id="path4040-9-1" cx="48.861" cy="83.819" r="1" clip-path="url(#clipPath4637)"/>
  <circle id="path4040-9-8" cx="58.925" cy="94.677" r="1" clip-path="url(#clipPath4633)"/>
  <circle id="path4040-9-7" cx="38.4" cy="83.024" r="1" clip-path="url(#clipPath4629)"/>
  <circle id="path4040-1" cx="74.514" cy="26.828" r="1" clip-path="url(#clipPath4625)"/>
  <circle id="path4040-27" cx="65.473" cy="41.632" r="1" clip-path="url(#clipPath4621)"/>
  <circle id="path4040-0" cx="19.002" cy="60.67" r="1" clip-path="url(#clipPath4617)"/>
  <circle id="path4040-93" cx="39.521" cy="37.983" r="1" clip-path="url(#clipPath4613)"/>
  <circle id="path4040-60" cx="39.548" cy="51.201" r="1" clip-path="url(#clipPath4609)"/>
  <circle id="path4040-6" cx="33.42" cy="15.832" r="1" clip-path="url(#clipPath4605)"/>
  <circle id="path4040-9-9" cx="48.328" cy="3.1619" r="1" clip-path="url(#clipPath4601)"/>
  <circle id="path4040-9-2" cx="68.988" cy="3.4428" r="1" clip-path="url(#clipPath4597)"/>
  <circle id="path4040-9-0" cx="86.997" cy="6.8856" r="1" clip-path="url(#clipPath4593)"/>
  <circle id="path4040-9-23" cx="6.4832" cy="10.195" r="1" clip-path="url(#clipPath4589)"/>
  <circle id="path4040-9-75" cx="7.5497" cy="50.69" r="1" clip-path="url(#clipPath4585)"/>
  <circle id="path4040-9-92" cx="1.4566" cy="39.592" r="1" clip-path="url(#clipPath4581)"/>
  <circle id="path4040-9-28" cx="2.6483" cy="90.572" r="1" clip-path="url(#clipPath4577)"/>
  <circle id="path4040-9-97" cx="96.796" cy="42.505" r="1" clip-path="url(#clipPath4573)"/>
  <circle id="path4040-9-61" cx="98.722" cy="55.529" r="1" clip-path="url(#clipPath4569)"/>
  <rect id="rect234-6-5" x="46" y="21" width="1" height="47.992" clip-path="url(#clipPath4565)" fill="#fb6dff" fill-opacity=".9843"/>
 </g>
 <g id="layer2" display="none">
  <rect id="rect1530" x="5.6875" y="12.316" width="87.27" height="66.607" rx="9.8926" fill="none" stroke="#000" stroke-dasharray="4.12357, 1.03089" stroke-linejoin="round" stroke-width="1.0309"/>
 </g>
 <g id="layer3" display="none">
  <rect id="rect1530-5" x="5.638" y="12.321" width="48.745" height="66.607" rx="9.8926" ry="9.8926" fill="none" stroke="#000" stroke-dasharray="4.12357, 1.03089" stroke-linejoin="round" stroke-width="1.0309"/>
 </g>
 <g id="g3986">
  <rect id="rect3984" x="37.668" y="12.431" width="55.127" height="66.607" rx="9.8926" ry="9.8926" fill="none" stroke="#000" stroke-dasharray="4.12357, 1.03089" stroke-linejoin="round" stroke-width="1.0309"/>
 </g>
</svg>
