<?xml version="1.0" encoding="utf-8" standalone="no"?>
<!DOCTYPE svg PUBLIC "-//W3C//DTD SVG 1.1//EN"
  "http://www.w3.org/Graphics/SVG/1.1/DTD/svg11.dtd">
<svg xmlns:xlink="http://www.w3.org/1999/xlink" width="460.8pt" height="345.6pt" viewBox="0 0 460.8 345.6" xmlns="http://www.w3.org/2000/svg" version="1.1">
 <metadata>
  <rdf:RDF xmlns:dc="http://purl.org/dc/elements/1.1/" xmlns:cc="http://creativecommons.org/ns#" xmlns:rdf="http://www.w3.org/1999/02/22-rdf-syntax-ns#">
   <cc:Work>
    <dc:type rdf:resource="http://purl.org/dc/dcmitype/StillImage"/>
    <dc:date>2024-02-26T13:15:33.641519</dc:date>
    <dc:format>image/svg+xml</dc:format>
    <dc:creator>
     <cc:Agent>
      <dc:title>Matplotlib v3.6.3, https://matplotlib.org/</dc:title>
     </cc:Agent>
    </dc:creator>
   </cc:Work>
  </rdf:RDF>
 </metadata>
 <defs>
  <style type="text/css">*{stroke-linejoin: round; stroke-linecap: butt}</style>
 </defs>
 <g id="figure_1">
  <g id="patch_1">
   <path d="M 0 345.6 
L 460.8 345.6 
L 460.8 0 
L 0 0 
z
" style="fill: #ffffff"/>
  </g>
  <g id="axes_1">
   <g id="patch_2">
    <path d="M 57.6 307.584 
L 414.72 307.584 
L 414.72 41.472 
L 57.6 41.472 
z
" style="fill: #ffffff"/>
   </g>
   <g id="matplotlib.axis_1">
    <g id="xtick_1">
     <g id="line2d_1">
      <defs>
       <path id="m9cfe8a146a" d="M 0 0 
L 0 3.5 
" style="stroke: #000000; stroke-width: 0.8"/>
      </defs>
      <g>
       <use xlink:href="#m9cfe8a146a" x="73.832727" y="307.584" style="stroke: #000000; stroke-width: 0.8"/>
      </g>
     </g>
     <g id="text_1">
      <!-- 0 -->
      <g transform="translate(70.651477 322.182437) scale(0.1 -0.1)">
       <defs>
        <path id="DejaVuSans-30" d="M 2034 4250 
Q 1547 4250 1301 3770 
Q 1056 3291 1056 2328 
Q 1056 1369 1301 889 
Q 1547 409 2034 409 
Q 2525 409 2770 889 
Q 3016 1369 3016 2328 
Q 3016 3291 2770 3770 
Q 2525 4250 2034 4250 
z
M 2034 4750 
Q 2819 4750 3233 4129 
Q 3647 3509 3647 2328 
Q 3647 1150 3233 529 
Q 2819 -91 2034 -91 
Q 1250 -91 836 529 
Q 422 1150 422 2328 
Q 422 3509 836 4129 
Q 1250 4750 2034 4750 
z
" transform="scale(0.015625)"/>
       </defs>
       <use xlink:href="#DejaVuSans-30"/>
      </g>
     </g>
    </g>
    <g id="xtick_2">
     <g id="line2d_2">
      <g>
       <use xlink:href="#m9cfe8a146a" x="138.828632" y="307.584" style="stroke: #000000; stroke-width: 0.8"/>
      </g>
     </g>
     <g id="text_2">
      <!-- 2 -->
      <g transform="translate(135.647382 322.182437) scale(0.1 -0.1)">
       <defs>
        <path id="DejaVuSans-32" d="M 1228 531 
L 3431 531 
L 3431 0 
L 469 0 
L 469 531 
Q 828 903 1448 1529 
Q 2069 2156 2228 2338 
Q 2531 2678 2651 2914 
Q 2772 3150 2772 3378 
Q 2772 3750 2511 3984 
Q 2250 4219 1831 4219 
Q 1534 4219 1204 4116 
Q 875 4013 500 3803 
L 500 4441 
Q 881 4594 1212 4672 
Q 1544 4750 1819 4750 
Q 2544 4750 2975 4387 
Q 3406 4025 3406 3419 
Q 3406 3131 3298 2873 
Q 3191 2616 2906 2266 
Q 2828 2175 2409 1742 
Q 1991 1309 1228 531 
z
" transform="scale(0.015625)"/>
       </defs>
       <use xlink:href="#DejaVuSans-32"/>
      </g>
     </g>
    </g>
    <g id="xtick_3">
     <g id="line2d_3">
      <g>
       <use xlink:href="#m9cfe8a146a" x="203.824537" y="307.584" style="stroke: #000000; stroke-width: 0.8"/>
      </g>
     </g>
     <g id="text_3">
      <!-- 4 -->
      <g transform="translate(200.643287 322.182437) scale(0.1 -0.1)">
       <defs>
        <path id="DejaVuSans-34" d="M 2419 4116 
L 825 1625 
L 2419 1625 
L 2419 4116 
z
M 2253 4666 
L 3047 4666 
L 3047 1625 
L 3713 1625 
L 3713 1100 
L 3047 1100 
L 3047 0 
L 2419 0 
L 2419 1100 
L 313 1100 
L 313 1709 
L 2253 4666 
z
" transform="scale(0.015625)"/>
       </defs>
       <use xlink:href="#DejaVuSans-34"/>
      </g>
     </g>
    </g>
    <g id="xtick_4">
     <g id="line2d_4">
      <g>
       <use xlink:href="#m9cfe8a146a" x="268.820442" y="307.584" style="stroke: #000000; stroke-width: 0.8"/>
      </g>
     </g>
     <g id="text_4">
      <!-- 6 -->
      <g transform="translate(265.639192 322.182437) scale(0.1 -0.1)">
       <defs>
        <path id="DejaVuSans-36" d="M 2113 2584 
Q 1688 2584 1439 2293 
Q 1191 2003 1191 1497 
Q 1191 994 1439 701 
Q 1688 409 2113 409 
Q 2538 409 2786 701 
Q 3034 994 3034 1497 
Q 3034 2003 2786 2293 
Q 2538 2584 2113 2584 
z
M 3366 4563 
L 3366 3988 
Q 3128 4100 2886 4159 
Q 2644 4219 2406 4219 
Q 1781 4219 1451 3797 
Q 1122 3375 1075 2522 
Q 1259 2794 1537 2939 
Q 1816 3084 2150 3084 
Q 2853 3084 3261 2657 
Q 3669 2231 3669 1497 
Q 3669 778 3244 343 
Q 2819 -91 2113 -91 
Q 1303 -91 875 529 
Q 447 1150 447 2328 
Q 447 3434 972 4092 
Q 1497 4750 2381 4750 
Q 2619 4750 2861 4703 
Q 3103 4656 3366 4563 
z
" transform="scale(0.015625)"/>
       </defs>
       <use xlink:href="#DejaVuSans-36"/>
      </g>
     </g>
    </g>
    <g id="xtick_5">
     <g id="line2d_5">
      <g>
       <use xlink:href="#m9cfe8a146a" x="333.816347" y="307.584" style="stroke: #000000; stroke-width: 0.8"/>
      </g>
     </g>
     <g id="text_5">
      <!-- 8 -->
      <g transform="translate(330.635097 322.182437) scale(0.1 -0.1)">
       <defs>
        <path id="DejaVuSans-38" d="M 2034 2216 
Q 1584 2216 1326 1975 
Q 1069 1734 1069 1313 
Q 1069 891 1326 650 
Q 1584 409 2034 409 
Q 2484 409 2743 651 
Q 3003 894 3003 1313 
Q 3003 1734 2745 1975 
Q 2488 2216 2034 2216 
z
M 1403 2484 
Q 997 2584 770 2862 
Q 544 3141 544 3541 
Q 544 4100 942 4425 
Q 1341 4750 2034 4750 
Q 2731 4750 3128 4425 
Q 3525 4100 3525 3541 
Q 3525 3141 3298 2862 
Q 3072 2584 2669 2484 
Q 3125 2378 3379 2068 
Q 3634 1759 3634 1313 
Q 3634 634 3220 271 
Q 2806 -91 2034 -91 
Q 1263 -91 848 271 
Q 434 634 434 1313 
Q 434 1759 690 2068 
Q 947 2378 1403 2484 
z
M 1172 3481 
Q 1172 3119 1398 2916 
Q 1625 2713 2034 2713 
Q 2441 2713 2670 2916 
Q 2900 3119 2900 3481 
Q 2900 3844 2670 4047 
Q 2441 4250 2034 4250 
Q 1625 4250 1398 4047 
Q 1172 3844 1172 3481 
z
" transform="scale(0.015625)"/>
       </defs>
       <use xlink:href="#DejaVuSans-38"/>
      </g>
     </g>
    </g>
    <g id="xtick_6">
     <g id="line2d_6">
      <g>
       <use xlink:href="#m9cfe8a146a" x="398.812252" y="307.584" style="stroke: #000000; stroke-width: 0.8"/>
      </g>
     </g>
     <g id="text_6">
      <!-- 10 -->
      <g transform="translate(392.449752 322.182437) scale(0.1 -0.1)">
       <defs>
        <path id="DejaVuSans-31" d="M 794 531 
L 1825 531 
L 1825 4091 
L 703 3866 
L 703 4441 
L 1819 4666 
L 2450 4666 
L 2450 531 
L 3481 531 
L 3481 0 
L 794 0 
L 794 531 
z
" transform="scale(0.015625)"/>
       </defs>
       <use xlink:href="#DejaVuSans-31"/>
       <use xlink:href="#DejaVuSans-30" x="63.623047"/>
      </g>
     </g>
    </g>
    <g id="text_7">
     <!-- Filter radius (cm) -->
     <g transform="translate(193.620937 335.860562) scale(0.1 -0.1)">
      <defs>
       <path id="DejaVuSans-46" d="M 628 4666 
L 3309 4666 
L 3309 4134 
L 1259 4134 
L 1259 2759 
L 3109 2759 
L 3109 2228 
L 1259 2228 
L 1259 0 
L 628 0 
L 628 4666 
z
" transform="scale(0.015625)"/>
       <path id="DejaVuSans-69" d="M 603 3500 
L 1178 3500 
L 1178 0 
L 603 0 
L 603 3500 
z
M 603 4863 
L 1178 4863 
L 1178 4134 
L 603 4134 
L 603 4863 
z
" transform="scale(0.015625)"/>
       <path id="DejaVuSans-6c" d="M 603 4863 
L 1178 4863 
L 1178 0 
L 603 0 
L 603 4863 
z
" transform="scale(0.015625)"/>
       <path id="DejaVuSans-74" d="M 1172 4494 
L 1172 3500 
L 2356 3500 
L 2356 3053 
L 1172 3053 
L 1172 1153 
Q 1172 725 1289 603 
Q 1406 481 1766 481 
L 2356 481 
L 2356 0 
L 1766 0 
Q 1100 0 847 248 
Q 594 497 594 1153 
L 594 3053 
L 172 3053 
L 172 3500 
L 594 3500 
L 594 4494 
L 1172 4494 
z
" transform="scale(0.015625)"/>
       <path id="DejaVuSans-65" d="M 3597 1894 
L 3597 1613 
L 953 1613 
Q 991 1019 1311 708 
Q 1631 397 2203 397 
Q 2534 397 2845 478 
Q 3156 559 3463 722 
L 3463 178 
Q 3153 47 2828 -22 
Q 2503 -91 2169 -91 
Q 1331 -91 842 396 
Q 353 884 353 1716 
Q 353 2575 817 3079 
Q 1281 3584 2069 3584 
Q 2775 3584 3186 3129 
Q 3597 2675 3597 1894 
z
M 3022 2063 
Q 3016 2534 2758 2815 
Q 2500 3097 2075 3097 
Q 1594 3097 1305 2825 
Q 1016 2553 972 2059 
L 3022 2063 
z
" transform="scale(0.015625)"/>
       <path id="DejaVuSans-72" d="M 2631 2963 
Q 2534 3019 2420 3045 
Q 2306 3072 2169 3072 
Q 1681 3072 1420 2755 
Q 1159 2438 1159 1844 
L 1159 0 
L 581 0 
L 581 3500 
L 1159 3500 
L 1159 2956 
Q 1341 3275 1631 3429 
Q 1922 3584 2338 3584 
Q 2397 3584 2469 3576 
Q 2541 3569 2628 3553 
L 2631 2963 
z
" transform="scale(0.015625)"/>
       <path id="DejaVuSans-20" transform="scale(0.015625)"/>
       <path id="DejaVuSans-61" d="M 2194 1759 
Q 1497 1759 1228 1600 
Q 959 1441 959 1056 
Q 959 750 1161 570 
Q 1363 391 1709 391 
Q 2188 391 2477 730 
Q 2766 1069 2766 1631 
L 2766 1759 
L 2194 1759 
z
M 3341 1997 
L 3341 0 
L 2766 0 
L 2766 531 
Q 2569 213 2275 61 
Q 1981 -91 1556 -91 
Q 1019 -91 701 211 
Q 384 513 384 1019 
Q 384 1609 779 1909 
Q 1175 2209 1959 2209 
L 2766 2209 
L 2766 2266 
Q 2766 2663 2505 2880 
Q 2244 3097 1772 3097 
Q 1472 3097 1187 3025 
Q 903 2953 641 2809 
L 641 3341 
Q 956 3463 1253 3523 
Q 1550 3584 1831 3584 
Q 2591 3584 2966 3190 
Q 3341 2797 3341 1997 
z
" transform="scale(0.015625)"/>
       <path id="DejaVuSans-64" d="M 2906 2969 
L 2906 4863 
L 3481 4863 
L 3481 0 
L 2906 0 
L 2906 525 
Q 2725 213 2448 61 
Q 2172 -91 1784 -91 
Q 1150 -91 751 415 
Q 353 922 353 1747 
Q 353 2572 751 3078 
Q 1150 3584 1784 3584 
Q 2172 3584 2448 3432 
Q 2725 3281 2906 2969 
z
M 947 1747 
Q 947 1113 1208 752 
Q 1469 391 1925 391 
Q 2381 391 2643 752 
Q 2906 1113 2906 1747 
Q 2906 2381 2643 2742 
Q 2381 3103 1925 3103 
Q 1469 3103 1208 2742 
Q 947 2381 947 1747 
z
" transform="scale(0.015625)"/>
       <path id="DejaVuSans-75" d="M 544 1381 
L 544 3500 
L 1119 3500 
L 1119 1403 
Q 1119 906 1312 657 
Q 1506 409 1894 409 
Q 2359 409 2629 706 
Q 2900 1003 2900 1516 
L 2900 3500 
L 3475 3500 
L 3475 0 
L 2900 0 
L 2900 538 
Q 2691 219 2414 64 
Q 2138 -91 1772 -91 
Q 1169 -91 856 284 
Q 544 659 544 1381 
z
M 1991 3584 
L 1991 3584 
z
" transform="scale(0.015625)"/>
       <path id="DejaVuSans-73" d="M 2834 3397 
L 2834 2853 
Q 2591 2978 2328 3040 
Q 2066 3103 1784 3103 
Q 1356 3103 1142 2972 
Q 928 2841 928 2578 
Q 928 2378 1081 2264 
Q 1234 2150 1697 2047 
L 1894 2003 
Q 2506 1872 2764 1633 
Q 3022 1394 3022 966 
Q 3022 478 2636 193 
Q 2250 -91 1575 -91 
Q 1294 -91 989 -36 
Q 684 19 347 128 
L 347 722 
Q 666 556 975 473 
Q 1284 391 1588 391 
Q 1994 391 2212 530 
Q 2431 669 2431 922 
Q 2431 1156 2273 1281 
Q 2116 1406 1581 1522 
L 1381 1569 
Q 847 1681 609 1914 
Q 372 2147 372 2553 
Q 372 3047 722 3315 
Q 1072 3584 1716 3584 
Q 2034 3584 2315 3537 
Q 2597 3491 2834 3397 
z
" transform="scale(0.015625)"/>
       <path id="DejaVuSans-28" d="M 1984 4856 
Q 1566 4138 1362 3434 
Q 1159 2731 1159 2009 
Q 1159 1288 1364 580 
Q 1569 -128 1984 -844 
L 1484 -844 
Q 1016 -109 783 600 
Q 550 1309 550 2009 
Q 550 2706 781 3412 
Q 1013 4119 1484 4856 
L 1984 4856 
z
" transform="scale(0.015625)"/>
       <path id="DejaVuSans-63" d="M 3122 3366 
L 3122 2828 
Q 2878 2963 2633 3030 
Q 2388 3097 2138 3097 
Q 1578 3097 1268 2742 
Q 959 2388 959 1747 
Q 959 1106 1268 751 
Q 1578 397 2138 397 
Q 2388 397 2633 464 
Q 2878 531 3122 666 
L 3122 134 
Q 2881 22 2623 -34 
Q 2366 -91 2075 -91 
Q 1284 -91 818 406 
Q 353 903 353 1747 
Q 353 2603 823 3093 
Q 1294 3584 2113 3584 
Q 2378 3584 2631 3529 
Q 2884 3475 3122 3366 
z
" transform="scale(0.015625)"/>
       <path id="DejaVuSans-6d" d="M 3328 2828 
Q 3544 3216 3844 3400 
Q 4144 3584 4550 3584 
Q 5097 3584 5394 3201 
Q 5691 2819 5691 2113 
L 5691 0 
L 5113 0 
L 5113 2094 
Q 5113 2597 4934 2840 
Q 4756 3084 4391 3084 
Q 3944 3084 3684 2787 
Q 3425 2491 3425 1978 
L 3425 0 
L 2847 0 
L 2847 2094 
Q 2847 2600 2669 2842 
Q 2491 3084 2119 3084 
Q 1678 3084 1418 2786 
Q 1159 2488 1159 1978 
L 1159 0 
L 581 0 
L 581 3500 
L 1159 3500 
L 1159 2956 
Q 1356 3278 1631 3431 
Q 1906 3584 2284 3584 
Q 2666 3584 2933 3390 
Q 3200 3197 3328 2828 
z
" transform="scale(0.015625)"/>
       <path id="DejaVuSans-29" d="M 513 4856 
L 1013 4856 
Q 1481 4119 1714 3412 
Q 1947 2706 1947 2009 
Q 1947 1309 1714 600 
Q 1481 -109 1013 -844 
L 513 -844 
Q 928 -128 1133 580 
Q 1338 1288 1338 2009 
Q 1338 2731 1133 3434 
Q 928 4138 513 4856 
z
" transform="scale(0.015625)"/>
      </defs>
      <use xlink:href="#DejaVuSans-46"/>
      <use xlink:href="#DejaVuSans-69" x="50.269531"/>
      <use xlink:href="#DejaVuSans-6c" x="78.052734"/>
      <use xlink:href="#DejaVuSans-74" x="105.835938"/>
      <use xlink:href="#DejaVuSans-65" x="145.044922"/>
      <use xlink:href="#DejaVuSans-72" x="206.568359"/>
      <use xlink:href="#DejaVuSans-20" x="247.681641"/>
      <use xlink:href="#DejaVuSans-72" x="279.46875"/>
      <use xlink:href="#DejaVuSans-61" x="320.582031"/>
      <use xlink:href="#DejaVuSans-64" x="381.861328"/>
      <use xlink:href="#DejaVuSans-69" x="445.337891"/>
      <use xlink:href="#DejaVuSans-75" x="473.121094"/>
      <use xlink:href="#DejaVuSans-73" x="536.5"/>
      <use xlink:href="#DejaVuSans-20" x="588.599609"/>
      <use xlink:href="#DejaVuSans-28" x="620.386719"/>
      <use xlink:href="#DejaVuSans-63" x="659.400391"/>
      <use xlink:href="#DejaVuSans-6d" x="714.380859"/>
      <use xlink:href="#DejaVuSans-29" x="811.792969"/>
     </g>
    </g>
   </g>
   <g id="matplotlib.axis_2">
    <g id="ytick_1">
     <g id="line2d_7">
      <defs>
       <path id="m7cf887b601" d="M 0 0 
L -3.5 0 
" style="stroke: #000000; stroke-width: 0.8"/>
      </defs>
      <g>
       <use xlink:href="#m7cf887b601" x="57.6" y="299.536526" style="stroke: #000000; stroke-width: 0.8"/>
      </g>
     </g>
     <g id="text_8">
      <!-- $\mathdefault{10^{3}}$ -->
      <g transform="translate(33 303.335745) scale(0.1 -0.1)">
       <defs>
        <path id="DejaVuSans-33" d="M 2597 2516 
Q 3050 2419 3304 2112 
Q 3559 1806 3559 1356 
Q 3559 666 3084 287 
Q 2609 -91 1734 -91 
Q 1441 -91 1130 -33 
Q 819 25 488 141 
L 488 750 
Q 750 597 1062 519 
Q 1375 441 1716 441 
Q 2309 441 2620 675 
Q 2931 909 2931 1356 
Q 2931 1769 2642 2001 
Q 2353 2234 1838 2234 
L 1294 2234 
L 1294 2753 
L 1863 2753 
Q 2328 2753 2575 2939 
Q 2822 3125 2822 3475 
Q 2822 3834 2567 4026 
Q 2313 4219 1838 4219 
Q 1578 4219 1281 4162 
Q 984 4106 628 3988 
L 628 4550 
Q 988 4650 1302 4700 
Q 1616 4750 1894 4750 
Q 2613 4750 3031 4423 
Q 3450 4097 3450 3541 
Q 3450 3153 3228 2886 
Q 3006 2619 2597 2516 
z
" transform="scale(0.015625)"/>
       </defs>
       <use xlink:href="#DejaVuSans-31" transform="translate(0 0.765625)"/>
       <use xlink:href="#DejaVuSans-30" transform="translate(63.623047 0.765625)"/>
       <use xlink:href="#DejaVuSans-33" transform="translate(128.203125 39.046875) scale(0.7)"/>
      </g>
     </g>
    </g>
    <g id="ytick_2">
     <g id="line2d_8">
      <g>
       <use xlink:href="#m7cf887b601" x="57.6" y="193.616932" style="stroke: #000000; stroke-width: 0.8"/>
      </g>
     </g>
     <g id="text_9">
      <!-- $\mathdefault{10^{4}}$ -->
      <g transform="translate(33 197.41615) scale(0.1 -0.1)">
       <use xlink:href="#DejaVuSans-31" transform="translate(0 0.684375)"/>
       <use xlink:href="#DejaVuSans-30" transform="translate(63.623047 0.684375)"/>
       <use xlink:href="#DejaVuSans-34" transform="translate(128.203125 38.965625) scale(0.7)"/>
      </g>
     </g>
    </g>
    <g id="ytick_3">
     <g id="line2d_9">
      <g>
       <use xlink:href="#m7cf887b601" x="57.6" y="87.697337" style="stroke: #000000; stroke-width: 0.8"/>
      </g>
     </g>
     <g id="text_10">
      <!-- $\mathdefault{10^{5}}$ -->
      <g transform="translate(33 91.496556) scale(0.1 -0.1)">
       <defs>
        <path id="DejaVuSans-35" d="M 691 4666 
L 3169 4666 
L 3169 4134 
L 1269 4134 
L 1269 2991 
Q 1406 3038 1543 3061 
Q 1681 3084 1819 3084 
Q 2600 3084 3056 2656 
Q 3513 2228 3513 1497 
Q 3513 744 3044 326 
Q 2575 -91 1722 -91 
Q 1428 -91 1123 -41 
Q 819 9 494 109 
L 494 744 
Q 775 591 1075 516 
Q 1375 441 1709 441 
Q 2250 441 2565 725 
Q 2881 1009 2881 1497 
Q 2881 1984 2565 2268 
Q 2250 2553 1709 2553 
Q 1456 2553 1204 2497 
Q 953 2441 691 2322 
L 691 4666 
z
" transform="scale(0.015625)"/>
       </defs>
       <use xlink:href="#DejaVuSans-31" transform="translate(0 0.684375)"/>
       <use xlink:href="#DejaVuSans-30" transform="translate(63.623047 0.684375)"/>
       <use xlink:href="#DejaVuSans-35" transform="translate(128.203125 38.965625) scale(0.7)"/>
      </g>
     </g>
    </g>
    <g id="ytick_4">
     <g id="line2d_10">
      <defs>
       <path id="ma8a92c1a48" d="M 0 0 
L -2 0 
" style="stroke: #000000; stroke-width: 0.6"/>
      </defs>
      <g>
       <use xlink:href="#ma8a92c1a48" x="57.6" y="304.383141" style="stroke: #000000; stroke-width: 0.6"/>
      </g>
     </g>
    </g>
    <g id="ytick_5">
     <g id="line2d_11">
      <g>
       <use xlink:href="#ma8a92c1a48" x="57.6" y="267.651551" style="stroke: #000000; stroke-width: 0.6"/>
      </g>
     </g>
    </g>
    <g id="ytick_6">
     <g id="line2d_12">
      <g>
       <use xlink:href="#ma8a92c1a48" x="57.6" y="249.000036" style="stroke: #000000; stroke-width: 0.6"/>
      </g>
     </g>
    </g>
    <g id="ytick_7">
     <g id="line2d_13">
      <g>
       <use xlink:href="#ma8a92c1a48" x="57.6" y="235.766576" style="stroke: #000000; stroke-width: 0.6"/>
      </g>
     </g>
    </g>
    <g id="ytick_8">
     <g id="line2d_14">
      <g>
       <use xlink:href="#ma8a92c1a48" x="57.6" y="225.501907" style="stroke: #000000; stroke-width: 0.6"/>
      </g>
     </g>
    </g>
    <g id="ytick_9">
     <g id="line2d_15">
      <g>
       <use xlink:href="#ma8a92c1a48" x="57.6" y="217.115061" style="stroke: #000000; stroke-width: 0.6"/>
      </g>
     </g>
    </g>
    <g id="ytick_10">
     <g id="line2d_16">
      <g>
       <use xlink:href="#ma8a92c1a48" x="57.6" y="210.024085" style="stroke: #000000; stroke-width: 0.6"/>
      </g>
     </g>
    </g>
    <g id="ytick_11">
     <g id="line2d_17">
      <g>
       <use xlink:href="#ma8a92c1a48" x="57.6" y="203.881601" style="stroke: #000000; stroke-width: 0.6"/>
      </g>
     </g>
    </g>
    <g id="ytick_12">
     <g id="line2d_18">
      <g>
       <use xlink:href="#ma8a92c1a48" x="57.6" y="198.463547" style="stroke: #000000; stroke-width: 0.6"/>
      </g>
     </g>
    </g>
    <g id="ytick_13">
     <g id="line2d_19">
      <g>
       <use xlink:href="#ma8a92c1a48" x="57.6" y="161.731957" style="stroke: #000000; stroke-width: 0.6"/>
      </g>
     </g>
    </g>
    <g id="ytick_14">
     <g id="line2d_20">
      <g>
       <use xlink:href="#ma8a92c1a48" x="57.6" y="143.080442" style="stroke: #000000; stroke-width: 0.6"/>
      </g>
     </g>
    </g>
    <g id="ytick_15">
     <g id="line2d_21">
      <g>
       <use xlink:href="#ma8a92c1a48" x="57.6" y="129.846981" style="stroke: #000000; stroke-width: 0.6"/>
      </g>
     </g>
    </g>
    <g id="ytick_16">
     <g id="line2d_22">
      <g>
       <use xlink:href="#ma8a92c1a48" x="57.6" y="119.582312" style="stroke: #000000; stroke-width: 0.6"/>
      </g>
     </g>
    </g>
    <g id="ytick_17">
     <g id="line2d_23">
      <g>
       <use xlink:href="#ma8a92c1a48" x="57.6" y="111.195467" style="stroke: #000000; stroke-width: 0.6"/>
      </g>
     </g>
    </g>
    <g id="ytick_18">
     <g id="line2d_24">
      <g>
       <use xlink:href="#ma8a92c1a48" x="57.6" y="104.10449" style="stroke: #000000; stroke-width: 0.6"/>
      </g>
     </g>
    </g>
    <g id="ytick_19">
     <g id="line2d_25">
      <g>
       <use xlink:href="#ma8a92c1a48" x="57.6" y="97.962006" style="stroke: #000000; stroke-width: 0.6"/>
      </g>
     </g>
    </g>
    <g id="ytick_20">
     <g id="line2d_26">
      <g>
       <use xlink:href="#ma8a92c1a48" x="57.6" y="92.543952" style="stroke: #000000; stroke-width: 0.6"/>
      </g>
     </g>
    </g>
    <g id="ytick_21">
     <g id="line2d_27">
      <g>
       <use xlink:href="#ma8a92c1a48" x="57.6" y="55.812362" style="stroke: #000000; stroke-width: 0.6"/>
      </g>
     </g>
    </g>
    <g id="text_11">
     <!-- Number of points after filtering -->
     <g transform="translate(26.920312 252.337375) rotate(-90) scale(0.1 -0.1)">
      <defs>
       <path id="DejaVuSans-4e" d="M 628 4666 
L 1478 4666 
L 3547 763 
L 3547 4666 
L 4159 4666 
L 4159 0 
L 3309 0 
L 1241 3903 
L 1241 0 
L 628 0 
L 628 4666 
z
" transform="scale(0.015625)"/>
       <path id="DejaVuSans-62" d="M 3116 1747 
Q 3116 2381 2855 2742 
Q 2594 3103 2138 3103 
Q 1681 3103 1420 2742 
Q 1159 2381 1159 1747 
Q 1159 1113 1420 752 
Q 1681 391 2138 391 
Q 2594 391 2855 752 
Q 3116 1113 3116 1747 
z
M 1159 2969 
Q 1341 3281 1617 3432 
Q 1894 3584 2278 3584 
Q 2916 3584 3314 3078 
Q 3713 2572 3713 1747 
Q 3713 922 3314 415 
Q 2916 -91 2278 -91 
Q 1894 -91 1617 61 
Q 1341 213 1159 525 
L 1159 0 
L 581 0 
L 581 4863 
L 1159 4863 
L 1159 2969 
z
" transform="scale(0.015625)"/>
       <path id="DejaVuSans-6f" d="M 1959 3097 
Q 1497 3097 1228 2736 
Q 959 2375 959 1747 
Q 959 1119 1226 758 
Q 1494 397 1959 397 
Q 2419 397 2687 759 
Q 2956 1122 2956 1747 
Q 2956 2369 2687 2733 
Q 2419 3097 1959 3097 
z
M 1959 3584 
Q 2709 3584 3137 3096 
Q 3566 2609 3566 1747 
Q 3566 888 3137 398 
Q 2709 -91 1959 -91 
Q 1206 -91 779 398 
Q 353 888 353 1747 
Q 353 2609 779 3096 
Q 1206 3584 1959 3584 
z
" transform="scale(0.015625)"/>
       <path id="DejaVuSans-66" d="M 2375 4863 
L 2375 4384 
L 1825 4384 
Q 1516 4384 1395 4259 
Q 1275 4134 1275 3809 
L 1275 3500 
L 2222 3500 
L 2222 3053 
L 1275 3053 
L 1275 0 
L 697 0 
L 697 3053 
L 147 3053 
L 147 3500 
L 697 3500 
L 697 3744 
Q 697 4328 969 4595 
Q 1241 4863 1831 4863 
L 2375 4863 
z
" transform="scale(0.015625)"/>
       <path id="DejaVuSans-70" d="M 1159 525 
L 1159 -1331 
L 581 -1331 
L 581 3500 
L 1159 3500 
L 1159 2969 
Q 1341 3281 1617 3432 
Q 1894 3584 2278 3584 
Q 2916 3584 3314 3078 
Q 3713 2572 3713 1747 
Q 3713 922 3314 415 
Q 2916 -91 2278 -91 
Q 1894 -91 1617 61 
Q 1341 213 1159 525 
z
M 3116 1747 
Q 3116 2381 2855 2742 
Q 2594 3103 2138 3103 
Q 1681 3103 1420 2742 
Q 1159 2381 1159 1747 
Q 1159 1113 1420 752 
Q 1681 391 2138 391 
Q 2594 391 2855 752 
Q 3116 1113 3116 1747 
z
" transform="scale(0.015625)"/>
       <path id="DejaVuSans-6e" d="M 3513 2113 
L 3513 0 
L 2938 0 
L 2938 2094 
Q 2938 2591 2744 2837 
Q 2550 3084 2163 3084 
Q 1697 3084 1428 2787 
Q 1159 2491 1159 1978 
L 1159 0 
L 581 0 
L 581 3500 
L 1159 3500 
L 1159 2956 
Q 1366 3272 1645 3428 
Q 1925 3584 2291 3584 
Q 2894 3584 3203 3211 
Q 3513 2838 3513 2113 
z
" transform="scale(0.015625)"/>
       <path id="DejaVuSans-67" d="M 2906 1791 
Q 2906 2416 2648 2759 
Q 2391 3103 1925 3103 
Q 1463 3103 1205 2759 
Q 947 2416 947 1791 
Q 947 1169 1205 825 
Q 1463 481 1925 481 
Q 2391 481 2648 825 
Q 2906 1169 2906 1791 
z
M 3481 434 
Q 3481 -459 3084 -895 
Q 2688 -1331 1869 -1331 
Q 1566 -1331 1297 -1286 
Q 1028 -1241 775 -1147 
L 775 -588 
Q 1028 -725 1275 -790 
Q 1522 -856 1778 -856 
Q 2344 -856 2625 -561 
Q 2906 -266 2906 331 
L 2906 616 
Q 2728 306 2450 153 
Q 2172 0 1784 0 
Q 1141 0 747 490 
Q 353 981 353 1791 
Q 353 2603 747 3093 
Q 1141 3584 1784 3584 
Q 2172 3584 2450 3431 
Q 2728 3278 2906 2969 
L 2906 3500 
L 3481 3500 
L 3481 434 
z
" transform="scale(0.015625)"/>
      </defs>
      <use xlink:href="#DejaVuSans-4e"/>
      <use xlink:href="#DejaVuSans-75" x="74.804688"/>
      <use xlink:href="#DejaVuSans-6d" x="138.183594"/>
      <use xlink:href="#DejaVuSans-62" x="235.595703"/>
      <use xlink:href="#DejaVuSans-65" x="299.072266"/>
      <use xlink:href="#DejaVuSans-72" x="360.595703"/>
      <use xlink:href="#DejaVuSans-20" x="401.708984"/>
      <use xlink:href="#DejaVuSans-6f" x="433.496094"/>
      <use xlink:href="#DejaVuSans-66" x="494.677734"/>
      <use xlink:href="#DejaVuSans-20" x="529.882812"/>
      <use xlink:href="#DejaVuSans-70" x="561.669922"/>
      <use xlink:href="#DejaVuSans-6f" x="625.146484"/>
      <use xlink:href="#DejaVuSans-69" x="686.328125"/>
      <use xlink:href="#DejaVuSans-6e" x="714.111328"/>
      <use xlink:href="#DejaVuSans-74" x="777.490234"/>
      <use xlink:href="#DejaVuSans-73" x="816.699219"/>
      <use xlink:href="#DejaVuSans-20" x="868.798828"/>
      <use xlink:href="#DejaVuSans-61" x="900.585938"/>
      <use xlink:href="#DejaVuSans-66" x="961.865234"/>
      <use xlink:href="#DejaVuSans-74" x="995.320312"/>
      <use xlink:href="#DejaVuSans-65" x="1034.529297"/>
      <use xlink:href="#DejaVuSans-72" x="1096.052734"/>
      <use xlink:href="#DejaVuSans-20" x="1137.166016"/>
      <use xlink:href="#DejaVuSans-66" x="1168.953125"/>
      <use xlink:href="#DejaVuSans-69" x="1204.158203"/>
      <use xlink:href="#DejaVuSans-6c" x="1231.941406"/>
      <use xlink:href="#DejaVuSans-74" x="1259.724609"/>
      <use xlink:href="#DejaVuSans-65" x="1298.933594"/>
      <use xlink:href="#DejaVuSans-72" x="1360.457031"/>
      <use xlink:href="#DejaVuSans-69" x="1401.570312"/>
      <use xlink:href="#DejaVuSans-6e" x="1429.353516"/>
      <use xlink:href="#DejaVuSans-67" x="1492.732422"/>
     </g>
    </g>
   </g>
   <g id="line2d_28">
    <path d="M 73.832727 53.568 
L 74.157707 53.681608 
L 74.807666 54.442824 
L 75.457625 55.734457 
L 76.432563 58.237284 
L 80.332318 69.103205 
L 82.932154 75.383938 
L 84.882031 79.454852 
L 93.006519 94.125117 
L 95.606355 98.028179 
L 99.18113 102.813094 
L 102.105946 106.67824 
L 103.730844 108.715864 
L 106.33068 112.005258 
L 108.930516 115.27 
L 110.230434 116.981844 
L 115.430106 123.82166 
L 117.704963 126.308881 
L 123.229615 131.848357 
L 125.179492 133.708818 
L 130.054185 138.154315 
L 130.704144 138.736588 
L 136.878755 144.308018 
L 140.12855 147.208618 
L 141.753448 148.729653 
L 144.353284 150.933117 
L 156.377527 161.612511 
L 157.352465 162.485601 
L 158.002424 163.026511 
L 161.252219 165.480118 
L 163.527076 167.095131 
L 164.177035 167.520942 
L 165.151974 168.209488 
L 167.42683 169.820768 
L 168.07679 170.397486 
L 168.726749 170.737508 
L 169.701687 171.342914 
L 174.90136 174.956218 
L 177.176216 176.566158 
L 178.151155 177.154152 
L 182.700868 179.832481 
L 183.350827 180.082009 
L 185.625684 181.445596 
L 186.600622 181.914013 
L 190.825356 183.933685 
L 209.02421 191.123529 
L 210.324128 191.834888 
L 211.299066 192.360052 
L 212.598984 193.250394 
L 213.573923 193.842887 
L 214.548862 194.349539 
L 215.84878 195.098754 
L 216.173759 195.208148 
L 216.823718 195.749419 
L 217.473677 196.136507 
L 218.448616 196.866258 
L 219.098575 197.26788 
L 219.748534 197.647926 
L 223.648288 200.833815 
L 224.298247 201.451423 
L 224.948206 201.950448 
L 226.248124 203.066608 
L 228.198002 204.559323 
L 229.17294 205.282734 
L 230.147879 206.023726 
L 230.472858 206.198759 
L 231.447797 207.059401 
L 232.422735 207.779723 
L 233.397674 208.581505 
L 234.047633 209.093834 
L 234.372613 209.280972 
L 235.022572 209.853543 
L 235.347551 209.899396 
L 235.99751 210.353837 
L 236.647469 210.792762 
L 237.622408 211.520161 
L 238.272367 211.799344 
L 238.922326 212.273047 
L 239.572285 212.626337 
L 240.872203 213.695669 
L 242.82208 214.885305 
L 243.472039 215.237238 
L 243.797019 215.347771 
L 245.096937 216.256779 
L 245.421916 216.332091 
L 246.071876 216.75613 
L 246.721835 216.931427 
L 247.696773 217.469089 
L 248.996691 218.099187 
L 249.97163 218.366266 
L 251.921507 219.096823 
L 252.246486 219.377827 
L 253.221425 219.741659 
L 253.546405 219.985823 
L 254.196364 220.0675 
L 255.171302 220.593693 
L 256.146241 221.025702 
L 256.7962 221.226467 
L 258.096118 221.774648 
L 258.746077 222.260797 
L 259.071057 222.243652 
L 259.721016 222.579139 
L 260.695954 223.012862 
L 261.020934 223.05646 
L 261.670893 223.433119 
L 262.970811 223.78629 
L 263.29579 223.937212 
L 263.62077 224.231601 
L 263.945749 224.330151 
L 264.595708 224.681265 
L 264.920688 224.91684 
L 266.545586 225.474315 
L 267.195545 225.806515 
L 267.845504 225.927068 
L 268.170483 226.150462 
L 268.820442 226.374945 
L 270.12036 226.922012 
L 270.44534 226.940993 
L 270.770319 227.303127 
L 271.745258 227.784005 
L 272.395217 228.094425 
L 273.370156 228.721623 
L 273.695135 228.899574 
L 274.020115 229.207668 
L 274.670074 229.457643 
L 274.995053 229.729151 
L 275.320033 229.799804 
L 275.969992 230.266816 
L 276.294971 230.389429 
L 276.94493 230.831496 
L 277.919869 231.163255 
L 278.894808 231.950322 
L 279.219787 232.066899 
L 279.544767 232.343625 
L 280.519705 232.686513 
L 281.494644 233.390972 
L 282.469582 233.807863 
L 283.119541 234.195213 
L 283.7695 234.608275 
L 284.419459 234.912057 
L 286.369337 236.08971 
L 287.019296 236.263756 
L 287.994234 236.695907 
L 288.319214 237.07296 
L 288.644193 237.084793 
L 289.294152 237.417356 
L 289.619132 237.524763 
L 290.59407 238.113979 
L 291.569009 238.515094 
L 291.893989 238.698582 
L 292.218968 239.055413 
L 292.868927 239.216275 
L 294.168845 239.915723 
L 294.493825 240.244118 
L 294.818804 240.294849 
L 295.143784 240.600415 
L 296.118722 240.998133 
L 296.768681 241.282485 
L 298.0686 241.764714 
L 298.393579 242.014324 
L 299.368518 242.358104 
L 300.018477 242.757993 
L 300.343456 242.878641 
L 301.318395 243.554731 
L 301.643374 243.595614 
L 302.293333 244.144222 
L 303.918231 244.979602 
L 304.89317 245.374699 
L 306.193088 246.247379 
L 306.518067 246.334117 
L 306.843047 246.551682 
L 307.168026 246.595318 
L 307.493006 246.916592 
L 308.142965 247.151662 
L 309.442883 247.759572 
L 309.767862 248.014007 
L 311.39276 248.481632 
L 312.042719 248.892827 
L 312.692678 248.862242 
L 315.942473 250.039022 
L 316.592432 250.054708 
L 318.54231 251.085971 
L 319.192269 251.327274 
L 319.842228 251.764835 
L 320.492187 251.927957 
L 320.817166 252.157303 
L 321.467125 252.3548 
L 322.767043 252.768996 
L 323.092023 252.969143 
L 323.417002 252.985861 
L 325.36688 253.880738 
L 325.691859 253.863692 
L 327.966716 254.602461 
L 328.291695 254.810765 
L 328.616675 254.862988 
L 330.891532 255.991454 
L 333.491368 256.656703 
L 334.141327 257.038602 
L 334.791286 257.093418 
L 335.116265 257.31334 
L 335.766224 257.331715 
L 339.01602 258.353779 
L 339.665979 258.410187 
L 340.315938 258.466663 
L 340.640917 258.44783 
L 341.290876 258.750092 
L 341.940835 258.863954 
L 343.565733 259.264706 
L 344.215692 259.649648 
L 344.540672 259.630324 
L 345.190631 259.765761 
L 345.84059 260.018351 
L 347.140508 260.350767 
L 348.440426 260.508033 
L 349.090385 260.705374 
L 350.065324 260.963191 
L 351.040262 261.202465 
L 351.690221 261.4832 
L 352.015201 261.664581 
L 352.34018 261.644392 
L 352.66516 261.745425 
L 353.315119 261.664581 
L 357.539853 262.685491 
L 357.864832 262.664849 
L 358.189812 262.788839 
L 358.839771 262.85096 
L 359.48973 262.954681 
L 360.789648 262.933918 
L 361.764586 263.267255 
L 362.739525 263.309092 
L 363.714464 263.603025 
L 364.039443 263.814133 
L 364.689402 263.814133 
L 366.964259 264.068747 
L 367.289238 264.175254 
L 367.614218 264.132622 
L 369.239115 264.582244 
L 370.539034 264.819527 
L 371.188993 264.668387 
L 371.513972 264.819527 
L 371.838952 264.776293 
L 372.163931 264.971164 
L 376.713645 265.958098 
L 377.038624 266.091303 
L 377.688583 266.135791 
L 378.988501 266.560584 
L 379.313481 266.785745 
L 381.263358 266.876119 
L 382.238296 267.467917 
L 382.563276 267.422123 
L 382.888256 267.628557 
L 383.213235 267.559643 
L 384.188174 267.605574 
L 384.513153 267.628557 
L 384.838133 267.928384 
L 387.437969 268.346783 
L 387.762948 268.463683 
L 388.412907 268.463683 
L 389.062867 268.698379 
L 390.037805 269.361971 
L 390.687764 269.385848 
L 391.337723 269.55334 
L 391.662703 269.577317 
L 391.987682 269.841895 
L 392.962621 270.132271 
L 393.61258 270.351262 
L 394.262539 270.326878 
L 394.587518 270.448928 
L 394.912498 270.448928 
L 396.212416 270.866334 
L 397.512334 271.113648 
L 398.162293 271.512137 
L 398.487273 271.587239 
L 398.487273 271.587239 
" clip-path="url(#p570cd40389)" style="fill: none; stroke: #1f77b4; stroke-width: 1.5; stroke-linecap: square"/>
   </g>
   <g id="line2d_29">
    <path d="M 73.832727 53.568 
L 74.157707 53.681608 
L 74.807666 54.450862 
L 75.457625 55.761789 
L 76.432563 58.339955 
L 80.657297 70.459603 
L 82.607174 75.352623 
L 84.882031 80.267211 
L 88.781785 87.555874 
L 94.306437 97.250508 
L 97.881212 102.270637 
L 107.955577 115.463071 
L 108.930516 116.662998 
L 109.905455 117.941207 
L 114.130188 123.613307 
L 116.730025 126.788434 
L 119.65484 129.979423 
L 119.97982 130.729397 
L 121.604717 132.413957 
L 124.854513 135.527843 
L 125.179492 135.799286 
L 125.504472 135.904115 
L 126.47941 136.771509 
L 126.80439 136.83706 
L 130.054185 139.81076 
L 130.704144 140.200863 
L 132.004062 141.367779 
L 132.329042 141.616638 
L 132.654021 142.235707 
L 133.62896 143.072776 
L 133.953939 143.042124 
L 137.203735 146.117978 
L 137.853694 146.879368 
L 138.503653 147.457532 
L 139.478591 148.382492 
L 141.428468 150.175508 
L 143.053366 151.646116 
L 144.678264 153.222607 
L 145.328223 153.672106 
L 146.95312 155.175043 
L 147.603079 155.852136 
L 154.752629 162.583903 
L 155.727568 163.442376 
L 157.352465 164.954139 
L 157.677445 165.30578 
L 158.327404 165.74538 
L 158.652383 166.009656 
L 158.977363 166.657862 
L 159.302342 166.732162 
L 160.60226 167.890214 
L 164.826994 170.911274 
L 165.476953 171.439386 
L 165.801933 171.598724 
L 167.101851 172.68602 
L 168.401769 173.638466 
L 169.376708 174.280536 
L 171.976544 176.064039 
L 172.626503 176.477336 
L 174.57638 177.899874 
L 175.551319 178.535097 
L 175.876298 178.482101 
L 176.526257 179.004781 
L 177.501196 179.601255 
L 181.72593 182.315233 
L 182.700868 182.923702 
L 184.325766 183.725455 
L 185.950663 184.677581 
L 186.275643 184.530101 
L 186.925602 184.878762 
L 187.250581 184.848339 
L 188.22552 185.375985 
L 188.5505 185.793189 
L 191.150336 186.924594 
L 191.475315 187.111903 
L 191.800295 187.488826 
L 192.450254 187.670366 
L 193.425192 187.998956 
L 194.075152 188.305312 
L 198.299885 189.673838 
L 200.574742 190.629457 
L 201.224701 190.927866 
L 204.799476 192.606896 
L 205.449435 193.009161 
L 207.074333 193.88451 
L 207.399312 193.91228 
L 209.02421 194.74383 
L 210.649107 196.020038 
L 211.299066 196.477902 
L 211.624046 196.12679 
L 212.274005 196.713474 
L 216.173759 199.4294 
L 217.148698 200.661931 
L 218.123636 201.48416 
L 218.773595 202.000097 
L 219.423554 202.477249 
L 220.073514 203.049664 
L 221.048452 203.967933 
L 221.698411 204.326498 
L 223.323309 206.138327 
L 223.648288 206.874932 
L 223.973268 206.973223 
L 224.623227 207.72343 
L 225.923145 208.849766 
L 226.573104 209.546851 
L 227.223063 210.149112 
L 227.548043 210.360456 
L 228.847961 211.662945 
L 229.49792 212.35593 
L 230.147879 212.912336 
L 230.797838 213.525166 
L 232.097756 214.819616 
L 232.422735 215.215163 
L 232.747715 215.274053 
L 233.397674 215.755348 
L 234.047633 216.634576 
L 234.372613 216.786568 
L 235.022572 217.391894 
L 235.347551 217.376471 
L 238.922326 220.313403 
L 239.247305 220.34629 
L 241.197183 221.800107 
L 241.522162 222.484266 
L 242.497101 223.117567 
L 242.82208 223.40674 
L 243.14706 223.33647 
L 243.797019 223.777427 
L 244.121998 223.812887 
L 244.771957 224.563929 
L 245.096937 224.762674 
L 245.421916 224.798902 
L 247.046814 226.029322 
L 247.696773 226.42185 
L 248.021753 226.817757 
L 248.346732 226.912525 
L 248.996691 227.303127 
L 250.621589 228.036062 
L 251.271548 227.648851 
L 251.596527 227.987482 
L 252.246486 228.230896 
L 252.571466 228.48542 
L 253.221425 228.731491 
L 253.871384 229.088161 
L 254.196364 229.187729 
L 255.171302 229.880684 
L 255.821261 229.992126 
L 256.146241 230.134353 
L 256.47122 229.95157 
L 256.7962 230.144529 
L 257.121179 231.319595 
L 257.446159 231.549858 
L 257.771138 231.069706 
L 258.096118 231.277852 
L 258.746077 231.918579 
L 259.071057 232.003275 
L 259.396036 232.665007 
L 260.370975 232.956184 
L 261.345913 233.598945 
L 261.995872 233.896113 
L 262.320852 233.874035 
L 263.29579 234.295347 
L 263.62077 234.328773 
L 264.920688 235.047718 
L 265.245667 234.61949 
L 266.220606 234.889486 
L 266.545586 235.251962 
L 267.195545 235.686146 
L 267.520524 235.560039 
L 267.845504 234.945935 
L 268.495463 235.240591 
L 268.820442 235.331636 
L 269.795381 235.950946 
L 270.12036 235.893251 
L 270.44534 236.043409 
L 270.770319 236.672443 
L 271.095299 236.801641 
L 271.420278 236.625552 
L 272.070238 236.848712 
L 272.395217 237.155854 
L 272.720197 237.191426 
L 274.020115 238.041423 
L 274.670074 238.308022 
L 274.995053 238.576175 
L 275.320033 238.539517 
L 276.94493 239.991299 
L 277.919869 240.511082 
L 278.569828 240.920886 
L 278.894808 240.959493 
L 279.219787 241.20476 
L 279.544767 241.660019 
L 279.869746 241.660019 
L 280.519705 241.948505 
L 280.844685 243.595614 
L 281.169664 243.310192 
L 282.469582 243.786883 
L 283.119541 244.199445 
L 283.444521 244.881356 
L 283.7695 244.407122 
L 284.744439 244.71342 
L 286.044357 245.233203 
L 286.369337 244.227081 
L 286.694316 244.532179 
L 287.994234 245.06398 
L 288.319214 245.36053 
L 288.969173 245.459806 
L 290.269091 245.945076 
L 290.59407 246.218502 
L 290.91905 246.711886 
L 292.218968 246.566223 
L 292.868927 247.019287 
L 293.193907 248.014007 
L 293.518886 248.104145 
L 293.843866 248.572692 
L 294.493825 248.923433 
L 295.793743 249.076768 
L 296.443702 249.307732 
L 296.768681 249.292298 
L 297.41864 249.773169 
L 297.74362 249.695268 
L 298.0686 249.929367 
L 299.368518 250.274881 
L 300.018477 250.782126 
L 300.343456 250.87786 
L 300.668436 250.798068 
L 301.318395 251.214508 
L 301.643374 251.102018 
L 302.943292 251.764835 
L 303.268272 251.68349 
L 303.593251 251.927957 
L 304.89317 252.108061 
L 305.218149 252.288874 
L 305.543129 252.868961 
L 306.518067 253.086299 
L 306.843047 253.338356 
L 307.168026 253.338356 
L 307.493006 253.574861 
L 307.817985 253.659623 
L 308.142965 253.91485 
L 309.117903 254.20583 
L 309.767862 254.7586 
L 310.417821 254.637113 
L 311.067781 254.810765 
L 311.71774 255.054984 
L 312.042719 255.247784 
L 312.367699 255.247784 
L 313.017658 255.565029 
L 313.342637 255.902289 
L 314.317576 256.331866 
L 314.642555 256.277949 
L 314.967535 254.223004 
L 315.617494 254.498662 
L 315.942473 256.475955 
L 316.592432 256.367846 
L 318.21733 257.020344 
L 318.54231 256.711066 
L 318.867289 256.765494 
L 319.192269 257.184925 
L 320.492187 257.645208 
L 320.817166 258.110143 
L 321.467125 258.25992 
L 321.792105 258.466663 
L 322.117084 258.466663 
L 322.442064 258.788014 
L 322.767043 258.731142 
L 323.092023 259.01621 
L 323.417002 258.959055 
L 324.391941 259.55311 
L 325.0419 259.882169 
L 325.36688 260.115871 
L 325.691859 259.727024 
L 326.016839 259.746389 
L 326.341818 259.649648 
L 326.991777 259.823928 
L 327.316757 259.804531 
L 327.641736 260.174482 
L 328.291695 260.331146 
L 328.616675 260.350767 
L 330.566552 261.402815 
L 331.541491 261.543581 
L 331.86647 261.684779 
L 332.19145 262.131387 
L 332.841409 262.335833 
L 333.166388 262.479488 
L 333.491368 261.907541 
L 334.141327 262.376832 
L 335.766224 262.582374 
L 336.416183 263.058636 
L 336.741163 263.079456 
L 337.066143 263.603025 
L 338.69104 264.217926 
L 339.01602 264.217926 
L 339.340999 264.410441 
L 339.665979 264.217926 
L 340.315938 264.260638 
L 340.640917 264.196585 
L 341.290876 264.496263 
L 341.940835 264.646837 
L 342.590794 264.754692 
L 342.915774 264.711519 
L 343.565733 264.949471 
L 344.215692 265.38529 
L 344.865651 265.538807 
L 345.51561 265.736942 
L 346.815528 265.980272 
L 347.140508 265.869508 
L 347.465487 265.913781 
L 347.790467 265.803177 
L 349.740344 266.426015 
L 350.390303 266.49325 
L 351.040262 266.876119 
L 352.015201 267.399243 
L 352.34018 267.467917 
L 352.66516 267.674557 
L 353.315119 267.628557 
L 354.290057 268.067428 
L 354.940016 268.11387 
L 356.239934 268.580882 
L 356.564914 268.769022 
L 356.889894 268.745463 
L 357.214873 268.839774 
L 357.539853 267.216611 
L 357.864832 267.193833 
L 358.514791 267.353517 
L 358.839771 267.330671 
L 359.48973 267.513757 
L 360.139689 267.490831 
L 361.439607 267.720603 
L 361.764586 269.841895 
L 362.414545 269.841895 
L 362.739525 269.55334 
L 363.714464 269.938483 
L 364.039443 270.059505 
L 364.364423 269.314252 
L 365.339361 269.409738 
L 365.664341 269.577317 
L 365.98932 269.505423 
L 367.939197 270.083747 
L 368.264177 270.302507 
L 368.589156 270.302507 
L 369.889075 270.841675 
L 370.214054 270.792398 
L 370.864013 271.064078 
L 371.838952 271.064078 
L 372.488911 271.237805 
L 374.113808 271.212947 
L 374.763767 271.587239 
L 375.088747 271.537157 
L 376.063686 272.116419 
L 377.038624 272.268738 
L 377.688583 272.421563 
L 378.338542 272.805862 
L 378.663522 272.857345 
L 379.63846 273.427497 
L 381.588337 273.662793 
L 381.913317 273.899299 
L 382.563276 273.899299 
L 382.888256 274.163517 
L 383.538215 274.057647 
L 384.838133 274.777041 
L 385.163112 274.723365 
L 385.488092 274.857673 
L 386.138051 274.857673 
L 386.46303 275.12747 
L 386.78801 275.019361 
L 388.737887 275.290111 
L 389.062867 275.344453 
L 390.037805 276.556507 
L 392.312662 277.23134 
L 392.637641 277.458502 
L 392.962621 277.486977 
L 393.61258 277.830051 
L 394.912498 277.916221 
L 395.562457 278.175703 
L 395.887437 277.916221 
L 396.212416 278.031365 
L 396.537396 277.973757 
L 396.862375 277.772694 
L 397.187355 277.973757 
L 397.512334 278.031365 
L 397.837314 278.2915 
L 398.487273 278.436657 
L 398.487273 278.436657 
" clip-path="url(#p570cd40389)" style="fill: none; stroke: #ff7f0e; stroke-width: 1.5; stroke-linecap: square"/>
   </g>
   <g id="line2d_30">
    <path d="M 73.832727 53.568 
L 74.157707 53.681827 
L 74.807666 54.456445 
L 75.457625 55.792356 
L 76.432563 58.446997 
L 80.657297 70.903845 
L 82.607174 75.822467 
L 84.882031 80.871956 
L 88.781785 88.399107 
L 93.981458 97.776654 
L 95.931335 100.849908 
L 99.50611 105.920747 
L 106.655659 115.798246 
L 109.580475 119.630177 
L 110.230434 120.490056 
L 114.780147 126.707802 
L 116.730025 129.116803 
L 119.65484 132.568649 
L 119.97982 133.332642 
L 121.279738 134.781848 
L 122.904636 136.419933 
L 125.504472 138.87072 
L 132.329042 144.979034 
L 132.654021 145.625939 
L 133.62896 146.47976 
L 133.953939 146.410472 
L 136.228796 148.523803 
L 136.878755 149.182638 
L 137.528714 149.879478 
L 139.153612 151.55938 
L 140.12855 152.460499 
L 140.778509 153.068029 
L 141.103489 153.255115 
L 144.028305 156.081422 
L 144.353284 156.613366 
L 145.003243 156.846488 
L 157.677445 168.991911 
L 158.652383 169.661995 
L 158.977363 170.29763 
L 159.302342 170.361402 
L 160.60226 171.547448 
L 164.177035 174.069525 
L 165.476953 175.069803 
L 166.126912 175.48973 
L 166.776871 175.935446 
L 168.726749 177.408931 
L 170.351646 178.531783 
L 172.626503 180.202128 
L 173.926421 181.315149 
L 174.90136 181.963975 
L 175.551319 182.434121 
L 175.876298 182.441336 
L 178.151155 184.146607 
L 179.451073 185.019733 
L 182.050909 186.91664 
L 183.350827 187.690582 
L 185.950663 189.467417 
L 186.275643 189.232635 
L 186.925602 189.67806 
L 187.250581 189.606333 
L 188.22552 190.277324 
L 188.5505 190.823852 
L 191.475315 192.346626 
L 191.800295 192.809848 
L 192.450254 193.109141 
L 193.425192 193.419555 
L 194.075152 193.7413 
L 197.649926 194.970666 
L 197.974906 195.198626 
L 198.624865 195.427721 
L 199.274824 195.807275 
L 199.924783 196.12679 
L 200.574742 196.306888 
L 201.224701 196.52688 
L 202.524619 196.960152 
L 204.799476 198.152819 
L 205.774414 198.838181 
L 206.749353 199.43984 
L 207.074333 199.785709 
L 207.724292 199.922677 
L 208.049271 200.028316 
L 209.349189 201.060391 
L 210.974087 202.68967 
L 211.299066 202.93123 
L 211.624046 202.505143 
L 213.573923 204.775741 
L 214.223882 205.24718 
L 214.873841 205.975558 
L 216.173759 207.405734 
L 217.148698 208.9267 
L 218.773595 210.373698 
L 219.423554 210.899802 
L 220.723473 211.984125 
L 221.048452 212.494402 
L 222.023391 213.369424 
L 222.998329 214.412981 
L 223.323309 214.819616 
L 223.648288 215.643832 
L 223.973268 215.680974 
L 224.623227 216.44529 
L 225.923145 217.740295 
L 226.248124 218.279688 
L 227.873022 219.822903 
L 229.822899 221.961676 
L 230.472858 222.501501 
L 231.122817 223.205003 
L 231.447797 223.512346 
L 232.097756 224.27637 
L 232.422735 224.663194 
L 232.747715 224.844227 
L 233.722654 226.020017 
L 234.047633 226.808291 
L 234.372613 227.026505 
L 234.697592 227.494875 
L 235.022572 227.687426 
L 235.347551 227.639213 
L 235.672531 227.83237 
L 235.99751 228.289507 
L 236.32249 228.505058 
L 236.647469 228.978885 
L 237.947387 229.971843 
L 238.922326 231.121654 
L 239.247305 231.18407 
L 240.872203 233.031975 
L 241.197183 233.194809 
L 241.522162 233.818885 
L 242.497101 234.418029 
L 242.82208 234.720553 
L 243.14706 234.66438 
L 244.121998 235.286091 
L 244.771957 235.916321 
L 245.096937 236.147653 
L 245.421916 236.112879 
L 246.396855 237.07296 
L 247.046814 237.776361 
L 248.021753 238.405352 
L 248.346732 238.332335 
L 248.671712 238.64958 
L 248.996691 238.71084 
L 249.64665 239.340399 
L 249.97163 239.390143 
L 250.621589 239.752401 
L 250.946568 240.09226 
L 251.271548 239.890559 
L 253.871384 241.023911 
L 254.196364 241.127166 
L 254.521343 241.477374 
L 255.821261 241.646949 
L 256.146241 241.869648 
L 256.47122 241.673093 
L 256.7962 241.804036 
L 257.121179 242.878641 
L 257.446159 243.026531 
L 257.771138 242.892066 
L 258.421097 243.215444 
L 258.746077 243.527495 
L 259.396036 243.827973 
L 260.045995 244.171825 
L 260.370975 244.075288 
L 260.695954 244.144222 
L 261.020934 244.393247 
L 262.320852 244.58787 
L 262.645831 244.811308 
L 262.970811 244.755347 
L 263.29579 244.867338 
L 263.62077 245.233203 
L 264.595708 245.758926 
L 264.920688 245.873391 
L 265.245667 245.388872 
L 266.220606 245.530849 
L 266.545586 245.973781 
L 267.195545 246.334117 
L 267.520524 246.175221 
L 267.845504 245.431419 
L 268.495463 245.616245 
L 269.470401 245.973781 
L 270.12036 245.816123 
L 270.44534 245.859067 
L 270.770319 246.305186 
L 271.095299 246.479046 
L 271.420278 246.42102 
L 271.745258 246.580768 
L 272.070238 246.609873 
L 273.370156 247.476859 
L 273.695135 247.4472 
L 274.020115 247.565949 
L 274.345094 247.551088 
L 274.670074 247.744649 
L 275.320033 247.80437 
L 275.645012 248.014007 
L 275.969992 248.557502 
L 279.219787 249.52435 
L 279.544767 249.898085 
L 279.869746 249.945016 
L 280.194726 250.133221 
L 280.519705 250.1018 
L 280.844685 251.813711 
L 281.169664 251.537432 
L 281.819623 251.748554 
L 283.119541 252.420822 
L 283.444521 253.069544 
L 283.7695 252.636047 
L 284.09448 252.868961 
L 284.419459 252.902331 
L 284.744439 253.170164 
L 285.069419 253.186956 
L 285.719378 253.405805 
L 286.044357 253.541 
L 286.369337 252.669249 
L 287.019296 253.153379 
L 287.344275 253.103059 
L 287.994234 253.490255 
L 288.319214 253.880738 
L 289.619132 253.931916 
L 289.944111 254.343401 
L 290.269091 254.464114 
L 290.59407 254.741225 
L 290.91905 255.247784 
L 291.569009 255.195122 
L 292.868927 255.759983 
L 293.193907 256.421869 
L 293.518886 256.530105 
L 293.843866 256.783651 
L 294.168845 257.184925 
L 294.818804 257.350096 
L 295.143784 257.497415 
L 295.468763 257.386882 
L 296.118722 257.68223 
L 296.443702 257.960852 
L 296.768681 257.830618 
L 297.093661 257.8492 
L 297.41864 258.18497 
L 297.74362 258.110143 
L 300.018477 259.611008 
L 300.343456 259.707668 
L 300.668436 259.66898 
L 301.318395 260.018351 
L 301.643374 259.823928 
L 301.968354 260.09635 
L 302.293333 260.194036 
L 302.618313 260.409678 
L 303.268272 260.488345 
L 303.593251 260.448995 
L 303.918231 260.804364 
L 304.56819 260.804364 
L 305.218149 261.242465 
L 305.543129 261.907541 
L 306.193088 262.090607 
L 306.518067 262.029504 
L 306.843047 262.335833 
L 307.168026 262.274404 
L 307.493006 262.768151 
L 307.817985 262.996235 
L 308.142965 263.079456 
L 308.467944 263.37192 
L 308.792924 263.434833 
L 309.767862 264.196585 
L 310.742801 264.324779 
L 312.042719 265.101538 
L 312.367699 265.058039 
L 312.692678 265.25411 
L 313.017658 265.275947 
L 313.342637 265.714885 
L 313.992596 265.913781 
L 314.317576 266.291838 
L 314.642555 266.49325 
L 314.967535 264.625296 
L 315.617494 264.906116 
L 315.942473 266.740625 
L 316.267453 266.470827 
L 317.567371 266.763179 
L 317.892351 266.966671 
L 318.54231 266.966671 
L 319.192269 267.193833 
L 320.492187 267.905251 
L 320.817166 268.463683 
L 322.767043 269.028978 
L 323.092023 269.338105 
L 323.417002 269.242768 
L 323.741982 269.505423 
L 324.066962 269.601307 
L 325.36688 270.448928 
L 325.691859 269.986854 
L 326.341818 269.938483 
L 327.641736 270.743174 
L 327.966716 270.866334 
L 328.616675 270.644882 
L 329.591613 271.163271 
L 329.916593 271.237805 
L 330.241572 271.437157 
L 330.566552 271.914108 
L 331.541491 271.964602 
L 331.86647 272.040448 
L 332.19145 272.549306 
L 332.841409 272.754436 
L 333.166388 272.831596 
L 333.491368 272.14177 
L 333.816347 272.243316 
L 334.141327 272.651757 
L 334.791286 272.754436 
L 336.091204 273.349331 
L 336.416183 273.610401 
L 336.741163 273.662793 
L 337.066143 274.243079 
L 337.391122 274.429262 
L 337.716102 274.402618 
L 338.69104 274.723365 
L 339.340999 274.965402 
L 339.665979 274.750195 
L 339.990958 274.750195 
L 340.315938 274.965402 
L 340.640917 274.884581 
L 341.615856 275.235834 
L 341.940835 275.480589 
L 343.890713 275.918951 
L 344.215692 276.195064 
L 344.540672 276.278222 
L 344.865651 276.528603 
L 345.51561 276.808411 
L 346.165569 277.089931 
L 346.815528 277.174724 
L 347.140508 277.061701 
L 347.465487 277.23134 
L 348.440426 277.23134 
L 348.765405 277.572506 
L 349.090385 277.629613 
L 349.415364 277.830051 
L 350.390303 277.887479 
L 351.690221 278.64065 
L 352.34018 278.64065 
L 352.66516 278.786915 
L 352.990139 278.786915 
L 353.315119 278.64065 
L 353.640098 278.99247 
L 354.290057 279.228521 
L 354.940016 279.406357 
L 355.589975 279.614706 
L 356.564914 280.427293 
L 356.889894 280.185027 
L 357.214873 280.336294 
L 357.539853 278.728353 
L 357.864832 278.757624 
L 358.514791 278.99247 
L 358.839771 279.051369 
L 359.16475 279.258113 
L 359.48973 279.228521 
L 359.814709 279.051369 
L 360.464668 279.198948 
L 361.114627 279.080847 
L 361.439607 279.169394 
L 361.764586 281.007843 
L 362.414545 281.285418 
L 362.739525 280.885012 
L 364.039443 281.409325 
L 364.364423 280.854355 
L 364.689402 280.823719 
L 365.014382 280.946386 
L 365.339361 280.885012 
L 365.664341 281.100182 
L 366.3143 280.854355 
L 366.639279 280.946386 
L 366.964259 281.22359 
L 367.289238 281.22359 
L 369.889075 282.41278 
L 370.539034 282.539765 
L 371.188993 282.444493 
L 371.838952 282.41278 
L 372.163931 282.69899 
L 372.488911 282.826769 
L 372.81389 282.826769 
L 373.13887 282.954904 
L 373.463849 282.890792 
L 373.788829 282.603389 
L 374.113808 282.69899 
L 374.763767 283.244518 
L 375.088747 283.180002 
L 375.413726 283.309125 
L 376.063686 283.829276 
L 376.388665 283.861981 
L 376.713645 284.124466 
L 377.038624 283.861981 
L 378.013563 284.157382 
L 378.338542 284.289282 
L 378.663522 284.256272 
L 379.313481 284.554224 
L 380.288419 284.653971 
L 380.613399 284.8207 
L 381.588337 284.8207 
L 381.913317 285.122342 
L 382.238296 284.854118 
L 382.563276 284.8207 
L 382.888256 285.223331 
L 383.213235 285.122342 
L 384.188174 285.392139 
L 384.513153 285.663528 
L 385.163112 285.765713 
L 386.78801 285.868126 
L 387.112989 285.731626 
L 387.762948 286.073638 
L 388.412907 285.902314 
L 389.062867 286.073638 
L 389.387846 286.383637 
L 389.712826 286.349089 
L 390.037805 286.660957 
L 391.012744 286.939959 
L 391.337723 286.800246 
L 393.61258 287.930011 
L 394.262539 287.716056 
L 394.912498 287.858582 
L 395.562457 288.073203 
L 395.887437 287.787264 
L 397.187355 287.680493 
L 398.162293 287.894283 
L 398.487273 287.965767 
L 398.487273 287.965767 
" clip-path="url(#p570cd40389)" style="fill: none; stroke: #2ca02c; stroke-width: 1.5; stroke-linecap: square"/>
   </g>
   <g id="line2d_31">
    <path d="M 73.832727 53.568 
L 74.157707 53.682266 
L 74.482686 53.99493 
L 75.132645 55.09056 
L 75.782604 56.64627 
L 77.082523 60.581608 
L 79.682359 68.631848 
L 81.307256 73.038336 
L 83.582113 78.633921 
L 84.882031 81.500031 
L 89.106765 89.773004 
L 93.331499 97.386024 
L 95.606355 101.197759 
L 106.980639 117.265283 
L 109.580475 120.658326 
L 110.555414 121.943756 
L 113.15525 125.338443 
L 114.455168 127.16551 
L 116.405045 129.697723 
L 119.65484 133.587657 
L 119.97982 134.323255 
L 122.254676 136.858485 
L 123.879574 138.498629 
L 124.854513 139.605567 
L 125.179492 139.917995 
L 125.504472 140.074291 
L 132.329042 146.448402 
L 132.654021 147.06125 
L 133.62896 147.935576 
L 133.953939 147.881079 
L 135.253857 149.084694 
L 137.203735 151.005926 
L 137.853694 151.733015 
L 138.503653 152.36471 
L 139.478591 153.348945 
L 140.778509 154.533334 
L 141.428468 155.071448 
L 144.028305 157.571935 
L 144.353284 158.066248 
L 145.003243 158.328225 
L 149.552957 162.654247 
L 150.202916 163.123606 
L 151.502834 164.4878 
L 153.127731 166.014705 
L 153.77769 166.622037 
L 154.427649 167.258239 
L 155.727568 168.571006 
L 156.052547 168.78768 
L 156.702506 169.465657 
L 157.027486 169.65653 
L 157.352465 170.004863 
L 157.677445 170.625748 
L 159.952301 172.114653 
L 160.92724 172.978793 
L 162.552138 174.186969 
L 164.177035 175.273112 
L 165.151974 176.079746 
L 167.101851 177.43481 
L 175.551319 183.67725 
L 175.876298 183.74772 
L 177.826175 185.14583 
L 178.476134 185.6537 
L 185.950663 190.906177 
L 186.275643 190.698481 
L 186.600622 191.014725 
L 186.925602 191.175847 
L 187.250581 191.123529 
L 188.22552 191.764139 
L 188.5505 192.29296 
L 188.875479 192.44966 
L 189.200459 192.481064 
L 191.475315 193.879884 
L 191.800295 194.330848 
L 193.100213 194.94225 
L 193.425192 195.00384 
L 193.750172 195.308258 
L 194.725111 195.638732 
L 196.674988 196.336159 
L 197.324947 196.688879 
L 198.624865 197.29777 
L 198.949844 197.51255 
L 199.599803 197.71325 
L 200.249762 198.051396 
L 200.899722 198.198532 
L 201.549681 198.468658 
L 201.87466 198.489109 
L 203.824537 199.398093 
L 206.424373 201.730429 
L 206.749353 201.922888 
L 207.074333 202.404803 
L 208.049271 202.914336 
L 209.02421 203.85286 
L 211.299066 206.277438 
L 211.624046 205.90941 
L 213.248943 207.679695 
L 214.223882 208.79215 
L 215.198821 209.846996 
L 215.5238 210.32737 
L 216.173759 210.879713 
L 216.823718 211.854016 
L 217.148698 212.362844 
L 217.798657 212.83543 
L 218.773595 213.631656 
L 219.423554 214.189416 
L 222.34837 216.71051 
L 223.323309 217.670404 
L 223.648288 218.603218 
L 223.973268 218.889182 
L 224.298247 219.361723 
L 224.623227 219.225069 
L 224.948206 219.498785 
L 225.273186 219.945039 
L 225.598165 220.182091 
L 226.898084 221.639104 
L 227.548043 222.183694 
L 228.522981 223.05646 
L 228.847961 223.33647 
L 229.49792 224.079711 
L 230.147879 224.798902 
L 230.472858 225.06241 
L 231.122817 225.806515 
L 231.772776 226.525211 
L 232.097756 227.466062 
L 232.747715 227.255315 
L 233.722654 228.279734 
L 234.047633 229.078216 
L 234.372613 229.327487 
L 234.697592 229.739237 
L 235.022572 229.921177 
L 235.347551 229.850337 
L 236.972449 231.64439 
L 237.622408 231.960907 
L 237.947387 232.151868 
L 238.922326 233.500314 
L 239.247305 233.587976 
L 239.572285 234.062039 
L 239.897265 234.006664 
L 241.197183 235.240591 
L 241.522162 235.663192 
L 242.82208 236.63727 
L 243.14706 237.061131 
L 244.121998 237.620448 
L 244.771957 238.320177 
L 245.096937 238.551733 
L 245.421916 238.490684 
L 246.071876 238.919737 
L 246.396855 239.067767 
L 247.046814 239.727326 
L 247.371794 239.953495 
L 247.696773 241.178881 
L 248.021753 241.464356 
L 248.346732 241.477374 
L 249.64665 242.080236 
L 249.97163 242.119829 
L 250.296609 242.384656 
L 250.621589 242.371378 
L 250.946568 242.798174 
L 251.271548 242.691103 
L 251.921507 242.905495 
L 252.246486 242.945805 
L 252.571466 243.134386 
L 252.896446 243.134386 
L 253.221425 243.337299 
L 253.546405 242.305047 
L 253.871384 243.650181 
L 254.196364 243.786883 
L 254.521343 244.089066 
L 254.846323 244.089066 
L 255.171302 244.213261 
L 255.496282 244.130427 
L 255.821261 244.240905 
L 256.146241 244.490455 
L 256.47122 244.490455 
L 257.121179 244.783319 
L 257.446159 244.853324 
L 257.771138 244.755347 
L 258.421097 245.049906 
L 258.746077 245.388872 
L 259.396036 245.730355 
L 260.045995 246.204071 
L 260.695954 246.189644 
L 261.345913 246.363066 
L 261.670893 246.406524 
L 261.995872 246.638996 
L 262.320852 246.638996 
L 262.645831 246.94591 
L 262.970811 246.828749 
L 263.29579 246.960576 
L 263.62077 246.887292 
L 263.945749 247.299194 
L 264.595708 247.595684 
L 264.920688 247.729731 
L 265.245667 247.181131 
L 266.220606 247.402748 
L 266.545586 248.375623 
L 266.870565 248.496796 
L 267.195545 248.740104 
L 267.845504 248.511965 
L 268.170483 248.511965 
L 269.145422 249.030714 
L 269.470401 248.618289 
L 270.12036 248.451319 
L 270.44534 248.43617 
L 271.095299 249.000036 
L 271.420278 248.14928 
L 274.020115 249.27687 
L 274.345094 249.323171 
L 274.995053 249.617499 
L 275.645012 249.819973 
L 275.969992 251.214508 
L 276.294971 251.375686 
L 276.94493 251.521232 
L 279.219787 252.835615 
L 279.544767 253.237367 
L 279.869746 253.203753 
L 280.194726 253.405805 
L 280.519705 253.439566 
L 280.844685 253.761544 
L 281.169664 253.388933 
L 281.819623 253.608748 
L 282.469582 253.983151 
L 282.794562 253.966066 
L 283.119541 254.188663 
L 283.444521 254.915271 
L 283.7695 254.412341 
L 284.09448 254.671791 
L 285.069419 254.932712 
L 286.044357 255.459037 
L 286.369337 255.423761 
L 287.019296 255.920108 
L 287.344275 255.866671 
L 287.994234 256.224095 
L 288.319214 256.56624 
L 288.644193 256.475955 
L 289.619132 256.620497 
L 289.944111 257.002093 
L 290.59407 257.350096 
L 290.91905 257.830618 
L 291.569009 257.904992 
L 292.218968 258.334992 
L 292.543948 258.353779 
L 292.868927 258.579825 
L 293.193907 258.485504 
L 293.843866 258.7122 
L 294.168845 259.054353 
L 294.818804 259.207241 
L 295.143784 259.36064 
L 295.468763 259.245543 
L 296.118722 259.649648 
L 296.443702 259.9794 
L 296.768681 259.862747 
L 297.093661 259.882169 
L 297.41864 260.252748 
L 297.74362 260.194036 
L 298.0686 260.508033 
L 298.393579 260.626336 
L 299.043538 261.2825 
L 299.368518 261.262478 
L 300.343456 261.988814 
L 300.668436 261.907541 
L 300.993415 261.968482 
L 301.318395 262.253946 
L 301.643374 262.172204 
L 301.968354 262.500047 
L 302.943292 262.89242 
L 303.593251 262.747472 
L 303.918231 263.037826 
L 304.89317 263.24635 
L 305.218149 263.497833 
L 305.543129 264.153933 
L 305.868108 264.389011 
L 306.193088 264.474792 
L 306.518067 264.410441 
L 306.843047 264.689948 
L 307.168026 264.668387 
L 307.493006 265.210466 
L 307.817985 265.429099 
L 308.142965 265.494892 
L 308.467944 265.847387 
L 308.792924 265.891639 
L 309.117903 266.269513 
L 311.39276 267.307836 
L 311.71774 267.720603 
L 313.017658 268.11387 
L 313.342637 268.463683 
L 313.992596 268.698379 
L 314.317576 269.052684 
L 314.642555 269.218964 
L 314.967535 267.2394 
L 315.617494 267.651551 
L 315.942473 269.697391 
L 316.267453 269.433641 
L 316.592432 269.433641 
L 316.917412 269.649324 
L 317.242391 269.481483 
L 317.892351 269.938483 
L 318.21733 269.841895 
L 318.54231 269.938483 
L 318.867289 269.890164 
L 319.842228 270.302507 
L 320.167207 270.595815 
L 320.492187 270.669435 
L 320.817166 271.237805 
L 321.142146 271.437157 
L 322.117084 271.562192 
L 322.442064 271.762957 
L 322.767043 271.813286 
L 323.092023 272.268738 
L 323.417002 272.243316 
L 324.391941 272.677405 
L 325.36688 273.427497 
L 325.691859 272.883108 
L 326.016839 272.831596 
L 326.666798 273.141537 
L 327.966716 273.978405 
L 328.616675 273.767756 
L 329.266634 274.296198 
L 330.241572 274.669752 
L 330.566552 275.154537 
L 331.86647 275.317274 
L 332.19145 275.836439 
L 332.516429 276.029198 
L 333.166388 276.139709 
L 333.491368 275.344453 
L 333.816347 275.426086 
L 334.141327 275.836439 
L 334.466306 275.808968 
L 336.091204 276.472845 
L 336.416183 276.752313 
L 336.741163 276.780353 
L 337.066143 277.515469 
L 337.391122 277.658194 
L 337.716102 277.572506 
L 338.366061 277.858756 
L 339.340999 278.089046 
L 339.665979 277.94498 
L 339.990958 277.94498 
L 340.315938 278.175703 
L 340.965897 278.204625 
L 341.940835 278.728353 
L 343.890713 279.347002 
L 344.215692 279.674408 
L 344.540672 279.764106 
L 346.165569 280.762507 
L 346.490549 280.854355 
L 347.140508 280.701377 
L 347.790467 280.885012 
L 348.115446 280.793103 
L 348.440426 280.885012 
L 348.765405 281.131003 
L 349.090385 281.161845 
L 349.415364 281.34733 
L 349.740344 281.378317 
L 350.065324 281.533566 
L 350.390303 281.533566 
L 351.690221 282.41278 
L 352.990139 282.635234 
L 353.315119 282.444493 
L 353.640098 282.922837 
L 353.965078 283.115576 
L 355.589975 283.373823 
L 356.564914 284.256272 
L 356.889894 283.993036 
L 357.214873 284.322317 
L 357.539853 282.539765 
L 359.48973 283.019105 
L 359.814709 282.794791 
L 360.139689 282.954904 
L 361.439607 283.147777 
L 361.764586 284.954519 
L 362.089566 284.988035 
L 362.414545 285.189643 
L 362.739525 284.753936 
L 363.389484 285.088728 
L 363.714464 285.324542 
L 364.039443 285.257043 
L 364.364423 284.620698 
L 365.014382 284.653971 
L 365.339361 284.653971 
L 365.664341 284.954519 
L 365.98932 284.988035 
L 366.3143 284.653971 
L 366.639279 284.753936 
L 366.964259 284.988035 
L 367.289238 284.887561 
L 367.614218 284.954519 
L 368.264177 285.358328 
L 368.914136 285.527634 
L 369.239115 285.833963 
L 369.564095 285.902314 
L 369.889075 286.107979 
L 370.539034 286.176739 
L 370.864013 286.039322 
L 371.513972 286.073638 
L 371.838952 285.936528 
L 372.81389 286.487436 
L 373.463849 286.556766 
L 373.788829 286.314568 
L 374.113808 286.280072 
L 374.763767 286.800246 
L 375.413726 286.87005 
L 375.738706 287.326371 
L 376.063686 287.467693 
L 376.388665 287.467693 
L 376.713645 287.858582 
L 377.038624 287.57397 
L 377.363604 287.644958 
L 377.688583 287.538517 
L 378.013563 287.787264 
L 378.663522 287.822909 
L 378.988501 287.858582 
L 379.313481 288.037363 
L 379.96344 288.001551 
L 380.938378 288.324866 
L 381.263358 288.144966 
L 382.563276 288.252822 
L 382.888256 288.650469 
L 383.213235 288.505472 
L 385.163112 288.83236 
L 385.488092 288.759518 
L 385.813071 288.905319 
L 387.112989 288.723139 
L 387.762948 289.124891 
L 388.087928 289.051584 
L 388.737887 289.198315 
L 389.062867 289.419294 
L 389.387846 289.789967 
L 389.712826 289.641339 
L 390.037805 289.901754 
L 391.012744 290.163652 
L 391.337723 290.013813 
L 391.662703 290.351638 
L 392.637641 290.691963 
L 392.962621 290.729932 
L 393.2876 290.882125 
L 393.61258 290.882125 
L 394.262539 290.502583 
L 394.587518 290.351638 
L 395.562457 290.654024 
L 395.887437 290.389328 
L 396.862375 290.163652 
L 398.162293 290.654024 
L 398.487273 290.540397 
L 398.487273 290.540397 
" clip-path="url(#p570cd40389)" style="fill: none; stroke: #d62728; stroke-width: 1.5; stroke-linecap: square"/>
   </g>
   <g id="line2d_32">
    <path d="M 73.832727 53.568 
L 74.157707 53.682266 
L 74.482686 53.99493 
L 75.132645 55.092824 
L 75.782604 56.653532 
L 77.082523 60.608404 
L 79.682359 68.701499 
L 81.307256 73.13242 
L 83.257133 77.966412 
L 84.882031 81.648617 
L 88.781785 89.381983 
L 95.606355 101.432163 
L 106.980639 117.565447 
L 110.555414 122.266416 
L 113.480229 126.229084 
L 116.080066 129.693138 
L 117.379984 131.2493 
L 118.029943 132.159302 
L 119.004881 133.347531 
L 119.65484 134.124681 
L 119.97982 134.838213 
L 121.929697 137.080012 
L 125.179492 140.543487 
L 125.504472 140.699014 
L 128.429287 143.550505 
L 130.054185 145.196871 
L 131.029124 146.018168 
L 132.329042 147.279119 
L 132.654021 147.886186 
L 133.62896 148.785164 
L 133.953939 148.726185 
L 135.253857 149.996949 
L 138.828632 153.674036 
L 140.12855 154.924425 
L 144.028305 158.596 
L 144.353284 159.177592 
L 144.678264 159.177592 
L 145.003243 159.332332 
L 146.628141 160.888727 
L 147.2781 161.529999 
L 151.827813 165.886138 
L 152.152793 166.128445 
L 153.127731 167.139087 
L 155.077609 169.059291 
L 157.352465 171.209887 
L 157.677445 171.916196 
L 159.952301 173.391831 
L 160.60226 174.066518 
L 162.227158 175.341082 
L 163.527076 176.215046 
L 163.852056 176.363388 
L 165.476953 177.700915 
L 165.801933 177.873732 
L 166.126912 178.201581 
L 166.451892 178.336677 
L 169.376708 180.727457 
L 171.326585 182.221781 
L 171.976544 182.738136 
L 172.626503 183.186959 
L 173.601441 184.00455 
L 175.226339 185.249257 
L 177.826175 187.020146 
L 178.476134 187.609773 
L 179.776052 188.498341 
L 184.000786 191.631777 
L 185.950663 193.050036 
L 186.275643 192.922988 
L 186.600622 193.259522 
L 186.925602 193.424135 
L 187.250581 193.369198 
L 188.22552 194.046736 
L 188.5505 194.546262 
L 188.875479 194.748544 
L 189.200459 194.76269 
L 191.475315 196.141366 
L 191.800295 196.571005 
L 194.725111 197.960306 
L 195.700049 198.279912 
L 196.350008 198.663314 
L 196.674988 198.714677 
L 197.974906 199.43462 
L 198.624865 199.701623 
L 199.274824 200.054763 
L 199.599803 200.155403 
L 200.249762 200.538785 
L 201.224701 200.86073 
L 202.849599 201.396914 
L 203.824537 201.922888 
L 205.449435 203.956412 
L 207.399312 205.945479 
L 208.049271 206.356252 
L 209.02421 207.188971 
L 209.349189 207.474072 
L 210.324128 208.740996 
L 211.299066 209.703204 
L 211.624046 209.33273 
L 212.274005 209.90595 
L 216.173759 214.074451 
L 216.498739 214.615849 
L 216.823718 214.907222 
L 217.148698 215.362529 
L 217.798657 215.785131 
L 219.423554 217.199473 
L 219.748534 217.337935 
L 221.373432 218.603218 
L 221.698411 218.722154 
L 222.34837 219.514937 
L 223.323309 220.387432 
L 223.648288 221.301981 
L 224.298247 222.286526 
L 224.623227 222.089633 
L 225.598165 223.248784 
L 227.223063 225.098875 
L 227.548043 225.29995 
L 228.198002 225.927068 
L 228.847961 226.431237 
L 229.17294 226.884074 
L 229.49792 227.093124 
L 230.147879 227.871099 
L 231.447797 229.167798 
L 231.772776 229.688826 
L 232.097756 230.997076 
L 232.747715 230.532892 
L 233.397674 231.100868 
L 233.722654 231.570849 
L 234.047633 232.386347 
L 234.372613 232.568357 
L 235.022572 233.445611 
L 235.347551 233.478425 
L 236.972449 235.297473 
L 237.947387 235.824112 
L 239.247305 237.920751 
L 239.572285 238.674074 
L 239.897265 237.812416 
L 240.222244 238.247296 
L 240.547224 238.441903 
L 240.872203 238.9567 
L 241.847142 239.714793 
L 242.172121 239.903139 
L 242.82208 240.523833 
L 243.14706 241.256562 
L 244.121998 241.948505 
L 244.446978 242.557614 
L 245.096937 243.093911 
L 245.421916 242.905495 
L 246.396855 243.12089 
L 247.046814 243.910264 
L 247.371794 244.171825 
L 247.696773 245.573527 
L 248.021753 245.93073 
L 248.346732 245.744638 
L 248.671712 245.93073 
L 248.996691 245.916388 
L 249.321671 246.247379 
L 249.97163 246.290728 
L 250.946568 247.092782 
L 251.596527 247.136935 
L 253.221425 247.939027 
L 253.546405 246.435519 
L 253.871384 248.059054 
L 255.171302 248.603085 
L 255.496282 248.390752 
L 256.146241 248.648713 
L 256.47122 248.96938 
L 256.7962 249.061411 
L 257.121179 248.831677 
L 257.446159 248.816402 
L 257.771138 248.954059 
L 258.096118 248.846957 
L 259.071057 249.369519 
L 259.396036 249.384978 
L 260.045995 249.866824 
L 261.670893 249.835584 
L 261.995872 250.274881 
L 262.320852 250.306421 
L 262.645831 250.702499 
L 262.970811 250.638897 
L 263.29579 250.750259 
L 263.62077 250.62301 
L 263.945749 251.278912 
L 264.595708 251.602289 
L 264.920688 251.73228 
L 265.245667 251.005817 
L 266.220606 251.021836 
L 266.545586 252.669249 
L 266.870565 252.685858 
L 267.195545 253.019316 
L 267.845504 252.785642 
L 268.170483 252.802294 
L 268.495463 253.086299 
L 268.820442 253.019316 
L 269.145422 253.203753 
L 269.470401 252.305346 
L 270.12036 252.091659 
L 270.44534 252.058872 
L 270.770319 252.173729 
L 271.095299 252.503482 
L 271.420278 251.553638 
L 272.070238 251.537432 
L 272.395217 251.781121 
L 272.720197 251.813711 
L 274.020115 252.486938 
L 274.345094 252.520031 
L 275.645012 253.119826 
L 275.969992 255.565029 
L 276.94493 255.724475 
L 277.26991 256.098681 
L 277.594889 256.277949 
L 277.919869 256.224095 
L 278.244848 256.56624 
L 278.569828 256.620497 
L 278.894808 257.129999 
L 279.219787 256.457919 
L 279.544767 256.801815 
L 280.519705 256.965614 
L 280.844685 256.910949 
L 281.169664 256.620497 
L 282.469582 257.221578 
L 282.794562 257.075139 
L 283.119541 257.368486 
L 283.444521 258.166252 
L 283.7695 257.719282 
L 284.09448 258.054102 
L 284.744439 258.147541 
L 285.069419 258.22243 
L 285.394398 258.485504 
L 285.719378 258.504353 
L 287.019296 259.283877 
L 287.344275 259.207241 
L 287.994234 259.399069 
L 288.319214 259.727024 
L 288.644193 259.630324 
L 289.294152 259.765761 
L 289.619132 259.727024 
L 290.91905 260.685602 
L 291.569009 260.725155 
L 291.893989 260.983083 
L 292.218968 261.44299 
L 292.543948 261.302531 
L 292.868927 261.604041 
L 293.193907 261.242465 
L 293.518886 261.242465 
L 294.818804 261.968482 
L 295.143784 262.029504 
L 295.468763 261.927846 
L 296.768681 262.706142 
L 297.093661 262.726802 
L 297.41864 263.100284 
L 297.74362 262.954681 
L 300.018477 264.389011 
L 300.343456 264.474792 
L 300.668436 264.36759 
L 300.993415 264.453332 
L 301.318395 264.819527 
L 301.643374 264.754692 
L 301.968354 265.123303 
L 303.268272 265.38529 
L 303.593251 265.297795 
L 303.918231 265.604757 
L 305.218149 265.980272 
L 305.543129 266.628017 
L 305.868108 266.876119 
L 306.193088 266.944016 
L 306.518067 266.876119 
L 306.843047 267.102833 
L 307.168026 266.989337 
L 307.493006 267.628557 
L 307.817985 267.928384 
L 308.142965 268.044225 
L 308.467944 268.510527 
L 308.792924 268.580882 
L 309.442883 269.100131 
L 310.742801 269.673351 
L 311.067781 269.962662 
L 311.39276 270.083747 
L 311.71774 270.448928 
L 312.692678 270.571301 
L 313.017658 270.718581 
L 313.342637 271.039314 
L 313.992596 271.362299 
L 314.642555 271.914108 
L 314.967535 270.180846 
L 315.292514 270.473376 
L 315.617494 270.473376 
L 315.942473 272.243316 
L 316.267453 271.939348 
L 316.592432 271.964602 
L 316.917412 272.268738 
L 317.242391 271.964602 
L 317.892351 272.447083 
L 318.21733 272.370565 
L 318.54231 272.549306 
L 319.192269 272.703068 
L 320.492187 273.349331 
L 320.817166 273.899299 
L 321.467125 274.402618 
L 321.792105 274.429262 
L 322.117084 274.616201 
L 322.442064 274.965402 
L 322.767043 274.965402 
L 323.092023 275.371648 
L 323.741982 275.371648 
L 324.391941 275.808968 
L 324.716921 275.974041 
L 325.36688 276.668294 
L 325.691859 276.112056 
L 326.016839 276.250486 
L 326.341818 276.167378 
L 327.316757 276.864577 
L 328.291695 277.118178 
L 328.616675 276.948955 
L 329.266634 277.515469 
L 329.591613 277.715408 
L 329.916593 277.772694 
L 330.241572 277.973757 
L 330.566552 278.465743 
L 331.86647 278.494848 
L 332.19145 279.169394 
L 332.516429 279.287723 
L 333.166388 279.287723 
L 333.491368 278.378539 
L 333.816347 278.320494 
L 334.141327 278.786915 
L 334.791286 278.757624 
L 336.091204 279.436064 
L 336.416183 279.764106 
L 336.741163 279.794044 
L 337.066143 280.427293 
L 337.391122 280.518473 
L 337.716102 280.457667 
L 338.366061 280.823719 
L 339.340999 281.131003 
L 339.665979 281.038602 
L 339.990958 281.069382 
L 340.315938 281.254494 
L 340.965897 281.22359 
L 341.615856 281.471404 
L 341.940835 281.814342 
L 342.915774 282.286144 
L 343.565733 282.349418 
L 343.890713 282.539765 
L 344.215692 282.890792 
L 344.540672 282.954904 
L 344.865651 283.147777 
L 345.190631 283.147777 
L 346.165569 284.058704 
L 346.490549 284.256272 
L 347.140508 283.993036 
L 347.465487 284.223285 
L 348.115446 284.256272 
L 348.440426 284.289282 
L 348.765405 284.554224 
L 349.415364 284.687269 
L 349.740344 284.587449 
L 350.065324 284.787306 
L 350.390303 284.854118 
L 352.015201 286.005032 
L 352.990139 286.039322 
L 353.315119 285.833963 
L 353.965078 286.556766 
L 354.615037 286.522088 
L 355.589975 286.59147 
L 356.239934 287.467693 
L 356.564914 287.787264 
L 356.889894 287.503091 
L 357.214873 287.822909 
L 357.539853 286.039322 
L 358.189812 286.349089 
L 358.514791 286.245602 
L 358.839771 286.522088 
L 359.48973 286.556766 
L 359.814709 286.280072 
L 360.139689 286.522088 
L 360.464668 286.522088 
L 360.789648 286.349089 
L 361.439607 286.349089 
L 361.764586 288.037363 
L 362.089566 288.073203 
L 362.414545 288.252822 
L 362.739525 287.858582 
L 363.714464 288.469294 
L 364.039443 288.541678 
L 364.364423 287.858582 
L 364.689402 287.822909 
L 365.339361 287.930011 
L 365.664341 288.28883 
L 365.98932 288.18089 
L 366.3143 287.716056 
L 366.639279 287.751646 
L 366.964259 287.930011 
L 367.614218 287.894283 
L 368.264177 288.505472 
L 370.539034 289.271857 
L 371.188993 289.235072 
L 371.513972 289.235072 
L 371.838952 289.051584 
L 372.488911 289.789967 
L 372.81389 289.97643 
L 373.463849 289.939077 
L 373.788829 289.530183 
L 374.113808 289.604257 
L 374.763767 290.126146 
L 375.413726 290.201188 
L 375.738706 290.654024 
L 376.063686 290.84403 
L 376.388665 290.882125 
L 376.713645 291.303271 
L 377.038624 291.111363 
L 377.363604 291.18803 
L 377.688583 291.111363 
L 378.338542 291.264826 
L 378.988501 291.149681 
L 379.63846 291.264826 
L 380.288419 291.264826 
L 380.613399 291.611999 
L 380.938378 291.650736 
L 381.263358 291.341749 
L 381.588337 291.418802 
L 381.913317 291.611999 
L 382.563276 291.495983 
L 382.888256 292.000846 
L 383.213235 291.883846 
L 383.538215 292.118144 
L 384.838133 292.353641 
L 385.163112 292.039912 
L 385.488092 292.039912 
L 385.813071 292.15731 
L 386.46303 291.922813 
L 386.78801 291.883846 
L 387.112989 291.650736 
L 387.762948 292.039912 
L 388.412907 292.039912 
L 388.737887 292.15731 
L 389.387846 292.669524 
L 389.712826 292.511311 
L 391.012744 293.187506 
L 391.337723 293.027505 
L 391.987682 293.589961 
L 392.312662 293.833135 
L 392.962621 293.833135 
L 393.61258 293.995968 
L 393.937559 293.670876 
L 394.912498 293.630401 
L 395.562457 293.955205 
L 395.887437 293.670876 
L 396.862375 293.428556 
L 397.187355 293.589961 
L 397.512334 293.589961 
L 398.162293 293.792516 
L 398.487273 293.630401 
L 398.487273 293.630401 
" clip-path="url(#p570cd40389)" style="fill: none; stroke: #9467bd; stroke-width: 1.5; stroke-linecap: square"/>
   </g>
   <g id="line2d_33">
    <path d="M 73.832727 53.568 
L 74.157707 53.682266 
L 74.482686 53.99493 
L 75.132645 55.092824 
L 75.782604 56.655406 
L 77.082523 60.613 
L 79.682359 68.715807 
L 81.307256 73.153875 
L 83.257133 77.991362 
L 84.882031 81.680894 
L 89.106765 90.016672 
L 91.706601 94.773979 
L 96.256314 102.457297 
L 107.630598 118.522801 
L 109.905455 121.473555 
L 112.180311 124.593801 
L 115.755086 129.413181 
L 117.704963 131.753564 
L 118.679902 133.106183 
L 119.65484 134.234613 
L 119.97982 134.949866 
L 121.929697 137.217491 
L 125.179492 140.697558 
L 125.504472 140.853607 
L 128.429287 143.741439 
L 130.379165 145.62756 
L 131.029124 146.206516 
L 132.329042 147.474399 
L 132.654021 148.084066 
L 133.62896 148.993933 
L 133.953939 148.945135 
L 135.903817 150.865872 
L 140.12855 155.187011 
L 144.028305 158.880472 
L 144.353284 159.489785 
L 144.678264 159.485404 
L 145.003243 159.647779 
L 146.628141 161.219617 
L 147.2781 161.877086 
L 149.877936 164.324475 
L 150.527895 164.954139 
L 151.177854 165.655119 
L 152.477772 166.870833 
L 153.452711 167.861299 
L 154.427649 168.731407 
L 155.727568 170.134445 
L 156.052547 170.364177 
L 156.702506 171.057521 
L 157.027486 171.257959 
L 157.352465 171.607276 
L 157.677445 172.322656 
L 159.952301 173.793661 
L 160.60226 174.46521 
L 167.75181 179.873406 
L 168.401769 180.446765 
L 169.051728 180.91205 
L 170.676626 182.053327 
L 171.976544 183.183292 
L 172.626503 183.625393 
L 174.57638 185.36445 
L 174.90136 185.437555 
L 175.551319 185.874753 
L 175.876298 185.948674 
L 184.650745 192.481064 
L 185.300704 192.932051 
L 185.950663 193.405816 
L 186.275643 193.296051 
L 186.925602 193.805921 
L 187.250581 193.718244 
L 188.22552 194.377591 
L 188.5505 194.880743 
L 188.875479 195.103505 
L 189.200459 195.113008 
L 191.475315 196.52688 
L 191.800295 196.984892 
L 194.725111 198.39715 
L 195.700049 198.735238 
L 196.350008 199.106918 
L 196.674988 199.138027 
L 199.274824 200.528093 
L 199.924783 200.855346 
L 200.574742 201.098263 
L 202.19964 201.631763 
L 203.824537 202.427082 
L 204.474496 203.315841 
L 205.124455 204.048655 
L 205.774414 204.852022 
L 206.749353 205.759425 
L 207.074333 206.313797 
L 208.049271 206.942485 
L 209.02421 207.873697 
L 209.674169 208.581505 
L 210.324128 209.44291 
L 211.299066 210.386943 
L 211.624046 210.004374 
L 213.248943 211.560911 
L 214.223882 212.675041 
L 214.873841 213.179005 
L 216.498739 215.266687 
L 216.823718 215.488162 
L 217.148698 215.971715 
L 217.798657 216.392429 
L 219.423554 217.927194 
L 220.073514 218.334764 
L 221.698411 219.385881 
L 222.34837 220.182091 
L 223.323309 221.109247 
L 223.648288 222.021345 
L 224.298247 223.047737 
L 224.623227 222.908395 
L 224.948206 223.240024 
L 225.598165 224.106479 
L 228.198002 226.713737 
L 228.847961 227.198006 
L 229.17294 227.648851 
L 229.49792 227.842049 
L 230.472858 228.889669 
L 231.772776 230.481604 
L 232.097756 232.088127 
L 232.422735 232.226345 
L 232.747715 231.38228 
L 233.397674 232.066899 
L 233.722654 232.546906 
L 234.047633 233.325491 
L 234.372613 233.456546 
L 235.022572 234.317628 
L 235.347551 234.373379 
L 236.972449 236.21728 
L 237.947387 236.825171 
L 238.597346 237.740334 
L 238.922326 239.228673 
L 239.247305 239.228673 
L 239.572285 239.991299 
L 239.897265 238.809027 
L 240.222244 239.303127 
L 240.547224 239.452398 
L 240.872203 239.991299 
L 242.82208 241.490397 
L 243.14706 242.212345 
L 244.121998 242.851803 
L 244.446978 243.432299 
L 245.096937 244.047742 
L 245.421916 243.855387 
L 246.396855 244.116636 
L 247.046814 244.909405 
L 247.371794 245.190839 
L 247.696773 246.551682 
L 248.021753 246.931248 
L 248.346732 246.682716 
L 248.671712 246.901939 
L 248.996691 246.887292 
L 249.321671 247.254885 
L 249.97163 247.328757 
L 250.946568 248.119185 
L 251.596527 248.209529 
L 252.246486 248.451319 
L 252.571466 248.785868 
L 252.896446 248.846957 
L 253.221425 249.04606 
L 253.546405 247.655212 
L 253.871384 249.076768 
L 254.196364 249.169014 
L 254.521343 249.138245 
L 254.846323 249.446869 
L 255.171302 249.493342 
L 255.496282 249.292298 
L 256.146241 249.52435 
L 256.47122 249.866824 
L 256.7962 249.96067 
L 257.121179 249.741993 
L 258.096118 249.695268 
L 260.045995 250.814015 
L 261.670893 250.798068 
L 261.995872 251.214508 
L 262.320852 251.246699 
L 262.645831 251.699748 
L 262.970811 251.667239 
L 263.29579 251.797413 
L 263.62077 251.716011 
L 263.945749 252.371297 
L 264.595708 252.719095 
L 264.920688 252.818951 
L 265.245667 252.157303 
L 266.220606 252.058872 
L 266.545586 253.81259 
L 266.870565 253.863692 
L 267.195545 254.20583 
L 267.520524 254.000242 
L 268.170483 254.000242 
L 268.495463 254.223004 
L 268.820442 254.051553 
L 269.145422 254.240184 
L 269.470401 253.186956 
L 270.12036 252.969143 
L 270.44534 252.919025 
L 270.770319 253.002586 
L 271.095299 253.321509 
L 271.420278 252.453868 
L 272.070238 252.453868 
L 272.395217 252.735723 
L 272.720197 252.768996 
L 274.020115 253.524079 
L 274.670074 253.6257 
L 275.645012 253.966066 
L 275.969992 256.56624 
L 276.94493 256.656703 
L 277.594889 257.129999 
L 277.919869 257.111705 
L 278.894808 257.979487 
L 279.219787 257.294973 
L 279.544767 257.626708 
L 280.519705 257.8492 
L 280.844685 257.793476 
L 281.169664 257.478975 
L 282.469582 258.128838 
L 282.794562 258.035437 
L 283.119541 258.18497 
L 283.444521 259.01621 
L 283.7695 258.560946 
L 284.09448 258.940019 
L 284.419459 258.920991 
L 286.044357 259.495284 
L 287.019296 260.213598 
L 287.344275 260.115871 
L 287.994234 260.272335 
L 288.319214 260.547433 
L 288.644193 260.448995 
L 289.294152 260.606598 
L 289.619132 260.586868 
L 290.91905 261.543581 
L 291.893989 261.826412 
L 292.218968 262.274404 
L 292.543948 262.110993 
L 292.868927 262.417867 
L 293.193907 261.927846 
L 293.518886 261.927846 
L 294.493825 262.685491 
L 295.468763 262.747472 
L 296.768681 263.645169 
L 297.093661 263.750699 
L 297.41864 264.111321 
L 297.74362 263.962487 
L 298.718559 264.517743 
L 299.043538 264.862801 
L 299.368518 264.884453 
L 300.343456 265.38529 
L 300.668436 265.297795 
L 300.993415 265.3634 
L 301.318395 265.803177 
L 301.643374 265.670802 
L 301.968354 266.046858 
L 302.618313 266.202603 
L 303.268272 266.314173 
L 303.593251 266.247199 
L 303.918231 266.538128 
L 304.89317 266.785745 
L 305.218149 267.034702 
L 305.543129 267.720603 
L 305.868108 267.951529 
L 306.518067 267.88213 
L 306.843047 268.11387 
L 307.168026 268.021034 
L 307.493006 268.651344 
L 307.817985 268.981604 
L 308.142965 269.028978 
L 308.467944 269.601307 
L 308.792924 269.649324 
L 309.117903 269.962662 
L 310.092842 270.400069 
L 311.39276 271.088856 
L 311.71774 271.41219 
L 312.367699 271.287562 
L 313.017658 271.587239 
L 313.342637 271.939348 
L 313.992596 272.243316 
L 314.642555 272.754436 
L 314.967535 270.940388 
L 315.292514 271.337373 
L 315.617494 271.362299 
L 315.942473 273.21935 
L 316.267453 272.908886 
L 316.592432 272.960485 
L 316.917412 273.271299 
L 317.242391 272.883108 
L 318.21733 273.401427 
L 318.54231 273.558068 
L 318.867289 273.584227 
L 319.517248 273.794035 
L 319.842228 273.820328 
L 320.167207 274.137027 
L 320.492187 274.243079 
L 320.817166 274.803903 
L 321.467125 275.290111 
L 321.792105 275.317274 
L 322.117084 275.480589 
L 322.442064 275.808968 
L 322.767043 275.836439 
L 323.092023 276.278222 
L 323.741982 276.278222 
L 324.066962 276.612366 
L 324.716921 276.948955 
L 325.36688 277.658194 
L 325.691859 277.033489 
L 326.016839 277.174724 
L 326.341818 277.033489 
L 326.991777 277.458502 
L 327.316757 277.715408 
L 328.291695 278.002552 
L 328.616675 277.858756 
L 329.266634 278.407589 
L 329.591613 278.611452 
L 329.916593 278.669865 
L 330.241572 278.874897 
L 330.566552 279.37667 
L 331.86647 279.436064 
L 332.19145 280.06437 
L 332.516429 280.21524 
L 333.166388 280.21524 
L 333.491368 279.465789 
L 333.816347 279.347002 
L 334.141327 279.913993 
L 335.116265 279.913993 
L 336.741163 280.701377 
L 337.066143 281.409325 
L 338.041081 281.595813 
L 338.69104 281.845645 
L 339.665979 281.939684 
L 339.990958 281.971072 
L 340.315938 282.159856 
L 341.290876 282.159856 
L 341.615856 282.31777 
L 342.265815 282.890792 
L 342.590794 282.954904 
L 342.915774 283.244518 
L 343.565733 283.309125 
L 343.890713 283.471041 
L 344.215692 283.829276 
L 345.190631 284.091573 
L 346.165569 284.988035 
L 346.490549 285.189643 
L 347.140508 284.921028 
L 347.790467 285.257043 
L 348.440426 285.257043 
L 348.765405 285.527634 
L 349.740344 285.493723 
L 350.065324 285.697565 
L 350.390303 285.765713 
L 352.015201 287.009975 
L 352.34018 287.009975 
L 352.66516 287.150326 
L 353.315119 286.835135 
L 353.965078 287.60945 
L 354.615037 287.57397 
L 355.264996 287.644958 
L 355.589975 287.538517 
L 356.239934 288.397023 
L 356.564914 288.795925 
L 356.889894 288.577913 
L 357.214873 288.795925 
L 357.539853 286.939959 
L 358.189812 287.220663 
L 358.514791 287.220663 
L 358.839771 287.503091 
L 359.48973 287.57397 
L 359.814709 287.326371 
L 360.139689 287.538517 
L 361.439607 287.432321 
L 361.764586 289.198315 
L 362.089566 289.271857 
L 362.414545 289.530183 
L 362.739525 289.124891 
L 363.389484 289.530183 
L 363.714464 289.752765 
L 364.039443 289.827199 
L 364.364423 289.088223 
L 364.689402 289.051584 
L 365.014382 289.161589 
L 365.339361 289.051584 
L 365.664341 289.419294 
L 365.98932 289.345516 
L 366.3143 288.83236 
L 367.614218 289.051584 
L 368.589156 289.789967 
L 368.914136 289.752765 
L 370.214054 290.351638 
L 370.539034 290.31398 
L 370.864013 290.163652 
L 371.513972 290.201188 
L 371.838952 290.013813 
L 372.488911 290.767933 
L 372.81389 290.958411 
L 373.463849 290.920252 
L 373.788829 290.616117 
L 374.113808 290.691963 
L 374.763767 291.226412 
L 375.413726 291.341749 
L 375.738706 291.844913 
L 376.063686 292.118144 
L 376.388665 292.15731 
L 376.713645 292.62992 
L 377.038624 292.353641 
L 377.363604 292.471843 
L 377.688583 292.432408 
L 378.013563 292.550813 
L 378.663522 292.511311 
L 378.988501 292.275008 
L 379.96344 292.511311 
L 380.288419 292.550813 
L 380.613399 292.868058 
L 380.938378 292.907868 
L 381.263358 292.59035 
L 381.913317 292.748835 
L 382.238296 292.62992 
L 382.563276 292.62992 
L 382.888256 293.227593 
L 383.213235 293.027505 
L 383.538215 293.227593 
L 384.513153 293.428556 
L 384.838133 293.549556 
L 385.163112 293.187506 
L 385.813071 293.267716 
L 386.46303 293.067453 
L 386.78801 293.067453 
L 387.112989 292.907868 
L 387.762948 293.307873 
L 388.412907 293.307873 
L 389.387846 293.914479 
L 389.712826 293.751934 
L 391.012744 294.446754 
L 391.337723 294.323373 
L 391.662703 294.902001 
L 392.312662 295.319809 
L 392.962621 295.319809 
L 393.61258 295.488 
L 393.937559 295.15223 
L 394.912498 295.11043 
L 395.562457 295.445894 
L 395.887437 295.15223 
L 396.537396 295.11043 
L 396.862375 294.98526 
L 397.187355 295.15223 
L 397.512334 295.15223 
L 397.837314 295.319809 
L 398.487273 295.068669 
L 398.487273 295.068669 
" clip-path="url(#p570cd40389)" style="fill: none; stroke: #8c564b; stroke-width: 1.5; stroke-linecap: square"/>
   </g>
   <g id="patch_3">
    <path d="M 57.6 307.584 
L 57.6 41.472 
" style="fill: none; stroke: #000000; stroke-width: 0.8; stroke-linejoin: miter; stroke-linecap: square"/>
   </g>
   <g id="patch_4">
    <path d="M 414.72 307.584 
L 414.72 41.472 
" style="fill: none; stroke: #000000; stroke-width: 0.8; stroke-linejoin: miter; stroke-linecap: square"/>
   </g>
   <g id="patch_5">
    <path d="M 57.6 307.584 
L 414.72 307.584 
" style="fill: none; stroke: #000000; stroke-width: 0.8; stroke-linejoin: miter; stroke-linecap: square"/>
   </g>
   <g id="patch_6">
    <path d="M 57.6 41.472 
L 414.72 41.472 
" style="fill: none; stroke: #000000; stroke-width: 0.8; stroke-linejoin: miter; stroke-linecap: square"/>
   </g>
   <g id="text_12">
    <!-- Effectiveness of space-filling curve filter by radius -->
    <g transform="translate(86.086875 35.472) scale(0.12 -0.12)">
     <defs>
      <path id="DejaVuSans-45" d="M 628 4666 
L 3578 4666 
L 3578 4134 
L 1259 4134 
L 1259 2753 
L 3481 2753 
L 3481 2222 
L 1259 2222 
L 1259 531 
L 3634 531 
L 3634 0 
L 628 0 
L 628 4666 
z
" transform="scale(0.015625)"/>
      <path id="DejaVuSans-76" d="M 191 3500 
L 800 3500 
L 1894 563 
L 2988 3500 
L 3597 3500 
L 2284 0 
L 1503 0 
L 191 3500 
z
" transform="scale(0.015625)"/>
      <path id="DejaVuSans-2d" d="M 313 2009 
L 1997 2009 
L 1997 1497 
L 313 1497 
L 313 2009 
z
" transform="scale(0.015625)"/>
      <path id="DejaVuSans-79" d="M 2059 -325 
Q 1816 -950 1584 -1140 
Q 1353 -1331 966 -1331 
L 506 -1331 
L 506 -850 
L 844 -850 
Q 1081 -850 1212 -737 
Q 1344 -625 1503 -206 
L 1606 56 
L 191 3500 
L 800 3500 
L 1894 763 
L 2988 3500 
L 3597 3500 
L 2059 -325 
z
" transform="scale(0.015625)"/>
     </defs>
     <use xlink:href="#DejaVuSans-45"/>
     <use xlink:href="#DejaVuSans-66" x="63.183594"/>
     <use xlink:href="#DejaVuSans-66" x="98.388672"/>
     <use xlink:href="#DejaVuSans-65" x="133.59375"/>
     <use xlink:href="#DejaVuSans-63" x="195.117188"/>
     <use xlink:href="#DejaVuSans-74" x="250.097656"/>
     <use xlink:href="#DejaVuSans-69" x="289.306641"/>
     <use xlink:href="#DejaVuSans-76" x="317.089844"/>
     <use xlink:href="#DejaVuSans-65" x="376.269531"/>
     <use xlink:href="#DejaVuSans-6e" x="437.792969"/>
     <use xlink:href="#DejaVuSans-65" x="501.171875"/>
     <use xlink:href="#DejaVuSans-73" x="562.695312"/>
     <use xlink:href="#DejaVuSans-73" x="614.794922"/>
     <use xlink:href="#DejaVuSans-20" x="666.894531"/>
     <use xlink:href="#DejaVuSans-6f" x="698.681641"/>
     <use xlink:href="#DejaVuSans-66" x="759.863281"/>
     <use xlink:href="#DejaVuSans-20" x="795.068359"/>
     <use xlink:href="#DejaVuSans-73" x="826.855469"/>
     <use xlink:href="#DejaVuSans-70" x="878.955078"/>
     <use xlink:href="#DejaVuSans-61" x="942.431641"/>
     <use xlink:href="#DejaVuSans-63" x="1003.710938"/>
     <use xlink:href="#DejaVuSans-65" x="1058.691406"/>
     <use xlink:href="#DejaVuSans-2d" x="1120.214844"/>
     <use xlink:href="#DejaVuSans-66" x="1156.298828"/>
     <use xlink:href="#DejaVuSans-69" x="1191.503906"/>
     <use xlink:href="#DejaVuSans-6c" x="1219.287109"/>
     <use xlink:href="#DejaVuSans-6c" x="1247.070312"/>
     <use xlink:href="#DejaVuSans-69" x="1274.853516"/>
     <use xlink:href="#DejaVuSans-6e" x="1302.636719"/>
     <use xlink:href="#DejaVuSans-67" x="1366.015625"/>
     <use xlink:href="#DejaVuSans-20" x="1429.492188"/>
     <use xlink:href="#DejaVuSans-63" x="1461.279297"/>
     <use xlink:href="#DejaVuSans-75" x="1516.259766"/>
     <use xlink:href="#DejaVuSans-72" x="1579.638672"/>
     <use xlink:href="#DejaVuSans-76" x="1620.751953"/>
     <use xlink:href="#DejaVuSans-65" x="1679.931641"/>
     <use xlink:href="#DejaVuSans-20" x="1741.455078"/>
     <use xlink:href="#DejaVuSans-66" x="1773.242188"/>
     <use xlink:href="#DejaVuSans-69" x="1808.447266"/>
     <use xlink:href="#DejaVuSans-6c" x="1836.230469"/>
     <use xlink:href="#DejaVuSans-74" x="1864.013672"/>
     <use xlink:href="#DejaVuSans-65" x="1903.222656"/>
     <use xlink:href="#DejaVuSans-72" x="1964.746094"/>
     <use xlink:href="#DejaVuSans-20" x="2005.859375"/>
     <use xlink:href="#DejaVuSans-62" x="2037.646484"/>
     <use xlink:href="#DejaVuSans-79" x="2101.123047"/>
     <use xlink:href="#DejaVuSans-20" x="2160.302734"/>
     <use xlink:href="#DejaVuSans-72" x="2192.089844"/>
     <use xlink:href="#DejaVuSans-61" x="2233.203125"/>
     <use xlink:href="#DejaVuSans-64" x="2294.482422"/>
     <use xlink:href="#DejaVuSans-69" x="2357.958984"/>
     <use xlink:href="#DejaVuSans-75" x="2385.742188"/>
     <use xlink:href="#DejaVuSans-73" x="2449.121094"/>
    </g>
   </g>
   <g id="legend_1">
    <g id="patch_7">
     <path d="M 299.25125 137.54075 
L 407.72 137.54075 
Q 409.72 137.54075 409.72 135.54075 
L 409.72 48.472 
Q 409.72 46.472 407.72 46.472 
L 299.25125 46.472 
Q 297.25125 46.472 297.25125 48.472 
L 297.25125 135.54075 
Q 297.25125 137.54075 299.25125 137.54075 
z
" style="fill: #ffffff; opacity: 0.8; stroke: #cccccc; stroke-linejoin: miter"/>
    </g>
    <g id="line2d_34">
     <path d="M 301.25125 54.570438 
L 311.25125 54.570438 
L 321.25125 54.570438 
" style="fill: none; stroke: #1f77b4; stroke-width: 1.5; stroke-linecap: square"/>
    </g>
    <g id="text_13">
     <!-- 1 permutations -->
     <g transform="translate(329.25125 58.070438) scale(0.1 -0.1)">
      <use xlink:href="#DejaVuSans-31"/>
      <use xlink:href="#DejaVuSans-20" x="63.623047"/>
      <use xlink:href="#DejaVuSans-70" x="95.410156"/>
      <use xlink:href="#DejaVuSans-65" x="158.886719"/>
      <use xlink:href="#DejaVuSans-72" x="220.410156"/>
      <use xlink:href="#DejaVuSans-6d" x="259.773438"/>
      <use xlink:href="#DejaVuSans-75" x="357.185547"/>
      <use xlink:href="#DejaVuSans-74" x="420.564453"/>
      <use xlink:href="#DejaVuSans-61" x="459.773438"/>
      <use xlink:href="#DejaVuSans-74" x="521.052734"/>
      <use xlink:href="#DejaVuSans-69" x="560.261719"/>
      <use xlink:href="#DejaVuSans-6f" x="588.044922"/>
      <use xlink:href="#DejaVuSans-6e" x="649.226562"/>
      <use xlink:href="#DejaVuSans-73" x="712.605469"/>
     </g>
    </g>
    <g id="line2d_35">
     <path d="M 301.25125 69.248563 
L 311.25125 69.248563 
L 321.25125 69.248563 
" style="fill: none; stroke: #ff7f0e; stroke-width: 1.5; stroke-linecap: square"/>
    </g>
    <g id="text_14">
     <!-- 2 permutations -->
     <g transform="translate(329.25125 72.748563) scale(0.1 -0.1)">
      <use xlink:href="#DejaVuSans-32"/>
      <use xlink:href="#DejaVuSans-20" x="63.623047"/>
      <use xlink:href="#DejaVuSans-70" x="95.410156"/>
      <use xlink:href="#DejaVuSans-65" x="158.886719"/>
      <use xlink:href="#DejaVuSans-72" x="220.410156"/>
      <use xlink:href="#DejaVuSans-6d" x="259.773438"/>
      <use xlink:href="#DejaVuSans-75" x="357.185547"/>
      <use xlink:href="#DejaVuSans-74" x="420.564453"/>
      <use xlink:href="#DejaVuSans-61" x="459.773438"/>
      <use xlink:href="#DejaVuSans-74" x="521.052734"/>
      <use xlink:href="#DejaVuSans-69" x="560.261719"/>
      <use xlink:href="#DejaVuSans-6f" x="588.044922"/>
      <use xlink:href="#DejaVuSans-6e" x="649.226562"/>
      <use xlink:href="#DejaVuSans-73" x="712.605469"/>
     </g>
    </g>
    <g id="line2d_36">
     <path d="M 301.25125 83.926688 
L 311.25125 83.926688 
L 321.25125 83.926688 
" style="fill: none; stroke: #2ca02c; stroke-width: 1.5; stroke-linecap: square"/>
    </g>
    <g id="text_15">
     <!-- 3 permutations -->
     <g transform="translate(329.25125 87.426688) scale(0.1 -0.1)">
      <use xlink:href="#DejaVuSans-33"/>
      <use xlink:href="#DejaVuSans-20" x="63.623047"/>
      <use xlink:href="#DejaVuSans-70" x="95.410156"/>
      <use xlink:href="#DejaVuSans-65" x="158.886719"/>
      <use xlink:href="#DejaVuSans-72" x="220.410156"/>
      <use xlink:href="#DejaVuSans-6d" x="259.773438"/>
      <use xlink:href="#DejaVuSans-75" x="357.185547"/>
      <use xlink:href="#DejaVuSans-74" x="420.564453"/>
      <use xlink:href="#DejaVuSans-61" x="459.773438"/>
      <use xlink:href="#DejaVuSans-74" x="521.052734"/>
      <use xlink:href="#DejaVuSans-69" x="560.261719"/>
      <use xlink:href="#DejaVuSans-6f" x="588.044922"/>
      <use xlink:href="#DejaVuSans-6e" x="649.226562"/>
      <use xlink:href="#DejaVuSans-73" x="712.605469"/>
     </g>
    </g>
    <g id="line2d_37">
     <path d="M 301.25125 98.604813 
L 311.25125 98.604813 
L 321.25125 98.604813 
" style="fill: none; stroke: #d62728; stroke-width: 1.5; stroke-linecap: square"/>
    </g>
    <g id="text_16">
     <!-- 4 permutations -->
     <g transform="translate(329.25125 102.104813) scale(0.1 -0.1)">
      <use xlink:href="#DejaVuSans-34"/>
      <use xlink:href="#DejaVuSans-20" x="63.623047"/>
      <use xlink:href="#DejaVuSans-70" x="95.410156"/>
      <use xlink:href="#DejaVuSans-65" x="158.886719"/>
      <use xlink:href="#DejaVuSans-72" x="220.410156"/>
      <use xlink:href="#DejaVuSans-6d" x="259.773438"/>
      <use xlink:href="#DejaVuSans-75" x="357.185547"/>
      <use xlink:href="#DejaVuSans-74" x="420.564453"/>
      <use xlink:href="#DejaVuSans-61" x="459.773438"/>
      <use xlink:href="#DejaVuSans-74" x="521.052734"/>
      <use xlink:href="#DejaVuSans-69" x="560.261719"/>
      <use xlink:href="#DejaVuSans-6f" x="588.044922"/>
      <use xlink:href="#DejaVuSans-6e" x="649.226562"/>
      <use xlink:href="#DejaVuSans-73" x="712.605469"/>
     </g>
    </g>
    <g id="line2d_38">
     <path d="M 301.25125 113.282938 
L 311.25125 113.282938 
L 321.25125 113.282938 
" style="fill: none; stroke: #9467bd; stroke-width: 1.5; stroke-linecap: square"/>
    </g>
    <g id="text_17">
     <!-- 5 permutations -->
     <g transform="translate(329.25125 116.782938) scale(0.1 -0.1)">
      <use xlink:href="#DejaVuSans-35"/>
      <use xlink:href="#DejaVuSans-20" x="63.623047"/>
      <use xlink:href="#DejaVuSans-70" x="95.410156"/>
      <use xlink:href="#DejaVuSans-65" x="158.886719"/>
      <use xlink:href="#DejaVuSans-72" x="220.410156"/>
      <use xlink:href="#DejaVuSans-6d" x="259.773438"/>
      <use xlink:href="#DejaVuSans-75" x="357.185547"/>
      <use xlink:href="#DejaVuSans-74" x="420.564453"/>
      <use xlink:href="#DejaVuSans-61" x="459.773438"/>
      <use xlink:href="#DejaVuSans-74" x="521.052734"/>
      <use xlink:href="#DejaVuSans-69" x="560.261719"/>
      <use xlink:href="#DejaVuSans-6f" x="588.044922"/>
      <use xlink:href="#DejaVuSans-6e" x="649.226562"/>
      <use xlink:href="#DejaVuSans-73" x="712.605469"/>
     </g>
    </g>
    <g id="line2d_39">
     <path d="M 301.25125 127.961063 
L 311.25125 127.961063 
L 321.25125 127.961063 
" style="fill: none; stroke: #8c564b; stroke-width: 1.5; stroke-linecap: square"/>
    </g>
    <g id="text_18">
     <!-- 6 permutations -->
     <g transform="translate(329.25125 131.461063) scale(0.1 -0.1)">
      <use xlink:href="#DejaVuSans-36"/>
      <use xlink:href="#DejaVuSans-20" x="63.623047"/>
      <use xlink:href="#DejaVuSans-70" x="95.410156"/>
      <use xlink:href="#DejaVuSans-65" x="158.886719"/>
      <use xlink:href="#DejaVuSans-72" x="220.410156"/>
      <use xlink:href="#DejaVuSans-6d" x="259.773438"/>
      <use xlink:href="#DejaVuSans-75" x="357.185547"/>
      <use xlink:href="#DejaVuSans-74" x="420.564453"/>
      <use xlink:href="#DejaVuSans-61" x="459.773438"/>
      <use xlink:href="#DejaVuSans-74" x="521.052734"/>
      <use xlink:href="#DejaVuSans-69" x="560.261719"/>
      <use xlink:href="#DejaVuSans-6f" x="588.044922"/>
      <use xlink:href="#DejaVuSans-6e" x="649.226562"/>
      <use xlink:href="#DejaVuSans-73" x="712.605469"/>
     </g>
    </g>
   </g>
  </g>
 </g>
 <defs>
  <clipPath id="p570cd40389">
   <rect x="57.6" y="41.472" width="357.12" height="266.112"/>
  </clipPath>
 </defs>
</svg>
