<?xml version="1.0" encoding="utf-8" standalone="no"?>
<!DOCTYPE svg PUBLIC "-//W3C//DTD SVG 1.1//EN"
  "http://www.w3.org/Graphics/SVG/1.1/DTD/svg11.dtd">
<svg xmlns:xlink="http://www.w3.org/1999/xlink" width="460.8pt" height="345.6pt" viewBox="0 0 460.8 345.6" xmlns="http://www.w3.org/2000/svg" version="1.1">
 <metadata>
  <rdf:RDF xmlns:dc="http://purl.org/dc/elements/1.1/" xmlns:cc="http://creativecommons.org/ns#" xmlns:rdf="http://www.w3.org/1999/02/22-rdf-syntax-ns#">
   <cc:Work>
    <dc:type rdf:resource="http://purl.org/dc/dcmitype/StillImage"/>
    <dc:date>2024-03-13T21:20:00.750958</dc:date>
    <dc:format>image/svg+xml</dc:format>
    <dc:creator>
     <cc:Agent>
      <dc:title>Matplotlib v3.6.3, https://matplotlib.org/</dc:title>
     </cc:Agent>
    </dc:creator>
   </cc:Work>
  </rdf:RDF>
 </metadata>
 <defs>
  <style type="text/css">*{stroke-linejoin: round; stroke-linecap: butt}</style>
 </defs>
 <g id="figure_1">
  <g id="patch_1">
  </g>
  <g id="axes_1">
   <g id="patch_2">
    <path d="M 57.6 307.584 
L 414.72 307.584 
L 414.72 41.472 
L 57.6 41.472 
z
" style="fill: #ffffff"/>
   </g>
   <g id="matplotlib.axis_1">
    <g id="xtick_1">
     <g id="line2d_1">
      <defs>
       <path id="m2f00afdf63" d="M 0 0 
L 0 3.5 
" style="stroke: #000000; stroke-width: 0.8"/>
      </defs>
      <g>
       <use xlink:href="#m2f00afdf63" x="71.769567" y="307.584" style="stroke: #000000; stroke-width: 0.8"/>
      </g>
     </g>
     <g id="text_1">
      <!-- 0 -->
      <g transform="translate(68.588317 322.182437) scale(0.1 -0.1)">
       <defs>
        <path id="DejaVuSans-30" d="M 2034 4250 
Q 1547 4250 1301 3770 
Q 1056 3291 1056 2328 
Q 1056 1369 1301 889 
Q 1547 409 2034 409 
Q 2525 409 2770 889 
Q 3016 1369 3016 2328 
Q 3016 3291 2770 3770 
Q 2525 4250 2034 4250 
z
M 2034 4750 
Q 2819 4750 3233 4129 
Q 3647 3509 3647 2328 
Q 3647 1150 3233 529 
Q 2819 -91 2034 -91 
Q 1250 -91 836 529 
Q 422 1150 422 2328 
Q 422 3509 836 4129 
Q 1250 4750 2034 4750 
z
" transform="scale(0.015625)"/>
       </defs>
       <use xlink:href="#DejaVuSans-30"/>
      </g>
     </g>
    </g>
    <g id="xtick_2">
     <g id="line2d_2">
      <g>
       <use xlink:href="#m2f00afdf63" x="124.134048" y="307.584" style="stroke: #000000; stroke-width: 0.8"/>
      </g>
     </g>
     <g id="text_2">
      <!-- 10000 -->
      <g transform="translate(108.227798 322.182437) scale(0.1 -0.1)">
       <defs>
        <path id="DejaVuSans-31" d="M 794 531 
L 1825 531 
L 1825 4091 
L 703 3866 
L 703 4441 
L 1819 4666 
L 2450 4666 
L 2450 531 
L 3481 531 
L 3481 0 
L 794 0 
L 794 531 
z
" transform="scale(0.015625)"/>
       </defs>
       <use xlink:href="#DejaVuSans-31"/>
       <use xlink:href="#DejaVuSans-30" x="63.623047"/>
       <use xlink:href="#DejaVuSans-30" x="127.246094"/>
       <use xlink:href="#DejaVuSans-30" x="190.869141"/>
       <use xlink:href="#DejaVuSans-30" x="254.492188"/>
      </g>
     </g>
    </g>
    <g id="xtick_3">
     <g id="line2d_3">
      <g>
       <use xlink:href="#m2f00afdf63" x="176.498529" y="307.584" style="stroke: #000000; stroke-width: 0.8"/>
      </g>
     </g>
     <g id="text_3">
      <!-- 20000 -->
      <g transform="translate(160.592279 322.182437) scale(0.1 -0.1)">
       <defs>
        <path id="DejaVuSans-32" d="M 1228 531 
L 3431 531 
L 3431 0 
L 469 0 
L 469 531 
Q 828 903 1448 1529 
Q 2069 2156 2228 2338 
Q 2531 2678 2651 2914 
Q 2772 3150 2772 3378 
Q 2772 3750 2511 3984 
Q 2250 4219 1831 4219 
Q 1534 4219 1204 4116 
Q 875 4013 500 3803 
L 500 4441 
Q 881 4594 1212 4672 
Q 1544 4750 1819 4750 
Q 2544 4750 2975 4387 
Q 3406 4025 3406 3419 
Q 3406 3131 3298 2873 
Q 3191 2616 2906 2266 
Q 2828 2175 2409 1742 
Q 1991 1309 1228 531 
z
" transform="scale(0.015625)"/>
       </defs>
       <use xlink:href="#DejaVuSans-32"/>
       <use xlink:href="#DejaVuSans-30" x="63.623047"/>
       <use xlink:href="#DejaVuSans-30" x="127.246094"/>
       <use xlink:href="#DejaVuSans-30" x="190.869141"/>
       <use xlink:href="#DejaVuSans-30" x="254.492188"/>
      </g>
     </g>
    </g>
    <g id="xtick_4">
     <g id="line2d_4">
      <g>
       <use xlink:href="#m2f00afdf63" x="228.86301" y="307.584" style="stroke: #000000; stroke-width: 0.8"/>
      </g>
     </g>
     <g id="text_4">
      <!-- 30000 -->
      <g transform="translate(212.95676 322.182437) scale(0.1 -0.1)">
       <defs>
        <path id="DejaVuSans-33" d="M 2597 2516 
Q 3050 2419 3304 2112 
Q 3559 1806 3559 1356 
Q 3559 666 3084 287 
Q 2609 -91 1734 -91 
Q 1441 -91 1130 -33 
Q 819 25 488 141 
L 488 750 
Q 750 597 1062 519 
Q 1375 441 1716 441 
Q 2309 441 2620 675 
Q 2931 909 2931 1356 
Q 2931 1769 2642 2001 
Q 2353 2234 1838 2234 
L 1294 2234 
L 1294 2753 
L 1863 2753 
Q 2328 2753 2575 2939 
Q 2822 3125 2822 3475 
Q 2822 3834 2567 4026 
Q 2313 4219 1838 4219 
Q 1578 4219 1281 4162 
Q 984 4106 628 3988 
L 628 4550 
Q 988 4650 1302 4700 
Q 1616 4750 1894 4750 
Q 2613 4750 3031 4423 
Q 3450 4097 3450 3541 
Q 3450 3153 3228 2886 
Q 3006 2619 2597 2516 
z
" transform="scale(0.015625)"/>
       </defs>
       <use xlink:href="#DejaVuSans-33"/>
       <use xlink:href="#DejaVuSans-30" x="63.623047"/>
       <use xlink:href="#DejaVuSans-30" x="127.246094"/>
       <use xlink:href="#DejaVuSans-30" x="190.869141"/>
       <use xlink:href="#DejaVuSans-30" x="254.492188"/>
      </g>
     </g>
    </g>
    <g id="xtick_5">
     <g id="line2d_5">
      <g>
       <use xlink:href="#m2f00afdf63" x="281.227491" y="307.584" style="stroke: #000000; stroke-width: 0.8"/>
      </g>
     </g>
     <g id="text_5">
      <!-- 40000 -->
      <g transform="translate(265.321241 322.182437) scale(0.1 -0.1)">
       <defs>
        <path id="DejaVuSans-34" d="M 2419 4116 
L 825 1625 
L 2419 1625 
L 2419 4116 
z
M 2253 4666 
L 3047 4666 
L 3047 1625 
L 3713 1625 
L 3713 1100 
L 3047 1100 
L 3047 0 
L 2419 0 
L 2419 1100 
L 313 1100 
L 313 1709 
L 2253 4666 
z
" transform="scale(0.015625)"/>
       </defs>
       <use xlink:href="#DejaVuSans-34"/>
       <use xlink:href="#DejaVuSans-30" x="63.623047"/>
       <use xlink:href="#DejaVuSans-30" x="127.246094"/>
       <use xlink:href="#DejaVuSans-30" x="190.869141"/>
       <use xlink:href="#DejaVuSans-30" x="254.492188"/>
      </g>
     </g>
    </g>
    <g id="xtick_6">
     <g id="line2d_6">
      <g>
       <use xlink:href="#m2f00afdf63" x="333.591971" y="307.584" style="stroke: #000000; stroke-width: 0.8"/>
      </g>
     </g>
     <g id="text_6">
      <!-- 50000 -->
      <g transform="translate(317.685721 322.182437) scale(0.1 -0.1)">
       <defs>
        <path id="DejaVuSans-35" d="M 691 4666 
L 3169 4666 
L 3169 4134 
L 1269 4134 
L 1269 2991 
Q 1406 3038 1543 3061 
Q 1681 3084 1819 3084 
Q 2600 3084 3056 2656 
Q 3513 2228 3513 1497 
Q 3513 744 3044 326 
Q 2575 -91 1722 -91 
Q 1428 -91 1123 -41 
Q 819 9 494 109 
L 494 744 
Q 775 591 1075 516 
Q 1375 441 1709 441 
Q 2250 441 2565 725 
Q 2881 1009 2881 1497 
Q 2881 1984 2565 2268 
Q 2250 2553 1709 2553 
Q 1456 2553 1204 2497 
Q 953 2441 691 2322 
L 691 4666 
z
" transform="scale(0.015625)"/>
       </defs>
       <use xlink:href="#DejaVuSans-35"/>
       <use xlink:href="#DejaVuSans-30" x="63.623047"/>
       <use xlink:href="#DejaVuSans-30" x="127.246094"/>
       <use xlink:href="#DejaVuSans-30" x="190.869141"/>
       <use xlink:href="#DejaVuSans-30" x="254.492188"/>
      </g>
     </g>
    </g>
    <g id="xtick_7">
     <g id="line2d_7">
      <g>
       <use xlink:href="#m2f00afdf63" x="385.956452" y="307.584" style="stroke: #000000; stroke-width: 0.8"/>
      </g>
     </g>
     <g id="text_7">
      <!-- 60000 -->
      <g transform="translate(370.050202 322.182437) scale(0.1 -0.1)">
       <defs>
        <path id="DejaVuSans-36" d="M 2113 2584 
Q 1688 2584 1439 2293 
Q 1191 2003 1191 1497 
Q 1191 994 1439 701 
Q 1688 409 2113 409 
Q 2538 409 2786 701 
Q 3034 994 3034 1497 
Q 3034 2003 2786 2293 
Q 2538 2584 2113 2584 
z
M 3366 4563 
L 3366 3988 
Q 3128 4100 2886 4159 
Q 2644 4219 2406 4219 
Q 1781 4219 1451 3797 
Q 1122 3375 1075 2522 
Q 1259 2794 1537 2939 
Q 1816 3084 2150 3084 
Q 2853 3084 3261 2657 
Q 3669 2231 3669 1497 
Q 3669 778 3244 343 
Q 2819 -91 2113 -91 
Q 1303 -91 875 529 
Q 447 1150 447 2328 
Q 447 3434 972 4092 
Q 1497 4750 2381 4750 
Q 2619 4750 2861 4703 
Q 3103 4656 3366 4563 
z
" transform="scale(0.015625)"/>
       </defs>
       <use xlink:href="#DejaVuSans-36"/>
       <use xlink:href="#DejaVuSans-30" x="63.623047"/>
       <use xlink:href="#DejaVuSans-30" x="127.246094"/>
       <use xlink:href="#DejaVuSans-30" x="190.869141"/>
       <use xlink:href="#DejaVuSans-30" x="254.492188"/>
      </g>
     </g>
    </g>
    <g id="text_8">
     <!-- Number of points in cloud -->
     <g transform="translate(171.443594 335.860562) scale(0.1 -0.1)">
      <defs>
       <path id="DejaVuSans-4e" d="M 628 4666 
L 1478 4666 
L 3547 763 
L 3547 4666 
L 4159 4666 
L 4159 0 
L 3309 0 
L 1241 3903 
L 1241 0 
L 628 0 
L 628 4666 
z
" transform="scale(0.015625)"/>
       <path id="DejaVuSans-75" d="M 544 1381 
L 544 3500 
L 1119 3500 
L 1119 1403 
Q 1119 906 1312 657 
Q 1506 409 1894 409 
Q 2359 409 2629 706 
Q 2900 1003 2900 1516 
L 2900 3500 
L 3475 3500 
L 3475 0 
L 2900 0 
L 2900 538 
Q 2691 219 2414 64 
Q 2138 -91 1772 -91 
Q 1169 -91 856 284 
Q 544 659 544 1381 
z
M 1991 3584 
L 1991 3584 
z
" transform="scale(0.015625)"/>
       <path id="DejaVuSans-6d" d="M 3328 2828 
Q 3544 3216 3844 3400 
Q 4144 3584 4550 3584 
Q 5097 3584 5394 3201 
Q 5691 2819 5691 2113 
L 5691 0 
L 5113 0 
L 5113 2094 
Q 5113 2597 4934 2840 
Q 4756 3084 4391 3084 
Q 3944 3084 3684 2787 
Q 3425 2491 3425 1978 
L 3425 0 
L 2847 0 
L 2847 2094 
Q 2847 2600 2669 2842 
Q 2491 3084 2119 3084 
Q 1678 3084 1418 2786 
Q 1159 2488 1159 1978 
L 1159 0 
L 581 0 
L 581 3500 
L 1159 3500 
L 1159 2956 
Q 1356 3278 1631 3431 
Q 1906 3584 2284 3584 
Q 2666 3584 2933 3390 
Q 3200 3197 3328 2828 
z
" transform="scale(0.015625)"/>
       <path id="DejaVuSans-62" d="M 3116 1747 
Q 3116 2381 2855 2742 
Q 2594 3103 2138 3103 
Q 1681 3103 1420 2742 
Q 1159 2381 1159 1747 
Q 1159 1113 1420 752 
Q 1681 391 2138 391 
Q 2594 391 2855 752 
Q 3116 1113 3116 1747 
z
M 1159 2969 
Q 1341 3281 1617 3432 
Q 1894 3584 2278 3584 
Q 2916 3584 3314 3078 
Q 3713 2572 3713 1747 
Q 3713 922 3314 415 
Q 2916 -91 2278 -91 
Q 1894 -91 1617 61 
Q 1341 213 1159 525 
L 1159 0 
L 581 0 
L 581 4863 
L 1159 4863 
L 1159 2969 
z
" transform="scale(0.015625)"/>
       <path id="DejaVuSans-65" d="M 3597 1894 
L 3597 1613 
L 953 1613 
Q 991 1019 1311 708 
Q 1631 397 2203 397 
Q 2534 397 2845 478 
Q 3156 559 3463 722 
L 3463 178 
Q 3153 47 2828 -22 
Q 2503 -91 2169 -91 
Q 1331 -91 842 396 
Q 353 884 353 1716 
Q 353 2575 817 3079 
Q 1281 3584 2069 3584 
Q 2775 3584 3186 3129 
Q 3597 2675 3597 1894 
z
M 3022 2063 
Q 3016 2534 2758 2815 
Q 2500 3097 2075 3097 
Q 1594 3097 1305 2825 
Q 1016 2553 972 2059 
L 3022 2063 
z
" transform="scale(0.015625)"/>
       <path id="DejaVuSans-72" d="M 2631 2963 
Q 2534 3019 2420 3045 
Q 2306 3072 2169 3072 
Q 1681 3072 1420 2755 
Q 1159 2438 1159 1844 
L 1159 0 
L 581 0 
L 581 3500 
L 1159 3500 
L 1159 2956 
Q 1341 3275 1631 3429 
Q 1922 3584 2338 3584 
Q 2397 3584 2469 3576 
Q 2541 3569 2628 3553 
L 2631 2963 
z
" transform="scale(0.015625)"/>
       <path id="DejaVuSans-20" transform="scale(0.015625)"/>
       <path id="DejaVuSans-6f" d="M 1959 3097 
Q 1497 3097 1228 2736 
Q 959 2375 959 1747 
Q 959 1119 1226 758 
Q 1494 397 1959 397 
Q 2419 397 2687 759 
Q 2956 1122 2956 1747 
Q 2956 2369 2687 2733 
Q 2419 3097 1959 3097 
z
M 1959 3584 
Q 2709 3584 3137 3096 
Q 3566 2609 3566 1747 
Q 3566 888 3137 398 
Q 2709 -91 1959 -91 
Q 1206 -91 779 398 
Q 353 888 353 1747 
Q 353 2609 779 3096 
Q 1206 3584 1959 3584 
z
" transform="scale(0.015625)"/>
       <path id="DejaVuSans-66" d="M 2375 4863 
L 2375 4384 
L 1825 4384 
Q 1516 4384 1395 4259 
Q 1275 4134 1275 3809 
L 1275 3500 
L 2222 3500 
L 2222 3053 
L 1275 3053 
L 1275 0 
L 697 0 
L 697 3053 
L 147 3053 
L 147 3500 
L 697 3500 
L 697 3744 
Q 697 4328 969 4595 
Q 1241 4863 1831 4863 
L 2375 4863 
z
" transform="scale(0.015625)"/>
       <path id="DejaVuSans-70" d="M 1159 525 
L 1159 -1331 
L 581 -1331 
L 581 3500 
L 1159 3500 
L 1159 2969 
Q 1341 3281 1617 3432 
Q 1894 3584 2278 3584 
Q 2916 3584 3314 3078 
Q 3713 2572 3713 1747 
Q 3713 922 3314 415 
Q 2916 -91 2278 -91 
Q 1894 -91 1617 61 
Q 1341 213 1159 525 
z
M 3116 1747 
Q 3116 2381 2855 2742 
Q 2594 3103 2138 3103 
Q 1681 3103 1420 2742 
Q 1159 2381 1159 1747 
Q 1159 1113 1420 752 
Q 1681 391 2138 391 
Q 2594 391 2855 752 
Q 3116 1113 3116 1747 
z
" transform="scale(0.015625)"/>
       <path id="DejaVuSans-69" d="M 603 3500 
L 1178 3500 
L 1178 0 
L 603 0 
L 603 3500 
z
M 603 4863 
L 1178 4863 
L 1178 4134 
L 603 4134 
L 603 4863 
z
" transform="scale(0.015625)"/>
       <path id="DejaVuSans-6e" d="M 3513 2113 
L 3513 0 
L 2938 0 
L 2938 2094 
Q 2938 2591 2744 2837 
Q 2550 3084 2163 3084 
Q 1697 3084 1428 2787 
Q 1159 2491 1159 1978 
L 1159 0 
L 581 0 
L 581 3500 
L 1159 3500 
L 1159 2956 
Q 1366 3272 1645 3428 
Q 1925 3584 2291 3584 
Q 2894 3584 3203 3211 
Q 3513 2838 3513 2113 
z
" transform="scale(0.015625)"/>
       <path id="DejaVuSans-74" d="M 1172 4494 
L 1172 3500 
L 2356 3500 
L 2356 3053 
L 1172 3053 
L 1172 1153 
Q 1172 725 1289 603 
Q 1406 481 1766 481 
L 2356 481 
L 2356 0 
L 1766 0 
Q 1100 0 847 248 
Q 594 497 594 1153 
L 594 3053 
L 172 3053 
L 172 3500 
L 594 3500 
L 594 4494 
L 1172 4494 
z
" transform="scale(0.015625)"/>
       <path id="DejaVuSans-73" d="M 2834 3397 
L 2834 2853 
Q 2591 2978 2328 3040 
Q 2066 3103 1784 3103 
Q 1356 3103 1142 2972 
Q 928 2841 928 2578 
Q 928 2378 1081 2264 
Q 1234 2150 1697 2047 
L 1894 2003 
Q 2506 1872 2764 1633 
Q 3022 1394 3022 966 
Q 3022 478 2636 193 
Q 2250 -91 1575 -91 
Q 1294 -91 989 -36 
Q 684 19 347 128 
L 347 722 
Q 666 556 975 473 
Q 1284 391 1588 391 
Q 1994 391 2212 530 
Q 2431 669 2431 922 
Q 2431 1156 2273 1281 
Q 2116 1406 1581 1522 
L 1381 1569 
Q 847 1681 609 1914 
Q 372 2147 372 2553 
Q 372 3047 722 3315 
Q 1072 3584 1716 3584 
Q 2034 3584 2315 3537 
Q 2597 3491 2834 3397 
z
" transform="scale(0.015625)"/>
       <path id="DejaVuSans-63" d="M 3122 3366 
L 3122 2828 
Q 2878 2963 2633 3030 
Q 2388 3097 2138 3097 
Q 1578 3097 1268 2742 
Q 959 2388 959 1747 
Q 959 1106 1268 751 
Q 1578 397 2138 397 
Q 2388 397 2633 464 
Q 2878 531 3122 666 
L 3122 134 
Q 2881 22 2623 -34 
Q 2366 -91 2075 -91 
Q 1284 -91 818 406 
Q 353 903 353 1747 
Q 353 2603 823 3093 
Q 1294 3584 2113 3584 
Q 2378 3584 2631 3529 
Q 2884 3475 3122 3366 
z
" transform="scale(0.015625)"/>
       <path id="DejaVuSans-6c" d="M 603 4863 
L 1178 4863 
L 1178 0 
L 603 0 
L 603 4863 
z
" transform="scale(0.015625)"/>
       <path id="DejaVuSans-64" d="M 2906 2969 
L 2906 4863 
L 3481 4863 
L 3481 0 
L 2906 0 
L 2906 525 
Q 2725 213 2448 61 
Q 2172 -91 1784 -91 
Q 1150 -91 751 415 
Q 353 922 353 1747 
Q 353 2572 751 3078 
Q 1150 3584 1784 3584 
Q 2172 3584 2448 3432 
Q 2725 3281 2906 2969 
z
M 947 1747 
Q 947 1113 1208 752 
Q 1469 391 1925 391 
Q 2381 391 2643 752 
Q 2906 1113 2906 1747 
Q 2906 2381 2643 2742 
Q 2381 3103 1925 3103 
Q 1469 3103 1208 2742 
Q 947 2381 947 1747 
z
" transform="scale(0.015625)"/>
      </defs>
      <use xlink:href="#DejaVuSans-4e"/>
      <use xlink:href="#DejaVuSans-75" x="74.804688"/>
      <use xlink:href="#DejaVuSans-6d" x="138.183594"/>
      <use xlink:href="#DejaVuSans-62" x="235.595703"/>
      <use xlink:href="#DejaVuSans-65" x="299.072266"/>
      <use xlink:href="#DejaVuSans-72" x="360.595703"/>
      <use xlink:href="#DejaVuSans-20" x="401.708984"/>
      <use xlink:href="#DejaVuSans-6f" x="433.496094"/>
      <use xlink:href="#DejaVuSans-66" x="494.677734"/>
      <use xlink:href="#DejaVuSans-20" x="529.882812"/>
      <use xlink:href="#DejaVuSans-70" x="561.669922"/>
      <use xlink:href="#DejaVuSans-6f" x="625.146484"/>
      <use xlink:href="#DejaVuSans-69" x="686.328125"/>
      <use xlink:href="#DejaVuSans-6e" x="714.111328"/>
      <use xlink:href="#DejaVuSans-74" x="777.490234"/>
      <use xlink:href="#DejaVuSans-73" x="816.699219"/>
      <use xlink:href="#DejaVuSans-20" x="868.798828"/>
      <use xlink:href="#DejaVuSans-69" x="900.585938"/>
      <use xlink:href="#DejaVuSans-6e" x="928.369141"/>
      <use xlink:href="#DejaVuSans-20" x="991.748047"/>
      <use xlink:href="#DejaVuSans-63" x="1023.535156"/>
      <use xlink:href="#DejaVuSans-6c" x="1078.515625"/>
      <use xlink:href="#DejaVuSans-6f" x="1106.298828"/>
      <use xlink:href="#DejaVuSans-75" x="1167.480469"/>
      <use xlink:href="#DejaVuSans-64" x="1230.859375"/>
     </g>
    </g>
   </g>
   <g id="matplotlib.axis_2">
    <g id="ytick_1">
     <g id="line2d_8">
      <defs>
       <path id="m18f53966d3" d="M 0 0 
L -3.5 0 
" style="stroke: #000000; stroke-width: 0.8"/>
      </defs>
      <g>
       <use xlink:href="#m18f53966d3" x="57.6" y="302.419538" style="stroke: #000000; stroke-width: 0.8"/>
      </g>
     </g>
     <g id="text_9">
      <!-- $\mathdefault{10^{1}}$ -->
      <g transform="translate(33 306.218756) scale(0.1 -0.1)">
       <use xlink:href="#DejaVuSans-31" transform="translate(0 0.684375)"/>
       <use xlink:href="#DejaVuSans-30" transform="translate(63.623047 0.684375)"/>
       <use xlink:href="#DejaVuSans-31" transform="translate(128.203125 38.965625) scale(0.7)"/>
      </g>
     </g>
    </g>
    <g id="ytick_2">
     <g id="line2d_9">
      <g>
       <use xlink:href="#m18f53966d3" x="57.6" y="166.791182" style="stroke: #000000; stroke-width: 0.8"/>
      </g>
     </g>
     <g id="text_10">
      <!-- $\mathdefault{10^{2}}$ -->
      <g transform="translate(33 170.590401) scale(0.1 -0.1)">
       <use xlink:href="#DejaVuSans-31" transform="translate(0 0.765625)"/>
       <use xlink:href="#DejaVuSans-30" transform="translate(63.623047 0.765625)"/>
       <use xlink:href="#DejaVuSans-32" transform="translate(128.203125 39.046875) scale(0.7)"/>
      </g>
     </g>
    </g>
    <g id="ytick_3">
     <g id="line2d_10">
      <defs>
       <path id="meb80072b9a" d="M 0 0 
L -2 0 
" style="stroke: #000000; stroke-width: 0.6"/>
      </defs>
      <g>
       <use xlink:href="#meb80072b9a" x="57.6" y="261.591334" style="stroke: #000000; stroke-width: 0.6"/>
      </g>
     </g>
    </g>
    <g id="ytick_4">
     <g id="line2d_11">
      <g>
       <use xlink:href="#meb80072b9a" x="57.6" y="237.708366" style="stroke: #000000; stroke-width: 0.6"/>
      </g>
     </g>
    </g>
    <g id="ytick_5">
     <g id="line2d_12">
      <g>
       <use xlink:href="#meb80072b9a" x="57.6" y="220.763131" style="stroke: #000000; stroke-width: 0.6"/>
      </g>
     </g>
    </g>
    <g id="ytick_6">
     <g id="line2d_13">
      <g>
       <use xlink:href="#meb80072b9a" x="57.6" y="207.619385" style="stroke: #000000; stroke-width: 0.6"/>
      </g>
     </g>
    </g>
    <g id="ytick_7">
     <g id="line2d_14">
      <g>
       <use xlink:href="#meb80072b9a" x="57.6" y="196.880163" style="stroke: #000000; stroke-width: 0.6"/>
      </g>
     </g>
    </g>
    <g id="ytick_8">
     <g id="line2d_15">
      <g>
       <use xlink:href="#meb80072b9a" x="57.6" y="187.80028" style="stroke: #000000; stroke-width: 0.6"/>
      </g>
     </g>
    </g>
    <g id="ytick_9">
     <g id="line2d_16">
      <g>
       <use xlink:href="#meb80072b9a" x="57.6" y="179.934928" style="stroke: #000000; stroke-width: 0.6"/>
      </g>
     </g>
    </g>
    <g id="ytick_10">
     <g id="line2d_17">
      <g>
       <use xlink:href="#meb80072b9a" x="57.6" y="172.997195" style="stroke: #000000; stroke-width: 0.6"/>
      </g>
     </g>
    </g>
    <g id="ytick_11">
     <g id="line2d_18">
      <g>
       <use xlink:href="#meb80072b9a" x="57.6" y="125.962979" style="stroke: #000000; stroke-width: 0.6"/>
      </g>
     </g>
    </g>
    <g id="ytick_12">
     <g id="line2d_19">
      <g>
       <use xlink:href="#meb80072b9a" x="57.6" y="102.080011" style="stroke: #000000; stroke-width: 0.6"/>
      </g>
     </g>
    </g>
    <g id="ytick_13">
     <g id="line2d_20">
      <g>
       <use xlink:href="#meb80072b9a" x="57.6" y="85.134776" style="stroke: #000000; stroke-width: 0.6"/>
      </g>
     </g>
    </g>
    <g id="ytick_14">
     <g id="line2d_21">
      <g>
       <use xlink:href="#meb80072b9a" x="57.6" y="71.99103" style="stroke: #000000; stroke-width: 0.6"/>
      </g>
     </g>
    </g>
    <g id="ytick_15">
     <g id="line2d_22">
      <g>
       <use xlink:href="#meb80072b9a" x="57.6" y="61.251808" style="stroke: #000000; stroke-width: 0.6"/>
      </g>
     </g>
    </g>
    <g id="ytick_16">
     <g id="line2d_23">
      <g>
       <use xlink:href="#meb80072b9a" x="57.6" y="52.171925" style="stroke: #000000; stroke-width: 0.6"/>
      </g>
     </g>
    </g>
    <g id="ytick_17">
     <g id="line2d_24">
      <g>
       <use xlink:href="#meb80072b9a" x="57.6" y="44.306572" style="stroke: #000000; stroke-width: 0.6"/>
      </g>
     </g>
    </g>
    <g id="text_11">
     <!-- Query time (ns) -->
     <g transform="translate(26.920312 213.873312) rotate(-90) scale(0.1 -0.1)">
      <defs>
       <path id="DejaVuSans-51" d="M 2522 4238 
Q 1834 4238 1429 3725 
Q 1025 3213 1025 2328 
Q 1025 1447 1429 934 
Q 1834 422 2522 422 
Q 3209 422 3611 934 
Q 4013 1447 4013 2328 
Q 4013 3213 3611 3725 
Q 3209 4238 2522 4238 
z
M 3406 84 
L 4238 -825 
L 3475 -825 
L 2784 -78 
Q 2681 -84 2626 -87 
Q 2572 -91 2522 -91 
Q 1538 -91 948 567 
Q 359 1225 359 2328 
Q 359 3434 948 4092 
Q 1538 4750 2522 4750 
Q 3503 4750 4090 4092 
Q 4678 3434 4678 2328 
Q 4678 1516 4351 937 
Q 4025 359 3406 84 
z
" transform="scale(0.015625)"/>
       <path id="DejaVuSans-79" d="M 2059 -325 
Q 1816 -950 1584 -1140 
Q 1353 -1331 966 -1331 
L 506 -1331 
L 506 -850 
L 844 -850 
Q 1081 -850 1212 -737 
Q 1344 -625 1503 -206 
L 1606 56 
L 191 3500 
L 800 3500 
L 1894 763 
L 2988 3500 
L 3597 3500 
L 2059 -325 
z
" transform="scale(0.015625)"/>
       <path id="DejaVuSans-28" d="M 1984 4856 
Q 1566 4138 1362 3434 
Q 1159 2731 1159 2009 
Q 1159 1288 1364 580 
Q 1569 -128 1984 -844 
L 1484 -844 
Q 1016 -109 783 600 
Q 550 1309 550 2009 
Q 550 2706 781 3412 
Q 1013 4119 1484 4856 
L 1984 4856 
z
" transform="scale(0.015625)"/>
       <path id="DejaVuSans-29" d="M 513 4856 
L 1013 4856 
Q 1481 4119 1714 3412 
Q 1947 2706 1947 2009 
Q 1947 1309 1714 600 
Q 1481 -109 1013 -844 
L 513 -844 
Q 928 -128 1133 580 
Q 1338 1288 1338 2009 
Q 1338 2731 1133 3434 
Q 928 4138 513 4856 
z
" transform="scale(0.015625)"/>
      </defs>
      <use xlink:href="#DejaVuSans-51"/>
      <use xlink:href="#DejaVuSans-75" x="78.710938"/>
      <use xlink:href="#DejaVuSans-65" x="142.089844"/>
      <use xlink:href="#DejaVuSans-72" x="203.613281"/>
      <use xlink:href="#DejaVuSans-79" x="244.726562"/>
      <use xlink:href="#DejaVuSans-20" x="303.90625"/>
      <use xlink:href="#DejaVuSans-74" x="335.693359"/>
      <use xlink:href="#DejaVuSans-69" x="374.902344"/>
      <use xlink:href="#DejaVuSans-6d" x="402.685547"/>
      <use xlink:href="#DejaVuSans-65" x="500.097656"/>
      <use xlink:href="#DejaVuSans-20" x="561.621094"/>
      <use xlink:href="#DejaVuSans-28" x="593.408203"/>
      <use xlink:href="#DejaVuSans-6e" x="632.421875"/>
      <use xlink:href="#DejaVuSans-73" x="695.800781"/>
      <use xlink:href="#DejaVuSans-29" x="747.900391"/>
     </g>
    </g>
   </g>
   <g id="line2d_25">
    <path d="M 398.487273 55.490883 
L 397.743697 58.252604 
L 396.895393 59.365656 
L 396.094216 57.401849 
L 395.308749 53.568 
L 394.523282 59.616337 
L 393.591194 59.98828 
L 392.669579 60.554842 
L 390.758275 60.939884 
L 389.820951 61.442949 
L 388.862681 60.893488 
L 387.967249 61.999285 
L 383.448194 64.159702 
L 382.33283 61.999228 
L 381.165102 63.623718 
L 380.002611 63.819341 
L 378.703972 63.560184 
L 377.279658 65.487294 
L 375.78727 63.638529 
L 374.404848 65.017166 
L 373.064317 64.888985 
L 371.545747 65.818137 
L 370.147616 65.386468 
L 368.602863 65.671674 
L 367.209968 66.13205 
L 365.460995 66.505773 
L 363.968607 67.708861 
L 362.434328 68.456599 
L 360.559679 69.187151 
L 359.109183 68.562182 
L 357.354973 69.768206 
L 355.653127 70.509595 
L 353.862262 70.537012 
L 352.176126 71.30664 
L 350.432389 72.998916 
L 348.437302 73.809406 
L 346.452688 76.59045 
L 344.431419 78.675931 
L 340.362699 79.200598 
L 338.561361 77.459981 
L 336.435363 79.047863 
L 334.513586 79.26668 
L 332.623229 77.335473 
L 330.455339 79.921287 
L 328.517853 79.395702 
L 326.433747 79.368799 
L 324.464842 79.869572 
L 322.694923 79.264798 
L 320.668418 78.343484 
L 318.814715 77.056948 
L 316.69919 76.369937 
L 314.45799 77.398819 
L 312.609524 77.488898 
L 310.504472 78.330307 
L 308.640296 84.269139 
L 306.739466 78.546093 
L 304.901472 78.961557 
L 302.833075 80.626209 
L 298.999995 82.221038 
L 296.963017 83.3378 
L 295.083132 83.61313 
L 293.135173 84.270808 
L 291.380963 84.535731 
L 287.804469 86.518744 
L 286.10786 88.754367 
L 284.128483 89.4436 
L 282.133396 91.792226 
L 280.410605 91.212942 
L 278.384099 89.864332 
L 276.640362 92.999512 
L 274.938516 94.646716 
L 271.524352 95.263675 
L 269.712541 93.994337 
L 268.146843 95.001444 
L 264.685551 96.306684 
L 262.878976 97.438135 
L 260.9572 97.650488 
L 257.600637 97.2431 
L 256.087303 97.364675 
L 254.55826 95.962562 
L 252.584119 95.042552 
L 250.924165 95.686138 
L 249.091409 95.944714 
L 247.242942 102.358336 
L 245.651062 95.174447 
L 243.828778 95.157066 
L 242.058859 71.822101 
L 240.383195 72.519792 
L 238.503311 73.491841 
L 236.754337 73.915261 
L 232.423794 76.155743 
L 229.030576 77.19737 
L 227.333967 78.604136 
L 225.480264 79.142657 
L 223.610852 79.473794 
L 220.47422 80.263498 
L 215.185407 82.929555 
L 213.237448 82.590337 
L 211.237125 84.216065 
L 209.262984 84.274174 
L 207.550666 85.139978 
L 205.602707 85.521525 
L 203.900862 85.648048 
L 202.151888 84.308931 
L 200.319131 86.039515 
L 198.470665 86.056958 
L 196.637908 86.678833 
L 194.396708 87.707628 
L 192.590134 89.007732 
L 190.924943 89.482223 
L 189.254516 91.208131 
L 187.631217 91.285162 
L 185.908426 91.852589 
L 184.227526 92.924629 
L 180.829071 93.951018 
L 177.194976 96.675579 
L 175.451239 98.709651 
L 173.744157 100.371631 
L 171.775252 101.3423 
L 170.398067 101.819633 
L 168.607201 102.273234 
L 166.999612 101.961161 
L 165.371076 102.48342 
L 161.946439 102.397251 
L 160.32314 102.772276 
L 158.621295 102.321324 
L 156.767592 99.82751 
L 155.290914 100.781312 
L 153.63096 101.441419 
L 151.766784 101.71309 
L 150.263924 102.466886 
L 148.614443 102.239969 
L 146.970198 103.247324 
L 145.446391 102.369872 
L 143.81262 103.543704 
L 142.257395 103.844333 
L 140.555549 104.34862 
L 139.031743 103.642124 
L 137.638847 103.369314 
L 136.225006 103.234464 
L 134.706436 102.938645 
L 133.324014 105.996309 
L 130.580115 109.249216 
L 129.18722 110.497991 
L 127.820507 111.936928 
L 126.54805 111.216551 
L 125.02948 113.937655 
L 123.662767 114.927738 
L 122.453148 115.57157 
L 121.013125 116.73475 
L 119.892525 116.101326 
L 118.57294 115.587305 
L 117.468049 115.327079 
L 116.415523 116.701649 
L 115.315869 117.10196 
L 113.247472 123.315841 
L 112.414877 123.612949 
L 111.226203 124.171958 
L 110.09513 123.735153 
L 108.686526 124.85328 
L 107.660182 124.320494 
L 106.466272 124.871382 
L 105.560366 124.452493 
L 103.685718 125.465449 
L 102.460389 128.491701 
L 101.449755 129.764754 
L 100.643342 131.202538 
L 98.637782 132.68488 
L 97.72664 133.716359 
L 96.647932 133.246999 
L 95.317874 136.040105 
L 94.422441 135.038749 
L 93.33326 136.217315 
L 92.511138 128.388313 
L 91.401011 128.633559 
L 90.468923 129.127606 
L 89.405924 130.781928 
L 89.01319 130.517847 
L 88.14394 129.446702 
L 87.67266 130.690011 
L 87.012867 131.399651 
L 85.808484 134.762734 
L 84.735012 137.017625 
L 84.541264 136.340469 
L 84.14853 138.967064 
L 83.520156 138.103953 
L 82.802763 139.58576 
L 82.420502 148.343423 
L 82.237226 148.652427 
L 81.745 145.361458 
L 81.917803 146.274107 
L 80.959533 147.299277 
L 80.781494 147.046328 
L 80.655819 142.420893 
L 80.446361 143.405092 
L 79.797042 142.31623 
L 79.393835 143.705918 
L 79.084885 147.191162 
L 79.205323 147.236845 
L 78.875427 151.627077 
L 77.932866 155.646912 
L 77.718172 155.611002 
L 77.309729 157.562961 
L 76.948414 166.280966 
L 76.539971 164.026757 
L 76.189129 160.761156 
L 75.901124 160.147623 
L 75.440317 167.014011 
L 75.492681 163.367613 
L 75.188967 165.006395 
L 74.754342 168.954766 
L 74.770051 169.908568 
L 74.487283 170.497426 
L 73.832727 164.820055 
L 73.832727 164.820055 
" clip-path="url(#p0afe04a780)" style="fill: none; stroke: #1f77b4; stroke-width: 1.5; stroke-linecap: square"/>
   </g>
   <g id="line2d_26">
    <path d="M 398.487273 267.650767 
L 397.743697 269.554102 
L 396.895393 268.672328 
L 396.094216 269.622323 
L 395.308749 260.073503 
L 394.523282 271.239397 
L 393.591194 268.859602 
L 392.669579 268.572254 
L 391.7532 268.494667 
L 390.758275 269.725315 
L 389.820951 269.583144 
L 388.862681 269.650842 
L 387.967249 271.217541 
L 386.982796 268.089345 
L 385.925034 270.803155 
L 384.725887 269.421505 
L 383.448194 270.981845 
L 382.33283 268.46898 
L 381.165102 255.877577 
L 380.002611 267.810855 
L 378.703972 269.515617 
L 377.279658 260.62829 
L 375.78727 265.694917 
L 374.404848 268.164044 
L 373.064317 267.607671 
L 371.545747 268.622635 
L 370.147616 266.90528 
L 368.602863 269.717222 
L 367.209968 268.146198 
L 365.460995 267.46568 
L 363.968607 267.809504 
L 362.434328 268.356523 
L 360.559679 268.357705 
L 359.109183 267.830581 
L 357.354973 268.670135 
L 355.653127 267.749916 
L 353.862262 269.151859 
L 352.176126 268.958697 
L 350.432389 267.684906 
L 348.437302 268.427557 
L 346.452688 269.813578 
L 344.431419 268.341072 
L 342.415387 267.95314 
L 340.362699 269.607558 
L 338.561361 268.315088 
L 336.435363 268.348252 
L 332.623229 271.167657 
L 330.455339 269.764589 
L 328.517853 269.676492 
L 326.433747 268.376524 
L 324.464842 269.606537 
L 322.694923 268.378888 
L 320.668418 268.363522 
L 318.814715 269.774272 
L 316.69919 269.571637 
L 314.45799 269.006744 
L 312.609524 269.672124 
L 310.504472 268.069532 
L 308.640296 271.214392 
L 306.739466 269.664781 
L 302.833075 269.629196 
L 300.80657 269.725501 
L 298.999995 268.511799 
L 296.963017 268.805995 
L 295.083132 269.606816 
L 293.135173 268.344707 
L 291.380963 268.104187 
L 289.574389 267.161962 
L 287.804469 267.895301 
L 286.10786 269.408086 
L 284.128483 271.328334 
L 282.133396 269.710618 
L 280.410605 269.804448 
L 278.384099 266.729148 
L 276.640362 268.389164 
L 274.938516 268.49649 
L 273.173833 267.781053 
L 271.524352 269.495318 
L 269.712541 268.174102 
L 268.146843 269.706432 
L 266.355978 269.570987 
L 264.685551 269.656882 
L 262.878976 268.180083 
L 260.9572 271.134678 
L 259.360083 267.432651 
L 257.600637 269.60858 
L 256.087303 267.743529 
L 254.55826 265.222357 
L 252.584119 268.368341 
L 250.924165 269.784981 
L 249.091409 269.61833 
L 247.242942 267.272873 
L 243.828778 268.130078 
L 242.058859 273.050378 
L 240.383195 272.911941 
L 238.503311 271.849558 
L 236.754337 271.640918 
L 234.062803 272.692759 
L 232.423794 274.320127 
L 230.753367 271.321738 
L 229.030576 272.733573 
L 227.333967 271.47239 
L 225.480264 273.073318 
L 223.610852 271.490219 
L 220.47422 270.613387 
L 218.709537 275.24006 
L 217.149075 272.998819 
L 215.185407 271.33627 
L 213.237448 271.470953 
L 211.237125 270.266558 
L 209.262984 272.360839 
L 207.550666 270.558349 
L 205.602707 273.110849 
L 203.900862 272.949566 
L 202.151888 270.503175 
L 200.319131 271.547285 
L 198.470665 273.210852 
L 196.637908 273.183024 
L 194.396708 269.9834 
L 192.590134 273.014853 
L 190.924943 271.499422 
L 189.254516 270.278296 
L 185.908426 272.783626 
L 184.227526 271.334931 
L 182.546626 270.990779 
L 180.829071 272.99459 
L 179.09057 274.557173 
L 177.194976 273.199009 
L 175.451239 270.554009 
L 173.744157 271.373476 
L 171.775252 273.244916 
L 170.398067 271.358361 
L 168.607201 273.150771 
L 166.999612 270.517317 
L 165.371076 272.092439 
L 163.690177 273.258646 
L 161.946439 273.041617 
L 160.32314 270.699965 
L 158.621295 270.605548 
L 156.767592 275.591329 
L 155.290914 275.116875 
L 153.63096 275.114938 
L 151.766784 277.21793 
L 150.263924 277.101825 
L 148.614443 277.209267 
L 146.970198 275.363913 
L 145.446391 275.226269 
L 143.81262 277.233992 
L 142.257395 274.652887 
L 140.555549 277.279665 
L 139.031743 277.185926 
L 137.638847 276.06197 
L 134.706436 274.837171 
L 133.324014 277.766073 
L 131.931119 275.460537 
L 130.580115 277.496035 
L 127.820507 276.821688 
L 126.54805 273.864944 
L 125.02948 277.179484 
L 123.662767 275.792499 
L 122.453148 275.468639 
L 121.013125 275.801884 
L 119.892525 275.295051 
L 118.57294 273.220625 
L 117.468049 276.875655 
L 116.415523 277.15225 
L 115.315869 277.58676 
L 113.247472 277.577193 
L 112.414877 277.761381 
L 111.226203 277.537556 
L 110.09513 277.453588 
L 107.660182 277.71789 
L 106.466272 277.501024 
L 105.560366 276.583522 
L 103.685718 278.485378 
L 102.460389 277.652608 
L 101.449755 277.591439 
L 100.643342 278.012184 
L 99.653653 279.017825 
L 98.637782 278.374399 
L 97.72664 277.607496 
L 96.647932 277.640369 
L 95.317874 280.474698 
L 94.422441 277.478734 
L 93.33326 276.820743 
L 92.511138 284.726498 
L 91.401011 283.254764 
L 90.468923 283.091695 
L 89.01319 283.370061 
L 88.14394 284.593667 
L 87.67266 285.585831 
L 87.012867 283.739615 
L 85.808484 284.633197 
L 85.132982 282.81487 
L 84.735012 283.212755 
L 84.541264 284.55177 
L 84.14853 284.147026 
L 83.520156 283.285441 
L 82.802763 281.696001 
L 82.420502 288.38917 
L 82.237226 287.246513 
L 81.954458 287.66412 
L 81.745 288.503205 
L 81.917803 287.90228 
L 81.03808 286.770431 
L 80.959533 287.038814 
L 80.781494 288.591055 
L 80.655819 288.271148 
L 80.446361 288.22426 
L 79.797042 286.822517 
L 79.393835 290.234051 
L 78.875427 286.613827 
L 77.932866 288.489003 
L 77.718172 290.118328 
L 77.309729 288.233558 
L 76.948414 292.247309 
L 76.189129 294.602279 
L 75.901124 295.006165 
L 75.440317 293.33095 
L 75.492681 292.790353 
L 75.188967 292.971474 
L 74.754342 293.418102 
L 74.770051 291.717063 
L 74.487283 293.87347 
L 73.832727 295.488 
L 73.832727 295.488 
" clip-path="url(#p0afe04a780)" style="fill: none; stroke: #ff7f0e; stroke-width: 1.5; stroke-linecap: square"/>
   </g>
   <g id="line2d_27">
    <path d="M 398.487273 255.839934 
L 397.743697 256.157633 
L 396.895393 256.040037 
L 396.094216 256.141674 
L 395.308749 237.850619 
L 394.523282 255.959119 
L 393.591194 255.818257 
L 392.669579 256.164062 
L 389.820951 256.288274 
L 388.862681 256.470517 
L 387.967249 256.394718 
L 386.982796 256.699395 
L 384.725887 256.773198 
L 383.448194 255.938281 
L 382.33283 256.525589 
L 381.165102 244.129424 
L 380.002611 256.490652 
L 378.703972 258.081277 
L 377.279658 228.936153 
L 375.78727 256.030009 
L 374.404848 256.710881 
L 373.064317 252.926163 
L 371.545747 256.406664 
L 370.147616 257.054479 
L 368.602863 256.880671 
L 367.209968 255.036101 
L 365.460995 255.542219 
L 363.968607 255.651058 
L 362.434328 254.140533 
L 360.559679 254.306644 
L 359.109183 256.954027 
L 357.354973 255.396659 
L 355.653127 255.260118 
L 353.862262 254.357579 
L 352.176126 255.516119 
L 350.432389 255.657432 
L 348.437302 254.720845 
L 346.452688 254.558238 
L 344.431419 254.003236 
L 342.415387 255.196182 
L 340.362699 255.717836 
L 338.561361 255.997796 
L 336.435363 256.069101 
L 334.513586 255.88986 
L 330.455339 256.243042 
L 328.517853 256.307755 
L 324.464842 254.887518 
L 322.694923 256.046159 
L 320.668418 256.038194 
L 318.814715 257.643 
L 316.69919 255.299576 
L 314.45799 257.717464 
L 312.609524 256.554298 
L 310.504472 256.383664 
L 308.640296 256.797022 
L 306.739466 254.161673 
L 304.901472 256.570816 
L 302.833075 258.310305 
L 300.80657 258.444893 
L 298.999995 258.384083 
L 296.963017 256.939798 
L 295.083132 258.596191 
L 291.380963 258.620688 
L 289.574389 258.789746 
L 287.804469 258.666936 
L 286.10786 257.006481 
L 284.128483 258.842236 
L 282.133396 258.627315 
L 280.410605 258.761626 
L 278.384099 254.316813 
L 276.640362 258.822595 
L 274.938516 257.051328 
L 273.173833 258.914438 
L 271.524352 258.732053 
L 269.712541 260.610356 
L 268.146843 259.076266 
L 266.355978 259.212462 
L 264.685551 257.745469 
L 262.878976 260.675184 
L 260.9572 259.37082 
L 259.360083 257.747595 
L 257.600637 259.560286 
L 256.087303 259.319026 
L 254.55826 259.429846 
L 252.584119 259.433048 
L 250.924165 260.6255 
L 249.091409 259.070598 
L 247.242942 259.941213 
L 245.651062 258.886646 
L 243.828778 259.35186 
L 242.058859 260.449668 
L 240.383195 262.87686 
L 238.503311 262.432293 
L 236.754337 262.910247 
L 234.062803 262.945975 
L 232.423794 261.552288 
L 230.753367 262.837533 
L 229.030576 262.97293 
L 227.333967 262.751352 
L 225.480264 262.987201 
L 223.610852 262.581263 
L 217.149075 263.304032 
L 215.185407 262.772844 
L 213.237448 262.637245 
L 211.237125 263.411917 
L 209.262984 263.481747 
L 207.550666 264.880926 
L 205.602707 263.6157 
L 203.900862 263.758028 
L 202.151888 265.187548 
L 200.319131 265.212102 
L 198.470665 263.768454 
L 196.637908 263.850832 
L 194.396708 265.279269 
L 190.924943 262.429251 
L 189.254516 265.452669 
L 187.631217 262.410267 
L 185.908426 262.744823 
L 184.227526 262.644339 
L 182.546626 262.787562 
L 180.829071 237.205242 
L 179.09057 261.226754 
L 177.194976 263.928435 
L 175.451239 263.512967 
L 173.744157 264.327157 
L 171.775252 264.5108 
L 170.398067 264.03198 
L 168.607201 264.583139 
L 165.371076 264.576063 
L 158.621295 264.758432 
L 156.767592 267.710974 
L 155.290914 268.376069 
L 153.63096 268.462241 
L 150.263924 268.059764 
L 148.614443 268.485375 
L 146.970198 268.286846 
L 145.446391 270.262145 
L 143.81262 268.524742 
L 139.031743 268.888304 
L 137.638847 267.57537 
L 136.225006 268.840169 
L 133.324014 269.085377 
L 131.931119 270.613953 
L 130.580115 269.250617 
L 129.18722 269.158862 
L 127.820507 269.202555 
L 126.54805 270.699681 
L 125.02948 269.348154 
L 123.662767 267.830221 
L 122.453148 269.439926 
L 121.013125 269.512836 
L 119.892525 268.065191 
L 118.57294 268.081383 
L 117.468049 269.650377 
L 116.415523 269.604959 
L 115.315869 269.71685 
L 113.247472 271.704193 
L 112.414877 271.204851 
L 111.226203 271.71343 
L 108.686526 271.712852 
L 107.660182 270.321605 
L 106.466272 271.83461 
L 105.560366 271.596532 
L 104.534022 271.881685 
L 103.685718 271.930632 
L 102.460389 273.513075 
L 101.449755 272.008337 
L 100.643342 271.863641 
L 99.653653 272.037551 
L 96.647932 272.108906 
L 95.317874 272.474001 
L 94.422441 271.809737 
L 93.33326 272.185779 
L 92.511138 275.335765 
L 91.401011 275.952772 
L 89.405924 276.050471 
L 89.01319 276.014229 
L 88.14394 274.781389 
L 87.012867 276.061038 
L 85.808484 275.932817 
L 84.735012 276.065182 
L 84.541264 275.716851 
L 84.14853 276.074093 
L 82.802763 276.038146 
L 82.420502 280.482068 
L 81.954458 279.025342 
L 81.745 279.536773 
L 81.917803 280.345982 
L 80.781494 280.580759 
L 80.655819 280.583332 
L 80.446361 279.986757 
L 79.797042 280.024088 
L 79.393835 280.593513 
L 79.084885 280.39458 
L 79.205323 280.656315 
L 78.875427 280.377856 
L 77.932866 280.515468 
L 77.718172 280.305774 
L 77.309729 278.026964 
L 76.948414 284.697581 
L 75.440317 284.707778 
L 75.492681 283.136771 
L 75.188967 281.465601 
L 74.754342 282.012287 
L 74.770051 284.692782 
L 74.487283 284.710898 
L 73.832727 285.798848 
L 73.832727 285.798848 
" clip-path="url(#p0afe04a780)" style="fill: none; stroke: #2ca02c; stroke-width: 1.5; stroke-linecap: square"/>
   </g>
   <g id="line2d_28">
    <path d="M 398.487273 155.605024 
L 397.743697 156.979017 
L 396.895393 157.699136 
L 396.094216 156.692977 
L 395.308749 139.951793 
L 394.523282 156.783434 
L 393.591194 157.278532 
L 391.7532 157.73637 
L 389.820951 159.26267 
L 388.862681 158.525246 
L 387.967249 159.223718 
L 386.982796 158.235288 
L 385.925034 158.558397 
L 384.725887 158.35078 
L 383.448194 158.596841 
L 382.33283 158.420926 
L 381.165102 151.165776 
L 380.002611 158.423176 
L 378.703972 158.305971 
L 377.279658 148.227759 
L 375.78727 158.292346 
L 374.404848 158.573041 
L 373.064317 156.890206 
L 371.545747 158.786212 
L 370.147616 158.919661 
L 368.602863 158.730243 
L 367.209968 156.036565 
L 365.460995 157.730894 
L 363.968607 157.940866 
L 362.434328 158.608307 
L 357.354973 158.576439 
L 355.653127 157.888077 
L 353.862262 158.664655 
L 352.176126 158.726526 
L 350.432389 158.619239 
L 348.437302 158.120191 
L 346.452688 159.194692 
L 344.431419 157.127408 
L 342.415387 159.485657 
L 340.362699 159.173954 
L 338.561361 159.686847 
L 334.513586 159.06521 
L 332.623229 159.386613 
L 330.455339 159.141849 
L 328.517853 158.558383 
L 324.464842 159.234922 
L 322.694923 159.480947 
L 320.668418 159.088897 
L 318.814715 159.280373 
L 316.69919 158.533021 
L 314.45799 158.754261 
L 312.609524 159.169041 
L 310.504472 159.030196 
L 308.640296 158.48637 
L 306.739466 159.263811 
L 304.901472 159.346193 
L 300.80657 159.101497 
L 298.999995 158.951815 
L 296.963017 159.313067 
L 295.083132 159.358021 
L 293.135173 159.168813 
L 291.380963 159.498515 
L 287.804469 159.431165 
L 286.10786 159.073157 
L 284.128483 159.49621 
L 280.410605 159.832737 
L 278.384099 156.7638 
L 276.640362 159.872786 
L 274.938516 159.749658 
L 273.173833 160.092125 
L 271.524352 159.159814 
L 269.712541 158.865237 
L 268.146843 160.129079 
L 266.355978 159.998511 
L 264.685551 159.716189 
L 262.878976 159.898847 
L 260.9572 159.972161 
L 259.360083 159.832463 
L 257.600637 160.373817 
L 256.087303 160.137648 
L 254.55826 159.748579 
L 252.584119 159.774125 
L 250.924165 160.344916 
L 249.091409 159.682624 
L 247.242942 160.067193 
L 245.651062 159.222307 
L 243.828778 158.109085 
L 242.058859 163.555942 
L 236.754337 163.578713 
L 234.062803 162.626059 
L 232.423794 163.521037 
L 230.753367 162.854701 
L 229.030576 163.195922 
L 227.333967 163.917852 
L 225.480264 163.820813 
L 223.610852 162.295801 
L 220.47422 162.310925 
L 218.709537 162.899256 
L 217.149075 164.078089 
L 213.237448 164.141782 
L 211.237125 164.189911 
L 209.262984 164.072424 
L 207.550666 163.700907 
L 205.602707 164.300718 
L 202.151888 164.00641 
L 200.319131 164.754231 
L 192.590134 164.642756 
L 189.254516 162.343557 
L 187.631217 164.255712 
L 185.908426 164.764455 
L 184.227526 163.153016 
L 182.546626 164.732379 
L 180.829071 160.931563 
L 179.09057 164.488474 
L 177.194976 163.380781 
L 175.451239 163.561297 
L 173.744157 162.774518 
L 171.775252 162.916462 
L 170.398067 163.571393 
L 168.607201 162.201861 
L 166.999612 163.612009 
L 165.371076 163.448118 
L 163.690177 164.333275 
L 161.946439 164.512699 
L 160.32314 164.277543 
L 158.621295 163.226745 
L 156.767592 168.7716 
L 155.290914 170.19583 
L 153.63096 169.289341 
L 151.766784 169.86221 
L 150.263924 169.572862 
L 148.614443 169.531809 
L 146.970198 170.050773 
L 145.446391 169.959323 
L 143.81262 170.656376 
L 142.257395 170.691864 
L 140.555549 169.937026 
L 139.031743 170.792351 
L 137.638847 170.822663 
L 136.225006 170.013152 
L 134.706436 170.890786 
L 133.324014 170.848701 
L 131.931119 170.958606 
L 130.580115 170.437617 
L 129.18722 169.47411 
L 127.820507 169.800109 
L 126.54805 170.787547 
L 125.02948 170.172516 
L 123.662767 170.191056 
L 122.453148 170.652569 
L 121.013125 170.28794 
L 119.892525 170.122262 
L 118.57294 171.275877 
L 117.468049 170.245373 
L 116.415523 170.749158 
L 115.315869 169.976942 
L 113.247472 172.465064 
L 112.414877 174.992447 
L 111.226203 174.842421 
L 110.09513 173.5817 
L 108.686526 174.106756 
L 107.660182 169.879474 
L 106.466272 173.950894 
L 105.560366 172.595161 
L 104.534022 174.130561 
L 103.685718 172.464386 
L 102.460389 175.149767 
L 100.643342 175.187509 
L 99.653653 175.193546 
L 98.637782 175.70323 
L 97.72664 174.054279 
L 96.647932 174.727332 
L 95.317874 175.244316 
L 94.422441 174.426087 
L 93.33326 173.676897 
L 92.511138 179.130462 
L 91.401011 178.499029 
L 90.468923 179.974527 
L 89.01319 177.922848 
L 88.14394 179.671526 
L 87.67266 180.052566 
L 87.012867 180.869587 
L 85.808484 179.782031 
L 85.132982 179.515589 
L 84.735012 179.859897 
L 84.541264 179.723361 
L 84.14853 179.612865 
L 83.520156 181.451589 
L 82.802763 179.484037 
L 82.420502 184.011084 
L 81.954458 183.947291 
L 81.745 183.563064 
L 81.917803 184.221747 
L 81.03808 184.328081 
L 80.959533 184.948972 
L 80.781494 185.0236 
L 80.655819 183.416541 
L 80.446361 185.314892 
L 79.797042 184.311844 
L 79.084885 184.438085 
L 79.205323 184.575666 
L 77.932866 184.432181 
L 77.718172 184.009543 
L 77.309729 184.423982 
L 76.948414 189.109925 
L 76.189129 188.077794 
L 75.901124 188.920181 
L 75.440317 188.972424 
L 75.492681 189.306314 
L 75.188967 188.907109 
L 74.754342 189.098042 
L 74.770051 189.093048 
L 74.487283 189.043156 
L 73.832727 193.928628 
L 73.832727 193.928628 
" clip-path="url(#p0afe04a780)" style="fill: none; stroke: #d62728; stroke-width: 1.5; stroke-linecap: square"/>
   </g>
   <g id="line2d_29">
    <path d="M 398.487273 105.640919 
L 397.743697 108.326327 
L 396.895393 108.643172 
L 396.094216 108.670481 
L 395.308749 101.434392 
L 394.523282 108.800907 
L 393.591194 109.18165 
L 392.669579 109.377372 
L 389.820951 109.604904 
L 388.862681 109.679079 
L 387.967249 109.588608 
L 386.982796 110.0076 
L 385.925034 109.250534 
L 384.725887 110.130977 
L 383.448194 110.191662 
L 382.33283 110.850488 
L 381.165102 107.188842 
L 380.002611 109.238734 
L 378.703972 109.17012 
L 377.279658 100.534856 
L 375.78727 110.937896 
L 374.404848 110.794808 
L 373.064317 113.075282 
L 371.545747 110.260652 
L 370.147616 109.488112 
L 368.602863 109.542698 
L 367.209968 109.170242 
L 363.968607 109.893536 
L 362.434328 109.563538 
L 360.559679 110.292504 
L 359.109183 108.916155 
L 357.354973 110.230567 
L 355.653127 109.401341 
L 353.862262 112.15264 
L 352.176126 109.592088 
L 350.432389 110.183088 
L 346.452688 110.175011 
L 344.431419 109.412971 
L 342.415387 110.730045 
L 340.362699 111.338936 
L 338.561361 111.621462 
L 336.435363 111.489285 
L 334.513586 111.674451 
L 332.623229 113.311415 
L 330.455339 112.628313 
L 328.517853 112.844158 
L 326.433747 112.830287 
L 324.464842 112.701099 
L 322.694923 112.382902 
L 320.668418 113.610333 
L 318.814715 113.759573 
L 316.69919 113.318227 
L 314.45799 113.571476 
L 312.609524 114.071666 
L 310.504472 113.377131 
L 308.640296 113.906359 
L 306.739466 113.760429 
L 304.901472 114.091304 
L 302.833075 113.863148 
L 300.80657 114.107754 
L 298.999995 114.132442 
L 295.083132 113.54376 
L 293.135173 111.9743 
L 291.380963 114.509901 
L 289.574389 114.212401 
L 287.804469 114.619497 
L 286.10786 113.913557 
L 284.128483 113.954994 
L 282.133396 114.269828 
L 280.410605 114.365951 
L 278.384099 111.681197 
L 276.640362 113.687765 
L 274.938516 114.3646 
L 273.173833 113.677384 
L 271.524352 114.276492 
L 269.712541 114.504197 
L 268.146843 114.292755 
L 266.355978 114.408967 
L 264.685551 114.09818 
L 260.9572 114.443803 
L 259.360083 114.139714 
L 257.600637 114.484895 
L 256.087303 114.603504 
L 254.55826 114.397619 
L 250.924165 114.588999 
L 249.091409 114.293374 
L 247.242942 114.209627 
L 245.651062 114.527677 
L 243.828778 114.28468 
L 242.058859 118.085503 
L 240.383195 118.400133 
L 238.503311 118.025064 
L 236.754337 118.331483 
L 234.062803 118.041305 
L 230.753367 118.461551 
L 229.030576 118.472839 
L 227.333967 118.791129 
L 225.480264 118.980863 
L 223.610852 118.792478 
L 220.47422 119.254853 
L 218.709537 118.853135 
L 217.149075 119.105724 
L 215.185407 118.941383 
L 213.237448 118.900412 
L 211.237125 119.102882 
L 207.550666 119.268796 
L 205.602707 118.923173 
L 203.900862 119.384014 
L 202.151888 119.513742 
L 200.319131 119.457466 
L 198.470665 119.518078 
L 196.637908 119.39158 
L 194.396708 119.472495 
L 192.590134 119.361683 
L 190.924943 119.370978 
L 189.254516 119.532905 
L 185.908426 119.708431 
L 184.227526 119.788535 
L 182.546626 119.015977 
L 180.829071 116.671549 
L 179.09057 119.751477 
L 175.451239 119.852046 
L 173.744157 119.941599 
L 171.775252 120.218334 
L 170.398067 120.141857 
L 168.607201 119.464439 
L 166.999612 119.244498 
L 165.371076 120.085234 
L 160.32314 120.517818 
L 158.621295 119.521115 
L 156.767592 124.1653 
L 155.290914 123.912964 
L 153.63096 122.706366 
L 151.766784 124.132274 
L 150.263924 124.051371 
L 148.614443 123.036576 
L 146.970198 122.748015 
L 145.446391 124.27719 
L 143.81262 123.974221 
L 142.257395 123.840576 
L 140.555549 125.449228 
L 139.031743 122.958571 
L 137.638847 125.17886 
L 136.225006 124.787734 
L 134.706436 125.604858 
L 133.324014 125.620276 
L 131.931119 123.588714 
L 130.580115 125.387758 
L 127.820507 124.581289 
L 126.54805 124.899978 
L 125.02948 125.11617 
L 123.662767 124.595428 
L 122.453148 125.341586 
L 121.013125 125.664547 
L 119.892525 125.168642 
L 117.468049 124.710281 
L 116.415523 125.588744 
L 115.315869 124.863706 
L 113.247472 130.196062 
L 112.414877 130.798473 
L 111.226203 131.416521 
L 108.686526 130.416219 
L 107.660182 125.98085 
L 106.466272 129.641545 
L 105.560366 129.549899 
L 104.534022 130.779281 
L 103.685718 129.921657 
L 102.460389 129.648774 
L 101.449755 130.107141 
L 100.643342 129.328034 
L 99.653653 130.789632 
L 98.637782 130.19911 
L 97.72664 128.963548 
L 96.647932 129.269882 
L 95.317874 128.954851 
L 94.422441 129.238357 
L 93.33326 129.385264 
L 92.511138 128.978319 
L 91.401011 131.186924 
L 90.468923 130.876155 
L 89.405924 130.892982 
L 89.01319 130.742472 
L 88.14394 131.625012 
L 87.67266 131.779112 
L 87.012867 131.864611 
L 85.808484 130.457171 
L 84.735012 131.013568 
L 84.541264 130.756984 
L 84.14853 130.903468 
L 83.520156 129.878572 
L 82.802763 129.778222 
L 82.420502 142.067653 
L 82.237226 142.239617 
L 81.954458 141.264014 
L 81.745 142.111436 
L 81.917803 141.963455 
L 81.03808 142.53112 
L 80.959533 142.21707 
L 80.781494 142.602825 
L 80.655819 141.820056 
L 80.446361 142.361365 
L 79.393835 142.308336 
L 79.084885 142.106789 
L 79.205323 141.96353 
L 78.875427 141.823408 
L 77.309729 142.010726 
L 76.948414 147.601246 
L 76.539971 147.379036 
L 76.189129 147.324392 
L 75.901124 147.98081 
L 75.440317 146.506087 
L 75.492681 147.790176 
L 75.188967 147.267378 
L 74.754342 147.151901 
L 74.770051 147.786127 
L 74.487283 147.761284 
L 73.832727 151.794594 
L 73.832727 151.794594 
" clip-path="url(#p0afe04a780)" style="fill: none; stroke: #9467bd; stroke-width: 1.5; stroke-linecap: square"/>
   </g>
   <g id="patch_3">
    <path d="M 57.6 307.584 
L 57.6 41.472 
" style="fill: none; stroke: #000000; stroke-width: 0.8; stroke-linejoin: miter; stroke-linecap: square"/>
   </g>
   <g id="patch_4">
    <path d="M 414.72 307.584 
L 414.72 41.472 
" style="fill: none; stroke: #000000; stroke-width: 0.8; stroke-linejoin: miter; stroke-linecap: square"/>
   </g>
   <g id="patch_5">
    <path d="M 57.6 307.584 
L 414.72 307.584 
" style="fill: none; stroke: #000000; stroke-width: 0.8; stroke-linejoin: miter; stroke-linecap: square"/>
   </g>
   <g id="patch_6">
    <path d="M 57.6 41.472 
L 414.72 41.472 
" style="fill: none; stroke: #000000; stroke-width: 0.8; stroke-linejoin: miter; stroke-linecap: square"/>
   </g>
   <g id="text_12">
    <!-- Scaling of CC on mixed queries -->
    <g transform="translate(142.628438 35.472) scale(0.12 -0.12)">
     <defs>
      <path id="DejaVuSans-53" d="M 3425 4513 
L 3425 3897 
Q 3066 4069 2747 4153 
Q 2428 4238 2131 4238 
Q 1616 4238 1336 4038 
Q 1056 3838 1056 3469 
Q 1056 3159 1242 3001 
Q 1428 2844 1947 2747 
L 2328 2669 
Q 3034 2534 3370 2195 
Q 3706 1856 3706 1288 
Q 3706 609 3251 259 
Q 2797 -91 1919 -91 
Q 1588 -91 1214 -16 
Q 841 59 441 206 
L 441 856 
Q 825 641 1194 531 
Q 1563 422 1919 422 
Q 2459 422 2753 634 
Q 3047 847 3047 1241 
Q 3047 1584 2836 1778 
Q 2625 1972 2144 2069 
L 1759 2144 
Q 1053 2284 737 2584 
Q 422 2884 422 3419 
Q 422 4038 858 4394 
Q 1294 4750 2059 4750 
Q 2388 4750 2728 4690 
Q 3069 4631 3425 4513 
z
" transform="scale(0.015625)"/>
      <path id="DejaVuSans-61" d="M 2194 1759 
Q 1497 1759 1228 1600 
Q 959 1441 959 1056 
Q 959 750 1161 570 
Q 1363 391 1709 391 
Q 2188 391 2477 730 
Q 2766 1069 2766 1631 
L 2766 1759 
L 2194 1759 
z
M 3341 1997 
L 3341 0 
L 2766 0 
L 2766 531 
Q 2569 213 2275 61 
Q 1981 -91 1556 -91 
Q 1019 -91 701 211 
Q 384 513 384 1019 
Q 384 1609 779 1909 
Q 1175 2209 1959 2209 
L 2766 2209 
L 2766 2266 
Q 2766 2663 2505 2880 
Q 2244 3097 1772 3097 
Q 1472 3097 1187 3025 
Q 903 2953 641 2809 
L 641 3341 
Q 956 3463 1253 3523 
Q 1550 3584 1831 3584 
Q 2591 3584 2966 3190 
Q 3341 2797 3341 1997 
z
" transform="scale(0.015625)"/>
      <path id="DejaVuSans-67" d="M 2906 1791 
Q 2906 2416 2648 2759 
Q 2391 3103 1925 3103 
Q 1463 3103 1205 2759 
Q 947 2416 947 1791 
Q 947 1169 1205 825 
Q 1463 481 1925 481 
Q 2391 481 2648 825 
Q 2906 1169 2906 1791 
z
M 3481 434 
Q 3481 -459 3084 -895 
Q 2688 -1331 1869 -1331 
Q 1566 -1331 1297 -1286 
Q 1028 -1241 775 -1147 
L 775 -588 
Q 1028 -725 1275 -790 
Q 1522 -856 1778 -856 
Q 2344 -856 2625 -561 
Q 2906 -266 2906 331 
L 2906 616 
Q 2728 306 2450 153 
Q 2172 0 1784 0 
Q 1141 0 747 490 
Q 353 981 353 1791 
Q 353 2603 747 3093 
Q 1141 3584 1784 3584 
Q 2172 3584 2450 3431 
Q 2728 3278 2906 2969 
L 2906 3500 
L 3481 3500 
L 3481 434 
z
" transform="scale(0.015625)"/>
      <path id="DejaVuSans-43" d="M 4122 4306 
L 4122 3641 
Q 3803 3938 3442 4084 
Q 3081 4231 2675 4231 
Q 1875 4231 1450 3742 
Q 1025 3253 1025 2328 
Q 1025 1406 1450 917 
Q 1875 428 2675 428 
Q 3081 428 3442 575 
Q 3803 722 4122 1019 
L 4122 359 
Q 3791 134 3420 21 
Q 3050 -91 2638 -91 
Q 1578 -91 968 557 
Q 359 1206 359 2328 
Q 359 3453 968 4101 
Q 1578 4750 2638 4750 
Q 3056 4750 3426 4639 
Q 3797 4528 4122 4306 
z
" transform="scale(0.015625)"/>
      <path id="DejaVuSans-78" d="M 3513 3500 
L 2247 1797 
L 3578 0 
L 2900 0 
L 1881 1375 
L 863 0 
L 184 0 
L 1544 1831 
L 300 3500 
L 978 3500 
L 1906 2253 
L 2834 3500 
L 3513 3500 
z
" transform="scale(0.015625)"/>
      <path id="DejaVuSans-71" d="M 947 1747 
Q 947 1113 1208 752 
Q 1469 391 1925 391 
Q 2381 391 2643 752 
Q 2906 1113 2906 1747 
Q 2906 2381 2643 2742 
Q 2381 3103 1925 3103 
Q 1469 3103 1208 2742 
Q 947 2381 947 1747 
z
M 2906 525 
Q 2725 213 2448 61 
Q 2172 -91 1784 -91 
Q 1150 -91 751 415 
Q 353 922 353 1747 
Q 353 2572 751 3078 
Q 1150 3584 1784 3584 
Q 2172 3584 2448 3432 
Q 2725 3281 2906 2969 
L 2906 3500 
L 3481 3500 
L 3481 -1331 
L 2906 -1331 
L 2906 525 
z
" transform="scale(0.015625)"/>
     </defs>
     <use xlink:href="#DejaVuSans-53"/>
     <use xlink:href="#DejaVuSans-63" x="63.476562"/>
     <use xlink:href="#DejaVuSans-61" x="118.457031"/>
     <use xlink:href="#DejaVuSans-6c" x="179.736328"/>
     <use xlink:href="#DejaVuSans-69" x="207.519531"/>
     <use xlink:href="#DejaVuSans-6e" x="235.302734"/>
     <use xlink:href="#DejaVuSans-67" x="298.681641"/>
     <use xlink:href="#DejaVuSans-20" x="362.158203"/>
     <use xlink:href="#DejaVuSans-6f" x="393.945312"/>
     <use xlink:href="#DejaVuSans-66" x="455.126953"/>
     <use xlink:href="#DejaVuSans-20" x="490.332031"/>
     <use xlink:href="#DejaVuSans-43" x="522.119141"/>
     <use xlink:href="#DejaVuSans-43" x="591.943359"/>
     <use xlink:href="#DejaVuSans-20" x="661.767578"/>
     <use xlink:href="#DejaVuSans-6f" x="693.554688"/>
     <use xlink:href="#DejaVuSans-6e" x="754.736328"/>
     <use xlink:href="#DejaVuSans-20" x="818.115234"/>
     <use xlink:href="#DejaVuSans-6d" x="849.902344"/>
     <use xlink:href="#DejaVuSans-69" x="947.314453"/>
     <use xlink:href="#DejaVuSans-78" x="975.097656"/>
     <use xlink:href="#DejaVuSans-65" x="1031.152344"/>
     <use xlink:href="#DejaVuSans-64" x="1092.675781"/>
     <use xlink:href="#DejaVuSans-20" x="1156.152344"/>
     <use xlink:href="#DejaVuSans-71" x="1187.939453"/>
     <use xlink:href="#DejaVuSans-75" x="1251.416016"/>
     <use xlink:href="#DejaVuSans-65" x="1314.794922"/>
     <use xlink:href="#DejaVuSans-72" x="1376.318359"/>
     <use xlink:href="#DejaVuSans-69" x="1417.431641"/>
     <use xlink:href="#DejaVuSans-65" x="1445.214844"/>
     <use xlink:href="#DejaVuSans-73" x="1506.738281"/>
    </g>
   </g>
   <g id="legend_1">
    <g id="patch_7">
     <path d="M 64.6 122.862625 
L 195.584375 122.862625 
Q 197.584375 122.862625 197.584375 120.862625 
L 197.584375 48.472 
Q 197.584375 46.472 195.584375 46.472 
L 64.6 46.472 
Q 62.6 46.472 62.6 48.472 
L 62.6 120.862625 
Q 62.6 122.862625 64.6 122.862625 
z
" style="fill: #ffffff; opacity: 0.8; stroke: #cccccc; stroke-linejoin: miter"/>
    </g>
    <g id="line2d_30">
     <path d="M 66.6 54.570438 
L 76.6 54.570438 
L 86.6 54.570438 
" style="fill: none; stroke: #1f77b4; stroke-width: 1.5; stroke-linecap: square"/>
    </g>
    <g id="text_13">
     <!-- kiddo (k-d tree) -->
     <g transform="translate(94.6 58.070438) scale(0.1 -0.1)">
      <defs>
       <path id="DejaVuSans-6b" d="M 581 4863 
L 1159 4863 
L 1159 1991 
L 2875 3500 
L 3609 3500 
L 1753 1863 
L 3688 0 
L 2938 0 
L 1159 1709 
L 1159 0 
L 581 0 
L 581 4863 
z
" transform="scale(0.015625)"/>
       <path id="DejaVuSans-2d" d="M 313 2009 
L 1997 2009 
L 1997 1497 
L 313 1497 
L 313 2009 
z
" transform="scale(0.015625)"/>
      </defs>
      <use xlink:href="#DejaVuSans-6b"/>
      <use xlink:href="#DejaVuSans-69" x="57.910156"/>
      <use xlink:href="#DejaVuSans-64" x="85.693359"/>
      <use xlink:href="#DejaVuSans-64" x="149.169922"/>
      <use xlink:href="#DejaVuSans-6f" x="212.646484"/>
      <use xlink:href="#DejaVuSans-20" x="273.828125"/>
      <use xlink:href="#DejaVuSans-28" x="305.615234"/>
      <use xlink:href="#DejaVuSans-6b" x="344.628906"/>
      <use xlink:href="#DejaVuSans-2d" x="402.539062"/>
      <use xlink:href="#DejaVuSans-64" x="438.623047"/>
      <use xlink:href="#DejaVuSans-20" x="502.099609"/>
      <use xlink:href="#DejaVuSans-74" x="533.886719"/>
      <use xlink:href="#DejaVuSans-72" x="573.095703"/>
      <use xlink:href="#DejaVuSans-65" x="611.958984"/>
      <use xlink:href="#DejaVuSans-65" x="673.482422"/>
      <use xlink:href="#DejaVuSans-29" x="735.005859"/>
     </g>
    </g>
    <g id="line2d_31">
     <path d="M 66.6 69.248563 
L 76.6 69.248563 
L 86.6 69.248563 
" style="fill: none; stroke: #ff7f0e; stroke-width: 1.5; stroke-linecap: square"/>
    </g>
    <g id="text_14">
     <!-- forward tree (SIMD) -->
     <g transform="translate(94.6 72.748563) scale(0.1 -0.1)">
      <defs>
       <path id="DejaVuSans-77" d="M 269 3500 
L 844 3500 
L 1563 769 
L 2278 3500 
L 2956 3500 
L 3675 769 
L 4391 3500 
L 4966 3500 
L 4050 0 
L 3372 0 
L 2619 2869 
L 1863 0 
L 1184 0 
L 269 3500 
z
" transform="scale(0.015625)"/>
       <path id="DejaVuSans-49" d="M 628 4666 
L 1259 4666 
L 1259 0 
L 628 0 
L 628 4666 
z
" transform="scale(0.015625)"/>
       <path id="DejaVuSans-4d" d="M 628 4666 
L 1569 4666 
L 2759 1491 
L 3956 4666 
L 4897 4666 
L 4897 0 
L 4281 0 
L 4281 4097 
L 3078 897 
L 2444 897 
L 1241 4097 
L 1241 0 
L 628 0 
L 628 4666 
z
" transform="scale(0.015625)"/>
       <path id="DejaVuSans-44" d="M 1259 4147 
L 1259 519 
L 2022 519 
Q 2988 519 3436 956 
Q 3884 1394 3884 2338 
Q 3884 3275 3436 3711 
Q 2988 4147 2022 4147 
L 1259 4147 
z
M 628 4666 
L 1925 4666 
Q 3281 4666 3915 4102 
Q 4550 3538 4550 2338 
Q 4550 1131 3912 565 
Q 3275 0 1925 0 
L 628 0 
L 628 4666 
z
" transform="scale(0.015625)"/>
      </defs>
      <use xlink:href="#DejaVuSans-66"/>
      <use xlink:href="#DejaVuSans-6f" x="35.205078"/>
      <use xlink:href="#DejaVuSans-72" x="96.386719"/>
      <use xlink:href="#DejaVuSans-77" x="137.5"/>
      <use xlink:href="#DejaVuSans-61" x="219.287109"/>
      <use xlink:href="#DejaVuSans-72" x="280.566406"/>
      <use xlink:href="#DejaVuSans-64" x="319.929688"/>
      <use xlink:href="#DejaVuSans-20" x="383.40625"/>
      <use xlink:href="#DejaVuSans-74" x="415.193359"/>
      <use xlink:href="#DejaVuSans-72" x="454.402344"/>
      <use xlink:href="#DejaVuSans-65" x="493.265625"/>
      <use xlink:href="#DejaVuSans-65" x="554.789062"/>
      <use xlink:href="#DejaVuSans-20" x="616.3125"/>
      <use xlink:href="#DejaVuSans-28" x="648.099609"/>
      <use xlink:href="#DejaVuSans-53" x="687.113281"/>
      <use xlink:href="#DejaVuSans-49" x="750.589844"/>
      <use xlink:href="#DejaVuSans-4d" x="780.082031"/>
      <use xlink:href="#DejaVuSans-44" x="866.361328"/>
      <use xlink:href="#DejaVuSans-29" x="943.363281"/>
     </g>
    </g>
    <g id="line2d_32">
     <path d="M 66.6 83.926688 
L 76.6 83.926688 
L 86.6 83.926688 
" style="fill: none; stroke: #2ca02c; stroke-width: 1.5; stroke-linecap: square"/>
    </g>
    <g id="text_15">
     <!-- forest (SIMD, T=1) -->
     <g transform="translate(94.6 87.426688) scale(0.1 -0.1)">
      <defs>
       <path id="DejaVuSans-2c" d="M 750 794 
L 1409 794 
L 1409 256 
L 897 -744 
L 494 -744 
L 750 256 
L 750 794 
z
" transform="scale(0.015625)"/>
       <path id="DejaVuSans-54" d="M -19 4666 
L 3928 4666 
L 3928 4134 
L 2272 4134 
L 2272 0 
L 1638 0 
L 1638 4134 
L -19 4134 
L -19 4666 
z
" transform="scale(0.015625)"/>
       <path id="DejaVuSans-3d" d="M 678 2906 
L 4684 2906 
L 4684 2381 
L 678 2381 
L 678 2906 
z
M 678 1631 
L 4684 1631 
L 4684 1100 
L 678 1100 
L 678 1631 
z
" transform="scale(0.015625)"/>
      </defs>
      <use xlink:href="#DejaVuSans-66"/>
      <use xlink:href="#DejaVuSans-6f" x="35.205078"/>
      <use xlink:href="#DejaVuSans-72" x="96.386719"/>
      <use xlink:href="#DejaVuSans-65" x="135.25"/>
      <use xlink:href="#DejaVuSans-73" x="196.773438"/>
      <use xlink:href="#DejaVuSans-74" x="248.873047"/>
      <use xlink:href="#DejaVuSans-20" x="288.082031"/>
      <use xlink:href="#DejaVuSans-28" x="319.869141"/>
      <use xlink:href="#DejaVuSans-53" x="358.882812"/>
      <use xlink:href="#DejaVuSans-49" x="422.359375"/>
      <use xlink:href="#DejaVuSans-4d" x="451.851562"/>
      <use xlink:href="#DejaVuSans-44" x="538.130859"/>
      <use xlink:href="#DejaVuSans-2c" x="615.132812"/>
      <use xlink:href="#DejaVuSans-20" x="646.919922"/>
      <use xlink:href="#DejaVuSans-54" x="678.707031"/>
      <use xlink:href="#DejaVuSans-3d" x="739.791016"/>
      <use xlink:href="#DejaVuSans-31" x="823.580078"/>
      <use xlink:href="#DejaVuSans-29" x="887.203125"/>
     </g>
    </g>
    <g id="line2d_33">
     <path d="M 66.6 98.604813 
L 76.6 98.604813 
L 86.6 98.604813 
" style="fill: none; stroke: #d62728; stroke-width: 1.5; stroke-linecap: square"/>
    </g>
    <g id="text_16">
     <!-- forest (SIMD, T=5) -->
     <g transform="translate(94.6 102.104813) scale(0.1 -0.1)">
      <use xlink:href="#DejaVuSans-66"/>
      <use xlink:href="#DejaVuSans-6f" x="35.205078"/>
      <use xlink:href="#DejaVuSans-72" x="96.386719"/>
      <use xlink:href="#DejaVuSans-65" x="135.25"/>
      <use xlink:href="#DejaVuSans-73" x="196.773438"/>
      <use xlink:href="#DejaVuSans-74" x="248.873047"/>
      <use xlink:href="#DejaVuSans-20" x="288.082031"/>
      <use xlink:href="#DejaVuSans-28" x="319.869141"/>
      <use xlink:href="#DejaVuSans-53" x="358.882812"/>
      <use xlink:href="#DejaVuSans-49" x="422.359375"/>
      <use xlink:href="#DejaVuSans-4d" x="451.851562"/>
      <use xlink:href="#DejaVuSans-44" x="538.130859"/>
      <use xlink:href="#DejaVuSans-2c" x="615.132812"/>
      <use xlink:href="#DejaVuSans-20" x="646.919922"/>
      <use xlink:href="#DejaVuSans-54" x="678.707031"/>
      <use xlink:href="#DejaVuSans-3d" x="739.791016"/>
      <use xlink:href="#DejaVuSans-35" x="823.580078"/>
      <use xlink:href="#DejaVuSans-29" x="887.203125"/>
     </g>
    </g>
    <g id="line2d_34">
     <path d="M 66.6 113.282938 
L 76.6 113.282938 
L 86.6 113.282938 
" style="fill: none; stroke: #9467bd; stroke-width: 1.5; stroke-linecap: square"/>
    </g>
    <g id="text_17">
     <!-- forest (SIMD, T=10) -->
     <g transform="translate(94.6 116.782938) scale(0.1 -0.1)">
      <use xlink:href="#DejaVuSans-66"/>
      <use xlink:href="#DejaVuSans-6f" x="35.205078"/>
      <use xlink:href="#DejaVuSans-72" x="96.386719"/>
      <use xlink:href="#DejaVuSans-65" x="135.25"/>
      <use xlink:href="#DejaVuSans-73" x="196.773438"/>
      <use xlink:href="#DejaVuSans-74" x="248.873047"/>
      <use xlink:href="#DejaVuSans-20" x="288.082031"/>
      <use xlink:href="#DejaVuSans-28" x="319.869141"/>
      <use xlink:href="#DejaVuSans-53" x="358.882812"/>
      <use xlink:href="#DejaVuSans-49" x="422.359375"/>
      <use xlink:href="#DejaVuSans-4d" x="451.851562"/>
      <use xlink:href="#DejaVuSans-44" x="538.130859"/>
      <use xlink:href="#DejaVuSans-2c" x="615.132812"/>
      <use xlink:href="#DejaVuSans-20" x="646.919922"/>
      <use xlink:href="#DejaVuSans-54" x="678.707031"/>
      <use xlink:href="#DejaVuSans-3d" x="739.791016"/>
      <use xlink:href="#DejaVuSans-31" x="823.580078"/>
      <use xlink:href="#DejaVuSans-30" x="887.203125"/>
      <use xlink:href="#DejaVuSans-29" x="950.826172"/>
     </g>
    </g>
   </g>
  </g>
 </g>
 <defs>
  <clipPath id="p0afe04a780">
   <rect x="57.6" y="41.472" width="357.12" height="266.112"/>
  </clipPath>
 </defs>
</svg>
