<?xml version="1.0" encoding="utf-8" standalone="no"?>
<!DOCTYPE svg PUBLIC "-//W3C//DTD SVG 1.1//EN"
  "http://www.w3.org/Graphics/SVG/1.1/DTD/svg11.dtd">
<svg xmlns:xlink="http://www.w3.org/1999/xlink" width="460.8pt" height="319.68pt" viewBox="0 0 460.8 319.68" xmlns="http://www.w3.org/2000/svg" version="1.1">
 <metadata>
  <rdf:RDF xmlns:dc="http://purl.org/dc/elements/1.1/" xmlns:cc="http://creativecommons.org/ns#" xmlns:rdf="http://www.w3.org/1999/02/22-rdf-syntax-ns#">
   <cc:Work>
    <dc:type rdf:resource="http://purl.org/dc/dcmitype/StillImage"/>
    <dc:date>2024-06-07T11:46:36.267899</dc:date>
    <dc:format>image/svg+xml</dc:format>
    <dc:creator>
     <cc:Agent>
      <dc:title>Matplotlib v3.8.4, https://matplotlib.org/</dc:title>
     </cc:Agent>
    </dc:creator>
   </cc:Work>
  </rdf:RDF>
 </metadata>
 <defs>
  <style type="text/css">*{stroke-linejoin: round; stroke-linecap: butt}</style>
 </defs>
 <g id="figure_1">
  <g id="patch_1">
   <path d="M 0 319.68 
L 460.8 319.68 
L 460.8 0 
L 0 0 
z
" style="fill: #ffffff"/>
  </g>
  <g id="axes_1">
   <g id="patch_2">
    <path d="M 57.6 284.5152 
L 414.72 284.5152 
L 414.72 38.3616 
L 57.6 38.3616 
z
" style="fill: #ffffff"/>
   </g>
   <g id="matplotlib.axis_1">
    <g id="xtick_1">
     <g id="line2d_1">
      <defs>
       <path id="m1a80e2477c" d="M 0 0 
L 0 3.5 
" style="stroke: #000000; stroke-width: 0.8"/>
      </defs>
      <g>
       <use xlink:href="#m1a80e2477c" x="71.30331" y="284.5152" style="stroke: #000000; stroke-width: 0.8"/>
      </g>
     </g>
     <g id="text_1">
      <!-- 0 -->
      <g transform="translate(68.12206 299.113637) scale(0.1 -0.1)">
       <defs>
        <path id="DejaVuSans-30" d="M 2034 4250 
Q 1547 4250 1301 3770 
Q 1056 3291 1056 2328 
Q 1056 1369 1301 889 
Q 1547 409 2034 409 
Q 2525 409 2770 889 
Q 3016 1369 3016 2328 
Q 3016 3291 2770 3770 
Q 2525 4250 2034 4250 
z
M 2034 4750 
Q 2819 4750 3233 4129 
Q 3647 3509 3647 2328 
Q 3647 1150 3233 529 
Q 2819 -91 2034 -91 
Q 1250 -91 836 529 
Q 422 1150 422 2328 
Q 422 3509 836 4129 
Q 1250 4750 2034 4750 
z
" transform="scale(0.015625)"/>
       </defs>
       <use xlink:href="#DejaVuSans-30"/>
      </g>
     </g>
    </g>
    <g id="xtick_2">
     <g id="line2d_2">
      <g>
       <use xlink:href="#m1a80e2477c" x="122.40265" y="284.5152" style="stroke: #000000; stroke-width: 0.8"/>
      </g>
     </g>
     <g id="text_2">
      <!-- 10000 -->
      <g transform="translate(106.4964 299.113637) scale(0.1 -0.1)">
       <defs>
        <path id="DejaVuSans-31" d="M 794 531 
L 1825 531 
L 1825 4091 
L 703 3866 
L 703 4441 
L 1819 4666 
L 2450 4666 
L 2450 531 
L 3481 531 
L 3481 0 
L 794 0 
L 794 531 
z
" transform="scale(0.015625)"/>
       </defs>
       <use xlink:href="#DejaVuSans-31"/>
       <use xlink:href="#DejaVuSans-30" x="63.623047"/>
       <use xlink:href="#DejaVuSans-30" x="127.246094"/>
       <use xlink:href="#DejaVuSans-30" x="190.869141"/>
       <use xlink:href="#DejaVuSans-30" x="254.492188"/>
      </g>
     </g>
    </g>
    <g id="xtick_3">
     <g id="line2d_3">
      <g>
       <use xlink:href="#m1a80e2477c" x="173.50199" y="284.5152" style="stroke: #000000; stroke-width: 0.8"/>
      </g>
     </g>
     <g id="text_3">
      <!-- 20000 -->
      <g transform="translate(157.59574 299.113637) scale(0.1 -0.1)">
       <defs>
        <path id="DejaVuSans-32" d="M 1228 531 
L 3431 531 
L 3431 0 
L 469 0 
L 469 531 
Q 828 903 1448 1529 
Q 2069 2156 2228 2338 
Q 2531 2678 2651 2914 
Q 2772 3150 2772 3378 
Q 2772 3750 2511 3984 
Q 2250 4219 1831 4219 
Q 1534 4219 1204 4116 
Q 875 4013 500 3803 
L 500 4441 
Q 881 4594 1212 4672 
Q 1544 4750 1819 4750 
Q 2544 4750 2975 4387 
Q 3406 4025 3406 3419 
Q 3406 3131 3298 2873 
Q 3191 2616 2906 2266 
Q 2828 2175 2409 1742 
Q 1991 1309 1228 531 
z
" transform="scale(0.015625)"/>
       </defs>
       <use xlink:href="#DejaVuSans-32"/>
       <use xlink:href="#DejaVuSans-30" x="63.623047"/>
       <use xlink:href="#DejaVuSans-30" x="127.246094"/>
       <use xlink:href="#DejaVuSans-30" x="190.869141"/>
       <use xlink:href="#DejaVuSans-30" x="254.492188"/>
      </g>
     </g>
    </g>
    <g id="xtick_4">
     <g id="line2d_4">
      <g>
       <use xlink:href="#m1a80e2477c" x="224.601329" y="284.5152" style="stroke: #000000; stroke-width: 0.8"/>
      </g>
     </g>
     <g id="text_4">
      <!-- 30000 -->
      <g transform="translate(208.695079 299.113637) scale(0.1 -0.1)">
       <defs>
        <path id="DejaVuSans-33" d="M 2597 2516 
Q 3050 2419 3304 2112 
Q 3559 1806 3559 1356 
Q 3559 666 3084 287 
Q 2609 -91 1734 -91 
Q 1441 -91 1130 -33 
Q 819 25 488 141 
L 488 750 
Q 750 597 1062 519 
Q 1375 441 1716 441 
Q 2309 441 2620 675 
Q 2931 909 2931 1356 
Q 2931 1769 2642 2001 
Q 2353 2234 1838 2234 
L 1294 2234 
L 1294 2753 
L 1863 2753 
Q 2328 2753 2575 2939 
Q 2822 3125 2822 3475 
Q 2822 3834 2567 4026 
Q 2313 4219 1838 4219 
Q 1578 4219 1281 4162 
Q 984 4106 628 3988 
L 628 4550 
Q 988 4650 1302 4700 
Q 1616 4750 1894 4750 
Q 2613 4750 3031 4423 
Q 3450 4097 3450 3541 
Q 3450 3153 3228 2886 
Q 3006 2619 2597 2516 
z
" transform="scale(0.015625)"/>
       </defs>
       <use xlink:href="#DejaVuSans-33"/>
       <use xlink:href="#DejaVuSans-30" x="63.623047"/>
       <use xlink:href="#DejaVuSans-30" x="127.246094"/>
       <use xlink:href="#DejaVuSans-30" x="190.869141"/>
       <use xlink:href="#DejaVuSans-30" x="254.492188"/>
      </g>
     </g>
    </g>
    <g id="xtick_5">
     <g id="line2d_5">
      <g>
       <use xlink:href="#m1a80e2477c" x="275.700669" y="284.5152" style="stroke: #000000; stroke-width: 0.8"/>
      </g>
     </g>
     <g id="text_5">
      <!-- 40000 -->
      <g transform="translate(259.794419 299.113637) scale(0.1 -0.1)">
       <defs>
        <path id="DejaVuSans-34" d="M 2419 4116 
L 825 1625 
L 2419 1625 
L 2419 4116 
z
M 2253 4666 
L 3047 4666 
L 3047 1625 
L 3713 1625 
L 3713 1100 
L 3047 1100 
L 3047 0 
L 2419 0 
L 2419 1100 
L 313 1100 
L 313 1709 
L 2253 4666 
z
" transform="scale(0.015625)"/>
       </defs>
       <use xlink:href="#DejaVuSans-34"/>
       <use xlink:href="#DejaVuSans-30" x="63.623047"/>
       <use xlink:href="#DejaVuSans-30" x="127.246094"/>
       <use xlink:href="#DejaVuSans-30" x="190.869141"/>
       <use xlink:href="#DejaVuSans-30" x="254.492188"/>
      </g>
     </g>
    </g>
    <g id="xtick_6">
     <g id="line2d_6">
      <g>
       <use xlink:href="#m1a80e2477c" x="326.800009" y="284.5152" style="stroke: #000000; stroke-width: 0.8"/>
      </g>
     </g>
     <g id="text_6">
      <!-- 50000 -->
      <g transform="translate(310.893759 299.113637) scale(0.1 -0.1)">
       <defs>
        <path id="DejaVuSans-35" d="M 691 4666 
L 3169 4666 
L 3169 4134 
L 1269 4134 
L 1269 2991 
Q 1406 3038 1543 3061 
Q 1681 3084 1819 3084 
Q 2600 3084 3056 2656 
Q 3513 2228 3513 1497 
Q 3513 744 3044 326 
Q 2575 -91 1722 -91 
Q 1428 -91 1123 -41 
Q 819 9 494 109 
L 494 744 
Q 775 591 1075 516 
Q 1375 441 1709 441 
Q 2250 441 2565 725 
Q 2881 1009 2881 1497 
Q 2881 1984 2565 2268 
Q 2250 2553 1709 2553 
Q 1456 2553 1204 2497 
Q 953 2441 691 2322 
L 691 4666 
z
" transform="scale(0.015625)"/>
       </defs>
       <use xlink:href="#DejaVuSans-35"/>
       <use xlink:href="#DejaVuSans-30" x="63.623047"/>
       <use xlink:href="#DejaVuSans-30" x="127.246094"/>
       <use xlink:href="#DejaVuSans-30" x="190.869141"/>
       <use xlink:href="#DejaVuSans-30" x="254.492188"/>
      </g>
     </g>
    </g>
    <g id="xtick_7">
     <g id="line2d_7">
      <g>
       <use xlink:href="#m1a80e2477c" x="377.899349" y="284.5152" style="stroke: #000000; stroke-width: 0.8"/>
      </g>
     </g>
     <g id="text_7">
      <!-- 60000 -->
      <g transform="translate(361.993099 299.113637) scale(0.1 -0.1)">
       <defs>
        <path id="DejaVuSans-36" d="M 2113 2584 
Q 1688 2584 1439 2293 
Q 1191 2003 1191 1497 
Q 1191 994 1439 701 
Q 1688 409 2113 409 
Q 2538 409 2786 701 
Q 3034 994 3034 1497 
Q 3034 2003 2786 2293 
Q 2538 2584 2113 2584 
z
M 3366 4563 
L 3366 3988 
Q 3128 4100 2886 4159 
Q 2644 4219 2406 4219 
Q 1781 4219 1451 3797 
Q 1122 3375 1075 2522 
Q 1259 2794 1537 2939 
Q 1816 3084 2150 3084 
Q 2853 3084 3261 2657 
Q 3669 2231 3669 1497 
Q 3669 778 3244 343 
Q 2819 -91 2113 -91 
Q 1303 -91 875 529 
Q 447 1150 447 2328 
Q 447 3434 972 4092 
Q 1497 4750 2381 4750 
Q 2619 4750 2861 4703 
Q 3103 4656 3366 4563 
z
" transform="scale(0.015625)"/>
       </defs>
       <use xlink:href="#DejaVuSans-36"/>
       <use xlink:href="#DejaVuSans-30" x="63.623047"/>
       <use xlink:href="#DejaVuSans-30" x="127.246094"/>
       <use xlink:href="#DejaVuSans-30" x="190.869141"/>
       <use xlink:href="#DejaVuSans-30" x="254.492188"/>
      </g>
     </g>
    </g>
    <g id="text_8">
     <!-- Number of points in cloud -->
     <g transform="translate(171.443594 312.791763) scale(0.1 -0.1)">
      <defs>
       <path id="DejaVuSans-4e" d="M 628 4666 
L 1478 4666 
L 3547 763 
L 3547 4666 
L 4159 4666 
L 4159 0 
L 3309 0 
L 1241 3903 
L 1241 0 
L 628 0 
L 628 4666 
z
" transform="scale(0.015625)"/>
       <path id="DejaVuSans-75" d="M 544 1381 
L 544 3500 
L 1119 3500 
L 1119 1403 
Q 1119 906 1312 657 
Q 1506 409 1894 409 
Q 2359 409 2629 706 
Q 2900 1003 2900 1516 
L 2900 3500 
L 3475 3500 
L 3475 0 
L 2900 0 
L 2900 538 
Q 2691 219 2414 64 
Q 2138 -91 1772 -91 
Q 1169 -91 856 284 
Q 544 659 544 1381 
z
M 1991 3584 
L 1991 3584 
z
" transform="scale(0.015625)"/>
       <path id="DejaVuSans-6d" d="M 3328 2828 
Q 3544 3216 3844 3400 
Q 4144 3584 4550 3584 
Q 5097 3584 5394 3201 
Q 5691 2819 5691 2113 
L 5691 0 
L 5113 0 
L 5113 2094 
Q 5113 2597 4934 2840 
Q 4756 3084 4391 3084 
Q 3944 3084 3684 2787 
Q 3425 2491 3425 1978 
L 3425 0 
L 2847 0 
L 2847 2094 
Q 2847 2600 2669 2842 
Q 2491 3084 2119 3084 
Q 1678 3084 1418 2786 
Q 1159 2488 1159 1978 
L 1159 0 
L 581 0 
L 581 3500 
L 1159 3500 
L 1159 2956 
Q 1356 3278 1631 3431 
Q 1906 3584 2284 3584 
Q 2666 3584 2933 3390 
Q 3200 3197 3328 2828 
z
" transform="scale(0.015625)"/>
       <path id="DejaVuSans-62" d="M 3116 1747 
Q 3116 2381 2855 2742 
Q 2594 3103 2138 3103 
Q 1681 3103 1420 2742 
Q 1159 2381 1159 1747 
Q 1159 1113 1420 752 
Q 1681 391 2138 391 
Q 2594 391 2855 752 
Q 3116 1113 3116 1747 
z
M 1159 2969 
Q 1341 3281 1617 3432 
Q 1894 3584 2278 3584 
Q 2916 3584 3314 3078 
Q 3713 2572 3713 1747 
Q 3713 922 3314 415 
Q 2916 -91 2278 -91 
Q 1894 -91 1617 61 
Q 1341 213 1159 525 
L 1159 0 
L 581 0 
L 581 4863 
L 1159 4863 
L 1159 2969 
z
" transform="scale(0.015625)"/>
       <path id="DejaVuSans-65" d="M 3597 1894 
L 3597 1613 
L 953 1613 
Q 991 1019 1311 708 
Q 1631 397 2203 397 
Q 2534 397 2845 478 
Q 3156 559 3463 722 
L 3463 178 
Q 3153 47 2828 -22 
Q 2503 -91 2169 -91 
Q 1331 -91 842 396 
Q 353 884 353 1716 
Q 353 2575 817 3079 
Q 1281 3584 2069 3584 
Q 2775 3584 3186 3129 
Q 3597 2675 3597 1894 
z
M 3022 2063 
Q 3016 2534 2758 2815 
Q 2500 3097 2075 3097 
Q 1594 3097 1305 2825 
Q 1016 2553 972 2059 
L 3022 2063 
z
" transform="scale(0.015625)"/>
       <path id="DejaVuSans-72" d="M 2631 2963 
Q 2534 3019 2420 3045 
Q 2306 3072 2169 3072 
Q 1681 3072 1420 2755 
Q 1159 2438 1159 1844 
L 1159 0 
L 581 0 
L 581 3500 
L 1159 3500 
L 1159 2956 
Q 1341 3275 1631 3429 
Q 1922 3584 2338 3584 
Q 2397 3584 2469 3576 
Q 2541 3569 2628 3553 
L 2631 2963 
z
" transform="scale(0.015625)"/>
       <path id="DejaVuSans-20" transform="scale(0.015625)"/>
       <path id="DejaVuSans-6f" d="M 1959 3097 
Q 1497 3097 1228 2736 
Q 959 2375 959 1747 
Q 959 1119 1226 758 
Q 1494 397 1959 397 
Q 2419 397 2687 759 
Q 2956 1122 2956 1747 
Q 2956 2369 2687 2733 
Q 2419 3097 1959 3097 
z
M 1959 3584 
Q 2709 3584 3137 3096 
Q 3566 2609 3566 1747 
Q 3566 888 3137 398 
Q 2709 -91 1959 -91 
Q 1206 -91 779 398 
Q 353 888 353 1747 
Q 353 2609 779 3096 
Q 1206 3584 1959 3584 
z
" transform="scale(0.015625)"/>
       <path id="DejaVuSans-66" d="M 2375 4863 
L 2375 4384 
L 1825 4384 
Q 1516 4384 1395 4259 
Q 1275 4134 1275 3809 
L 1275 3500 
L 2222 3500 
L 2222 3053 
L 1275 3053 
L 1275 0 
L 697 0 
L 697 3053 
L 147 3053 
L 147 3500 
L 697 3500 
L 697 3744 
Q 697 4328 969 4595 
Q 1241 4863 1831 4863 
L 2375 4863 
z
" transform="scale(0.015625)"/>
       <path id="DejaVuSans-70" d="M 1159 525 
L 1159 -1331 
L 581 -1331 
L 581 3500 
L 1159 3500 
L 1159 2969 
Q 1341 3281 1617 3432 
Q 1894 3584 2278 3584 
Q 2916 3584 3314 3078 
Q 3713 2572 3713 1747 
Q 3713 922 3314 415 
Q 2916 -91 2278 -91 
Q 1894 -91 1617 61 
Q 1341 213 1159 525 
z
M 3116 1747 
Q 3116 2381 2855 2742 
Q 2594 3103 2138 3103 
Q 1681 3103 1420 2742 
Q 1159 2381 1159 1747 
Q 1159 1113 1420 752 
Q 1681 391 2138 391 
Q 2594 391 2855 752 
Q 3116 1113 3116 1747 
z
" transform="scale(0.015625)"/>
       <path id="DejaVuSans-69" d="M 603 3500 
L 1178 3500 
L 1178 0 
L 603 0 
L 603 3500 
z
M 603 4863 
L 1178 4863 
L 1178 4134 
L 603 4134 
L 603 4863 
z
" transform="scale(0.015625)"/>
       <path id="DejaVuSans-6e" d="M 3513 2113 
L 3513 0 
L 2938 0 
L 2938 2094 
Q 2938 2591 2744 2837 
Q 2550 3084 2163 3084 
Q 1697 3084 1428 2787 
Q 1159 2491 1159 1978 
L 1159 0 
L 581 0 
L 581 3500 
L 1159 3500 
L 1159 2956 
Q 1366 3272 1645 3428 
Q 1925 3584 2291 3584 
Q 2894 3584 3203 3211 
Q 3513 2838 3513 2113 
z
" transform="scale(0.015625)"/>
       <path id="DejaVuSans-74" d="M 1172 4494 
L 1172 3500 
L 2356 3500 
L 2356 3053 
L 1172 3053 
L 1172 1153 
Q 1172 725 1289 603 
Q 1406 481 1766 481 
L 2356 481 
L 2356 0 
L 1766 0 
Q 1100 0 847 248 
Q 594 497 594 1153 
L 594 3053 
L 172 3053 
L 172 3500 
L 594 3500 
L 594 4494 
L 1172 4494 
z
" transform="scale(0.015625)"/>
       <path id="DejaVuSans-73" d="M 2834 3397 
L 2834 2853 
Q 2591 2978 2328 3040 
Q 2066 3103 1784 3103 
Q 1356 3103 1142 2972 
Q 928 2841 928 2578 
Q 928 2378 1081 2264 
Q 1234 2150 1697 2047 
L 1894 2003 
Q 2506 1872 2764 1633 
Q 3022 1394 3022 966 
Q 3022 478 2636 193 
Q 2250 -91 1575 -91 
Q 1294 -91 989 -36 
Q 684 19 347 128 
L 347 722 
Q 666 556 975 473 
Q 1284 391 1588 391 
Q 1994 391 2212 530 
Q 2431 669 2431 922 
Q 2431 1156 2273 1281 
Q 2116 1406 1581 1522 
L 1381 1569 
Q 847 1681 609 1914 
Q 372 2147 372 2553 
Q 372 3047 722 3315 
Q 1072 3584 1716 3584 
Q 2034 3584 2315 3537 
Q 2597 3491 2834 3397 
z
" transform="scale(0.015625)"/>
       <path id="DejaVuSans-63" d="M 3122 3366 
L 3122 2828 
Q 2878 2963 2633 3030 
Q 2388 3097 2138 3097 
Q 1578 3097 1268 2742 
Q 959 2388 959 1747 
Q 959 1106 1268 751 
Q 1578 397 2138 397 
Q 2388 397 2633 464 
Q 2878 531 3122 666 
L 3122 134 
Q 2881 22 2623 -34 
Q 2366 -91 2075 -91 
Q 1284 -91 818 406 
Q 353 903 353 1747 
Q 353 2603 823 3093 
Q 1294 3584 2113 3584 
Q 2378 3584 2631 3529 
Q 2884 3475 3122 3366 
z
" transform="scale(0.015625)"/>
       <path id="DejaVuSans-6c" d="M 603 4863 
L 1178 4863 
L 1178 0 
L 603 0 
L 603 4863 
z
" transform="scale(0.015625)"/>
       <path id="DejaVuSans-64" d="M 2906 2969 
L 2906 4863 
L 3481 4863 
L 3481 0 
L 2906 0 
L 2906 525 
Q 2725 213 2448 61 
Q 2172 -91 1784 -91 
Q 1150 -91 751 415 
Q 353 922 353 1747 
Q 353 2572 751 3078 
Q 1150 3584 1784 3584 
Q 2172 3584 2448 3432 
Q 2725 3281 2906 2969 
z
M 947 1747 
Q 947 1113 1208 752 
Q 1469 391 1925 391 
Q 2381 391 2643 752 
Q 2906 1113 2906 1747 
Q 2906 2381 2643 2742 
Q 2381 3103 1925 3103 
Q 1469 3103 1208 2742 
Q 947 2381 947 1747 
z
" transform="scale(0.015625)"/>
      </defs>
      <use xlink:href="#DejaVuSans-4e"/>
      <use xlink:href="#DejaVuSans-75" x="74.804688"/>
      <use xlink:href="#DejaVuSans-6d" x="138.183594"/>
      <use xlink:href="#DejaVuSans-62" x="235.595703"/>
      <use xlink:href="#DejaVuSans-65" x="299.072266"/>
      <use xlink:href="#DejaVuSans-72" x="360.595703"/>
      <use xlink:href="#DejaVuSans-20" x="401.708984"/>
      <use xlink:href="#DejaVuSans-6f" x="433.496094"/>
      <use xlink:href="#DejaVuSans-66" x="494.677734"/>
      <use xlink:href="#DejaVuSans-20" x="529.882812"/>
      <use xlink:href="#DejaVuSans-70" x="561.669922"/>
      <use xlink:href="#DejaVuSans-6f" x="625.146484"/>
      <use xlink:href="#DejaVuSans-69" x="686.328125"/>
      <use xlink:href="#DejaVuSans-6e" x="714.111328"/>
      <use xlink:href="#DejaVuSans-74" x="777.490234"/>
      <use xlink:href="#DejaVuSans-73" x="816.699219"/>
      <use xlink:href="#DejaVuSans-20" x="868.798828"/>
      <use xlink:href="#DejaVuSans-69" x="900.585938"/>
      <use xlink:href="#DejaVuSans-6e" x="928.369141"/>
      <use xlink:href="#DejaVuSans-20" x="991.748047"/>
      <use xlink:href="#DejaVuSans-63" x="1023.535156"/>
      <use xlink:href="#DejaVuSans-6c" x="1078.515625"/>
      <use xlink:href="#DejaVuSans-6f" x="1106.298828"/>
      <use xlink:href="#DejaVuSans-75" x="1167.480469"/>
      <use xlink:href="#DejaVuSans-64" x="1230.859375"/>
     </g>
    </g>
   </g>
   <g id="matplotlib.axis_2">
    <g id="ytick_1">
     <g id="line2d_8">
      <defs>
       <path id="m4f60b11c18" d="M 0 0 
L -3.5 0 
" style="stroke: #000000; stroke-width: 0.8"/>
      </defs>
      <g>
       <use xlink:href="#m4f60b11c18" x="57.6" y="249.40201" style="stroke: #000000; stroke-width: 0.8"/>
      </g>
     </g>
     <g id="text_9">
      <!-- $\mathdefault{10^{1}}$ -->
      <g transform="translate(33 253.201229) scale(0.1 -0.1)">
       <use xlink:href="#DejaVuSans-31" transform="translate(0 0.684375)"/>
       <use xlink:href="#DejaVuSans-30" transform="translate(63.623047 0.684375)"/>
       <use xlink:href="#DejaVuSans-31" transform="translate(128.203125 38.965625) scale(0.7)"/>
      </g>
     </g>
    </g>
    <g id="ytick_2">
     <g id="line2d_9">
      <g>
       <use xlink:href="#m4f60b11c18" x="57.6" y="122.929796" style="stroke: #000000; stroke-width: 0.8"/>
      </g>
     </g>
     <g id="text_10">
      <!-- $\mathdefault{10^{2}}$ -->
      <g transform="translate(33 126.729015) scale(0.1 -0.1)">
       <use xlink:href="#DejaVuSans-31" transform="translate(0 0.765625)"/>
       <use xlink:href="#DejaVuSans-30" transform="translate(63.623047 0.765625)"/>
       <use xlink:href="#DejaVuSans-32" transform="translate(128.203125 39.046875) scale(0.7)"/>
      </g>
     </g>
    </g>
    <g id="ytick_3">
     <g id="line2d_10">
      <defs>
       <path id="m4cf902fbf7" d="M 0 0 
L -2 0 
" style="stroke: #000000; stroke-width: 0.6"/>
      </defs>
      <g>
       <use xlink:href="#m4cf902fbf7" x="57.6" y="277.459712" style="stroke: #000000; stroke-width: 0.6"/>
      </g>
     </g>
    </g>
    <g id="ytick_4">
     <g id="line2d_11">
      <g>
       <use xlink:href="#m4cf902fbf7" x="57.6" y="268.992804" style="stroke: #000000; stroke-width: 0.6"/>
      </g>
     </g>
    </g>
    <g id="ytick_5">
     <g id="line2d_12">
      <g>
       <use xlink:href="#m4cf902fbf7" x="57.6" y="261.658434" style="stroke: #000000; stroke-width: 0.6"/>
      </g>
     </g>
    </g>
    <g id="ytick_6">
     <g id="line2d_13">
      <g>
       <use xlink:href="#m4cf902fbf7" x="57.6" y="255.189061" style="stroke: #000000; stroke-width: 0.6"/>
      </g>
     </g>
    </g>
    <g id="ytick_7">
     <g id="line2d_14">
      <g>
       <use xlink:href="#m4cf902fbf7" x="57.6" y="211.33008" style="stroke: #000000; stroke-width: 0.6"/>
      </g>
     </g>
    </g>
    <g id="ytick_8">
     <g id="line2d_15">
      <g>
       <use xlink:href="#m4cf902fbf7" x="57.6" y="189.059429" style="stroke: #000000; stroke-width: 0.6"/>
      </g>
     </g>
    </g>
    <g id="ytick_9">
     <g id="line2d_16">
      <g>
       <use xlink:href="#m4cf902fbf7" x="57.6" y="173.25815" style="stroke: #000000; stroke-width: 0.6"/>
      </g>
     </g>
    </g>
    <g id="ytick_10">
     <g id="line2d_17">
      <g>
       <use xlink:href="#m4cf902fbf7" x="57.6" y="161.001726" style="stroke: #000000; stroke-width: 0.6"/>
      </g>
     </g>
    </g>
    <g id="ytick_11">
     <g id="line2d_18">
      <g>
       <use xlink:href="#m4cf902fbf7" x="57.6" y="150.987499" style="stroke: #000000; stroke-width: 0.6"/>
      </g>
     </g>
    </g>
    <g id="ytick_12">
     <g id="line2d_19">
      <g>
       <use xlink:href="#m4cf902fbf7" x="57.6" y="142.52059" style="stroke: #000000; stroke-width: 0.6"/>
      </g>
     </g>
    </g>
    <g id="ytick_13">
     <g id="line2d_20">
      <g>
       <use xlink:href="#m4cf902fbf7" x="57.6" y="135.18622" style="stroke: #000000; stroke-width: 0.6"/>
      </g>
     </g>
    </g>
    <g id="ytick_14">
     <g id="line2d_21">
      <g>
       <use xlink:href="#m4cf902fbf7" x="57.6" y="128.716848" style="stroke: #000000; stroke-width: 0.6"/>
      </g>
     </g>
    </g>
    <g id="ytick_15">
     <g id="line2d_22">
      <g>
       <use xlink:href="#m4cf902fbf7" x="57.6" y="84.857866" style="stroke: #000000; stroke-width: 0.6"/>
      </g>
     </g>
    </g>
    <g id="ytick_16">
     <g id="line2d_23">
      <g>
       <use xlink:href="#m4cf902fbf7" x="57.6" y="62.587215" style="stroke: #000000; stroke-width: 0.6"/>
      </g>
     </g>
    </g>
    <g id="ytick_17">
     <g id="line2d_24">
      <g>
       <use xlink:href="#m4cf902fbf7" x="57.6" y="46.785937" style="stroke: #000000; stroke-width: 0.6"/>
      </g>
     </g>
    </g>
    <g id="text_11">
     <!-- Query time (ns) -->
     <g transform="translate(26.920312 200.783713) rotate(-90) scale(0.1 -0.1)">
      <defs>
       <path id="DejaVuSans-51" d="M 2522 4238 
Q 1834 4238 1429 3725 
Q 1025 3213 1025 2328 
Q 1025 1447 1429 934 
Q 1834 422 2522 422 
Q 3209 422 3611 934 
Q 4013 1447 4013 2328 
Q 4013 3213 3611 3725 
Q 3209 4238 2522 4238 
z
M 3406 84 
L 4238 -825 
L 3475 -825 
L 2784 -78 
Q 2681 -84 2626 -87 
Q 2572 -91 2522 -91 
Q 1538 -91 948 567 
Q 359 1225 359 2328 
Q 359 3434 948 4092 
Q 1538 4750 2522 4750 
Q 3503 4750 4090 4092 
Q 4678 3434 4678 2328 
Q 4678 1516 4351 937 
Q 4025 359 3406 84 
z
" transform="scale(0.015625)"/>
       <path id="DejaVuSans-79" d="M 2059 -325 
Q 1816 -950 1584 -1140 
Q 1353 -1331 966 -1331 
L 506 -1331 
L 506 -850 
L 844 -850 
Q 1081 -850 1212 -737 
Q 1344 -625 1503 -206 
L 1606 56 
L 191 3500 
L 800 3500 
L 1894 763 
L 2988 3500 
L 3597 3500 
L 2059 -325 
z
" transform="scale(0.015625)"/>
       <path id="DejaVuSans-28" d="M 1984 4856 
Q 1566 4138 1362 3434 
Q 1159 2731 1159 2009 
Q 1159 1288 1364 580 
Q 1569 -128 1984 -844 
L 1484 -844 
Q 1016 -109 783 600 
Q 550 1309 550 2009 
Q 550 2706 781 3412 
Q 1013 4119 1484 4856 
L 1984 4856 
z
" transform="scale(0.015625)"/>
       <path id="DejaVuSans-29" d="M 513 4856 
L 1013 4856 
Q 1481 4119 1714 3412 
Q 1947 2706 1947 2009 
Q 1947 1309 1714 600 
Q 1481 -109 1013 -844 
L 513 -844 
Q 928 -128 1133 580 
Q 1338 1288 1338 2009 
Q 1338 2731 1133 3434 
Q 928 4138 513 4856 
z
" transform="scale(0.015625)"/>
      </defs>
      <use xlink:href="#DejaVuSans-51"/>
      <use xlink:href="#DejaVuSans-75" x="78.710938"/>
      <use xlink:href="#DejaVuSans-65" x="142.089844"/>
      <use xlink:href="#DejaVuSans-72" x="203.613281"/>
      <use xlink:href="#DejaVuSans-79" x="244.726562"/>
      <use xlink:href="#DejaVuSans-20" x="303.90625"/>
      <use xlink:href="#DejaVuSans-74" x="335.693359"/>
      <use xlink:href="#DejaVuSans-69" x="374.902344"/>
      <use xlink:href="#DejaVuSans-6d" x="402.685547"/>
      <use xlink:href="#DejaVuSans-65" x="500.097656"/>
      <use xlink:href="#DejaVuSans-20" x="561.621094"/>
      <use xlink:href="#DejaVuSans-28" x="593.408203"/>
      <use xlink:href="#DejaVuSans-6e" x="632.421875"/>
      <use xlink:href="#DejaVuSans-73" x="695.800781"/>
      <use xlink:href="#DejaVuSans-29" x="747.900391"/>
     </g>
    </g>
   </g>
   <g id="line2d_25">
    <path d="M 398.487273 68.509934 
L 397.674793 68.864407 
L 397.199569 68.925723 
L 395.804557 68.41466 
L 395.252685 68.408163 
L 394.762131 67.893204 
L 394.205148 68.65225 
L 392.866345 68.670132 
L 392.191834 68.053291 
L 391.456004 68.850245 
L 390.720173 68.186884 
L 389.974123 68.352273 
L 389.192303 68.051666 
L 388.395153 68.487876 
L 387.623553 68.393911 
L 385.927055 66.503549 
L 385.145235 67.998605 
L 384.220337 68.540153 
L 383.315879 68.681484 
L 382.44208 68.274556 
L 381.348554 68.872439 
L 380.347007 68.785235 
L 379.212602 66.239391 
L 378.062867 69.288953 
L 376.882472 68.939916 
L 374.516572 68.708036 
L 373.290188 67.869977 
L 371.930946 68.830679 
L 370.546154 69.174029 
L 369.243121 68.914264 
L 367.934977 69.251773 
L 366.504196 55.693345 
L 365.037645 67.946196 
L 363.617083 68.38605 
L 362.155642 69.251085 
L 360.387605 68.854689 
L 358.665557 69.243288 
L 356.948619 69.374601 
L 355.308331 50.832953 
L 353.703811 68.131314 
L 351.864235 69.407387 
L 350.126858 69.747387 
L 348.271952 69.489552 
L 346.284187 69.472527 
L 340.791008 70.06241 
L 338.849233 69.901674 
L 337.065866 49.5504 
L 335.052552 69.53771 
L 333.141437 70.294724 
L 331.112793 70.063039 
L 328.930851 69.5277 
L 326.820449 69.968988 
L 324.771365 69.022749 
L 322.671182 69.329098 
L 320.816276 69.353309 
L 318.741643 69.226856 
L 316.554591 67.091755 
L 314.112043 67.440983 
L 311.960761 67.365748 
L 309.645961 67.525162 
L 307.39759 66.911836 
L 305.307627 66.560361 
L 303.304532 65.254305 
L 298.83334 63.785895 
L 296.620739 62.582263 
L 294.387698 62.427634 
L 292.154657 61.313574 
L 289.936945 61.447571 
L 287.540386 60.771937 
L 285.164267 60.736915 
L 282.798367 60.398847 
L 280.687965 60.436948 
L 276.554028 62.446554 
L 274.489615 62.249891 
L 272.297453 62.184552 
L 270.135951 62.365088 
L 268.183956 62.985332 
L 266.216632 63.786523 
L 264.121559 63.400705 
L 259.752565 63.891938 
L 257.734141 62.155709 
L 255.53176 63.223791 
L 253.462236 63.416761 
L 251.530681 63.132449 
L 249.548027 63.222869 
L 247.360975 60.513967 
L 245.362991 61.718894 
L 243.528525 62.625262 
L 241.336363 62.319996 
L 239.430358 61.708859 
L 237.539682 92.380442 
L 233.584593 93.339914 
L 230.855889 93.716774 
L 228.786365 94.179143 
L 226.614643 93.022529 
L 224.729078 93.095759 
L 222.352958 93.387359 
L 220.441843 91.417284 
L 218.832214 91.607273 
L 217.064177 90.81937 
L 215.326799 90.621531 
L 213.763159 90.614213 
L 211.714076 90.338888 
L 206.251556 89.988408 
L 204.182033 88.830517 
L 202.240258 88.782116 
L 200.124746 86.75745 
L 197.891704 86.118165 
L 195.90394 86.014 
L 194.278981 85.259916 
L 190.814446 84.396637 
L 188.704043 85.246901 
L 186.690729 84.821562 
L 185.04533 84.310742 
L 183.108665 85.1215 
L 181.335518 84.854927 
L 179.613471 85.438363 
L 178.208239 86.492693 
L 176.56284 87.133817 
L 174.738594 86.715945 
L 173.185174 87.272944 
L 171.493785 87.440367 
L 169.62355 87.407461 
L 167.824853 87.518262 
L 166.148795 88.442658 
L 164.523836 87.682426 
L 162.995965 88.017212 
L 164.084381 88.005032 
L 162.341894 87.93995 
L 160.808914 87.897941 
L 159.086866 88.463585 
L 157.615205 87.234377 
L 155.923817 87.121028 
L 153.777644 88.722195 
L 152.106696 90.596745 
L 148.68815 89.480772 
L 146.679946 89.454351 
L 144.947678 88.132628 
L 143.450468 89.1825 
L 141.845949 89.145029 
L 139.842854 88.612218 
L 138.585811 88.952354 
L 137.165249 88.665968 
L 135.800897 89.484907 
L 133.22038 87.845168 
L 131.871357 88.736077 
L 130.481455 88.004792 
L 129.045564 88.707077 
L 127.579013 88.427665 
L 125.984713 89.368873 
L 124.68168 89.689388 
L 122.264682 88.812267 
L 120.706152 89.371662 
L 119.229381 89.533553 
L 117.987667 89.823345 
L 116.858371 90.253849 
L 115.754626 89.829921 
L 114.64577 87.588262 
L 113.649333 88.213319 
L 112.586467 104.545165 
L 111.590029 103.605913 
L 110.721341 105.298279 
L 109.735123 105.888817 
L 108.636488 104.689525 
L 109.065722 104.970496 
L 108.145934 105.216029 
L 107.297685 105.832695 
L 106.428996 105.082455 
L 105.534758 105.074954 
L 104.686509 105.796097 
L 103.79227 105.512952 
L 102.662975 105.450648 
L 99.852511 105.422941 
L 98.41151 104.874514 
L 96.944959 106.787653 
L 95.902532 82.958691 
L 94.614829 107.392645 
L 93.362895 106.986143 
L 92.126291 116.69993 
L 90.056768 117.697259 
L 89.13187 117.391321 
L 88.426699 118.615231 
L 87.747077 118.926705 
L 86.362285 119.393816 
L 85.759313 118.290872 
L 84.875295 119.471455 
L 84.563589 118.288984 
L 83.996386 119.108229 
L 83.332095 120.548747 
L 82.795551 120.700141 
L 82.069941 120.40116 
L 82.13126 121.648448 
L 81.855324 119.425157 
L 81.34433 122.844007 
L 81.068394 123.308102 
L 80.58806 122.877063 
L 79.923769 121.145096 
L 78.932441 123.537555 
L 79.407665 121.828188 
L 79.07041 121.435839 
L 78.012653 124.339088 
L 77.890015 123.661042 
L 77.5221 123.282041 
L 77.471 123.990698 
L 77.184844 124.875888 
L 76.7505 121.125993 
L 76.295715 128.481525 
L 75.835821 131.063106 
L 75.718293 130.058378 
L 75.549665 130.600162 
L 75.473016 130.121617 
L 75.018232 129.276446 
L 74.829164 131.559457 
L 74.645207 130.724711 
L 74.313061 133.485976 
L 74.261962 128.087938 
L 74.180203 131.268813 
L 74.159763 130.924187 
L 74.057564 130.578878 
L 73.832727 148.96858 
L 73.832727 148.96858 
" clip-path="url(#p33d6529d2e)" style="fill: none; stroke: #1f77b4; stroke-width: 1.5; stroke-linecap: square"/>
   </g>
   <g id="line2d_26">
    <path d="M 398.487273 233.240979 
L 398.078478 233.657396 
L 397.674793 232.369376 
L 397.199569 232.813951 
L 396.305331 233.879211 
L 395.804557 233.416475 
L 395.252685 233.062451 
L 394.762131 231.312829 
L 394.205148 233.096021 
L 393.571516 232.667885 
L 392.866345 233.307006 
L 392.191834 233.236363 
L 390.720173 233.545861 
L 389.974123 233.159288 
L 389.192303 233.206645 
L 388.395153 232.79831 
L 387.623553 233.357538 
L 386.872393 233.306555 
L 385.927055 233.462924 
L 385.145235 233.053023 
L 384.220337 233.02318 
L 383.315879 232.389218 
L 382.44208 232.754763 
L 381.348554 233.737787 
L 380.347007 233.2179 
L 379.212602 233.134557 
L 374.516572 233.412521 
L 373.290188 232.865596 
L 371.930946 232.977214 
L 370.546154 233.326627 
L 369.243121 232.738916 
L 367.934977 232.692518 
L 366.504196 233.256071 
L 365.037645 233.260351 
L 363.617083 232.873873 
L 362.155642 233.262041 
L 360.387605 232.811939 
L 358.665557 233.245146 
L 356.948619 232.995483 
L 355.308331 233.26328 
L 351.864235 233.386434 
L 350.126858 233.034622 
L 348.271952 232.378797 
L 346.284187 233.474005 
L 344.562139 233.303173 
L 342.727673 232.841891 
L 340.791008 233.24661 
L 338.849233 233.300017 
L 337.065866 232.992008 
L 335.052552 233.472422 
L 333.141437 232.993129 
L 331.112793 233.392757 
L 328.930851 233.014432 
L 326.820449 233.131522 
L 324.771365 232.833619 
L 320.816276 233.2599 
L 318.741643 233.288632 
L 316.554591 232.803002 
L 314.112043 233.22229 
L 311.960761 232.099715 
L 309.645961 232.911581 
L 307.39759 207.827014 
L 305.307627 232.880361 
L 303.304532 233.309261 
L 301.025502 231.762381 
L 298.83334 233.191455 
L 296.620739 232.710136 
L 294.387698 232.659082 
L 292.154657 233.128376 
L 289.936945 233.137142 
L 287.540386 231.954654 
L 285.164267 233.116016 
L 280.687965 233.153554 
L 278.664431 232.745835 
L 276.554028 232.890094 
L 274.489615 232.726421 
L 272.297453 232.996156 
L 270.135951 232.85665 
L 268.183956 227.151916 
L 266.216632 233.428677 
L 264.121559 233.230958 
L 261.908957 233.186617 
L 259.752565 231.914848 
L 257.734141 232.733672 
L 255.53176 232.934645 
L 253.462236 232.311883 
L 251.530681 233.25945 
L 249.548027 232.966008 
L 247.360975 233.140738 
L 245.362991 233.042139 
L 243.528525 232.294724 
L 241.336363 233.478642 
L 239.430358 232.704448 
L 237.539682 237.866281 
L 235.592797 238.327957 
L 233.584593 237.962159 
L 230.855889 238.545436 
L 228.786365 237.635365 
L 226.614643 237.876204 
L 224.729078 238.274123 
L 222.352958 237.459499 
L 220.441843 237.71398 
L 218.832214 238.498327 
L 217.064177 238.193224 
L 215.326799 238.597178 
L 211.714076 237.686012 
L 206.251556 238.350568 
L 204.182033 235.391895 
L 202.240258 238.474911 
L 200.124746 238.404725 
L 197.891704 236.032662 
L 195.90394 238.567641 
L 194.278981 237.817915 
L 192.638692 236.828168 
L 190.814446 237.057036 
L 188.704043 238.829564 
L 186.690729 236.906357 
L 185.04533 238.127704 
L 183.108665 238.780841 
L 181.335518 238.466861 
L 179.613471 238.652076 
L 178.208239 238.313135 
L 176.56284 237.292559 
L 174.738594 235.856295 
L 173.185174 238.378753 
L 171.493785 238.1862 
L 167.824853 238.418458 
L 166.148795 238.344513 
L 164.523836 237.907946 
L 162.995965 238.948875 
L 164.084381 237.685524 
L 162.341894 238.841034 
L 160.808914 238.240565 
L 159.086866 238.45262 
L 157.615205 238.835174 
L 155.923817 238.176467 
L 153.777644 241.898636 
L 152.106696 242.58914 
L 148.68815 241.830785 
L 146.679946 242.021112 
L 144.947678 242.566984 
L 143.450468 240.643293 
L 141.845949 242.634282 
L 139.842854 242.006712 
L 138.585811 242.507366 
L 137.165249 242.649782 
L 135.800897 242.225361 
L 134.395665 240.584825 
L 133.22038 242.271133 
L 131.871357 242.01662 
L 130.481455 242.737123 
L 129.045564 242.128503 
L 127.579013 242.260516 
L 125.984713 242.638156 
L 124.68168 241.702952 
L 123.547275 242.388724 
L 122.264682 242.642165 
L 120.706152 241.698092 
L 119.229381 242.762964 
L 117.987667 240.107186 
L 116.858371 239.662135 
L 115.754626 242.555642 
L 114.64577 242.111825 
L 113.649333 242.0605 
L 112.586467 247.483042 
L 111.590029 246.619481 
L 110.721341 246.794166 
L 109.735123 247.600503 
L 108.636488 247.671041 
L 109.065722 247.493112 
L 108.145934 246.758435 
L 107.297685 247.777167 
L 106.428996 247.567606 
L 105.534758 247.88335 
L 104.686509 247.686127 
L 102.662975 247.482312 
L 99.852511 247.587488 
L 98.41151 246.817951 
L 96.944959 247.589096 
L 95.902532 246.190031 
L 94.614829 247.531807 
L 93.362895 244.260765 
L 92.126291 251.23273 
L 90.056768 251.45631 
L 89.13187 251.402837 
L 88.426699 250.225609 
L 87.747077 251.291042 
L 86.362285 250.49335 
L 85.759313 251.438271 
L 84.875295 252.001367 
L 83.996386 250.68407 
L 83.332095 250.902784 
L 82.795551 251.431057 
L 82.069941 251.818185 
L 82.13126 251.41867 
L 81.855324 251.518944 
L 81.650926 259.302043 
L 81.34433 260.925834 
L 81.068394 261.10302 
L 80.58806 260.161683 
L 80.255914 260.807964 
L 79.923769 261.161773 
L 78.932441 261.008848 
L 79.407665 260.662512 
L 79.07041 261.104329 
L 78.661615 261.12266 
L 78.012653 259.361617 
L 77.890015 261.020424 
L 77.5221 260.943918 
L 77.471 255.70413 
L 77.184844 255.760774 
L 76.903798 261.054232 
L 76.7505 261.009221 
L 76.438794 266.091 
L 76.295715 265.948243 
L 76.127088 265.403546 
L 76.055549 266.129308 
L 75.835821 265.989928 
L 75.718293 264.873811 
L 75.549665 265.297876 
L 75.473016 265.942525 
L 75.018232 265.410423 
L 74.829164 265.362102 
L 74.645207 264.176209 
L 74.548118 265.347352 
L 74.261962 265.914551 
L 74.180203 264.56442 
L 74.159763 265.898632 
L 74.057564 265.38838 
L 73.960476 266.026734 
L 73.894046 273.3264 
L 73.832727 271.722405 
" clip-path="url(#p33d6529d2e)" style="fill: none; stroke: #ff7f0e; stroke-width: 1.5; stroke-linecap: square"/>
   </g>
   <g id="line2d_27">
    <path d="M 398.487273 237.011909 
L 398.078478 237.222655 
L 396.749895 237.182837 
L 396.305331 236.878196 
L 395.804557 236.842234 
L 395.252685 237.271712 
L 394.762131 236.690344 
L 394.205148 237.106428 
L 393.571516 237.098213 
L 392.866345 236.754411 
L 392.191834 236.734727 
L 391.456004 236.895043 
L 390.720173 236.487839 
L 389.974123 237.258262 
L 389.192303 236.91936 
L 388.395153 237.143047 
L 387.623553 236.869173 
L 386.872393 236.907561 
L 385.927055 236.623957 
L 385.145235 237.177393 
L 382.44208 236.98707 
L 381.348554 237.259595 
L 380.347007 236.854138 
L 379.212602 237.168683 
L 376.882472 236.380069 
L 375.819606 237.198204 
L 374.516572 236.884092 
L 373.290188 237.224471 
L 371.930946 236.961398 
L 369.243121 237.250025 
L 367.934977 237.163362 
L 366.504196 236.843316 
L 365.037645 236.913942 
L 363.617083 237.142322 
L 362.155642 236.797644 
L 360.387605 236.881445 
L 358.665557 237.16445 
L 356.948619 237.213576 
L 355.308331 236.97827 
L 353.703811 236.867128 
L 351.864235 236.929354 
L 350.126858 237.137003 
L 346.284187 237.218176 
L 344.562139 236.955614 
L 340.791008 237.182958 
L 338.849233 236.842955 
L 337.065866 237.228709 
L 335.052552 236.768818 
L 333.141437 237.158524 
L 331.112793 237.269288 
L 328.930851 237.172675 
L 326.820449 237.226409 
L 324.771365 236.779866 
L 322.671182 237.134585 
L 320.816276 236.952481 
L 318.741643 234.08111 
L 316.554591 237.03109 
L 314.112043 236.91635 
L 311.960761 237.157799 
L 309.645961 237.183684 
L 307.39759 226.128116 
L 305.307627 237.251236 
L 303.304532 236.234206 
L 301.025502 236.225526 
L 298.83334 237.237913 
L 296.620739 236.807857 
L 294.387698 237.241667 
L 292.154657 236.211855 
L 289.936945 236.834178 
L 287.540386 237.177393 
L 285.164267 236.788154 
L 280.687965 236.891433 
L 278.664431 237.191306 
L 272.297453 237.200504 
L 270.135951 236.868813 
L 268.183956 237.26117 
L 266.216632 236.364929 
L 264.121559 234.584688 
L 261.908957 236.853176 
L 259.752565 237.164692 
L 257.734141 237.226167 
L 255.53176 232.651617 
L 253.462236 237.22435 
L 251.530681 236.838747 
L 249.548027 236.595461 
L 247.360975 236.847885 
L 245.362991 236.292148 
L 243.528525 237.193606 
L 241.336363 236.934051 
L 239.430358 237.199898 
L 237.539682 240.090217 
L 235.592797 240.079121 
L 233.584593 240.500967 
L 230.855889 239.566025 
L 228.786365 240.468718 
L 224.729078 240.482977 
L 222.352958 239.299695 
L 220.441843 240.517548 
L 218.832214 240.544809 
L 217.064177 238.241428 
L 215.326799 238.086732 
L 213.763159 240.412617 
L 211.714076 239.522704 
L 206.251556 240.351446 
L 204.182033 240.450353 
L 202.240258 239.737497 
L 200.124746 240.430583 
L 197.891704 240.410179 
L 195.90394 237.212365 
L 194.278981 240.333633 
L 192.638692 240.540308 
L 190.814446 240.484262 
L 188.704043 239.570195 
L 186.690729 240.537864 
L 185.04533 239.564509 
L 183.108665 240.329149 
L 181.335518 240.370803 
L 179.613471 237.461323 
L 178.208239 237.407238 
L 176.56284 239.689228 
L 174.738594 240.389782 
L 173.185174 238.22515 
L 171.493785 240.548925 
L 169.62355 239.054675 
L 167.824853 240.27895 
L 164.523836 240.499039 
L 162.995965 236.239201 
L 164.084381 240.347857 
L 162.341894 235.418952 
L 160.808914 239.469453 
L 159.086866 240.558573 
L 157.615205 240.260137 
L 155.923817 240.457159 
L 153.777644 243.690938 
L 152.106696 243.945822 
L 148.68815 243.538194 
L 146.679946 243.504112 
L 144.947678 243.907247 
L 143.450468 243.922838 
L 141.845949 240.977261 
L 139.842854 243.559659 
L 138.585811 243.715052 
L 137.165249 243.755946 
L 135.800897 243.580996 
L 134.395665 243.936518 
L 133.22038 240.710466 
L 131.871357 240.115863 
L 130.481455 243.360685 
L 125.984713 243.975797 
L 124.68168 243.898496 
L 123.547275 243.977851 
L 122.264682 243.720639 
L 120.706152 243.98059 
L 119.229381 243.688487 
L 117.987667 241.576202 
L 116.858371 241.911557 
L 115.754626 243.692437 
L 114.64577 242.914505 
L 113.649333 243.549333 
L 112.586467 247.718509 
L 111.590029 247.634444 
L 110.721341 246.697258 
L 109.735123 247.369763 
L 108.636488 243.680043 
L 109.065722 247.494426 
L 108.145934 247.611765 
L 107.297685 247.32769 
L 106.428996 243.84165 
L 105.534758 247.455028 
L 104.686509 247.596846 
L 103.79227 247.294083 
L 102.662975 247.631371 
L 99.852511 247.465823 
L 98.41151 247.54963 
L 96.944959 247.792721 
L 95.902532 246.657134 
L 94.614829 247.722319 
L 93.362895 247.557667 
L 92.126291 251.541095 
L 90.741499 247.853075 
L 90.056768 251.679702 
L 88.426699 251.618615 
L 87.747077 250.179604 
L 86.362285 246.588602 
L 85.759313 251.577719 
L 84.875295 248.744322 
L 84.563589 251.404561 
L 83.996386 251.595804 
L 83.332095 247.952929 
L 82.795551 251.490365 
L 82.069941 251.638288 
L 82.13126 251.242731 
L 81.855324 251.246169 
L 81.650926 255.872195 
L 81.068394 255.883758 
L 80.58806 254.856245 
L 80.255914 255.867775 
L 78.932441 255.916929 
L 79.407665 250.534835 
L 79.07041 255.562778 
L 78.012653 255.910974 
L 77.890015 255.897364 
L 77.5221 255.440509 
L 77.471 255.58882 
L 77.184844 248.996671 
L 76.903798 255.43528 
L 76.7505 255.702774 
L 76.438794 260.524846 
L 76.295715 260.199565 
L 76.127088 260.498205 
L 76.055549 260.037369 
L 75.835821 260.485445 
L 75.718293 260.394724 
L 75.549665 260.464553 
L 75.473016 260.088015 
L 75.018232 260.470653 
L 74.057564 260.469359 
L 74.021795 260.057365 
L 73.960476 260.493582 
L 73.894046 265.508002 
L 73.832727 264.397963 
" clip-path="url(#p33d6529d2e)" style="fill: none; stroke: #2ca02c; stroke-width: 1.5; stroke-linecap: square"/>
   </g>
   <g id="patch_3">
    <path d="M 57.6 284.5152 
L 57.6 38.3616 
" style="fill: none; stroke: #000000; stroke-width: 0.8; stroke-linejoin: miter; stroke-linecap: square"/>
   </g>
   <g id="patch_4">
    <path d="M 414.72 284.5152 
L 414.72 38.3616 
" style="fill: none; stroke: #000000; stroke-width: 0.8; stroke-linejoin: miter; stroke-linecap: square"/>
   </g>
   <g id="patch_5">
    <path d="M 57.6 284.5152 
L 414.72 284.5152 
" style="fill: none; stroke: #000000; stroke-width: 0.8; stroke-linejoin: miter; stroke-linecap: square"/>
   </g>
   <g id="patch_6">
    <path d="M 57.6 38.3616 
L 414.72 38.3616 
" style="fill: none; stroke: #000000; stroke-width: 0.8; stroke-linejoin: miter; stroke-linecap: square"/>
   </g>
   <g id="text_12">
    <!-- Scaling of CC on mixed queries -->
    <g transform="translate(142.628438 32.3616) scale(0.12 -0.12)">
     <defs>
      <path id="DejaVuSans-53" d="M 3425 4513 
L 3425 3897 
Q 3066 4069 2747 4153 
Q 2428 4238 2131 4238 
Q 1616 4238 1336 4038 
Q 1056 3838 1056 3469 
Q 1056 3159 1242 3001 
Q 1428 2844 1947 2747 
L 2328 2669 
Q 3034 2534 3370 2195 
Q 3706 1856 3706 1288 
Q 3706 609 3251 259 
Q 2797 -91 1919 -91 
Q 1588 -91 1214 -16 
Q 841 59 441 206 
L 441 856 
Q 825 641 1194 531 
Q 1563 422 1919 422 
Q 2459 422 2753 634 
Q 3047 847 3047 1241 
Q 3047 1584 2836 1778 
Q 2625 1972 2144 2069 
L 1759 2144 
Q 1053 2284 737 2584 
Q 422 2884 422 3419 
Q 422 4038 858 4394 
Q 1294 4750 2059 4750 
Q 2388 4750 2728 4690 
Q 3069 4631 3425 4513 
z
" transform="scale(0.015625)"/>
      <path id="DejaVuSans-61" d="M 2194 1759 
Q 1497 1759 1228 1600 
Q 959 1441 959 1056 
Q 959 750 1161 570 
Q 1363 391 1709 391 
Q 2188 391 2477 730 
Q 2766 1069 2766 1631 
L 2766 1759 
L 2194 1759 
z
M 3341 1997 
L 3341 0 
L 2766 0 
L 2766 531 
Q 2569 213 2275 61 
Q 1981 -91 1556 -91 
Q 1019 -91 701 211 
Q 384 513 384 1019 
Q 384 1609 779 1909 
Q 1175 2209 1959 2209 
L 2766 2209 
L 2766 2266 
Q 2766 2663 2505 2880 
Q 2244 3097 1772 3097 
Q 1472 3097 1187 3025 
Q 903 2953 641 2809 
L 641 3341 
Q 956 3463 1253 3523 
Q 1550 3584 1831 3584 
Q 2591 3584 2966 3190 
Q 3341 2797 3341 1997 
z
" transform="scale(0.015625)"/>
      <path id="DejaVuSans-67" d="M 2906 1791 
Q 2906 2416 2648 2759 
Q 2391 3103 1925 3103 
Q 1463 3103 1205 2759 
Q 947 2416 947 1791 
Q 947 1169 1205 825 
Q 1463 481 1925 481 
Q 2391 481 2648 825 
Q 2906 1169 2906 1791 
z
M 3481 434 
Q 3481 -459 3084 -895 
Q 2688 -1331 1869 -1331 
Q 1566 -1331 1297 -1286 
Q 1028 -1241 775 -1147 
L 775 -588 
Q 1028 -725 1275 -790 
Q 1522 -856 1778 -856 
Q 2344 -856 2625 -561 
Q 2906 -266 2906 331 
L 2906 616 
Q 2728 306 2450 153 
Q 2172 0 1784 0 
Q 1141 0 747 490 
Q 353 981 353 1791 
Q 353 2603 747 3093 
Q 1141 3584 1784 3584 
Q 2172 3584 2450 3431 
Q 2728 3278 2906 2969 
L 2906 3500 
L 3481 3500 
L 3481 434 
z
" transform="scale(0.015625)"/>
      <path id="DejaVuSans-43" d="M 4122 4306 
L 4122 3641 
Q 3803 3938 3442 4084 
Q 3081 4231 2675 4231 
Q 1875 4231 1450 3742 
Q 1025 3253 1025 2328 
Q 1025 1406 1450 917 
Q 1875 428 2675 428 
Q 3081 428 3442 575 
Q 3803 722 4122 1019 
L 4122 359 
Q 3791 134 3420 21 
Q 3050 -91 2638 -91 
Q 1578 -91 968 557 
Q 359 1206 359 2328 
Q 359 3453 968 4101 
Q 1578 4750 2638 4750 
Q 3056 4750 3426 4639 
Q 3797 4528 4122 4306 
z
" transform="scale(0.015625)"/>
      <path id="DejaVuSans-78" d="M 3513 3500 
L 2247 1797 
L 3578 0 
L 2900 0 
L 1881 1375 
L 863 0 
L 184 0 
L 1544 1831 
L 300 3500 
L 978 3500 
L 1906 2253 
L 2834 3500 
L 3513 3500 
z
" transform="scale(0.015625)"/>
      <path id="DejaVuSans-71" d="M 947 1747 
Q 947 1113 1208 752 
Q 1469 391 1925 391 
Q 2381 391 2643 752 
Q 2906 1113 2906 1747 
Q 2906 2381 2643 2742 
Q 2381 3103 1925 3103 
Q 1469 3103 1208 2742 
Q 947 2381 947 1747 
z
M 2906 525 
Q 2725 213 2448 61 
Q 2172 -91 1784 -91 
Q 1150 -91 751 415 
Q 353 922 353 1747 
Q 353 2572 751 3078 
Q 1150 3584 1784 3584 
Q 2172 3584 2448 3432 
Q 2725 3281 2906 2969 
L 2906 3500 
L 3481 3500 
L 3481 -1331 
L 2906 -1331 
L 2906 525 
z
" transform="scale(0.015625)"/>
     </defs>
     <use xlink:href="#DejaVuSans-53"/>
     <use xlink:href="#DejaVuSans-63" x="63.476562"/>
     <use xlink:href="#DejaVuSans-61" x="118.457031"/>
     <use xlink:href="#DejaVuSans-6c" x="179.736328"/>
     <use xlink:href="#DejaVuSans-69" x="207.519531"/>
     <use xlink:href="#DejaVuSans-6e" x="235.302734"/>
     <use xlink:href="#DejaVuSans-67" x="298.681641"/>
     <use xlink:href="#DejaVuSans-20" x="362.158203"/>
     <use xlink:href="#DejaVuSans-6f" x="393.945312"/>
     <use xlink:href="#DejaVuSans-66" x="455.126953"/>
     <use xlink:href="#DejaVuSans-20" x="490.332031"/>
     <use xlink:href="#DejaVuSans-43" x="522.119141"/>
     <use xlink:href="#DejaVuSans-43" x="591.943359"/>
     <use xlink:href="#DejaVuSans-20" x="661.767578"/>
     <use xlink:href="#DejaVuSans-6f" x="693.554688"/>
     <use xlink:href="#DejaVuSans-6e" x="754.736328"/>
     <use xlink:href="#DejaVuSans-20" x="818.115234"/>
     <use xlink:href="#DejaVuSans-6d" x="849.902344"/>
     <use xlink:href="#DejaVuSans-69" x="947.314453"/>
     <use xlink:href="#DejaVuSans-78" x="975.097656"/>
     <use xlink:href="#DejaVuSans-65" x="1031.152344"/>
     <use xlink:href="#DejaVuSans-64" x="1092.675781"/>
     <use xlink:href="#DejaVuSans-20" x="1156.152344"/>
     <use xlink:href="#DejaVuSans-71" x="1187.939453"/>
     <use xlink:href="#DejaVuSans-75" x="1251.416016"/>
     <use xlink:href="#DejaVuSans-65" x="1314.794922"/>
     <use xlink:href="#DejaVuSans-72" x="1376.318359"/>
     <use xlink:href="#DejaVuSans-69" x="1417.431641"/>
     <use xlink:href="#DejaVuSans-65" x="1445.214844"/>
     <use xlink:href="#DejaVuSans-73" x="1506.738281"/>
    </g>
   </g>
   <g id="legend_1">
    <g id="patch_7">
     <path d="M 64.6 90.395975 
L 221.35625 90.395975 
Q 223.35625 90.395975 223.35625 88.395975 
L 223.35625 45.3616 
Q 223.35625 43.3616 221.35625 43.3616 
L 64.6 43.3616 
Q 62.6 43.3616 62.6 45.3616 
L 62.6 88.395975 
Q 62.6 90.395975 64.6 90.395975 
z
" style="fill: #ffffff; opacity: 0.8; stroke: #cccccc; stroke-linejoin: miter"/>
    </g>
    <g id="line2d_28">
     <path d="M 66.6 51.460037 
L 76.6 51.460037 
L 86.6 51.460037 
" style="fill: none; stroke: #1f77b4; stroke-width: 1.5; stroke-linecap: square"/>
    </g>
    <g id="text_13">
     <!-- kiddo (k-d tree) -->
     <g transform="translate(94.6 54.960037) scale(0.1 -0.1)">
      <defs>
       <path id="DejaVuSans-6b" d="M 581 4863 
L 1159 4863 
L 1159 1991 
L 2875 3500 
L 3609 3500 
L 1753 1863 
L 3688 0 
L 2938 0 
L 1159 1709 
L 1159 0 
L 581 0 
L 581 4863 
z
" transform="scale(0.015625)"/>
       <path id="DejaVuSans-2d" d="M 313 2009 
L 1997 2009 
L 1997 1497 
L 313 1497 
L 313 2009 
z
" transform="scale(0.015625)"/>
      </defs>
      <use xlink:href="#DejaVuSans-6b"/>
      <use xlink:href="#DejaVuSans-69" x="57.910156"/>
      <use xlink:href="#DejaVuSans-64" x="85.693359"/>
      <use xlink:href="#DejaVuSans-64" x="149.169922"/>
      <use xlink:href="#DejaVuSans-6f" x="212.646484"/>
      <use xlink:href="#DejaVuSans-20" x="273.828125"/>
      <use xlink:href="#DejaVuSans-28" x="305.615234"/>
      <use xlink:href="#DejaVuSans-6b" x="344.628906"/>
      <use xlink:href="#DejaVuSans-2d" x="402.539062"/>
      <use xlink:href="#DejaVuSans-64" x="438.623047"/>
      <use xlink:href="#DejaVuSans-20" x="502.099609"/>
      <use xlink:href="#DejaVuSans-74" x="533.886719"/>
      <use xlink:href="#DejaVuSans-72" x="573.095703"/>
      <use xlink:href="#DejaVuSans-65" x="611.958984"/>
      <use xlink:href="#DejaVuSans-65" x="673.482422"/>
      <use xlink:href="#DejaVuSans-29" x="735.005859"/>
     </g>
    </g>
    <g id="line2d_29">
     <path d="M 66.6 66.138162 
L 76.6 66.138162 
L 86.6 66.138162 
" style="fill: none; stroke: #ff7f0e; stroke-width: 1.5; stroke-linecap: square"/>
    </g>
    <g id="text_14">
     <!-- forward tree (sequential) -->
     <g transform="translate(94.6 69.638162) scale(0.1 -0.1)">
      <defs>
       <path id="DejaVuSans-77" d="M 269 3500 
L 844 3500 
L 1563 769 
L 2278 3500 
L 2956 3500 
L 3675 769 
L 4391 3500 
L 4966 3500 
L 4050 0 
L 3372 0 
L 2619 2869 
L 1863 0 
L 1184 0 
L 269 3500 
z
" transform="scale(0.015625)"/>
      </defs>
      <use xlink:href="#DejaVuSans-66"/>
      <use xlink:href="#DejaVuSans-6f" x="35.205078"/>
      <use xlink:href="#DejaVuSans-72" x="96.386719"/>
      <use xlink:href="#DejaVuSans-77" x="137.5"/>
      <use xlink:href="#DejaVuSans-61" x="219.287109"/>
      <use xlink:href="#DejaVuSans-72" x="280.566406"/>
      <use xlink:href="#DejaVuSans-64" x="319.929688"/>
      <use xlink:href="#DejaVuSans-20" x="383.40625"/>
      <use xlink:href="#DejaVuSans-74" x="415.193359"/>
      <use xlink:href="#DejaVuSans-72" x="454.402344"/>
      <use xlink:href="#DejaVuSans-65" x="493.265625"/>
      <use xlink:href="#DejaVuSans-65" x="554.789062"/>
      <use xlink:href="#DejaVuSans-20" x="616.3125"/>
      <use xlink:href="#DejaVuSans-28" x="648.099609"/>
      <use xlink:href="#DejaVuSans-73" x="687.113281"/>
      <use xlink:href="#DejaVuSans-65" x="739.212891"/>
      <use xlink:href="#DejaVuSans-71" x="800.736328"/>
      <use xlink:href="#DejaVuSans-75" x="864.212891"/>
      <use xlink:href="#DejaVuSans-65" x="927.591797"/>
      <use xlink:href="#DejaVuSans-6e" x="989.115234"/>
      <use xlink:href="#DejaVuSans-74" x="1052.494141"/>
      <use xlink:href="#DejaVuSans-69" x="1091.703125"/>
      <use xlink:href="#DejaVuSans-61" x="1119.486328"/>
      <use xlink:href="#DejaVuSans-6c" x="1180.765625"/>
      <use xlink:href="#DejaVuSans-29" x="1208.548828"/>
     </g>
    </g>
    <g id="line2d_30">
     <path d="M 66.6 80.816287 
L 76.6 80.816287 
L 86.6 80.816287 
" style="fill: none; stroke: #2ca02c; stroke-width: 1.5; stroke-linecap: square"/>
    </g>
    <g id="text_15">
     <!-- forward tree (SIMD) -->
     <g transform="translate(94.6 84.316287) scale(0.1 -0.1)">
      <defs>
       <path id="DejaVuSans-49" d="M 628 4666 
L 1259 4666 
L 1259 0 
L 628 0 
L 628 4666 
z
" transform="scale(0.015625)"/>
       <path id="DejaVuSans-4d" d="M 628 4666 
L 1569 4666 
L 2759 1491 
L 3956 4666 
L 4897 4666 
L 4897 0 
L 4281 0 
L 4281 4097 
L 3078 897 
L 2444 897 
L 1241 4097 
L 1241 0 
L 628 0 
L 628 4666 
z
" transform="scale(0.015625)"/>
       <path id="DejaVuSans-44" d="M 1259 4147 
L 1259 519 
L 2022 519 
Q 2988 519 3436 956 
Q 3884 1394 3884 2338 
Q 3884 3275 3436 3711 
Q 2988 4147 2022 4147 
L 1259 4147 
z
M 628 4666 
L 1925 4666 
Q 3281 4666 3915 4102 
Q 4550 3538 4550 2338 
Q 4550 1131 3912 565 
Q 3275 0 1925 0 
L 628 0 
L 628 4666 
z
" transform="scale(0.015625)"/>
      </defs>
      <use xlink:href="#DejaVuSans-66"/>
      <use xlink:href="#DejaVuSans-6f" x="35.205078"/>
      <use xlink:href="#DejaVuSans-72" x="96.386719"/>
      <use xlink:href="#DejaVuSans-77" x="137.5"/>
      <use xlink:href="#DejaVuSans-61" x="219.287109"/>
      <use xlink:href="#DejaVuSans-72" x="280.566406"/>
      <use xlink:href="#DejaVuSans-64" x="319.929688"/>
      <use xlink:href="#DejaVuSans-20" x="383.40625"/>
      <use xlink:href="#DejaVuSans-74" x="415.193359"/>
      <use xlink:href="#DejaVuSans-72" x="454.402344"/>
      <use xlink:href="#DejaVuSans-65" x="493.265625"/>
      <use xlink:href="#DejaVuSans-65" x="554.789062"/>
      <use xlink:href="#DejaVuSans-20" x="616.3125"/>
      <use xlink:href="#DejaVuSans-28" x="648.099609"/>
      <use xlink:href="#DejaVuSans-53" x="687.113281"/>
      <use xlink:href="#DejaVuSans-49" x="750.589844"/>
      <use xlink:href="#DejaVuSans-4d" x="780.082031"/>
      <use xlink:href="#DejaVuSans-44" x="866.361328"/>
      <use xlink:href="#DejaVuSans-29" x="943.363281"/>
     </g>
    </g>
   </g>
  </g>
 </g>
 <defs>
  <clipPath id="p33d6529d2e">
   <rect x="57.6" y="38.3616" width="357.12" height="246.1536"/>
  </clipPath>
 </defs>
</svg>
