<?xml version="1.0" encoding="utf-8" standalone="no"?>
<!DOCTYPE svg PUBLIC "-//W3C//DTD SVG 1.1//EN"
  "http://www.w3.org/Graphics/SVG/1.1/DTD/svg11.dtd">
<svg xmlns:xlink="http://www.w3.org/1999/xlink" width="460.8pt" height="319.68pt" viewBox="0 0 460.8 319.68" xmlns="http://www.w3.org/2000/svg" version="1.1">
 <metadata>
  <rdf:RDF xmlns:dc="http://purl.org/dc/elements/1.1/" xmlns:cc="http://creativecommons.org/ns#" xmlns:rdf="http://www.w3.org/1999/02/22-rdf-syntax-ns#">
   <cc:Work>
    <dc:type rdf:resource="http://purl.org/dc/dcmitype/StillImage"/>
    <dc:date>2024-01-09T09:49:21.428033</dc:date>
    <dc:format>image/svg+xml</dc:format>
    <dc:creator>
     <cc:Agent>
      <dc:title>Matplotlib v3.8.2, https://matplotlib.org/</dc:title>
     </cc:Agent>
    </dc:creator>
   </cc:Work>
  </rdf:RDF>
 </metadata>
 <defs>
  <style type="text/css">*{stroke-linejoin: round; stroke-linecap: butt}</style>
 </defs>
 <g id="figure_1">
  <g id="patch_1">
  </g>
  <g id="axes_1">
   <g id="patch_2">
   </g>
   <g id="matplotlib.axis_1">
    <g id="xtick_1">
     <g id="line2d_1">
      <defs>
       <path id="mf41c32bfe9" d="M 0 0 
L 0 3.5 
" style="stroke: #000000; stroke-width: 0.8"/>
      </defs>
      <g>
       <use xlink:href="#mf41c32bfe9" x="72.55456" y="284.5152" style="stroke: #000000; stroke-width: 0.8"/>
      </g>
     </g>
     <g id="text_1">
      <!-- 0 -->
      <g transform="translate(69.37331 299.113637) scale(0.1 -0.1)">
       <defs>
        <path id="DejaVuSans-30" d="M 2034 4250 
Q 1547 4250 1301 3770 
Q 1056 3291 1056 2328 
Q 1056 1369 1301 889 
Q 1547 409 2034 409 
Q 2525 409 2770 889 
Q 3016 1369 3016 2328 
Q 3016 3291 2770 3770 
Q 2525 4250 2034 4250 
z
M 2034 4750 
Q 2819 4750 3233 4129 
Q 3647 3509 3647 2328 
Q 3647 1150 3233 529 
Q 2819 -91 2034 -91 
Q 1250 -91 836 529 
Q 422 1150 422 2328 
Q 422 3509 836 4129 
Q 1250 4750 2034 4750 
z
" transform="scale(0.015625)"/>
       </defs>
       <use xlink:href="#DejaVuSans-30"/>
      </g>
     </g>
    </g>
    <g id="xtick_2">
     <g id="line2d_2">
      <g>
       <use xlink:href="#mf41c32bfe9" x="122.482978" y="284.5152" style="stroke: #000000; stroke-width: 0.8"/>
      </g>
     </g>
     <g id="text_2">
      <!-- 10000 -->
      <g transform="translate(106.576728 299.113637) scale(0.1 -0.1)">
       <defs>
        <path id="DejaVuSans-31" d="M 794 531 
L 1825 531 
L 1825 4091 
L 703 3866 
L 703 4441 
L 1819 4666 
L 2450 4666 
L 2450 531 
L 3481 531 
L 3481 0 
L 794 0 
L 794 531 
z
" transform="scale(0.015625)"/>
       </defs>
       <use xlink:href="#DejaVuSans-31"/>
       <use xlink:href="#DejaVuSans-30" x="63.623047"/>
       <use xlink:href="#DejaVuSans-30" x="127.246094"/>
       <use xlink:href="#DejaVuSans-30" x="190.869141"/>
       <use xlink:href="#DejaVuSans-30" x="254.492188"/>
      </g>
     </g>
    </g>
    <g id="xtick_3">
     <g id="line2d_3">
      <g>
       <use xlink:href="#mf41c32bfe9" x="172.411396" y="284.5152" style="stroke: #000000; stroke-width: 0.8"/>
      </g>
     </g>
     <g id="text_3">
      <!-- 20000 -->
      <g transform="translate(156.505146 299.113637) scale(0.1 -0.1)">
       <defs>
        <path id="DejaVuSans-32" d="M 1228 531 
L 3431 531 
L 3431 0 
L 469 0 
L 469 531 
Q 828 903 1448 1529 
Q 2069 2156 2228 2338 
Q 2531 2678 2651 2914 
Q 2772 3150 2772 3378 
Q 2772 3750 2511 3984 
Q 2250 4219 1831 4219 
Q 1534 4219 1204 4116 
Q 875 4013 500 3803 
L 500 4441 
Q 881 4594 1212 4672 
Q 1544 4750 1819 4750 
Q 2544 4750 2975 4387 
Q 3406 4025 3406 3419 
Q 3406 3131 3298 2873 
Q 3191 2616 2906 2266 
Q 2828 2175 2409 1742 
Q 1991 1309 1228 531 
z
" transform="scale(0.015625)"/>
       </defs>
       <use xlink:href="#DejaVuSans-32"/>
       <use xlink:href="#DejaVuSans-30" x="63.623047"/>
       <use xlink:href="#DejaVuSans-30" x="127.246094"/>
       <use xlink:href="#DejaVuSans-30" x="190.869141"/>
       <use xlink:href="#DejaVuSans-30" x="254.492188"/>
      </g>
     </g>
    </g>
    <g id="xtick_4">
     <g id="line2d_4">
      <g>
       <use xlink:href="#mf41c32bfe9" x="222.339814" y="284.5152" style="stroke: #000000; stroke-width: 0.8"/>
      </g>
     </g>
     <g id="text_4">
      <!-- 30000 -->
      <g transform="translate(206.433564 299.113637) scale(0.1 -0.1)">
       <defs>
        <path id="DejaVuSans-33" d="M 2597 2516 
Q 3050 2419 3304 2112 
Q 3559 1806 3559 1356 
Q 3559 666 3084 287 
Q 2609 -91 1734 -91 
Q 1441 -91 1130 -33 
Q 819 25 488 141 
L 488 750 
Q 750 597 1062 519 
Q 1375 441 1716 441 
Q 2309 441 2620 675 
Q 2931 909 2931 1356 
Q 2931 1769 2642 2001 
Q 2353 2234 1838 2234 
L 1294 2234 
L 1294 2753 
L 1863 2753 
Q 2328 2753 2575 2939 
Q 2822 3125 2822 3475 
Q 2822 3834 2567 4026 
Q 2313 4219 1838 4219 
Q 1578 4219 1281 4162 
Q 984 4106 628 3988 
L 628 4550 
Q 988 4650 1302 4700 
Q 1616 4750 1894 4750 
Q 2613 4750 3031 4423 
Q 3450 4097 3450 3541 
Q 3450 3153 3228 2886 
Q 3006 2619 2597 2516 
z
" transform="scale(0.015625)"/>
       </defs>
       <use xlink:href="#DejaVuSans-33"/>
       <use xlink:href="#DejaVuSans-30" x="63.623047"/>
       <use xlink:href="#DejaVuSans-30" x="127.246094"/>
       <use xlink:href="#DejaVuSans-30" x="190.869141"/>
       <use xlink:href="#DejaVuSans-30" x="254.492188"/>
      </g>
     </g>
    </g>
    <g id="xtick_5">
     <g id="line2d_5">
      <g>
       <use xlink:href="#mf41c32bfe9" x="272.268232" y="284.5152" style="stroke: #000000; stroke-width: 0.8"/>
      </g>
     </g>
     <g id="text_5">
      <!-- 40000 -->
      <g transform="translate(256.361982 299.113637) scale(0.1 -0.1)">
       <defs>
        <path id="DejaVuSans-34" d="M 2419 4116 
L 825 1625 
L 2419 1625 
L 2419 4116 
z
M 2253 4666 
L 3047 4666 
L 3047 1625 
L 3713 1625 
L 3713 1100 
L 3047 1100 
L 3047 0 
L 2419 0 
L 2419 1100 
L 313 1100 
L 313 1709 
L 2253 4666 
z
" transform="scale(0.015625)"/>
       </defs>
       <use xlink:href="#DejaVuSans-34"/>
       <use xlink:href="#DejaVuSans-30" x="63.623047"/>
       <use xlink:href="#DejaVuSans-30" x="127.246094"/>
       <use xlink:href="#DejaVuSans-30" x="190.869141"/>
       <use xlink:href="#DejaVuSans-30" x="254.492188"/>
      </g>
     </g>
    </g>
    <g id="xtick_6">
     <g id="line2d_6">
      <g>
       <use xlink:href="#mf41c32bfe9" x="322.19665" y="284.5152" style="stroke: #000000; stroke-width: 0.8"/>
      </g>
     </g>
     <g id="text_6">
      <!-- 50000 -->
      <g transform="translate(306.2904 299.113637) scale(0.1 -0.1)">
       <defs>
        <path id="DejaVuSans-35" d="M 691 4666 
L 3169 4666 
L 3169 4134 
L 1269 4134 
L 1269 2991 
Q 1406 3038 1543 3061 
Q 1681 3084 1819 3084 
Q 2600 3084 3056 2656 
Q 3513 2228 3513 1497 
Q 3513 744 3044 326 
Q 2575 -91 1722 -91 
Q 1428 -91 1123 -41 
Q 819 9 494 109 
L 494 744 
Q 775 591 1075 516 
Q 1375 441 1709 441 
Q 2250 441 2565 725 
Q 2881 1009 2881 1497 
Q 2881 1984 2565 2268 
Q 2250 2553 1709 2553 
Q 1456 2553 1204 2497 
Q 953 2441 691 2322 
L 691 4666 
z
" transform="scale(0.015625)"/>
       </defs>
       <use xlink:href="#DejaVuSans-35"/>
       <use xlink:href="#DejaVuSans-30" x="63.623047"/>
       <use xlink:href="#DejaVuSans-30" x="127.246094"/>
       <use xlink:href="#DejaVuSans-30" x="190.869141"/>
       <use xlink:href="#DejaVuSans-30" x="254.492188"/>
      </g>
     </g>
    </g>
    <g id="xtick_7">
     <g id="line2d_7">
      <g>
       <use xlink:href="#mf41c32bfe9" x="372.125068" y="284.5152" style="stroke: #000000; stroke-width: 0.8"/>
      </g>
     </g>
     <g id="text_7">
      <!-- 60000 -->
      <g transform="translate(356.218818 299.113637) scale(0.1 -0.1)">
       <defs>
        <path id="DejaVuSans-36" d="M 2113 2584 
Q 1688 2584 1439 2293 
Q 1191 2003 1191 1497 
Q 1191 994 1439 701 
Q 1688 409 2113 409 
Q 2538 409 2786 701 
Q 3034 994 3034 1497 
Q 3034 2003 2786 2293 
Q 2538 2584 2113 2584 
z
M 3366 4563 
L 3366 3988 
Q 3128 4100 2886 4159 
Q 2644 4219 2406 4219 
Q 1781 4219 1451 3797 
Q 1122 3375 1075 2522 
Q 1259 2794 1537 2939 
Q 1816 3084 2150 3084 
Q 2853 3084 3261 2657 
Q 3669 2231 3669 1497 
Q 3669 778 3244 343 
Q 2819 -91 2113 -91 
Q 1303 -91 875 529 
Q 447 1150 447 2328 
Q 447 3434 972 4092 
Q 1497 4750 2381 4750 
Q 2619 4750 2861 4703 
Q 3103 4656 3366 4563 
z
" transform="scale(0.015625)"/>
       </defs>
       <use xlink:href="#DejaVuSans-36"/>
       <use xlink:href="#DejaVuSans-30" x="63.623047"/>
       <use xlink:href="#DejaVuSans-30" x="127.246094"/>
       <use xlink:href="#DejaVuSans-30" x="190.869141"/>
       <use xlink:href="#DejaVuSans-30" x="254.492188"/>
      </g>
     </g>
    </g>
    <g id="text_8">
     <!-- Number of points in cloud -->
     <g transform="translate(171.443594 312.791763) scale(0.1 -0.1)">
      <defs>
       <path id="DejaVuSans-4e" d="M 628 4666 
L 1478 4666 
L 3547 763 
L 3547 4666 
L 4159 4666 
L 4159 0 
L 3309 0 
L 1241 3903 
L 1241 0 
L 628 0 
L 628 4666 
z
" transform="scale(0.015625)"/>
       <path id="DejaVuSans-75" d="M 544 1381 
L 544 3500 
L 1119 3500 
L 1119 1403 
Q 1119 906 1312 657 
Q 1506 409 1894 409 
Q 2359 409 2629 706 
Q 2900 1003 2900 1516 
L 2900 3500 
L 3475 3500 
L 3475 0 
L 2900 0 
L 2900 538 
Q 2691 219 2414 64 
Q 2138 -91 1772 -91 
Q 1169 -91 856 284 
Q 544 659 544 1381 
z
M 1991 3584 
L 1991 3584 
z
" transform="scale(0.015625)"/>
       <path id="DejaVuSans-6d" d="M 3328 2828 
Q 3544 3216 3844 3400 
Q 4144 3584 4550 3584 
Q 5097 3584 5394 3201 
Q 5691 2819 5691 2113 
L 5691 0 
L 5113 0 
L 5113 2094 
Q 5113 2597 4934 2840 
Q 4756 3084 4391 3084 
Q 3944 3084 3684 2787 
Q 3425 2491 3425 1978 
L 3425 0 
L 2847 0 
L 2847 2094 
Q 2847 2600 2669 2842 
Q 2491 3084 2119 3084 
Q 1678 3084 1418 2786 
Q 1159 2488 1159 1978 
L 1159 0 
L 581 0 
L 581 3500 
L 1159 3500 
L 1159 2956 
Q 1356 3278 1631 3431 
Q 1906 3584 2284 3584 
Q 2666 3584 2933 3390 
Q 3200 3197 3328 2828 
z
" transform="scale(0.015625)"/>
       <path id="DejaVuSans-62" d="M 3116 1747 
Q 3116 2381 2855 2742 
Q 2594 3103 2138 3103 
Q 1681 3103 1420 2742 
Q 1159 2381 1159 1747 
Q 1159 1113 1420 752 
Q 1681 391 2138 391 
Q 2594 391 2855 752 
Q 3116 1113 3116 1747 
z
M 1159 2969 
Q 1341 3281 1617 3432 
Q 1894 3584 2278 3584 
Q 2916 3584 3314 3078 
Q 3713 2572 3713 1747 
Q 3713 922 3314 415 
Q 2916 -91 2278 -91 
Q 1894 -91 1617 61 
Q 1341 213 1159 525 
L 1159 0 
L 581 0 
L 581 4863 
L 1159 4863 
L 1159 2969 
z
" transform="scale(0.015625)"/>
       <path id="DejaVuSans-65" d="M 3597 1894 
L 3597 1613 
L 953 1613 
Q 991 1019 1311 708 
Q 1631 397 2203 397 
Q 2534 397 2845 478 
Q 3156 559 3463 722 
L 3463 178 
Q 3153 47 2828 -22 
Q 2503 -91 2169 -91 
Q 1331 -91 842 396 
Q 353 884 353 1716 
Q 353 2575 817 3079 
Q 1281 3584 2069 3584 
Q 2775 3584 3186 3129 
Q 3597 2675 3597 1894 
z
M 3022 2063 
Q 3016 2534 2758 2815 
Q 2500 3097 2075 3097 
Q 1594 3097 1305 2825 
Q 1016 2553 972 2059 
L 3022 2063 
z
" transform="scale(0.015625)"/>
       <path id="DejaVuSans-72" d="M 2631 2963 
Q 2534 3019 2420 3045 
Q 2306 3072 2169 3072 
Q 1681 3072 1420 2755 
Q 1159 2438 1159 1844 
L 1159 0 
L 581 0 
L 581 3500 
L 1159 3500 
L 1159 2956 
Q 1341 3275 1631 3429 
Q 1922 3584 2338 3584 
Q 2397 3584 2469 3576 
Q 2541 3569 2628 3553 
L 2631 2963 
z
" transform="scale(0.015625)"/>
       <path id="DejaVuSans-20" transform="scale(0.015625)"/>
       <path id="DejaVuSans-6f" d="M 1959 3097 
Q 1497 3097 1228 2736 
Q 959 2375 959 1747 
Q 959 1119 1226 758 
Q 1494 397 1959 397 
Q 2419 397 2687 759 
Q 2956 1122 2956 1747 
Q 2956 2369 2687 2733 
Q 2419 3097 1959 3097 
z
M 1959 3584 
Q 2709 3584 3137 3096 
Q 3566 2609 3566 1747 
Q 3566 888 3137 398 
Q 2709 -91 1959 -91 
Q 1206 -91 779 398 
Q 353 888 353 1747 
Q 353 2609 779 3096 
Q 1206 3584 1959 3584 
z
" transform="scale(0.015625)"/>
       <path id="DejaVuSans-66" d="M 2375 4863 
L 2375 4384 
L 1825 4384 
Q 1516 4384 1395 4259 
Q 1275 4134 1275 3809 
L 1275 3500 
L 2222 3500 
L 2222 3053 
L 1275 3053 
L 1275 0 
L 697 0 
L 697 3053 
L 147 3053 
L 147 3500 
L 697 3500 
L 697 3744 
Q 697 4328 969 4595 
Q 1241 4863 1831 4863 
L 2375 4863 
z
" transform="scale(0.015625)"/>
       <path id="DejaVuSans-70" d="M 1159 525 
L 1159 -1331 
L 581 -1331 
L 581 3500 
L 1159 3500 
L 1159 2969 
Q 1341 3281 1617 3432 
Q 1894 3584 2278 3584 
Q 2916 3584 3314 3078 
Q 3713 2572 3713 1747 
Q 3713 922 3314 415 
Q 2916 -91 2278 -91 
Q 1894 -91 1617 61 
Q 1341 213 1159 525 
z
M 3116 1747 
Q 3116 2381 2855 2742 
Q 2594 3103 2138 3103 
Q 1681 3103 1420 2742 
Q 1159 2381 1159 1747 
Q 1159 1113 1420 752 
Q 1681 391 2138 391 
Q 2594 391 2855 752 
Q 3116 1113 3116 1747 
z
" transform="scale(0.015625)"/>
       <path id="DejaVuSans-69" d="M 603 3500 
L 1178 3500 
L 1178 0 
L 603 0 
L 603 3500 
z
M 603 4863 
L 1178 4863 
L 1178 4134 
L 603 4134 
L 603 4863 
z
" transform="scale(0.015625)"/>
       <path id="DejaVuSans-6e" d="M 3513 2113 
L 3513 0 
L 2938 0 
L 2938 2094 
Q 2938 2591 2744 2837 
Q 2550 3084 2163 3084 
Q 1697 3084 1428 2787 
Q 1159 2491 1159 1978 
L 1159 0 
L 581 0 
L 581 3500 
L 1159 3500 
L 1159 2956 
Q 1366 3272 1645 3428 
Q 1925 3584 2291 3584 
Q 2894 3584 3203 3211 
Q 3513 2838 3513 2113 
z
" transform="scale(0.015625)"/>
       <path id="DejaVuSans-74" d="M 1172 4494 
L 1172 3500 
L 2356 3500 
L 2356 3053 
L 1172 3053 
L 1172 1153 
Q 1172 725 1289 603 
Q 1406 481 1766 481 
L 2356 481 
L 2356 0 
L 1766 0 
Q 1100 0 847 248 
Q 594 497 594 1153 
L 594 3053 
L 172 3053 
L 172 3500 
L 594 3500 
L 594 4494 
L 1172 4494 
z
" transform="scale(0.015625)"/>
       <path id="DejaVuSans-73" d="M 2834 3397 
L 2834 2853 
Q 2591 2978 2328 3040 
Q 2066 3103 1784 3103 
Q 1356 3103 1142 2972 
Q 928 2841 928 2578 
Q 928 2378 1081 2264 
Q 1234 2150 1697 2047 
L 1894 2003 
Q 2506 1872 2764 1633 
Q 3022 1394 3022 966 
Q 3022 478 2636 193 
Q 2250 -91 1575 -91 
Q 1294 -91 989 -36 
Q 684 19 347 128 
L 347 722 
Q 666 556 975 473 
Q 1284 391 1588 391 
Q 1994 391 2212 530 
Q 2431 669 2431 922 
Q 2431 1156 2273 1281 
Q 2116 1406 1581 1522 
L 1381 1569 
Q 847 1681 609 1914 
Q 372 2147 372 2553 
Q 372 3047 722 3315 
Q 1072 3584 1716 3584 
Q 2034 3584 2315 3537 
Q 2597 3491 2834 3397 
z
" transform="scale(0.015625)"/>
       <path id="DejaVuSans-63" d="M 3122 3366 
L 3122 2828 
Q 2878 2963 2633 3030 
Q 2388 3097 2138 3097 
Q 1578 3097 1268 2742 
Q 959 2388 959 1747 
Q 959 1106 1268 751 
Q 1578 397 2138 397 
Q 2388 397 2633 464 
Q 2878 531 3122 666 
L 3122 134 
Q 2881 22 2623 -34 
Q 2366 -91 2075 -91 
Q 1284 -91 818 406 
Q 353 903 353 1747 
Q 353 2603 823 3093 
Q 1294 3584 2113 3584 
Q 2378 3584 2631 3529 
Q 2884 3475 3122 3366 
z
" transform="scale(0.015625)"/>
       <path id="DejaVuSans-6c" d="M 603 4863 
L 1178 4863 
L 1178 0 
L 603 0 
L 603 4863 
z
" transform="scale(0.015625)"/>
       <path id="DejaVuSans-64" d="M 2906 2969 
L 2906 4863 
L 3481 4863 
L 3481 0 
L 2906 0 
L 2906 525 
Q 2725 213 2448 61 
Q 2172 -91 1784 -91 
Q 1150 -91 751 415 
Q 353 922 353 1747 
Q 353 2572 751 3078 
Q 1150 3584 1784 3584 
Q 2172 3584 2448 3432 
Q 2725 3281 2906 2969 
z
M 947 1747 
Q 947 1113 1208 752 
Q 1469 391 1925 391 
Q 2381 391 2643 752 
Q 2906 1113 2906 1747 
Q 2906 2381 2643 2742 
Q 2381 3103 1925 3103 
Q 1469 3103 1208 2742 
Q 947 2381 947 1747 
z
" transform="scale(0.015625)"/>
      </defs>
      <use xlink:href="#DejaVuSans-4e"/>
      <use xlink:href="#DejaVuSans-75" x="74.804688"/>
      <use xlink:href="#DejaVuSans-6d" x="138.183594"/>
      <use xlink:href="#DejaVuSans-62" x="235.595703"/>
      <use xlink:href="#DejaVuSans-65" x="299.072266"/>
      <use xlink:href="#DejaVuSans-72" x="360.595703"/>
      <use xlink:href="#DejaVuSans-20" x="401.708984"/>
      <use xlink:href="#DejaVuSans-6f" x="433.496094"/>
      <use xlink:href="#DejaVuSans-66" x="494.677734"/>
      <use xlink:href="#DejaVuSans-20" x="529.882812"/>
      <use xlink:href="#DejaVuSans-70" x="561.669922"/>
      <use xlink:href="#DejaVuSans-6f" x="625.146484"/>
      <use xlink:href="#DejaVuSans-69" x="686.328125"/>
      <use xlink:href="#DejaVuSans-6e" x="714.111328"/>
      <use xlink:href="#DejaVuSans-74" x="777.490234"/>
      <use xlink:href="#DejaVuSans-73" x="816.699219"/>
      <use xlink:href="#DejaVuSans-20" x="868.798828"/>
      <use xlink:href="#DejaVuSans-69" x="900.585938"/>
      <use xlink:href="#DejaVuSans-6e" x="928.369141"/>
      <use xlink:href="#DejaVuSans-20" x="991.748047"/>
      <use xlink:href="#DejaVuSans-63" x="1023.535156"/>
      <use xlink:href="#DejaVuSans-6c" x="1078.515625"/>
      <use xlink:href="#DejaVuSans-6f" x="1106.298828"/>
      <use xlink:href="#DejaVuSans-75" x="1167.480469"/>
      <use xlink:href="#DejaVuSans-64" x="1230.859375"/>
     </g>
    </g>
   </g>
   <g id="matplotlib.axis_2">
    <g id="ytick_1">
     <g id="line2d_8">
      <defs>
       <path id="me1562b6fd0" d="M 0 0 
L -3.5 0 
" style="stroke: #000000; stroke-width: 0.8"/>
      </defs>
      <g>
       <use xlink:href="#me1562b6fd0" x="57.6" y="280.42306" style="stroke: #000000; stroke-width: 0.8"/>
      </g>
     </g>
     <g id="text_9">
      <!-- 0 -->
      <g transform="translate(44.2375 284.222279) scale(0.1 -0.1)">
       <use xlink:href="#DejaVuSans-30"/>
      </g>
     </g>
    </g>
    <g id="ytick_2">
     <g id="line2d_9">
      <g>
       <use xlink:href="#me1562b6fd0" x="57.6" y="241.497238" style="stroke: #000000; stroke-width: 0.8"/>
      </g>
     </g>
     <g id="text_10">
      <!-- 50 -->
      <g transform="translate(37.875 245.296457) scale(0.1 -0.1)">
       <use xlink:href="#DejaVuSans-35"/>
       <use xlink:href="#DejaVuSans-30" x="63.623047"/>
      </g>
     </g>
    </g>
    <g id="ytick_3">
     <g id="line2d_10">
      <g>
       <use xlink:href="#me1562b6fd0" x="57.6" y="202.571417" style="stroke: #000000; stroke-width: 0.8"/>
      </g>
     </g>
     <g id="text_11">
      <!-- 100 -->
      <g transform="translate(31.5125 206.370636) scale(0.1 -0.1)">
       <use xlink:href="#DejaVuSans-31"/>
       <use xlink:href="#DejaVuSans-30" x="63.623047"/>
       <use xlink:href="#DejaVuSans-30" x="127.246094"/>
      </g>
     </g>
    </g>
    <g id="ytick_4">
     <g id="line2d_11">
      <g>
       <use xlink:href="#me1562b6fd0" x="57.6" y="163.645595" style="stroke: #000000; stroke-width: 0.8"/>
      </g>
     </g>
     <g id="text_12">
      <!-- 150 -->
      <g transform="translate(31.5125 167.444814) scale(0.1 -0.1)">
       <use xlink:href="#DejaVuSans-31"/>
       <use xlink:href="#DejaVuSans-35" x="63.623047"/>
       <use xlink:href="#DejaVuSans-30" x="127.246094"/>
      </g>
     </g>
    </g>
    <g id="ytick_5">
     <g id="line2d_12">
      <g>
       <use xlink:href="#me1562b6fd0" x="57.6" y="124.719774" style="stroke: #000000; stroke-width: 0.8"/>
      </g>
     </g>
     <g id="text_13">
      <!-- 200 -->
      <g transform="translate(31.5125 128.518992) scale(0.1 -0.1)">
       <use xlink:href="#DejaVuSans-32"/>
       <use xlink:href="#DejaVuSans-30" x="63.623047"/>
       <use xlink:href="#DejaVuSans-30" x="127.246094"/>
      </g>
     </g>
    </g>
    <g id="ytick_6">
     <g id="line2d_13">
      <g>
       <use xlink:href="#me1562b6fd0" x="57.6" y="85.793952" style="stroke: #000000; stroke-width: 0.8"/>
      </g>
     </g>
     <g id="text_14">
      <!-- 250 -->
      <g transform="translate(31.5125 89.593171) scale(0.1 -0.1)">
       <use xlink:href="#DejaVuSans-32"/>
       <use xlink:href="#DejaVuSans-35" x="63.623047"/>
       <use xlink:href="#DejaVuSans-30" x="127.246094"/>
      </g>
     </g>
    </g>
    <g id="ytick_7">
     <g id="line2d_14">
      <g>
       <use xlink:href="#me1562b6fd0" x="57.6" y="46.868131" style="stroke: #000000; stroke-width: 0.8"/>
      </g>
     </g>
     <g id="text_15">
      <!-- 300 -->
      <g transform="translate(31.5125 50.667349) scale(0.1 -0.1)">
       <use xlink:href="#DejaVuSans-33"/>
       <use xlink:href="#DejaVuSans-30" x="63.623047"/>
       <use xlink:href="#DejaVuSans-30" x="127.246094"/>
      </g>
     </g>
    </g>
    <g id="text_16">
     <!-- Collision check time (ns) -->
     <g transform="translate(25.432812 222.755587) rotate(-90) scale(0.1 -0.1)">
      <defs>
       <path id="DejaVuSans-43" d="M 4122 4306 
L 4122 3641 
Q 3803 3938 3442 4084 
Q 3081 4231 2675 4231 
Q 1875 4231 1450 3742 
Q 1025 3253 1025 2328 
Q 1025 1406 1450 917 
Q 1875 428 2675 428 
Q 3081 428 3442 575 
Q 3803 722 4122 1019 
L 4122 359 
Q 3791 134 3420 21 
Q 3050 -91 2638 -91 
Q 1578 -91 968 557 
Q 359 1206 359 2328 
Q 359 3453 968 4101 
Q 1578 4750 2638 4750 
Q 3056 4750 3426 4639 
Q 3797 4528 4122 4306 
z
" transform="scale(0.015625)"/>
       <path id="DejaVuSans-68" d="M 3513 2113 
L 3513 0 
L 2938 0 
L 2938 2094 
Q 2938 2591 2744 2837 
Q 2550 3084 2163 3084 
Q 1697 3084 1428 2787 
Q 1159 2491 1159 1978 
L 1159 0 
L 581 0 
L 581 4863 
L 1159 4863 
L 1159 2956 
Q 1366 3272 1645 3428 
Q 1925 3584 2291 3584 
Q 2894 3584 3203 3211 
Q 3513 2838 3513 2113 
z
" transform="scale(0.015625)"/>
       <path id="DejaVuSans-6b" d="M 581 4863 
L 1159 4863 
L 1159 1991 
L 2875 3500 
L 3609 3500 
L 1753 1863 
L 3688 0 
L 2938 0 
L 1159 1709 
L 1159 0 
L 581 0 
L 581 4863 
z
" transform="scale(0.015625)"/>
       <path id="DejaVuSans-28" d="M 1984 4856 
Q 1566 4138 1362 3434 
Q 1159 2731 1159 2009 
Q 1159 1288 1364 580 
Q 1569 -128 1984 -844 
L 1484 -844 
Q 1016 -109 783 600 
Q 550 1309 550 2009 
Q 550 2706 781 3412 
Q 1013 4119 1484 4856 
L 1984 4856 
z
" transform="scale(0.015625)"/>
       <path id="DejaVuSans-29" d="M 513 4856 
L 1013 4856 
Q 1481 4119 1714 3412 
Q 1947 2706 1947 2009 
Q 1947 1309 1714 600 
Q 1481 -109 1013 -844 
L 513 -844 
Q 928 -128 1133 580 
Q 1338 1288 1338 2009 
Q 1338 2731 1133 3434 
Q 928 4138 513 4856 
z
" transform="scale(0.015625)"/>
      </defs>
      <use xlink:href="#DejaVuSans-43"/>
      <use xlink:href="#DejaVuSans-6f" x="69.824219"/>
      <use xlink:href="#DejaVuSans-6c" x="131.005859"/>
      <use xlink:href="#DejaVuSans-6c" x="158.789062"/>
      <use xlink:href="#DejaVuSans-69" x="186.572266"/>
      <use xlink:href="#DejaVuSans-73" x="214.355469"/>
      <use xlink:href="#DejaVuSans-69" x="266.455078"/>
      <use xlink:href="#DejaVuSans-6f" x="294.238281"/>
      <use xlink:href="#DejaVuSans-6e" x="355.419922"/>
      <use xlink:href="#DejaVuSans-20" x="418.798828"/>
      <use xlink:href="#DejaVuSans-63" x="450.585938"/>
      <use xlink:href="#DejaVuSans-68" x="505.566406"/>
      <use xlink:href="#DejaVuSans-65" x="568.945312"/>
      <use xlink:href="#DejaVuSans-63" x="630.46875"/>
      <use xlink:href="#DejaVuSans-6b" x="685.449219"/>
      <use xlink:href="#DejaVuSans-20" x="743.359375"/>
      <use xlink:href="#DejaVuSans-74" x="775.146484"/>
      <use xlink:href="#DejaVuSans-69" x="814.355469"/>
      <use xlink:href="#DejaVuSans-6d" x="842.138672"/>
      <use xlink:href="#DejaVuSans-65" x="939.550781"/>
      <use xlink:href="#DejaVuSans-20" x="1001.074219"/>
      <use xlink:href="#DejaVuSans-28" x="1032.861328"/>
      <use xlink:href="#DejaVuSans-6e" x="1071.875"/>
      <use xlink:href="#DejaVuSans-73" x="1135.253906"/>
      <use xlink:href="#DejaVuSans-29" x="1187.353516"/>
     </g>
    </g>
   </g>
   <g id="line2d_15">
    <path d="M 73.832727 231.789933 
L 75.110895 228.01486 
L 76.389062 224.858855 
L 77.66723 223.337043 
L 78.945397 213.972035 
L 81.501732 210.838335 
L 82.7799 209.792071 
L 84.058067 203.022334 
L 85.336235 199.768073 
L 86.614402 196.061416 
L 87.89257 185.073108 
L 89.170737 194.894786 
L 90.448905 200.042539 
L 91.727072 199.79469 
L 93.00524 198.456817 
L 94.283407 191.643428 
L 95.561575 192.668735 
L 96.839742 190.10754 
L 98.11791 186.064058 
L 99.396077 186.619818 
L 100.674245 186.943548 
L 101.952412 184.929433 
L 103.23058 185.93498 
L 104.508747 183.807474 
L 105.786915 183.101492 
L 107.065082 182.14981 
L 108.34325 181.933577 
L 109.621417 171.814817 
L 110.899585 177.148247 
L 112.177752 183.249207 
L 113.45592 182.541108 
L 114.734087 175.462455 
L 116.012255 171.979489 
L 117.290422 172.326124 
L 119.846757 168.066915 
L 121.124925 168.829798 
L 122.403092 164.737013 
L 123.68126 168.491074 
L 124.959427 168.628926 
L 127.515762 157.46876 
L 128.79393 163.620496 
L 130.072097 167.221298 
L 131.350265 166.202749 
L 132.628432 164.715853 
L 133.9066 162.596358 
L 135.184767 160.872777 
L 136.462935 161.356399 
L 137.741102 159.31618 
L 139.01927 155.678858 
L 140.297437 158.294042 
L 142.853772 149.722794 
L 144.13194 161.11428 
L 145.410107 160.860367 
L 146.688275 158.662623 
L 147.966442 158.707637 
L 149.24461 155.4838 
L 150.522777 154.187641 
L 151.800945 155.04172 
L 153.079112 156.651715 
L 154.35728 149.44783 
L 155.635447 141.412707 
L 156.913615 138.056072 
L 158.191782 149.119436 
L 159.46995 146.670262 
L 160.748117 144.904276 
L 162.026285 145.05692 
L 163.304452 144.593196 
L 164.58262 144.885467 
L 165.860787 141.906116 
L 167.138955 131.994862 
L 168.417122 131.938349 
L 169.69529 141.635371 
L 170.973457 142.752316 
L 172.251625 137.454434 
L 173.529792 137.630472 
L 174.80796 137.468292 
L 176.086127 136.036039 
L 177.364295 137.429662 
L 178.642462 124.527986 
L 179.92063 140.193255 
L 181.198797 135.599883 
L 182.476965 136.177691 
L 183.755132 135.720771 
L 185.0333 136.204471 
L 186.311467 134.977242 
L 187.589635 132.600688 
L 188.867802 121.898788 
L 190.14597 134.126074 
L 191.424137 136.793388 
L 192.702305 131.028489 
L 193.980472 132.100818 
L 195.25864 131.289324 
L 196.536807 130.077913 
L 197.814975 129.957329 
L 199.093142 121.499246 
L 200.37131 130.31111 
L 201.649477 133.288484 
L 202.927645 128.205254 
L 204.205812 128.750799 
L 205.48398 134.637232 
L 206.762147 127.998503 
L 208.040315 118.944139 
L 209.318482 130.761489 
L 210.59665 128.553017 
L 213.152985 124.555452 
L 214.431152 125.263879 
L 215.70932 125.760409 
L 216.987487 118.717529 
L 219.543822 126.057288 
L 220.82199 122.227898 
L 222.100157 121.245161 
L 223.378325 122.127758 
L 224.656492 122.739679 
L 225.93466 112.861419 
L 227.212827 123.148338 
L 228.490995 123.312535 
L 229.769162 119.830675 
L 231.04733 120.288676 
L 233.603665 119.108453 
L 234.881832 114.86926 
L 236.16 122.080393 
L 237.438168 109.034178 
L 238.716335 108.037716 
L 239.994503 104.548966 
L 242.550838 101.331054 
L 243.829005 108.911095 
L 245.107173 103.165309 
L 246.38534 102.024766 
L 247.663508 103.121097 
L 248.941675 95.243842 
L 250.219843 104.460526 
L 251.49801 104.068979 
L 252.776178 101.886704 
L 254.054345 102.66178 
L 255.332513 100.452194 
L 256.61068 105.387155 
L 257.888848 97.860575 
L 259.167015 94.269256 
L 260.445183 92.307893 
L 261.72335 92.455375 
L 263.001518 91.206004 
L 264.279685 97.732564 
L 265.557853 91.623577 
L 266.83602 91.641444 
L 268.114188 93.073431 
L 269.392355 91.847229 
L 270.670523 95.62431 
L 271.94869 91.142765 
L 273.226858 92.539096 
L 274.505025 92.480482 
L 275.783193 94.118737 
L 277.06136 91.247686 
L 278.339528 90.689061 
L 279.617695 88.408343 
L 280.895863 87.925958 
L 282.17403 90.35848 
L 283.452198 88.400262 
L 284.730365 89.885453 
L 286.008533 89.030479 
L 287.2867 83.920203 
L 288.564868 93.900854 
L 289.843035 90.033838 
L 291.121203 89.572318 
L 292.39937 87.266306 
L 293.677538 92.740709 
L 294.955705 89.368028 
L 296.233873 88.993032 
L 297.51204 88.900622 
L 298.790208 83.508812 
L 300.068375 91.876797 
L 301.346543 85.18203 
L 302.62471 85.816879 
L 303.902878 77.284184 
L 305.181045 89.07487 
L 306.459213 85.426843 
L 307.73738 86.225118 
L 309.015548 86.147531 
L 310.293715 88.955585 
L 311.571883 86.119964 
L 312.85005 84.456687 
L 314.128218 85.331638 
L 315.406385 49.5504 
L 316.684553 88.81293 
L 317.96272 85.199251 
L 319.240888 83.872216 
L 320.519055 73.104936 
L 321.797223 82.752717 
L 323.07539 80.763078 
L 324.353558 80.11223 
L 325.631725 74.912169 
L 326.909893 85.055366 
L 328.18806 81.580076 
L 329.466228 80.700843 
L 330.744395 71.005122 
L 332.022563 71.127746 
L 333.30073 77.86333 
L 334.578898 77.956534 
L 335.857065 70.875763 
L 337.135233 80.088291 
L 338.4134 77.699242 
L 339.691568 77.754057 
L 340.969735 69.830839 
L 342.247903 79.709504 
L 343.52607 75.917296 
L 344.804238 76.529186 
L 346.082405 68.324736 
L 347.360573 79.672999 
L 348.63874 75.706131 
L 349.916908 74.806462 
L 351.195075 70.617062 
L 352.473243 76.304467 
L 353.75141 74.398535 
L 355.029578 73.017711 
L 356.307745 75.767719 
L 357.585913 74.065478 
L 358.86408 73.258078 
L 360.142248 73.1703 
L 361.420415 76.025307 
L 362.698583 72.987715 
L 363.97675 72.889785 
L 365.254918 63.970081 
L 366.533085 72.083842 
L 367.811253 71.902346 
L 369.08942 70.888944 
L 370.367588 70.595155 
L 371.645755 71.206578 
L 372.923923 71.449686 
L 374.20209 68.485383 
L 375.480258 74.915073 
L 376.758425 71.535938 
L 378.036593 68.693115 
L 379.31476 67.285176 
L 380.592928 70.802972 
L 381.871095 69.711469 
L 383.149263 68.469766 
L 384.42743 73.784402 
L 385.705598 69.260941 
L 388.261933 67.20973 
L 389.5401 69.693462 
L 390.818268 68.663772 
L 392.096435 62.233048 
L 393.374603 67.922664 
L 394.65277 66.950305 
L 395.930938 68.178936 
L 397.209105 67.170648 
L 398.487273 66.512327 
L 398.487273 66.512327 
" clip-path="url(#p0dd0674968)" style="fill: none; stroke: #1f77b4; stroke-width: 1.5; stroke-linecap: square"/>
   </g>
   <g id="line2d_16">
    <path d="M 73.832727 263.863595 
L 75.110895 261.246176 
L 76.389062 262.120162 
L 77.66723 261.332264 
L 78.945397 259.506192 
L 80.223565 259.214435 
L 81.501732 258.598691 
L 82.7799 258.49472 
L 84.058067 256.302978 
L 85.336235 256.440931 
L 86.614402 254.313059 
L 87.89257 255.208392 
L 89.170737 255.747063 
L 90.448905 256.858426 
L 93.00524 256.746164 
L 94.283407 254.415496 
L 95.561575 254.21604 
L 96.839742 254.173596 
L 98.11791 253.04825 
L 99.396077 253.566913 
L 100.674245 253.531452 
L 101.952412 252.315604 
L 103.23058 253.190781 
L 104.508747 253.400692 
L 105.786915 253.328975 
L 107.065082 252.988818 
L 108.34325 253.174619 
L 109.621417 249.33925 
L 110.899585 252.838331 
L 112.177752 253.304982 
L 113.45592 252.941072 
L 114.734087 251.133652 
L 116.012255 250.293407 
L 117.290422 250.751378 
L 118.56859 249.924484 
L 119.846757 250.653378 
L 121.124925 249.262512 
L 122.403092 248.13993 
L 123.68126 250.223193 
L 124.959427 249.14624 
L 126.237595 245.126324 
L 127.515762 245.713193 
L 128.79393 247.972144 
L 130.072097 247.491247 
L 131.350265 247.618503 
L 133.9066 248.669383 
L 135.184767 248.068143 
L 136.462935 248.191001 
L 137.741102 247.96112 
L 139.01927 248.171141 
L 140.297437 248.217237 
L 142.853772 245.434095 
L 144.13194 248.560087 
L 145.410107 248.184181 
L 146.688275 247.48909 
L 147.966442 247.549775 
L 149.24461 247.322324 
L 150.522777 246.876904 
L 151.800945 246.917885 
L 153.079112 246.139252 
L 154.35728 245.779398 
L 155.635447 241.525654 
L 156.913615 243.579964 
L 158.191782 244.280777 
L 162.026285 244.709257 
L 163.304452 244.698981 
L 164.58262 244.886735 
L 165.860787 244.655002 
L 167.138955 241.932663 
L 168.417122 243.678135 
L 169.69529 244.282903 
L 170.973457 244.612355 
L 172.251625 244.390073 
L 173.529792 243.927401 
L 174.80796 244.28945 
L 177.364295 243.785119 
L 178.642462 240.493583 
L 179.92063 243.212419 
L 181.198797 243.30275 
L 182.476965 242.963045 
L 183.755132 243.308449 
L 185.0333 243.028183 
L 186.311467 243.430715 
L 187.589635 242.973913 
L 188.867802 240.054289 
L 190.14597 242.672035 
L 191.424137 242.749825 
L 192.702305 242.095155 
L 193.980472 242.834107 
L 196.536807 242.214883 
L 197.814975 242.251247 
L 199.093142 236.853357 
L 200.37131 241.434179 
L 201.649477 240.730392 
L 202.927645 241.08559 
L 204.205812 242.166654 
L 205.48398 241.552809 
L 206.762147 241.911425 
L 208.040315 237.552535 
L 209.318482 239.689765 
L 210.59665 240.434789 
L 211.874817 240.604311 
L 213.152985 239.878718 
L 214.431152 240.622863 
L 215.70932 240.881268 
L 216.987487 236.609128 
L 218.265655 239.741458 
L 219.543822 239.992374 
L 220.82199 241.191274 
L 222.100157 240.261398 
L 224.656492 241.535253 
L 225.93466 235.507551 
L 227.212827 239.837208 
L 228.490995 239.887734 
L 229.769162 240.400535 
L 231.04733 239.900478 
L 232.325497 238.99736 
L 233.603665 240.023343 
L 234.881832 237.616731 
L 236.16 239.209225 
L 237.438168 235.682585 
L 238.716335 235.07644 
L 239.994503 235.331894 
L 241.27267 229.864334 
L 242.550838 233.636262 
L 243.829005 234.56462 
L 245.107173 234.86684 
L 246.38534 235.51954 
L 247.663508 233.892542 
L 248.941675 230.934 
L 250.219843 234.926217 
L 251.49801 235.45518 
L 252.776178 235.156674 
L 254.054345 234.22261 
L 255.332513 227.494647 
L 256.61068 233.723744 
L 257.888848 234.629688 
L 259.167015 234.232466 
L 260.445183 233.976668 
L 263.001518 233.899066 
L 264.279685 234.233984 
L 265.557853 233.246506 
L 266.83602 233.579454 
L 268.114188 233.65409 
L 269.392355 233.230165 
L 270.670523 232.612248 
L 271.94869 233.458013 
L 273.226858 233.504732 
L 274.505025 232.088315 
L 275.783193 233.06466 
L 277.06136 233.500512 
L 278.339528 233.198876 
L 279.617695 234.172605 
L 280.895863 227.837265 
L 282.17403 232.871845 
L 283.452198 233.493591 
L 284.730365 231.752112 
L 286.008533 233.285953 
L 289.843035 232.311048 
L 291.121203 233.582007 
L 292.39937 227.970375 
L 293.677538 230.913043 
L 294.955705 233.540466 
L 296.233873 231.821136 
L 297.51204 231.144698 
L 298.790208 232.402532 
L 300.068375 233.32484 
L 301.346543 232.488433 
L 302.62471 231.898699 
L 303.902878 228.194004 
L 305.181045 231.859174 
L 306.459213 232.00499 
L 307.73738 232.311321 
L 309.015548 228.03057 
L 310.293715 231.27872 
L 311.571883 231.458541 
L 312.85005 231.450359 
L 314.128218 231.803479 
L 315.406385 231.332943 
L 316.684553 230.9881 
L 317.96272 231.514291 
L 319.240888 231.262262 
L 320.519055 229.564357 
L 321.797223 231.301102 
L 323.07539 231.947099 
L 324.353558 231.808243 
L 325.631725 228.006491 
L 326.909893 231.939213 
L 328.18806 231.759843 
L 329.466228 232.236521 
L 330.744395 226.361478 
L 332.022563 230.986099 
L 333.30073 231.944982 
L 334.578898 231.464014 
L 335.857065 226.833414 
L 337.135233 231.090412 
L 338.4134 231.382698 
L 339.691568 230.590737 
L 340.969735 227.568871 
L 342.247903 231.334205 
L 343.52607 231.34547 
L 344.804238 231.11253 
L 346.082405 228.385083 
L 347.360573 231.342395 
L 348.63874 230.949275 
L 349.916908 230.833346 
L 351.195075 229.9988 
L 352.473243 231.296493 
L 353.75141 231.368716 
L 355.029578 231.034818 
L 356.307745 230.535898 
L 357.585913 231.277972 
L 358.86408 230.699472 
L 360.142248 217.817587 
L 361.420415 229.773404 
L 362.698583 230.34046 
L 363.97675 230.203783 
L 365.254918 229.001154 
L 366.533085 230.183036 
L 367.811253 229.854712 
L 369.08942 229.698495 
L 370.367588 228.823544 
L 371.645755 230.35958 
L 372.923923 229.6357 
L 374.20209 223.742813 
L 375.480258 228.646205 
L 376.758425 228.931641 
L 378.036593 229.469673 
L 379.31476 227.477746 
L 380.592928 229.05291 
L 381.871095 228.429863 
L 383.149263 222.314438 
L 384.42743 228.396854 
L 385.705598 228.913649 
L 386.983765 228.632628 
L 388.261933 228.770145 
L 390.818268 229.617973 
L 392.096435 220.06082 
L 393.374603 228.944914 
L 394.65277 228.729468 
L 395.930938 228.316823 
L 397.209105 227.580307 
L 398.487273 228.583745 
L 398.487273 228.583745 
" clip-path="url(#p0dd0674968)" style="fill: none; stroke: #ff7f0e; stroke-width: 1.5; stroke-linecap: square"/>
   </g>
   <g id="line2d_17">
    <path d="M 73.832727 273.3264 
L 75.110895 269.809335 
L 76.389062 272.357785 
L 77.66723 272.803844 
L 80.223565 271.392518 
L 81.501732 272.115527 
L 82.7799 271.888426 
L 84.058067 271.242436 
L 85.336235 271.147574 
L 86.614402 269.812909 
L 87.89257 268.789346 
L 90.448905 270.861446 
L 91.727072 271.007309 
L 93.00524 270.85317 
L 94.283407 270.271284 
L 95.561575 270.087063 
L 96.839742 270.299785 
L 98.11791 269.852076 
L 99.396077 270.416664 
L 100.674245 270.369089 
L 101.952412 269.342132 
L 103.23058 270.233354 
L 105.786915 270.296764 
L 107.065082 270.074031 
L 109.621417 268.747034 
L 110.899585 269.573219 
L 112.177752 269.323782 
L 114.734087 269.164311 
L 117.290422 269.334658 
L 118.56859 269.139134 
L 119.846757 269.229753 
L 121.124925 268.794469 
L 122.403092 267.903309 
L 123.68126 269.140932 
L 124.959427 268.834711 
L 126.237595 267.159405 
L 127.515762 265.704631 
L 128.79393 268.391563 
L 130.072097 268.169172 
L 131.350265 268.274537 
L 132.628432 268.635815 
L 133.9066 268.707968 
L 136.462935 268.462128 
L 137.741102 268.660276 
L 139.01927 268.473502 
L 140.297437 268.606286 
L 141.575605 267.37746 
L 142.853772 267.420699 
L 144.13194 267.709474 
L 145.410107 268.474569 
L 149.24461 268.386651 
L 150.522777 268.58891 
L 153.079112 268.330481 
L 154.35728 267.907669 
L 155.635447 265.983931 
L 156.913615 267.25883 
L 160.748117 267.996614 
L 163.304452 267.68977 
L 164.58262 267.879307 
L 165.860787 267.418955 
L 167.138955 266.101277 
L 169.69529 267.406125 
L 170.973457 267.609925 
L 174.80796 267.683285 
L 176.086127 267.452135 
L 177.364295 267.566313 
L 178.642462 265.911996 
L 179.92063 267.119608 
L 182.476965 267.817322 
L 183.755132 267.395638 
L 187.589635 267.433482 
L 188.867802 266.253103 
L 191.424137 267.548407 
L 192.702305 267.271076 
L 193.980472 267.299819 
L 196.536807 266.893807 
L 197.814975 267.143461 
L 199.093142 264.84437 
L 200.37131 266.465506 
L 201.649477 266.481131 
L 202.927645 267.134298 
L 205.48398 266.703592 
L 206.762147 266.820533 
L 208.040315 264.786791 
L 209.318482 265.882452 
L 211.874817 266.74339 
L 213.152985 266.534693 
L 214.431152 266.870646 
L 215.70932 266.791463 
L 216.987487 264.771384 
L 218.265655 265.981604 
L 219.543822 266.815021 
L 220.82199 266.426853 
L 222.100157 266.221885 
L 223.378325 266.637978 
L 224.656492 266.859459 
L 225.93466 264.881342 
L 227.212827 266.212286 
L 228.490995 266.143185 
L 229.769162 266.638523 
L 233.603665 266.726075 
L 234.881832 264.91604 
L 236.16 266.473813 
L 237.438168 264.417042 
L 238.716335 265.030326 
L 239.994503 265.50621 
L 241.27267 263.669371 
L 242.550838 264.69284 
L 243.829005 265.02142 
L 245.107173 265.6466 
L 246.38534 264.955278 
L 247.663508 264.960143 
L 248.941675 262.917923 
L 250.219843 264.715541 
L 251.49801 265.553279 
L 252.776178 265.093628 
L 254.054345 265.324925 
L 255.332513 260.237764 
L 256.61068 264.747344 
L 257.888848 265.217692 
L 259.167015 264.921381 
L 261.72335 264.909501 
L 263.001518 264.713104 
L 264.279685 265.116103 
L 265.557853 264.65607 
L 266.83602 264.729235 
L 268.114188 265.261787 
L 270.670523 264.260335 
L 271.94869 265.156407 
L 273.226858 264.601434 
L 274.505025 259.716212 
L 275.783193 264.395034 
L 277.06136 265.204683 
L 278.339528 265.04912 
L 279.617695 264.768356 
L 280.895863 262.433585 
L 282.17403 264.286509 
L 283.452198 264.819387 
L 284.730365 264.646456 
L 286.008533 265.002027 
L 287.2867 264.365396 
L 288.564868 264.363177 
L 289.843035 264.885468 
L 291.121203 264.826137 
L 292.39937 262.367325 
L 293.677538 263.984974 
L 294.955705 265.169338 
L 296.233873 264.536116 
L 297.51204 262.445496 
L 298.790208 264.335991 
L 300.068375 264.913121 
L 301.346543 264.980533 
L 302.62471 264.76001 
L 303.902878 262.787537 
L 305.181045 264.480632 
L 307.73738 264.777643 
L 309.015548 257.807594 
L 310.293715 263.963977 
L 311.571883 264.267956 
L 312.85005 264.710652 
L 314.128218 264.774327 
L 315.406385 263.390561 
L 316.684553 264.60236 
L 319.240888 264.517019 
L 320.519055 263.360837 
L 321.797223 264.260802 
L 323.07539 264.715113 
L 324.353558 264.671656 
L 325.631725 263.169034 
L 326.909893 264.512239 
L 329.466228 264.866776 
L 330.744395 262.948192 
L 332.022563 263.518938 
L 333.30073 264.516249 
L 334.578898 264.718718 
L 335.857065 262.12864 
L 337.135233 264.387973 
L 338.4134 264.736421 
L 339.691568 264.70876 
L 340.969735 261.687618 
L 342.247903 264.673758 
L 343.52607 264.411211 
L 344.804238 264.617067 
L 346.082405 262.817362 
L 347.360573 264.193904 
L 348.63874 264.052681 
L 349.916908 264.625475 
L 351.195075 263.486653 
L 352.473243 264.316326 
L 353.75141 264.697884 
L 355.029578 264.601411 
L 356.307745 263.943144 
L 357.585913 264.084079 
L 358.86408 264.602617 
L 360.142248 261.818868 
L 361.420415 263.830516 
L 362.698583 264.514489 
L 363.97675 264.390931 
L 365.254918 263.195394 
L 366.533085 264.123674 
L 367.811253 263.988897 
L 369.08942 264.222047 
L 370.367588 263.586319 
L 371.645755 263.798324 
L 372.923923 264.279346 
L 374.20209 261.391097 
L 375.480258 263.533348 
L 376.758425 263.2629 
L 378.036593 263.463796 
L 379.31476 262.9895 
L 380.592928 264.108859 
L 381.871095 264.159657 
L 383.149263 261.272326 
L 384.42743 264.114892 
L 386.983765 264.085698 
L 388.261933 263.316913 
L 389.5401 264.074713 
L 390.818268 264.139237 
L 392.096435 260.632736 
L 393.374603 263.79637 
L 394.65277 264.072946 
L 395.930938 264.080957 
L 397.209105 263.33464 
L 398.487273 263.930454 
L 398.487273 263.930454 
" clip-path="url(#p0dd0674968)" style="fill: none; stroke: #2ca02c; stroke-width: 1.5; stroke-linecap: square"/>
   </g>
   <g id="patch_3">
    <path d="M 57.6 284.5152 
L 57.6 38.3616 
" style="fill: none; stroke: #000000; stroke-width: 0.8; stroke-linejoin: miter; stroke-linecap: square"/>
   </g>
   <g id="patch_4">
    <path d="M 414.72 284.5152 
L 414.72 38.3616 
" style="fill: none; stroke: #000000; stroke-width: 0.8; stroke-linejoin: miter; stroke-linecap: square"/>
   </g>
   <g id="patch_5">
    <path d="M 57.6 284.5152 
L 414.72 284.5152 
" style="fill: none; stroke: #000000; stroke-width: 0.8; stroke-linejoin: miter; stroke-linecap: square"/>
   </g>
   <g id="patch_6">
    <path d="M 57.6 38.3616 
L 414.72 38.3616 
" style="fill: none; stroke: #000000; stroke-width: 0.8; stroke-linejoin: miter; stroke-linecap: square"/>
   </g>
   <g id="text_17">
    <!-- Query performance of collision-checking structures -->
    <g transform="translate(82.489688 32.3616) scale(0.12 -0.12)">
     <defs>
      <path id="DejaVuSans-51" d="M 2522 4238 
Q 1834 4238 1429 3725 
Q 1025 3213 1025 2328 
Q 1025 1447 1429 934 
Q 1834 422 2522 422 
Q 3209 422 3611 934 
Q 4013 1447 4013 2328 
Q 4013 3213 3611 3725 
Q 3209 4238 2522 4238 
z
M 3406 84 
L 4238 -825 
L 3475 -825 
L 2784 -78 
Q 2681 -84 2626 -87 
Q 2572 -91 2522 -91 
Q 1538 -91 948 567 
Q 359 1225 359 2328 
Q 359 3434 948 4092 
Q 1538 4750 2522 4750 
Q 3503 4750 4090 4092 
Q 4678 3434 4678 2328 
Q 4678 1516 4351 937 
Q 4025 359 3406 84 
z
" transform="scale(0.015625)"/>
      <path id="DejaVuSans-79" d="M 2059 -325 
Q 1816 -950 1584 -1140 
Q 1353 -1331 966 -1331 
L 506 -1331 
L 506 -850 
L 844 -850 
Q 1081 -850 1212 -737 
Q 1344 -625 1503 -206 
L 1606 56 
L 191 3500 
L 800 3500 
L 1894 763 
L 2988 3500 
L 3597 3500 
L 2059 -325 
z
" transform="scale(0.015625)"/>
      <path id="DejaVuSans-61" d="M 2194 1759 
Q 1497 1759 1228 1600 
Q 959 1441 959 1056 
Q 959 750 1161 570 
Q 1363 391 1709 391 
Q 2188 391 2477 730 
Q 2766 1069 2766 1631 
L 2766 1759 
L 2194 1759 
z
M 3341 1997 
L 3341 0 
L 2766 0 
L 2766 531 
Q 2569 213 2275 61 
Q 1981 -91 1556 -91 
Q 1019 -91 701 211 
Q 384 513 384 1019 
Q 384 1609 779 1909 
Q 1175 2209 1959 2209 
L 2766 2209 
L 2766 2266 
Q 2766 2663 2505 2880 
Q 2244 3097 1772 3097 
Q 1472 3097 1187 3025 
Q 903 2953 641 2809 
L 641 3341 
Q 956 3463 1253 3523 
Q 1550 3584 1831 3584 
Q 2591 3584 2966 3190 
Q 3341 2797 3341 1997 
z
" transform="scale(0.015625)"/>
      <path id="DejaVuSans-2d" d="M 313 2009 
L 1997 2009 
L 1997 1497 
L 313 1497 
L 313 2009 
z
" transform="scale(0.015625)"/>
      <path id="DejaVuSans-67" d="M 2906 1791 
Q 2906 2416 2648 2759 
Q 2391 3103 1925 3103 
Q 1463 3103 1205 2759 
Q 947 2416 947 1791 
Q 947 1169 1205 825 
Q 1463 481 1925 481 
Q 2391 481 2648 825 
Q 2906 1169 2906 1791 
z
M 3481 434 
Q 3481 -459 3084 -895 
Q 2688 -1331 1869 -1331 
Q 1566 -1331 1297 -1286 
Q 1028 -1241 775 -1147 
L 775 -588 
Q 1028 -725 1275 -790 
Q 1522 -856 1778 -856 
Q 2344 -856 2625 -561 
Q 2906 -266 2906 331 
L 2906 616 
Q 2728 306 2450 153 
Q 2172 0 1784 0 
Q 1141 0 747 490 
Q 353 981 353 1791 
Q 353 2603 747 3093 
Q 1141 3584 1784 3584 
Q 2172 3584 2450 3431 
Q 2728 3278 2906 2969 
L 2906 3500 
L 3481 3500 
L 3481 434 
z
" transform="scale(0.015625)"/>
     </defs>
     <use xlink:href="#DejaVuSans-51"/>
     <use xlink:href="#DejaVuSans-75" x="78.710938"/>
     <use xlink:href="#DejaVuSans-65" x="142.089844"/>
     <use xlink:href="#DejaVuSans-72" x="203.613281"/>
     <use xlink:href="#DejaVuSans-79" x="244.726562"/>
     <use xlink:href="#DejaVuSans-20" x="303.90625"/>
     <use xlink:href="#DejaVuSans-70" x="335.693359"/>
     <use xlink:href="#DejaVuSans-65" x="399.169922"/>
     <use xlink:href="#DejaVuSans-72" x="460.693359"/>
     <use xlink:href="#DejaVuSans-66" x="501.806641"/>
     <use xlink:href="#DejaVuSans-6f" x="537.011719"/>
     <use xlink:href="#DejaVuSans-72" x="598.193359"/>
     <use xlink:href="#DejaVuSans-6d" x="637.556641"/>
     <use xlink:href="#DejaVuSans-61" x="734.96875"/>
     <use xlink:href="#DejaVuSans-6e" x="796.248047"/>
     <use xlink:href="#DejaVuSans-63" x="859.626953"/>
     <use xlink:href="#DejaVuSans-65" x="914.607422"/>
     <use xlink:href="#DejaVuSans-20" x="976.130859"/>
     <use xlink:href="#DejaVuSans-6f" x="1007.917969"/>
     <use xlink:href="#DejaVuSans-66" x="1069.099609"/>
     <use xlink:href="#DejaVuSans-20" x="1104.304688"/>
     <use xlink:href="#DejaVuSans-63" x="1136.091797"/>
     <use xlink:href="#DejaVuSans-6f" x="1191.072266"/>
     <use xlink:href="#DejaVuSans-6c" x="1252.253906"/>
     <use xlink:href="#DejaVuSans-6c" x="1280.037109"/>
     <use xlink:href="#DejaVuSans-69" x="1307.820312"/>
     <use xlink:href="#DejaVuSans-73" x="1335.603516"/>
     <use xlink:href="#DejaVuSans-69" x="1387.703125"/>
     <use xlink:href="#DejaVuSans-6f" x="1415.486328"/>
     <use xlink:href="#DejaVuSans-6e" x="1476.667969"/>
     <use xlink:href="#DejaVuSans-2d" x="1540.046875"/>
     <use xlink:href="#DejaVuSans-63" x="1576.130859"/>
     <use xlink:href="#DejaVuSans-68" x="1631.111328"/>
     <use xlink:href="#DejaVuSans-65" x="1694.490234"/>
     <use xlink:href="#DejaVuSans-63" x="1756.013672"/>
     <use xlink:href="#DejaVuSans-6b" x="1810.994141"/>
     <use xlink:href="#DejaVuSans-69" x="1868.904297"/>
     <use xlink:href="#DejaVuSans-6e" x="1896.6875"/>
     <use xlink:href="#DejaVuSans-67" x="1960.066406"/>
     <use xlink:href="#DejaVuSans-20" x="2023.542969"/>
     <use xlink:href="#DejaVuSans-73" x="2055.330078"/>
     <use xlink:href="#DejaVuSans-74" x="2107.429688"/>
     <use xlink:href="#DejaVuSans-72" x="2146.638672"/>
     <use xlink:href="#DejaVuSans-75" x="2187.751953"/>
     <use xlink:href="#DejaVuSans-63" x="2251.130859"/>
     <use xlink:href="#DejaVuSans-74" x="2306.111328"/>
     <use xlink:href="#DejaVuSans-75" x="2345.320312"/>
     <use xlink:href="#DejaVuSans-72" x="2408.699219"/>
     <use xlink:href="#DejaVuSans-65" x="2447.5625"/>
     <use xlink:href="#DejaVuSans-73" x="2509.085938"/>
    </g>
   </g>
   <g id="legend_1">
    <g id="patch_7">
     <path d="M 64.6 90.395975 
L 216.73125 90.395975 
Q 218.73125 90.395975 218.73125 88.395975 
L 218.73125 45.3616 
Q 218.73125 43.3616 216.73125 43.3616 
L 64.6 43.3616 
Q 62.6 43.3616 62.6 45.3616 
L 62.6 88.395975 
Q 62.6 90.395975 64.6 90.395975 
z
" style="fill: #ffffff; opacity: 0.8; stroke: #cccccc; stroke-linejoin: miter"/>
    </g>
    <g id="line2d_18">
     <path d="M 66.6 51.460037 
L 76.6 51.460037 
L 86.6 51.460037 
" style="fill: none; stroke: #1f77b4; stroke-width: 1.5; stroke-linecap: square"/>
    </g>
    <g id="text_18">
     <!-- k-d tree (kiddo) -->
     <g transform="translate(94.6 54.960037) scale(0.1 -0.1)">
      <use xlink:href="#DejaVuSans-6b"/>
      <use xlink:href="#DejaVuSans-2d" x="57.910156"/>
      <use xlink:href="#DejaVuSans-64" x="93.994141"/>
      <use xlink:href="#DejaVuSans-20" x="157.470703"/>
      <use xlink:href="#DejaVuSans-74" x="189.257812"/>
      <use xlink:href="#DejaVuSans-72" x="228.466797"/>
      <use xlink:href="#DejaVuSans-65" x="267.330078"/>
      <use xlink:href="#DejaVuSans-65" x="328.853516"/>
      <use xlink:href="#DejaVuSans-20" x="390.376953"/>
      <use xlink:href="#DejaVuSans-28" x="422.164062"/>
      <use xlink:href="#DejaVuSans-6b" x="461.177734"/>
      <use xlink:href="#DejaVuSans-69" x="519.087891"/>
      <use xlink:href="#DejaVuSans-64" x="546.871094"/>
      <use xlink:href="#DejaVuSans-64" x="610.347656"/>
      <use xlink:href="#DejaVuSans-6f" x="673.824219"/>
      <use xlink:href="#DejaVuSans-29" x="735.005859"/>
     </g>
    </g>
    <g id="line2d_19">
     <path d="M 66.6 66.138162 
L 76.6 66.138162 
L 86.6 66.138162 
" style="fill: none; stroke: #ff7f0e; stroke-width: 1.5; stroke-linecap: square"/>
    </g>
    <g id="text_19">
     <!-- forward tree, sequential -->
     <g transform="translate(94.6 69.638162) scale(0.1 -0.1)">
      <defs>
       <path id="DejaVuSans-77" d="M 269 3500 
L 844 3500 
L 1563 769 
L 2278 3500 
L 2956 3500 
L 3675 769 
L 4391 3500 
L 4966 3500 
L 4050 0 
L 3372 0 
L 2619 2869 
L 1863 0 
L 1184 0 
L 269 3500 
z
" transform="scale(0.015625)"/>
       <path id="DejaVuSans-2c" d="M 750 794 
L 1409 794 
L 1409 256 
L 897 -744 
L 494 -744 
L 750 256 
L 750 794 
z
" transform="scale(0.015625)"/>
       <path id="DejaVuSans-71" d="M 947 1747 
Q 947 1113 1208 752 
Q 1469 391 1925 391 
Q 2381 391 2643 752 
Q 2906 1113 2906 1747 
Q 2906 2381 2643 2742 
Q 2381 3103 1925 3103 
Q 1469 3103 1208 2742 
Q 947 2381 947 1747 
z
M 2906 525 
Q 2725 213 2448 61 
Q 2172 -91 1784 -91 
Q 1150 -91 751 415 
Q 353 922 353 1747 
Q 353 2572 751 3078 
Q 1150 3584 1784 3584 
Q 2172 3584 2448 3432 
Q 2725 3281 2906 2969 
L 2906 3500 
L 3481 3500 
L 3481 -1331 
L 2906 -1331 
L 2906 525 
z
" transform="scale(0.015625)"/>
      </defs>
      <use xlink:href="#DejaVuSans-66"/>
      <use xlink:href="#DejaVuSans-6f" x="35.205078"/>
      <use xlink:href="#DejaVuSans-72" x="96.386719"/>
      <use xlink:href="#DejaVuSans-77" x="137.5"/>
      <use xlink:href="#DejaVuSans-61" x="219.287109"/>
      <use xlink:href="#DejaVuSans-72" x="280.566406"/>
      <use xlink:href="#DejaVuSans-64" x="319.929688"/>
      <use xlink:href="#DejaVuSans-20" x="383.40625"/>
      <use xlink:href="#DejaVuSans-74" x="415.193359"/>
      <use xlink:href="#DejaVuSans-72" x="454.402344"/>
      <use xlink:href="#DejaVuSans-65" x="493.265625"/>
      <use xlink:href="#DejaVuSans-65" x="554.789062"/>
      <use xlink:href="#DejaVuSans-2c" x="616.3125"/>
      <use xlink:href="#DejaVuSans-20" x="648.099609"/>
      <use xlink:href="#DejaVuSans-73" x="679.886719"/>
      <use xlink:href="#DejaVuSans-65" x="731.986328"/>
      <use xlink:href="#DejaVuSans-71" x="793.509766"/>
      <use xlink:href="#DejaVuSans-75" x="856.986328"/>
      <use xlink:href="#DejaVuSans-65" x="920.365234"/>
      <use xlink:href="#DejaVuSans-6e" x="981.888672"/>
      <use xlink:href="#DejaVuSans-74" x="1045.267578"/>
      <use xlink:href="#DejaVuSans-69" x="1084.476562"/>
      <use xlink:href="#DejaVuSans-61" x="1112.259766"/>
      <use xlink:href="#DejaVuSans-6c" x="1173.539062"/>
     </g>
    </g>
    <g id="line2d_20">
     <path d="M 66.6 80.816287 
L 76.6 80.816287 
L 86.6 80.816287 
" style="fill: none; stroke: #2ca02c; stroke-width: 1.5; stroke-linecap: square"/>
    </g>
    <g id="text_20">
     <!-- forward tree, SIMD -->
     <g transform="translate(94.6 84.316287) scale(0.1 -0.1)">
      <defs>
       <path id="DejaVuSans-53" d="M 3425 4513 
L 3425 3897 
Q 3066 4069 2747 4153 
Q 2428 4238 2131 4238 
Q 1616 4238 1336 4038 
Q 1056 3838 1056 3469 
Q 1056 3159 1242 3001 
Q 1428 2844 1947 2747 
L 2328 2669 
Q 3034 2534 3370 2195 
Q 3706 1856 3706 1288 
Q 3706 609 3251 259 
Q 2797 -91 1919 -91 
Q 1588 -91 1214 -16 
Q 841 59 441 206 
L 441 856 
Q 825 641 1194 531 
Q 1563 422 1919 422 
Q 2459 422 2753 634 
Q 3047 847 3047 1241 
Q 3047 1584 2836 1778 
Q 2625 1972 2144 2069 
L 1759 2144 
Q 1053 2284 737 2584 
Q 422 2884 422 3419 
Q 422 4038 858 4394 
Q 1294 4750 2059 4750 
Q 2388 4750 2728 4690 
Q 3069 4631 3425 4513 
z
" transform="scale(0.015625)"/>
       <path id="DejaVuSans-49" d="M 628 4666 
L 1259 4666 
L 1259 0 
L 628 0 
L 628 4666 
z
" transform="scale(0.015625)"/>
       <path id="DejaVuSans-4d" d="M 628 4666 
L 1569 4666 
L 2759 1491 
L 3956 4666 
L 4897 4666 
L 4897 0 
L 4281 0 
L 4281 4097 
L 3078 897 
L 2444 897 
L 1241 4097 
L 1241 0 
L 628 0 
L 628 4666 
z
" transform="scale(0.015625)"/>
       <path id="DejaVuSans-44" d="M 1259 4147 
L 1259 519 
L 2022 519 
Q 2988 519 3436 956 
Q 3884 1394 3884 2338 
Q 3884 3275 3436 3711 
Q 2988 4147 2022 4147 
L 1259 4147 
z
M 628 4666 
L 1925 4666 
Q 3281 4666 3915 4102 
Q 4550 3538 4550 2338 
Q 4550 1131 3912 565 
Q 3275 0 1925 0 
L 628 0 
L 628 4666 
z
" transform="scale(0.015625)"/>
      </defs>
      <use xlink:href="#DejaVuSans-66"/>
      <use xlink:href="#DejaVuSans-6f" x="35.205078"/>
      <use xlink:href="#DejaVuSans-72" x="96.386719"/>
      <use xlink:href="#DejaVuSans-77" x="137.5"/>
      <use xlink:href="#DejaVuSans-61" x="219.287109"/>
      <use xlink:href="#DejaVuSans-72" x="280.566406"/>
      <use xlink:href="#DejaVuSans-64" x="319.929688"/>
      <use xlink:href="#DejaVuSans-20" x="383.40625"/>
      <use xlink:href="#DejaVuSans-74" x="415.193359"/>
      <use xlink:href="#DejaVuSans-72" x="454.402344"/>
      <use xlink:href="#DejaVuSans-65" x="493.265625"/>
      <use xlink:href="#DejaVuSans-65" x="554.789062"/>
      <use xlink:href="#DejaVuSans-2c" x="616.3125"/>
      <use xlink:href="#DejaVuSans-20" x="648.099609"/>
      <use xlink:href="#DejaVuSans-53" x="679.886719"/>
      <use xlink:href="#DejaVuSans-49" x="743.363281"/>
      <use xlink:href="#DejaVuSans-4d" x="772.855469"/>
      <use xlink:href="#DejaVuSans-44" x="859.134766"/>
     </g>
    </g>
   </g>
  </g>
 </g>
 <defs>
  <clipPath id="p0dd0674968">
   <rect x="57.6" y="38.3616" width="357.12" height="246.1536"/>
  </clipPath>
 </defs>
</svg>
