<?xml version="1.0" encoding="UTF-8"?>
<!DOCTYPE svg  PUBLIC '-//W3C//DTD SVG 1.1//EN'  'http://www.w3.org/Graphics/SVG/1.1/DTD/svg11.dtd'>
<svg width="460.8pt" height="345.6pt" version="1.1" viewBox="0 0 460.8 345.6" xmlns="http://www.w3.org/2000/svg" xmlns:xlink="http://www.w3.org/1999/xlink">
 <metadata>
  <rdf:RDF xmlns:cc="http://creativecommons.org/ns#" xmlns:dc="http://purl.org/dc/elements/1.1/" xmlns:rdf="http://www.w3.org/1999/02/22-rdf-syntax-ns#">
   <cc:Work>
    <dc:type rdf:resource="http://purl.org/dc/dcmitype/StillImage"/>
    <dc:date>2024-02-21T12:46:42.228465</dc:date>
    <dc:format>image/svg+xml</dc:format>
    <dc:creator>
     <cc:Agent>
      <dc:title>Matplotlib v3.6.3, https://matplotlib.org/</dc:title>
     </cc:Agent>
    </dc:creator>
   </cc:Work>
  </rdf:RDF>
 </metadata>
 <defs>
  <style type="text/css">*{stroke-linejoin: round; stroke-linecap: butt}</style>
 </defs>
 <g id="figure_1">
  <g id="axes_1">
   <g id="PolyCollection_1">
    <path d="m73.833 295.49v-29.672-7.9993h0.81367v-5.9616h0.81367v-5.2381h0.81367v-4.8321h0.81367v-4.4629h0.81367v-3.9609h0.81367v-3.6729h0.81367v-3.4625h0.81367v-3.2669h0.81367v-3.1598h0.81367v-3.2004h0.81367v-3.0639h0.81367v-3.1266h0.81367v-3.0823h0.81367v-2.7944h0.81367v-2.4585h0.81367v-2.4585h0.81367v-2.3256h0.81367v-2.3994h0.81367v-2.3846h0.81367v-2.1595h0.81367v-2.1115h0.81367v-1.9528h0.81367v-1.9786h0.81367v-2.0487h0.81367v-2.0044h0.81367v-1.9528h0.81367v-1.7903h0.81367v-1.9158h0.81367v-1.6095h0.81367v-1.7165h0.81367v-2.034h0.81367v-1.9675h0.81367v-2.045h0.81367v-1.9823h0.81367v-1.8679h0.81367v-1.7128h0.81367v-1.7239h0.81367v-1.6058h0.81367v-1.6759h0.81367v-1.5652h0.81367v-1.4581h0.81367v-1.3732h0.81367v-1.3326h0.81367v-1.399h0.81367v-1.4876h0.81367v-1.3658h0.81367v-1.3326h0.81367v-1.4175h0.81367v-1.2994h0.81367v-1.3474h0.81367v-1.34h0.81367v-1.3474h0.81367v-1.2662h0.81367v-1.2514h0.81367v-1.3547h0.81367v-1.3584h0.81367v-1.3068h0.81367v-1.3363h0.81367v-1.3104h0.81367v-1.1923h0.81367v-1.1111h0.81367v-1.1h0.81367v-1.1702h0.81367v-1.0816h0.81367v-1.0557h0.81367v-0.93024h0.81367v-1.0151h0.81367v-0.92654h0.81367v-0.94869h0.81367v-0.88225h0.81367v-0.91547h0.81367v-0.87856h0.81367v-0.76043h0.81367v-0.79365h0.81367v-0.71613h0.81367v-0.82688h0.81367v-0.84533h0.81367v-0.85641h0.81367v-0.80842h0.81367v-0.76043h0.81367v-0.64969h0.81367v-0.65338h0.81367v-0.7309h0.81367v-0.69768h0.81367v-0.67184h0.81367v-0.72721h0.81367v-0.67922h0.81367v-0.61277h0.81367v-0.57217h0.81367v-0.62016h0.81367v-0.53156h0.81367v-0.59062h0.81367v-0.56848h0.81367v-0.53894h0.81367v-0.56109h0.81367v-0.5574h0.81367v-0.51311h0.81367v-0.56109h0.81367v-0.53894h0.81367v-0.46512h0.81367v-0.53156h0.81367v-0.47619h0.81367v-0.53894h0.81367v-0.49465h0.81367v-0.54264h0.81367v-0.4319h0.81367v-0.46881h0.81367v-0.57586h0.81367v-0.45773h0.81367v-0.44297h0.81367v-0.43559h0.81367v-0.45035h0.81367v-0.44666h0.81367v-0.38391h0.81367v-0.40606h0.81367v-0.4725h0.81367v-0.42082h0.81367v-0.50572h0.81367v-0.299h0.81367v-0.4725h0.81367v-0.33223h0.81367v-0.3876h0.81367v-0.47619h0.81367v-0.36545h0.81367v-0.3433h0.81367v-0.36545h0.81367v-0.33223h0.81367v-0.3027h0.81367v-0.29162h0.81367v-0.28793h0.81367v-0.35068h0.81367v-0.36176h0.81367v-0.28055h0.81367v-0.30639h0.81367v-0.35438h0.81367v-0.33592h0.81367v-0.36176h0.81367v-0.32484h0.81367v-0.38391h0.81367v-0.31746h0.81367v-0.31746h0.81367v-0.33961h0.81367v-0.3433h0.81367v-0.35438h0.81367v-0.32484h0.81367v-0.29162h0.81367v-0.28793h0.81367v-0.31746h0.81367v-0.35807h0.81367v-0.21779h0.81367v-0.23256h0.81367v-0.28793h0.81367v-0.21041h0.81367v-0.25102h0.81367v-0.2584h0.81367v-0.25471h0.81367v-0.21779h0.81367v-0.23994h0.81367v-0.20672h0.81367v-0.2141h0.81367v-0.21779h0.81367v-0.22148h0.81367v-0.23994h0.81367v-0.20303h0.81367v-0.21779h0.81367v-0.19934h0.81367v-0.22148h0.81367v-0.24732h0.81367v-0.24732h0.81367v-0.20672h0.81367v-0.18457h0.81367v-0.22887h0.81367v-0.18826h0.81367v-0.24732h0.81367v-0.17719h0.81367v-0.22148h0.81367v-0.1698h0.81367v-0.24363h0.81367v-0.23994h0.81367v-0.14766h0.81367v-0.1698h0.81367v-0.14396h0.81367v-0.17719h0.81367v-0.14396h0.81367v-0.13658h0.81367v-0.22518h0.81367v-0.20672h0.81367v-0.15135h0.81367v-0.15504h0.81367v-0.16242h0.81367v-0.12182h0.81367v-0.15873h0.81367v-0.12182h0.81367v-0.16242h0.81367v-0.1698h0.81367v-0.12551h0.81367v-0.14027h0.81367v-0.15135h0.81367v-0.1735h0.81367v-0.13289h0.81367v-0.14766h0.81367v-0.11812h0.81367v-0.13289h0.81367v-0.11812h0.81367v-0.14396h0.81367v-0.11074h0.81367v-0.13289h0.81367v-0.13658h0.81367v-0.13658h0.81367v-0.15504h0.81367v-0.1735h0.81367v-0.099668h0.81367v-0.11074h0.81367v-0.11812h0.81367v-0.11074h0.81367v-0.12551h0.81367v-0.088594h0.81367v-0.10336h0.81367v-0.1292h0.81367v-0.13658h0.81367v-0.095976h0.81367v-0.1292h0.81367v-0.099668h0.81367v-0.095976h0.81367v-0.092285h0.81367v-0.095977h0.81367v-0.099668h0.81367v-0.12551h0.81367v-0.081211h0.81367v-0.10705h0.81367v-0.088594h0.81367v-0.099668h0.81367v-0.13289h0.81367v-0.11443h0.81367v-0.11812h0.81367v-0.10705h0.81367v-0.088594h0.81367v-0.1292h0.81367v-0.12551h0.81367v-0.11443h0.81367v-0.11812h0.81367v-0.07752h0.81367v-0.088594h0.81367v-0.073828h0.81367v-0.11074h0.81367v-0.10705h0.81367v-0.077519h0.81367v-0.1292h0.81367v-0.12182h0.81367v-0.11812h0.81367v-0.11074h0.81367v-0.12182h0.81367v-0.092285h0.81367v-0.13289h0.81367v-0.095977h0.81367v-0.12182h0.81367v-0.12551h0.81367v-0.10705h0.81367v-0.14396h0.81367v-0.14766h0.81367v-0.15504h0.81367v-0.15135h0.81367v-0.1292h0.81367v-0.13289h0.81367v-0.070136h0.81367v-0.088594h0.81367v-0.081211h0.81367v-0.088594h0.81367v-0.11074h0.81367v-0.14766h0.81367v-0.13289h0.81367v-0.11074h0.81367v-0.12551h0.81367v-0.10336h0.81367v-0.092285h0.81367v-0.092285h0.81367v-0.13289h0.81367v-0.10336h0.81367v-0.084903h0.81367v-0.084902h0.81367v-0.12182h0.81367v-0.095976h0.81367v-0.14027h0.81367v-0.10336h0.81367v-0.088594h0.81367v-0.081211h0.81367v-0.12182h0.81367v-0.11812h0.81367v-0.07752h0.81367v-0.10705h0.81367v-0.10336h0.81367v-0.099668h0.81367v-0.081211h0.81367v-0.11074h0.81367v-0.062754h0.81367v-0.088593h0.81367v-0.10336h0.81367v-0.092285h0.81367v-0.084902h0.81367v-0.095977h0.81367v-0.084902h0.81367v-0.055371h0.81367v-0.066446h0.81367v-0.11812h0.81367v-0.081211h0.81367v-0.092285h0.81367v-0.070136h0.81367v-0.095977h0.81367v-0.070137h0.81367v-0.036914h0.81367v-0.055371h0.81367v-0.070137h0.81367v-0.062753h0.81367v-0.066446h0.81367v-0.095976h0.81367v-0.062754h0.81367v-0.062754h0.81367v-0.055371h0.81367v-0.059063h0.81367v-0.066445h0.81367v-0.047988h0.81367v-0.047989h0.81367v-0.059062h0.81367v-0.066445h0.81367v-0.02584h0.81367v-0.033223h0.81367v-0.05168h0.81367v-0.036914h0.81367v-0.036914h0.81367v-0.02584h0.81367v-0.018457h0.81367v-0.007382h0.81367v-0.033223h0.81367v-0.014766h0.81367v-0.018457h0.81367v-0.014765h0.81367v-0.022149h0.81367v-0.003691h0.81367v-0.011074h0.81367v-0.003692h0.81367v-0.007383h0.81367v-0.003691h0.81367 0.81367v-0.007383h0.81367 0.81367v-0.011074h0.81367v-0.003692h0.81367v-0.003691h0.81367 0.81367 0.81367 0.81367 0.81367 0.81367 0.81367 0.81367 0.81367 0.81367v-0.003691h0.81367 0.81367v-0.003692h0.81367 0.81367 0.81367 0.81367 0.81367 0.81367 0.81367 0.81367 0.81367 0.81367v-0.003691h0.81367 0.81367 0.81367 0.81367 0.81367 0.81367 0.81367 0.81367 0.81367 0.81367 0.81367 0.81367 0.81367 0.81367 0.81367 0.81367 0.81367v-0.003692h0.81367 0.81367 0.81367 0.81367 0.81367 0.81367 0.81367 0.81367v-0.003691h0.81367 0.81367v-0.003691h0.81367v-0.014766h0.81367v241.92h-0.81367-0.81367-0.81367-0.81367-0.81367-0.81367-0.81367-0.81367-0.81367-0.81367-0.81367-0.81367-0.81367-0.81367-0.81367-0.81367-0.81367-0.81367-0.81367-0.81367-0.81367-0.81367-0.81367-0.81367-0.81367-0.81367-0.81367-0.81367-0.81367-0.81367-0.81367-0.81367-0.81367-0.81367-0.81367-0.81367-0.81367-0.81367-0.81367-0.81367-0.81367-0.81367-0.81367-0.81367-0.81367-0.81367-0.81367-0.81367-0.81367-0.81367-0.81367-0.81367-0.81367-0.81367-0.81367-0.81367-0.81367-0.81367-0.81367-0.81367-0.81367-0.81367-0.81367-0.81367-0.81367-0.81367-0.81367-0.81367-0.81367-0.81367-0.81367-0.81367-0.81367-0.81367-0.81367-0.81367-0.81367-0.81367-0.81367-0.81367-0.81367-0.81367-0.81367-0.81367-0.81367-0.81367-0.81367-0.81367-0.81367-0.81367-0.81367-0.81367-0.81367-0.81367-0.81367-0.81367-0.81367-0.81367-0.81367-0.81367-0.81367-0.81367-0.81367-0.81367-0.81367-0.81367-0.81367-0.81367-0.81367-0.81367-0.81367-0.81367-0.81367-0.81367-0.81367-0.81367-0.81367-0.81367-0.81367-0.81367-0.81367-0.81367-0.81367-0.81367-0.81367-0.81367-0.81367-0.81367-0.81367-0.81367-0.81367-0.81367-0.81367-0.81367-0.81367-0.81367-0.81367-0.81367-0.81367-0.81367-0.81367-0.81367-0.81367-0.81367-0.81367-0.81367-0.81367-0.81367-0.81367-0.81367-0.81367-0.81367-0.81367-0.81367-0.81367-0.81367-0.81367-0.81367-0.81367-0.81367-0.81367-0.81367-0.81367-0.81367-0.81367-0.81367-0.81367-0.81367-0.81367-0.81367-0.81367-0.81367-0.81367-0.81367-0.81367-0.81367-0.81367-0.81367-0.81367-0.81367-0.81367-0.81367-0.81367-0.81367-0.81367-0.81367-0.81367-0.81367-0.81367-0.81367-0.81367-0.81367-0.81367-0.81367-0.81367-0.81367-0.81367-0.81367-0.81367-0.81367-0.81367-0.81367-0.81367-0.81367-0.81367-0.81367-0.81367-0.81367-0.81367-0.81367-0.81367-0.81367-0.81367-0.81367-0.81367-0.81367-0.81367-0.81367-0.81367-0.81367-0.81367-0.81367-0.81367-0.81367-0.81367-0.81367-0.81367-0.81367-0.81367-0.81367-0.81367-0.81367-0.81367-0.81367-0.81367-0.81367-0.81367-0.81367-0.81367-0.81367-0.81367-0.81367-0.81367-0.81367-0.81367-0.81367-0.81367-0.81367-0.81367-0.81367-0.81367-0.81367-0.81367-0.81367-0.81367-0.81367-0.81367-0.81367-0.81367-0.81367-0.81367-0.81367-0.81367-0.81367-0.81367-0.81367-0.81367-0.81367-0.81367-0.81367-0.81367-0.81367-0.81367-0.81367-0.81367-0.81367-0.81367-0.81367-0.81367-0.81367-0.81367-0.81367-0.81367-0.81367-0.81367-0.81367-0.81367-0.81367-0.81367-0.81367-0.81367-0.81367-0.81367-0.81367-0.81367-0.81367-0.81367-0.81367-0.81367-0.81367-0.81367-0.81367-0.81367-0.81367-0.81367-0.81367-0.81367-0.81367-0.81367-0.81367-0.81367-0.81367-0.81367-0.81367-0.81367-0.81367-0.81367-0.81367-0.81367-0.81367-0.81367-0.81367-0.81367-0.81367-0.81367-0.81367-0.81367-0.81367-0.81367-0.81367-0.81367-0.81367-0.81367-0.81367-0.81367-0.81367-0.81367-0.81367-0.81367-0.81367-0.81367-0.81367-0.81367-0.81367-0.81367-0.81367-0.81367-0.81367-0.81367-0.81367-0.81367-0.81367-0.81367-0.81367-0.81367-0.81367-0.81367-0.81367-0.81367-0.81367-0.81367-0.81367-0.81367-0.81367-0.81367-0.81367-0.81367-0.81367-0.81367-0.81367-0.81367-0.81367-0.81367-0.81367-0.81367-0.81367-0.81367-0.81367-0.81367-0.81367-0.81367-0.81367-0.81367-0.81367-0.81367-0.81367-0.81367-0.81367-0.81367-0.81367-0.81367-0.81367-0.81367-0.81367-0.81367-0.81367-0.81367-0.81367-0.81367z" clip-path="url(#pa6fd0d2049)" fill="#1f77b4" fill-opacity=".4"/>
   </g>
   <g id="matplotlib.axis_1">
    <g id="xtick_1">
     <g id="line2d_1">
      <defs>
       <path id="mecf0a619d0" d="m0 0v3.5" stroke="#000" stroke-width=".8"/>
      </defs>
      <use x="73.832727" y="307.584" stroke="#000000" stroke-width=".8" xlink:href="#mecf0a619d0"/>
     </g>
     <g id="text_1">
      <!-- 0.0 -->
      <g transform="translate(65.881 322.18) scale(.1 -.1)">
       <defs>
        <path id="DejaVuSans-30" transform="scale(.015625)" d="m2034 4250q-487 0-733-480-245-479-245-1442 0-959 245-1439 246-480 733-480 491 0 736 480 246 480 246 1439 0 963-246 1442-245 480-736 480zm0 500q785 0 1199-621 414-620 414-1801 0-1178-414-1799-414-620-1199-620-784 0-1198 620-414 621-414 1799 0 1181 414 1801 414 621 1198 621z"/>
        <path id="DejaVuSans-2e" transform="scale(.015625)" d="m684 794h660v-794h-660v794z"/>
       </defs>
       <use xlink:href="#DejaVuSans-30"/>
       <use x="63.623047" xlink:href="#DejaVuSans-2e"/>
       <use x="95.410156" xlink:href="#DejaVuSans-30"/>
      </g>
     </g>
    </g>
    <g id="xtick_2">
     <g id="line2d_2">
      <use x="143.272005" y="307.584" stroke="#000000" stroke-width=".8" xlink:href="#mecf0a619d0"/>
     </g>
     <g id="text_2">
      <!-- 0.1 -->
      <g transform="translate(135.32 322.18) scale(.1 -.1)">
       <defs>
        <path id="DejaVuSans-31" transform="scale(.015625)" d="m794 531h1031v3560l-1122-225v575l1116 225h631v-4135h1031v-531h-2687v531z"/>
       </defs>
       <use xlink:href="#DejaVuSans-30"/>
       <use x="63.623047" xlink:href="#DejaVuSans-2e"/>
       <use x="95.410156" xlink:href="#DejaVuSans-31"/>
      </g>
     </g>
    </g>
    <g id="xtick_3">
     <g id="line2d_3">
      <use x="212.711284" y="307.584" stroke="#000000" stroke-width=".8" xlink:href="#mecf0a619d0"/>
     </g>
     <g id="text_3">
      <!-- 0.2 -->
      <g transform="translate(204.76 322.18) scale(.1 -.1)">
       <defs>
        <path id="DejaVuSans-32" transform="scale(.015625)" d="m1228 531h2203v-531h-2962v531q359 372 979 998 621 627 780 809 303 340 423 576 121 236 121 464 0 372-261 606-261 235-680 235-297 0-627-103-329-103-704-313v638q381 153 712 231 332 78 607 78 725 0 1156-363 431-362 431-968 0-288-108-546-107-257-392-607-78-91-497-524-418-433-1181-1211z"/>
       </defs>
       <use xlink:href="#DejaVuSans-30"/>
       <use x="63.623047" xlink:href="#DejaVuSans-2e"/>
       <use x="95.410156" xlink:href="#DejaVuSans-32"/>
      </g>
     </g>
    </g>
    <g id="xtick_4">
     <g id="line2d_4">
      <use x="282.150562" y="307.584" stroke="#000000" stroke-width=".8" xlink:href="#mecf0a619d0"/>
     </g>
     <g id="text_4">
      <!-- 0.3 -->
      <g transform="translate(274.2 322.18) scale(.1 -.1)">
       <defs>
        <path id="DejaVuSans-33" transform="scale(.015625)" d="m2597 2516q453-97 707-404 255-306 255-756 0-690-475-1069-475-378-1350-378-293 0-604 58t-642 174v609q262-153 574-231 313-78 654-78 593 0 904 234t311 681q0 413-289 645-289 233-804 233h-544v519h569q465 0 712 186t247 536q0 359-255 551-254 193-729 193-260 0-557-57-297-56-653-174v562q360 100 674 150t592 50q719 0 1137-327 419-326 419-882 0-388-222-655t-631-370z"/>
       </defs>
       <use xlink:href="#DejaVuSans-30"/>
       <use x="63.623047" xlink:href="#DejaVuSans-2e"/>
       <use x="95.410156" xlink:href="#DejaVuSans-33"/>
      </g>
     </g>
    </g>
    <g id="xtick_5">
     <g id="line2d_5">
      <use x="351.58984" y="307.584" stroke="#000000" stroke-width=".8" xlink:href="#mecf0a619d0"/>
     </g>
     <g id="text_5">
      <!-- 0.4 -->
      <g transform="translate(343.64 322.18) scale(.1 -.1)">
       <defs>
        <path id="DejaVuSans-34" transform="scale(.015625)" d="m2419 4116-1594-2491h1594v2491zm-166 550h794v-3041h666v-525h-666v-1100h-628v1100h-2106v609l1940 2957z"/>
       </defs>
       <use xlink:href="#DejaVuSans-30"/>
       <use x="63.623047" xlink:href="#DejaVuSans-2e"/>
       <use x="95.410156" xlink:href="#DejaVuSans-34"/>
      </g>
     </g>
    </g>
    <g id="text_6">
     <!-- Absolute distance error (m) -->
     <g transform="translate(167.48 335.86) scale(.1 -.1)">
      <defs>
       <path id="DejaVuSans-41" transform="scale(.015625)" d="m2188 4044-857-2322h1716l-859 2322zm-357 622h716l1778-4666h-656l-425 1197h-2103l-425-1197h-666l1781 4666z"/>
       <path id="DejaVuSans-62" transform="scale(.015625)" d="m3116 1747q0 634-261 995t-717 361q-457 0-718-361t-261-995 261-995 718-361q456 0 717 361t261 995zm-1957 1222q182 312 458 463 277 152 661 152 638 0 1036-506 399-506 399-1331t-399-1332q-398-506-1036-506-384 0-661 152-276 152-458 464v-525h-578v4863h578v-1894z"/>
       <path id="DejaVuSans-73" transform="scale(.015625)" d="m2834 3397v-544q-243 125-506 187-262 63-544 63-428 0-642-131t-214-394q0-200 153-314t616-217l197-44q612-131 870-370t258-667q0-488-386-773-386-284-1061-284-281 0-586 55t-642 164v594q319-166 628-249 309-82 613-82 406 0 624 139 219 139 219 392 0 234-158 359-157 125-692 241l-200 47q-534 112-772 345-237 233-237 639 0 494 350 762 350 269 994 269 318 0 599-47 282-46 519-140z"/>
       <path id="DejaVuSans-6f" transform="scale(.015625)" d="m1959 3097q-462 0-731-361t-269-989 267-989q268-361 733-361 460 0 728 362 269 363 269 988 0 622-269 986-268 364-728 364zm0 487q750 0 1178-488 429-487 429-1349 0-859-429-1349-428-489-1178-489-753 0-1180 489-426 490-426 1349 0 862 426 1349 427 488 1180 488z"/>
       <path id="DejaVuSans-6c" transform="scale(.015625)" d="m603 4863h575v-4863h-575v4863z"/>
       <path id="DejaVuSans-75" transform="scale(.015625)" d="m544 1381v2119h575v-2097q0-497 193-746 194-248 582-248 465 0 735 297 271 297 271 810v1984h575v-3500h-575v538q-209-319-486-474-276-155-642-155-603 0-916 375-312 375-312 1097zm1447 2203z"/>
       <path id="DejaVuSans-74" transform="scale(.015625)" d="m1172 4494v-994h1184v-447h-1184v-1900q0-428 117-550t477-122h590v-481h-590q-666 0-919 248-253 249-253 905v1900h-422v447h422v994h578z"/>
       <path id="DejaVuSans-65" transform="scale(.015625)" d="m3597 1894v-281h-2644q38-594 358-905t892-311q331 0 642 81t618 244v-544q-310-131-635-200t-659-69q-838 0-1327 487-489 488-489 1320 0 859 464 1363 464 505 1252 505 706 0 1117-455 411-454 411-1235zm-575 169q-6 471-264 752-258 282-683 282-481 0-770-272t-333-766l2050 4z"/>
       <path id="DejaVuSans-64" transform="scale(.015625)" d="m2906 2969v1894h575v-4863h-575v525q-181-312-458-464-276-152-664-152-634 0-1033 506-398 507-398 1332t398 1331q399 506 1033 506 388 0 664-152 277-151 458-463zm-1959-1222q0-634 261-995t717-361 718 361q263 361 263 995t-263 995q-262 361-718 361t-717-361-261-995z"/>
       <path id="DejaVuSans-69" transform="scale(.015625)" d="m603 3500h575v-3500h-575v3500zm0 1363h575v-729h-575v729z"/>
       <path id="DejaVuSans-61" transform="scale(.015625)" d="m2194 1759q-697 0-966-159t-269-544q0-306 202-486 202-179 548-179 479 0 768 339t289 901v128h-572zm1147 238v-1997h-575v531q-197-318-491-470t-719-152q-537 0-855 302-317 302-317 808 0 590 395 890 396 300 1180 300h807v57q0 397-261 614t-733 217q-300 0-585-72-284-72-546-216v532q315 122 612 182 297 61 578 61 760 0 1135-394 375-393 375-1193z"/>
       <path id="DejaVuSans-6e" transform="scale(.015625)" d="m3513 2113v-2113h-575v2094q0 497-194 743-194 247-581 247-466 0-735-297-269-296-269-809v-1978h-578v3500h578v-544q207 316 486 472 280 156 646 156 603 0 912-373 310-373 310-1098z"/>
       <path id="DejaVuSans-63" transform="scale(.015625)" d="m3122 3366v-538q-244 135-489 202t-495 67q-560 0-870-355-309-354-309-995t309-996q310-354 870-354 250 0 495 67t489 202v-532q-241-112-499-168-257-57-548-57-791 0-1257 497-465 497-465 1341 0 856 470 1346 471 491 1290 491 265 0 518-55 253-54 491-163z"/>
       <path id="DejaVuSans-72" transform="scale(.015625)" d="m2631 2963q-97 56-211 82-114 27-251 27-488 0-749-317t-261-911v-1844h-578v3500h578v-544q182 319 472 473 291 155 707 155 59 0 131-8 72-7 159-23l3-590z"/>
       <path id="DejaVuSans-28" transform="scale(.015625)" d="m1984 4856q-418-718-622-1422-203-703-203-1425 0-721 205-1429t620-1424h-500q-468 735-701 1444t-233 1409q0 697 231 1403 232 707 703 1444h500z"/>
       <path id="DejaVuSans-6d" transform="scale(.015625)" d="m3328 2828q216 388 516 572t706 184q547 0 844-383 297-382 297-1088v-2113h-578v2094q0 503-179 746-178 244-543 244-447 0-707-297-259-296-259-809v-1978h-578v2094q0 506-178 748t-550 242q-441 0-701-298-259-298-259-808v-1978h-578v3500h578v-544q197 322 472 475t653 153q382 0 649-194 267-193 395-562z"/>
       <path id="DejaVuSans-29" transform="scale(.015625)" d="m513 4856h500q468-737 701-1444 233-706 233-1403 0-700-233-1409t-701-1444h-500q415 716 620 1424t205 1429q0 722-205 1425-205 704-620 1422z"/>
      </defs>
      <use xlink:href="#DejaVuSans-41"/>
      <use x="68.408203" xlink:href="#DejaVuSans-62"/>
      <use x="131.884766" xlink:href="#DejaVuSans-73"/>
      <use x="183.984375" xlink:href="#DejaVuSans-6f"/>
      <use x="245.166016" xlink:href="#DejaVuSans-6c"/>
      <use x="272.949219" xlink:href="#DejaVuSans-75"/>
      <use x="336.328125" xlink:href="#DejaVuSans-74"/>
      <use x="375.537109" xlink:href="#DejaVuSans-65"/>
      <use x="437.060547" xlink:href="#DejaVuSans-20"/>
      <use x="468.847656" xlink:href="#DejaVuSans-64"/>
      <use x="532.324219" xlink:href="#DejaVuSans-69"/>
      <use x="560.107422" xlink:href="#DejaVuSans-73"/>
      <use x="612.207031" xlink:href="#DejaVuSans-74"/>
      <use x="651.416016" xlink:href="#DejaVuSans-61"/>
      <use x="712.695312" xlink:href="#DejaVuSans-6e"/>
      <use x="776.074219" xlink:href="#DejaVuSans-63"/>
      <use x="831.054688" xlink:href="#DejaVuSans-65"/>
      <use x="892.578125" xlink:href="#DejaVuSans-20"/>
      <use x="924.365234" xlink:href="#DejaVuSans-65"/>
      <use x="985.888672" xlink:href="#DejaVuSans-72"/>
      <use x="1025.251953" xlink:href="#DejaVuSans-72"/>
      <use x="1064.115234" xlink:href="#DejaVuSans-6f"/>
      <use x="1125.296875" xlink:href="#DejaVuSans-72"/>
      <use x="1166.410156" xlink:href="#DejaVuSans-20"/>
      <use x="1198.197266" xlink:href="#DejaVuSans-28"/>
      <use x="1237.210938" xlink:href="#DejaVuSans-6d"/>
      <use x="1334.623047" xlink:href="#DejaVuSans-29"/>
     </g>
    </g>
   </g>
   <g id="matplotlib.axis_2">
    <g id="ytick_1">
     <g id="line2d_6">
      <defs>
       <path id="m6d7198517b" d="m0 0h-3.5" stroke="#000" stroke-width=".8"/>
      </defs>
      <use x="57.6" y="295.488" stroke="#000000" stroke-width=".8" xlink:href="#m6d7198517b"/>
     </g>
     <g id="text_7">
      <!-- 0.0 -->
      <g transform="translate(34.697 299.29) scale(.1 -.1)">
       <use xlink:href="#DejaVuSans-30"/>
       <use x="63.623047" xlink:href="#DejaVuSans-2e"/>
       <use x="95.410156" xlink:href="#DejaVuSans-30"/>
      </g>
     </g>
    </g>
    <g id="ytick_2">
     <g id="line2d_7">
      <use x="57.6" y="247.104" stroke="#000000" stroke-width=".8" xlink:href="#m6d7198517b"/>
     </g>
     <g id="text_8">
      <!-- 0.2 -->
      <g transform="translate(34.697 250.9) scale(.1 -.1)">
       <use xlink:href="#DejaVuSans-30"/>
       <use x="63.623047" xlink:href="#DejaVuSans-2e"/>
       <use x="95.410156" xlink:href="#DejaVuSans-32"/>
      </g>
     </g>
    </g>
    <g id="ytick_3">
     <g id="line2d_8">
      <use x="57.6" y="198.72" stroke="#000000" stroke-width=".8" xlink:href="#m6d7198517b"/>
     </g>
     <g id="text_9">
      <!-- 0.4 -->
      <g transform="translate(34.697 202.52) scale(.1 -.1)">
       <use xlink:href="#DejaVuSans-30"/>
       <use x="63.623047" xlink:href="#DejaVuSans-2e"/>
       <use x="95.410156" xlink:href="#DejaVuSans-34"/>
      </g>
     </g>
    </g>
    <g id="ytick_4">
     <g id="line2d_9">
      <use x="57.6" y="150.336" stroke="#000000" stroke-width=".8" xlink:href="#m6d7198517b"/>
     </g>
     <g id="text_10">
      <!-- 0.6 -->
      <g transform="translate(34.697 154.14) scale(.1 -.1)">
       <defs>
        <path id="DejaVuSans-36" transform="scale(.015625)" d="m2113 2584q-425 0-674-291-248-290-248-796 0-503 248-796 249-292 674-292t673 292q248 293 248 796 0 506-248 796-248 291-673 291zm1253 1979v-575q-238 112-480 171-242 60-480 60-625 0-955-422-329-422-376-1275 184 272 462 417 279 145 613 145 703 0 1111-427 408-426 408-1160 0-719-425-1154-425-434-1131-434-810 0-1238 620-428 621-428 1799 0 1106 525 1764t1409 658q238 0 480-47t505-140z"/>
       </defs>
       <use xlink:href="#DejaVuSans-30"/>
       <use x="63.623047" xlink:href="#DejaVuSans-2e"/>
       <use x="95.410156" xlink:href="#DejaVuSans-36"/>
      </g>
     </g>
    </g>
    <g id="ytick_5">
     <g id="line2d_10">
      <use x="57.6" y="101.952" stroke="#000000" stroke-width=".8" xlink:href="#m6d7198517b"/>
     </g>
     <g id="text_11">
      <!-- 0.8 -->
      <g transform="translate(34.697 105.75) scale(.1 -.1)">
       <defs>
        <path id="DejaVuSans-38" transform="scale(.015625)" d="m2034 2216q-450 0-708-241-257-241-257-662 0-422 257-663 258-241 708-241t709 242q260 243 260 662 0 421-258 662-257 241-711 241zm-631 268q-406 100-633 378-226 279-226 679 0 559 398 884 399 325 1092 325 697 0 1094-325t397-884q0-400-227-679-226-278-629-378 456-106 710-416 255-309 255-755 0-679-414-1042-414-362-1186-362-771 0-1186 362-414 363-414 1042 0 446 256 755 257 310 713 416zm-231 997q0-362 226-565 227-203 636-203 407 0 636 203 230 203 230 565 0 363-230 566-229 203-636 203-409 0-636-203-226-203-226-566z"/>
       </defs>
       <use xlink:href="#DejaVuSans-30"/>
       <use x="63.623047" xlink:href="#DejaVuSans-2e"/>
       <use x="95.410156" xlink:href="#DejaVuSans-38"/>
      </g>
     </g>
    </g>
    <g id="ytick_6">
     <g id="line2d_11">
      <use x="57.6" y="53.568" stroke="#000000" stroke-width=".8" xlink:href="#m6d7198517b"/>
     </g>
     <g id="text_12">
      <!-- 1.0 -->
      <g transform="translate(34.697 57.367) scale(.1 -.1)">
       <use xlink:href="#DejaVuSans-31"/>
       <use x="63.623047" xlink:href="#DejaVuSans-2e"/>
       <use x="95.410156" xlink:href="#DejaVuSans-30"/>
      </g>
     </g>
    </g>
    <g id="text_13">
     <!-- Frequency -->
     <g transform="translate(28.617 200.36) rotate(-90) scale(.1 -.1)">
      <defs>
       <path id="DejaVuSans-46" transform="scale(.015625)" d="m628 4666h2681v-532h-2050v-1375h1850v-531h-1850v-2228h-631v4666z"/>
       <path id="DejaVuSans-71" transform="scale(.015625)" d="m947 1747q0-634 261-995t717-361 718 361q263 361 263 995t-263 995q-262 361-718 361t-717-361-261-995zm1959-1222q-181-312-458-464-276-152-664-152-634 0-1033 506-398 507-398 1332t398 1331q399 506 1033 506 388 0 664-152 277-151 458-463v531h575v-4831h-575v1856z"/>
       <path id="DejaVuSans-79" transform="scale(.015625)" d="m2059-325q-243-625-475-815-231-191-618-191h-460v481h338q237 0 368 113 132 112 291 531l103 262-1415 3444h609l1094-2737 1094 2737h609l-1538-3825z"/>
      </defs>
      <use xlink:href="#DejaVuSans-46"/>
      <use x="50.269531" xlink:href="#DejaVuSans-72"/>
      <use x="89.132812" xlink:href="#DejaVuSans-65"/>
      <use x="150.65625" xlink:href="#DejaVuSans-71"/>
      <use x="214.132812" xlink:href="#DejaVuSans-75"/>
      <use x="277.511719" xlink:href="#DejaVuSans-65"/>
      <use x="339.035156" xlink:href="#DejaVuSans-6e"/>
      <use x="402.414062" xlink:href="#DejaVuSans-63"/>
      <use x="457.394531" xlink:href="#DejaVuSans-79"/>
     </g>
    </g>
   </g>
   <g id="line2d_12">
    <path d="m73.833 265.82 0.81367-7.9993 1.6273-11.2 1.6273-9.295 1.6273-7.6338 1.6273-6.7294 4.0684-15.633 1.6273-5.2529 3.2547-9.5681 2.441-6.2237 4.882-11.691 1.6273-3.326 4.0684-9.8967 3.2547-6.7184 1.6273-3.0233 9.764-16.309 1.6273-2.6061 3.2547-5.3119 3.2547-4.5737 2.441-3.0676 2.441-2.8904 3.2547-3.4367 6.5094-6.2569 3.2547-2.7538 1.6273-1.4064 4.0684-2.9273 4.882-3.3001 2.441-1.5356 2.441-1.5098 1.6273-0.97453 6.5094-3.6619 2.441-1.2994 0.81367-0.50572 0.81367-0.299 0.81367-0.4725 1.6273-0.71982 1.6273-0.84164 4.0684-1.6353 1.6273-0.63861 1.6273-0.6423 2.441-0.99668 4.0684-1.7054 6.5094-2.6172 4.0684-1.1997 4.0684-1.1776 17.901-4.6549 4.0684-0.82688 2.441-0.5131 4.882-0.89701 4.0684-0.72352 4.0684-0.66076 3.2547-0.5168 3.2547-0.53894 9.764-1.3252 8.1367-1.0631 20.342-2.787 3.2547-0.56848 4.0684-0.43928 3.2547-0.5168 21.155-2.5766 7.323-0.76043 10.578-0.81211 8.1367-0.40236 31.733-0.17719 22.783-0.02584v0" clip-path="url(#pa6fd0d2049)" fill="none" stroke="#1f77b4" stroke-linecap="square" stroke-width="1.5"/>
   </g>
   <g id="patch_3">
    <path d="m57.6 307.58v-266.11" fill="none" stroke="#000" stroke-linecap="square" stroke-width=".8"/>
   </g>
   <g id="patch_4">
    <path d="m414.72 307.58v-266.11" fill="none" stroke="#000" stroke-linecap="square" stroke-width=".8"/>
   </g>
   <g id="patch_5">
    <path d="m57.6 307.58h357.12" fill="none" stroke="#000" stroke-linecap="square" stroke-width=".8"/>
   </g>
   <g id="patch_6">
    <path d="m57.6 41.472h357.12" fill="none" stroke="#000" stroke-linecap="square" stroke-width=".8"/>
   </g>
   <g id="text_14">
    <!-- CDF of forward tree absolute error distribution -->
    <g transform="translate(97.092 35.472) scale(.12 -.12)">
     <defs>
      <path id="DejaVuSans-43" transform="scale(.015625)" d="m4122 4306v-665q-319 297-680 443-361 147-767 147-800 0-1225-489t-425-1414q0-922 425-1411t1225-489q406 0 767 147t680 444v-660q-331-225-702-338-370-112-782-112-1060 0-1670 648-609 649-609 1771 0 1125 609 1773 610 649 1670 649 418 0 788-111 371-111 696-333z"/>
      <path id="DejaVuSans-44" transform="scale(.015625)" d="m1259 4147v-3628h763q966 0 1414 437 448 438 448 1382 0 937-448 1373t-1414 436h-763zm-631 519h1297q1356 0 1990-564 635-564 635-1764 0-1207-638-1773-637-565-1987-565h-1297v4666z"/>
      <path id="DejaVuSans-66" transform="scale(.015625)" d="m2375 4863v-479h-550q-309 0-430-125-120-125-120-450v-309h947v-447h-947v-3053h-578v3053h-550v447h550v244q0 584 272 851 272 268 862 268h544z"/>
      <path id="DejaVuSans-77" transform="scale(.015625)" d="m269 3500h575l719-2731 715 2731h678l719-2731 716 2731h575l-916-3500h-678l-753 2869-756-2869h-679l-915 3500z"/>
     </defs>
     <use xlink:href="#DejaVuSans-43"/>
     <use x="69.824219" xlink:href="#DejaVuSans-44"/>
     <use x="146.826172" xlink:href="#DejaVuSans-46"/>
     <use x="204.345703" xlink:href="#DejaVuSans-20"/>
     <use x="236.132812" xlink:href="#DejaVuSans-6f"/>
     <use x="297.314453" xlink:href="#DejaVuSans-66"/>
     <use x="332.519531" xlink:href="#DejaVuSans-20"/>
     <use x="364.306641" xlink:href="#DejaVuSans-66"/>
     <use x="399.511719" xlink:href="#DejaVuSans-6f"/>
     <use x="460.693359" xlink:href="#DejaVuSans-72"/>
     <use x="501.806641" xlink:href="#DejaVuSans-77"/>
     <use x="583.59375" xlink:href="#DejaVuSans-61"/>
     <use x="644.873047" xlink:href="#DejaVuSans-72"/>
     <use x="684.236328" xlink:href="#DejaVuSans-64"/>
     <use x="747.712891" xlink:href="#DejaVuSans-20"/>
     <use x="779.5" xlink:href="#DejaVuSans-74"/>
     <use x="818.708984" xlink:href="#DejaVuSans-72"/>
     <use x="857.572266" xlink:href="#DejaVuSans-65"/>
     <use x="919.095703" xlink:href="#DejaVuSans-65"/>
     <use x="980.619141" xlink:href="#DejaVuSans-20"/>
     <use x="1012.40625" xlink:href="#DejaVuSans-61"/>
     <use x="1073.685547" xlink:href="#DejaVuSans-62"/>
     <use x="1137.162109" xlink:href="#DejaVuSans-73"/>
     <use x="1189.261719" xlink:href="#DejaVuSans-6f"/>
     <use x="1250.443359" xlink:href="#DejaVuSans-6c"/>
     <use x="1278.226562" xlink:href="#DejaVuSans-75"/>
     <use x="1341.605469" xlink:href="#DejaVuSans-74"/>
     <use x="1380.814453" xlink:href="#DejaVuSans-65"/>
     <use x="1442.337891" xlink:href="#DejaVuSans-20"/>
     <use x="1474.125" xlink:href="#DejaVuSans-65"/>
     <use x="1535.648438" xlink:href="#DejaVuSans-72"/>
     <use x="1575.011719" xlink:href="#DejaVuSans-72"/>
     <use x="1613.875" xlink:href="#DejaVuSans-6f"/>
     <use x="1675.056641" xlink:href="#DejaVuSans-72"/>
     <use x="1716.169922" xlink:href="#DejaVuSans-20"/>
     <use x="1747.957031" xlink:href="#DejaVuSans-64"/>
     <use x="1811.433594" xlink:href="#DejaVuSans-69"/>
     <use x="1839.216797" xlink:href="#DejaVuSans-73"/>
     <use x="1891.316406" xlink:href="#DejaVuSans-74"/>
     <use x="1930.525391" xlink:href="#DejaVuSans-72"/>
     <use x="1971.638672" xlink:href="#DejaVuSans-69"/>
     <use x="1999.421875" xlink:href="#DejaVuSans-62"/>
     <use x="2062.898438" xlink:href="#DejaVuSans-75"/>
     <use x="2126.277344" xlink:href="#DejaVuSans-74"/>
     <use x="2165.486328" xlink:href="#DejaVuSans-69"/>
     <use x="2193.269531" xlink:href="#DejaVuSans-6f"/>
     <use x="2254.451172" xlink:href="#DejaVuSans-6e"/>
    </g>
   </g>
  </g>
 </g>
 <defs>
  <clipPath id="pa6fd0d2049">
   <rect x="57.6" y="41.472" width="357.12" height="266.11"/>
  </clipPath>
 </defs>
</svg>
