<?xml version="1.0" encoding="UTF-8"?>
<!DOCTYPE svg  PUBLIC '-//W3C//DTD SVG 1.1//EN'  'http://www.w3.org/Graphics/SVG/1.1/DTD/svg11.dtd'>
<svg width="460.8pt" height="345.6pt" version="1.1" viewBox="0 0 460.8 345.6" xmlns="http://www.w3.org/2000/svg" xmlns:xlink="http://www.w3.org/1999/xlink">
 <metadata>
  <rdf:RDF xmlns:cc="http://creativecommons.org/ns#" xmlns:dc="http://purl.org/dc/elements/1.1/" xmlns:rdf="http://www.w3.org/1999/02/22-rdf-syntax-ns#">
   <cc:Work>
    <dc:type rdf:resource="http://purl.org/dc/dcmitype/StillImage"/>
    <dc:date>2024-02-22T15:28:49.818559</dc:date>
    <dc:format>image/svg+xml</dc:format>
    <dc:creator>
     <cc:Agent>
      <dc:title>Matplotlib v3.6.3, https://matplotlib.org/</dc:title>
     </cc:Agent>
    </dc:creator>
   </cc:Work>
  </rdf:RDF>
 </metadata>
 <defs>
  <style type="text/css">*{stroke-linejoin: round; stroke-linecap: butt}</style>
 </defs>
 <g id="figure_1">
  <g id="patch_1">
   <path d="m0 345.6h460.8v-345.6h-460.8z" fill="#fff"/>
  </g>
  <g id="axes_1">
   <g id="patch_2">
    <path d="m57.6 307.58h357.12v-266.11h-357.12z" fill="#fff"/>
   </g>
   <g id="matplotlib.axis_1">
    <g id="xtick_1">
     <g id="line2d_1">
      <defs>
       <path id="mecf9a9df24" d="m0 0v3.5" stroke="#000" stroke-width=".8"/>
      </defs>
      <use x="71.235785" y="307.584" stroke="#000000" stroke-width=".8" xlink:href="#mecf9a9df24"/>
     </g>
     <g id="text_1">
      <!-- 0 -->
      <g transform="translate(68.055 322.18) scale(.1 -.1)">
       <defs>
        <path id="DejaVuSans-30" transform="scale(.015625)" d="m2034 4250q-487 0-733-480-245-479-245-1442 0-959 245-1439 246-480 733-480 491 0 736 480 246 480 246 1439 0 963-246 1442-245 480-736 480zm0 500q785 0 1199-621 414-620 414-1801 0-1178-414-1799-414-620-1199-620-784 0-1198 620-414 621-414 1799 0 1181 414 1801 414 621 1198 621z"/>
       </defs>
       <use xlink:href="#DejaVuSans-30"/>
      </g>
     </g>
    </g>
    <g id="xtick_2">
     <g id="line2d_2">
      <use x="123.805461" y="307.584" stroke="#000000" stroke-width=".8" xlink:href="#mecf9a9df24"/>
     </g>
     <g id="text_2">
      <!-- 10000 -->
      <g transform="translate(107.9 322.18) scale(.1 -.1)">
       <defs>
        <path id="DejaVuSans-31" transform="scale(.015625)" d="m794 531h1031v3560l-1122-225v575l1116 225h631v-4135h1031v-531h-2687v531z"/>
       </defs>
       <use xlink:href="#DejaVuSans-31"/>
       <use x="63.623047" xlink:href="#DejaVuSans-30"/>
       <use x="127.246094" xlink:href="#DejaVuSans-30"/>
       <use x="190.869141" xlink:href="#DejaVuSans-30"/>
       <use x="254.492188" xlink:href="#DejaVuSans-30"/>
      </g>
     </g>
    </g>
    <g id="xtick_3">
     <g id="line2d_3">
      <use x="176.375136" y="307.584" stroke="#000000" stroke-width=".8" xlink:href="#mecf9a9df24"/>
     </g>
     <g id="text_3">
      <!-- 20000 -->
      <g transform="translate(160.47 322.18) scale(.1 -.1)">
       <defs>
        <path id="DejaVuSans-32" transform="scale(.015625)" d="m1228 531h2203v-531h-2962v531q359 372 979 998 621 627 780 809 303 340 423 576 121 236 121 464 0 372-261 606-261 235-680 235-297 0-627-103-329-103-704-313v638q381 153 712 231 332 78 607 78 725 0 1156-363 431-362 431-968 0-288-108-546-107-257-392-607-78-91-497-524-418-433-1181-1211z"/>
       </defs>
       <use xlink:href="#DejaVuSans-32"/>
       <use x="63.623047" xlink:href="#DejaVuSans-30"/>
       <use x="127.246094" xlink:href="#DejaVuSans-30"/>
       <use x="190.869141" xlink:href="#DejaVuSans-30"/>
       <use x="254.492188" xlink:href="#DejaVuSans-30"/>
      </g>
     </g>
    </g>
    <g id="xtick_4">
     <g id="line2d_4">
      <use x="228.944812" y="307.584" stroke="#000000" stroke-width=".8" xlink:href="#mecf9a9df24"/>
     </g>
     <g id="text_4">
      <!-- 30000 -->
      <g transform="translate(213.04 322.18) scale(.1 -.1)">
       <defs>
        <path id="DejaVuSans-33" transform="scale(.015625)" d="m2597 2516q453-97 707-404 255-306 255-756 0-690-475-1069-475-378-1350-378-293 0-604 58t-642 174v609q262-153 574-231 313-78 654-78 593 0 904 234t311 681q0 413-289 645-289 233-804 233h-544v519h569q465 0 712 186t247 536q0 359-255 551-254 193-729 193-260 0-557-57-297-56-653-174v562q360 100 674 150t592 50q719 0 1137-327 419-326 419-882 0-388-222-655t-631-370z"/>
       </defs>
       <use xlink:href="#DejaVuSans-33"/>
       <use x="63.623047" xlink:href="#DejaVuSans-30"/>
       <use x="127.246094" xlink:href="#DejaVuSans-30"/>
       <use x="190.869141" xlink:href="#DejaVuSans-30"/>
       <use x="254.492188" xlink:href="#DejaVuSans-30"/>
      </g>
     </g>
    </g>
    <g id="xtick_5">
     <g id="line2d_5">
      <use x="281.514488" y="307.584" stroke="#000000" stroke-width=".8" xlink:href="#mecf9a9df24"/>
     </g>
     <g id="text_5">
      <!-- 40000 -->
      <g transform="translate(265.61 322.18) scale(.1 -.1)">
       <defs>
        <path id="DejaVuSans-34" transform="scale(.015625)" d="m2419 4116-1594-2491h1594v2491zm-166 550h794v-3041h666v-525h-666v-1100h-628v1100h-2106v609l1940 2957z"/>
       </defs>
       <use xlink:href="#DejaVuSans-34"/>
       <use x="63.623047" xlink:href="#DejaVuSans-30"/>
       <use x="127.246094" xlink:href="#DejaVuSans-30"/>
       <use x="190.869141" xlink:href="#DejaVuSans-30"/>
       <use x="254.492188" xlink:href="#DejaVuSans-30"/>
      </g>
     </g>
    </g>
    <g id="xtick_6">
     <g id="line2d_6">
      <use x="334.084163" y="307.584" stroke="#000000" stroke-width=".8" xlink:href="#mecf9a9df24"/>
     </g>
     <g id="text_6">
      <!-- 50000 -->
      <g transform="translate(318.18 322.18) scale(.1 -.1)">
       <defs>
        <path id="DejaVuSans-35" transform="scale(.015625)" d="m691 4666h2478v-532h-1900v-1143q137 47 274 70 138 23 276 23 781 0 1237-428 457-428 457-1159 0-753-469-1171-469-417-1322-417-294 0-599 50-304 50-629 150v635q281-153 581-228t634-75q541 0 856 284 316 284 316 772 0 487-316 771-315 285-856 285-253 0-505-56-251-56-513-175v2344z"/>
       </defs>
       <use xlink:href="#DejaVuSans-35"/>
       <use x="63.623047" xlink:href="#DejaVuSans-30"/>
       <use x="127.246094" xlink:href="#DejaVuSans-30"/>
       <use x="190.869141" xlink:href="#DejaVuSans-30"/>
       <use x="254.492188" xlink:href="#DejaVuSans-30"/>
      </g>
     </g>
    </g>
    <g id="xtick_7">
     <g id="line2d_7">
      <use x="386.653839" y="307.584" stroke="#000000" stroke-width=".8" xlink:href="#mecf9a9df24"/>
     </g>
     <g id="text_7">
      <!-- 60000 -->
      <g transform="translate(370.75 322.18) scale(.1 -.1)">
       <defs>
        <path id="DejaVuSans-36" transform="scale(.015625)" d="m2113 2584q-425 0-674-291-248-290-248-796 0-503 248-796 249-292 674-292t673 292q248 293 248 796 0 506-248 796-248 291-673 291zm1253 1979v-575q-238 112-480 171-242 60-480 60-625 0-955-422-329-422-376-1275 184 272 462 417 279 145 613 145 703 0 1111-427 408-426 408-1160 0-719-425-1154-425-434-1131-434-810 0-1238 620-428 621-428 1799 0 1106 525 1764t1409 658q238 0 480-47t505-140z"/>
       </defs>
       <use xlink:href="#DejaVuSans-36"/>
       <use x="63.623047" xlink:href="#DejaVuSans-30"/>
       <use x="127.246094" xlink:href="#DejaVuSans-30"/>
       <use x="190.869141" xlink:href="#DejaVuSans-30"/>
       <use x="254.492188" xlink:href="#DejaVuSans-30"/>
      </g>
     </g>
    </g>
    <g id="text_8">
     <!-- Number of points in cloud -->
     <g transform="translate(171.44 335.86) scale(.1 -.1)">
      <defs>
       <path id="DejaVuSans-4e" transform="scale(.015625)" d="m628 4666h850l2069-3903v3903h612v-4666h-850l-2068 3903v-3903h-613v4666z"/>
       <path id="DejaVuSans-75" transform="scale(.015625)" d="m544 1381v2119h575v-2097q0-497 193-746 194-248 582-248 465 0 735 297 271 297 271 810v1984h575v-3500h-575v538q-209-319-486-474-276-155-642-155-603 0-916 375-312 375-312 1097zm1447 2203z"/>
       <path id="DejaVuSans-6d" transform="scale(.015625)" d="m3328 2828q216 388 516 572t706 184q547 0 844-383 297-382 297-1088v-2113h-578v2094q0 503-179 746-178 244-543 244-447 0-707-297-259-296-259-809v-1978h-578v2094q0 506-178 748t-550 242q-441 0-701-298-259-298-259-808v-1978h-578v3500h578v-544q197 322 472 475t653 153q382 0 649-194 267-193 395-562z"/>
       <path id="DejaVuSans-62" transform="scale(.015625)" d="m3116 1747q0 634-261 995t-717 361q-457 0-718-361t-261-995 261-995 718-361q456 0 717 361t261 995zm-1957 1222q182 312 458 463 277 152 661 152 638 0 1036-506 399-506 399-1331t-399-1332q-398-506-1036-506-384 0-661 152-276 152-458 464v-525h-578v4863h578v-1894z"/>
       <path id="DejaVuSans-65" transform="scale(.015625)" d="m3597 1894v-281h-2644q38-594 358-905t892-311q331 0 642 81t618 244v-544q-310-131-635-200t-659-69q-838 0-1327 487-489 488-489 1320 0 859 464 1363 464 505 1252 505 706 0 1117-455 411-454 411-1235zm-575 169q-6 471-264 752-258 282-683 282-481 0-770-272t-333-766l2050 4z"/>
       <path id="DejaVuSans-72" transform="scale(.015625)" d="m2631 2963q-97 56-211 82-114 27-251 27-488 0-749-317t-261-911v-1844h-578v3500h578v-544q182 319 472 473 291 155 707 155 59 0 131-8 72-7 159-23l3-590z"/>
       <path id="DejaVuSans-6f" transform="scale(.015625)" d="m1959 3097q-462 0-731-361t-269-989 267-989q268-361 733-361 460 0 728 362 269 363 269 988 0 622-269 986-268 364-728 364zm0 487q750 0 1178-488 429-487 429-1349 0-859-429-1349-428-489-1178-489-753 0-1180 489-426 490-426 1349 0 862 426 1349 427 488 1180 488z"/>
       <path id="DejaVuSans-66" transform="scale(.015625)" d="m2375 4863v-479h-550q-309 0-430-125-120-125-120-450v-309h947v-447h-947v-3053h-578v3053h-550v447h550v244q0 584 272 851 272 268 862 268h544z"/>
       <path id="DejaVuSans-70" transform="scale(.015625)" d="m1159 525v-1856h-578v4831h578v-531q182 312 458 463 277 152 661 152 638 0 1036-506 399-506 399-1331t-399-1332q-398-506-1036-506-384 0-661 152-276 152-458 464zm1957 1222q0 634-261 995t-717 361q-457 0-718-361t-261-995 261-995 718-361q456 0 717 361t261 995z"/>
       <path id="DejaVuSans-69" transform="scale(.015625)" d="m603 3500h575v-3500h-575v3500zm0 1363h575v-729h-575v729z"/>
       <path id="DejaVuSans-6e" transform="scale(.015625)" d="m3513 2113v-2113h-575v2094q0 497-194 743-194 247-581 247-466 0-735-297-269-296-269-809v-1978h-578v3500h578v-544q207 316 486 472 280 156 646 156 603 0 912-373 310-373 310-1098z"/>
       <path id="DejaVuSans-74" transform="scale(.015625)" d="m1172 4494v-994h1184v-447h-1184v-1900q0-428 117-550t477-122h590v-481h-590q-666 0-919 248-253 249-253 905v1900h-422v447h422v994h578z"/>
       <path id="DejaVuSans-73" transform="scale(.015625)" d="m2834 3397v-544q-243 125-506 187-262 63-544 63-428 0-642-131t-214-394q0-200 153-314t616-217l197-44q612-131 870-370t258-667q0-488-386-773-386-284-1061-284-281 0-586 55t-642 164v594q319-166 628-249 309-82 613-82 406 0 624 139 219 139 219 392 0 234-158 359-157 125-692 241l-200 47q-534 112-772 345-237 233-237 639 0 494 350 762 350 269 994 269 318 0 599-47 282-46 519-140z"/>
       <path id="DejaVuSans-63" transform="scale(.015625)" d="m3122 3366v-538q-244 135-489 202t-495 67q-560 0-870-355-309-354-309-995t309-996q310-354 870-354 250 0 495 67t489 202v-532q-241-112-499-168-257-57-548-57-791 0-1257 497-465 497-465 1341 0 856 470 1346 471 491 1290 491 265 0 518-55 253-54 491-163z"/>
       <path id="DejaVuSans-6c" transform="scale(.015625)" d="m603 4863h575v-4863h-575v4863z"/>
       <path id="DejaVuSans-64" transform="scale(.015625)" d="m2906 2969v1894h575v-4863h-575v525q-181-312-458-464-276-152-664-152-634 0-1033 506-398 507-398 1332t398 1331q399 506 1033 506 388 0 664-152 277-151 458-463zm-1959-1222q0-634 261-995t717-361 718 361q263 361 263 995t-263 995q-262 361-718 361t-717-361-261-995z"/>
      </defs>
      <use xlink:href="#DejaVuSans-4e"/>
      <use x="74.804688" xlink:href="#DejaVuSans-75"/>
      <use x="138.183594" xlink:href="#DejaVuSans-6d"/>
      <use x="235.595703" xlink:href="#DejaVuSans-62"/>
      <use x="299.072266" xlink:href="#DejaVuSans-65"/>
      <use x="360.595703" xlink:href="#DejaVuSans-72"/>
      <use x="401.708984" xlink:href="#DejaVuSans-20"/>
      <use x="433.496094" xlink:href="#DejaVuSans-6f"/>
      <use x="494.677734" xlink:href="#DejaVuSans-66"/>
      <use x="529.882812" xlink:href="#DejaVuSans-20"/>
      <use x="561.669922" xlink:href="#DejaVuSans-70"/>
      <use x="625.146484" xlink:href="#DejaVuSans-6f"/>
      <use x="686.328125" xlink:href="#DejaVuSans-69"/>
      <use x="714.111328" xlink:href="#DejaVuSans-6e"/>
      <use x="777.490234" xlink:href="#DejaVuSans-74"/>
      <use x="816.699219" xlink:href="#DejaVuSans-73"/>
      <use x="868.798828" xlink:href="#DejaVuSans-20"/>
      <use x="900.585938" xlink:href="#DejaVuSans-69"/>
      <use x="928.369141" xlink:href="#DejaVuSans-6e"/>
      <use x="991.748047" xlink:href="#DejaVuSans-20"/>
      <use x="1023.535156" xlink:href="#DejaVuSans-63"/>
      <use x="1078.515625" xlink:href="#DejaVuSans-6c"/>
      <use x="1106.298828" xlink:href="#DejaVuSans-6f"/>
      <use x="1167.480469" xlink:href="#DejaVuSans-75"/>
      <use x="1230.859375" xlink:href="#DejaVuSans-64"/>
     </g>
    </g>
   </g>
   <g id="matplotlib.axis_2">
    <g id="ytick_1">
     <g id="line2d_8">
      <defs>
       <path id="md3344fcda0" d="m0 0h-3.5" stroke="#000" stroke-width=".8"/>
      </defs>
      <use x="57.6" y="291.41276" stroke="#000000" stroke-width=".8" xlink:href="#md3344fcda0"/>
     </g>
     <g id="text_9">
      <!-- $\mathdefault{10^{4}}$ -->
      <g transform="translate(33 295.21) scale(.1 -.1)">
       <use transform="translate(0 .68438)" xlink:href="#DejaVuSans-31"/>
       <use transform="translate(63.623 .68438)" xlink:href="#DejaVuSans-30"/>
       <use transform="translate(128.2 38.966) scale(.7)" xlink:href="#DejaVuSans-34"/>
      </g>
     </g>
    </g>
    <g id="ytick_2">
     <g id="line2d_9">
      <use x="57.6" y="243.540948" stroke="#000000" stroke-width=".8" xlink:href="#md3344fcda0"/>
     </g>
     <g id="text_10">
      <!-- $\mathdefault{10^{5}}$ -->
      <g transform="translate(33 247.34) scale(.1 -.1)">
       <use transform="translate(0 .68438)" xlink:href="#DejaVuSans-31"/>
       <use transform="translate(63.623 .68438)" xlink:href="#DejaVuSans-30"/>
       <use transform="translate(128.2 38.966) scale(.7)" xlink:href="#DejaVuSans-35"/>
      </g>
     </g>
    </g>
    <g id="ytick_3">
     <g id="line2d_10">
      <use x="57.6" y="195.669137" stroke="#000000" stroke-width=".8" xlink:href="#md3344fcda0"/>
     </g>
     <g id="text_11">
      <!-- $\mathdefault{10^{6}}$ -->
      <g transform="translate(33 199.47) scale(.1 -.1)">
       <use transform="translate(0 .76562)" xlink:href="#DejaVuSans-31"/>
       <use transform="translate(63.623 .76562)" xlink:href="#DejaVuSans-30"/>
       <use transform="translate(128.2 39.047) scale(.7)" xlink:href="#DejaVuSans-36"/>
      </g>
     </g>
    </g>
    <g id="ytick_4">
     <g id="line2d_11">
      <use x="57.6" y="147.797325" stroke="#000000" stroke-width=".8" xlink:href="#md3344fcda0"/>
     </g>
     <g id="text_12">
      <!-- $\mathdefault{10^{7}}$ -->
      <g transform="translate(33 151.6) scale(.1 -.1)">
       <defs>
        <path id="DejaVuSans-37" transform="scale(.015625)" d="m525 4666h3e3v-269l-1694-4397h-659l1594 4134h-2241v532z"/>
       </defs>
       <use transform="translate(0 .68438)" xlink:href="#DejaVuSans-31"/>
       <use transform="translate(63.623 .68438)" xlink:href="#DejaVuSans-30"/>
       <use transform="translate(128.2 38.966) scale(.7)" xlink:href="#DejaVuSans-37"/>
      </g>
     </g>
    </g>
    <g id="ytick_5">
     <g id="line2d_12">
      <use x="57.6" y="99.925513" stroke="#000000" stroke-width=".8" xlink:href="#md3344fcda0"/>
     </g>
     <g id="text_13">
      <!-- $\mathdefault{10^{8}}$ -->
      <g transform="translate(33 103.72) scale(.1 -.1)">
       <defs>
        <path id="DejaVuSans-38" transform="scale(.015625)" d="m2034 2216q-450 0-708-241-257-241-257-662 0-422 257-663 258-241 708-241t709 242q260 243 260 662 0 421-258 662-257 241-711 241zm-631 268q-406 100-633 378-226 279-226 679 0 559 398 884 399 325 1092 325 697 0 1094-325t397-884q0-400-227-679-226-278-629-378 456-106 710-416 255-309 255-755 0-679-414-1042-414-362-1186-362-771 0-1186 362-414 363-414 1042 0 446 256 755 257 310 713 416zm-231 997q0-362 226-565 227-203 636-203 407 0 636 203 230 203 230 565 0 363-230 566-229 203-636 203-409 0-636-203-226-203-226-566z"/>
       </defs>
       <use transform="translate(0 .76562)" xlink:href="#DejaVuSans-31"/>
       <use transform="translate(63.623 .76562)" xlink:href="#DejaVuSans-30"/>
       <use transform="translate(128.2 39.047) scale(.7)" xlink:href="#DejaVuSans-38"/>
      </g>
     </g>
    </g>
    <g id="ytick_6">
     <g id="line2d_13">
      <use x="57.6" y="52.053702" stroke="#000000" stroke-width=".8" xlink:href="#md3344fcda0"/>
     </g>
     <g id="text_14">
      <!-- $\mathdefault{10^{9}}$ -->
      <g transform="translate(33 55.853) scale(.1 -.1)">
       <defs>
        <path id="DejaVuSans-39" transform="scale(.015625)" d="m703 97v575q238-113 481-172 244-59 479-59 625 0 954 420 330 420 377 1277-181-269-460-413-278-144-615-144-700 0-1108 423-408 424-408 1159 0 718 425 1152 425 435 1131 435 810 0 1236-621 427-620 427-1801 0-1103-524-1761-523-658-1407-658-238 0-482 47-243 47-506 141zm1256 1978q425 0 673 290 249 291 249 798 0 503-249 795-248 292-673 292t-673-292-248-795q0-507 248-798 248-290 673-290z"/>
       </defs>
       <use transform="translate(0 .76562)" xlink:href="#DejaVuSans-31"/>
       <use transform="translate(63.623 .76562)" xlink:href="#DejaVuSans-30"/>
       <use transform="translate(128.2 39.047) scale(.7)" xlink:href="#DejaVuSans-39"/>
      </g>
     </g>
    </g>
    <g id="ytick_7">
     <g id="line2d_14">
      <defs>
       <path id="m175d3889ac" d="m0 0h-2" stroke="#000" stroke-width=".6"/>
      </defs>
      <use x="57.6" y="305.823611" stroke="#000000" stroke-width=".6" xlink:href="#m175d3889ac"/>
     </g>
    </g>
    <g id="ytick_8">
     <g id="line2d_15">
      <use x="57.6" y="302.033061" stroke="#000000" stroke-width=".6" xlink:href="#m175d3889ac"/>
     </g>
    </g>
    <g id="ytick_9">
     <g id="line2d_16">
      <use x="57.6" y="298.828197" stroke="#000000" stroke-width=".6" xlink:href="#m175d3889ac"/>
     </g>
    </g>
    <g id="ytick_10">
     <g id="line2d_17">
      <use x="57.6" y="296.052018" stroke="#000000" stroke-width=".6" xlink:href="#m175d3889ac"/>
     </g>
    </g>
    <g id="ytick_11">
     <g id="line2d_18">
      <use x="57.6" y="293.603254" stroke="#000000" stroke-width=".6" xlink:href="#m175d3889ac"/>
     </g>
    </g>
    <g id="ytick_12">
     <g id="line2d_19">
      <use x="57.6" y="277.001908" stroke="#000000" stroke-width=".6" xlink:href="#m175d3889ac"/>
     </g>
    </g>
    <g id="ytick_13">
     <g id="line2d_20">
      <use x="57.6" y="268.572101" stroke="#000000" stroke-width=".6" xlink:href="#m175d3889ac"/>
     </g>
    </g>
    <g id="ytick_14">
     <g id="line2d_21">
      <use x="57.6" y="262.591057" stroke="#000000" stroke-width=".6" xlink:href="#m175d3889ac"/>
     </g>
    </g>
    <g id="ytick_15">
     <g id="line2d_22">
      <use x="57.6" y="257.951799" stroke="#000000" stroke-width=".6" xlink:href="#m175d3889ac"/>
     </g>
    </g>
    <g id="ytick_16">
     <g id="line2d_23">
      <use x="57.6" y="254.16125" stroke="#000000" stroke-width=".6" xlink:href="#m175d3889ac"/>
     </g>
    </g>
    <g id="ytick_17">
     <g id="line2d_24">
      <use x="57.6" y="250.956386" stroke="#000000" stroke-width=".6" xlink:href="#m175d3889ac"/>
     </g>
    </g>
    <g id="ytick_18">
     <g id="line2d_25">
      <use x="57.6" y="248.180206" stroke="#000000" stroke-width=".6" xlink:href="#m175d3889ac"/>
     </g>
    </g>
    <g id="ytick_19">
     <g id="line2d_26">
      <use x="57.6" y="245.731442" stroke="#000000" stroke-width=".6" xlink:href="#m175d3889ac"/>
     </g>
    </g>
    <g id="ytick_20">
     <g id="line2d_27">
      <use x="57.6" y="229.130097" stroke="#000000" stroke-width=".6" xlink:href="#m175d3889ac"/>
     </g>
    </g>
    <g id="ytick_21">
     <g id="line2d_28">
      <use x="57.6" y="220.700289" stroke="#000000" stroke-width=".6" xlink:href="#m175d3889ac"/>
     </g>
    </g>
    <g id="ytick_22">
     <g id="line2d_29">
      <use x="57.6" y="214.719246" stroke="#000000" stroke-width=".6" xlink:href="#m175d3889ac"/>
     </g>
    </g>
    <g id="ytick_23">
     <g id="line2d_30">
      <use x="57.6" y="210.079988" stroke="#000000" stroke-width=".6" xlink:href="#m175d3889ac"/>
     </g>
    </g>
    <g id="ytick_24">
     <g id="line2d_31">
      <use x="57.6" y="206.289438" stroke="#000000" stroke-width=".6" xlink:href="#m175d3889ac"/>
     </g>
    </g>
    <g id="ytick_25">
     <g id="line2d_32">
      <use x="57.6" y="203.084574" stroke="#000000" stroke-width=".6" xlink:href="#m175d3889ac"/>
     </g>
    </g>
    <g id="ytick_26">
     <g id="line2d_33">
      <use x="57.6" y="200.308394" stroke="#000000" stroke-width=".6" xlink:href="#m175d3889ac"/>
     </g>
    </g>
    <g id="ytick_27">
     <g id="line2d_34">
      <use x="57.6" y="197.85963" stroke="#000000" stroke-width=".6" xlink:href="#m175d3889ac"/>
     </g>
    </g>
    <g id="ytick_28">
     <g id="line2d_35">
      <use x="57.6" y="181.258285" stroke="#000000" stroke-width=".6" xlink:href="#m175d3889ac"/>
     </g>
    </g>
    <g id="ytick_29">
     <g id="line2d_36">
      <use x="57.6" y="172.828478" stroke="#000000" stroke-width=".6" xlink:href="#m175d3889ac"/>
     </g>
    </g>
    <g id="ytick_30">
     <g id="line2d_37">
      <use x="57.6" y="166.847434" stroke="#000000" stroke-width=".6" xlink:href="#m175d3889ac"/>
     </g>
    </g>
    <g id="ytick_31">
     <g id="line2d_38">
      <use x="57.6" y="162.208176" stroke="#000000" stroke-width=".6" xlink:href="#m175d3889ac"/>
     </g>
    </g>
    <g id="ytick_32">
     <g id="line2d_39">
      <use x="57.6" y="158.417626" stroke="#000000" stroke-width=".6" xlink:href="#m175d3889ac"/>
     </g>
    </g>
    <g id="ytick_33">
     <g id="line2d_40">
      <use x="57.6" y="155.212762" stroke="#000000" stroke-width=".6" xlink:href="#m175d3889ac"/>
     </g>
    </g>
    <g id="ytick_34">
     <g id="line2d_41">
      <use x="57.6" y="152.436583" stroke="#000000" stroke-width=".6" xlink:href="#m175d3889ac"/>
     </g>
    </g>
    <g id="ytick_35">
     <g id="line2d_42">
      <use x="57.6" y="149.987819" stroke="#000000" stroke-width=".6" xlink:href="#m175d3889ac"/>
     </g>
    </g>
    <g id="ytick_36">
     <g id="line2d_43">
      <use x="57.6" y="133.386474" stroke="#000000" stroke-width=".6" xlink:href="#m175d3889ac"/>
     </g>
    </g>
    <g id="ytick_37">
     <g id="line2d_44">
      <use x="57.6" y="124.956666" stroke="#000000" stroke-width=".6" xlink:href="#m175d3889ac"/>
     </g>
    </g>
    <g id="ytick_38">
     <g id="line2d_45">
      <use x="57.6" y="118.975622" stroke="#000000" stroke-width=".6" xlink:href="#m175d3889ac"/>
     </g>
    </g>
    <g id="ytick_39">
     <g id="line2d_46">
      <use x="57.6" y="114.336365" stroke="#000000" stroke-width=".6" xlink:href="#m175d3889ac"/>
     </g>
    </g>
    <g id="ytick_40">
     <g id="line2d_47">
      <use x="57.6" y="110.545815" stroke="#000000" stroke-width=".6" xlink:href="#m175d3889ac"/>
     </g>
    </g>
    <g id="ytick_41">
     <g id="line2d_48">
      <use x="57.6" y="107.340951" stroke="#000000" stroke-width=".6" xlink:href="#m175d3889ac"/>
     </g>
    </g>
    <g id="ytick_42">
     <g id="line2d_49">
      <use x="57.6" y="104.564771" stroke="#000000" stroke-width=".6" xlink:href="#m175d3889ac"/>
     </g>
    </g>
    <g id="ytick_43">
     <g id="line2d_50">
      <use x="57.6" y="102.116007" stroke="#000000" stroke-width=".6" xlink:href="#m175d3889ac"/>
     </g>
    </g>
    <g id="ytick_44">
     <g id="line2d_51">
      <use x="57.6" y="85.514662" stroke="#000000" stroke-width=".6" xlink:href="#m175d3889ac"/>
     </g>
    </g>
    <g id="ytick_45">
     <g id="line2d_52">
      <use x="57.6" y="77.084855" stroke="#000000" stroke-width=".6" xlink:href="#m175d3889ac"/>
     </g>
    </g>
    <g id="ytick_46">
     <g id="line2d_53">
      <use x="57.6" y="71.103811" stroke="#000000" stroke-width=".6" xlink:href="#m175d3889ac"/>
     </g>
    </g>
    <g id="ytick_47">
     <g id="line2d_54">
      <use x="57.6" y="66.464553" stroke="#000000" stroke-width=".6" xlink:href="#m175d3889ac"/>
     </g>
    </g>
    <g id="ytick_48">
     <g id="line2d_55">
      <use x="57.6" y="62.674003" stroke="#000000" stroke-width=".6" xlink:href="#m175d3889ac"/>
     </g>
    </g>
    <g id="ytick_49">
     <g id="line2d_56">
      <use x="57.6" y="59.469139" stroke="#000000" stroke-width=".6" xlink:href="#m175d3889ac"/>
     </g>
    </g>
    <g id="ytick_50">
     <g id="line2d_57">
      <use x="57.6" y="56.69296" stroke="#000000" stroke-width=".6" xlink:href="#m175d3889ac"/>
     </g>
    </g>
    <g id="ytick_51">
     <g id="line2d_58">
      <use x="57.6" y="54.244196" stroke="#000000" stroke-width=".6" xlink:href="#m175d3889ac"/>
     </g>
    </g>
    <g id="text_15">
     <!-- Memory used (bytes) -->
     <g transform="translate(26.92 227.74) rotate(-90) scale(.1 -.1)">
      <defs>
       <path id="DejaVuSans-4d" transform="scale(.015625)" d="m628 4666h941l1190-3175 1197 3175h941v-4666h-616v4097l-1203-3200h-634l-1203 3200v-4097h-613v4666z"/>
       <path id="DejaVuSans-79" transform="scale(.015625)" d="m2059-325q-243-625-475-815-231-191-618-191h-460v481h338q237 0 368 113 132 112 291 531l103 262-1415 3444h609l1094-2737 1094 2737h609l-1538-3825z"/>
       <path id="DejaVuSans-28" transform="scale(.015625)" d="m1984 4856q-418-718-622-1422-203-703-203-1425 0-721 205-1429t620-1424h-500q-468 735-701 1444t-233 1409q0 697 231 1403 232 707 703 1444h500z"/>
       <path id="DejaVuSans-29" transform="scale(.015625)" d="m513 4856h500q468-737 701-1444 233-706 233-1403 0-700-233-1409t-701-1444h-500q415 716 620 1424t205 1429q0 722-205 1425-205 704-620 1422z"/>
      </defs>
      <use xlink:href="#DejaVuSans-4d"/>
      <use x="86.279297" xlink:href="#DejaVuSans-65"/>
      <use x="147.802734" xlink:href="#DejaVuSans-6d"/>
      <use x="245.214844" xlink:href="#DejaVuSans-6f"/>
      <use x="306.396484" xlink:href="#DejaVuSans-72"/>
      <use x="347.509766" xlink:href="#DejaVuSans-79"/>
      <use x="406.689453" xlink:href="#DejaVuSans-20"/>
      <use x="438.476562" xlink:href="#DejaVuSans-75"/>
      <use x="501.855469" xlink:href="#DejaVuSans-73"/>
      <use x="553.955078" xlink:href="#DejaVuSans-65"/>
      <use x="615.478516" xlink:href="#DejaVuSans-64"/>
      <use x="678.955078" xlink:href="#DejaVuSans-20"/>
      <use x="710.742188" xlink:href="#DejaVuSans-28"/>
      <use x="749.755859" xlink:href="#DejaVuSans-62"/>
      <use x="813.232422" xlink:href="#DejaVuSans-79"/>
      <use x="872.412109" xlink:href="#DejaVuSans-74"/>
      <use x="911.621094" xlink:href="#DejaVuSans-65"/>
      <use x="973.144531" xlink:href="#DejaVuSans-73"/>
      <use x="1025.244141" xlink:href="#DejaVuSans-29"/>
     </g>
    </g>
   </g>
   <g id="line2d_59">
    <path d="m398.49 194.68h-154.52l-1.7769 14.41h-84.327l-1.4404 14.41h-41.635l-0.98305 14.409h-20.16l-1.0934 14.406h-10.319l-0.39427 14.402h-5.0519l-0.24708 14.393h-2.3762l-0.33119 14.375v0" clip-path="url(#p1b6d2d73b7)" fill="none" stroke="#1f77b4" stroke-linecap="square" stroke-width="1.5"/>
   </g>
   <g id="line2d_60">
    <path d="m398.49 53.674-0.85163 0.036711-0.80432-0.14316-1.5771 0.24144-0.93574-0.095737-0.92523 0.033144-6.771 1.4188-1.2038 0.4677-1.2827 0.049116-7.6909 2.0918-1.3878 0.24131-2.8703 1.0727-1.4036 9e-3 -2.9492 0.5757-1.7558 0.31092-1.4982 0.075924-4.8785 1.2473-1.7611 0.33176-1.7085 0.45947-1.7979 0.24387-1.6927 0.5919-1.7506 0.26026-2.0029 0.51363-1.9924 0.28482-2.0292 0.48422-4.0847 0.56129-1.8084 0.5118-2.1343 0.28712-1.9293 0.83441-1.8978 0.55469-2.1764 0.42643-1.9451 0.67479-2.0923 0.38065-1.9766 0.63633-1.7769 0.73684-3.8954 0.93726-2.1238 0.81155-2.25 0.40731-9.594 2.3736-4.1109 1.1466-5.7459 1.4543-13 3.6626-3.764 0.94655-1.7506 0.56964-1.7085 0.39674-6.8183 1.9841-8.8212 2.209-3.2856 0.97776-1.535 0.34247-10.772 3.1694-1.7769 1.0431-8.7055 2.4316-14.52 4.1896-15.419 4.5457-9.0052 2.7229-12.175 4.0413-5.5198 2.2239-3.6851 1.2327-9.9094 3.5841-5.3884 2.0456-1.4404 3.4512-9.7622 4.5058-6.5712 3.3617-8.6004 4.7681-1.4299 0.7835-4.1845 2.7681-1.4457 1.1332-3.8902 2.6538-4.6945 3.2623-1.0566 0.79448-0.98305 1.351-3.2698 2.7004-7.3387 6.7486-3.0648 3.6958-1.2774 1.6271-0.98305 1.5726-1.3195 1.7174-0.9778 1.4835-1.9293 2.5301-1.0934 2.9989-2.0397 3.1476-0.82009 1.7816-2.0134 3.3835-2.5444 5.3188-0.96203 2.4016-0.39427 0.79246-0.4521 1.2798-1.0934 2.2288-0.39427 6.7436-0.95151 2.4552-0.63609 2.7598-0.85689 2.3086-1.0514 4.2485-0.36273 1.9436-0.24708 0.60268-0.94625 3.1759-0.43107 4.8957-0.13668 0.38734-0.46787 3.0946-0.3417 1.3867-1.2459 9.918-0.33119 6.5854v0" clip-path="url(#p1b6d2d73b7)" fill="none" stroke="#ff7f0e" stroke-linecap="square" stroke-width="1.5"/>
   </g>
   <g id="patch_3">
    <path d="m57.6 307.58v-266.11" fill="none" stroke="#000" stroke-linecap="square" stroke-width=".8"/>
   </g>
   <g id="patch_4">
    <path d="m414.72 307.58v-266.11" fill="none" stroke="#000" stroke-linecap="square" stroke-width=".8"/>
   </g>
   <g id="patch_5">
    <path d="m57.6 307.58h357.12" fill="none" stroke="#000" stroke-linecap="square" stroke-width=".8"/>
   </g>
   <g id="patch_6">
    <path d="m57.6 41.472h357.12" fill="none" stroke="#000" stroke-linecap="square" stroke-width=".8"/>
   </g>
   <g id="text_16">
    <!-- Memory consumption -->
    <g transform="translate(171 35.472) scale(.12 -.12)">
     <use xlink:href="#DejaVuSans-4d"/>
     <use x="86.279297" xlink:href="#DejaVuSans-65"/>
     <use x="147.802734" xlink:href="#DejaVuSans-6d"/>
     <use x="245.214844" xlink:href="#DejaVuSans-6f"/>
     <use x="306.396484" xlink:href="#DejaVuSans-72"/>
     <use x="347.509766" xlink:href="#DejaVuSans-79"/>
     <use x="406.689453" xlink:href="#DejaVuSans-20"/>
     <use x="438.476562" xlink:href="#DejaVuSans-63"/>
     <use x="493.457031" xlink:href="#DejaVuSans-6f"/>
     <use x="554.638672" xlink:href="#DejaVuSans-6e"/>
     <use x="618.017578" xlink:href="#DejaVuSans-73"/>
     <use x="670.117188" xlink:href="#DejaVuSans-75"/>
     <use x="733.496094" xlink:href="#DejaVuSans-6d"/>
     <use x="830.908203" xlink:href="#DejaVuSans-70"/>
     <use x="894.384766" xlink:href="#DejaVuSans-74"/>
     <use x="933.59375" xlink:href="#DejaVuSans-69"/>
     <use x="961.376953" xlink:href="#DejaVuSans-6f"/>
     <use x="1022.558594" xlink:href="#DejaVuSans-6e"/>
    </g>
   </g>
   <g id="legend_1">
    <g id="patch_7">
     <path d="m64.6 78.828h95.5q2 0 2-2v-28.356q0-2-2-2h-95.5q-2 0-2 2v28.356q0 2 2 2z" fill="#fff" opacity=".8" stroke="#ccc"/>
    </g>
    <g id="line2d_61">
     <path d="m66.6 54.57h10 10" fill="none" stroke="#1f77b4" stroke-linecap="square" stroke-width="1.5"/>
    </g>
    <g id="text_17">
     <!-- Forward tree -->
     <g transform="translate(94.6 58.07) scale(.1 -.1)">
      <defs>
       <path id="DejaVuSans-46" transform="scale(.015625)" d="m628 4666h2681v-532h-2050v-1375h1850v-531h-1850v-2228h-631v4666z"/>
       <path id="DejaVuSans-77" transform="scale(.015625)" d="m269 3500h575l719-2731 715 2731h678l719-2731 716 2731h575l-916-3500h-678l-753 2869-756-2869h-679l-915 3500z"/>
       <path id="DejaVuSans-61" transform="scale(.015625)" d="m2194 1759q-697 0-966-159t-269-544q0-306 202-486 202-179 548-179 479 0 768 339t289 901v128h-572zm1147 238v-1997h-575v531q-197-318-491-470t-719-152q-537 0-855 302-317 302-317 808 0 590 395 890 396 300 1180 300h807v57q0 397-261 614t-733 217q-300 0-585-72-284-72-546-216v532q315 122 612 182 297 61 578 61 760 0 1135-394 375-393 375-1193z"/>
      </defs>
      <use xlink:href="#DejaVuSans-46"/>
      <use x="53.894531" xlink:href="#DejaVuSans-6f"/>
      <use x="115.076172" xlink:href="#DejaVuSans-72"/>
      <use x="156.189453" xlink:href="#DejaVuSans-77"/>
      <use x="237.976562" xlink:href="#DejaVuSans-61"/>
      <use x="299.255859" xlink:href="#DejaVuSans-72"/>
      <use x="338.619141" xlink:href="#DejaVuSans-64"/>
      <use x="402.095703" xlink:href="#DejaVuSans-20"/>
      <use x="433.882812" xlink:href="#DejaVuSans-74"/>
      <use x="473.091797" xlink:href="#DejaVuSans-72"/>
      <use x="511.955078" xlink:href="#DejaVuSans-65"/>
      <use x="573.478516" xlink:href="#DejaVuSans-65"/>
     </g>
    </g>
    <g id="line2d_62">
     <path d="m66.6 69.249h10 10" fill="none" stroke="#ff7f0e" stroke-linecap="square" stroke-width="1.5"/>
    </g>
    <g id="text_18">
     <!-- CAPT -->
     <g transform="translate(94.6 72.749) scale(.1 -.1)">
      <defs>
       <path id="DejaVuSans-43" transform="scale(.015625)" d="m4122 4306v-665q-319 297-680 443-361 147-767 147-800 0-1225-489t-425-1414q0-922 425-1411t1225-489q406 0 767 147t680 444v-660q-331-225-702-338-370-112-782-112-1060 0-1670 648-609 649-609 1771 0 1125 609 1773 610 649 1670 649 418 0 788-111 371-111 696-333z"/>
       <path id="DejaVuSans-41" transform="scale(.015625)" d="m2188 4044-857-2322h1716l-859 2322zm-357 622h716l1778-4666h-656l-425 1197h-2103l-425-1197h-666l1781 4666z"/>
       <path id="DejaVuSans-50" transform="scale(.015625)" d="m1259 4147v-1753h794q441 0 681 228 241 228 241 650 0 419-241 647-240 228-681 228h-794zm-631 519h1425q785 0 1186-355 402-355 402-1039 0-691-402-1044-401-353-1186-353h-794v-1875h-631v4666z"/>
       <path id="DejaVuSans-54" transform="scale(.015625)" d="m-19 4666h3947v-532h-1656v-4134h-634v4134h-1657v532z"/>
      </defs>
      <use xlink:href="#DejaVuSans-43"/>
      <use x="69.824219" xlink:href="#DejaVuSans-41"/>
      <use x="138.232422" xlink:href="#DejaVuSans-50"/>
      <use x="198.535156" xlink:href="#DejaVuSans-54"/>
     </g>
    </g>
   </g>
  </g>
 </g>
 <defs>
  <clipPath id="p1b6d2d73b7">
   <rect x="57.6" y="41.472" width="357.12" height="266.11"/>
  </clipPath>
 </defs>
</svg>
